<?xml version="1.0" encoding="UTF-8" standalone="no"?>
<svg width="228.6mm" height="149.931mm"
 viewBox="0 0 648 425"
 xmlns="http://www.w3.org/2000/svg" xmlns:xlink="http://www.w3.org/1999/xlink"  version="1.2" baseProfile="tiny">
<title>Qt SVG Document</title>
<desc>MATLAB, The MathWorks, Inc. Version 25.2.0.3042426 R2025b Update 1</desc>
<defs>
</defs>
<g fill="none" stroke="black" stroke-width="1" fill-rule="evenodd" stroke-linecap="square" stroke-linejoin="bevel" >

<g fill="#000000" fill-opacity="1" stroke="none" transform="matrix(0.75,0,0,0.75,0,0)"
font-family="MS Shell Dlg 2" font-size="8.25" font-weight="400" font-style="normal" 
>
<path vector-effect="none" fill-rule="evenodd" d="M0,0 L864,0 L864,567 L0,567 L0,0"/>
</g>

<g fill="#121212" fill-opacity="1" stroke="none" transform="matrix(7.5e-05,0,0,7.5e-05,0,0)"
font-family="MS Shell Dlg 2" font-size="8.25" font-weight="400" font-style="normal" 
>
<path vector-effect="none" fill-rule="evenodd" d="M1.12e+06,250000 L1.12e+06,4.18e+06 L8.34e+06,4.18e+06 L8.34e+06,250000 L1.12e+06,250000"/>
</g>

<g fill="#ffffff" fill-opacity="0.25098" stroke="#ffffff" stroke-opacity="0.25098" stroke-width="0.666667" stroke-linecap="butt" stroke-linejoin="round" transform="matrix(0.75,0,0,0.75,0,0)"
font-family="MS Shell Dlg 2" font-size="8.25" font-weight="400" font-style="normal" 
>
<polyline fill="none" vector-effect="none" points="112,25 112,418 " />
<polyline fill="none" vector-effect="none" points="232.333,25 232.333,418 " />
<polyline fill="none" vector-effect="none" points="352.667,25 352.667,418 " />
<polyline fill="none" vector-effect="none" points="473,25 473,418 " />
<polyline fill="none" vector-effect="none" points="593.333,25 593.333,418 " />
<polyline fill="none" vector-effect="none" points="713.667,25 713.667,418 " />
<polyline fill="none" vector-effect="none" points="834,25 834,418 " />
<polyline fill="none" vector-effect="none" points="112,395.963 834,395.963 " />
<polyline fill="none" vector-effect="none" points="112,272.309 834,272.309 " />
<polyline fill="none" vector-effect="none" points="112,148.654 834,148.654 " />
<polyline fill="none" vector-effect="none" points="112,25 834,25 " />
</g>

<g fill="#d9d9d9" fill-opacity="1" stroke="none" transform="matrix(0.75,0,0,0.75,313.254,372.35)"
font-family="MS Shell Dlg 2" font-size="8.25" font-weight="400" font-style="normal" 
>
<path vector-effect="none" fill-rule="evenodd" d="M7.25,0.40625 C6.10417,0.40625 5.09115,0.135417 4.21094,-0.40625 C3.33073,-0.947917 2.64844,-1.67448 2.16406,-2.58594 C1.67969,-3.4974 1.4375,-4.53646 1.4375,-5.70313 C1.4375,-7.32813 1.89323,-8.9375 2.80469,-10.5313 C3.71615,-12.125 4.92448,-13.4193 6.42969,-14.4141 C7.9349,-15.4089 9.51042,-15.9063 11.1563,-15.9063 C12.375,-15.9063 13.4479,-15.5885 14.375,-14.9531 C15.3021,-14.3177 16.0052,-13.4688 16.4844,-12.4063 C16.9635,-11.3438 17.2031,-10.2083 17.2031,-9 L17.25,-6.60938 C18.0625,-7.74479 18.7552,-8.92188 19.3281,-10.1406 C19.901,-11.3594 20.3385,-12.625 20.6406,-13.9375 C20.6823,-14.0833 20.776,-14.1563 20.9219,-14.1563 L21.3438,-14.1563 C21.5625,-14.1563 21.6719,-14.0417 21.6719,-13.8125 C21.6719,-13.7917 21.6615,-13.7604 21.6406,-13.7188 C21.3594,-12.6146 21.0078,-11.5573 20.5859,-10.5469 C20.1641,-9.53646 19.6693,-8.55729 19.1016,-7.60938 C18.5339,-6.66146 17.9167,-5.79688 17.25,-5.01563 C17.25,-2.04688 17.5938,-0.5625 18.2813,-0.5625 C18.7292,-0.5625 19.0964,-0.695313 19.3828,-0.960938 C19.6693,-1.22656 19.9219,-1.55208 20.1406,-1.9375 C20.3594,-2.32292 20.4948,-2.52083 20.5469,-2.53125 L20.9844,-2.53125 C21.1719,-2.53125 21.2656,-2.41146 21.2656,-2.17188 C21.2656,-1.57813 20.9245,-1 20.2422,-0.4375 C19.5599,0.125 18.8854,0.40625 18.2188,0.40625 C17.3438,0.40625 16.6198,0.122396 16.0469,-0.445313 C15.474,-1.01302 15.0833,-1.75 14.875,-2.65625 C13.75,-1.6875 12.5313,-0.934896 11.2188,-0.398438 C9.90625,0.138021 8.58333,0.40625 7.25,0.40625 M7.3125,-0.5625 C9.875,-0.5625 12.3385,-1.61458 14.7031,-3.71875 C14.6823,-3.86458 14.6615,-4.03906 14.6406,-4.24219 C14.6198,-4.44531 14.6094,-4.55729 14.6094,-4.57813 L14.6094,-8.46875 C14.6094,-12.8125 13.4375,-14.9844 11.0938,-14.9844 C9.6875,-14.9844 8.45573,-14.3828 7.39844,-13.1797 C6.34115,-11.9766 5.54688,-10.5417 5.01563,-8.875 C4.48438,-7.20833 4.21875,-5.68229 4.21875,-4.29688 C4.21875,-3.25521 4.48438,-2.3724 5.01563,-1.64844 C5.54688,-0.924479 6.3125,-0.5625 7.3125,-0.5625 "/>
</g>

<g fill="#d9d9d9" fill-opacity="1" stroke="none" transform="matrix(0.75,0,0,0.75,338.587,372.35)"
font-family="MS Shell Dlg 2" font-size="8.25" font-weight="400" font-style="normal" 
>
<path vector-effect="none" fill-rule="evenodd" d="M2.70313,-4.78125 C2.50521,-4.78125 2.34115,-4.85677 2.21094,-5.00781 C2.08073,-5.15885 2.01563,-5.32292 2.01563,-5.5 C2.01563,-5.69792 2.08073,-5.86719 2.21094,-6.00781 C2.34115,-6.14844 2.50521,-6.21875 2.70313,-6.21875 L25.3125,-6.21875 C25.4896,-6.21875 25.6432,-6.14844 25.7734,-6.00781 C25.9036,-5.86719 25.9688,-5.69792 25.9688,-5.5 C25.9688,-5.32292 25.9036,-5.15885 25.7734,-5.00781 C25.6432,-4.85677 25.4896,-4.78125 25.3125,-4.78125 L2.70313,-4.78125 M2.70313,-11.7813 C2.50521,-11.7813 2.34115,-11.8516 2.21094,-11.9922 C2.08073,-12.1328 2.01563,-12.3021 2.01563,-12.5 C2.01563,-12.6771 2.08073,-12.8411 2.21094,-12.9922 C2.34115,-13.1432 2.50521,-13.2188 2.70313,-13.2188 L25.3125,-13.2188 C25.4896,-13.2188 25.6432,-13.1432 25.7734,-12.9922 C25.9036,-12.8411 25.9688,-12.6771 25.9688,-12.5 C25.9688,-12.3021 25.9036,-12.1328 25.7734,-11.9922 C25.6432,-11.8516 25.4896,-11.7813 25.3125,-11.7813 L2.70313,-11.7813"/>
</g>

<g fill="#d9d9d9" fill-opacity="1" stroke="none" transform="matrix(0.75,0,0,0.75,372.165,360.907)"
font-family="MS Shell Dlg 2" font-size="8.25" font-weight="400" font-style="normal" 
>
<path vector-effect="none" fill-rule="evenodd" d="M2.70313,-2.90625 C2.70313,-3.26042 2.75,-3.66406 2.84375,-4.11719 C2.9375,-4.57031 3.04167,-4.97396 3.15625,-5.32813 C3.27083,-5.68229 3.46354,-6.22656 3.73438,-6.96094 C4.00521,-7.69531 4.15104,-8.09375 4.17188,-8.15625 C4.39063,-8.77083 4.5,-9.27083 4.5,-9.65625 C4.5,-10.1563 4.31771,-10.4063 3.95313,-10.4063 C3.29688,-10.4063 2.75521,-10.0651 2.32813,-9.38281 C1.90104,-8.70052 1.58333,-7.94271 1.375,-7.10938 C1.34375,-7.00521 1.27604,-6.95313 1.17188,-6.95313 L0.875,-6.95313 C0.739583,-6.95313 0.671875,-7.03125 0.671875,-7.1875 L0.671875,-7.25 C0.942708,-8.25 1.35417,-9.13281 1.90625,-9.89844 C2.45833,-10.6641 3.15625,-11.0469 4,-11.0469 C4.59375,-11.0469 5.09635,-10.8516 5.50781,-10.4609 C5.91927,-10.0703 6.125,-9.57292 6.125,-8.96875 C6.125,-8.66667 6.05729,-8.34375 5.92188,-8 C5.72396,-7.5 5.49219,-6.89583 5.22656,-6.1875 C4.96094,-5.47917 4.75521,-4.83594 4.60938,-4.25781 C4.46354,-3.67969 4.39063,-3.11979 4.39063,-2.57813 C4.39063,-1.93229 4.5625,-1.40625 4.90625,-1 C5.25,-0.59375 5.74479,-0.390625 6.39063,-0.390625 C7.28646,-0.390625 8.02604,-1.06771 8.60938,-2.42188 C8.57813,-2.51563 8.5625,-2.65104 8.5625,-2.82813 C8.5625,-3.27604 8.63542,-3.78646 8.78125,-4.35938 L10.1875,-9.96875 C10.2396,-10.1875 10.3672,-10.3776 10.5703,-10.5391 C10.7734,-10.7005 10.9948,-10.7813 11.2344,-10.7813 C11.4323,-10.7813 11.6042,-10.7161 11.75,-10.5859 C11.8958,-10.4557 11.9688,-10.2865 11.9688,-10.0781 C11.9688,-9.97396 11.9635,-9.90625 11.9531,-9.875 L10.5469,-4.29688 C10.3802,-3.63021 10.2969,-3.03646 10.2969,-2.51563 C10.2969,-1.89063 10.4427,-1.38021 10.7344,-0.984375 C11.026,-0.588542 11.4792,-0.390625 12.0938,-0.390625 C13.1667,-0.390625 14.0521,-1.09896 14.75,-2.51563 C15.0104,-3.01563 15.2995,-3.75781 15.6172,-4.74219 C15.9349,-5.72656 16.0938,-6.47917 16.0938,-7 C16.0938,-7.47917 16.0182,-7.85938 15.8672,-8.14063 C15.7161,-8.42188 15.5026,-8.72396 15.2266,-9.04688 C14.9505,-9.36979 14.8125,-9.61458 14.8125,-9.78125 C14.8125,-10.0938 14.9505,-10.388 15.2266,-10.6641 C15.5026,-10.9401 15.8021,-11.0781 16.125,-11.0781 C16.5208,-11.0781 16.8073,-10.8932 16.9844,-10.5234 C17.1615,-10.1536 17.25,-9.73958 17.25,-9.28125 C17.25,-8.71875 17.1563,-8.0026 16.9688,-7.13281 C16.7813,-6.26302 16.5443,-5.39063 16.2578,-4.51563 C15.9714,-3.64063 15.7031,-2.94271 15.4531,-2.42188 C14.5469,-0.619792 13.4115,0.28125 12.0469,0.28125 C11.349,0.28125 10.7109,0.145833 10.1328,-0.125 C9.55469,-0.395833 9.125,-0.828125 8.84375,-1.42188 C8.58333,-0.932292 8.23438,-0.526042 7.79688,-0.203125 C7.35938,0.119792 6.875,0.28125 6.34375,0.28125 C5.25,0.28125 4.36979,0.0182292 3.70313,-0.507813 C3.03646,-1.03385 2.70313,-1.83333 2.70313,-2.90625 "/>
</g>

<g fill="#d9d9d9" fill-opacity="1" stroke="none" transform="matrix(0.75,0,0,0.75,385.947,363.825)"
font-family="MS Shell Dlg 2" font-size="8.25" font-weight="400" font-style="normal" 
>
<path vector-effect="none" fill-rule="evenodd" d="M0.796875,-1.45313 C0.796875,-1.49479 0.799479,-1.54948 0.804688,-1.61719 C0.809896,-1.6849 0.817708,-1.7526 0.828125,-1.82031 C0.838542,-1.88802 0.84375,-1.94271 0.84375,-1.98438 L3.07813,-10.8906 C3.11979,-11.099 3.15104,-11.2604 3.17188,-11.375 C3.17188,-11.5625 2.78125,-11.6563 2,-11.6563 C1.875,-11.6563 1.8125,-11.7396 1.8125,-11.9063 C1.82292,-11.9271 1.83854,-11.9766 1.85938,-12.0547 C1.88021,-12.1328 1.90625,-12.1927 1.9375,-12.2344 C1.96875,-12.276 2.01563,-12.2969 2.07813,-12.2969 L4.5,-12.4844 C4.64583,-12.4844 4.71875,-12.4115 4.71875,-12.2656 L2.125,-1.92188 C2.04167,-1.72396 2,-1.43229 2,-1.04688 C2,-0.536458 2.17188,-0.28125 2.51563,-0.28125 C2.89063,-0.28125 3.16927,-0.510417 3.35156,-0.96875 C3.53385,-1.42708 3.69792,-1.98438 3.84375,-2.64063 C3.875,-2.71354 3.92708,-2.75 4,-2.75 L4.20313,-2.75 C4.25521,-2.75 4.29688,-2.73177 4.32813,-2.69531 C4.35938,-2.65885 4.375,-2.61979 4.375,-2.57813 C4.23958,-1.99479 4.11458,-1.53385 4,-1.19531 C3.88542,-0.856771 3.70052,-0.539063 3.44531,-0.242188 C3.1901,0.0546875 2.86979,0.203125 2.48438,0.203125 C2.00521,0.203125 1.60417,0.046875 1.28125,-0.265625 C0.958333,-0.578125 0.796875,-0.973958 0.796875,-1.45313 "/>
</g>

<g fill="#d9d9d9" fill-opacity="1" stroke="none" transform="matrix(7.5e-05,0,0,7.5e-05,0,0)"
font-family="MS Shell Dlg 2" font-size="8.25" font-weight="400" font-style="normal" 
>
<path vector-effect="none" fill-rule="evenodd" d="M4.94552e+06,4.86567e+06 L4.94552e+06,4.88033e+06 L5.23928e+06,4.88033e+06 L5.23928e+06,4.86567e+06 L4.94552e+06,4.86567e+06"/>
</g>

<g fill="#d9d9d9" fill-opacity="1" stroke="none" transform="matrix(0.75,0,0,0.75,370.914,381.833)"
font-family="MS Shell Dlg 2" font-size="8.25" font-weight="400" font-style="normal" 
>
<path vector-effect="none" fill-rule="evenodd" d="M2.70313,-2.90625 C2.70313,-3.26042 2.75,-3.66406 2.84375,-4.11719 C2.9375,-4.57031 3.04167,-4.97396 3.15625,-5.32813 C3.27083,-5.68229 3.46354,-6.22656 3.73438,-6.96094 C4.00521,-7.69531 4.15104,-8.09375 4.17188,-8.15625 C4.39063,-8.77083 4.5,-9.27083 4.5,-9.65625 C4.5,-10.1563 4.31771,-10.4063 3.95313,-10.4063 C3.29688,-10.4063 2.75521,-10.0651 2.32813,-9.38281 C1.90104,-8.70052 1.58333,-7.94271 1.375,-7.10938 C1.34375,-7.00521 1.27604,-6.95313 1.17188,-6.95313 L0.875,-6.95313 C0.739583,-6.95313 0.671875,-7.03125 0.671875,-7.1875 L0.671875,-7.25 C0.942708,-8.25 1.35417,-9.13281 1.90625,-9.89844 C2.45833,-10.6641 3.15625,-11.0469 4,-11.0469 C4.59375,-11.0469 5.09635,-10.8516 5.50781,-10.4609 C5.91927,-10.0703 6.125,-9.57292 6.125,-8.96875 C6.125,-8.66667 6.05729,-8.34375 5.92188,-8 C5.72396,-7.5 5.49219,-6.89583 5.22656,-6.1875 C4.96094,-5.47917 4.75521,-4.83594 4.60938,-4.25781 C4.46354,-3.67969 4.39063,-3.11979 4.39063,-2.57813 C4.39063,-1.93229 4.5625,-1.40625 4.90625,-1 C5.25,-0.59375 5.74479,-0.390625 6.39063,-0.390625 C7.28646,-0.390625 8.02604,-1.06771 8.60938,-2.42188 C8.57813,-2.51563 8.5625,-2.65104 8.5625,-2.82813 C8.5625,-3.27604 8.63542,-3.78646 8.78125,-4.35938 L10.1875,-9.96875 C10.2396,-10.1875 10.3672,-10.3776 10.5703,-10.5391 C10.7734,-10.7005 10.9948,-10.7813 11.2344,-10.7813 C11.4323,-10.7813 11.6042,-10.7161 11.75,-10.5859 C11.8958,-10.4557 11.9688,-10.2865 11.9688,-10.0781 C11.9688,-9.97396 11.9635,-9.90625 11.9531,-9.875 L10.5469,-4.29688 C10.3802,-3.63021 10.2969,-3.03646 10.2969,-2.51563 C10.2969,-1.89063 10.4427,-1.38021 10.7344,-0.984375 C11.026,-0.588542 11.4792,-0.390625 12.0938,-0.390625 C13.1667,-0.390625 14.0521,-1.09896 14.75,-2.51563 C15.0104,-3.01563 15.2995,-3.75781 15.6172,-4.74219 C15.9349,-5.72656 16.0938,-6.47917 16.0938,-7 C16.0938,-7.47917 16.0182,-7.85938 15.8672,-8.14063 C15.7161,-8.42188 15.5026,-8.72396 15.2266,-9.04688 C14.9505,-9.36979 14.8125,-9.61458 14.8125,-9.78125 C14.8125,-10.0938 14.9505,-10.388 15.2266,-10.6641 C15.5026,-10.9401 15.8021,-11.0781 16.125,-11.0781 C16.5208,-11.0781 16.8073,-10.8932 16.9844,-10.5234 C17.1615,-10.1536 17.25,-9.73958 17.25,-9.28125 C17.25,-8.71875 17.1563,-8.0026 16.9688,-7.13281 C16.7813,-6.26302 16.5443,-5.39063 16.2578,-4.51563 C15.9714,-3.64063 15.7031,-2.94271 15.4531,-2.42188 C14.5469,-0.619792 13.4115,0.28125 12.0469,0.28125 C11.349,0.28125 10.7109,0.145833 10.1328,-0.125 C9.55469,-0.395833 9.125,-0.828125 8.84375,-1.42188 C8.58333,-0.932292 8.23438,-0.526042 7.79688,-0.203125 C7.35938,0.119792 6.875,0.28125 6.34375,0.28125 C5.25,0.28125 4.36979,0.0182292 3.70313,-0.507813 C3.03646,-1.03385 2.70313,-1.83333 2.70313,-2.90625 "/>
</g>

<g fill="#d9d9d9" fill-opacity="1" stroke="none" transform="matrix(0.75,0,0,0.75,384.696,384.72)"
font-family="MS Shell Dlg 2" font-size="8.25" font-weight="400" font-style="normal" 
>
<path vector-effect="none" fill-rule="evenodd" d="M1.67188,0 L1.67188,-0.640625 C3.17188,-0.640625 3.92188,-0.828125 3.92188,-1.20313 L3.92188,-10.6563 C3.29688,-10.3542 2.51042,-10.2031 1.5625,-10.2031 L1.5625,-10.8438 C3.03125,-10.8438 4.14063,-11.224 4.89063,-11.9844 L5.15625,-11.9844 C5.19792,-11.9844 5.23698,-11.9688 5.27344,-11.9375 C5.3099,-11.9063 5.32813,-11.8698 5.32813,-11.8281 L5.32813,-1.20313 C5.32813,-0.828125 6.07813,-0.640625 7.57813,-0.640625 L7.57813,0 L1.67188,0"/>
</g>

<g fill="#d9d9d9" fill-opacity="1" stroke="#d9d9d9" stroke-opacity="1" stroke-width="0.666667" stroke-linecap="square" stroke-linejoin="round" transform="matrix(0.75,0,0,0.75,0,0)"
font-family="MS Shell Dlg 2" font-size="8.25" font-weight="400" font-style="normal" 
>
<polyline fill="none" vector-effect="none" points="112,418 834,418 " />
<polyline fill="none" vector-effect="none" points="112,25 834,25 " />
<polyline fill="none" vector-effect="none" points="112,418 112,410.78 " />
<polyline fill="none" vector-effect="none" points="112,32.22 112,25 " />
<polyline fill="none" vector-effect="none" points="232.333,418 232.333,410.78 " />
<polyline fill="none" vector-effect="none" points="232.333,32.22 232.333,25 " />
<polyline fill="none" vector-effect="none" points="352.667,418 352.667,410.78 " />
<polyline fill="none" vector-effect="none" points="352.667,32.22 352.667,25 " />
<polyline fill="none" vector-effect="none" points="473,418 473,410.78 " />
<polyline fill="none" vector-effect="none" points="473,32.22 473,25 " />
<polyline fill="none" vector-effect="none" points="593.333,418 593.333,410.78 " />
<polyline fill="none" vector-effect="none" points="593.333,32.22 593.333,25 " />
<polyline fill="none" vector-effect="none" points="713.667,418 713.667,410.78 " />
<polyline fill="none" vector-effect="none" points="713.667,32.22 713.667,25 " />
<polyline fill="none" vector-effect="none" points="834,418 834,410.78 " />
<polyline fill="none" vector-effect="none" points="834,32.22 834,25 " />
</g>

<g fill="#d9d9d9" fill-opacity="1" stroke="none" transform="matrix(0.75,0,0,0.75,67.125,343)"
font-family="MS Shell Dlg 2" font-size="8.25" font-weight="400" font-style="normal" 
>
<path vector-effect="none" fill-rule="evenodd" d="M1.375,-11.6563 C1.375,-14.4479 1.66146,-16.6953 2.23438,-18.3984 C2.80729,-20.1016 3.66146,-21.4141 4.79688,-22.3359 C5.93229,-23.2578 7.35938,-23.7188 9.07813,-23.7188 C10.3385,-23.7188 11.4479,-23.4635 12.4063,-22.9531 C13.3646,-22.4427 14.1536,-21.7057 14.7734,-20.7422 C15.3932,-19.7786 15.8828,-18.6068 16.2422,-17.2266 C16.6016,-15.8464 16.7813,-13.9896 16.7813,-11.6563 C16.7813,-8.88542 16.4948,-6.64844 15.9219,-4.94531 C15.349,-3.24219 14.4974,-1.92448 13.3672,-0.992188 C12.237,-0.0598958 10.8073,0.40625 9.07813,0.40625 C6.79688,0.40625 5.00521,-0.411458 3.70313,-2.04688 C2.15104,-4.01563 1.375,-7.21875 1.375,-11.6563 M4.34375,-11.6563 C4.34375,-7.77083 4.79948,-5.1875 5.71094,-3.90625 C6.6224,-2.625 7.74479,-1.98438 9.07813,-1.98438 C10.401,-1.98438 11.5182,-2.6276 12.4297,-3.91406 C13.3411,-5.20052 13.7969,-7.78125 13.7969,-11.6563 C13.7969,-15.5417 13.3411,-18.1224 12.4297,-19.3984 C11.5182,-20.6745 10.3906,-21.3125 9.04688,-21.3125 C7.71354,-21.3125 6.64583,-20.75 5.84375,-19.625 C4.84375,-18.1875 4.34375,-15.5313 4.34375,-11.6563 M21,0 L21,-3.29688 L24.2969,-3.29688 L24.2969,0 L21,0 M28.375,-6.1875 L31.4219,-6.45313 C31.6406,-4.96354 32.1615,-3.84635 32.9844,-3.10156 C33.8073,-2.35677 34.7969,-1.98438 35.9531,-1.98438 C37.349,-1.98438 38.5313,-2.51042 39.5,-3.5625 C40.4688,-4.61458 40.9531,-6.01042 40.9531,-7.75 C40.9531,-9.40625 40.4896,-10.7109 39.5625,-11.6641 C38.6354,-12.6172 37.4167,-13.0938 35.9063,-13.0938 C34.9792,-13.0938 34.138,-12.8828 33.3828,-12.4609 C32.6276,-12.0391 32.0365,-11.4896 31.6094,-10.8125 L28.8906,-11.1719 L31.1719,-23.2969 L42.9219,-23.2969 L42.9219,-20.5313 L33.5,-20.5313 L32.2188,-14.1875 C33.6354,-15.1667 35.125,-15.6563 36.6875,-15.6563 C38.75,-15.6563 40.4896,-14.9427 41.9063,-13.5156 C43.3229,-12.0885 44.0313,-10.2552 44.0313,-8.01563 C44.0313,-5.86979 43.4063,-4.02083 42.1563,-2.46875 C40.6458,-0.552083 38.5781,0.40625 35.9531,0.40625 C33.8073,0.40625 32.0547,-0.195313 30.6953,-1.39844 C29.3359,-2.60156 28.5625,-4.19792 28.375,-6.1875 "/>
</g>

<g fill="#d9d9d9" fill-opacity="1" stroke="none" transform="matrix(0.75,0,0,0.75,150.625,343)"
font-family="MS Shell Dlg 2" font-size="8.25" font-weight="400" font-style="normal" 
>
<path vector-effect="none" fill-rule="evenodd" d="M1.375,-11.6563 C1.375,-14.4479 1.66146,-16.6953 2.23438,-18.3984 C2.80729,-20.1016 3.66146,-21.4141 4.79688,-22.3359 C5.93229,-23.2578 7.35938,-23.7188 9.07813,-23.7188 C10.3385,-23.7188 11.4479,-23.4635 12.4063,-22.9531 C13.3646,-22.4427 14.1536,-21.7057 14.7734,-20.7422 C15.3932,-19.7786 15.8828,-18.6068 16.2422,-17.2266 C16.6016,-15.8464 16.7813,-13.9896 16.7813,-11.6563 C16.7813,-8.88542 16.4948,-6.64844 15.9219,-4.94531 C15.349,-3.24219 14.4974,-1.92448 13.3672,-0.992188 C12.237,-0.0598958 10.8073,0.40625 9.07813,0.40625 C6.79688,0.40625 5.00521,-0.411458 3.70313,-2.04688 C2.15104,-4.01563 1.375,-7.21875 1.375,-11.6563 M4.34375,-11.6563 C4.34375,-7.77083 4.79948,-5.1875 5.71094,-3.90625 C6.6224,-2.625 7.74479,-1.98438 9.07813,-1.98438 C10.401,-1.98438 11.5182,-2.6276 12.4297,-3.91406 C13.3411,-5.20052 13.7969,-7.78125 13.7969,-11.6563 C13.7969,-15.5417 13.3411,-18.1224 12.4297,-19.3984 C11.5182,-20.6745 10.3906,-21.3125 9.04688,-21.3125 C7.71354,-21.3125 6.64583,-20.75 5.84375,-19.625 C4.84375,-18.1875 4.34375,-15.5313 4.34375,-11.6563 M21,0 L21,-3.29688 L24.2969,-3.29688 L24.2969,0 L21,0 M28.375,-6.1875 L31.4219,-6.45313 C31.6406,-4.96354 32.1615,-3.84635 32.9844,-3.10156 C33.8073,-2.35677 34.7969,-1.98438 35.9531,-1.98438 C37.349,-1.98438 38.5313,-2.51042 39.5,-3.5625 C40.4688,-4.61458 40.9531,-6.01042 40.9531,-7.75 C40.9531,-9.40625 40.4896,-10.7109 39.5625,-11.6641 C38.6354,-12.6172 37.4167,-13.0938 35.9063,-13.0938 C34.9792,-13.0938 34.138,-12.8828 33.3828,-12.4609 C32.6276,-12.0391 32.0365,-11.4896 31.6094,-10.8125 L28.8906,-11.1719 L31.1719,-23.2969 L42.9219,-23.2969 L42.9219,-20.5313 L33.5,-20.5313 L32.2188,-14.1875 C33.6354,-15.1667 35.125,-15.6563 36.6875,-15.6563 C38.75,-15.6563 40.4896,-14.9427 41.9063,-13.5156 C43.3229,-12.0885 44.0313,-10.2552 44.0313,-8.01563 C44.0313,-5.86979 43.4063,-4.02083 42.1563,-2.46875 C40.6458,-0.552083 38.5781,0.40625 35.9531,0.40625 C33.8073,0.40625 32.0547,-0.195313 30.6953,-1.39844 C29.3359,-2.60156 28.5625,-4.19792 28.375,-6.1875 M46.375,-6.1875 L49.4219,-6.45313 C49.6406,-4.96354 50.1615,-3.84635 50.9844,-3.10156 C51.8073,-2.35677 52.7969,-1.98438 53.9531,-1.98438 C55.349,-1.98438 56.5313,-2.51042 57.5,-3.5625 C58.4688,-4.61458 58.9531,-6.01042 58.9531,-7.75 C58.9531,-9.40625 58.4896,-10.7109 57.5625,-11.6641 C56.6354,-12.6172 55.4167,-13.0938 53.9063,-13.0938 C52.9792,-13.0938 52.138,-12.8828 51.3828,-12.4609 C50.6276,-12.0391 50.0365,-11.4896 49.6094,-10.8125 L46.8906,-11.1719 L49.1719,-23.2969 L60.9219,-23.2969 L60.9219,-20.5313 L51.5,-20.5313 L50.2188,-14.1875 C51.6354,-15.1667 53.125,-15.6563 54.6875,-15.6563 C56.75,-15.6563 58.4896,-14.9427 59.9063,-13.5156 C61.3229,-12.0885 62.0313,-10.2552 62.0313,-8.01563 C62.0313,-5.86979 61.4063,-4.02083 60.1563,-2.46875 C58.6458,-0.552083 56.5781,0.40625 53.9531,0.40625 C51.8073,0.40625 50.0547,-0.195313 48.6953,-1.39844 C47.3359,-2.60156 46.5625,-4.19792 46.375,-6.1875 "/>
</g>

<g fill="#d9d9d9" fill-opacity="1" stroke="none" transform="matrix(0.75,0,0,0.75,247.625,343)"
font-family="MS Shell Dlg 2" font-size="8.25" font-weight="400" font-style="normal" 
>
<path vector-effect="none" fill-rule="evenodd" d="M1.375,-11.6563 C1.375,-14.4479 1.66146,-16.6953 2.23438,-18.3984 C2.80729,-20.1016 3.66146,-21.4141 4.79688,-22.3359 C5.93229,-23.2578 7.35938,-23.7188 9.07813,-23.7188 C10.3385,-23.7188 11.4479,-23.4635 12.4063,-22.9531 C13.3646,-22.4427 14.1536,-21.7057 14.7734,-20.7422 C15.3932,-19.7786 15.8828,-18.6068 16.2422,-17.2266 C16.6016,-15.8464 16.7813,-13.9896 16.7813,-11.6563 C16.7813,-8.88542 16.4948,-6.64844 15.9219,-4.94531 C15.349,-3.24219 14.4974,-1.92448 13.3672,-0.992188 C12.237,-0.0598958 10.8073,0.40625 9.07813,0.40625 C6.79688,0.40625 5.00521,-0.411458 3.70313,-2.04688 C2.15104,-4.01563 1.375,-7.21875 1.375,-11.6563 M4.34375,-11.6563 C4.34375,-7.77083 4.79948,-5.1875 5.71094,-3.90625 C6.6224,-2.625 7.74479,-1.98438 9.07813,-1.98438 C10.401,-1.98438 11.5182,-2.6276 12.4297,-3.91406 C13.3411,-5.20052 13.7969,-7.78125 13.7969,-11.6563 C13.7969,-15.5417 13.3411,-18.1224 12.4297,-19.3984 C11.5182,-20.6745 10.3906,-21.3125 9.04688,-21.3125 C7.71354,-21.3125 6.64583,-20.75 5.84375,-19.625 C4.84375,-18.1875 4.34375,-15.5313 4.34375,-11.6563 M21,0 L21,-3.29688 L24.2969,-3.29688 L24.2969,0 L21,0 M43.4219,-17.8438 L40.5313,-17.6094 C40.2813,-18.7448 39.9167,-19.5729 39.4375,-20.0938 C38.6563,-20.9167 37.6927,-21.3281 36.5469,-21.3281 C35.6198,-21.3281 34.8073,-21.0729 34.1094,-20.5625 C33.1927,-19.8958 32.4714,-18.9245 31.9453,-17.6484 C31.4193,-16.3724 31.1458,-14.5521 31.125,-12.1875 C31.8229,-13.25 32.6771,-14.0391 33.6875,-14.5547 C34.6979,-15.0703 35.7552,-15.3281 36.8594,-15.3281 C38.7969,-15.3281 40.4453,-14.6146 41.8047,-13.1875 C43.1641,-11.7604 43.8438,-9.92188 43.8438,-7.67188 C43.8438,-6.19271 43.5234,-4.8151 42.8828,-3.53906 C42.2422,-2.26302 41.362,-1.28646 40.2422,-0.609375 C39.1224,0.0677083 37.8542,0.40625 36.4375,0.40625 C34.0208,0.40625 32.0495,-0.484375 30.5234,-2.26563 C28.9974,-4.04688 28.2344,-6.97396 28.2344,-11.0469 C28.2344,-15.6198 29.0781,-18.9427 30.7656,-21.0156 C32.2448,-22.8177 34.2292,-23.7188 36.7188,-23.7188 C38.5729,-23.7188 40.0938,-23.1979 41.2813,-22.1563 C42.4688,-21.1146 43.1823,-19.6771 43.4219,-17.8438 M31.5781,-7.65625 C31.5781,-6.65625 31.7891,-5.70052 32.2109,-4.78906 C32.6328,-3.8776 33.2266,-3.18229 33.9922,-2.70313 C34.7578,-2.22396 35.5573,-1.98438 36.3906,-1.98438 C37.6198,-1.98438 38.6745,-2.47917 39.5547,-3.46875 C40.4349,-4.45833 40.875,-5.80208 40.875,-7.5 C40.875,-9.125 40.4401,-10.4089 39.5703,-11.3516 C38.7005,-12.2943 37.6042,-12.7656 36.2813,-12.7656 C34.9688,-12.7656 33.8568,-12.2943 32.9453,-11.3516 C32.0339,-10.4089 31.5781,-9.17708 31.5781,-7.65625 "/>
</g>

<g fill="#d9d9d9" fill-opacity="1" stroke="none" transform="matrix(0.75,0,0,0.75,331.125,343)"
font-family="MS Shell Dlg 2" font-size="8.25" font-weight="400" font-style="normal" 
>
<path vector-effect="none" fill-rule="evenodd" d="M1.375,-11.6563 C1.375,-14.4479 1.66146,-16.6953 2.23438,-18.3984 C2.80729,-20.1016 3.66146,-21.4141 4.79688,-22.3359 C5.93229,-23.2578 7.35938,-23.7188 9.07813,-23.7188 C10.3385,-23.7188 11.4479,-23.4635 12.4063,-22.9531 C13.3646,-22.4427 14.1536,-21.7057 14.7734,-20.7422 C15.3932,-19.7786 15.8828,-18.6068 16.2422,-17.2266 C16.6016,-15.8464 16.7813,-13.9896 16.7813,-11.6563 C16.7813,-8.88542 16.4948,-6.64844 15.9219,-4.94531 C15.349,-3.24219 14.4974,-1.92448 13.3672,-0.992188 C12.237,-0.0598958 10.8073,0.40625 9.07813,0.40625 C6.79688,0.40625 5.00521,-0.411458 3.70313,-2.04688 C2.15104,-4.01563 1.375,-7.21875 1.375,-11.6563 M4.34375,-11.6563 C4.34375,-7.77083 4.79948,-5.1875 5.71094,-3.90625 C6.6224,-2.625 7.74479,-1.98438 9.07813,-1.98438 C10.401,-1.98438 11.5182,-2.6276 12.4297,-3.91406 C13.3411,-5.20052 13.7969,-7.78125 13.7969,-11.6563 C13.7969,-15.5417 13.3411,-18.1224 12.4297,-19.3984 C11.5182,-20.6745 10.3906,-21.3125 9.04688,-21.3125 C7.71354,-21.3125 6.64583,-20.75 5.84375,-19.625 C4.84375,-18.1875 4.34375,-15.5313 4.34375,-11.6563 M21,0 L21,-3.29688 L24.2969,-3.29688 L24.2969,0 L21,0 M43.4219,-17.8438 L40.5313,-17.6094 C40.2813,-18.7448 39.9167,-19.5729 39.4375,-20.0938 C38.6563,-20.9167 37.6927,-21.3281 36.5469,-21.3281 C35.6198,-21.3281 34.8073,-21.0729 34.1094,-20.5625 C33.1927,-19.8958 32.4714,-18.9245 31.9453,-17.6484 C31.4193,-16.3724 31.1458,-14.5521 31.125,-12.1875 C31.8229,-13.25 32.6771,-14.0391 33.6875,-14.5547 C34.6979,-15.0703 35.7552,-15.3281 36.8594,-15.3281 C38.7969,-15.3281 40.4453,-14.6146 41.8047,-13.1875 C43.1641,-11.7604 43.8438,-9.92188 43.8438,-7.67188 C43.8438,-6.19271 43.5234,-4.8151 42.8828,-3.53906 C42.2422,-2.26302 41.362,-1.28646 40.2422,-0.609375 C39.1224,0.0677083 37.8542,0.40625 36.4375,0.40625 C34.0208,0.40625 32.0495,-0.484375 30.5234,-2.26563 C28.9974,-4.04688 28.2344,-6.97396 28.2344,-11.0469 C28.2344,-15.6198 29.0781,-18.9427 30.7656,-21.0156 C32.2448,-22.8177 34.2292,-23.7188 36.7188,-23.7188 C38.5729,-23.7188 40.0938,-23.1979 41.2813,-22.1563 C42.4688,-21.1146 43.1823,-19.6771 43.4219,-17.8438 M31.5781,-7.65625 C31.5781,-6.65625 31.7891,-5.70052 32.2109,-4.78906 C32.6328,-3.8776 33.2266,-3.18229 33.9922,-2.70313 C34.7578,-2.22396 35.5573,-1.98438 36.3906,-1.98438 C37.6198,-1.98438 38.6745,-2.47917 39.5547,-3.46875 C40.4349,-4.45833 40.875,-5.80208 40.875,-7.5 C40.875,-9.125 40.4401,-10.4089 39.5703,-11.3516 C38.7005,-12.2943 37.6042,-12.7656 36.2813,-12.7656 C34.9688,-12.7656 33.8568,-12.2943 32.9453,-11.3516 C32.0339,-10.4089 31.5781,-9.17708 31.5781,-7.65625 M46.375,-6.1875 L49.4219,-6.45313 C49.6406,-4.96354 50.1615,-3.84635 50.9844,-3.10156 C51.8073,-2.35677 52.7969,-1.98438 53.9531,-1.98438 C55.349,-1.98438 56.5313,-2.51042 57.5,-3.5625 C58.4688,-4.61458 58.9531,-6.01042 58.9531,-7.75 C58.9531,-9.40625 58.4896,-10.7109 57.5625,-11.6641 C56.6354,-12.6172 55.4167,-13.0938 53.9063,-13.0938 C52.9792,-13.0938 52.138,-12.8828 51.3828,-12.4609 C50.6276,-12.0391 50.0365,-11.4896 49.6094,-10.8125 L46.8906,-11.1719 L49.1719,-23.2969 L60.9219,-23.2969 L60.9219,-20.5313 L51.5,-20.5313 L50.2188,-14.1875 C51.6354,-15.1667 53.125,-15.6563 54.6875,-15.6563 C56.75,-15.6563 58.4896,-14.9427 59.9063,-13.5156 C61.3229,-12.0885 62.0313,-10.2552 62.0313,-8.01563 C62.0313,-5.86979 61.4063,-4.02083 60.1563,-2.46875 C58.6458,-0.552083 56.5781,0.40625 53.9531,0.40625 C51.8073,0.40625 50.0547,-0.195313 48.6953,-1.39844 C47.3359,-2.60156 46.5625,-4.19792 46.375,-6.1875 "/>
</g>

<g fill="#d9d9d9" fill-opacity="1" stroke="none" transform="matrix(0.75,0,0,0.75,428.125,343)"
font-family="MS Shell Dlg 2" font-size="8.25" font-weight="400" font-style="normal" 
>
<path vector-effect="none" fill-rule="evenodd" d="M1.375,-11.6563 C1.375,-14.4479 1.66146,-16.6953 2.23438,-18.3984 C2.80729,-20.1016 3.66146,-21.4141 4.79688,-22.3359 C5.93229,-23.2578 7.35938,-23.7188 9.07813,-23.7188 C10.3385,-23.7188 11.4479,-23.4635 12.4063,-22.9531 C13.3646,-22.4427 14.1536,-21.7057 14.7734,-20.7422 C15.3932,-19.7786 15.8828,-18.6068 16.2422,-17.2266 C16.6016,-15.8464 16.7813,-13.9896 16.7813,-11.6563 C16.7813,-8.88542 16.4948,-6.64844 15.9219,-4.94531 C15.349,-3.24219 14.4974,-1.92448 13.3672,-0.992188 C12.237,-0.0598958 10.8073,0.40625 9.07813,0.40625 C6.79688,0.40625 5.00521,-0.411458 3.70313,-2.04688 C2.15104,-4.01563 1.375,-7.21875 1.375,-11.6563 M4.34375,-11.6563 C4.34375,-7.77083 4.79948,-5.1875 5.71094,-3.90625 C6.6224,-2.625 7.74479,-1.98438 9.07813,-1.98438 C10.401,-1.98438 11.5182,-2.6276 12.4297,-3.91406 C13.3411,-5.20052 13.7969,-7.78125 13.7969,-11.6563 C13.7969,-15.5417 13.3411,-18.1224 12.4297,-19.3984 C11.5182,-20.6745 10.3906,-21.3125 9.04688,-21.3125 C7.71354,-21.3125 6.64583,-20.75 5.84375,-19.625 C4.84375,-18.1875 4.34375,-15.5313 4.34375,-11.6563 M21,0 L21,-3.29688 L24.2969,-3.29688 L24.2969,0 L21,0 M28.5625,-20.5313 L28.5625,-23.3125 L43.8594,-23.3125 L43.8594,-21.0625 C42.349,-19.4583 40.8568,-17.3307 39.3828,-14.6797 C37.9089,-12.0286 36.7656,-9.30208 35.9531,-6.5 C35.3802,-4.52083 35.0104,-2.35417 34.8438,0 L31.8594,0 C31.901,-1.85417 32.2708,-4.09896 32.9688,-6.73438 C33.6667,-9.36979 34.6667,-11.9089 35.9688,-14.3516 C37.2708,-16.7943 38.6563,-18.8542 40.125,-20.5313 L28.5625,-20.5313"/>
</g>

<g fill="#d9d9d9" fill-opacity="1" stroke="none" transform="matrix(0.75,0,0,0.75,511.625,343)"
font-family="MS Shell Dlg 2" font-size="8.25" font-weight="400" font-style="normal" 
>
<path vector-effect="none" fill-rule="evenodd" d="M1.375,-11.6563 C1.375,-14.4479 1.66146,-16.6953 2.23438,-18.3984 C2.80729,-20.1016 3.66146,-21.4141 4.79688,-22.3359 C5.93229,-23.2578 7.35938,-23.7188 9.07813,-23.7188 C10.3385,-23.7188 11.4479,-23.4635 12.4063,-22.9531 C13.3646,-22.4427 14.1536,-21.7057 14.7734,-20.7422 C15.3932,-19.7786 15.8828,-18.6068 16.2422,-17.2266 C16.6016,-15.8464 16.7813,-13.9896 16.7813,-11.6563 C16.7813,-8.88542 16.4948,-6.64844 15.9219,-4.94531 C15.349,-3.24219 14.4974,-1.92448 13.3672,-0.992188 C12.237,-0.0598958 10.8073,0.40625 9.07813,0.40625 C6.79688,0.40625 5.00521,-0.411458 3.70313,-2.04688 C2.15104,-4.01563 1.375,-7.21875 1.375,-11.6563 M4.34375,-11.6563 C4.34375,-7.77083 4.79948,-5.1875 5.71094,-3.90625 C6.6224,-2.625 7.74479,-1.98438 9.07813,-1.98438 C10.401,-1.98438 11.5182,-2.6276 12.4297,-3.91406 C13.3411,-5.20052 13.7969,-7.78125 13.7969,-11.6563 C13.7969,-15.5417 13.3411,-18.1224 12.4297,-19.3984 C11.5182,-20.6745 10.3906,-21.3125 9.04688,-21.3125 C7.71354,-21.3125 6.64583,-20.75 5.84375,-19.625 C4.84375,-18.1875 4.34375,-15.5313 4.34375,-11.6563 M21,0 L21,-3.29688 L24.2969,-3.29688 L24.2969,0 L21,0 M28.5625,-20.5313 L28.5625,-23.3125 L43.8594,-23.3125 L43.8594,-21.0625 C42.349,-19.4583 40.8568,-17.3307 39.3828,-14.6797 C37.9089,-12.0286 36.7656,-9.30208 35.9531,-6.5 C35.3802,-4.52083 35.0104,-2.35417 34.8438,0 L31.8594,0 C31.901,-1.85417 32.2708,-4.09896 32.9688,-6.73438 C33.6667,-9.36979 34.6667,-11.9089 35.9688,-14.3516 C37.2708,-16.7943 38.6563,-18.8542 40.125,-20.5313 L28.5625,-20.5313 M46.375,-6.1875 L49.4219,-6.45313 C49.6406,-4.96354 50.1615,-3.84635 50.9844,-3.10156 C51.8073,-2.35677 52.7969,-1.98438 53.9531,-1.98438 C55.349,-1.98438 56.5313,-2.51042 57.5,-3.5625 C58.4688,-4.61458 58.9531,-6.01042 58.9531,-7.75 C58.9531,-9.40625 58.4896,-10.7109 57.5625,-11.6641 C56.6354,-12.6172 55.4167,-13.0938 53.9063,-13.0938 C52.9792,-13.0938 52.138,-12.8828 51.3828,-12.4609 C50.6276,-12.0391 50.0365,-11.4896 49.6094,-10.8125 L46.8906,-11.1719 L49.1719,-23.2969 L60.9219,-23.2969 L60.9219,-20.5313 L51.5,-20.5313 L50.2188,-14.1875 C51.6354,-15.1667 53.125,-15.6563 54.6875,-15.6563 C56.75,-15.6563 58.4896,-14.9427 59.9063,-13.5156 C61.3229,-12.0885 62.0313,-10.2552 62.0313,-8.01563 C62.0313,-5.86979 61.4063,-4.02083 60.1563,-2.46875 C58.6458,-0.552083 56.5781,0.40625 53.9531,0.40625 C51.8073,0.40625 50.0547,-0.195313 48.6953,-1.39844 C47.3359,-2.60156 46.5625,-4.19792 46.375,-6.1875 "/>
</g>

<g fill="#d9d9d9" fill-opacity="1" stroke="none" transform="matrix(0.75,0,0,0.75,608.625,343)"
font-family="MS Shell Dlg 2" font-size="8.25" font-weight="400" font-style="normal" 
>
<path vector-effect="none" fill-rule="evenodd" d="M1.375,-11.6563 C1.375,-14.4479 1.66146,-16.6953 2.23438,-18.3984 C2.80729,-20.1016 3.66146,-21.4141 4.79688,-22.3359 C5.93229,-23.2578 7.35938,-23.7188 9.07813,-23.7188 C10.3385,-23.7188 11.4479,-23.4635 12.4063,-22.9531 C13.3646,-22.4427 14.1536,-21.7057 14.7734,-20.7422 C15.3932,-19.7786 15.8828,-18.6068 16.2422,-17.2266 C16.6016,-15.8464 16.7813,-13.9896 16.7813,-11.6563 C16.7813,-8.88542 16.4948,-6.64844 15.9219,-4.94531 C15.349,-3.24219 14.4974,-1.92448 13.3672,-0.992188 C12.237,-0.0598958 10.8073,0.40625 9.07813,0.40625 C6.79688,0.40625 5.00521,-0.411458 3.70313,-2.04688 C2.15104,-4.01563 1.375,-7.21875 1.375,-11.6563 M4.34375,-11.6563 C4.34375,-7.77083 4.79948,-5.1875 5.71094,-3.90625 C6.6224,-2.625 7.74479,-1.98438 9.07813,-1.98438 C10.401,-1.98438 11.5182,-2.6276 12.4297,-3.91406 C13.3411,-5.20052 13.7969,-7.78125 13.7969,-11.6563 C13.7969,-15.5417 13.3411,-18.1224 12.4297,-19.3984 C11.5182,-20.6745 10.3906,-21.3125 9.04688,-21.3125 C7.71354,-21.3125 6.64583,-20.75 5.84375,-19.625 C4.84375,-18.1875 4.34375,-15.5313 4.34375,-11.6563 M21,0 L21,-3.29688 L24.2969,-3.29688 L24.2969,0 L21,0 M32.8281,-12.8125 C31.6302,-13.25 30.7396,-13.8776 30.1563,-14.6953 C29.5729,-15.513 29.2813,-16.4896 29.2813,-17.625 C29.2813,-19.3438 29.901,-20.7891 31.1406,-21.9609 C32.3802,-23.1328 34.026,-23.7188 36.0781,-23.7188 C38.1406,-23.7188 39.7995,-23.1198 41.0547,-21.9219 C42.3099,-20.724 42.9375,-19.2656 42.9375,-17.5469 C42.9375,-16.4531 42.651,-15.5 42.0781,-14.6875 C41.5052,-13.875 40.6302,-13.25 39.4531,-12.8125 C40.901,-12.3333 42.0052,-11.5677 42.7656,-10.5156 C43.526,-9.46354 43.9063,-8.20833 43.9063,-6.75 C43.9063,-4.72917 43.1901,-3.03125 41.7578,-1.65625 C40.3255,-0.28125 38.4479,0.40625 36.125,0.40625 C33.7917,0.40625 31.9115,-0.283854 30.4844,-1.66406 C29.0573,-3.04427 28.3438,-4.76563 28.3438,-6.82813 C28.3438,-8.36979 28.7318,-9.65885 29.5078,-10.6953 C30.2839,-11.7318 31.3906,-12.4375 32.8281,-12.8125 M32.25,-17.7188 C32.25,-16.6042 32.6094,-15.6927 33.3281,-14.9844 C34.0469,-14.276 34.9844,-13.9219 36.1406,-13.9219 C37.2552,-13.9219 38.1693,-14.2734 38.8828,-14.9766 C39.5964,-15.6797 39.9531,-16.5417 39.9531,-17.5625 C39.9531,-18.625 39.5859,-19.5182 38.8516,-20.2422 C38.1172,-20.9661 37.2031,-21.3281 36.1094,-21.3281 C34.9948,-21.3281 34.0729,-20.974 33.3438,-20.2656 C32.6146,-19.5573 32.25,-18.7083 32.25,-17.7188 M31.3125,-6.8125 C31.3125,-5.98958 31.5104,-5.1901 31.9063,-4.41406 C32.3021,-3.63802 32.8854,-3.03906 33.6563,-2.61719 C34.4271,-2.19531 35.2604,-1.98438 36.1563,-1.98438 C37.5417,-1.98438 38.6849,-2.42969 39.5859,-3.32031 C40.487,-4.21094 40.9375,-5.34375 40.9375,-6.71875 C40.9375,-8.11458 40.474,-9.26823 39.5469,-10.1797 C38.6198,-11.0911 37.4583,-11.5469 36.0625,-11.5469 C34.6979,-11.5469 33.5651,-11.0964 32.6641,-10.1953 C31.763,-9.29427 31.3125,-8.16667 31.3125,-6.8125 "/>
</g>

<g fill="#d9d9d9" fill-opacity="1" stroke="none" transform="matrix(0,-0.75,0.75,0,28.8499,247.43)"
font-family="MS Shell Dlg 2" font-size="8.25" font-weight="400" font-style="normal" 
>
<path vector-effect="none" fill-rule="evenodd" d="M1.6875,0 C1.45833,0 1.34375,-0.15625 1.34375,-0.46875 C1.35417,-0.53125 1.375,-0.635417 1.40625,-0.78125 C1.4375,-0.927083 1.48698,-1.04427 1.55469,-1.13281 C1.6224,-1.22135 1.70313,-1.26563 1.79688,-1.26563 C3.25521,-1.26563 4.27604,-1.34896 4.85938,-1.51563 C5.17188,-1.61979 5.39583,-1.94271 5.53125,-2.48438 L10.4844,-22.25 C10.526,-22.4896 10.5469,-22.6563 10.5469,-22.75 C10.5469,-23.0104 10.401,-23.1563 10.1094,-23.1875 C9.66146,-23.2813 8.80208,-23.3281 7.53125,-23.3281 C7.29167,-23.3281 7.17188,-23.4844 7.17188,-23.7969 C7.25521,-24.1094 7.32031,-24.3203 7.36719,-24.4297 C7.41406,-24.5391 7.54688,-24.5938 7.76563,-24.5938 L18.4063,-24.5938 C18.6146,-24.5938 18.7188,-24.4375 18.7188,-24.125 C18.6875,-23.875 18.6484,-23.6797 18.6016,-23.5391 C18.5547,-23.3984 18.4375,-23.3281 18.25,-23.3281 C16.4792,-23.3281 15.2969,-23.2708 14.7031,-23.1563 C14.1094,-23.0521 13.7448,-22.6979 13.6094,-22.0938 L8.6875,-2.34375 C8.58333,-2.05208 8.53125,-1.78646 8.53125,-1.54688 C8.53125,-1.35938 8.9375,-1.26563 9.75,-1.26563 L13.0938,-1.26563 C14.9792,-1.26563 16.5078,-1.64063 17.6797,-2.39063 C18.8516,-3.14063 19.7188,-3.98698 20.2813,-4.92969 C20.8438,-5.8724 21.3151,-6.85156 21.6953,-7.86719 C22.0755,-8.88281 22.3542,-9.40625 22.5313,-9.4375 L22.8594,-9.4375 C23.099,-9.4375 23.2188,-9.28125 23.2188,-8.96875 L20.0156,-0.25 C19.9844,-0.0833333 19.875,0 19.6875,0 L1.6875,0"/>
</g>

<g fill="#d9d9d9" fill-opacity="1" stroke="none" transform="matrix(0,-0.75,0.75,0,32.9748,228.714)"
font-family="MS Shell Dlg 2" font-size="8.25" font-weight="400" font-style="normal" 
>
<path vector-effect="none" fill-rule="evenodd" d="M2.3125,0 L2.3125,-0.875 C4.39583,-0.875 5.4375,-1.14063 5.4375,-1.67188 L5.4375,-14.7969 C4.58333,-14.3802 3.49479,-14.1719 2.17188,-14.1719 L2.17188,-15.0469 C4.21354,-15.0469 5.75521,-15.5833 6.79688,-16.6563 L7.15625,-16.6563 C7.20833,-16.6563 7.26042,-16.6328 7.3125,-16.5859 C7.36458,-16.5391 7.39063,-16.4896 7.39063,-16.4375 L7.39063,-1.67188 C7.39063,-1.14063 8.43229,-0.875 10.5156,-0.875 L10.5156,0 L2.3125,0"/>
</g>

<g fill="#d9d9d9" fill-opacity="1" stroke="none" transform="matrix(0,-0.75,0.75,0,32.9748,219.089)"
font-family="MS Shell Dlg 2" font-size="8.25" font-weight="400" font-style="normal" 
>
<path vector-effect="none" fill-rule="evenodd" d="M2.48438,4.5 C2.48438,4.42708 2.51563,4.35938 2.57813,4.29688 C3.18229,3.72396 3.65104,3.05729 3.98438,2.29688 C4.31771,1.53646 4.48438,0.739583 4.48438,-0.09375 L4.48438,-0.40625 C4.21354,-0.135417 3.88021,0 3.48438,0 C3.09896,0 2.77083,-0.135417 2.5,-0.40625 C2.22917,-0.677083 2.09375,-1 2.09375,-1.375 C2.09375,-1.77083 2.22917,-2.09896 2.5,-2.35938 C2.77083,-2.61979 3.09896,-2.75 3.48438,-2.75 C4.07813,-2.75 4.5,-2.47396 4.75,-1.92188 C5,-1.36979 5.125,-0.760417 5.125,-0.09375 C5.125,0.833333 4.9401,1.71354 4.57031,2.54688 C4.20052,3.38021 3.67708,4.13021 3,4.79688 C2.9375,4.82813 2.88542,4.84375 2.84375,4.84375 C2.76042,4.84375 2.67969,4.80729 2.60156,4.73438 C2.52344,4.66146 2.48438,4.58333 2.48438,4.5 "/>
</g>

<g fill="#d9d9d9" fill-opacity="1" stroke="none" transform="matrix(0,-0.75,0.75,0,32.9748,213.742)"
font-family="MS Shell Dlg 2" font-size="8.25" font-weight="400" font-style="normal" 
>
<path vector-effect="none" fill-rule="evenodd" d="M2.59375,0 L2.59375,-14.7969 C2.59375,-15.2448 2.52865,-15.5677 2.39844,-15.7656 C2.26823,-15.9635 2.07552,-16.0859 1.82031,-16.1328 C1.5651,-16.1797 1.17188,-16.2031 0.640625,-16.2031 L0.640625,-17.0781 L4.34375,-17.3438 L4.34375,-9.51563 C4.625,-9.82813 4.95052,-10.1016 5.32031,-10.3359 C5.6901,-10.5703 6.08594,-10.7474 6.50781,-10.8672 C6.92969,-10.987 7.35938,-11.0469 7.79688,-11.0469 C8.54688,-11.0469 9.24219,-10.8958 9.88281,-10.5938 C10.5234,-10.2917 11.0781,-9.8776 11.5469,-9.35156 C12.0156,-8.82552 12.3828,-8.21875 12.6484,-7.53125 C12.9141,-6.84375 13.0469,-6.13021 13.0469,-5.39063 C13.0469,-4.38021 12.8021,-3.4401 12.3125,-2.57031 C11.8229,-1.70052 11.151,-1.00781 10.2969,-0.492188 C9.44271,0.0234375 8.51042,0.28125 7.5,0.28125 C6.86458,0.28125 6.25,0.117188 5.65625,-0.210938 C5.0625,-0.539063 4.56771,-0.973958 4.17188,-1.51563 L3.32813,0 L2.59375,0 M4.42188,-2.46875 C4.69271,-1.85417 5.08854,-1.35417 5.60938,-0.96875 C6.13021,-0.583333 6.70833,-0.390625 7.34375,-0.390625 C8.20833,-0.390625 8.90625,-0.638021 9.4375,-1.13281 C9.96875,-1.6276 10.3411,-2.2526 10.5547,-3.00781 C10.7682,-3.76302 10.875,-4.5625 10.875,-5.40625 C10.875,-6.8125 10.6927,-7.88021 10.3281,-8.60938 C10.1615,-8.93229 9.9375,-9.23177 9.65625,-9.50781 C9.375,-9.78385 9.0625,-10.0026 8.71875,-10.1641 C8.375,-10.3255 8.01042,-10.4063 7.625,-10.4063 C6.95833,-10.4063 6.34115,-10.2292 5.77344,-9.875 C5.20573,-9.52083 4.75521,-9.04688 4.42188,-8.45313 L4.42188,-2.46875"/>
</g>

<g fill="#d9d9d9" fill-opacity="1" stroke="none" transform="matrix(0,-0.75,0.75,0,32.9748,203.048)"
font-family="MS Shell Dlg 2" font-size="8.25" font-weight="400" font-style="normal" 
>
<path vector-effect="none" fill-rule="evenodd" d="M0.640625,0 L0.640625,-0.875 C1.21354,-0.875 1.68229,-0.919271 2.04688,-1.00781 C2.41146,-1.09635 2.59375,-1.31771 2.59375,-1.67188 L2.59375,-8.5 C2.59375,-8.94792 2.52865,-9.27083 2.39844,-9.46875 C2.26823,-9.66667 2.07552,-9.78906 1.82031,-9.83594 C1.5651,-9.88281 1.17188,-9.90625 0.640625,-9.90625 L0.640625,-10.7813 L4.21875,-11.0469 L4.21875,-8.60938 C4.48958,-9.32813 4.8724,-9.91406 5.36719,-10.3672 C5.86198,-10.8203 6.46354,-11.0469 7.17188,-11.0469 C7.67188,-11.0469 8.11719,-10.901 8.50781,-10.6094 C8.89844,-10.3177 9.09375,-9.93229 9.09375,-9.45313 C9.09375,-9.15104 8.98698,-8.88802 8.77344,-8.66406 C8.5599,-8.4401 8.29167,-8.32813 7.96875,-8.32813 C7.65625,-8.32813 7.39063,-8.4375 7.17188,-8.65625 C6.95313,-8.875 6.84375,-9.14063 6.84375,-9.45313 C6.84375,-9.90104 7.00521,-10.2188 7.32813,-10.4063 L7.17188,-10.4063 C6.50521,-10.4063 5.95833,-10.1615 5.53125,-9.67188 C5.10417,-9.18229 4.79948,-8.57552 4.61719,-7.85156 C4.4349,-7.1276 4.34375,-6.4375 4.34375,-5.78125 L4.34375,-1.67188 C4.34375,-1.14063 5.15625,-0.875 6.78125,-0.875 L6.78125,0 L0.640625,0"/>
</g>

<g fill="#d9d9d9" fill-opacity="1" stroke="none" transform="matrix(0,-0.75,0.75,0,32.9748,195.508)"
font-family="MS Shell Dlg 2" font-size="8.25" font-weight="400" font-style="normal" 
>
<path vector-effect="none" fill-rule="evenodd" d="M1,-2.45313 C1,-3.44271 1.39063,-4.25 2.17188,-4.875 C2.95313,-5.5 3.89063,-5.9401 4.98438,-6.19531 C6.07813,-6.45052 7.11979,-6.57813 8.10938,-6.57813 L8.10938,-7.60938 C8.10938,-8.07813 8.0026,-8.53906 7.78906,-8.99219 C7.57552,-9.44531 7.27083,-9.8151 6.875,-10.1016 C6.47917,-10.388 6.03646,-10.5313 5.54688,-10.5313 C4.44271,-10.5313 3.60417,-10.2865 3.03125,-9.79688 C3.34375,-9.79688 3.60417,-9.67708 3.8125,-9.4375 C4.02083,-9.19792 4.125,-8.91667 4.125,-8.59375 C4.125,-8.27083 4.00781,-7.98958 3.77344,-7.75 C3.53906,-7.51042 3.26042,-7.39063 2.9375,-7.39063 C2.59375,-7.39063 2.30469,-7.51042 2.07031,-7.75 C1.83594,-7.98958 1.71875,-8.27604 1.71875,-8.60938 C1.71875,-9.48438 2.11719,-10.1354 2.91406,-10.5625 C3.71094,-10.9896 4.58854,-11.2031 5.54688,-11.2031 C6.22396,-11.2031 6.90625,-11.0599 7.59375,-10.7734 C8.28125,-10.487 8.84115,-10.0755 9.27344,-9.53906 C9.70573,-9.0026 9.92188,-8.375 9.92188,-7.65625 L9.92188,-2.03125 C9.92188,-1.70833 9.99219,-1.41146 10.1328,-1.14063 C10.2734,-0.869792 10.4896,-0.734375 10.7813,-0.734375 C11.0521,-0.734375 11.2552,-0.872396 11.3906,-1.14844 C11.526,-1.42448 11.5938,-1.71875 11.5938,-2.03125 L11.5938,-3.60938 L12.3281,-3.60938 L12.3281,-2.01563 C12.3281,-1.64063 12.2318,-1.28646 12.0391,-0.953125 C11.8464,-0.619792 11.5833,-0.354167 11.25,-0.15625 C10.9167,0.0416667 10.5625,0.140625 10.1875,0.140625 C9.69792,0.140625 9.27604,-0.0494792 8.92188,-0.429688 C8.56771,-0.809896 8.36979,-1.26042 8.32813,-1.78125 C8.01563,-1.15625 7.5599,-0.65625 6.96094,-0.28125 C6.36198,0.09375 5.71875,0.28125 5.03125,0.28125 C4.39583,0.28125 3.77083,0.1875 3.15625,0 C2.54167,-0.1875 2.02865,-0.481771 1.61719,-0.882813 C1.20573,-1.28385 1,-1.80729 1,-2.45313 M3.03125,-2.45313 C3.03125,-1.86979 3.2474,-1.38021 3.67969,-0.984375 C4.11198,-0.588542 4.61979,-0.390625 5.20313,-0.390625 C5.73438,-0.390625 6.22135,-0.523438 6.66406,-0.789063 C7.10677,-1.05469 7.45833,-1.41927 7.71875,-1.88281 C7.97917,-2.34635 8.10938,-2.83333 8.10938,-3.34375 L8.10938,-5.9375 C7.34896,-5.9375 6.57292,-5.8125 5.78125,-5.5625 C4.98958,-5.3125 4.33333,-4.92448 3.8125,-4.39844 C3.29167,-3.8724 3.03125,-3.22396 3.03125,-2.45313 "/>
</g>

<g fill="#d9d9d9" fill-opacity="1" stroke="none" transform="matrix(0,-0.75,0.75,0,32.9748,185.883)"
font-family="MS Shell Dlg 2" font-size="8.25" font-weight="400" font-style="normal" 
>
<path vector-effect="none" fill-rule="evenodd" d="M0.75,0 L0.75,-0.875 C1.3125,-0.875 1.77865,-0.919271 2.14844,-1.00781 C2.51823,-1.09635 2.70313,-1.31771 2.70313,-1.67188 L2.70313,-8.5 C2.70313,-8.94792 2.63542,-9.27083 2.5,-9.46875 C2.36458,-9.66667 2.16927,-9.78906 1.91406,-9.83594 C1.65885,-9.88281 1.27083,-9.90625 0.75,-9.90625 L0.75,-10.7813 L4.375,-11.0469 L4.375,-8.60938 C4.70833,-9.32813 5.20313,-9.91406 5.85938,-10.3672 C6.51563,-10.8203 7.22917,-11.0469 8,-11.0469 C9.15625,-11.0469 10.0234,-10.7708 10.6016,-10.2188 C11.1797,-9.66667 11.4688,-8.81771 11.4688,-7.67188 L11.4688,-1.67188 C11.4688,-1.31771 11.6536,-1.09635 12.0234,-1.00781 C12.3932,-0.919271 12.8594,-0.875 13.4219,-0.875 L13.4219,0 L7.70313,0 L7.70313,-0.875 C8.27604,-0.875 8.74479,-0.919271 9.10938,-1.00781 C9.47396,-1.09635 9.65625,-1.31771 9.65625,-1.67188 L9.65625,-7.60938 C9.65625,-8.42188 9.53906,-9.09115 9.30469,-9.61719 C9.07031,-10.1432 8.58333,-10.4063 7.84375,-10.4063 C6.875,-10.4063 6.08073,-10.0182 5.46094,-9.24219 C4.84115,-8.46615 4.53125,-7.58854 4.53125,-6.60938 L4.53125,-1.67188 C4.53125,-1.31771 4.71354,-1.09635 5.07813,-1.00781 C5.44271,-0.919271 5.90625,-0.875 6.46875,-0.875 L6.46875,0 L0.75,0"/>
</g>

<g fill="#d9d9d9" fill-opacity="1" stroke="none" transform="matrix(0,-0.75,0.75,0,32.9748,175.189)"
font-family="MS Shell Dlg 2" font-size="8.25" font-weight="400" font-style="normal" 
>
<path vector-effect="none" fill-rule="evenodd" d="M6.21875,0.28125 C5.21875,0.28125 4.30729,0.0182292 3.48438,-0.507813 C2.66146,-1.03385 2.01302,-1.73438 1.53906,-2.60938 C1.0651,-3.48438 0.828125,-4.41146 0.828125,-5.39063 C0.828125,-6.38021 1.0625,-7.32552 1.53125,-8.22656 C2,-9.1276 2.64844,-9.84896 3.47656,-10.3906 C4.30469,-10.9323 5.21875,-11.2031 6.21875,-11.2031 C7.19792,-11.2031 8.08854,-11.013 8.89063,-10.6328 C9.69271,-10.2526 10.0938,-9.625 10.0938,-8.75 C10.0938,-8.42708 9.97917,-8.14323 9.75,-7.89844 C9.52083,-7.65365 9.23958,-7.53125 8.90625,-7.53125 C8.57292,-7.53125 8.28906,-7.65104 8.05469,-7.89063 C7.82031,-8.13021 7.70313,-8.41667 7.70313,-8.75 C7.70313,-9.04167 7.79688,-9.29427 7.98438,-9.50781 C8.17188,-9.72135 8.40104,-9.85417 8.67188,-9.90625 C8.09896,-10.2813 7.29167,-10.4688 6.25,-10.4688 C5.44792,-10.4688 4.80469,-10.2031 4.32031,-9.67188 C3.83594,-9.14063 3.49479,-8.48698 3.29688,-7.71094 C3.09896,-6.9349 3,-6.16146 3,-5.39063 C3,-4.58854 3.11979,-3.8125 3.35938,-3.0625 C3.59896,-2.3125 3.98698,-1.69271 4.52344,-1.20313 C5.0599,-0.713542 5.72917,-0.46875 6.53125,-0.46875 C7.32292,-0.46875 7.99479,-0.708333 8.54688,-1.1875 C9.09896,-1.66667 9.47917,-2.29688 9.6875,-3.07813 C9.6875,-3.18229 9.75,-3.23438 9.875,-3.23438 L10.1875,-3.23438 C10.2292,-3.23438 10.2708,-3.21094 10.3125,-3.16406 C10.3542,-3.11719 10.375,-3.06771 10.375,-3.01563 L10.375,-2.9375 C10.125,-1.94792 9.625,-1.16406 8.875,-0.585938 C8.125,-0.0078125 7.23958,0.28125 6.21875,0.28125 "/>
</g>

<g fill="#d9d9d9" fill-opacity="1" stroke="none" transform="matrix(0,-0.75,0.75,0,32.9748,167.168)"
font-family="MS Shell Dlg 2" font-size="8.25" font-weight="400" font-style="normal" 
>
<path vector-effect="none" fill-rule="evenodd" d="M0.75,0 L0.75,-0.875 C1.3125,-0.875 1.77865,-0.919271 2.14844,-1.00781 C2.51823,-1.09635 2.70313,-1.31771 2.70313,-1.67188 L2.70313,-14.7969 C2.70313,-15.2448 2.63542,-15.5677 2.5,-15.7656 C2.36458,-15.9635 2.16927,-16.0859 1.91406,-16.1328 C1.65885,-16.1797 1.27083,-16.2031 0.75,-16.2031 L0.75,-17.0781 L4.45313,-17.3438 L4.45313,-8.75 C4.80729,-9.44792 5.29688,-10.0052 5.92188,-10.4219 C6.54688,-10.8385 7.23958,-11.0469 8,-11.0469 C9.15625,-11.0469 10.0234,-10.7708 10.6016,-10.2188 C11.1797,-9.66667 11.4688,-8.81771 11.4688,-7.67188 L11.4688,-1.67188 C11.4688,-1.31771 11.6536,-1.09635 12.0234,-1.00781 C12.3932,-0.919271 12.8594,-0.875 13.4219,-0.875 L13.4219,0 L7.70313,0 L7.70313,-0.875 C8.27604,-0.875 8.74479,-0.919271 9.10938,-1.00781 C9.47396,-1.09635 9.65625,-1.31771 9.65625,-1.67188 L9.65625,-7.60938 C9.65625,-8.42188 9.53906,-9.09115 9.30469,-9.61719 C9.07031,-10.1432 8.58333,-10.4063 7.84375,-10.4063 C6.875,-10.4063 6.08073,-10.0182 5.46094,-9.24219 C4.84115,-8.46615 4.53125,-7.58854 4.53125,-6.60938 L4.53125,-1.67188 C4.53125,-1.31771 4.71354,-1.09635 5.07813,-1.00781 C5.44271,-0.919271 5.90625,-0.875 6.46875,-0.875 L6.46875,0 L0.75,0"/>
</g>

<g fill="#d9d9d9" fill-opacity="1" stroke="none" transform="matrix(0,-0.75,0.75,0,28.8499,145.932)"
font-family="MS Shell Dlg 2" font-size="8.25" font-weight="400" font-style="normal" 
>
<path vector-effect="none" fill-rule="evenodd" d="M4.25,9 L4.25,-27 L9.17188,-27 L9.17188,-25.5625 L5.70313,-25.5625 L5.70313,7.5625 L9.17188,7.5625 L9.17188,9 L4.25,9"/>
</g>

<g fill="#d9d9d9" fill-opacity="1" stroke="none" transform="matrix(0,-0.75,0.75,0,28.8499,138.293)"
font-family="MS Shell Dlg 2" font-size="8.25" font-weight="400" font-style="normal" 
>
<path vector-effect="none" fill-rule="evenodd" d="M1.07813,0 L1.07813,-1.26563 C1.89063,-1.26563 2.5625,-1.33073 3.09375,-1.46094 C3.625,-1.59115 3.89063,-1.90625 3.89063,-2.40625 L3.89063,-12.2344 C3.89063,-12.8802 3.79427,-13.3464 3.60156,-13.6328 C3.40885,-13.9193 3.13021,-14.0938 2.76563,-14.1563 C2.40104,-14.2188 1.83854,-14.25 1.07813,-14.25 L1.07813,-15.5156 L6.29688,-15.9063 L6.29688,-12.3906 C6.77604,-13.4219 7.48698,-14.2656 8.42969,-14.9219 C9.3724,-15.5781 10.401,-15.9063 11.5156,-15.9063 C14.276,-15.9063 15.901,-14.7813 16.3906,-12.5313 C16.8698,-13.5417 17.5703,-14.3568 18.4922,-14.9766 C19.4141,-15.5964 20.4271,-15.9063 21.5313,-15.9063 C22.625,-15.9063 23.5443,-15.7318 24.2891,-15.3828 C25.0339,-15.0339 25.5938,-14.4974 25.9688,-13.7734 C26.3438,-13.0495 26.5313,-12.1458 26.5313,-11.0625 L26.5313,-2.40625 C26.5313,-1.90625 26.7969,-1.59115 27.3281,-1.46094 C27.8594,-1.33073 28.5313,-1.26563 29.3438,-1.26563 L29.3438,0 L21.0938,0 L21.0938,-1.26563 C21.9167,-1.26563 22.5911,-1.33073 23.1172,-1.46094 C23.6432,-1.59115 23.9063,-1.90625 23.9063,-2.40625 L23.9063,-10.9531 C23.9063,-12.1615 23.737,-13.1354 23.3984,-13.875 C23.0599,-14.6146 22.3646,-14.9844 21.3125,-14.9844 C19.9271,-14.9844 18.7839,-14.4271 17.8828,-13.3125 C16.9818,-12.1979 16.5313,-10.9323 16.5313,-9.51563 L16.5313,-2.40625 C16.5313,-1.90625 16.7943,-1.59115 17.3203,-1.46094 C17.8464,-1.33073 18.5208,-1.26563 19.3438,-1.26563 L19.3438,0 L11.0938,0 L11.0938,-1.26563 C11.9167,-1.26563 12.5911,-1.33073 13.1172,-1.46094 C13.6432,-1.59115 13.9063,-1.90625 13.9063,-2.40625 L13.9063,-10.9531 C13.9063,-12.1198 13.737,-13.0833 13.3984,-13.8438 C13.0599,-14.6042 12.3594,-14.9844 11.2969,-14.9844 C9.91146,-14.9844 8.76823,-14.4271 7.86719,-13.3125 C6.96615,-12.1979 6.51563,-10.9323 6.51563,-9.51563 L6.51563,-2.40625 C6.51563,-1.90625 6.78125,-1.59115 7.3125,-1.46094 C7.84375,-1.33073 8.51042,-1.26563 9.3125,-1.26563 L9.3125,0 L1.07813,0"/>
</g>

<g fill="#d9d9d9" fill-opacity="1" stroke="none" transform="matrix(0,-0.75,0.75,0,28.8499,115.376)"
font-family="MS Shell Dlg 2" font-size="8.25" font-weight="400" font-style="normal" 
>
<path vector-effect="none" fill-rule="evenodd" d="M1.07813,0 L1.07813,-1.26563 C1.89063,-1.26563 2.5625,-1.33073 3.09375,-1.46094 C3.625,-1.59115 3.89063,-1.90625 3.89063,-2.40625 L3.89063,-12.2344 C3.89063,-12.8802 3.79427,-13.3464 3.60156,-13.6328 C3.40885,-13.9193 3.13021,-14.0938 2.76563,-14.1563 C2.40104,-14.2188 1.83854,-14.25 1.07813,-14.25 L1.07813,-15.5156 L6.29688,-15.9063 L6.29688,-12.3906 C6.77604,-13.4219 7.48698,-14.2656 8.42969,-14.9219 C9.3724,-15.5781 10.401,-15.9063 11.5156,-15.9063 C14.276,-15.9063 15.901,-14.7813 16.3906,-12.5313 C16.8698,-13.5417 17.5703,-14.3568 18.4922,-14.9766 C19.4141,-15.5964 20.4271,-15.9063 21.5313,-15.9063 C22.625,-15.9063 23.5443,-15.7318 24.2891,-15.3828 C25.0339,-15.0339 25.5938,-14.4974 25.9688,-13.7734 C26.3438,-13.0495 26.5313,-12.1458 26.5313,-11.0625 L26.5313,-2.40625 C26.5313,-1.90625 26.7969,-1.59115 27.3281,-1.46094 C27.8594,-1.33073 28.5313,-1.26563 29.3438,-1.26563 L29.3438,0 L21.0938,0 L21.0938,-1.26563 C21.9167,-1.26563 22.5911,-1.33073 23.1172,-1.46094 C23.6432,-1.59115 23.9063,-1.90625 23.9063,-2.40625 L23.9063,-10.9531 C23.9063,-12.1615 23.737,-13.1354 23.3984,-13.875 C23.0599,-14.6146 22.3646,-14.9844 21.3125,-14.9844 C19.9271,-14.9844 18.7839,-14.4271 17.8828,-13.3125 C16.9818,-12.1979 16.5313,-10.9323 16.5313,-9.51563 L16.5313,-2.40625 C16.5313,-1.90625 16.7943,-1.59115 17.3203,-1.46094 C17.8464,-1.33073 18.5208,-1.26563 19.3438,-1.26563 L19.3438,0 L11.0938,0 L11.0938,-1.26563 C11.9167,-1.26563 12.5911,-1.33073 13.1172,-1.46094 C13.6432,-1.59115 13.9063,-1.90625 13.9063,-2.40625 L13.9063,-10.9531 C13.9063,-12.1198 13.737,-13.0833 13.3984,-13.8438 C13.0599,-14.6042 12.3594,-14.9844 11.2969,-14.9844 C9.91146,-14.9844 8.76823,-14.4271 7.86719,-13.3125 C6.96615,-12.1979 6.51563,-10.9323 6.51563,-9.51563 L6.51563,-2.40625 C6.51563,-1.90625 6.78125,-1.59115 7.3125,-1.46094 C7.84375,-1.33073 8.51042,-1.26563 9.3125,-1.26563 L9.3125,0 L1.07813,0"/>
</g>

<g fill="#d9d9d9" fill-opacity="1" stroke="none" transform="matrix(0,-0.75,0.75,0,28.8499,92.4592)"
font-family="MS Shell Dlg 2" font-size="8.25" font-weight="400" font-style="normal" 
>
<path vector-effect="none" fill-rule="evenodd" d="M0.796875,9 L0.796875,7.5625 L4.29688,7.5625 L4.29688,-25.5625 L0.796875,-25.5625 L0.796875,-27 L5.73438,-27 L5.73438,9 L0.796875,9"/>
</g>

<g fill="#d9d9d9" fill-opacity="1" stroke="#d9d9d9" stroke-opacity="1" stroke-width="0.666667" stroke-linecap="square" stroke-linejoin="round" transform="matrix(0.75,0,0,0.75,0,0)"
font-family="MS Shell Dlg 2" font-size="8.25" font-weight="400" font-style="normal" 
>
<polyline fill="none" vector-effect="none" points="112,418 112,25 " />
<polyline fill="none" vector-effect="none" points="834,418 834,25 " />
<polyline fill="none" vector-effect="none" points="112,395.963 119.22,395.963 " />
<polyline fill="none" vector-effect="none" points="826.78,395.963 834,395.963 " />
<polyline fill="none" vector-effect="none" points="112,272.309 119.22,272.309 " />
<polyline fill="none" vector-effect="none" points="826.78,272.309 834,272.309 " />
<polyline fill="none" vector-effect="none" points="112,148.654 119.22,148.654 " />
<polyline fill="none" vector-effect="none" points="826.78,148.654 834,148.654 " />
<polyline fill="none" vector-effect="none" points="112,25 119.22,25 " />
<polyline fill="none" vector-effect="none" points="826.78,25 834,25 " />
</g>

<g fill="#d9d9d9" fill-opacity="1" stroke="none" transform="matrix(0.75,0,0,0.75,43.25,305.597)"
font-family="MS Shell Dlg 2" font-size="8.25" font-weight="400" font-style="normal" 
>
<path vector-effect="none" fill-rule="evenodd" d="M1.375,-11.6563 C1.375,-14.4479 1.66146,-16.6953 2.23438,-18.3984 C2.80729,-20.1016 3.66146,-21.4141 4.79688,-22.3359 C5.93229,-23.2578 7.35938,-23.7188 9.07813,-23.7188 C10.3385,-23.7188 11.4479,-23.4635 12.4063,-22.9531 C13.3646,-22.4427 14.1536,-21.7057 14.7734,-20.7422 C15.3932,-19.7786 15.8828,-18.6068 16.2422,-17.2266 C16.6016,-15.8464 16.7813,-13.9896 16.7813,-11.6563 C16.7813,-8.88542 16.4948,-6.64844 15.9219,-4.94531 C15.349,-3.24219 14.4974,-1.92448 13.3672,-0.992188 C12.237,-0.0598958 10.8073,0.40625 9.07813,0.40625 C6.79688,0.40625 5.00521,-0.411458 3.70313,-2.04688 C2.15104,-4.01563 1.375,-7.21875 1.375,-11.6563 M4.34375,-11.6563 C4.34375,-7.77083 4.79948,-5.1875 5.71094,-3.90625 C6.6224,-2.625 7.74479,-1.98438 9.07813,-1.98438 C10.401,-1.98438 11.5182,-2.6276 12.4297,-3.91406 C13.3411,-5.20052 13.7969,-7.78125 13.7969,-11.6563 C13.7969,-15.5417 13.3411,-18.1224 12.4297,-19.3984 C11.5182,-20.6745 10.3906,-21.3125 9.04688,-21.3125 C7.71354,-21.3125 6.64583,-20.75 5.84375,-19.625 C4.84375,-18.1875 4.34375,-15.5313 4.34375,-11.6563 M21,0 L21,-3.29688 L24.2969,-3.29688 L24.2969,0 L21,0 M43.6094,-2.78125 L43.6094,0 L28,0 C27.9792,-0.697917 28.0938,-1.36979 28.3438,-2.01563 C28.7396,-3.07813 29.375,-4.125 30.25,-5.15625 C31.125,-6.1875 32.3906,-7.38021 34.0469,-8.73438 C36.6094,-10.8385 38.3411,-12.5052 39.2422,-13.7344 C40.1432,-14.9635 40.5938,-16.125 40.5938,-17.2188 C40.5938,-18.375 40.1849,-19.3464 39.3672,-20.1328 C38.5495,-20.9193 37.4792,-21.3125 36.1563,-21.3125 C34.7604,-21.3125 33.6432,-20.8932 32.8047,-20.0547 C31.9661,-19.2161 31.5417,-18.0573 31.5313,-16.5781 L28.5469,-16.8906 C28.7552,-19.1094 29.5234,-20.8021 30.8516,-21.9688 C32.1797,-23.1354 33.9688,-23.7188 36.2188,-23.7188 C38.4792,-23.7188 40.2708,-23.0911 41.5938,-21.8359 C42.9167,-20.5807 43.5781,-19.0208 43.5781,-17.1563 C43.5781,-16.2188 43.3854,-15.2917 43,-14.375 C42.6146,-13.4583 41.974,-12.4948 41.0781,-11.4844 C40.1823,-10.474 38.6927,-9.08854 36.6094,-7.32813 C34.8698,-5.86979 33.7526,-4.88021 33.2578,-4.35938 C32.763,-3.83854 32.3542,-3.3125 32.0313,-2.78125 L43.6094,-2.78125"/>
</g>

<g fill="#d9d9d9" fill-opacity="1" stroke="none" transform="matrix(0.75,0,0,0.75,43.25,212.856)"
font-family="MS Shell Dlg 2" font-size="8.25" font-weight="400" font-style="normal" 
>
<path vector-effect="none" fill-rule="evenodd" d="M1.375,-11.6563 C1.375,-14.4479 1.66146,-16.6953 2.23438,-18.3984 C2.80729,-20.1016 3.66146,-21.4141 4.79688,-22.3359 C5.93229,-23.2578 7.35938,-23.7188 9.07813,-23.7188 C10.3385,-23.7188 11.4479,-23.4635 12.4063,-22.9531 C13.3646,-22.4427 14.1536,-21.7057 14.7734,-20.7422 C15.3932,-19.7786 15.8828,-18.6068 16.2422,-17.2266 C16.6016,-15.8464 16.7813,-13.9896 16.7813,-11.6563 C16.7813,-8.88542 16.4948,-6.64844 15.9219,-4.94531 C15.349,-3.24219 14.4974,-1.92448 13.3672,-0.992188 C12.237,-0.0598958 10.8073,0.40625 9.07813,0.40625 C6.79688,0.40625 5.00521,-0.411458 3.70313,-2.04688 C2.15104,-4.01563 1.375,-7.21875 1.375,-11.6563 M4.34375,-11.6563 C4.34375,-7.77083 4.79948,-5.1875 5.71094,-3.90625 C6.6224,-2.625 7.74479,-1.98438 9.07813,-1.98438 C10.401,-1.98438 11.5182,-2.6276 12.4297,-3.91406 C13.3411,-5.20052 13.7969,-7.78125 13.7969,-11.6563 C13.7969,-15.5417 13.3411,-18.1224 12.4297,-19.3984 C11.5182,-20.6745 10.3906,-21.3125 9.04688,-21.3125 C7.71354,-21.3125 6.64583,-20.75 5.84375,-19.625 C4.84375,-18.1875 4.34375,-15.5313 4.34375,-11.6563 M21,0 L21,-3.29688 L24.2969,-3.29688 L24.2969,0 L21,0 M37.6719,0 L37.6719,-5.65625 L27.4219,-5.65625 L27.4219,-8.3125 L38.2031,-23.625 L40.5625,-23.625 L40.5625,-8.3125 L43.7656,-8.3125 L43.7656,-5.65625 L40.5625,-5.65625 L40.5625,0 L37.6719,0 M37.6719,-8.3125 L37.6719,-18.9688 L30.2656,-8.3125 L37.6719,-8.3125"/>
</g>

<g fill="#d9d9d9" fill-opacity="1" stroke="none" transform="matrix(0.75,0,0,0.75,43.25,120.116)"
font-family="MS Shell Dlg 2" font-size="8.25" font-weight="400" font-style="normal" 
>
<path vector-effect="none" fill-rule="evenodd" d="M1.375,-11.6563 C1.375,-14.4479 1.66146,-16.6953 2.23438,-18.3984 C2.80729,-20.1016 3.66146,-21.4141 4.79688,-22.3359 C5.93229,-23.2578 7.35938,-23.7188 9.07813,-23.7188 C10.3385,-23.7188 11.4479,-23.4635 12.4063,-22.9531 C13.3646,-22.4427 14.1536,-21.7057 14.7734,-20.7422 C15.3932,-19.7786 15.8828,-18.6068 16.2422,-17.2266 C16.6016,-15.8464 16.7813,-13.9896 16.7813,-11.6563 C16.7813,-8.88542 16.4948,-6.64844 15.9219,-4.94531 C15.349,-3.24219 14.4974,-1.92448 13.3672,-0.992188 C12.237,-0.0598958 10.8073,0.40625 9.07813,0.40625 C6.79688,0.40625 5.00521,-0.411458 3.70313,-2.04688 C2.15104,-4.01563 1.375,-7.21875 1.375,-11.6563 M4.34375,-11.6563 C4.34375,-7.77083 4.79948,-5.1875 5.71094,-3.90625 C6.6224,-2.625 7.74479,-1.98438 9.07813,-1.98438 C10.401,-1.98438 11.5182,-2.6276 12.4297,-3.91406 C13.3411,-5.20052 13.7969,-7.78125 13.7969,-11.6563 C13.7969,-15.5417 13.3411,-18.1224 12.4297,-19.3984 C11.5182,-20.6745 10.3906,-21.3125 9.04688,-21.3125 C7.71354,-21.3125 6.64583,-20.75 5.84375,-19.625 C4.84375,-18.1875 4.34375,-15.5313 4.34375,-11.6563 M21,0 L21,-3.29688 L24.2969,-3.29688 L24.2969,0 L21,0 M43.4219,-17.8438 L40.5313,-17.6094 C40.2813,-18.7448 39.9167,-19.5729 39.4375,-20.0938 C38.6563,-20.9167 37.6927,-21.3281 36.5469,-21.3281 C35.6198,-21.3281 34.8073,-21.0729 34.1094,-20.5625 C33.1927,-19.8958 32.4714,-18.9245 31.9453,-17.6484 C31.4193,-16.3724 31.1458,-14.5521 31.125,-12.1875 C31.8229,-13.25 32.6771,-14.0391 33.6875,-14.5547 C34.6979,-15.0703 35.7552,-15.3281 36.8594,-15.3281 C38.7969,-15.3281 40.4453,-14.6146 41.8047,-13.1875 C43.1641,-11.7604 43.8438,-9.92188 43.8438,-7.67188 C43.8438,-6.19271 43.5234,-4.8151 42.8828,-3.53906 C42.2422,-2.26302 41.362,-1.28646 40.2422,-0.609375 C39.1224,0.0677083 37.8542,0.40625 36.4375,0.40625 C34.0208,0.40625 32.0495,-0.484375 30.5234,-2.26563 C28.9974,-4.04688 28.2344,-6.97396 28.2344,-11.0469 C28.2344,-15.6198 29.0781,-18.9427 30.7656,-21.0156 C32.2448,-22.8177 34.2292,-23.7188 36.7188,-23.7188 C38.5729,-23.7188 40.0938,-23.1979 41.2813,-22.1563 C42.4688,-21.1146 43.1823,-19.6771 43.4219,-17.8438 M31.5781,-7.65625 C31.5781,-6.65625 31.7891,-5.70052 32.2109,-4.78906 C32.6328,-3.8776 33.2266,-3.18229 33.9922,-2.70313 C34.7578,-2.22396 35.5573,-1.98438 36.3906,-1.98438 C37.6198,-1.98438 38.6745,-2.47917 39.5547,-3.46875 C40.4349,-4.45833 40.875,-5.80208 40.875,-7.5 C40.875,-9.125 40.4401,-10.4089 39.5703,-11.3516 C38.7005,-12.2943 37.6042,-12.7656 36.2813,-12.7656 C34.9688,-12.7656 33.8568,-12.2943 32.9453,-11.3516 C32.0339,-10.4089 31.5781,-9.17708 31.5781,-7.65625 "/>
</g>

<g fill="#d9d9d9" fill-opacity="1" stroke="none" transform="matrix(0.75,0,0,0.75,43.25,27.375)"
font-family="MS Shell Dlg 2" font-size="8.25" font-weight="400" font-style="normal" 
>
<path vector-effect="none" fill-rule="evenodd" d="M1.375,-11.6563 C1.375,-14.4479 1.66146,-16.6953 2.23438,-18.3984 C2.80729,-20.1016 3.66146,-21.4141 4.79688,-22.3359 C5.93229,-23.2578 7.35938,-23.7188 9.07813,-23.7188 C10.3385,-23.7188 11.4479,-23.4635 12.4063,-22.9531 C13.3646,-22.4427 14.1536,-21.7057 14.7734,-20.7422 C15.3932,-19.7786 15.8828,-18.6068 16.2422,-17.2266 C16.6016,-15.8464 16.7813,-13.9896 16.7813,-11.6563 C16.7813,-8.88542 16.4948,-6.64844 15.9219,-4.94531 C15.349,-3.24219 14.4974,-1.92448 13.3672,-0.992188 C12.237,-0.0598958 10.8073,0.40625 9.07813,0.40625 C6.79688,0.40625 5.00521,-0.411458 3.70313,-2.04688 C2.15104,-4.01563 1.375,-7.21875 1.375,-11.6563 M4.34375,-11.6563 C4.34375,-7.77083 4.79948,-5.1875 5.71094,-3.90625 C6.6224,-2.625 7.74479,-1.98438 9.07813,-1.98438 C10.401,-1.98438 11.5182,-2.6276 12.4297,-3.91406 C13.3411,-5.20052 13.7969,-7.78125 13.7969,-11.6563 C13.7969,-15.5417 13.3411,-18.1224 12.4297,-19.3984 C11.5182,-20.6745 10.3906,-21.3125 9.04688,-21.3125 C7.71354,-21.3125 6.64583,-20.75 5.84375,-19.625 C4.84375,-18.1875 4.34375,-15.5313 4.34375,-11.6563 M21,0 L21,-3.29688 L24.2969,-3.29688 L24.2969,0 L21,0 M32.8281,-12.8125 C31.6302,-13.25 30.7396,-13.8776 30.1563,-14.6953 C29.5729,-15.513 29.2813,-16.4896 29.2813,-17.625 C29.2813,-19.3438 29.901,-20.7891 31.1406,-21.9609 C32.3802,-23.1328 34.026,-23.7188 36.0781,-23.7188 C38.1406,-23.7188 39.7995,-23.1198 41.0547,-21.9219 C42.3099,-20.724 42.9375,-19.2656 42.9375,-17.5469 C42.9375,-16.4531 42.651,-15.5 42.0781,-14.6875 C41.5052,-13.875 40.6302,-13.25 39.4531,-12.8125 C40.901,-12.3333 42.0052,-11.5677 42.7656,-10.5156 C43.526,-9.46354 43.9063,-8.20833 43.9063,-6.75 C43.9063,-4.72917 43.1901,-3.03125 41.7578,-1.65625 C40.3255,-0.28125 38.4479,0.40625 36.125,0.40625 C33.7917,0.40625 31.9115,-0.283854 30.4844,-1.66406 C29.0573,-3.04427 28.3438,-4.76563 28.3438,-6.82813 C28.3438,-8.36979 28.7318,-9.65885 29.5078,-10.6953 C30.2839,-11.7318 31.3906,-12.4375 32.8281,-12.8125 M32.25,-17.7188 C32.25,-16.6042 32.6094,-15.6927 33.3281,-14.9844 C34.0469,-14.276 34.9844,-13.9219 36.1406,-13.9219 C37.2552,-13.9219 38.1693,-14.2734 38.8828,-14.9766 C39.5964,-15.6797 39.9531,-16.5417 39.9531,-17.5625 C39.9531,-18.625 39.5859,-19.5182 38.8516,-20.2422 C38.1172,-20.9661 37.2031,-21.3281 36.1094,-21.3281 C34.9948,-21.3281 34.0729,-20.974 33.3438,-20.2656 C32.6146,-19.5573 32.25,-18.7083 32.25,-17.7188 M31.3125,-6.8125 C31.3125,-5.98958 31.5104,-5.1901 31.9063,-4.41406 C32.3021,-3.63802 32.8854,-3.03906 33.6563,-2.61719 C34.4271,-2.19531 35.2604,-1.98438 36.1563,-1.98438 C37.5417,-1.98438 38.6849,-2.42969 39.5859,-3.32031 C40.487,-4.21094 40.9375,-5.34375 40.9375,-6.71875 C40.9375,-8.11458 40.474,-9.26823 39.5469,-10.1797 C38.6198,-11.0911 37.4583,-11.5469 36.0625,-11.5469 C34.6979,-11.5469 33.5651,-11.0964 32.6641,-10.1953 C31.763,-9.29427 31.3125,-8.16667 31.3125,-6.8125 "/>
</g>

<g fill="none" stroke="#268cdd" stroke-opacity="1" stroke-width="2.66667" stroke-linecap="butt" stroke-linejoin="round" transform="matrix(0.75,0,0,0.75,0,0)"
font-family="MS Shell Dlg 2" font-size="8.25" font-weight="400" font-style="normal" 
>
<polyline fill="none" vector-effect="none" points="112,74.1564 112.723,74.7166 113.445,75.276 114.168,75.8348 114.891,76.3928 115.614,76.9502 116.336,77.5069 117.059,78.0628 117.782,78.618 118.505,79.1726 119.227,79.7265 119.95,80.2797 120.673,80.8322 121.395,81.384 122.118,81.9351 122.841,82.4855 123.564,83.0352 124.286,83.5843 125.009,84.1327 125.732,84.6804 126.454,85.2273 127.177,85.7737 127.9,86.3193 128.623,86.8643 129.345,87.4086 130.068,87.9522 130.791,88.4952 131.513,89.0375 132.236,89.5791 132.959,90.12 133.682,90.6603 134.404,91.1999 135.127,91.7389 135.85,92.2771 136.573,92.8147 137.295,93.3517 138.018,93.888 138.741,94.4236 139.464,94.9586 140.186,95.4929 140.909,96.0266 141.632,96.5596 142.354,97.0919 143.077,97.6236 143.8,98.1546 144.523,98.6851 145.245,99.2148 145.968,99.7439 146.691,100.272 147.413,100.8 148.136,101.327 148.859,101.854 149.582,102.38 150.304,102.905 151.027,103.43 151.75,103.954 152.472,104.477 153.195,105 153.918,105.522 154.641,106.043 155.363,106.564 156.086,107.084 156.809,107.604 157.532,108.122 158.254,108.641 158.977,109.158 159.7,109.675 160.422,110.192 161.145,110.708 161.868,111.223 162.591,111.737 163.313,112.251 164.036,112.764 164.759,113.277 165.481,113.789 166.204,114.301 166.927,114.812 167.65,115.322 168.372,115.831 169.095,116.34 169.818,116.849 170.54,117.356 171.263,117.864 171.986,118.37 172.709,118.876 173.431,119.382 174.154,119.886 174.877,120.39 175.6,120.894 176.322,121.397 177.045,121.899 177.768,122.401 178.491,122.902 179.213,123.403 179.936,123.903 180.659,124.402 181.381,124.901 182.104,125.399 182.827,125.897 183.55,126.394 184.272,126.89 184.995,127.386 185.718,127.881 186.44,128.376 187.163,128.87 187.886,129.363 188.609,129.856 189.331,130.349 190.054,130.84 190.777,131.331 191.499,131.822 192.222,132.312 192.945,132.802 193.668,133.29 194.39,133.779 195.113,134.266 195.836,134.754 196.559,135.24 197.281,135.726 198.004,136.212 198.727,136.696 199.45,137.181 200.172,137.664 200.895,138.148 201.618,138.63 202.34,139.112 203.063,139.594 203.786,140.075 204.509,140.555 205.231,141.035 205.954,141.514 206.677,141.993 207.399,142.471 208.122,142.948 208.845,143.425 209.568,143.902 210.29,144.378 211.013,144.853 211.736,145.328 212.458,145.802 213.181,146.276 213.904,146.749 214.627,147.222 215.349,147.694 216.072,148.165 216.795,148.636 217.518,149.107 218.24,149.577 218.963,150.046 219.686,150.515 220.408,150.983 221.131,151.451 221.854,151.918 222.577,152.385 223.299,152.851 224.022,153.316 224.745,153.782 225.467,154.246 226.19,154.71 226.913,155.174 227.636,155.637 228.358,156.099 229.081,156.561 229.804,157.022 230.526,157.483 231.249,157.943 231.972,158.403 232.695,158.862 233.417,159.321 234.14,159.779 234.863,160.237 235.586,160.694 236.308,161.151 237.031,161.607 237.754,162.063 238.477,162.518 239.199,162.972 239.922,163.426 240.645,163.88 241.367,164.333 242.09,164.785 242.813,165.237 243.536,165.689 244.258,166.14 244.981,166.59 245.704,167.04 246.426,167.49 247.149,167.939 247.872,168.387 248.595,168.835 249.317,169.283 250.04,169.73 250.763,170.176 251.485,170.622 252.208,171.068 252.931,171.513 253.654,171.957 254.376,172.401 255.099,172.844 255.822,173.287 256.545,173.73 257.267,174.172 257.99,174.613 258.713,175.054 259.435,175.495 260.158,175.935 260.881,176.374 261.604,176.813 262.326,177.252 263.049,177.69 263.772,178.128 264.495,178.565 265.217,179.001 265.94,179.437 266.663,179.873 267.385,180.308 268.108,180.743 268.831,181.177 269.554,181.611 270.276,182.044 270.999,182.477 271.722,182.909 272.444,183.341 273.167,183.772 273.89,184.203 274.613,184.633 275.335,185.063 276.058,185.492 276.781,185.921 277.503,186.35 278.226,186.778 278.949,187.205 279.672,187.632 280.394,188.059 281.117,188.485 281.84,188.911 282.563,189.336 283.285,189.761 284.008,190.185 284.731,190.609 285.453,191.032 286.176,191.455 286.899,191.877 287.622,192.299 288.344,192.721 289.067,193.142 289.79,193.562 290.512,193.982 291.235,194.402 291.958,194.821 292.681,195.24 293.403,195.658 294.126,196.076 294.849,196.494 295.572,196.91 296.294,197.327 297.017,197.743 297.74,198.158 298.462,198.574 299.185,198.988 299.908,199.403 300.631,199.816 301.353,200.23 302.076,200.643 302.799,201.055 303.522,201.467 304.244,201.878 304.967,202.29 305.69,202.7 306.412,203.11 307.135,203.52 307.858,203.93 308.581,204.338 309.303,204.747 310.026,205.155 310.749,205.563 311.471,205.97 312.194,206.376 312.917,206.783 313.64,207.188 314.362,207.594 315.085,207.999 315.808,208.403 316.53,208.807 317.253,209.211 317.976,209.614 318.699,210.017 319.421,210.42 320.144,210.822 320.867,211.223 321.59,211.624 322.312,212.025 323.035,212.425 323.758,212.825 324.481,213.224 325.203,213.623 325.926,214.022 326.649,214.42 327.371,214.818 328.094,215.215 328.817,215.612 329.54,216.008 330.262,216.404 330.985,216.8 331.708,217.195 332.43,217.59 333.153,217.984 333.876,218.378 334.599,218.772 335.321,219.165 336.044,219.557 336.767,219.95 337.489,220.342 338.212,220.733 338.935,221.124 339.658,221.515 340.38,221.905 341.103,222.295 341.826,222.684 342.549,223.073 343.271,223.462 343.994,223.85 344.717,224.238 345.44,224.625 346.162,225.012 346.885,225.399 347.608,225.785 348.33,226.171 349.053,226.556 349.776,226.941 350.499,227.325 351.221,227.71 351.944,228.093 352.667,228.477 353.389,228.86 354.112,229.242 354.835,229.624 355.557,230.006 356.28,230.387 357.003,230.768 357.726,231.149 358.448,231.529 359.171,231.909 359.894,232.288 360.617,232.667 361.339,233.046 362.062,233.424 362.785,233.802 363.508,234.179 364.23,234.556 364.953,234.933 365.676,235.309 366.398,235.685 367.121,236.061 367.844,236.436 368.567,236.811 369.289,237.185 370.012,237.559 370.735,237.933 371.457,238.306 372.18,238.678 372.903,239.051 373.626,239.423 374.348,239.795 375.071,240.166 375.794,240.537 376.516,240.907 377.239,241.277 377.962,241.647 378.685,242.017 379.407,242.386 380.13,242.754 380.853,243.122 381.576,243.49 382.298,243.858 383.021,244.225 383.744,244.592 384.467,244.958 385.189,245.324 385.912,245.69 386.635,246.055 387.357,246.42 388.08,246.785 388.803,247.149 389.526,247.512 390.248,247.876 390.971,248.239 391.694,248.602 392.416,248.964 393.139,249.326 393.862,249.687 394.585,250.049 395.307,250.41 396.03,250.77 396.753,251.13 397.475,251.49 398.198,251.849 398.921,252.208 399.644,252.567 400.366,252.925 401.089,253.283 401.812,253.641 402.535,253.998 403.257,254.355 403.98,254.712 404.703,255.068 405.425,255.424 406.148,255.779 406.871,256.134 407.594,256.489 408.316,256.843 409.039,257.197 409.762,257.551 410.484,257.904 411.207,258.257 411.93,258.61 412.653,258.962 413.375,259.314 414.098,259.666 414.821,260.017 415.544,260.368 416.266,260.718 416.989,261.068 417.712,261.418 418.434,261.768 419.157,262.117 419.88,262.466 420.603,262.814 421.325,263.162 422.048,263.51 422.771,263.857 423.493,264.204 424.216,264.551 424.939,264.897 425.662,265.243 426.384,265.589 427.107,265.935 427.83,266.28 428.553,266.624 429.275,266.968 429.998,267.312 430.721,267.656 431.443,267.999 432.166,268.342 432.889,268.685 433.612,269.027 434.334,269.369 435.057,269.711 435.78,270.052 436.502,270.393 437.225,270.734 437.948,271.074 438.671,271.414 439.393,271.754 440.116,272.093 440.839,272.432 441.562,272.771 442.284,273.109 443.007,273.447 443.73,273.784 444.452,274.122 445.175,274.459 445.898,274.795 446.621,275.132 447.343,275.468 448.066,275.803 448.789,276.139 449.512,276.474 450.234,276.808 450.957,277.143 451.68,277.477 452.402,277.81 453.125,278.144 453.848,278.477 454.571,278.81 455.293,279.142 456.016,279.474 456.739,279.806 457.461,280.137 458.184,280.468 458.907,280.799 459.63,281.13 460.352,281.46 461.075,281.79 461.798,282.119 462.52,282.449 463.243,282.777 463.966,283.106 464.689,283.434 465.411,283.762 466.134,284.09 466.857,284.417 467.58,284.744 468.302,285.071 469.025,285.397 469.748,285.723 470.471,286.049 471.193,286.375 471.916,286.7 472.639,287.025 473.361,287.349 474.084,287.673 474.807,287.997 475.53,288.321 476.252,288.644 476.975,288.967 477.698,289.29 478.42,289.612 479.143,289.934 479.866,290.256 480.589,290.577 481.311,290.898 482.034,291.219 482.757,291.54 483.479,291.86 484.202,292.18 484.925,292.499 485.648,292.819 486.37,293.138 487.093,293.456 487.816,293.775 488.539,294.093 489.261,294.41 489.984,294.728 490.707,295.045 491.43,295.362 492.152,295.679 492.875,295.995 493.598,296.311 494.32,296.627 495.043,296.942 495.766,297.257 496.488,297.572 497.211,297.886 497.934,298.201 498.657,298.514 499.379,298.828 500.102,299.141 500.825,299.454 501.547,299.767 502.27,300.079 502.993,300.392 503.716,300.703 504.438,301.015 505.161,301.326 505.884,301.637 506.607,301.948 507.329,302.258 508.052,302.568 508.775,302.878 509.498,303.188 510.22,303.497 510.943,303.806 511.666,304.115 512.388,304.423 513.111,304.731 513.834,305.039 514.557,305.346 515.279,305.653 516.002,305.96 516.725,306.267 517.447,306.573 518.17,306.879 518.893,307.185 519.616,307.491 520.338,307.796 521.061,308.101 521.784,308.406 522.506,308.71 523.229,309.014 523.952,309.318 524.675,309.621 525.397,309.925 526.12,310.228 526.843,310.53 527.566,310.833 528.288,311.135 529.011,311.437 529.734,311.738 530.457,312.039 531.179,312.34 531.902,312.641 532.625,312.942 533.347,313.242 534.07,313.542 534.793,313.841 535.516,314.141 536.238,314.44 536.961,314.739 537.684,315.037 538.406,315.335 539.129,315.633 539.852,315.931 540.575,316.229 541.297,316.526 542.02,316.823 542.743,317.119 543.465,317.416 544.188,317.712 544.911,318.007 545.634,318.303 546.356,318.598 547.079,318.893 547.802,319.188 548.525,319.482 549.247,319.777 549.97,320.071 550.693,320.364 551.415,320.658 552.138,320.951 552.861,321.244 553.584,321.536 554.306,321.828 555.029,322.121 555.752,322.412 556.474,322.704 557.197,322.995 557.92,323.286 558.643,323.577 559.365,323.867 560.088,324.158 560.811,324.448 561.534,324.737 562.256,325.027 562.979,325.316 563.702,325.605 564.424,325.893 565.147,326.182 565.87,326.47 566.593,326.758 567.315,327.045 568.038,327.333 568.761,327.62 569.484,327.907 570.206,328.193 570.929,328.479 571.652,328.765 572.374,329.051 573.097,329.337 573.82,329.622 574.543,329.907 575.265,330.192 575.988,330.476 576.711,330.761 577.433,331.045 578.156,331.328 578.879,331.612 579.602,331.895 580.324,332.178 581.047,332.461 581.77,332.743 582.492,333.026 583.215,333.308 583.938,333.589 584.661,333.871 585.383,334.152 586.106,334.433 586.829,334.714 587.552,334.994 588.274,335.274 588.997,335.554 589.72,335.834 590.442,336.114 591.165,336.393 591.888,336.672 592.611,336.951 593.333,337.229 594.056,337.507 594.779,337.785 595.502,338.063 596.224,338.341 596.947,338.618 597.67,338.895 598.392,339.172 599.115,339.448 599.838,339.724 600.561,340 601.283,340.276 602.006,340.552 602.729,340.827 603.451,341.102 604.174,341.377 604.897,341.651 605.62,341.926 606.342,342.2 607.065,342.474 607.788,342.747 608.51,343.021 609.233,343.294 609.956,343.567 610.679,343.839 611.401,344.112 612.124,344.384 612.847,344.656 613.57,344.928 614.292,345.199 615.015,345.47 615.738,345.741 616.461,346.012 617.183,346.283 617.906,346.553 618.629,346.823 619.351,347.093 620.074,347.362 620.797,347.632 621.52,347.901 622.242,348.17 622.965,348.438 623.688,348.707 624.41,348.975 625.133,349.243 625.856,349.51 626.579,349.778 627.301,350.045 628.024,350.312 628.747,350.579 629.469,350.845 630.192,351.112 630.915,351.378 631.638,351.644 632.36,351.909 633.083,352.175 633.806,352.44 634.529,352.705 635.251,352.97 635.974,353.234 636.697,353.498 637.419,353.762 638.142,354.026 638.865,354.29 639.588,354.553 640.31,354.816 641.033,355.079 641.756,355.342 642.478,355.604 643.201,355.866 643.924,356.128 644.647,356.39 645.369,356.651 646.092,356.913 646.815,357.174 647.537,357.435 648.26,357.695 648.983,357.956 649.706,358.216 650.428,358.476 651.151,358.736 651.874,358.995 652.597,359.254 653.319,359.513 654.042,359.772 654.765,360.031 655.488,360.289 656.21,360.547 656.933,360.805 657.656,361.063 658.378,361.321 659.101,361.578 659.824,361.835 660.547,362.092 661.269,362.349 661.992,362.605 662.715,362.861 663.437,363.117 664.16,363.373 664.883,363.629 665.606,363.884 666.328,364.139 667.051,364.394 667.774,364.649 668.496,364.903 669.219,365.157 669.942,365.411 670.665,365.665 671.387,365.919 672.11,366.172 672.833,366.425 673.556,366.678 674.278,366.931 675.001,367.184 675.724,367.436 676.447,367.688 677.169,367.94 677.892,368.192 678.615,368.443 679.337,368.694 680.06,368.946 680.783,369.196 681.505,369.447 682.228,369.697 682.951,369.948 683.674,370.198 684.396,370.447 685.119,370.697 685.842,370.946 686.565,371.196 687.287,371.445 688.01,371.693 688.733,371.942 689.455,372.19 690.178,372.438 690.901,372.686 691.624,372.934 692.346,373.181 693.069,373.429 693.792,373.676 694.515,373.923 695.237,374.169 695.96,374.416 696.683,374.662 697.405,374.908 698.128,375.154 698.851,375.4 699.574,375.645 700.296,375.89 701.019,376.135 701.742,376.38 702.464,376.625 703.187,376.869 703.91,377.114 704.633,377.358 705.355,377.601 706.078,377.845 706.801,378.088 707.523,378.332 708.246,378.575 708.969,378.817 709.692,379.06 710.414,379.302 711.137,379.545 711.86,379.787 712.583,380.029 713.305,380.27 714.028,380.512 714.751,380.753 715.474,380.994 716.196,381.235 716.919,381.475 717.642,381.716 718.364,381.956 719.087,382.196 719.81,382.436 720.533,382.675 721.255,382.915 721.978,383.154 722.701,383.393 723.423,383.632 724.146,383.87 724.869,384.109 725.592,384.347 726.314,384.585 727.037,384.823 727.76,385.061 728.482,385.298 729.205,385.535 729.928,385.773 730.651,386.009 731.373,386.246 732.096,386.483 732.819,386.719 733.542,386.955 734.264,387.191 734.987,387.427 735.71,387.662 736.432,387.898 737.155,388.133 737.878,388.368 738.601,388.602 739.323,388.837 740.046,389.071 740.769,389.306 741.492,389.54 742.214,389.773 742.937,390.007 743.66,390.241 744.382,390.474 745.105,390.707 745.828,390.94 746.551,391.172 747.273,391.405 747.996,391.637 748.719,391.869 749.441,392.101 750.164,392.333 750.887,392.565 751.61,392.796 752.332,393.027 753.055,393.258 753.778,393.489 754.5,393.72 755.223,393.95 755.946,394.18 756.669,394.41 757.391,394.64 758.114,394.87 758.837,395.099 759.56,395.329 760.282,395.558 761.005,395.787 761.728,396.016 762.451,396.244 763.173,396.473 763.896,396.701 764.619,396.929 765.341,397.157 766.064,397.384 766.787,397.612 767.51,397.839 768.232,398.066 768.955,398.293 769.678,398.52 770.4,398.747 771.123,398.973 771.846,399.199 772.569,399.425 773.291,399.651 774.014,399.877 774.737,400.102 775.459,400.328 776.182,400.553 776.905,400.778 777.628,401.002 778.35,401.227 779.073,401.451 779.796,401.676 780.519,401.9 781.241,402.124 781.964,402.347 782.687,402.571 783.409,402.794 784.132,403.017 784.855,403.24 785.578,403.463 786.3,403.686 787.023,403.908 787.746,404.131 788.468,404.353 789.191,404.575 789.914,404.796 790.637,405.018 791.359,405.239 792.082,405.461 792.805,405.682 793.527,405.903 794.25,406.123 794.973,406.344 795.696,406.564 796.418,406.784 797.141,407.004 797.864,407.224 798.587,407.444 799.309,407.663 800.032,407.883 800.755,408.102 801.478,408.321 802.2,408.54 802.923,408.758 803.646,408.977 804.368,409.195 805.091,409.413 805.814,409.631 806.536,409.849 807.259,410.067 807.982,410.284 808.705,410.501 809.427,410.718 810.15,410.935 810.873,411.152 811.596,411.369 812.318,411.585 813.041,411.801 813.764,412.017 814.486,412.233 815.209,412.449 815.932,412.665 816.655,412.88 817.377,413.095 818.1,413.31 818.823,413.525 819.546,413.74 820.268,413.955 820.991,414.169 821.714,414.383 822.437,414.597 823.159,414.811 823.882,415.025 824.605,415.239 825.327,415.452 826.05,415.665 826.773,415.878 827.495,416.091 828.218,416.304 828.941,416.517 829.664,416.729 830.386,416.941 831.109,417.153 831.832,417.365 832.555,417.577 833.277,417.789 834,418 " />
</g>

<g fill="none" stroke="#ffffff" stroke-opacity="1" stroke-width="2.66667" stroke-linecap="butt" stroke-linejoin="miter" stroke-miterlimit="2" transform="matrix(0.75,0,0,0.75,0,0)"
font-family="MS Shell Dlg 2" font-size="8.25" font-weight="400" font-style="normal" 
>
<path vector-effect="none" fill-rule="evenodd" d="M600,337.229 C600,333.547 597.015,330.562 593.333,330.562 C589.651,330.562 586.667,333.547 586.667,337.229 C586.667,340.911 589.651,343.896 593.333,343.896 C597.015,343.896 600,340.911 600,337.229 "/>
</g>
</g>
</svg>
