  0
SECTION
  2
HEADER
  9
$ACADVER
  1
AC1012
  9
$DWGCODEPAGE
  3
ansi_1252
  9
$INSBASE
 10
0.0
 20
0.0
 30
0.0
  9
$EXTMIN
 10
-63.0306589455434
 20
-13.95958829
 30
0.0
  9
$EXTMAX
 10
2.2250738585072e-308
 20
12.20488629
 30
0.0
  9
$LIMMIN
 10
0.0
 20
0.0
  9
$LIMMAX
 10
0.0
 20
0.0
  9
$ORTHOMODE
 70
         0
  9
$REGENMODE
 70
         1
  9
$FILLMODE
 70
         1
  9
$QTEXTMODE
 70
         0
  9
$MIRRTEXT
 70
         1
  9
$DRAGMODE
 70
         2
  9
$LTSCALE
 40
1.0
  9
$OSMODE
 70
         0
  9
$ATTMODE
 70
         1
  9
$TEXTSIZE
 40
3.5
  9
$TRACEWID
 40
0.05
  9
$TEXTSTYLE
  7
STANDARD
  9
$CLAYER
  8
0
  9
$CELTYPE
  6
CONTINUOUS
  9
$CECOLOR
 62
       256
  9
$CELTSCALE
 40
1.0
  9
$DELOBJ
 70
         1
  9
$DISPSILH
 70
         0
  9
$DIMSCALE
 40
1.0
  9
$DIMASZ
 40
0.0
  9
$DIMEXO
 40
0.0
  9
$DIMDLI
 40
0.38
  9
$DIMRND
 40
0.0
  9
$DIMDLE
 40
0.0
  9
$DIMEXE
 40
0.18
  9
$DIMTP
 40
0.0
  9
$DIMTM
 40
0.0
  9
$DIMTXT
 40
2.5
  9
$DIMCEN
 40
0.09
  9
$DIMTSZ
 40
0.0
  9
$DIMTOL
 70
         0
  9
$DIMLIM
 70
         0
  9
$DIMTIH
 70
         1
  9
$DIMTOH
 70
         1
  9
$DIMSE1
 70
         0
  9
$DIMSE2
 70
         0
  9
$DIMTAD
 70
         1
  9
$DIMZIN
 70
         0
  9
$DIMBLK
  1

  9
$DIMASO
 70
         1
  9
$DIMSHO
 70
         1
  9
$DIMPOST
  1

  9
$DIMAPOST
  1

  9
$DIMALT
 70
         0
  9
$DIMALTD
 70
         2
  9
$DIMALTF
 40
0.0394
  9
$DIMLFAC
 40
1.0
  9
$DIMTOFL
 70
         0
  9
$DIMTVP
 40
0.0
  9
$DIMTIX
 70
         0
  9
$DIMSOXD
 70
         0
  9
$DIMSAH
 70
         0
  9
$DIMBLK1
  1

  9
$DIMBLK2
  1

  9
$DIMSTYLE
  2
STANDARD
  9
$DIMCLRD
 70
         0
  9
$DIMCLRE
 70
         0
  9
$DIMCLRT
 70
         0
  9
$DIMTFAC
 40
1.0
  9
$DIMGAP
 40
0.0
  9
$DIMJUST
 70
         0
  9
$DIMSD1
 70
         0
  9
$DIMSD2
 70
         0
  9
$DIMTOLJ
 70
         1
  9
$DIMTZIN
 70
         0
  9
$DIMALTZ
 70
         0
  9
$DIMALTTZ
 70
         0
  9
$DIMFIT
 70
         3
  9
$DIMUPT
 70
         0
  9
$DIMUNIT
 70
         2
  9
$DIMDEC
 70
         4
  9
$DIMTDEC
 70
         4
  9
$DIMALTU
 70
         2
  9
$DIMALTTD
 70
         2
  9
$DIMTXSTY
  7
STANDARD
  9
$DIMAUNIT
 70
         0
  9
$LUNITS
 70
         2
  9
$LUPREC
 70
         4
  9
$SKETCHINC
 40
0.1
  9
$FILLETRAD
 40
0.0
  9
$AUNITS
 70
         0
  9
$AUPREC
 70
         0
  9
$MENU
  1
acad
  9
$ELEVATION
 40
0.0
  9
$PELEVATION
 40
0.0
  9
$THICKNESS
 40
0.0
  9
$LIMCHECK
 70
         0
  9
$BLIPMODE
 70
         1
  9
$CHAMFERA
 40
0.0
  9
$CHAMFERB
 40
0.0
  9
$CHAMFERC
 40
0.0
  9
$CHAMFERD
 40
0.0
  9
$SKPOLY
 70
         0
  9
$TDCREATE
 40
0.000000000
  9
$TDUPDATE
 40
0.000000000
  9
$TDINDWG
 40
0.0000000000
  9
$TDUSRTIMER
 40
0.0000000000
  9
$USRTIMER
 70
         1
  9
$ANGBASE
 50
0.0
  9
$ANGDIR
 70
         0
  9
$PDMODE
 70
         0
  9
$PDSIZE
 40
-1.0
  9
$PLINEWID
 40
0.0
  9
$COORDS
 70
         0
  9
$SPLFRAME
 70
         0
  9
$SPLINETYPE
 70
         6
  9
$SPLINESEGS
 70
         8
  9
$ATTDIA
 70
         0
  9
$ATTREQ
 70
         1
  9
$HANDLING
 70
         1
  9
$HANDSEED
  5
33
  9
$SURFTAB1
 70
         6
  9
$SURFTAB2
 70
         6
  9
$SURFTYPE
 70
         6
  9
$SURFU
 70
         6
  9
$SURFV
 70
         6
  9
$UCSNAME
  2

  9
$UCSORG
 10
0.0
 20
0.0
 30
0.0
  9
$UCSXDIR
 10
1.0
 20
0.0
 30
0.0
  9
$UCSYDIR
 10
0.0
 20
1.0
 30
0.0
  9
$PUCSNAME
  2

  9
$PUCSORG
 10
0.0
 20
0.0
 30
0.0
  9
$PUCSXDIR
 10
1.0
 20
0.0
 30
0.0
  9
$PUCSYDIR
 10
0.0
 20
1.0
 30
0.0
  9
$USERI1
 70
         0
  9
$USERI2
 70
         0
  9
$USERI3
 70
         0
  9
$USERI4
 70
         0
  9
$USERI5
 70
         0
  9
$USERR1
 40
0.0
  9
$USERR2
 40
0.0
  9
$USERR3
 40
0.0
  9
$USERR4
 40
0.0
  9
$USERR5
 40
0.0
  9
$WORLDVIEW
 70
         1
  9
$SHADEDGE
 70
         3
  9
$SHADEDIF
 70
        70
  9
$TILEMODE
 70
         1
  9
$MAXACTVP
 70
        16
  9
$PINSBASE
 10
0.0
 20
0.0
 30
0.0
  9
$PLIMCHECK
 70
         0
  9
$PEXTMIN
 10
1.0000000000E+20
 20
1.0000000000E+20
 30
1.0000000000E+20
  9
$PEXTMAX
 10
-1.0000000000E+20
 20
-1.0000000000E+20
 30
-1.0000000000E+20
  9
$PLIMMIN
 10
0.0
 20
0.0
  9
$PLIMMAX
 10
12.0
 20
9.0
  9
$UNITMODE
 70
         0
  9
$VISRETAIN
 70
         0
  9
$PLINEGEN
 70
         1
  9
$PSLTSCALE
 70
         1
  9
$TREEDEPTH
 70
      3020
  9
$PICKSTYLE
 70
         1
  9
$CMLSTYLE
  2
STANDARD
  9
$CMLJUST
 70
         0
  9
$CMLSCALE
 40
1.0
  9
$SAVEIMAGES
 70
         0
  0
ENDSEC
  0
SECTION
  2
CLASSES
  0
CLASS
  1
LWPOLYLINE
  2
AcDbPolyline
  3
"AutoCAD"
 90
    32768
280
         0
281
         1
  0
CLASS
  1
DICTIONARYVAR
  2
AcDbDictionaryVar
  3
"AutoCAD"
 90
    32768
280
         0
281
         0
  0
CLASS
  1
LAYOUT
  2
AcDbLayout
  3
"AutoCAD 2000"
 90
    32768
280
         0
281
         0
  0
CLASS
  1
PLOTSETTINGS
  2
AcDbPlotSettings
  3
"AutoCAD 2000"
 90
    32768
280
         0
281
         0
  0
CLASS
  1
ACDBDICTIONARYWDFLT
  2
AcDbDictionaryWithDefault
  3
"AutoCAD 2000"
 90
    32768
280
         0
281
         0
  0
CLASS
  1
ACDBPLACEHOLDER
  2
AcDbPlaceHolder
  3
"AutoCAD 2000"
 90
    32768
280
         0
281
         0
  0
ENDSEC
  0
SECTION
  2
TABLES
  0
TABLE
  2
VPORT
  5
7
100
AcDbSymbolTable
 70
         1
  0
VPORT
  5
15
100
AcDbSymbolTableRecord
100
AcDbViewportTableRecord
  2
*ACTIVE
 70
         0
 10
0.0
 20
0.0
 11
1.0
 21
1.0
 12
-31.5153294727717
 22
-0.877350999999998
 13
0.0
 23
0.0
 14
1.0
 24
1.0
 15
0.0
 25
0.0
 16
0.0
 26
0.0
 36
1.0
 17
0.0
 27
0.0
 37
0.0
 40
26.16447458
 41
1.0
 42
50.0
 43
0.0
 44
0.0
 50
0.0
 51
0.0
 71
         0
 72
      2000
 73
         1
 74
         1
 75
         0
 76
         0
 77
         0
 78
         0
  0
ENDTAB
  0
TABLE
  2
LTYPE
  5
4
100
AcDbSymbolTable
 70
         8
  0
LTYPE
  5
11
100
AcDbSymbolTableRecord
100
AcDbLinetypeTableRecord
  2
BYBLOCK
 70
        64
  3

 72
        65
 73
         0
 40
0.0
  0
LTYPE
  5
12
100
AcDbSymbolTableRecord
100
AcDbLinetypeTableRecord
  2
BYLAYER
 70
        64
  3

 72
        65
 73
         0
 40
0.0
  0
LTYPE
  5
13
100
AcDbSymbolTableRecord
100
AcDbLinetypeTableRecord
  2
CONTINUOUS
 70
        64
  3
Solid line
 72
        65
 73
         0
 40
0.0
  0
ENDTAB
  0
TABLE
  2
LAYER
  5
2
100
AcDbSymbolTable
 70
         2
  0
LAYER
  5
14
100
AcDbSymbolTableRecord
100
AcDbLayerTableRecord
  2
0
 70
         0
 62
         7
  6
CONTINUOUS
  0
LAYER
  5
23
100
AcDbSymbolTableRecord
100
AcDbLayerTableRecord
  2
DEFPOINTS
 70
         0
 62
         7
  6
CONTINUOUS
  0
ENDTAB
  0
TABLE
  2
STYLE
  5
3
100
AcDbSymbolTable
 70
         1
  0
STYLE
  5
17
100
AcDbSymbolTableRecord
100
AcDbTextStyleTableRecord
  2
STANDARD
 70
         0
 40
0.0
 41
1.0
 50
0.0
 71
         0
 42
0.0
  3
txt
  4

  0
ENDTAB
  0
TABLE
  2
VIEW
  5
5
100
AcDbSymbolTable
 70
         0
  0
ENDTAB
  0
TABLE
  2
UCS
  5
6
100
AcDbSymbolTable
 70
         0
  0
ENDTAB
  0
TABLE
  2
APPID
  5
8
100
AcDbSymbolTable
 70
         1
  0
APPID
  5
16
100
AcDbSymbolTableRecord
100
AcDbRegAppTableRecord
  2
ACAD
 70
         0
  0
ENDTAB
  0
TABLE
  2
DIMSTYLE
  5
9
100
AcDbSymbolTable
 70
         1
  0
DIMSTYLE
105
18
100
AcDbSymbolTableRecord
100
AcDbDimStyleTableRecord
  2
STANDARD
 70
         0
  3

  4

  5

  6

  7

 40
1.0
 41
0.18
 42
0.0625
 43
0.38
 44
0.18
 45
0.0
 46
0.0
 47
0.0
 48
0.0
 71
         0
 72
         0
 73
         1
 74
         1
 75
         0
 76
         0
 77
         0
 78
         0
140
0.18
141
0.09
142
0.0
143
25.4
144
1.0
145
0.0
146
1.0
147
0.09
170
         0
171
         2
172
         0
173
         0
174
         0
175
         0
176
         0
177
         0
178
         0
270
         2
271
         4
272
         4
273
         2
274
         2
275
         0
280
         0
281
         0
282
         0
283
         1
284
         0
285
         0
286
         0
287
         3
288
         0
340
17
  0
ENDTAB
  0
TABLE
  2
BLOCK_RECORD
  5
1
100
AcDbSymbolTable
 70
         0
  0
BLOCK_RECORD
  5
A
100
AcDbSymbolTableRecord
100
AcDbBlockTableRecord
  2
*MODEL_SPACE
  0
BLOCK_RECORD
  5
B
100
AcDbSymbolTableRecord
100
AcDbBlockTableRecord
  2
*PAPER_SPACE
  0
ENDTAB
  0
ENDSEC
  0
SECTION
  2
BLOCKS
  0
BLOCK
  5
D
100
AcDbEntity
  8
0
100
AcDbBlockBegin
  2
*MODEL_SPACE
 70
         0
 10
0.0
 20
0.0
 30
0.0
  3
*MODEL_SPACE
  1

  0
ENDBLK
  5
E
100
AcDbEntity
  8
0
100
AcDbBlockEnd
  0
BLOCK
  5
F
100
AcDbEntity
 67
         1
  8
0
100
AcDbBlockBegin
  2
*PAPER_SPACE
 70
         0
 10
0.0
 20
0.0
 30
0.0
  3
*PAPER_SPACE
  1

  0
ENDBLK
  5
10
100
AcDbEntity
 67
         1
  8
0
100
AcDbBlockEnd
  0
ENDSEC
  0
SECTION
  2
ENTITIES
  0
LWPOLYLINE
  5
30
100
AcDbEntity
  8
1
100
AcDbPolyline
 90
232
 70
1
10
-54.6066584345901
20
1.23615704969732
10
-54.6066584345901
20
0.236157049697313
10
-54.1835529627097
20
-0.576531233629378
10
-53.9835529827096
20
-0.776531213629402
10
-54.1835529627097
20
-0.976531193629437
10
-53.9835529827096
20
-1.17653117362943
10
-54.1835529627097
20
-1.37653115362945
10
-53.9835529827096
20
-1.57653113362948
10
-54.1835529627097
20
-1.77653111362947
10
-53.9835529827096
20
-1.97653109362951
10
-54.1835529627097
20
-2.17653107362951
10
-53.9835529827096
20
-2.37653105362955
10
-54.1835529627097
20
-2.57653103362955
10
-53.9835529827096
20
-2.77653101362956
10
-54.1835529627097
20
-2.97653099362959
10
-53.9835529827096
20
-3.17653097362961
10
-54.1835529627097
20
-3.37653095362962
10
-53.9835529827096
20
-3.57653093362963
10
-54.1835529627097
20
-3.77653091362966
10
-53.9835529827096
20
-3.97653089362966
10
-54.1835529627097
20
-4.17653087362969
10
-53.9835529827096
20
-4.37653085362969
10
-54.1835529627097
20
-4.57653083362972
10
-53.9835529827096
20
-4.77653081362973
10
-54.1835529627097
20
-4.97653079362974
10
-53.9835529827096
20
-5.17653077362976
10
-54.1835529627097
20
-5.37653075362979
10
-53.9835529827096
20
-5.57653073362981
10
-54.1835529627097
20
-5.77653071362983
10
-53.9835529827096
20
-5.97653069362984
10
-54.1835529627097
20
-6.17653067362983
10
-53.9835529827096
20
-6.37653065362987
10
-54.1835529627097
20
-6.57653063362988
10
-53.9835529827096
20
-6.7765306136299
10
-54.1835529627097
20
-6.97653059362994
10
-53.9835529827096
20
-7.17653057362996
10
-54.1835529627097
20
-7.37653055362999
10
-53.9835529827096
20
-7.57653053363002
10
-54.1835529627097
20
-7.77653051363006
10
-53.9835529827096
20
-7.97653049363008
10
-54.1835529627097
20
-8.17653047363011
10
-53.9835529827096
20
-8.37653045363014
10
-54.1835529627097
20
-8.57653043363017
10
-53.9835529827096
20
-8.7765304136302
10
-54.1835529627097
20
-8.97653039363023
10
-53.9835529827096
20
-9.17653037363026
10
-54.1835529627097
20
-9.37653035363029
10
-53.9835529827096
20
-9.57653033363031
10
-54.1835529627097
20
-9.77653031363035
10
-54.1835529627097
20
-10.0102686633204
10
-54.6066584345901
20
-10.7350884865591
10
-54.6066584345901
20
-12.5350884901602
42
0.31846250185355
10
-54.8615093602277
20
-13.424541267081
42
0.318462501853534
10
-54.1066584345901
20
-13.95958829
42
0.31846250185355
10
-53.3518075089525
20
-13.424541267081
42
0.318462501853563
10
-53.6066584345901
20
-12.5350884901602
10
-53.6066584345901
20
-10.7350884865591
10
-54.0845579627097
20
-10.0102686633204
10
-54.0845579627096
20
-9.77653031363035
10
-53.8845579827096
20
-9.57653033363031
10
-54.0845579627096
20
-9.37653035363029
10
-53.8845579827096
20
-9.17653037363026
10
-54.0845579627096
20
-8.97653039363023
10
-53.8845579827096
20
-8.7765304136302
10
-54.0845579627096
20
-8.57653043363017
10
-53.8845579827096
20
-8.37653045363014
10
-54.0845579627096
20
-8.17653047363011
10
-53.8845579827096
20
-7.97653049363008
10
-54.0845579627096
20
-7.77653051363006
10
-53.8845579827096
20
-7.57653053363002
10
-54.0845579627096
20
-7.37653055362999
10
-53.8845579827096
20
-7.17653057362996
10
-54.0845579627096
20
-6.97653059362994
10
-53.8845579827096
20
-6.7765306136299
10
-54.0845579627096
20
-6.57653063362988
10
-53.8845579827096
20
-6.37653065362987
10
-54.0845579627096
20
-6.17653067362983
10
-53.8845579827096
20
-5.97653069362985
10
-54.0845579627096
20
-5.77653071362983
10
-53.8845579827096
20
-5.57653073362981
10
-54.0845579627096
20
-5.37653075362979
10
-53.8845579827096
20
-5.17653077362976
10
-54.0845579627096
20
-4.97653079362974
10
-53.8845579827096
20
-4.77653081362973
10
-54.0845579627096
20
-4.57653083362972
10
-53.8845579827096
20
-4.37653085362969
10
-54.0845579627096
20
-4.17653087362969
10
-53.8845579827096
20
-3.97653089362966
10
-54.0845579627096
20
-3.77653091362966
10
-53.8845579827096
20
-3.57653093362963
10
-54.0845579627096
20
-3.37653095362962
10
-53.8845579827096
20
-3.17653097362961
10
-54.0845579627096
20
-2.97653099362959
10
-53.8845579827096
20
-2.77653101362956
10
-54.0845579627096
20
-2.57653103362955
10
-53.8845579827096
20
-2.37653105362955
10
-54.0845579627096
20
-2.17653107362951
10
-53.8845579827096
20
-1.97653109362951
10
-54.0845579627096
20
-1.77653111362947
10
-53.8845579827096
20
-1.57653113362949
10
-54.0845579627096
20
-1.37653115362945
10
-53.8845579827096
20
-1.17653117362943
10
-54.0845579627096
20
-0.976531193629439
10
-53.8845579827096
20
-0.776531213629401
10
-54.0845579627096
20
-0.576531233629378
10
-53.6066584345901
20
0.236157049697311
10
-53.6066584345901
20
1.23615704969732
10
-52.6066584345901
20
1.23615704969732
10
-51.7939701512634
20
1.6592668301933
10
-51.5939701712634
20
1.8592668101933
10
-51.3939701912633
20
1.6592668301933
10
-51.1939702112633
20
1.8592668101933
10
-50.9939702312633
20
1.6592668301933
10
-50.7939702512633
20
1.8592668101933
10
-50.5939702712633
20
1.6592668301933
10
-50.3939702912633
20
1.85926681019331
10
-50.1939703112633
20
1.6592668301933
10
-49.9939703312632
20
1.85926681019331
10
-49.7939703512632
20
1.6592668301933
10
-49.5939703712632
20
1.8592668101933
10
-49.3939703912632
20
1.6592668301933
10
-49.1939704112632
20
1.8592668101933
10
-48.9939704312632
20
1.6592668301933
10
-48.7939704512631
20
1.8592668101933
10
-48.5939704712631
20
1.6592668301933
10
-48.3939704912631
20
1.8592668101933
10
-48.1939705112631
20
1.6592668301933
10
-47.9939705312631
20
1.8592668101933
10
-47.793970551263
20
1.6592668301933
10
-47.593970571263
20
1.85926681019331
10
-47.393970591263
20
1.6592668301933
10
-47.193970611263
20
1.8592668101933
10
-46.993970631263
20
1.6592668301933
10
-46.793970651263
20
1.8592668101933
10
-46.5939706712629
20
1.6592668301933
10
-46.3939706912629
20
1.85926681019331
10
-46.1939707112629
20
1.6592668301933
10
-45.9939707312629
20
1.85926681019331
10
-45.7939707512629
20
1.6592668301933
10
-45.5939707712629
20
1.8592668101933
10
-45.3939707912628
20
1.6592668301933
10
-45.1939708112628
20
1.8592668101933
10
-44.9939708312628
20
1.6592668301933
10
-44.7939708512627
20
1.8592668101933
10
-44.5939708712627
20
1.6592668301933
10
-44.3939708912627
20
1.8592668101933
10
-44.1939709112627
20
1.6592668301933
10
-43.9939709312626
20
1.8592668101933
10
-43.7939709512626
20
1.6592668301933
10
-43.5939709712626
20
1.8592668101933
10
-43.3939709912625
20
1.6592668301933
10
-43.1939710112625
20
1.8592668101933
10
-42.9939710312625
20
1.6592668301933
10
-42.7939710512625
20
1.8592668101933
10
-42.5939710706312
20
1.6592668301933
10
-42.3606377606312
20
1.65926683009665
10
-31.86063776
20
-12.38910441
10
-21.36063776
20
1.65926683
10
-21.16063776
20
1.60290393
10
-18.36063776
20
1.60290393
10
-17.7288004204488
20
1.23209597780227
10
-15.6244997998398
20
1.23209597780227
42
0.31846250185354
10
-14.735047022919
20
0.977245052164665
42
0.318462501853531
10
-14.2
20
1.73209597780226
42
0.318462501853552
10
-14.735047022919
20
2.48694690343985
42
0.318462501853542
10
-15.6244997998398
20
2.23209597780226
10
-17.7288004184726
20
2.23209597780226
10
-18.36063776
20
1.81462473
10
-21.16063776
20
1.81462473
10
-21.36063776
20
1.75826183
10
-31.86063776
20
12.20488629
10
-42.3606377606312
20
1.75826183009665
10
-42.5939710712624
20
1.7582618301933
10
-42.7939710512625
20
1.9582618101933
10
-42.9939710312625
20
1.7582618301933
10
-43.1939710112625
20
1.95826181019331
10
-43.3939709912625
20
1.7582618301933
10
-43.5939709712626
20
1.9582618101933
10
-43.7939709512626
20
1.7582618301933
10
-43.9939709312626
20
1.9582618101933
10
-44.1939709112627
20
1.7582618301933
10
-44.3939708912627
20
1.9582618101933
10
-44.5939708712627
20
1.7582618301933
10
-44.7939708512627
20
1.9582618101933
10
-44.9939708312628
20
1.7582618301933
10
-45.1939708112628
20
1.9582618101933
10
-45.3939707912628
20
1.7582618301933
10
-45.5939707712629
20
1.9582618101933
10
-45.7939707512629
20
1.7582618301933
10
-45.9939707312629
20
1.95826181019331
10
-46.1939707112629
20
1.7582618301933
10
-46.3939706912629
20
1.95826181019331
10
-46.5939706712629
20
1.7582618301933
10
-46.793970651263
20
1.9582618101933
10
-46.993970631263
20
1.7582618301933
10
-47.193970611263
20
1.9582618101933
10
-47.393970591263
20
1.7582618301933
10
-47.593970571263
20
1.9582618101933
10
-47.793970551263
20
1.7582618301933
10
-47.9939705312631
20
1.95826181019331
10
-48.1939705112631
20
1.7582618301933
10
-48.3939704912631
20
1.9582618101933
10
-48.5939704712631
20
1.7582618301933
10
-48.7939704512631
20
1.9582618101933
10
-48.9939704312632
20
1.7582618301933
10
-49.1939704112632
20
1.9582618101933
10
-49.3939703912632
20
1.7582618301933
10
-49.5939703712632
20
1.9582618101933
10
-49.7939703512632
20
1.7582618301933
10
-49.9939703312632
20
1.9582618101933
10
-50.1939703112633
20
1.7582618301933
10
-50.3939702912633
20
1.9582618101933
10
-50.5939702712633
20
1.7582618301933
10
-50.7939702512633
20
1.95826181019331
10
-50.9939702312633
20
1.7582618301933
10
-51.1939702112633
20
1.9582618101933
10
-51.3939701912633
20
1.7582618301933
10
-51.5939701712634
20
1.95826181019331
10
-51.7939701512634
20
1.7582618301933
10
-52.6066584345901
20
2.23615704969732
10
-53.6066584345901
20
2.23615704969732
10
-53.6066584345901
20
9.23615704969731
42
0.318462501853535
10
-53.3518075089525
20
10.1256098266181
42
0.318462501853538
10
-54.1066584345901
20
10.6606568495372
42
0.318462501853543
10
-54.8615093602277
20
10.1256098266181
42
0.318462501853562
10
-54.6066584345901
20
9.23615704969732
10
-54.6066584345901
20
2.23615704969732
10
-61.6061591457035
20
2.23615704969732
42
0.318462501853532
10
-62.4956119226243
20
2.49100797533491
42
0.318462501853545
10
-63.0306589455434
20
1.73615704969732
42
0.31846250185348
10
-62.4956119226243
20
0.981306124059722
42
0.318462501853543
10
-61.6061591457035
20
1.23615704969732
  0
LWPOLYLINE
  5
31
100
AcDbEntity
  8
1
100
AcDbPolyline
 90
3
 70
1
10
-31.86063776
20
11.98197646
10
-21.6413374
20
1.81462473
10
-42.07993812
20
1.81462473
  0
LWPOLYLINE
  5
32
100
AcDbEntity
  8
1
100
AcDbPolyline
 90
3
 70
1
10
-42.0694763
20
1.60290393
10
-21.65179922
20
1.60290393
10
-31.86063776
20
-12.05591072
  0
ENDSEC
  0
SECTION
  2
OBJECTS
  0
DICTIONARY
  5
19
100
AcDbDictionary
  3
ACAD_GROUP
350
1A
  3
ACAD_MLINESTYLE
350
1B
  0
DICTIONARY
  5
1A
102
{ACAD_REACTORS
330
19
102
}
100
AcDbDictionary
  0
DICTIONARY
  5
1B
102
{ACAD_REACTORS
330
19
102
}
100
AcDbDictionary
  3
STANDARD
350
1C
  0
MLINESTYLE
  5
1C
102
{ACAD_REACTORS
330
1B
102
}
100
AcDbMlineStyle
  2
STANDARD
 70
         0
  3

 62
         0
 51
90.0
 52
90.0
 71
         2
 49
0.5
 62
       256
  6
BYLAYER
 49
-0.5
 62
       256
  6
BYLAYER
  0
ENDSEC
  0
EOF
