  0
SECTION
  2
HEADER
  9
$EXTMIN
 10
-11717.7
 20
-13383
  9
$EXTMAX
 10
32713
 20
10645.7
  9
$INSUNITS
 70
13
  0
ENDSEC
  0
SECTION
  2
TABLES
  0
TABLE
  2
LAYER
 70
   3
  0
LAYER
  2
DEFPOINTS
 70
    0
 62
    9
  6
CONTINUOUS
  0
LAYER
  2
layer_7
 70
    0
 62
    143
  6
CONTINUOUS
  0
LAYER
  2
layer_10
 70
    0
 62
    111
  6
CONTINUOUS
  0
ENDTAB
  0
ENDSEC
  0
SECTION
  2
BLOCKS
  0
ENDSEC
  0
SECTION
  2
ENTITIES
  0
TEXT
100
AcDbText
  8
layer_10
 10
-11717.656
 20
10645.73
 11
-11717.656
 21
10645.73
 30
   0
 40
-0.016
  1
Generated with the LayoutEditor (This message will NOT be added by any commercial version of the LayoutEditor.)
 50
0
 72
0
 73
3
  0
POLYLINE
100
AcDb2dPolyline
  8
layer_7
 66
   1
 70
   1
 40
0.0
 41
0.0
  0
VERTEX
100
AcDbVertex
100
AcDb2dVertex
  8
layer_7
 10
15029.033
 20
10428.743
  0
VERTEX
100
AcDbVertex
100
AcDb2dVertex
  8
layer_7
 10
4872.242
 20
870.697
  0
VERTEX
100
AcDbVertex
100
AcDb2dVertex
  8
layer_7
 10
25185.823
 20
870.697
  0
VERTEX
100
AcDbVertex
100
AcDb2dVertex
  8
layer_7
 10
15029.033
 20
10428.743
  0
SEQEND
  0
POLYLINE
100
AcDb2dPolyline
  8
layer_10
 66
   1
 70
   1
 40
0.0
 41
0.0
  0
VERTEX
100
AcDbVertex
100
AcDb2dVertex
  8
layer_10
 10
15029.033
 20
10428.743
  0
VERTEX
100
AcDbVertex
100
AcDb2dVertex
  8
layer_10
 10
25185.823
 20
870.697
  0
VERTEX
100
AcDbVertex
100
AcDb2dVertex
  8
layer_10
 10
4872.242
 20
870.697
  0
VERTEX
100
AcDbVertex
100
AcDb2dVertex
  8
layer_10
 10
15029.033
 20
10428.743
  0
VERTEX
100
AcDbVertex
100
AcDb2dVertex
  8
layer_10
 10
15029.033
 20
10645.73
  0
VERTEX
100
AcDbVertex
100
AcDb2dVertex
  8
layer_10
 10
4857.276
 20
1073.6
  0
VERTEX
100
AcDbVertex
100
AcDb2dVertex
  8
layer_10
 10
4857.276
 20
559.722
  0
VERTEX
100
AcDbVertex
100
AcDb2dVertex
  8
layer_10
 10
25200.789
 20
559.722
  0
VERTEX
100
AcDbVertex
100
AcDb2dVertex
  8
layer_10
 10
15029.033
 20
-13049.816
  0
VERTEX
100
AcDbVertex
100
AcDb2dVertex
  8
layer_10
 10
4857.276
 20
559.722
  0
VERTEX
100
AcDbVertex
100
AcDb2dVertex
  8
layer_10
 10
4857.276
 20
1073.6
  0
VERTEX
100
AcDbVertex
100
AcDb2dVertex
  8
layer_10
 10
4529.033
 20
764.707
  0
VERTEX
100
AcDbVertex
100
AcDb2dVertex
  8
layer_10
 10
4319.033
 20
736.423
  0
VERTEX
100
AcDbVertex
100
AcDb2dVertex
  8
layer_10
 10
4233.318
 20
822.137
  0
VERTEX
100
AcDbVertex
100
AcDb2dVertex
  8
layer_10
 10
4147.604
 20
736.423
  0
VERTEX
100
AcDbVertex
100
AcDb2dVertex
  8
layer_10
 10
4061.89
 20
822.137
  0
VERTEX
100
AcDbVertex
100
AcDb2dVertex
  8
layer_10
 10
3976.176
 20
736.423
  0
VERTEX
100
AcDbVertex
100
AcDb2dVertex
  8
layer_10
 10
3890.461
 20
822.137
  0
VERTEX
100
AcDbVertex
100
AcDb2dVertex
  8
layer_10
 10
3804.747
 20
736.423
  0
VERTEX
100
AcDbVertex
100
AcDb2dVertex
  8
layer_10
 10
3719.033
 20
822.137
  0
VERTEX
100
AcDbVertex
100
AcDb2dVertex
  8
layer_10
 10
3633.319
 20
736.423
  0
VERTEX
100
AcDbVertex
100
AcDb2dVertex
  8
layer_10
 10
3547.604
 20
822.137
  0
VERTEX
100
AcDbVertex
100
AcDb2dVertex
  8
layer_10
 10
3461.89
 20
736.423
  0
VERTEX
100
AcDbVertex
100
AcDb2dVertex
  8
layer_10
 10
3376.176
 20
822.137
  0
VERTEX
100
AcDbVertex
100
AcDb2dVertex
  8
layer_10
 10
3290.461
 20
736.423
  0
VERTEX
100
AcDbVertex
100
AcDb2dVertex
  8
layer_10
 10
3204.747
 20
822.137
  0
VERTEX
100
AcDbVertex
100
AcDb2dVertex
  8
layer_10
 10
3119.033
 20
736.423
  0
VERTEX
100
AcDbVertex
100
AcDb2dVertex
  8
layer_10
 10
3033.319
 20
822.137
  0
VERTEX
100
AcDbVertex
100
AcDb2dVertex
  8
layer_10
 10
2947.604
 20
736.423
  0
VERTEX
100
AcDbVertex
100
AcDb2dVertex
  8
layer_10
 10
2861.89
 20
822.137
  0
VERTEX
100
AcDbVertex
100
AcDb2dVertex
  8
layer_10
 10
2776.176
 20
736.423
  0
VERTEX
100
AcDbVertex
100
AcDb2dVertex
  8
layer_10
 10
2690.462
 20
822.137
  0
VERTEX
100
AcDbVertex
100
AcDb2dVertex
  8
layer_10
 10
2604.747
 20
736.423
  0
VERTEX
100
AcDbVertex
100
AcDb2dVertex
  8
layer_10
 10
2519.033
 20
822.137
  0
VERTEX
100
AcDbVertex
100
AcDb2dVertex
  8
layer_10
 10
2433.319
 20
736.423
  0
VERTEX
100
AcDbVertex
100
AcDb2dVertex
  8
layer_10
 10
2347.604
 20
822.137
  0
VERTEX
100
AcDbVertex
100
AcDb2dVertex
  8
layer_10
 10
2261.89
 20
736.423
  0
VERTEX
100
AcDbVertex
100
AcDb2dVertex
  8
layer_10
 10
2176.176
 20
822.137
  0
VERTEX
100
AcDbVertex
100
AcDb2dVertex
  8
layer_10
 10
2090.462
 20
736.423
  0
VERTEX
100
AcDbVertex
100
AcDb2dVertex
  8
layer_10
 10
2004.747
 20
822.137
  0
VERTEX
100
AcDbVertex
100
AcDb2dVertex
  8
layer_10
 10
1919.033
 20
736.423
  0
VERTEX
100
AcDbVertex
100
AcDb2dVertex
  8
layer_10
 10
1833.319
 20
822.137
  0
VERTEX
100
AcDbVertex
100
AcDb2dVertex
  8
layer_10
 10
1747.604
 20
736.423
  0
VERTEX
100
AcDbVertex
100
AcDb2dVertex
  8
layer_10
 10
1661.89
 20
822.137
  0
VERTEX
100
AcDbVertex
100
AcDb2dVertex
  8
layer_10
 10
1576.176
 20
736.423
  0
VERTEX
100
AcDbVertex
100
AcDb2dVertex
  8
layer_10
 10
1490.462
 20
822.137
  0
VERTEX
100
AcDbVertex
100
AcDb2dVertex
  8
layer_10
 10
1404.747
 20
736.423
  0
VERTEX
100
AcDbVertex
100
AcDb2dVertex
  8
layer_10
 10
1319.033
 20
822.137
  0
VERTEX
100
AcDbVertex
100
AcDb2dVertex
  8
layer_10
 10
1233.319
 20
736.423
  0
VERTEX
100
AcDbVertex
100
AcDb2dVertex
  8
layer_10
 10
1147.605
 20
822.137
  0
VERTEX
100
AcDbVertex
100
AcDb2dVertex
  8
layer_10
 10
1061.89
 20
736.423
  0
VERTEX
100
AcDbVertex
100
AcDb2dVertex
  8
layer_10
 10
976.176
 20
822.137
  0
VERTEX
100
AcDbVertex
100
AcDb2dVertex
  8
layer_10
 10
890.462
 20
736.423
  0
VERTEX
100
AcDbVertex
100
AcDb2dVertex
  8
layer_10
 10
804.747
 20
822.137
  0
VERTEX
100
AcDbVertex
100
AcDb2dVertex
  8
layer_10
 10
719.033
 20
736.423
  0
VERTEX
100
AcDbVertex
100
AcDb2dVertex
  8
layer_10
 10
633.319
 20
822.137
  0
VERTEX
100
AcDbVertex
100
AcDb2dVertex
  8
layer_10
 10
547.605
 20
736.423
  0
VERTEX
100
AcDbVertex
100
AcDb2dVertex
  8
layer_10
 10
461.89
 20
822.137
  0
VERTEX
100
AcDbVertex
100
AcDb2dVertex
  8
layer_10
 10
376.176
 20
736.423
  0
VERTEX
100
AcDbVertex
100
AcDb2dVertex
  8
layer_10
 10
290.462
 20
822.137
  0
VERTEX
100
AcDbVertex
100
AcDb2dVertex
  8
layer_10
 10
204.747
 20
736.423
  0
VERTEX
100
AcDbVertex
100
AcDb2dVertex
  8
layer_10
 10
119.033
 20
822.137
  0
VERTEX
100
AcDbVertex
100
AcDb2dVertex
  8
layer_10
 10
33.319
 20
736.423
  0
VERTEX
100
AcDbVertex
100
AcDb2dVertex
  8
layer_10
 10
-52.395
 20
822.137
  0
VERTEX
100
AcDbVertex
100
AcDb2dVertex
  8
layer_10
 10
-138.11
 20
736.423
  0
VERTEX
100
AcDbVertex
100
AcDb2dVertex
  8
layer_10
 10
-223.824
 20
822.137
  0
VERTEX
100
AcDbVertex
100
AcDb2dVertex
  8
layer_10
 10
-437.679
 20
608.282
  0
VERTEX
100
AcDbVertex
100
AcDb2dVertex
  8
layer_10
 10
-223.824
 20
394.427
  0
VERTEX
100
AcDbVertex
100
AcDb2dVertex
  8
layer_10
 10
-138.11
 20
480.142
  0
VERTEX
100
AcDbVertex
100
AcDb2dVertex
  8
layer_10
 10
-52.395
 20
394.427
  0
VERTEX
100
AcDbVertex
100
AcDb2dVertex
  8
layer_10
 10
33.319
 20
480.142
  0
VERTEX
100
AcDbVertex
100
AcDb2dVertex
  8
layer_10
 10
119.033
 20
394.427
  0
VERTEX
100
AcDbVertex
100
AcDb2dVertex
  8
layer_10
 10
204.747
 20
480.142
  0
VERTEX
100
AcDbVertex
100
AcDb2dVertex
  8
layer_10
 10
290.462
 20
394.427
  0
VERTEX
100
AcDbVertex
100
AcDb2dVertex
  8
layer_10
 10
376.176
 20
480.142
  0
VERTEX
100
AcDbVertex
100
AcDb2dVertex
  8
layer_10
 10
461.89
 20
394.427
  0
VERTEX
100
AcDbVertex
100
AcDb2dVertex
  8
layer_10
 10
547.605
 20
480.142
  0
VERTEX
100
AcDbVertex
100
AcDb2dVertex
  8
layer_10
 10
633.319
 20
394.427
  0
VERTEX
100
AcDbVertex
100
AcDb2dVertex
  8
layer_10
 10
719.033
 20
480.142
  0
VERTEX
100
AcDbVertex
100
AcDb2dVertex
  8
layer_10
 10
804.747
 20
394.427
  0
VERTEX
100
AcDbVertex
100
AcDb2dVertex
  8
layer_10
 10
890.462
 20
480.142
  0
VERTEX
100
AcDbVertex
100
AcDb2dVertex
  8
layer_10
 10
976.176
 20
394.427
  0
VERTEX
100
AcDbVertex
100
AcDb2dVertex
  8
layer_10
 10
1061.89
 20
480.142
  0
VERTEX
100
AcDbVertex
100
AcDb2dVertex
  8
layer_10
 10
1147.605
 20
394.427
  0
VERTEX
100
AcDbVertex
100
AcDb2dVertex
  8
layer_10
 10
1233.319
 20
480.142
  0
VERTEX
100
AcDbVertex
100
AcDb2dVertex
  8
layer_10
 10
1319.033
 20
394.427
  0
VERTEX
100
AcDbVertex
100
AcDb2dVertex
  8
layer_10
 10
1404.747
 20
480.142
  0
VERTEX
100
AcDbVertex
100
AcDb2dVertex
  8
layer_10
 10
1490.462
 20
394.427
  0
VERTEX
100
AcDbVertex
100
AcDb2dVertex
  8
layer_10
 10
1576.176
 20
480.142
  0
VERTEX
100
AcDbVertex
100
AcDb2dVertex
  8
layer_10
 10
1661.89
 20
394.427
  0
VERTEX
100
AcDbVertex
100
AcDb2dVertex
  8
layer_10
 10
1747.604
 20
480.142
  0
VERTEX
100
AcDbVertex
100
AcDb2dVertex
  8
layer_10
 10
1833.319
 20
394.427
  0
VERTEX
100
AcDbVertex
100
AcDb2dVertex
  8
layer_10
 10
1919.033
 20
480.142
  0
VERTEX
100
AcDbVertex
100
AcDb2dVertex
  8
layer_10
 10
2004.747
 20
394.427
  0
VERTEX
100
AcDbVertex
100
AcDb2dVertex
  8
layer_10
 10
2090.462
 20
480.142
  0
VERTEX
100
AcDbVertex
100
AcDb2dVertex
  8
layer_10
 10
2176.176
 20
394.427
  0
VERTEX
100
AcDbVertex
100
AcDb2dVertex
  8
layer_10
 10
2261.89
 20
480.142
  0
VERTEX
100
AcDbVertex
100
AcDb2dVertex
  8
layer_10
 10
2347.604
 20
394.427
  0
VERTEX
100
AcDbVertex
100
AcDb2dVertex
  8
layer_10
 10
2433.319
 20
480.142
  0
VERTEX
100
AcDbVertex
100
AcDb2dVertex
  8
layer_10
 10
2519.033
 20
394.427
  0
VERTEX
100
AcDbVertex
100
AcDb2dVertex
  8
layer_10
 10
2604.747
 20
480.142
  0
VERTEX
100
AcDbVertex
100
AcDb2dVertex
  8
layer_10
 10
2690.462
 20
394.427
  0
VERTEX
100
AcDbVertex
100
AcDb2dVertex
  8
layer_10
 10
2776.176
 20
480.142
  0
VERTEX
100
AcDbVertex
100
AcDb2dVertex
  8
layer_10
 10
2861.89
 20
394.427
  0
VERTEX
100
AcDbVertex
100
AcDb2dVertex
  8
layer_10
 10
2947.604
 20
480.142
  0
VERTEX
100
AcDbVertex
100
AcDb2dVertex
  8
layer_10
 10
3033.319
 20
394.427
  0
VERTEX
100
AcDbVertex
100
AcDb2dVertex
  8
layer_10
 10
3119.033
 20
480.142
  0
VERTEX
100
AcDbVertex
100
AcDb2dVertex
  8
layer_10
 10
3204.747
 20
394.427
  0
VERTEX
100
AcDbVertex
100
AcDb2dVertex
  8
layer_10
 10
3290.461
 20
480.142
  0
VERTEX
100
AcDbVertex
100
AcDb2dVertex
  8
layer_10
 10
3376.176
 20
394.427
  0
VERTEX
100
AcDbVertex
100
AcDb2dVertex
  8
layer_10
 10
3461.89
 20
480.142
  0
VERTEX
100
AcDbVertex
100
AcDb2dVertex
  8
layer_10
 10
3547.604
 20
394.427
  0
VERTEX
100
AcDbVertex
100
AcDb2dVertex
  8
layer_10
 10
3633.319
 20
480.142
  0
VERTEX
100
AcDbVertex
100
AcDb2dVertex
  8
layer_10
 10
3719.033
 20
394.427
  0
VERTEX
100
AcDbVertex
100
AcDb2dVertex
  8
layer_10
 10
3804.747
 20
480.142
  0
VERTEX
100
AcDbVertex
100
AcDb2dVertex
  8
layer_10
 10
3890.461
 20
394.427
  0
VERTEX
100
AcDbVertex
100
AcDb2dVertex
  8
layer_10
 10
3976.176
 20
480.142
  0
VERTEX
100
AcDbVertex
100
AcDb2dVertex
  8
layer_10
 10
4061.89
 20
394.427
  0
VERTEX
100
AcDbVertex
100
AcDb2dVertex
  8
layer_10
 10
4147.604
 20
480.142
  0
VERTEX
100
AcDbVertex
100
AcDb2dVertex
  8
layer_10
 10
4233.318
 20
394.427
  0
VERTEX
100
AcDbVertex
100
AcDb2dVertex
  8
layer_10
 10
4319.033
 20
480.142
  0
VERTEX
100
AcDbVertex
100
AcDb2dVertex
  8
layer_10
 10
4490.461
 20
308.713
  0
VERTEX
100
AcDbVertex
100
AcDb2dVertex
  8
layer_10
 10
4319.033
 20
137.284
  0
VERTEX
100
AcDbVertex
100
AcDb2dVertex
  8
layer_10
 10
4233.318
 20
222.999
  0
VERTEX
100
AcDbVertex
100
AcDb2dVertex
  8
layer_10
 10
4147.604
 20
137.284
  0
VERTEX
100
AcDbVertex
100
AcDb2dVertex
  8
layer_10
 10
4061.89
 20
222.999
  0
VERTEX
100
AcDbVertex
100
AcDb2dVertex
  8
layer_10
 10
3976.176
 20
137.284
  0
VERTEX
100
AcDbVertex
100
AcDb2dVertex
  8
layer_10
 10
3890.461
 20
222.999
  0
VERTEX
100
AcDbVertex
100
AcDb2dVertex
  8
layer_10
 10
3804.747
 20
137.284
  0
VERTEX
100
AcDbVertex
100
AcDb2dVertex
  8
layer_10
 10
3719.033
 20
222.999
  0
VERTEX
100
AcDbVertex
100
AcDb2dVertex
  8
layer_10
 10
3633.319
 20
137.284
  0
VERTEX
100
AcDbVertex
100
AcDb2dVertex
  8
layer_10
 10
3547.604
 20
222.999
  0
VERTEX
100
AcDbVertex
100
AcDb2dVertex
  8
layer_10
 10
3461.89
 20
137.284
  0
VERTEX
100
AcDbVertex
100
AcDb2dVertex
  8
layer_10
 10
3376.176
 20
222.999
  0
VERTEX
100
AcDbVertex
100
AcDb2dVertex
  8
layer_10
 10
3290.461
 20
137.284
  0
VERTEX
100
AcDbVertex
100
AcDb2dVertex
  8
layer_10
 10
3204.747
 20
222.999
  0
VERTEX
100
AcDbVertex
100
AcDb2dVertex
  8
layer_10
 10
3119.033
 20
137.284
  0
VERTEX
100
AcDbVertex
100
AcDb2dVertex
  8
layer_10
 10
3033.319
 20
222.999
  0
VERTEX
100
AcDbVertex
100
AcDb2dVertex
  8
layer_10
 10
2947.604
 20
137.284
  0
VERTEX
100
AcDbVertex
100
AcDb2dVertex
  8
layer_10
 10
2861.89
 20
222.999
  0
VERTEX
100
AcDbVertex
100
AcDb2dVertex
  8
layer_10
 10
2776.176
 20
137.284
  0
VERTEX
100
AcDbVertex
100
AcDb2dVertex
  8
layer_10
 10
2690.462
 20
222.999
  0
VERTEX
100
AcDbVertex
100
AcDb2dVertex
  8
layer_10
 10
2604.747
 20
137.284
  0
VERTEX
100
AcDbVertex
100
AcDb2dVertex
  8
layer_10
 10
2519.033
 20
222.999
  0
VERTEX
100
AcDbVertex
100
AcDb2dVertex
  8
layer_10
 10
2433.319
 20
137.284
  0
VERTEX
100
AcDbVertex
100
AcDb2dVertex
  8
layer_10
 10
2347.604
 20
222.999
  0
VERTEX
100
AcDbVertex
100
AcDb2dVertex
  8
layer_10
 10
2261.89
 20
137.284
  0
VERTEX
100
AcDbVertex
100
AcDb2dVertex
  8
layer_10
 10
2176.176
 20
222.999
  0
VERTEX
100
AcDbVertex
100
AcDb2dVertex
  8
layer_10
 10
2090.462
 20
137.284
  0
VERTEX
100
AcDbVertex
100
AcDb2dVertex
  8
layer_10
 10
2004.747
 20
222.999
  0
VERTEX
100
AcDbVertex
100
AcDb2dVertex
  8
layer_10
 10
1919.033
 20
137.284
  0
VERTEX
100
AcDbVertex
100
AcDb2dVertex
  8
layer_10
 10
1833.319
 20
222.999
  0
VERTEX
100
AcDbVertex
100
AcDb2dVertex
  8
layer_10
 10
1747.604
 20
137.284
  0
VERTEX
100
AcDbVertex
100
AcDb2dVertex
  8
layer_10
 10
1661.89
 20
222.999
  0
VERTEX
100
AcDbVertex
100
AcDb2dVertex
  8
layer_10
 10
1576.176
 20
137.284
  0
VERTEX
100
AcDbVertex
100
AcDb2dVertex
  8
layer_10
 10
1490.462
 20
222.999
  0
VERTEX
100
AcDbVertex
100
AcDb2dVertex
  8
layer_10
 10
1404.747
 20
137.284
  0
VERTEX
100
AcDbVertex
100
AcDb2dVertex
  8
layer_10
 10
1319.033
 20
222.999
  0
VERTEX
100
AcDbVertex
100
AcDb2dVertex
  8
layer_10
 10
1233.319
 20
137.284
  0
VERTEX
100
AcDbVertex
100
AcDb2dVertex
  8
layer_10
 10
1147.605
 20
222.999
  0
VERTEX
100
AcDbVertex
100
AcDb2dVertex
  8
layer_10
 10
1061.89
 20
137.284
  0
VERTEX
100
AcDbVertex
100
AcDb2dVertex
  8
layer_10
 10
976.176
 20
222.999
  0
VERTEX
100
AcDbVertex
100
AcDb2dVertex
  8
layer_10
 10
890.462
 20
137.284
  0
VERTEX
100
AcDbVertex
100
AcDb2dVertex
  8
layer_10
 10
804.747
 20
222.999
  0
VERTEX
100
AcDbVertex
100
AcDb2dVertex
  8
layer_10
 10
719.033
 20
137.284
  0
VERTEX
100
AcDbVertex
100
AcDb2dVertex
  8
layer_10
 10
633.319
 20
222.999
  0
VERTEX
100
AcDbVertex
100
AcDb2dVertex
  8
layer_10
 10
547.605
 20
137.284
  0
VERTEX
100
AcDbVertex
100
AcDb2dVertex
  8
layer_10
 10
461.89
 20
222.999
  0
VERTEX
100
AcDbVertex
100
AcDb2dVertex
  8
layer_10
 10
376.176
 20
137.284
  0
VERTEX
100
AcDbVertex
100
AcDb2dVertex
  8
layer_10
 10
290.462
 20
222.999
  0
VERTEX
100
AcDbVertex
100
AcDb2dVertex
  8
layer_10
 10
204.747
 20
137.284
  0
VERTEX
100
AcDbVertex
100
AcDb2dVertex
  8
layer_10
 10
119.033
 20
222.999
  0
VERTEX
100
AcDbVertex
100
AcDb2dVertex
  8
layer_10
 10
33.319
 20
137.284
  0
VERTEX
100
AcDbVertex
100
AcDb2dVertex
  8
layer_10
 10
-52.395
 20
222.999
  0
VERTEX
100
AcDbVertex
100
AcDb2dVertex
  8
layer_10
 10
-138.11
 20
137.284
  0
VERTEX
100
AcDbVertex
100
AcDb2dVertex
  8
layer_10
 10
-223.824
 20
222.999
  0
VERTEX
100
AcDbVertex
100
AcDb2dVertex
  8
layer_10
 10
-309.538
 20
137.284
  0
VERTEX
100
AcDbVertex
100
AcDb2dVertex
  8
layer_10
 10
-395.252
 20
222.999
  0
VERTEX
100
AcDbVertex
100
AcDb2dVertex
  8
layer_10
 10
-480.967
 20
137.284
  0
VERTEX
100
AcDbVertex
100
AcDb2dVertex
  8
layer_10
 10
-1293.655
 20
643.43
  0
VERTEX
100
AcDbVertex
100
AcDb2dVertex
  8
layer_10
 10
-2293.655
 20
643.43
  0
VERTEX
100
AcDbVertex
100
AcDb2dVertex
  8
layer_10
 10
-2293.655
 20
7643.43
  0
VERTEX
100
AcDbVertex
100
AcDb2dVertex
  8
layer_10
 10
-2241.129
 20
7689.384
  0
VERTEX
100
AcDbVertex
100
AcDb2dVertex
  8
layer_10
 10
-2192.808
 20
7739.742
  0
VERTEX
100
AcDbVertex
100
AcDb2dVertex
  8
layer_10
 10
-2149.06
 20
7794.119
  0
VERTEX
100
AcDbVertex
100
AcDb2dVertex
  8
layer_10
 10
-2110.217
 20
7852.102
  0
VERTEX
100
AcDbVertex
100
AcDb2dVertex
  8
layer_10
 10
-2076.576
 20
7913.25
  0
VERTEX
100
AcDbVertex
100
AcDb2dVertex
  8
layer_10
 10
-2048.392
 20
7977.097
  0
VERTEX
100
AcDbVertex
100
AcDb2dVertex
  8
layer_10
 10
-2025.88
 20
8043.158
  0
VERTEX
100
AcDbVertex
100
AcDb2dVertex
  8
layer_10
 10
-2009.212
 20
8110.929
  0
VERTEX
100
AcDbVertex
100
AcDb2dVertex
  8
layer_10
 10
-1998.513
 20
8179.896
  0
VERTEX
100
AcDbVertex
100
AcDb2dVertex
  8
layer_10
 10
-1993.867
 20
8249.532
  0
VERTEX
100
AcDbVertex
100
AcDb2dVertex
  8
layer_10
 10
-1995.306
 20
8319.308
  0
VERTEX
100
AcDbVertex
100
AcDb2dVertex
  8
layer_10
 10
-2002.822
 20
8388.693
  0
VERTEX
100
AcDbVertex
100
AcDb2dVertex
  8
layer_10
 10
-2016.357
 20
8457.159
  0
VERTEX
100
AcDbVertex
100
AcDb2dVertex
  8
layer_10
 10
-2035.807
 20
8524.185
  0
VERTEX
100
AcDbVertex
100
AcDb2dVertex
  8
layer_10
 10
-2038.804
 20
8532.883
  0
VERTEX
100
AcDbVertex
100
AcDb2dVertex
  8
layer_10
 10
-2064.769
 20
8597.664
  0
VERTEX
100
AcDbVertex
100
AcDb2dVertex
  8
layer_10
 10
-2096.281
 20
8659.936
  0
VERTEX
100
AcDbVertex
100
AcDb2dVertex
  8
layer_10
 10
-2133.1
 20
8719.225
  0
VERTEX
100
AcDbVertex
100
AcDb2dVertex
  8
layer_10
 10
-2174.947
 20
8775.078
  0
VERTEX
100
AcDbVertex
100
AcDb2dVertex
  8
layer_10
 10
-2221.502
 20
8827.072
  0
VERTEX
100
AcDbVertex
100
AcDb2dVertex
  8
layer_10
 10
-2272.412
 20
8874.811
  0
VERTEX
100
AcDbVertex
100
AcDb2dVertex
  8
layer_10
 10
-2327.288
 20
8917.931
  0
VERTEX
100
AcDbVertex
100
AcDb2dVertex
  8
layer_10
 10
-2385.714
 20
8956.104
  0
VERTEX
100
AcDbVertex
100
AcDb2dVertex
  8
layer_10
 10
-2447.245
 20
8989.04
  0
VERTEX
100
AcDbVertex
100
AcDb2dVertex
  8
layer_10
 10
-2511.412
 20
9016.487
  0
VERTEX
100
AcDbVertex
100
AcDb2dVertex
  8
layer_10
 10
-2577.727
 20
9038.238
  0
VERTEX
100
AcDbVertex
100
AcDb2dVertex
  8
layer_10
 10
-2645.686
 20
9054.126
  0
VERTEX
100
AcDbVertex
100
AcDb2dVertex
  8
layer_10
 10
-2714.77
 20
9064.03
  0
VERTEX
100
AcDbVertex
100
AcDb2dVertex
  8
layer_10
 10
-2784.455
 20
9067.876
  0
VERTEX
100
AcDbVertex
100
AcDb2dVertex
  8
layer_10
 10
-2793.655
 20
9067.929
  0
VERTEX
100
AcDbVertex
100
AcDb2dVertex
  8
layer_10
 10
-2863.38
 20
9064.885
  0
VERTEX
100
AcDbVertex
100
AcDb2dVertex
  8
layer_10
 10
-2932.574
 20
9055.775
  0
VERTEX
100
AcDbVertex
100
AcDb2dVertex
  8
layer_10
 10
-3000.71
 20
9040.67
  0
VERTEX
100
AcDbVertex
100
AcDb2dVertex
  8
layer_10
 10
-3067.271
 20
9019.683
  0
VERTEX
100
AcDbVertex
100
AcDb2dVertex
  8
layer_10
 10
-3131.75
 20
8992.975
  0
VERTEX
100
AcDbVertex
100
AcDb2dVertex
  8
layer_10
 10
-3193.655
 20
8960.749
  0
VERTEX
100
AcDbVertex
100
AcDb2dVertex
  8
layer_10
 10
-3252.516
 20
8923.251
  0
VERTEX
100
AcDbVertex
100
AcDb2dVertex
  8
layer_10
 10
-3307.885
 20
8880.765
  0
VERTEX
100
AcDbVertex
100
AcDb2dVertex
  8
layer_10
 10
-3359.341
 20
8833.615
  0
VERTEX
100
AcDbVertex
100
AcDb2dVertex
  8
layer_10
 10
-3406.491
 20
8782.159
  0
VERTEX
100
AcDbVertex
100
AcDb2dVertex
  8
layer_10
 10
-3448.977
 20
8726.79
  0
VERTEX
100
AcDbVertex
100
AcDb2dVertex
  8
layer_10
 10
-3486.476
 20
8667.929
  0
VERTEX
100
AcDbVertex
100
AcDb2dVertex
  8
layer_10
 10
-3518.702
 20
8606.024
  0
VERTEX
100
AcDbVertex
100
AcDb2dVertex
  8
layer_10
 10
-3545.409
 20
8541.545
  0
VERTEX
100
AcDbVertex
100
AcDb2dVertex
  8
layer_10
 10
-3548.506
 20
8532.883
  0
VERTEX
100
AcDbVertex
100
AcDb2dVertex
  8
layer_10
 10
-3568.726
 20
8466.085
  0
VERTEX
100
AcDbVertex
100
AcDb2dVertex
  8
layer_10
 10
-3583.047
 20
8397.779
  0
VERTEX
100
AcDbVertex
100
AcDb2dVertex
  8
layer_10
 10
-3591.36
 20
8328.485
  0
VERTEX
100
AcDbVertex
100
AcDb2dVertex
  8
layer_10
 10
-3593.602
 20
8258.73
  0
VERTEX
100
AcDbVertex
100
AcDb2dVertex
  8
layer_10
 10
-3589.756
 20
8189.045
  0
VERTEX
100
AcDbVertex
100
AcDb2dVertex
  8
layer_10
 10
-3579.851
 20
8119.96
  0
VERTEX
100
AcDbVertex
100
AcDb2dVertex
  8
layer_10
 10
-3563.963
 20
8052.002
  0
VERTEX
100
AcDbVertex
100
AcDb2dVertex
  8
layer_10
 10
-3542.213
 20
7985.686
  0
VERTEX
100
AcDbVertex
100
AcDb2dVertex
  8
layer_10
 10
-3514.765
 20
7921.519
  0
VERTEX
100
AcDbVertex
100
AcDb2dVertex
  8
layer_10
 10
-3481.829
 20
7859.988
  0
VERTEX
100
AcDbVertex
100
AcDb2dVertex
  8
layer_10
 10
-3443.656
 20
7801.562
  0
VERTEX
100
AcDbVertex
100
AcDb2dVertex
  8
layer_10
 10
-3400.536
 20
7746.686
  0
VERTEX
100
AcDbVertex
100
AcDb2dVertex
  8
layer_10
 10
-3352.797
 20
7695.776
  0
VERTEX
100
AcDbVertex
100
AcDb2dVertex
  8
layer_10
 10
-3300.803
 20
7649.22
  0
VERTEX
100
AcDbVertex
100
AcDb2dVertex
  8
layer_10
 10
-3293.655
 20
7643.43
  0
VERTEX
100
AcDbVertex
100
AcDb2dVertex
  8
layer_10
 10
-3293.655
 20
643.43
  0
VERTEX
100
AcDbVertex
100
AcDb2dVertex
  8
layer_10
 10
-10293.156
 20
643.43
  0
VERTEX
100
AcDbVertex
100
AcDb2dVertex
  8
layer_10
 10
-10339.11
 20
695.956
  0
VERTEX
100
AcDbVertex
100
AcDb2dVertex
  8
layer_10
 10
-10389.468
 20
744.277
  0
VERTEX
100
AcDbVertex
100
AcDb2dVertex
  8
layer_10
 10
-10443.845
 20
788.025
  0
VERTEX
100
AcDbVertex
100
AcDb2dVertex
  8
layer_10
 10
-10501.828
 20
826.868
  0
VERTEX
100
AcDbVertex
100
AcDb2dVertex
  8
layer_10
 10
-10562.976
 20
860.509
  0
VERTEX
100
AcDbVertex
100
AcDb2dVertex
  8
layer_10
 10
-10626.823
 20
888.693
  0
VERTEX
100
AcDbVertex
100
AcDb2dVertex
  8
layer_10
 10
-10692.884
 20
911.204
  0
VERTEX
100
AcDbVertex
100
AcDb2dVertex
  8
layer_10
 10
-10760.655
 20
927.873
  0
VERTEX
100
AcDbVertex
100
AcDb2dVertex
  8
layer_10
 10
-10829.621
 20
938.572
  0
VERTEX
100
AcDbVertex
100
AcDb2dVertex
  8
layer_10
 10
-10899.257
 20
943.219
  0
VERTEX
100
AcDbVertex
100
AcDb2dVertex
  8
layer_10
 10
-10969.034
 20
941.779
  0
VERTEX
100
AcDbVertex
100
AcDb2dVertex
  8
layer_10
 10
-11038.419
 20
934.263
  0
VERTEX
100
AcDbVertex
100
AcDb2dVertex
  8
layer_10
 10
-11106.885
 20
920.728
  0
VERTEX
100
AcDbVertex
100
AcDb2dVertex
  8
layer_10
 10
-11173.911
 20
901.278
  0
VERTEX
100
AcDbVertex
100
AcDb2dVertex
  8
layer_10
 10
-11182.609
 20
898.281
  0
VERTEX
100
AcDbVertex
100
AcDb2dVertex
  8
layer_10
 10
-11247.39
 20
872.316
  0
VERTEX
100
AcDbVertex
100
AcDb2dVertex
  8
layer_10
 10
-11309.662
 20
840.804
  0
VERTEX
100
AcDbVertex
100
AcDb2dVertex
  8
layer_10
 10
-11368.951
 20
803.985
  0
VERTEX
100
AcDbVertex
100
AcDb2dVertex
  8
layer_10
 10
-11424.805
 20
762.138
  0
VERTEX
100
AcDbVertex
100
AcDb2dVertex
  8
layer_10
 10
-11476.799
 20
715.583
  0
VERTEX
100
AcDbVertex
100
AcDb2dVertex
  8
layer_10
 10
-11524.538
 20
664.673
  0
VERTEX
100
AcDbVertex
100
AcDb2dVertex
  8
layer_10
 10
-11567.658
 20
609.797
  0
VERTEX
100
AcDbVertex
100
AcDb2dVertex
  8
layer_10
 10
-11605.831
 20
551.37
  0
VERTEX
100
AcDbVertex
100
AcDb2dVertex
  8
layer_10
 10
-11638.766
 20
489.84
  0
VERTEX
100
AcDbVertex
100
AcDb2dVertex
  8
layer_10
 10
-11666.214
 20
425.672
  0
VERTEX
100
AcDbVertex
100
AcDb2dVertex
  8
layer_10
 10
-11687.965
 20
359.357
  0
VERTEX
100
AcDbVertex
100
AcDb2dVertex
  8
layer_10
 10
-11703.853
 20
291.399
  0
VERTEX
100
AcDbVertex
100
AcDb2dVertex
  8
layer_10
 10
-11713.757
 20
222.314
  0
VERTEX
100
AcDbVertex
100
AcDb2dVertex
  8
layer_10
 10
-11717.603
 20
152.629
  0
VERTEX
100
AcDbVertex
100
AcDb2dVertex
  8
layer_10
 10
-11717.656
 20
143.43
  0
VERTEX
100
AcDbVertex
100
AcDb2dVertex
  8
layer_10
 10
-11714.612
 20
73.705
  0
VERTEX
100
AcDbVertex
100
AcDb2dVertex
  8
layer_10
 10
-11705.502
 20
4.511
  0
VERTEX
100
AcDbVertex
100
AcDb2dVertex
  8
layer_10
 10
-11690.396
 20
-63.625
  0
VERTEX
100
AcDbVertex
100
AcDb2dVertex
  8
layer_10
 10
-11669.41
 20
-130.186
  0
VERTEX
100
AcDbVertex
100
AcDb2dVertex
  8
layer_10
 10
-11642.702
 20
-194.665
  0
VERTEX
100
AcDbVertex
100
AcDb2dVertex
  8
layer_10
 10
-11610.476
 20
-256.57
  0
VERTEX
100
AcDbVertex
100
AcDb2dVertex
  8
layer_10
 10
-11572.977
 20
-315.432
  0
VERTEX
100
AcDbVertex
100
AcDb2dVertex
  8
layer_10
 10
-11530.491
 20
-370.801
  0
VERTEX
100
AcDbVertex
100
AcDb2dVertex
  8
layer_10
 10
-11483.341
 20
-422.256
  0
VERTEX
100
AcDbVertex
100
AcDb2dVertex
  8
layer_10
 10
-11431.885
 20
-469.406
  0
VERTEX
100
AcDbVertex
100
AcDb2dVertex
  8
layer_10
 10
-11376.516
 20
-511.892
  0
VERTEX
100
AcDbVertex
100
AcDb2dVertex
  8
layer_10
 10
-11317.655
 20
-549.391
  0
VERTEX
100
AcDbVertex
100
AcDb2dVertex
  8
layer_10
 10
-11255.749
 20
-581.617
  0
VERTEX
100
AcDbVertex
100
AcDb2dVertex
  8
layer_10
 10
-11191.271
 20
-608.325
  0
VERTEX
100
AcDbVertex
100
AcDb2dVertex
  8
layer_10
 10
-11182.609
 20
-611.421
  0
VERTEX
100
AcDbVertex
100
AcDb2dVertex
  8
layer_10
 10
-11115.811
 20
-631.641
  0
VERTEX
100
AcDbVertex
100
AcDb2dVertex
  8
layer_10
 10
-11047.505
 20
-645.962
  0
VERTEX
100
AcDbVertex
100
AcDb2dVertex
  8
layer_10
 10
-10978.211
 20
-654.275
  0
VERTEX
100
AcDbVertex
100
AcDb2dVertex
  8
layer_10
 10
-10908.456
 20
-656.517
  0
VERTEX
100
AcDbVertex
100
AcDb2dVertex
  8
layer_10
 10
-10838.771
 20
-652.671
  0
VERTEX
100
AcDbVertex
100
AcDb2dVertex
  8
layer_10
 10
-10769.686
 20
-642.766
  0
VERTEX
100
AcDbVertex
100
AcDb2dVertex
  8
layer_10
 10
-10701.728
 20
-626.878
  0
VERTEX
100
AcDbVertex
100
AcDb2dVertex
  8
layer_10
 10
-10635.412
 20
-605.128
  0
VERTEX
100
AcDbVertex
100
AcDb2dVertex
  8
layer_10
 10
-10571.245
 20
-577.68
  0
VERTEX
100
AcDbVertex
100
AcDb2dVertex
  8
layer_10
 10
-10509.714
 20
-544.744
  0
VERTEX
100
AcDbVertex
100
AcDb2dVertex
  8
layer_10
 10
-10451.288
 20
-506.571
  0
VERTEX
100
AcDbVertex
100
AcDb2dVertex
  8
layer_10
 10
-10396.412
 20
-463.451
  0
VERTEX
100
AcDbVertex
100
AcDb2dVertex
  8
layer_10
 10
-10345.502
 20
-415.712
  0
VERTEX
100
AcDbVertex
100
AcDb2dVertex
  8
layer_10
 10
-10298.947
 20
-363.718
  0
VERTEX
100
AcDbVertex
100
AcDb2dVertex
  8
layer_10
 10
-10293.156
 20
-356.57
  0
VERTEX
100
AcDbVertex
100
AcDb2dVertex
  8
layer_10
 10
-3293.655
 20
-356.57
  0
VERTEX
100
AcDbVertex
100
AcDb2dVertex
  8
layer_10
 10
-3293.655
 20
-1356.57
  0
VERTEX
100
AcDbVertex
100
AcDb2dVertex
  8
layer_10
 10
-2842.227
 20
-2169.259
  0
VERTEX
100
AcDbVertex
100
AcDb2dVertex
  8
layer_10
 10
-2756.512
 20
-2254.973
  0
VERTEX
100
AcDbVertex
100
AcDb2dVertex
  8
layer_10
 10
-2842.227
 20
-2340.687
  0
VERTEX
100
AcDbVertex
100
AcDb2dVertex
  8
layer_10
 10
-2756.512
 20
-2426.401
  0
VERTEX
100
AcDbVertex
100
AcDb2dVertex
  8
layer_10
 10
-2842.227
 20
-2512.116
  0
VERTEX
100
AcDbVertex
100
AcDb2dVertex
  8
layer_10
 10
-2756.512
 20
-2597.83
  0
VERTEX
100
AcDbVertex
100
AcDb2dVertex
  8
layer_10
 10
-2842.227
 20
-2683.544
  0
VERTEX
100
AcDbVertex
100
AcDb2dVertex
  8
layer_10
 10
-2756.512
 20
-2769.259
  0
VERTEX
100
AcDbVertex
100
AcDb2dVertex
  8
layer_10
 10
-2842.227
 20
-2854.973
  0
VERTEX
100
AcDbVertex
100
AcDb2dVertex
  8
layer_10
 10
-2756.512
 20
-2940.687
  0
VERTEX
100
AcDbVertex
100
AcDb2dVertex
  8
layer_10
 10
-2842.227
 20
-3026.401
  0
VERTEX
100
AcDbVertex
100
AcDb2dVertex
  8
layer_10
 10
-2756.512
 20
-3112.116
  0
VERTEX
100
AcDbVertex
100
AcDb2dVertex
  8
layer_10
 10
-2842.227
 20
-3197.83
  0
VERTEX
100
AcDbVertex
100
AcDb2dVertex
  8
layer_10
 10
-2756.512
 20
-3283.544
  0
VERTEX
100
AcDbVertex
100
AcDb2dVertex
  8
layer_10
 10
-2842.227
 20
-3369.258
  0
VERTEX
100
AcDbVertex
100
AcDb2dVertex
  8
layer_10
 10
-2756.512
 20
-3454.973
  0
VERTEX
100
AcDbVertex
100
AcDb2dVertex
  8
layer_10
 10
-2842.227
 20
-3540.687
  0
VERTEX
100
AcDbVertex
100
AcDb2dVertex
  8
layer_10
 10
-2756.512
 20
-3626.401
  0
VERTEX
100
AcDbVertex
100
AcDb2dVertex
  8
layer_10
 10
-2842.227
 20
-3712.116
  0
VERTEX
100
AcDbVertex
100
AcDb2dVertex
  8
layer_10
 10
-2756.512
 20
-3797.83
  0
VERTEX
100
AcDbVertex
100
AcDb2dVertex
  8
layer_10
 10
-2842.227
 20
-3883.544
  0
VERTEX
100
AcDbVertex
100
AcDb2dVertex
  8
layer_10
 10
-2756.512
 20
-3969.258
  0
VERTEX
100
AcDbVertex
100
AcDb2dVertex
  8
layer_10
 10
-2842.227
 20
-4054.973
  0
VERTEX
100
AcDbVertex
100
AcDb2dVertex
  8
layer_10
 10
-2756.512
 20
-4140.687
  0
VERTEX
100
AcDbVertex
100
AcDb2dVertex
  8
layer_10
 10
-2842.227
 20
-4226.401
  0
VERTEX
100
AcDbVertex
100
AcDb2dVertex
  8
layer_10
 10
-2756.512
 20
-4312.116
  0
VERTEX
100
AcDbVertex
100
AcDb2dVertex
  8
layer_10
 10
-2842.227
 20
-4397.83
  0
VERTEX
100
AcDbVertex
100
AcDb2dVertex
  8
layer_10
 10
-2756.512
 20
-4483.544
  0
VERTEX
100
AcDbVertex
100
AcDb2dVertex
  8
layer_10
 10
-2842.227
 20
-4569.258
  0
VERTEX
100
AcDbVertex
100
AcDb2dVertex
  8
layer_10
 10
-2756.512
 20
-4654.973
  0
VERTEX
100
AcDbVertex
100
AcDb2dVertex
  8
layer_10
 10
-2842.227
 20
-4740.687
  0
VERTEX
100
AcDbVertex
100
AcDb2dVertex
  8
layer_10
 10
-2756.512
 20
-4826.401
  0
VERTEX
100
AcDbVertex
100
AcDb2dVertex
  8
layer_10
 10
-2842.227
 20
-4912.115
  0
VERTEX
100
AcDbVertex
100
AcDb2dVertex
  8
layer_10
 10
-2756.512
 20
-4997.83
  0
VERTEX
100
AcDbVertex
100
AcDb2dVertex
  8
layer_10
 10
-2842.227
 20
-5083.544
  0
VERTEX
100
AcDbVertex
100
AcDb2dVertex
  8
layer_10
 10
-2756.512
 20
-5169.258
  0
VERTEX
100
AcDbVertex
100
AcDb2dVertex
  8
layer_10
 10
-2842.227
 20
-5254.973
  0
VERTEX
100
AcDbVertex
100
AcDb2dVertex
  8
layer_10
 10
-2756.512
 20
-5340.687
  0
VERTEX
100
AcDbVertex
100
AcDb2dVertex
  8
layer_10
 10
-2842.227
 20
-5426.401
  0
VERTEX
100
AcDbVertex
100
AcDb2dVertex
  8
layer_10
 10
-2756.512
 20
-5512.115
  0
VERTEX
100
AcDbVertex
100
AcDb2dVertex
  8
layer_10
 10
-2842.227
 20
-5597.83
  0
VERTEX
100
AcDbVertex
100
AcDb2dVertex
  8
layer_10
 10
-2756.512
 20
-5683.544
  0
VERTEX
100
AcDbVertex
100
AcDb2dVertex
  8
layer_10
 10
-2842.227
 20
-5769.258
  0
VERTEX
100
AcDbVertex
100
AcDb2dVertex
  8
layer_10
 10
-2756.512
 20
-5854.973
  0
VERTEX
100
AcDbVertex
100
AcDb2dVertex
  8
layer_10
 10
-2842.227
 20
-5940.687
  0
VERTEX
100
AcDbVertex
100
AcDb2dVertex
  8
layer_10
 10
-2756.512
 20
-6026.401
  0
VERTEX
100
AcDbVertex
100
AcDb2dVertex
  8
layer_10
 10
-2842.227
 20
-6112.115
  0
VERTEX
100
AcDbVertex
100
AcDb2dVertex
  8
layer_10
 10
-2756.512
 20
-6197.83
  0
VERTEX
100
AcDbVertex
100
AcDb2dVertex
  8
layer_10
 10
-2842.227
 20
-6283.544
  0
VERTEX
100
AcDbVertex
100
AcDb2dVertex
  8
layer_10
 10
-2756.512
 20
-6369.258
  0
VERTEX
100
AcDbVertex
100
AcDb2dVertex
  8
layer_10
 10
-2842.227
 20
-6454.972
  0
VERTEX
100
AcDbVertex
100
AcDb2dVertex
  8
layer_10
 10
-2756.512
 20
-6540.687
  0
VERTEX
100
AcDbVertex
100
AcDb2dVertex
  8
layer_10
 10
-2842.227
 20
-6626.401
  0
VERTEX
100
AcDbVertex
100
AcDb2dVertex
  8
layer_10
 10
-2756.512
 20
-6712.115
  0
VERTEX
100
AcDbVertex
100
AcDb2dVertex
  8
layer_10
 10
-2842.227
 20
-6797.83
  0
VERTEX
100
AcDbVertex
100
AcDb2dVertex
  8
layer_10
 10
-2756.512
 20
-6883.544
  0
VERTEX
100
AcDbVertex
100
AcDb2dVertex
  8
layer_10
 10
-2842.227
 20
-6969.258
  0
VERTEX
100
AcDbVertex
100
AcDb2dVertex
  8
layer_10
 10
-2628.372
 20
-7183.113
  0
VERTEX
100
AcDbVertex
100
AcDb2dVertex
  8
layer_10
 10
-2414.517
 20
-6969.258
  0
VERTEX
100
AcDbVertex
100
AcDb2dVertex
  8
layer_10
 10
-2500.231
 20
-6883.544
  0
VERTEX
100
AcDbVertex
100
AcDb2dVertex
  8
layer_10
 10
-2414.517
 20
-6797.83
  0
VERTEX
100
AcDbVertex
100
AcDb2dVertex
  8
layer_10
 10
-2500.231
 20
-6712.115
  0
VERTEX
100
AcDbVertex
100
AcDb2dVertex
  8
layer_10
 10
-2414.517
 20
-6626.401
  0
VERTEX
100
AcDbVertex
100
AcDb2dVertex
  8
layer_10
 10
-2500.231
 20
-6540.687
  0
VERTEX
100
AcDbVertex
100
AcDb2dVertex
  8
layer_10
 10
-2414.517
 20
-6454.972
  0
VERTEX
100
AcDbVertex
100
AcDb2dVertex
  8
layer_10
 10
-2500.231
 20
-6369.258
  0
VERTEX
100
AcDbVertex
100
AcDb2dVertex
  8
layer_10
 10
-2414.517
 20
-6283.544
  0
VERTEX
100
AcDbVertex
100
AcDb2dVertex
  8
layer_10
 10
-2500.231
 20
-6197.83
  0
VERTEX
100
AcDbVertex
100
AcDb2dVertex
  8
layer_10
 10
-2414.517
 20
-6112.115
  0
VERTEX
100
AcDbVertex
100
AcDb2dVertex
  8
layer_10
 10
-2500.231
 20
-6026.401
  0
VERTEX
100
AcDbVertex
100
AcDb2dVertex
  8
layer_10
 10
-2414.517
 20
-5940.687
  0
VERTEX
100
AcDbVertex
100
AcDb2dVertex
  8
layer_10
 10
-2500.231
 20
-5854.973
  0
VERTEX
100
AcDbVertex
100
AcDb2dVertex
  8
layer_10
 10
-2414.517
 20
-5769.258
  0
VERTEX
100
AcDbVertex
100
AcDb2dVertex
  8
layer_10
 10
-2500.231
 20
-5683.544
  0
VERTEX
100
AcDbVertex
100
AcDb2dVertex
  8
layer_10
 10
-2414.517
 20
-5597.83
  0
VERTEX
100
AcDbVertex
100
AcDb2dVertex
  8
layer_10
 10
-2500.231
 20
-5512.115
  0
VERTEX
100
AcDbVertex
100
AcDb2dVertex
  8
layer_10
 10
-2414.517
 20
-5426.401
  0
VERTEX
100
AcDbVertex
100
AcDb2dVertex
  8
layer_10
 10
-2500.231
 20
-5340.687
  0
VERTEX
100
AcDbVertex
100
AcDb2dVertex
  8
layer_10
 10
-2414.517
 20
-5254.973
  0
VERTEX
100
AcDbVertex
100
AcDb2dVertex
  8
layer_10
 10
-2500.231
 20
-5169.258
  0
VERTEX
100
AcDbVertex
100
AcDb2dVertex
  8
layer_10
 10
-2414.517
 20
-5083.544
  0
VERTEX
100
AcDbVertex
100
AcDb2dVertex
  8
layer_10
 10
-2500.231
 20
-4997.83
  0
VERTEX
100
AcDbVertex
100
AcDb2dVertex
  8
layer_10
 10
-2414.517
 20
-4912.115
  0
VERTEX
100
AcDbVertex
100
AcDb2dVertex
  8
layer_10
 10
-2500.231
 20
-4826.401
  0
VERTEX
100
AcDbVertex
100
AcDb2dVertex
  8
layer_10
 10
-2414.517
 20
-4740.687
  0
VERTEX
100
AcDbVertex
100
AcDb2dVertex
  8
layer_10
 10
-2500.231
 20
-4654.973
  0
VERTEX
100
AcDbVertex
100
AcDb2dVertex
  8
layer_10
 10
-2414.517
 20
-4569.258
  0
VERTEX
100
AcDbVertex
100
AcDb2dVertex
  8
layer_10
 10
-2500.231
 20
-4483.544
  0
VERTEX
100
AcDbVertex
100
AcDb2dVertex
  8
layer_10
 10
-2414.517
 20
-4397.83
  0
VERTEX
100
AcDbVertex
100
AcDb2dVertex
  8
layer_10
 10
-2500.231
 20
-4312.116
  0
VERTEX
100
AcDbVertex
100
AcDb2dVertex
  8
layer_10
 10
-2414.517
 20
-4226.401
  0
VERTEX
100
AcDbVertex
100
AcDb2dVertex
  8
layer_10
 10
-2500.231
 20
-4140.687
  0
VERTEX
100
AcDbVertex
100
AcDb2dVertex
  8
layer_10
 10
-2414.517
 20
-4054.973
  0
VERTEX
100
AcDbVertex
100
AcDb2dVertex
  8
layer_10
 10
-2500.231
 20
-3969.258
  0
VERTEX
100
AcDbVertex
100
AcDb2dVertex
  8
layer_10
 10
-2414.517
 20
-3883.544
  0
VERTEX
100
AcDbVertex
100
AcDb2dVertex
  8
layer_10
 10
-2500.231
 20
-3797.83
  0
VERTEX
100
AcDbVertex
100
AcDb2dVertex
  8
layer_10
 10
-2414.517
 20
-3712.116
  0
VERTEX
100
AcDbVertex
100
AcDb2dVertex
  8
layer_10
 10
-2500.231
 20
-3626.401
  0
VERTEX
100
AcDbVertex
100
AcDb2dVertex
  8
layer_10
 10
-2414.517
 20
-3540.687
  0
VERTEX
100
AcDbVertex
100
AcDb2dVertex
  8
layer_10
 10
-2500.231
 20
-3454.973
  0
VERTEX
100
AcDbVertex
100
AcDb2dVertex
  8
layer_10
 10
-2414.517
 20
-3369.258
  0
VERTEX
100
AcDbVertex
100
AcDb2dVertex
  8
layer_10
 10
-2500.231
 20
-3283.544
  0
VERTEX
100
AcDbVertex
100
AcDb2dVertex
  8
layer_10
 10
-2414.517
 20
-3197.83
  0
VERTEX
100
AcDbVertex
100
AcDb2dVertex
  8
layer_10
 10
-2500.231
 20
-3112.116
  0
VERTEX
100
AcDbVertex
100
AcDb2dVertex
  8
layer_10
 10
-2414.517
 20
-3026.401
  0
VERTEX
100
AcDbVertex
100
AcDb2dVertex
  8
layer_10
 10
-2500.231
 20
-2940.687
  0
VERTEX
100
AcDbVertex
100
AcDb2dVertex
  8
layer_10
 10
-2414.517
 20
-2854.973
  0
VERTEX
100
AcDbVertex
100
AcDb2dVertex
  8
layer_10
 10
-2500.231
 20
-2769.259
  0
VERTEX
100
AcDbVertex
100
AcDb2dVertex
  8
layer_10
 10
-2414.517
 20
-2683.544
  0
VERTEX
100
AcDbVertex
100
AcDb2dVertex
  8
layer_10
 10
-2500.231
 20
-2597.83
  0
VERTEX
100
AcDbVertex
100
AcDb2dVertex
  8
layer_10
 10
-2414.517
 20
-2512.116
  0
VERTEX
100
AcDbVertex
100
AcDb2dVertex
  8
layer_10
 10
-2500.231
 20
-2426.401
  0
VERTEX
100
AcDbVertex
100
AcDb2dVertex
  8
layer_10
 10
-2328.802
 20
-2254.973
  0
VERTEX
100
AcDbVertex
100
AcDb2dVertex
  8
layer_10
 10
-2157.374
 20
-2426.401
  0
VERTEX
100
AcDbVertex
100
AcDb2dVertex
  8
layer_10
 10
-2243.088
 20
-2512.116
  0
VERTEX
100
AcDbVertex
100
AcDb2dVertex
  8
layer_10
 10
-2157.374
 20
-2597.83
  0
VERTEX
100
AcDbVertex
100
AcDb2dVertex
  8
layer_10
 10
-2243.088
 20
-2683.544
  0
VERTEX
100
AcDbVertex
100
AcDb2dVertex
  8
layer_10
 10
-2157.374
 20
-2769.259
  0
VERTEX
100
AcDbVertex
100
AcDb2dVertex
  8
layer_10
 10
-2243.088
 20
-2854.973
  0
VERTEX
100
AcDbVertex
100
AcDb2dVertex
  8
layer_10
 10
-2157.374
 20
-2940.687
  0
VERTEX
100
AcDbVertex
100
AcDb2dVertex
  8
layer_10
 10
-2243.088
 20
-3026.401
  0
VERTEX
100
AcDbVertex
100
AcDb2dVertex
  8
layer_10
 10
-2157.374
 20
-3112.116
  0
VERTEX
100
AcDbVertex
100
AcDb2dVertex
  8
layer_10
 10
-2243.088
 20
-3197.83
  0
VERTEX
100
AcDbVertex
100
AcDb2dVertex
  8
layer_10
 10
-2157.374
 20
-3283.544
  0
VERTEX
100
AcDbVertex
100
AcDb2dVertex
  8
layer_10
 10
-2243.088
 20
-3369.258
  0
VERTEX
100
AcDbVertex
100
AcDb2dVertex
  8
layer_10
 10
-2157.374
 20
-3454.973
  0
VERTEX
100
AcDbVertex
100
AcDb2dVertex
  8
layer_10
 10
-2243.088
 20
-3540.687
  0
VERTEX
100
AcDbVertex
100
AcDb2dVertex
  8
layer_10
 10
-2157.374
 20
-3626.401
  0
VERTEX
100
AcDbVertex
100
AcDb2dVertex
  8
layer_10
 10
-2243.088
 20
-3712.116
  0
VERTEX
100
AcDbVertex
100
AcDb2dVertex
  8
layer_10
 10
-2157.374
 20
-3797.83
  0
VERTEX
100
AcDbVertex
100
AcDb2dVertex
  8
layer_10
 10
-2243.088
 20
-3883.544
  0
VERTEX
100
AcDbVertex
100
AcDb2dVertex
  8
layer_10
 10
-2157.374
 20
-3969.258
  0
VERTEX
100
AcDbVertex
100
AcDb2dVertex
  8
layer_10
 10
-2243.088
 20
-4054.973
  0
VERTEX
100
AcDbVertex
100
AcDb2dVertex
  8
layer_10
 10
-2157.374
 20
-4140.687
  0
VERTEX
100
AcDbVertex
100
AcDb2dVertex
  8
layer_10
 10
-2243.088
 20
-4226.401
  0
VERTEX
100
AcDbVertex
100
AcDb2dVertex
  8
layer_10
 10
-2157.374
 20
-4312.116
  0
VERTEX
100
AcDbVertex
100
AcDb2dVertex
  8
layer_10
 10
-2243.088
 20
-4397.83
  0
VERTEX
100
AcDbVertex
100
AcDb2dVertex
  8
layer_10
 10
-2157.374
 20
-4483.544
  0
VERTEX
100
AcDbVertex
100
AcDb2dVertex
  8
layer_10
 10
-2243.088
 20
-4569.258
  0
VERTEX
100
AcDbVertex
100
AcDb2dVertex
  8
layer_10
 10
-2157.374
 20
-4654.973
  0
VERTEX
100
AcDbVertex
100
AcDb2dVertex
  8
layer_10
 10
-2243.088
 20
-4740.687
  0
VERTEX
100
AcDbVertex
100
AcDb2dVertex
  8
layer_10
 10
-2157.374
 20
-4826.401
  0
VERTEX
100
AcDbVertex
100
AcDb2dVertex
  8
layer_10
 10
-2243.088
 20
-4912.115
  0
VERTEX
100
AcDbVertex
100
AcDb2dVertex
  8
layer_10
 10
-2157.374
 20
-4997.83
  0
VERTEX
100
AcDbVertex
100
AcDb2dVertex
  8
layer_10
 10
-2243.088
 20
-5083.544
  0
VERTEX
100
AcDbVertex
100
AcDb2dVertex
  8
layer_10
 10
-2157.374
 20
-5169.258
  0
VERTEX
100
AcDbVertex
100
AcDb2dVertex
  8
layer_10
 10
-2243.088
 20
-5254.973
  0
VERTEX
100
AcDbVertex
100
AcDb2dVertex
  8
layer_10
 10
-2157.374
 20
-5340.687
  0
VERTEX
100
AcDbVertex
100
AcDb2dVertex
  8
layer_10
 10
-2243.088
 20
-5426.401
  0
VERTEX
100
AcDbVertex
100
AcDb2dVertex
  8
layer_10
 10
-2157.374
 20
-5512.115
  0
VERTEX
100
AcDbVertex
100
AcDb2dVertex
  8
layer_10
 10
-2243.088
 20
-5597.83
  0
VERTEX
100
AcDbVertex
100
AcDb2dVertex
  8
layer_10
 10
-2157.374
 20
-5683.544
  0
VERTEX
100
AcDbVertex
100
AcDb2dVertex
  8
layer_10
 10
-2243.088
 20
-5769.258
  0
VERTEX
100
AcDbVertex
100
AcDb2dVertex
  8
layer_10
 10
-2157.374
 20
-5854.973
  0
VERTEX
100
AcDbVertex
100
AcDb2dVertex
  8
layer_10
 10
-2243.088
 20
-5940.687
  0
VERTEX
100
AcDbVertex
100
AcDb2dVertex
  8
layer_10
 10
-2157.374
 20
-6026.401
  0
VERTEX
100
AcDbVertex
100
AcDb2dVertex
  8
layer_10
 10
-2243.088
 20
-6112.115
  0
VERTEX
100
AcDbVertex
100
AcDb2dVertex
  8
layer_10
 10
-2157.374
 20
-6197.83
  0
VERTEX
100
AcDbVertex
100
AcDb2dVertex
  8
layer_10
 10
-2243.088
 20
-6283.544
  0
VERTEX
100
AcDbVertex
100
AcDb2dVertex
  8
layer_10
 10
-2157.374
 20
-6369.258
  0
VERTEX
100
AcDbVertex
100
AcDb2dVertex
  8
layer_10
 10
-2243.088
 20
-6454.972
  0
VERTEX
100
AcDbVertex
100
AcDb2dVertex
  8
layer_10
 10
-2157.374
 20
-6540.687
  0
VERTEX
100
AcDbVertex
100
AcDb2dVertex
  8
layer_10
 10
-2243.088
 20
-6626.401
  0
VERTEX
100
AcDbVertex
100
AcDb2dVertex
  8
layer_10
 10
-2157.374
 20
-6712.115
  0
VERTEX
100
AcDbVertex
100
AcDb2dVertex
  8
layer_10
 10
-2243.088
 20
-6797.83
  0
VERTEX
100
AcDbVertex
100
AcDb2dVertex
  8
layer_10
 10
-2157.374
 20
-6883.544
  0
VERTEX
100
AcDbVertex
100
AcDb2dVertex
  8
layer_10
 10
-2243.088
 20
-6969.258
  0
VERTEX
100
AcDbVertex
100
AcDb2dVertex
  8
layer_10
 10
-2243.088
 20
-7202.996
  0
VERTEX
100
AcDbVertex
100
AcDb2dVertex
  8
layer_10
 10
-2694.517
 20
-7927.816
  0
VERTEX
100
AcDbVertex
100
AcDb2dVertex
  8
layer_10
 10
-2694.517
 20
-9727.816
  0
VERTEX
100
AcDbVertex
100
AcDb2dVertex
  8
layer_10
 10
-2747.043
 20
-9773.77
  0
VERTEX
100
AcDbVertex
100
AcDb2dVertex
  8
layer_10
 10
-2795.364
 20
-9824.128
  0
VERTEX
100
AcDbVertex
100
AcDb2dVertex
  8
layer_10
 10
-2839.112
 20
-9878.505
  0
VERTEX
100
AcDbVertex
100
AcDb2dVertex
  8
layer_10
 10
-2877.955
 20
-9936.488
  0
VERTEX
100
AcDbVertex
100
AcDb2dVertex
  8
layer_10
 10
-2911.596
 20
-9997.636
  0
VERTEX
100
AcDbVertex
100
AcDb2dVertex
  8
layer_10
 10
-2939.779
 20
-10061.483
  0
VERTEX
100
AcDbVertex
100
AcDb2dVertex
  8
layer_10
 10
-2962.291
 20
-10127.544
  0
VERTEX
100
AcDbVertex
100
AcDb2dVertex
  8
layer_10
 10
-2978.959
 20
-10195.315
  0
VERTEX
100
AcDbVertex
100
AcDb2dVertex
  8
layer_10
 10
-2989.658
 20
-10264.282
  0
VERTEX
100
AcDbVertex
100
AcDb2dVertex
  8
layer_10
 10
-2994.305
 20
-10333.918
  0
VERTEX
100
AcDbVertex
100
AcDb2dVertex
  8
layer_10
 10
-2992.865
 20
-10403.694
  0
VERTEX
100
AcDbVertex
100
AcDb2dVertex
  8
layer_10
 10
-2985.349
 20
-10473.079
  0
VERTEX
100
AcDbVertex
100
AcDb2dVertex
  8
layer_10
 10
-2971.814
 20
-10541.545
  0
VERTEX
100
AcDbVertex
100
AcDb2dVertex
  8
layer_10
 10
-2952.364
 20
-10608.571
  0
VERTEX
100
AcDbVertex
100
AcDb2dVertex
  8
layer_10
 10
-2949.367
 20
-10617.269
  0
VERTEX
100
AcDbVertex
100
AcDb2dVertex
  8
layer_10
 10
-2923.402
 20
-10682.05
  0
VERTEX
100
AcDbVertex
100
AcDb2dVertex
  8
layer_10
 10
-2891.891
 20
-10744.322
  0
VERTEX
100
AcDbVertex
100
AcDb2dVertex
  8
layer_10
 10
-2855.071
 20
-10803.611
  0
VERTEX
100
AcDbVertex
100
AcDb2dVertex
  8
layer_10
 10
-2813.225
 20
-10859.465
  0
VERTEX
100
AcDbVertex
100
AcDb2dVertex
  8
layer_10
 10
-2766.669
 20
-10911.459
  0
VERTEX
100
AcDbVertex
100
AcDb2dVertex
  8
layer_10
 10
-2715.76
 20
-10959.198
  0
VERTEX
100
AcDbVertex
100
AcDb2dVertex
  8
layer_10
 10
-2660.883
 20
-11002.318
  0
VERTEX
100
AcDbVertex
100
AcDb2dVertex
  8
layer_10
 10
-2602.457
 20
-11040.491
  0
VERTEX
100
AcDbVertex
100
AcDb2dVertex
  8
layer_10
 10
-2540.926
 20
-11073.426
  0
VERTEX
100
AcDbVertex
100
AcDb2dVertex
  8
layer_10
 10
-2476.759
 20
-11100.874
  0
VERTEX
100
AcDbVertex
100
AcDb2dVertex
  8
layer_10
 10
-2410.444
 20
-11122.624
  0
VERTEX
100
AcDbVertex
100
AcDb2dVertex
  8
layer_10
 10
-2342.485
 20
-11138.513
  0
VERTEX
100
AcDbVertex
100
AcDb2dVertex
  8
layer_10
 10
-2273.401
 20
-11148.417
  0
VERTEX
100
AcDbVertex
100
AcDb2dVertex
  8
layer_10
 10
-2203.716
 20
-11152.263
  0
VERTEX
100
AcDbVertex
100
AcDb2dVertex
  8
layer_10
 10
-2194.517
 20
-11152.316
  0
VERTEX
100
AcDbVertex
100
AcDb2dVertex
  8
layer_10
 10
-2124.792
 20
-11149.272
  0
VERTEX
100
AcDbVertex
100
AcDb2dVertex
  8
layer_10
 10
-2055.598
 20
-11140.162
  0
VERTEX
100
AcDbVertex
100
AcDb2dVertex
  8
layer_10
 10
-1987.462
 20
-11125.057
  0
VERTEX
100
AcDbVertex
100
AcDb2dVertex
  8
layer_10
 10
-1920.901
 20
-11104.07
  0
VERTEX
100
AcDbVertex
100
AcDb2dVertex
  8
layer_10
 10
-1856.422
 20
-11077.362
  0
VERTEX
100
AcDbVertex
100
AcDb2dVertex
  8
layer_10
 10
-1794.517
 20
-11045.136
  0
VERTEX
100
AcDbVertex
100
AcDb2dVertex
  8
layer_10
 10
-1735.655
 20
-11007.637
  0
VERTEX
100
AcDbVertex
100
AcDb2dVertex
  8
layer_10
 10
-1680.286
 20
-10965.151
  0
VERTEX
100
AcDbVertex
100
AcDb2dVertex
  8
layer_10
 10
-1628.831
 20
-10918.001
  0
VERTEX
100
AcDbVertex
100
AcDb2dVertex
  8
layer_10
 10
-1581.681
 20
-10866.545
  0
VERTEX
100
AcDbVertex
100
AcDb2dVertex
  8
layer_10
 10
-1539.195
 20
-10811.176
  0
VERTEX
100
AcDbVertex
100
AcDb2dVertex
  8
layer_10
 10
-1501.696
 20
-10752.315
  0
VERTEX
100
AcDbVertex
100
AcDb2dVertex
  8
layer_10
 10
-1469.47
 20
-10690.41
  0
VERTEX
100
AcDbVertex
100
AcDb2dVertex
  8
layer_10
 10
-1442.763
 20
-10625.931
  0
VERTEX
100
AcDbVertex
100
AcDb2dVertex
  8
layer_10
 10
-1439.666
 20
-10617.269
  0
VERTEX
100
AcDbVertex
100
AcDb2dVertex
  8
layer_10
 10
-1419.446
 20
-10550.471
  0
VERTEX
100
AcDbVertex
100
AcDb2dVertex
  8
layer_10
 10
-1405.125
 20
-10482.165
  0
VERTEX
100
AcDbVertex
100
AcDb2dVertex
  8
layer_10
 10
-1396.812
 20
-10412.871
  0
VERTEX
100
AcDbVertex
100
AcDb2dVertex
  8
layer_10
 10
-1394.57
 20
-10343.116
  0
VERTEX
100
AcDbVertex
100
AcDb2dVertex
  8
layer_10
 10
-1398.415
 20
-10273.431
  0
VERTEX
100
AcDbVertex
100
AcDb2dVertex
  8
layer_10
 10
-1408.32
 20
-10204.346
  0
VERTEX
100
AcDbVertex
100
AcDb2dVertex
  8
layer_10
 10
-1424.208
 20
-10136.388
  0
VERTEX
100
AcDbVertex
100
AcDb2dVertex
  8
layer_10
 10
-1445.959
 20
-10070.073
  0
VERTEX
100
AcDbVertex
100
AcDb2dVertex
  8
layer_10
 10
-1473.406
 20
-10005.906
  0
VERTEX
100
AcDbVertex
100
AcDb2dVertex
  8
layer_10
 10
-1506.342
 20
-9944.375
  0
VERTEX
100
AcDbVertex
100
AcDb2dVertex
  8
layer_10
 10
-1544.515
 20
-9885.949
  0
VERTEX
100
AcDbVertex
100
AcDb2dVertex
  8
layer_10
 10
-1587.635
 20
-9831.072
  0
VERTEX
100
AcDbVertex
100
AcDb2dVertex
  8
layer_10
 10
-1635.374
 20
-9780.162
  0
VERTEX
100
AcDbVertex
100
AcDb2dVertex
  8
layer_10
 10
-1687.368
 20
-9733.607
  0
VERTEX
100
AcDbVertex
100
AcDb2dVertex
  8
layer_10
 10
-1694.516
 20
-9727.816
  0
VERTEX
100
AcDbVertex
100
AcDb2dVertex
  8
layer_10
 10
-1694.517
 20
-7927.816
  0
VERTEX
100
AcDbVertex
100
AcDb2dVertex
  8
layer_10
 10
-2200.662
 20
-7202.996
  0
VERTEX
100
AcDbVertex
100
AcDb2dVertex
  8
layer_10
 10
-2200.662
 20
-6969.258
  0
VERTEX
100
AcDbVertex
100
AcDb2dVertex
  8
layer_10
 10
-2114.947
 20
-6883.544
  0
VERTEX
100
AcDbVertex
100
AcDb2dVertex
  8
layer_10
 10
-2200.662
 20
-6797.83
  0
VERTEX
100
AcDbVertex
100
AcDb2dVertex
  8
layer_10
 10
-2114.947
 20
-6712.115
  0
VERTEX
100
AcDbVertex
100
AcDb2dVertex
  8
layer_10
 10
-2200.662
 20
-6626.401
  0
VERTEX
100
AcDbVertex
100
AcDb2dVertex
  8
layer_10
 10
-2114.947
 20
-6540.687
  0
VERTEX
100
AcDbVertex
100
AcDb2dVertex
  8
layer_10
 10
-2200.662
 20
-6454.972
  0
VERTEX
100
AcDbVertex
100
AcDb2dVertex
  8
layer_10
 10
-2114.947
 20
-6369.258
  0
VERTEX
100
AcDbVertex
100
AcDb2dVertex
  8
layer_10
 10
-2200.662
 20
-6283.544
  0
VERTEX
100
AcDbVertex
100
AcDb2dVertex
  8
layer_10
 10
-2114.947
 20
-6197.83
  0
VERTEX
100
AcDbVertex
100
AcDb2dVertex
  8
layer_10
 10
-2200.662
 20
-6112.115
  0
VERTEX
100
AcDbVertex
100
AcDb2dVertex
  8
layer_10
 10
-2114.947
 20
-6026.401
  0
VERTEX
100
AcDbVertex
100
AcDb2dVertex
  8
layer_10
 10
-2200.662
 20
-5940.687
  0
VERTEX
100
AcDbVertex
100
AcDb2dVertex
  8
layer_10
 10
-2114.947
 20
-5854.973
  0
VERTEX
100
AcDbVertex
100
AcDb2dVertex
  8
layer_10
 10
-2200.662
 20
-5769.258
  0
VERTEX
100
AcDbVertex
100
AcDb2dVertex
  8
layer_10
 10
-2114.947
 20
-5683.544
  0
VERTEX
100
AcDbVertex
100
AcDb2dVertex
  8
layer_10
 10
-2200.662
 20
-5597.83
  0
VERTEX
100
AcDbVertex
100
AcDb2dVertex
  8
layer_10
 10
-2114.947
 20
-5512.115
  0
VERTEX
100
AcDbVertex
100
AcDb2dVertex
  8
layer_10
 10
-2200.662
 20
-5426.401
  0
VERTEX
100
AcDbVertex
100
AcDb2dVertex
  8
layer_10
 10
-2114.947
 20
-5340.687
  0
VERTEX
100
AcDbVertex
100
AcDb2dVertex
  8
layer_10
 10
-2200.662
 20
-5254.973
  0
VERTEX
100
AcDbVertex
100
AcDb2dVertex
  8
layer_10
 10
-2114.947
 20
-5169.258
  0
VERTEX
100
AcDbVertex
100
AcDb2dVertex
  8
layer_10
 10
-2200.662
 20
-5083.544
  0
VERTEX
100
AcDbVertex
100
AcDb2dVertex
  8
layer_10
 10
-2114.947
 20
-4997.83
  0
VERTEX
100
AcDbVertex
100
AcDb2dVertex
  8
layer_10
 10
-2200.662
 20
-4912.115
  0
VERTEX
100
AcDbVertex
100
AcDb2dVertex
  8
layer_10
 10
-2114.947
 20
-4826.401
  0
VERTEX
100
AcDbVertex
100
AcDb2dVertex
  8
layer_10
 10
-2200.662
 20
-4740.687
  0
VERTEX
100
AcDbVertex
100
AcDb2dVertex
  8
layer_10
 10
-2114.947
 20
-4654.973
  0
VERTEX
100
AcDbVertex
100
AcDb2dVertex
  8
layer_10
 10
-2200.662
 20
-4569.258
  0
VERTEX
100
AcDbVertex
100
AcDb2dVertex
  8
layer_10
 10
-2114.947
 20
-4483.544
  0
VERTEX
100
AcDbVertex
100
AcDb2dVertex
  8
layer_10
 10
-2200.662
 20
-4397.83
  0
VERTEX
100
AcDbVertex
100
AcDb2dVertex
  8
layer_10
 10
-2114.947
 20
-4312.116
  0
VERTEX
100
AcDbVertex
100
AcDb2dVertex
  8
layer_10
 10
-2200.662
 20
-4226.401
  0
VERTEX
100
AcDbVertex
100
AcDb2dVertex
  8
layer_10
 10
-2114.947
 20
-4140.687
  0
VERTEX
100
AcDbVertex
100
AcDb2dVertex
  8
layer_10
 10
-2200.662
 20
-4054.973
  0
VERTEX
100
AcDbVertex
100
AcDb2dVertex
  8
layer_10
 10
-2114.947
 20
-3969.258
  0
VERTEX
100
AcDbVertex
100
AcDb2dVertex
  8
layer_10
 10
-2200.662
 20
-3883.544
  0
VERTEX
100
AcDbVertex
100
AcDb2dVertex
  8
layer_10
 10
-2114.947
 20
-3797.83
  0
VERTEX
100
AcDbVertex
100
AcDb2dVertex
  8
layer_10
 10
-2200.662
 20
-3712.116
  0
VERTEX
100
AcDbVertex
100
AcDb2dVertex
  8
layer_10
 10
-2114.947
 20
-3626.401
  0
VERTEX
100
AcDbVertex
100
AcDb2dVertex
  8
layer_10
 10
-2200.662
 20
-3540.687
  0
VERTEX
100
AcDbVertex
100
AcDb2dVertex
  8
layer_10
 10
-2114.947
 20
-3454.973
  0
VERTEX
100
AcDbVertex
100
AcDb2dVertex
  8
layer_10
 10
-2200.662
 20
-3369.258
  0
VERTEX
100
AcDbVertex
100
AcDb2dVertex
  8
layer_10
 10
-2114.947
 20
-3283.544
  0
VERTEX
100
AcDbVertex
100
AcDb2dVertex
  8
layer_10
 10
-2200.662
 20
-3197.83
  0
VERTEX
100
AcDbVertex
100
AcDb2dVertex
  8
layer_10
 10
-2114.947
 20
-3112.116
  0
VERTEX
100
AcDbVertex
100
AcDb2dVertex
  8
layer_10
 10
-2200.662
 20
-3026.401
  0
VERTEX
100
AcDbVertex
100
AcDb2dVertex
  8
layer_10
 10
-2114.947
 20
-2940.687
  0
VERTEX
100
AcDbVertex
100
AcDb2dVertex
  8
layer_10
 10
-2200.662
 20
-2854.973
  0
VERTEX
100
AcDbVertex
100
AcDb2dVertex
  8
layer_10
 10
-2114.947
 20
-2769.259
  0
VERTEX
100
AcDbVertex
100
AcDb2dVertex
  8
layer_10
 10
-2200.662
 20
-2683.544
  0
VERTEX
100
AcDbVertex
100
AcDb2dVertex
  8
layer_10
 10
-2114.947
 20
-2597.83
  0
VERTEX
100
AcDbVertex
100
AcDb2dVertex
  8
layer_10
 10
-2200.662
 20
-2512.116
  0
VERTEX
100
AcDbVertex
100
AcDb2dVertex
  8
layer_10
 10
-2114.947
 20
-2426.401
  0
VERTEX
100
AcDbVertex
100
AcDb2dVertex
  8
layer_10
 10
-2328.802
 20
-2212.546
  0
VERTEX
100
AcDbVertex
100
AcDb2dVertex
  8
layer_10
 10
-2542.657
 20
-2426.401
  0
VERTEX
100
AcDbVertex
100
AcDb2dVertex
  8
layer_10
 10
-2456.943
 20
-2512.116
  0
VERTEX
100
AcDbVertex
100
AcDb2dVertex
  8
layer_10
 10
-2542.657
 20
-2597.83
  0
VERTEX
100
AcDbVertex
100
AcDb2dVertex
  8
layer_10
 10
-2456.943
 20
-2683.544
  0
VERTEX
100
AcDbVertex
100
AcDb2dVertex
  8
layer_10
 10
-2542.657
 20
-2769.259
  0
VERTEX
100
AcDbVertex
100
AcDb2dVertex
  8
layer_10
 10
-2456.943
 20
-2854.973
  0
VERTEX
100
AcDbVertex
100
AcDb2dVertex
  8
layer_10
 10
-2542.657
 20
-2940.687
  0
VERTEX
100
AcDbVertex
100
AcDb2dVertex
  8
layer_10
 10
-2456.943
 20
-3026.401
  0
VERTEX
100
AcDbVertex
100
AcDb2dVertex
  8
layer_10
 10
-2542.657
 20
-3112.116
  0
VERTEX
100
AcDbVertex
100
AcDb2dVertex
  8
layer_10
 10
-2456.943
 20
-3197.83
  0
VERTEX
100
AcDbVertex
100
AcDb2dVertex
  8
layer_10
 10
-2542.657
 20
-3283.544
  0
VERTEX
100
AcDbVertex
100
AcDb2dVertex
  8
layer_10
 10
-2456.943
 20
-3369.258
  0
VERTEX
100
AcDbVertex
100
AcDb2dVertex
  8
layer_10
 10
-2542.657
 20
-3454.973
  0
VERTEX
100
AcDbVertex
100
AcDb2dVertex
  8
layer_10
 10
-2456.943
 20
-3540.687
  0
VERTEX
100
AcDbVertex
100
AcDb2dVertex
  8
layer_10
 10
-2542.657
 20
-3626.401
  0
VERTEX
100
AcDbVertex
100
AcDb2dVertex
  8
layer_10
 10
-2456.943
 20
-3712.116
  0
VERTEX
100
AcDbVertex
100
AcDb2dVertex
  8
layer_10
 10
-2542.657
 20
-3797.83
  0
VERTEX
100
AcDbVertex
100
AcDb2dVertex
  8
layer_10
 10
-2456.943
 20
-3883.544
  0
VERTEX
100
AcDbVertex
100
AcDb2dVertex
  8
layer_10
 10
-2542.657
 20
-3969.258
  0
VERTEX
100
AcDbVertex
100
AcDb2dVertex
  8
layer_10
 10
-2456.943
 20
-4054.973
  0
VERTEX
100
AcDbVertex
100
AcDb2dVertex
  8
layer_10
 10
-2542.657
 20
-4140.687
  0
VERTEX
100
AcDbVertex
100
AcDb2dVertex
  8
layer_10
 10
-2456.943
 20
-4226.401
  0
VERTEX
100
AcDbVertex
100
AcDb2dVertex
  8
layer_10
 10
-2542.657
 20
-4312.116
  0
VERTEX
100
AcDbVertex
100
AcDb2dVertex
  8
layer_10
 10
-2456.943
 20
-4397.83
  0
VERTEX
100
AcDbVertex
100
AcDb2dVertex
  8
layer_10
 10
-2542.657
 20
-4483.544
  0
VERTEX
100
AcDbVertex
100
AcDb2dVertex
  8
layer_10
 10
-2456.943
 20
-4569.258
  0
VERTEX
100
AcDbVertex
100
AcDb2dVertex
  8
layer_10
 10
-2542.657
 20
-4654.973
  0
VERTEX
100
AcDbVertex
100
AcDb2dVertex
  8
layer_10
 10
-2456.943
 20
-4740.687
  0
VERTEX
100
AcDbVertex
100
AcDb2dVertex
  8
layer_10
 10
-2542.657
 20
-4826.401
  0
VERTEX
100
AcDbVertex
100
AcDb2dVertex
  8
layer_10
 10
-2456.943
 20
-4912.115
  0
VERTEX
100
AcDbVertex
100
AcDb2dVertex
  8
layer_10
 10
-2542.657
 20
-4997.83
  0
VERTEX
100
AcDbVertex
100
AcDb2dVertex
  8
layer_10
 10
-2456.943
 20
-5083.544
  0
VERTEX
100
AcDbVertex
100
AcDb2dVertex
  8
layer_10
 10
-2542.657
 20
-5169.258
  0
VERTEX
100
AcDbVertex
100
AcDb2dVertex
  8
layer_10
 10
-2456.943
 20
-5254.973
  0
VERTEX
100
AcDbVertex
100
AcDb2dVertex
  8
layer_10
 10
-2542.657
 20
-5340.687
  0
VERTEX
100
AcDbVertex
100
AcDb2dVertex
  8
layer_10
 10
-2456.943
 20
-5426.401
  0
VERTEX
100
AcDbVertex
100
AcDb2dVertex
  8
layer_10
 10
-2542.657
 20
-5512.115
  0
VERTEX
100
AcDbVertex
100
AcDb2dVertex
  8
layer_10
 10
-2456.943
 20
-5597.83
  0
VERTEX
100
AcDbVertex
100
AcDb2dVertex
  8
layer_10
 10
-2542.657
 20
-5683.544
  0
VERTEX
100
AcDbVertex
100
AcDb2dVertex
  8
layer_10
 10
-2456.943
 20
-5769.258
  0
VERTEX
100
AcDbVertex
100
AcDb2dVertex
  8
layer_10
 10
-2542.657
 20
-5854.973
  0
VERTEX
100
AcDbVertex
100
AcDb2dVertex
  8
layer_10
 10
-2456.943
 20
-5940.687
  0
VERTEX
100
AcDbVertex
100
AcDb2dVertex
  8
layer_10
 10
-2542.657
 20
-6026.401
  0
VERTEX
100
AcDbVertex
100
AcDb2dVertex
  8
layer_10
 10
-2456.943
 20
-6112.115
  0
VERTEX
100
AcDbVertex
100
AcDb2dVertex
  8
layer_10
 10
-2542.657
 20
-6197.83
  0
VERTEX
100
AcDbVertex
100
AcDb2dVertex
  8
layer_10
 10
-2456.943
 20
-6283.544
  0
VERTEX
100
AcDbVertex
100
AcDb2dVertex
  8
layer_10
 10
-2542.657
 20
-6369.258
  0
VERTEX
100
AcDbVertex
100
AcDb2dVertex
  8
layer_10
 10
-2456.943
 20
-6454.972
  0
VERTEX
100
AcDbVertex
100
AcDb2dVertex
  8
layer_10
 10
-2542.657
 20
-6540.687
  0
VERTEX
100
AcDbVertex
100
AcDb2dVertex
  8
layer_10
 10
-2456.943
 20
-6626.401
  0
VERTEX
100
AcDbVertex
100
AcDb2dVertex
  8
layer_10
 10
-2542.657
 20
-6712.115
  0
VERTEX
100
AcDbVertex
100
AcDb2dVertex
  8
layer_10
 10
-2456.943
 20
-6797.83
  0
VERTEX
100
AcDbVertex
100
AcDb2dVertex
  8
layer_10
 10
-2542.657
 20
-6883.544
  0
VERTEX
100
AcDbVertex
100
AcDb2dVertex
  8
layer_10
 10
-2456.943
 20
-6969.258
  0
VERTEX
100
AcDbVertex
100
AcDb2dVertex
  8
layer_10
 10
-2628.372
 20
-7140.687
  0
VERTEX
100
AcDbVertex
100
AcDb2dVertex
  8
layer_10
 10
-2799.8
 20
-6969.258
  0
VERTEX
100
AcDbVertex
100
AcDb2dVertex
  8
layer_10
 10
-2714.086
 20
-6883.544
  0
VERTEX
100
AcDbVertex
100
AcDb2dVertex
  8
layer_10
 10
-2799.8
 20
-6797.83
  0
VERTEX
100
AcDbVertex
100
AcDb2dVertex
  8
layer_10
 10
-2714.086
 20
-6712.115
  0
VERTEX
100
AcDbVertex
100
AcDb2dVertex
  8
layer_10
 10
-2799.8
 20
-6626.401
  0
VERTEX
100
AcDbVertex
100
AcDb2dVertex
  8
layer_10
 10
-2714.086
 20
-6540.687
  0
VERTEX
100
AcDbVertex
100
AcDb2dVertex
  8
layer_10
 10
-2799.8
 20
-6454.972
  0
VERTEX
100
AcDbVertex
100
AcDb2dVertex
  8
layer_10
 10
-2714.086
 20
-6369.258
  0
VERTEX
100
AcDbVertex
100
AcDb2dVertex
  8
layer_10
 10
-2799.8
 20
-6283.544
  0
VERTEX
100
AcDbVertex
100
AcDb2dVertex
  8
layer_10
 10
-2714.086
 20
-6197.83
  0
VERTEX
100
AcDbVertex
100
AcDb2dVertex
  8
layer_10
 10
-2799.8
 20
-6112.115
  0
VERTEX
100
AcDbVertex
100
AcDb2dVertex
  8
layer_10
 10
-2714.086
 20
-6026.401
  0
VERTEX
100
AcDbVertex
100
AcDb2dVertex
  8
layer_10
 10
-2799.8
 20
-5940.687
  0
VERTEX
100
AcDbVertex
100
AcDb2dVertex
  8
layer_10
 10
-2714.086
 20
-5854.973
  0
VERTEX
100
AcDbVertex
100
AcDb2dVertex
  8
layer_10
 10
-2799.8
 20
-5769.258
  0
VERTEX
100
AcDbVertex
100
AcDb2dVertex
  8
layer_10
 10
-2714.086
 20
-5683.544
  0
VERTEX
100
AcDbVertex
100
AcDb2dVertex
  8
layer_10
 10
-2799.8
 20
-5597.83
  0
VERTEX
100
AcDbVertex
100
AcDb2dVertex
  8
layer_10
 10
-2714.086
 20
-5512.115
  0
VERTEX
100
AcDbVertex
100
AcDb2dVertex
  8
layer_10
 10
-2799.8
 20
-5426.401
  0
VERTEX
100
AcDbVertex
100
AcDb2dVertex
  8
layer_10
 10
-2714.086
 20
-5340.687
  0
VERTEX
100
AcDbVertex
100
AcDb2dVertex
  8
layer_10
 10
-2799.8
 20
-5254.973
  0
VERTEX
100
AcDbVertex
100
AcDb2dVertex
  8
layer_10
 10
-2714.086
 20
-5169.258
  0
VERTEX
100
AcDbVertex
100
AcDb2dVertex
  8
layer_10
 10
-2799.8
 20
-5083.544
  0
VERTEX
100
AcDbVertex
100
AcDb2dVertex
  8
layer_10
 10
-2714.086
 20
-4997.83
  0
VERTEX
100
AcDbVertex
100
AcDb2dVertex
  8
layer_10
 10
-2799.8
 20
-4912.115
  0
VERTEX
100
AcDbVertex
100
AcDb2dVertex
  8
layer_10
 10
-2714.086
 20
-4826.401
  0
VERTEX
100
AcDbVertex
100
AcDb2dVertex
  8
layer_10
 10
-2799.8
 20
-4740.687
  0
VERTEX
100
AcDbVertex
100
AcDb2dVertex
  8
layer_10
 10
-2714.086
 20
-4654.973
  0
VERTEX
100
AcDbVertex
100
AcDb2dVertex
  8
layer_10
 10
-2799.8
 20
-4569.258
  0
VERTEX
100
AcDbVertex
100
AcDb2dVertex
  8
layer_10
 10
-2714.086
 20
-4483.544
  0
VERTEX
100
AcDbVertex
100
AcDb2dVertex
  8
layer_10
 10
-2799.8
 20
-4397.83
  0
VERTEX
100
AcDbVertex
100
AcDb2dVertex
  8
layer_10
 10
-2714.086
 20
-4312.116
  0
VERTEX
100
AcDbVertex
100
AcDb2dVertex
  8
layer_10
 10
-2799.8
 20
-4226.401
  0
VERTEX
100
AcDbVertex
100
AcDb2dVertex
  8
layer_10
 10
-2714.086
 20
-4140.687
  0
VERTEX
100
AcDbVertex
100
AcDb2dVertex
  8
layer_10
 10
-2799.8
 20
-4054.973
  0
VERTEX
100
AcDbVertex
100
AcDb2dVertex
  8
layer_10
 10
-2714.086
 20
-3969.258
  0
VERTEX
100
AcDbVertex
100
AcDb2dVertex
  8
layer_10
 10
-2799.8
 20
-3883.544
  0
VERTEX
100
AcDbVertex
100
AcDb2dVertex
  8
layer_10
 10
-2714.086
 20
-3797.83
  0
VERTEX
100
AcDbVertex
100
AcDb2dVertex
  8
layer_10
 10
-2799.8
 20
-3712.116
  0
VERTEX
100
AcDbVertex
100
AcDb2dVertex
  8
layer_10
 10
-2714.086
 20
-3626.401
  0
VERTEX
100
AcDbVertex
100
AcDb2dVertex
  8
layer_10
 10
-2799.8
 20
-3540.687
  0
VERTEX
100
AcDbVertex
100
AcDb2dVertex
  8
layer_10
 10
-2714.086
 20
-3454.973
  0
VERTEX
100
AcDbVertex
100
AcDb2dVertex
  8
layer_10
 10
-2799.8
 20
-3369.258
  0
VERTEX
100
AcDbVertex
100
AcDb2dVertex
  8
layer_10
 10
-2714.086
 20
-3283.544
  0
VERTEX
100
AcDbVertex
100
AcDb2dVertex
  8
layer_10
 10
-2799.8
 20
-3197.83
  0
VERTEX
100
AcDbVertex
100
AcDb2dVertex
  8
layer_10
 10
-2714.086
 20
-3112.116
  0
VERTEX
100
AcDbVertex
100
AcDb2dVertex
  8
layer_10
 10
-2799.8
 20
-3026.401
  0
VERTEX
100
AcDbVertex
100
AcDb2dVertex
  8
layer_10
 10
-2714.086
 20
-2940.687
  0
VERTEX
100
AcDbVertex
100
AcDb2dVertex
  8
layer_10
 10
-2799.8
 20
-2854.973
  0
VERTEX
100
AcDbVertex
100
AcDb2dVertex
  8
layer_10
 10
-2714.086
 20
-2769.259
  0
VERTEX
100
AcDbVertex
100
AcDb2dVertex
  8
layer_10
 10
-2799.8
 20
-2683.544
  0
VERTEX
100
AcDbVertex
100
AcDb2dVertex
  8
layer_10
 10
-2714.086
 20
-2597.83
  0
VERTEX
100
AcDbVertex
100
AcDb2dVertex
  8
layer_10
 10
-2799.8
 20
-2512.116
  0
VERTEX
100
AcDbVertex
100
AcDb2dVertex
  8
layer_10
 10
-2714.086
 20
-2426.401
  0
VERTEX
100
AcDbVertex
100
AcDb2dVertex
  8
layer_10
 10
-2799.8
 20
-2340.687
  0
VERTEX
100
AcDbVertex
100
AcDb2dVertex
  8
layer_10
 10
-2714.086
 20
-2254.973
  0
VERTEX
100
AcDbVertex
100
AcDb2dVertex
  8
layer_10
 10
-2799.8
 20
-2169.259
  0
VERTEX
100
AcDbVertex
100
AcDb2dVertex
  8
layer_10
 10
-2293.655
 20
-1356.57
  0
VERTEX
100
AcDbVertex
100
AcDb2dVertex
  8
layer_10
 10
-2293.655
 20
-356.57
  0
VERTEX
100
AcDbVertex
100
AcDb2dVertex
  8
layer_10
 10
-1293.655
 20
-356.57
  0
VERTEX
100
AcDbVertex
100
AcDb2dVertex
  8
layer_10
 10
-480.967
 20
94.858
  0
VERTEX
100
AcDbVertex
100
AcDb2dVertex
  8
layer_10
 10
-395.252
 20
180.572
  0
VERTEX
100
AcDbVertex
100
AcDb2dVertex
  8
layer_10
 10
-309.538
 20
94.858
  0
VERTEX
100
AcDbVertex
100
AcDb2dVertex
  8
layer_10
 10
-223.824
 20
180.572
  0
VERTEX
100
AcDbVertex
100
AcDb2dVertex
  8
layer_10
 10
-138.11
 20
94.858
  0
VERTEX
100
AcDbVertex
100
AcDb2dVertex
  8
layer_10
 10
-52.395
 20
180.572
  0
VERTEX
100
AcDbVertex
100
AcDb2dVertex
  8
layer_10
 10
33.319
 20
94.858
  0
VERTEX
100
AcDbVertex
100
AcDb2dVertex
  8
layer_10
 10
119.033
 20
180.572
  0
VERTEX
100
AcDbVertex
100
AcDb2dVertex
  8
layer_10
 10
204.747
 20
94.858
  0
VERTEX
100
AcDbVertex
100
AcDb2dVertex
  8
layer_10
 10
290.462
 20
180.572
  0
VERTEX
100
AcDbVertex
100
AcDb2dVertex
  8
layer_10
 10
376.176
 20
94.858
  0
VERTEX
100
AcDbVertex
100
AcDb2dVertex
  8
layer_10
 10
461.89
 20
180.572
  0
VERTEX
100
AcDbVertex
100
AcDb2dVertex
  8
layer_10
 10
547.605
 20
94.858
  0
VERTEX
100
AcDbVertex
100
AcDb2dVertex
  8
layer_10
 10
633.319
 20
180.572
  0
VERTEX
100
AcDbVertex
100
AcDb2dVertex
  8
layer_10
 10
719.033
 20
94.858
  0
VERTEX
100
AcDbVertex
100
AcDb2dVertex
  8
layer_10
 10
804.747
 20
180.572
  0
VERTEX
100
AcDbVertex
100
AcDb2dVertex
  8
layer_10
 10
890.462
 20
94.858
  0
VERTEX
100
AcDbVertex
100
AcDb2dVertex
  8
layer_10
 10
976.176
 20
180.572
  0
VERTEX
100
AcDbVertex
100
AcDb2dVertex
  8
layer_10
 10
1061.89
 20
94.858
  0
VERTEX
100
AcDbVertex
100
AcDb2dVertex
  8
layer_10
 10
1147.605
 20
180.572
  0
VERTEX
100
AcDbVertex
100
AcDb2dVertex
  8
layer_10
 10
1233.319
 20
94.858
  0
VERTEX
100
AcDbVertex
100
AcDb2dVertex
  8
layer_10
 10
1319.033
 20
180.572
  0
VERTEX
100
AcDbVertex
100
AcDb2dVertex
  8
layer_10
 10
1404.747
 20
94.858
  0
VERTEX
100
AcDbVertex
100
AcDb2dVertex
  8
layer_10
 10
1490.462
 20
180.572
  0
VERTEX
100
AcDbVertex
100
AcDb2dVertex
  8
layer_10
 10
1576.176
 20
94.858
  0
VERTEX
100
AcDbVertex
100
AcDb2dVertex
  8
layer_10
 10
1661.89
 20
180.572
  0
VERTEX
100
AcDbVertex
100
AcDb2dVertex
  8
layer_10
 10
1747.604
 20
94.858
  0
VERTEX
100
AcDbVertex
100
AcDb2dVertex
  8
layer_10
 10
1833.319
 20
180.572
  0
VERTEX
100
AcDbVertex
100
AcDb2dVertex
  8
layer_10
 10
1919.033
 20
94.858
  0
VERTEX
100
AcDbVertex
100
AcDb2dVertex
  8
layer_10
 10
2004.747
 20
180.572
  0
VERTEX
100
AcDbVertex
100
AcDb2dVertex
  8
layer_10
 10
2090.462
 20
94.858
  0
VERTEX
100
AcDbVertex
100
AcDb2dVertex
  8
layer_10
 10
2176.176
 20
180.572
  0
VERTEX
100
AcDbVertex
100
AcDb2dVertex
  8
layer_10
 10
2261.89
 20
94.858
  0
VERTEX
100
AcDbVertex
100
AcDb2dVertex
  8
layer_10
 10
2347.604
 20
180.572
  0
VERTEX
100
AcDbVertex
100
AcDb2dVertex
  8
layer_10
 10
2433.319
 20
94.858
  0
VERTEX
100
AcDbVertex
100
AcDb2dVertex
  8
layer_10
 10
2519.033
 20
180.572
  0
VERTEX
100
AcDbVertex
100
AcDb2dVertex
  8
layer_10
 10
2604.747
 20
94.858
  0
VERTEX
100
AcDbVertex
100
AcDb2dVertex
  8
layer_10
 10
2690.462
 20
180.572
  0
VERTEX
100
AcDbVertex
100
AcDb2dVertex
  8
layer_10
 10
2776.176
 20
94.858
  0
VERTEX
100
AcDbVertex
100
AcDb2dVertex
  8
layer_10
 10
2861.89
 20
180.572
  0
VERTEX
100
AcDbVertex
100
AcDb2dVertex
  8
layer_10
 10
2947.604
 20
94.858
  0
VERTEX
100
AcDbVertex
100
AcDb2dVertex
  8
layer_10
 10
3033.319
 20
180.572
  0
VERTEX
100
AcDbVertex
100
AcDb2dVertex
  8
layer_10
 10
3119.033
 20
94.858
  0
VERTEX
100
AcDbVertex
100
AcDb2dVertex
  8
layer_10
 10
3204.747
 20
180.572
  0
VERTEX
100
AcDbVertex
100
AcDb2dVertex
  8
layer_10
 10
3290.461
 20
94.858
  0
VERTEX
100
AcDbVertex
100
AcDb2dVertex
  8
layer_10
 10
3376.176
 20
180.572
  0
VERTEX
100
AcDbVertex
100
AcDb2dVertex
  8
layer_10
 10
3461.89
 20
94.858
  0
VERTEX
100
AcDbVertex
100
AcDb2dVertex
  8
layer_10
 10
3547.604
 20
180.572
  0
VERTEX
100
AcDbVertex
100
AcDb2dVertex
  8
layer_10
 10
3633.319
 20
94.858
  0
VERTEX
100
AcDbVertex
100
AcDb2dVertex
  8
layer_10
 10
3719.033
 20
180.572
  0
VERTEX
100
AcDbVertex
100
AcDb2dVertex
  8
layer_10
 10
3804.747
 20
94.858
  0
VERTEX
100
AcDbVertex
100
AcDb2dVertex
  8
layer_10
 10
3890.461
 20
180.572
  0
VERTEX
100
AcDbVertex
100
AcDb2dVertex
  8
layer_10
 10
3976.176
 20
94.858
  0
VERTEX
100
AcDbVertex
100
AcDb2dVertex
  8
layer_10
 10
4061.89
 20
180.572
  0
VERTEX
100
AcDbVertex
100
AcDb2dVertex
  8
layer_10
 10
4147.604
 20
94.858
  0
VERTEX
100
AcDbVertex
100
AcDb2dVertex
  8
layer_10
 10
4233.318
 20
180.572
  0
VERTEX
100
AcDbVertex
100
AcDb2dVertex
  8
layer_10
 10
4319.033
 20
94.858
  0
VERTEX
100
AcDbVertex
100
AcDb2dVertex
  8
layer_10
 10
4532.888
 20
308.713
  0
VERTEX
100
AcDbVertex
100
AcDb2dVertex
  8
layer_10
 10
4319.033
 20
522.568
  0
VERTEX
100
AcDbVertex
100
AcDb2dVertex
  8
layer_10
 10
4233.318
 20
436.854
  0
VERTEX
100
AcDbVertex
100
AcDb2dVertex
  8
layer_10
 10
4147.604
 20
522.568
  0
VERTEX
100
AcDbVertex
100
AcDb2dVertex
  8
layer_10
 10
4061.89
 20
436.854
  0
VERTEX
100
AcDbVertex
100
AcDb2dVertex
  8
layer_10
 10
3976.176
 20
522.568
  0
VERTEX
100
AcDbVertex
100
AcDb2dVertex
  8
layer_10
 10
3890.461
 20
436.854
  0
VERTEX
100
AcDbVertex
100
AcDb2dVertex
  8
layer_10
 10
3804.747
 20
522.568
  0
VERTEX
100
AcDbVertex
100
AcDb2dVertex
  8
layer_10
 10
3719.033
 20
436.854
  0
VERTEX
100
AcDbVertex
100
AcDb2dVertex
  8
layer_10
 10
3633.319
 20
522.568
  0
VERTEX
100
AcDbVertex
100
AcDb2dVertex
  8
layer_10
 10
3547.604
 20
436.854
  0
VERTEX
100
AcDbVertex
100
AcDb2dVertex
  8
layer_10
 10
3461.89
 20
522.568
  0
VERTEX
100
AcDbVertex
100
AcDb2dVertex
  8
layer_10
 10
3376.176
 20
436.854
  0
VERTEX
100
AcDbVertex
100
AcDb2dVertex
  8
layer_10
 10
3290.461
 20
522.568
  0
VERTEX
100
AcDbVertex
100
AcDb2dVertex
  8
layer_10
 10
3204.747
 20
436.854
  0
VERTEX
100
AcDbVertex
100
AcDb2dVertex
  8
layer_10
 10
3119.033
 20
522.568
  0
VERTEX
100
AcDbVertex
100
AcDb2dVertex
  8
layer_10
 10
3033.319
 20
436.854
  0
VERTEX
100
AcDbVertex
100
AcDb2dVertex
  8
layer_10
 10
2947.604
 20
522.568
  0
VERTEX
100
AcDbVertex
100
AcDb2dVertex
  8
layer_10
 10
2861.89
 20
436.854
  0
VERTEX
100
AcDbVertex
100
AcDb2dVertex
  8
layer_10
 10
2776.176
 20
522.568
  0
VERTEX
100
AcDbVertex
100
AcDb2dVertex
  8
layer_10
 10
2690.462
 20
436.854
  0
VERTEX
100
AcDbVertex
100
AcDb2dVertex
  8
layer_10
 10
2604.747
 20
522.568
  0
VERTEX
100
AcDbVertex
100
AcDb2dVertex
  8
layer_10
 10
2519.033
 20
436.854
  0
VERTEX
100
AcDbVertex
100
AcDb2dVertex
  8
layer_10
 10
2433.319
 20
522.568
  0
VERTEX
100
AcDbVertex
100
AcDb2dVertex
  8
layer_10
 10
2347.604
 20
436.854
  0
VERTEX
100
AcDbVertex
100
AcDb2dVertex
  8
layer_10
 10
2261.89
 20
522.568
  0
VERTEX
100
AcDbVertex
100
AcDb2dVertex
  8
layer_10
 10
2176.176
 20
436.854
  0
VERTEX
100
AcDbVertex
100
AcDb2dVertex
  8
layer_10
 10
2090.462
 20
522.568
  0
VERTEX
100
AcDbVertex
100
AcDb2dVertex
  8
layer_10
 10
2004.747
 20
436.854
  0
VERTEX
100
AcDbVertex
100
AcDb2dVertex
  8
layer_10
 10
1919.033
 20
522.568
  0
VERTEX
100
AcDbVertex
100
AcDb2dVertex
  8
layer_10
 10
1833.319
 20
436.854
  0
VERTEX
100
AcDbVertex
100
AcDb2dVertex
  8
layer_10
 10
1747.604
 20
522.568
  0
VERTEX
100
AcDbVertex
100
AcDb2dVertex
  8
layer_10
 10
1661.89
 20
436.854
  0
VERTEX
100
AcDbVertex
100
AcDb2dVertex
  8
layer_10
 10
1576.176
 20
522.568
  0
VERTEX
100
AcDbVertex
100
AcDb2dVertex
  8
layer_10
 10
1490.462
 20
436.854
  0
VERTEX
100
AcDbVertex
100
AcDb2dVertex
  8
layer_10
 10
1404.747
 20
522.568
  0
VERTEX
100
AcDbVertex
100
AcDb2dVertex
  8
layer_10
 10
1319.033
 20
436.854
  0
VERTEX
100
AcDbVertex
100
AcDb2dVertex
  8
layer_10
 10
1233.319
 20
522.568
  0
VERTEX
100
AcDbVertex
100
AcDb2dVertex
  8
layer_10
 10
1147.605
 20
436.854
  0
VERTEX
100
AcDbVertex
100
AcDb2dVertex
  8
layer_10
 10
1061.89
 20
522.568
  0
VERTEX
100
AcDbVertex
100
AcDb2dVertex
  8
layer_10
 10
976.176
 20
436.854
  0
VERTEX
100
AcDbVertex
100
AcDb2dVertex
  8
layer_10
 10
890.462
 20
522.568
  0
VERTEX
100
AcDbVertex
100
AcDb2dVertex
  8
layer_10
 10
804.747
 20
436.854
  0
VERTEX
100
AcDbVertex
100
AcDb2dVertex
  8
layer_10
 10
719.033
 20
522.568
  0
VERTEX
100
AcDbVertex
100
AcDb2dVertex
  8
layer_10
 10
633.319
 20
436.854
  0
VERTEX
100
AcDbVertex
100
AcDb2dVertex
  8
layer_10
 10
547.605
 20
522.568
  0
VERTEX
100
AcDbVertex
100
AcDb2dVertex
  8
layer_10
 10
461.89
 20
436.854
  0
VERTEX
100
AcDbVertex
100
AcDb2dVertex
  8
layer_10
 10
376.176
 20
522.568
  0
VERTEX
100
AcDbVertex
100
AcDb2dVertex
  8
layer_10
 10
290.462
 20
436.854
  0
VERTEX
100
AcDbVertex
100
AcDb2dVertex
  8
layer_10
 10
204.747
 20
522.568
  0
VERTEX
100
AcDbVertex
100
AcDb2dVertex
  8
layer_10
 10
119.033
 20
436.854
  0
VERTEX
100
AcDbVertex
100
AcDb2dVertex
  8
layer_10
 10
33.319
 20
522.568
  0
VERTEX
100
AcDbVertex
100
AcDb2dVertex
  8
layer_10
 10
-52.395
 20
436.854
  0
VERTEX
100
AcDbVertex
100
AcDb2dVertex
  8
layer_10
 10
-138.11
 20
522.568
  0
VERTEX
100
AcDbVertex
100
AcDb2dVertex
  8
layer_10
 10
-223.824
 20
436.854
  0
VERTEX
100
AcDbVertex
100
AcDb2dVertex
  8
layer_10
 10
-395.252
 20
608.282
  0
VERTEX
100
AcDbVertex
100
AcDb2dVertex
  8
layer_10
 10
-223.824
 20
779.711
  0
VERTEX
100
AcDbVertex
100
AcDb2dVertex
  8
layer_10
 10
-138.11
 20
693.997
  0
VERTEX
100
AcDbVertex
100
AcDb2dVertex
  8
layer_10
 10
-52.395
 20
779.711
  0
VERTEX
100
AcDbVertex
100
AcDb2dVertex
  8
layer_10
 10
33.319
 20
693.997
  0
VERTEX
100
AcDbVertex
100
AcDb2dVertex
  8
layer_10
 10
119.033
 20
779.711
  0
VERTEX
100
AcDbVertex
100
AcDb2dVertex
  8
layer_10
 10
204.747
 20
693.997
  0
VERTEX
100
AcDbVertex
100
AcDb2dVertex
  8
layer_10
 10
290.462
 20
779.711
  0
VERTEX
100
AcDbVertex
100
AcDb2dVertex
  8
layer_10
 10
376.176
 20
693.997
  0
VERTEX
100
AcDbVertex
100
AcDb2dVertex
  8
layer_10
 10
461.89
 20
779.711
  0
VERTEX
100
AcDbVertex
100
AcDb2dVertex
  8
layer_10
 10
547.605
 20
693.997
  0
VERTEX
100
AcDbVertex
100
AcDb2dVertex
  8
layer_10
 10
633.319
 20
779.711
  0
VERTEX
100
AcDbVertex
100
AcDb2dVertex
  8
layer_10
 10
719.033
 20
693.997
  0
VERTEX
100
AcDbVertex
100
AcDb2dVertex
  8
layer_10
 10
804.747
 20
779.711
  0
VERTEX
100
AcDbVertex
100
AcDb2dVertex
  8
layer_10
 10
890.462
 20
693.997
  0
VERTEX
100
AcDbVertex
100
AcDb2dVertex
  8
layer_10
 10
976.176
 20
779.711
  0
VERTEX
100
AcDbVertex
100
AcDb2dVertex
  8
layer_10
 10
1061.89
 20
693.997
  0
VERTEX
100
AcDbVertex
100
AcDb2dVertex
  8
layer_10
 10
1147.605
 20
779.711
  0
VERTEX
100
AcDbVertex
100
AcDb2dVertex
  8
layer_10
 10
1233.319
 20
693.997
  0
VERTEX
100
AcDbVertex
100
AcDb2dVertex
  8
layer_10
 10
1319.033
 20
779.711
  0
VERTEX
100
AcDbVertex
100
AcDb2dVertex
  8
layer_10
 10
1404.747
 20
693.997
  0
VERTEX
100
AcDbVertex
100
AcDb2dVertex
  8
layer_10
 10
1490.462
 20
779.711
  0
VERTEX
100
AcDbVertex
100
AcDb2dVertex
  8
layer_10
 10
1576.176
 20
693.997
  0
VERTEX
100
AcDbVertex
100
AcDb2dVertex
  8
layer_10
 10
1661.89
 20
779.711
  0
VERTEX
100
AcDbVertex
100
AcDb2dVertex
  8
layer_10
 10
1747.604
 20
693.997
  0
VERTEX
100
AcDbVertex
100
AcDb2dVertex
  8
layer_10
 10
1833.319
 20
779.711
  0
VERTEX
100
AcDbVertex
100
AcDb2dVertex
  8
layer_10
 10
1919.033
 20
693.997
  0
VERTEX
100
AcDbVertex
100
AcDb2dVertex
  8
layer_10
 10
2004.747
 20
779.711
  0
VERTEX
100
AcDbVertex
100
AcDb2dVertex
  8
layer_10
 10
2090.462
 20
693.997
  0
VERTEX
100
AcDbVertex
100
AcDb2dVertex
  8
layer_10
 10
2176.176
 20
779.711
  0
VERTEX
100
AcDbVertex
100
AcDb2dVertex
  8
layer_10
 10
2261.89
 20
693.997
  0
VERTEX
100
AcDbVertex
100
AcDb2dVertex
  8
layer_10
 10
2347.604
 20
779.711
  0
VERTEX
100
AcDbVertex
100
AcDb2dVertex
  8
layer_10
 10
2433.319
 20
693.997
  0
VERTEX
100
AcDbVertex
100
AcDb2dVertex
  8
layer_10
 10
2519.033
 20
779.711
  0
VERTEX
100
AcDbVertex
100
AcDb2dVertex
  8
layer_10
 10
2604.747
 20
693.997
  0
VERTEX
100
AcDbVertex
100
AcDb2dVertex
  8
layer_10
 10
2690.462
 20
779.711
  0
VERTEX
100
AcDbVertex
100
AcDb2dVertex
  8
layer_10
 10
2776.176
 20
693.997
  0
VERTEX
100
AcDbVertex
100
AcDb2dVertex
  8
layer_10
 10
2861.89
 20
779.711
  0
VERTEX
100
AcDbVertex
100
AcDb2dVertex
  8
layer_10
 10
2947.604
 20
693.997
  0
VERTEX
100
AcDbVertex
100
AcDb2dVertex
  8
layer_10
 10
3033.319
 20
779.711
  0
VERTEX
100
AcDbVertex
100
AcDb2dVertex
  8
layer_10
 10
3119.033
 20
693.997
  0
VERTEX
100
AcDbVertex
100
AcDb2dVertex
  8
layer_10
 10
3204.747
 20
779.711
  0
VERTEX
100
AcDbVertex
100
AcDb2dVertex
  8
layer_10
 10
3290.461
 20
693.997
  0
VERTEX
100
AcDbVertex
100
AcDb2dVertex
  8
layer_10
 10
3376.176
 20
779.711
  0
VERTEX
100
AcDbVertex
100
AcDb2dVertex
  8
layer_10
 10
3461.89
 20
693.997
  0
VERTEX
100
AcDbVertex
100
AcDb2dVertex
  8
layer_10
 10
3547.604
 20
779.711
  0
VERTEX
100
AcDbVertex
100
AcDb2dVertex
  8
layer_10
 10
3633.319
 20
693.997
  0
VERTEX
100
AcDbVertex
100
AcDb2dVertex
  8
layer_10
 10
3719.033
 20
779.711
  0
VERTEX
100
AcDbVertex
100
AcDb2dVertex
  8
layer_10
 10
3804.747
 20
693.997
  0
VERTEX
100
AcDbVertex
100
AcDb2dVertex
  8
layer_10
 10
3890.461
 20
779.711
  0
VERTEX
100
AcDbVertex
100
AcDb2dVertex
  8
layer_10
 10
3976.176
 20
693.997
  0
VERTEX
100
AcDbVertex
100
AcDb2dVertex
  8
layer_10
 10
4061.89
 20
779.711
  0
VERTEX
100
AcDbVertex
100
AcDb2dVertex
  8
layer_10
 10
4147.604
 20
693.997
  0
VERTEX
100
AcDbVertex
100
AcDb2dVertex
  8
layer_10
 10
4233.318
 20
779.711
  0
VERTEX
100
AcDbVertex
100
AcDb2dVertex
  8
layer_10
 10
4319.033
 20
693.997
  0
VERTEX
100
AcDbVertex
100
AcDb2dVertex
  8
layer_10
 10
4529.033
 20
665.712
  0
VERTEX
100
AcDbVertex
100
AcDb2dVertex
  8
layer_10
 10
15029.033
 20
-13383.007
  0
VERTEX
100
AcDbVertex
100
AcDb2dVertex
  8
layer_10
 10
25529.033
 20
665.712
  0
VERTEX
100
AcDbVertex
100
AcDb2dVertex
  8
layer_10
 10
25739.033
 20
665.712
  0
VERTEX
100
AcDbVertex
100
AcDb2dVertex
  8
layer_10
 10
28552.366
 20
609.315
  0
VERTEX
100
AcDbVertex
100
AcDb2dVertex
  8
layer_10
 10
29184.203
 20
238.507
  0
VERTEX
100
AcDbVertex
100
AcDb2dVertex
  8
layer_10
 10
31288.504
 20
238.507
  0
VERTEX
100
AcDbVertex
100
AcDb2dVertex
  8
layer_10
 10
31334.458
 20
185.981
  0
VERTEX
100
AcDbVertex
100
AcDb2dVertex
  8
layer_10
 10
31384.816
 20
137.66
  0
VERTEX
100
AcDbVertex
100
AcDb2dVertex
  8
layer_10
 10
31439.193
 20
93.912
  0
VERTEX
100
AcDbVertex
100
AcDb2dVertex
  8
layer_10
 10
31497.177
 20
55.069
  0
VERTEX
100
AcDbVertex
100
AcDb2dVertex
  8
layer_10
 10
31558.325
 20
21.428
  0
VERTEX
100
AcDbVertex
100
AcDb2dVertex
  8
layer_10
 10
31622.172
 20
-6.756
  0
VERTEX
100
AcDbVertex
100
AcDb2dVertex
  8
layer_10
 10
31688.233
 20
-29.267
  0
VERTEX
100
AcDbVertex
100
AcDb2dVertex
  8
layer_10
 10
31756.004
 20
-45.936
  0
VERTEX
100
AcDbVertex
100
AcDb2dVertex
  8
layer_10
 10
31824.97
 20
-56.634
  0
VERTEX
100
AcDbVertex
100
AcDb2dVertex
  8
layer_10
 10
31894.606
 20
-61.281
  0
VERTEX
100
AcDbVertex
100
AcDb2dVertex
  8
layer_10
 10
31964.383
 20
-59.841
  0
VERTEX
100
AcDbVertex
100
AcDb2dVertex
  8
layer_10
 10
32033.768
 20
-52.325
  0
VERTEX
100
AcDbVertex
100
AcDb2dVertex
  8
layer_10
 10
32102.234
 20
-38.791
  0
VERTEX
100
AcDbVertex
100
AcDb2dVertex
  8
layer_10
 10
32169.26
 20
-19.341
  0
VERTEX
100
AcDbVertex
100
AcDb2dVertex
  8
layer_10
 10
32177.957
 20
-16.344
  0
VERTEX
100
AcDbVertex
100
AcDb2dVertex
  8
layer_10
 10
32242.738
 20
9.621
  0
VERTEX
100
AcDbVertex
100
AcDb2dVertex
  8
layer_10
 10
32305.01
 20
41.133
  0
VERTEX
100
AcDbVertex
100
AcDb2dVertex
  8
layer_10
 10
32364.299
 20
77.952
  0
VERTEX
100
AcDbVertex
100
AcDb2dVertex
  8
layer_10
 10
32420.153
 20
119.799
  0
VERTEX
100
AcDbVertex
100
AcDb2dVertex
  8
layer_10
 10
32472.147
 20
166.354
  0
VERTEX
100
AcDbVertex
100
AcDb2dVertex
  8
layer_10
 10
32519.886
 20
217.264
  0
VERTEX
100
AcDbVertex
100
AcDb2dVertex
  8
layer_10
 10
32563.006
 20
272.141
  0
VERTEX
100
AcDbVertex
100
AcDb2dVertex
  8
layer_10
 10
32601.179
 20
330.567
  0
VERTEX
100
AcDbVertex
100
AcDb2dVertex
  8
layer_10
 10
32634.114
 20
392.097
  0
VERTEX
100
AcDbVertex
100
AcDb2dVertex
  8
layer_10
 10
32661.562
 20
456.265
  0
VERTEX
100
AcDbVertex
100
AcDb2dVertex
  8
layer_10
 10
32683.313
 20
522.58
  0
VERTEX
100
AcDbVertex
100
AcDb2dVertex
  8
layer_10
 10
32699.201
 20
590.538
  0
VERTEX
100
AcDbVertex
100
AcDb2dVertex
  8
layer_10
 10
32709.105
 20
659.623
  0
VERTEX
100
AcDbVertex
100
AcDb2dVertex
  8
layer_10
 10
32712.951
 20
729.308
  0
VERTEX
100
AcDbVertex
100
AcDb2dVertex
  8
layer_10
 10
32713.004
 20
738.507
  0
VERTEX
100
AcDbVertex
100
AcDb2dVertex
  8
layer_10
 10
32709.96
 20
808.232
  0
VERTEX
100
AcDbVertex
100
AcDb2dVertex
  8
layer_10
 10
32700.85
 20
877.426
  0
VERTEX
100
AcDbVertex
100
AcDb2dVertex
  8
layer_10
 10
32685.745
 20
945.562
  0
VERTEX
100
AcDbVertex
100
AcDb2dVertex
  8
layer_10
 10
32664.758
 20
1012.123
  0
VERTEX
100
AcDbVertex
100
AcDb2dVertex
  8
layer_10
 10
32638.05
 20
1076.602
  0
VERTEX
100
AcDbVertex
100
AcDb2dVertex
  8
layer_10
 10
32605.824
 20
1138.507
  0
VERTEX
100
AcDbVertex
100
AcDb2dVertex
  8
layer_10
 10
32568.326
 20
1197.368
  0
VERTEX
100
AcDbVertex
100
AcDb2dVertex
  8
layer_10
 10
32525.84
 20
1252.737
  0
VERTEX
100
AcDbVertex
100
AcDb2dVertex
  8
layer_10
 10
32478.689
 20
1304.192
  0
VERTEX
100
AcDbVertex
100
AcDb2dVertex
  8
layer_10
 10
32427.234
 20
1351.343
  0
VERTEX
100
AcDbVertex
100
AcDb2dVertex
  8
layer_10
 10
32371.865
 20
1393.829
  0
VERTEX
100
AcDbVertex
100
AcDb2dVertex
  8
layer_10
 10
32313.004
 20
1431.327
  0
VERTEX
100
AcDbVertex
100
AcDb2dVertex
  8
layer_10
 10
32251.099
 20
1463.553
  0
VERTEX
100
AcDbVertex
100
AcDb2dVertex
  8
layer_10
 10
32186.62
 20
1490.261
  0
VERTEX
100
AcDbVertex
100
AcDb2dVertex
  8
layer_10
 10
32177.957
 20
1493.358
  0
VERTEX
100
AcDbVertex
100
AcDb2dVertex
  8
layer_10
 10
32111.159
 20
1513.578
  0
VERTEX
100
AcDbVertex
100
AcDb2dVertex
  8
layer_10
 10
32042.853
 20
1527.899
  0
VERTEX
100
AcDbVertex
100
AcDb2dVertex
  8
layer_10
 10
31973.559
 20
1536.212
  0
VERTEX
100
AcDbVertex
100
AcDb2dVertex
  8
layer_10
 10
31903.804
 20
1538.454
  0
VERTEX
100
AcDbVertex
100
AcDb2dVertex
  8
layer_10
 10
31834.119
 20
1534.608
  0
VERTEX
100
AcDbVertex
100
AcDb2dVertex
  8
layer_10
 10
31765.035
 20
1524.704
  0
VERTEX
100
AcDbVertex
100
AcDb2dVertex
  8
layer_10
 10
31697.076
 20
1508.816
  0
VERTEX
100
AcDbVertex
100
AcDb2dVertex
  8
layer_10
 10
31630.761
 20
1487.065
  0
VERTEX
100
AcDbVertex
100
AcDb2dVertex
  8
layer_10
 10
31566.594
 20
1459.617
  0
VERTEX
100
AcDbVertex
100
AcDb2dVertex
  8
layer_10
 10
31505.063
 20
1426.682
  0
VERTEX
100
AcDbVertex
100
AcDb2dVertex
  8
layer_10
 10
31446.637
 20
1388.508
  0
VERTEX
100
AcDbVertex
100
AcDb2dVertex
  8
layer_10
 10
31391.76
 20
1345.388
  0
VERTEX
100
AcDbVertex
100
AcDb2dVertex
  8
layer_10
 10
31340.85
 20
1297.65
  0
VERTEX
100
AcDbVertex
100
AcDb2dVertex
  8
layer_10
 10
31294.295
 20
1245.655
  0
VERTEX
100
AcDbVertex
100
AcDb2dVertex
  8
layer_10
 10
31288.504
 20
1238.507
  0
VERTEX
100
AcDbVertex
100
AcDb2dVertex
  8
layer_10
 10
29184.203
 20
1238.507
  0
VERTEX
100
AcDbVertex
100
AcDb2dVertex
  8
layer_10
 10
28552.366
 20
821.036
  0
VERTEX
100
AcDbVertex
100
AcDb2dVertex
  8
layer_10
 10
25739.033
 20
764.707
  0
VERTEX
100
AcDbVertex
100
AcDb2dVertex
  8
layer_10
 10
25529.033
 20
764.707
  0
VERTEX
100
AcDbVertex
100
AcDb2dVertex
  8
layer_10
 10
15029.033
 20
10645.73
  0
VERTEX
100
AcDbVertex
100
AcDb2dVertex
  8
layer_10
 10
15029.033
 20
10428.743
  0
SEQEND
  0
TEXT
100
AcDbText
  8
DEFPOINTS
 10
-11717.656
 20
10645.73
 11
-11717.656
 21
10645.73
 30
   0
 40
-0.016
  1
Generated with the LayoutEditor (This message will NOT be added by any commercial version of the LayoutEditor.)
 50
0
 72
0
 73
3
  0
ENDSEC
  0
EOF
