<?xml version="1.0" encoding="UTF-8" standalone="no"?>
<svg width="170.039mm" height="112.889mm"
 viewBox="0 0 482 320"
 xmlns="http://www.w3.org/2000/svg" xmlns:xlink="http://www.w3.org/1999/xlink"  version="1.2" baseProfile="tiny">
<title>Qt SVG Document</title>
<desc>MATLAB, The MathWorks, Inc. Version 25.1.0.2943329 R2025a</desc>
<defs>
</defs>
<g fill="none" stroke="black" stroke-width="1" fill-rule="evenodd" stroke-linecap="square" stroke-linejoin="bevel" >

<g fill="#ffffff" fill-opacity="1" stroke="none" transform="matrix(0.5,0,0,0.5,0,0)"
font-family="MS Shell Dlg 2" font-size="8" font-weight="400" font-style="normal" 
>
<path vector-effect="none" fill-rule="evenodd" d="M0,0 L964,0 L964,640 L0,640 L0,0"/>
</g>

<g fill="#ffffff" fill-opacity="1" stroke="none" transform="matrix(5e-05,0,0,5e-05,0,0)"
font-family="MS Shell Dlg 2" font-size="8" font-weight="400" font-style="normal" 
>
<path vector-effect="none" fill-rule="evenodd" d="M1.4e+06,660000 L1.4e+06,5.28e+06 L9.3e+06,5.28e+06 L9.3e+06,660000 L1.4e+06,660000"/>
</g>

<g fill="#212121" fill-opacity="0.14902" stroke="#212121" stroke-opacity="0.14902" stroke-width="1" stroke-linecap="butt" stroke-linejoin="round" transform="matrix(0.5,0,0,0.5,0,0)"
font-family="MS Shell Dlg 2" font-size="8" font-weight="400" font-style="normal" 
>
<polyline fill="none" vector-effect="none" points="256.918,66 256.918,528 " />
<polyline fill="none" vector-effect="none" points="425.777,66 425.777,528 " />
<polyline fill="none" vector-effect="none" points="594.635,66 594.635,528 " />
<polyline fill="none" vector-effect="none" points="763.493,66 763.493,528 " />
<polyline fill="none" vector-effect="none" points="140,512.808 930,512.808 " />
<polyline fill="none" vector-effect="none" points="140,404.814 930,404.814 " />
<polyline fill="none" vector-effect="none" points="140,296.819 930,296.819 " />
<polyline fill="none" vector-effect="none" points="140,188.825 930,188.825 " />
<polyline fill="none" vector-effect="none" points="140,80.8305 930,80.8305 " />
</g>

<g fill="#212121" fill-opacity="1" stroke="none" transform="matrix(0.5,0,0,0.5,228.328,311.48)"
font-family="MS Shell Dlg 2" font-size="8" font-weight="400" font-style="normal" 
>
<path vector-effect="none" fill-rule="evenodd" d="M7.4375,0 L7.4375,-1.54688 C8.90625,-1.54688 10.3359,-1.63021 11.7266,-1.79688 C13.1172,-1.96354 13.8125,-2.34375 13.8125,-2.9375 L13.8125,-27.1094 C13.8125,-27.7448 13.638,-28.138 13.2891,-28.2891 C12.9401,-28.4401 12.3698,-28.5156 11.5781,-28.5156 L9.73438,-28.5156 C7.31771,-28.5156 5.59896,-27.9844 4.57813,-26.9219 C4.04688,-26.3906 3.66667,-25.5417 3.4375,-24.375 C3.20833,-23.2083 3.01563,-21.7448 2.85938,-19.9844 L1.59375,-19.9844 L2.42188,-30.0625 L29.3125,-30.0625 L30.1406,-19.9844 L28.8594,-19.9844 C28.6823,-21.8698 28.4896,-23.3672 28.2813,-24.4766 C28.0729,-25.5859 27.6979,-26.401 27.1563,-26.9219 C26.125,-27.9844 24.4063,-28.5156 22,-28.5156 L20.1563,-28.5156 C19.625,-28.5156 19.2135,-28.4922 18.9219,-28.4453 C18.6302,-28.3984 18.3906,-28.2734 18.2031,-28.0703 C18.0156,-27.8672 17.9219,-27.5469 17.9219,-27.1094 L17.9219,-2.9375 C17.9219,-2.34375 18.6172,-1.96354 20.0078,-1.79688 C21.3984,-1.63021 22.8229,-1.54688 24.2813,-1.54688 L24.2813,0 L7.4375,0"/>
</g>

<g fill="#212121" fill-opacity="1" stroke="none" transform="matrix(0.5,0,0,0.5,244.217,311.48)"
font-family="MS Shell Dlg 2" font-size="8" font-weight="400" font-style="normal" 
>
<path vector-effect="none" fill-rule="evenodd" d="M1.35938,0 L1.35938,-1.54688 C2.35938,-1.54688 3.18229,-1.625 3.82813,-1.78125 C4.47396,-1.9375 4.79688,-2.32292 4.79688,-2.9375 L4.79688,-14.9531 C4.79688,-16.0885 4.57813,-16.7839 4.14063,-17.0391 C3.70313,-17.2943 2.83854,-17.4219 1.54688,-17.4219 L1.54688,-18.9688 L7.89063,-19.4375 L7.89063,-2.9375 C7.89063,-2.32292 8.16927,-1.9375 8.72656,-1.78125 C9.28385,-1.625 10.026,-1.54688 10.9531,-1.54688 L10.9531,0 L1.35938,0 M3.21875,-27 C3.21875,-27.6458 3.46354,-28.2135 3.95313,-28.7031 C4.44271,-29.1927 5,-29.4375 5.625,-29.4375 C6.04167,-29.4375 6.44271,-29.3307 6.82813,-29.1172 C7.21354,-28.9036 7.51563,-28.6016 7.73438,-28.2109 C7.95313,-27.8203 8.0625,-27.4167 8.0625,-27 C8.0625,-26.375 7.81771,-25.8177 7.32813,-25.3281 C6.83854,-24.8385 6.27083,-24.5938 5.625,-24.5938 C5,-24.5938 4.44271,-24.8385 3.95313,-25.3281 C3.46354,-25.8177 3.21875,-26.375 3.21875,-27 "/>
</g>

<g fill="#212121" fill-opacity="1" stroke="none" transform="matrix(0.5,0,0,0.5,250.328,311.48)"
font-family="MS Shell Dlg 2" font-size="8" font-weight="400" font-style="normal" 
>
<path vector-effect="none" fill-rule="evenodd" d="M1.3125,0 L1.3125,-1.54688 C2.3125,-1.54688 3.13542,-1.625 3.78125,-1.78125 C4.42708,-1.9375 4.75,-2.32292 4.75,-2.9375 L4.75,-14.9531 C4.75,-15.7448 4.63281,-16.3151 4.39844,-16.6641 C4.16406,-17.013 3.82292,-17.2266 3.375,-17.3047 C2.92708,-17.3828 2.23958,-17.4219 1.3125,-17.4219 L1.3125,-18.9688 L7.6875,-19.4375 L7.6875,-15.1406 C8.28125,-16.401 9.15365,-17.4323 10.3047,-18.2344 C11.4557,-19.0365 12.7135,-19.4375 14.0781,-19.4375 C17.4531,-19.4375 19.4375,-18.0625 20.0313,-15.3125 C20.6146,-16.5521 21.4714,-17.5495 22.6016,-18.3047 C23.7318,-19.0599 24.9688,-19.4375 26.3125,-19.4375 C27.6458,-19.4375 28.7682,-19.224 29.6797,-18.7969 C30.5911,-18.3698 31.276,-17.7161 31.7344,-16.8359 C32.1927,-15.9557 32.4219,-14.849 32.4219,-13.5156 L32.4219,-2.9375 C32.4219,-2.32292 32.7474,-1.9375 33.3984,-1.78125 C34.0495,-1.625 34.8698,-1.54688 35.8594,-1.54688 L35.8594,0 L25.7813,0 L25.7813,-1.54688 C26.7813,-1.54688 27.6042,-1.625 28.25,-1.78125 C28.8958,-1.9375 29.2188,-2.32292 29.2188,-2.9375 L29.2188,-13.3906 C29.2188,-14.8594 29.0104,-16.0469 28.5938,-16.9531 C28.1771,-17.8594 27.3281,-18.3125 26.0469,-18.3125 C24.349,-18.3125 22.9505,-17.6302 21.8516,-16.2656 C20.7526,-14.901 20.2031,-13.3542 20.2031,-11.625 L20.2031,-2.9375 C20.2031,-2.32292 20.5234,-1.9375 21.1641,-1.78125 C21.8047,-1.625 22.6302,-1.54688 23.6406,-1.54688 L23.6406,0 L13.5625,0 L13.5625,-1.54688 C14.5625,-1.54688 15.3854,-1.625 16.0313,-1.78125 C16.6771,-1.9375 17,-2.32292 17,-2.9375 L17,-13.3906 C17,-14.8177 16.7917,-15.9948 16.375,-16.9219 C15.9583,-17.849 15.1042,-18.3125 13.8125,-18.3125 C12.1146,-18.3125 10.7161,-17.6302 9.61719,-16.2656 C8.51823,-14.901 7.96875,-13.3542 7.96875,-11.625 L7.96875,-2.9375 C7.96875,-2.32292 8.29167,-1.9375 8.9375,-1.78125 C9.58333,-1.625 10.401,-1.54688 11.3906,-1.54688 L11.3906,0 L1.3125,0"/>
</g>

<g fill="#212121" fill-opacity="1" stroke="none" transform="matrix(0.5,0,0,0.5,268.661,311.48)"
font-family="MS Shell Dlg 2" font-size="8" font-weight="400" font-style="normal" 
>
<path vector-effect="none" fill-rule="evenodd" d="M10.9531,0.5 C9.16146,0.5 7.51823,0.0286458 6.02344,-0.914063 C4.52865,-1.85677 3.35417,-3.11198 2.5,-4.67969 C1.64583,-6.2474 1.21875,-7.90104 1.21875,-9.64063 C1.21875,-11.3594 1.60938,-12.9922 2.39063,-14.5391 C3.17188,-16.0859 4.26042,-17.3359 5.65625,-18.2891 C7.05208,-19.2422 8.60938,-19.7188 10.3281,-19.7188 C11.6823,-19.7188 12.8568,-19.4948 13.8516,-19.0469 C14.8464,-18.599 15.6667,-17.974 16.3125,-17.1719 C16.9583,-16.3698 17.4453,-15.4245 17.7734,-14.3359 C18.1016,-13.2474 18.2656,-12.0521 18.2656,-10.75 C18.2656,-10.3542 18.1146,-10.1563 17.8125,-10.1563 L5.07813,-10.1563 L5.07813,-9.6875 C5.07813,-7.26042 5.56771,-5.17448 6.54688,-3.42969 C7.52604,-1.6849 9.125,-0.8125 11.3438,-0.8125 C12.25,-0.8125 13.0859,-1.01302 13.8516,-1.41406 C14.6172,-1.8151 15.2813,-2.3724 15.8438,-3.08594 C16.4063,-3.79948 16.7917,-4.5625 17,-5.375 C17.0208,-5.47917 17.0729,-5.57031 17.1563,-5.64844 C17.2396,-5.72656 17.3281,-5.76563 17.4219,-5.76563 L17.8125,-5.76563 C18.1146,-5.76563 18.2656,-5.57813 18.2656,-5.20313 C17.849,-3.54688 16.9531,-2.18229 15.5781,-1.10938 C14.2031,-0.0364583 12.6615,0.5 10.9531,0.5 M5.10938,-11.2656 L15.1406,-11.2656 C15.1406,-12.3594 14.987,-13.4714 14.6797,-14.6016 C14.3724,-15.7318 13.862,-16.6719 13.1484,-17.4219 C12.4349,-18.1719 11.4948,-18.5469 10.3281,-18.5469 C8.67188,-18.5469 7.38802,-17.7708 6.47656,-16.2188 C5.5651,-14.6667 5.10938,-13.0156 5.10938,-11.2656 "/>
</g>

<g fill="#212121" fill-opacity="1" stroke="none" transform="matrix(0.5,0,0,0.5,285.772,311.48)"
font-family="MS Shell Dlg 2" font-size="8" font-weight="400" font-style="normal" 
>
<path vector-effect="none" fill-rule="evenodd" d="M5.20313,11 L5.20313,-33 L11.2188,-33 L11.2188,-31.2344 L6.96875,-31.2344 L6.96875,9.23438 L11.2188,9.23438 L11.2188,11 L5.20313,11"/>
</g>

<g fill="#212121" fill-opacity="1" stroke="none" transform="matrix(0.5,0,0,0.5,291.883,311.48)"
font-family="MS Shell Dlg 2" font-size="8" font-weight="400" font-style="normal" 
>
<path vector-effect="none" fill-rule="evenodd" d="M1.46875,0.125 L1.46875,-7.0625 C1.46875,-7.29167 1.59375,-7.40625 1.84375,-7.40625 L2.39063,-7.40625 C2.55729,-7.40625 2.67188,-7.29167 2.73438,-7.0625 C3.54688,-2.8125 5.52083,-0.6875 8.65625,-0.6875 C10.0521,-0.6875 11.2188,-1.0026 12.1563,-1.63281 C13.0938,-2.26302 13.5625,-3.23958 13.5625,-4.5625 C13.5625,-5.5 13.1953,-6.30208 12.4609,-6.96875 C11.7266,-7.63542 10.8594,-8.09375 9.85938,-8.34375 L6.92188,-8.92188 C5.93229,-9.13021 5.03385,-9.45573 4.22656,-9.89844 C3.41927,-10.3411 2.75781,-10.9323 2.24219,-11.6719 C1.72656,-12.4115 1.46875,-13.2656 1.46875,-14.2344 C1.46875,-15.5156 1.80729,-16.5677 2.48438,-17.3906 C3.16146,-18.2135 4.04427,-18.8073 5.13281,-19.1719 C6.22135,-19.5365 7.39583,-19.7188 8.65625,-19.7188 C10.1667,-19.7188 11.4792,-19.3281 12.5938,-18.5469 L13.8594,-19.6094 C13.8594,-19.6823 13.9323,-19.7188 14.0781,-19.7188 L14.3906,-19.7188 C14.4844,-19.7188 14.5651,-19.6797 14.6328,-19.6016 C14.7005,-19.5234 14.7344,-19.4427 14.7344,-19.3594 L14.7344,-13.625 C14.7344,-13.3542 14.6198,-13.2188 14.3906,-13.2188 L13.8594,-13.2188 C13.599,-13.2188 13.4688,-13.3542 13.4688,-13.625 C13.4688,-15.1563 13.0443,-16.388 12.1953,-17.3203 C11.3464,-18.2526 10.151,-18.7188 8.60938,-18.7188 C7.29688,-18.7188 6.15625,-18.474 5.1875,-17.9844 C4.21875,-17.4948 3.73438,-16.6563 3.73438,-15.4688 C3.73438,-14.6563 4.08333,-13.987 4.78125,-13.4609 C5.47917,-12.9349 6.29167,-12.5573 7.21875,-12.3281 L10.2031,-11.7813 C11.2031,-11.5417 12.138,-11.151 13.0078,-10.6094 C13.8776,-10.0677 14.5651,-9.38021 15.0703,-8.54688 C15.5755,-7.71354 15.8281,-6.77083 15.8281,-5.71875 C15.8281,-4.66667 15.6458,-3.7474 15.2813,-2.96094 C14.9167,-2.17448 14.4089,-1.52344 13.7578,-1.00781 C13.1068,-0.492188 12.3385,-0.111979 11.4531,0.132813 C10.5677,0.377604 9.63542,0.5 8.65625,0.5 C6.82292,0.5 5.25521,-0.125 3.95313,-1.375 L2.34375,0.390625 C2.34375,0.463542 2.26563,0.5 2.10938,0.5 L1.84375,0.5 C1.59375,0.5 1.46875,0.375 1.46875,0.125 "/>
</g>

<g fill="#212121" fill-opacity="1" stroke="none" transform="matrix(0.5,0,0,0.5,300.561,311.48)"
font-family="MS Shell Dlg 2" font-size="8" font-weight="400" font-style="normal" 
>
<path vector-effect="none" fill-rule="evenodd" d="M0.96875,11 L0.96875,9.23438 L5.25,9.23438 L5.25,-31.2344 L0.96875,-31.2344 L0.96875,-33 L7,-33 L7,11 L0.96875,11"/>
</g>

<g fill="#212121" fill-opacity="1" stroke="#212121" stroke-opacity="1" stroke-width="1" stroke-linecap="square" stroke-linejoin="round" transform="matrix(0.5,0,0,0.5,0,0)"
font-family="MS Shell Dlg 2" font-size="8" font-weight="400" font-style="normal" 
>
<polyline fill="none" vector-effect="none" points="140,528 930,528 " />
<polyline fill="none" vector-effect="none" points="140,66 930,66 " />
<polyline fill="none" vector-effect="none" points="256.918,528 256.918,520.1 " />
<polyline fill="none" vector-effect="none" points="256.918,73.9 256.918,66 " />
<polyline fill="none" vector-effect="none" points="425.777,528 425.777,520.1 " />
<polyline fill="none" vector-effect="none" points="425.777,73.9 425.777,66 " />
<polyline fill="none" vector-effect="none" points="594.635,528 594.635,520.1 " />
<polyline fill="none" vector-effect="none" points="594.635,73.9 594.635,66 " />
<polyline fill="none" vector-effect="none" points="763.493,528 763.493,520.1 " />
<polyline fill="none" vector-effect="none" points="763.493,73.9 763.493,66 " />
</g>

<g fill="#212121" fill-opacity="1" stroke="none" transform="matrix(0.5,0,0,0.5,117.459,288.5)"
font-family="MS Shell Dlg 2" font-size="8" font-weight="400" font-style="normal" 
>
<path vector-effect="none" fill-rule="evenodd" d="M14.9063,0 L11.3906,0 L11.3906,-22.4063 C10.5469,-21.5938 9.4375,-20.7839 8.0625,-19.9766 C6.6875,-19.1693 5.45313,-18.5677 4.35938,-18.1719 L4.35938,-21.5625 C6.32813,-22.4896 8.04688,-23.6094 9.51563,-24.9219 C10.9844,-26.2344 12.026,-27.5104 12.6406,-28.75 L14.9063,-28.75 L14.9063,0 M23.6563,-7.5 L27.3594,-7.8125 C27.6302,-6.02083 28.263,-4.67188 29.2578,-3.76563 C30.2526,-2.85938 31.4531,-2.40625 32.8594,-2.40625 C34.5573,-2.40625 35.9922,-3.04427 37.1641,-4.32031 C38.3359,-5.59635 38.9219,-7.28646 38.9219,-9.39063 C38.9219,-11.401 38.3568,-12.9844 37.2266,-14.1406 C36.0964,-15.2969 34.6198,-15.875 32.7969,-15.875 C31.6719,-15.875 30.6536,-15.6198 29.7422,-15.1094 C28.8307,-14.599 28.1146,-13.9323 27.5938,-13.1094 L24.2813,-13.5313 L27.0625,-28.25 L41.2969,-28.25 L41.2969,-24.8906 L29.875,-24.8906 L28.3281,-17.1875 C30.0469,-18.3854 31.849,-18.9844 33.7344,-18.9844 C36.2344,-18.9844 38.3438,-18.1198 40.0625,-16.3906 C41.7813,-14.6615 42.6406,-12.4323 42.6406,-9.70313 C42.6406,-7.11979 41.8854,-4.88021 40.375,-2.98438 C38.5417,-0.671875 36.0365,0.484375 32.8594,0.484375 C30.2552,0.484375 28.1302,-0.244792 26.4844,-1.70313 C24.8385,-3.16146 23.8958,-5.09375 23.6563,-7.5 "/>
</g>

<g fill="#212121" fill-opacity="1" stroke="none" transform="matrix(0.5,0,0,0.5,201.888,288.5)"
font-family="MS Shell Dlg 2" font-size="8" font-weight="400" font-style="normal" 
>
<path vector-effect="none" fill-rule="evenodd" d="M20.1406,-3.375 L20.1406,0 L1.21875,0 C1.1875,-0.84375 1.32292,-1.65625 1.625,-2.4375 C2.10417,-3.72917 2.875,-5 3.9375,-6.25 C5,-7.5 6.53125,-8.94792 8.53125,-10.5938 C11.6458,-13.1458 13.75,-15.1667 14.8438,-16.6563 C15.9375,-18.1458 16.4844,-19.5521 16.4844,-20.875 C16.4844,-22.2708 15.987,-23.4479 14.9922,-24.4063 C13.9974,-25.3646 12.6979,-25.8438 11.0938,-25.8438 C9.40625,-25.8438 8.05469,-25.3359 7.03906,-24.3203 C6.02344,-23.3047 5.50521,-21.8958 5.48438,-20.0938 L1.875,-20.4688 C2.125,-23.1667 3.05729,-25.2214 4.67188,-26.6328 C6.28646,-28.0443 8.45313,-28.75 11.1719,-28.75 C13.9219,-28.75 16.0964,-27.9896 17.6953,-26.4688 C19.2943,-24.9479 20.0938,-23.0573 20.0938,-20.7969 C20.0938,-19.651 19.8594,-18.526 19.3906,-17.4219 C18.9219,-16.3177 18.1458,-15.1536 17.0625,-13.9297 C15.9792,-12.7057 14.1719,-11.026 11.6406,-8.89063 C9.53646,-7.11979 8.1849,-5.91927 7.58594,-5.28906 C6.98698,-4.65885 6.48958,-4.02083 6.09375,-3.375 L20.1406,-3.375 M23.6563,-14.125 C23.6563,-17.5104 24.0052,-20.2344 24.7031,-22.2969 C25.401,-24.3594 26.4375,-25.9505 27.8125,-27.0703 C29.1875,-28.1901 30.9167,-28.75 33,-28.75 C34.5313,-28.75 35.8776,-28.4401 37.0391,-27.8203 C38.2005,-27.2005 39.1589,-26.3099 39.9141,-25.1484 C40.6693,-23.987 41.2604,-22.5677 41.6875,-20.8906 C42.1146,-19.2135 42.3281,-16.9583 42.3281,-14.125 C42.3281,-10.7604 41.9844,-8.04688 41.2969,-5.98438 C40.6094,-3.92188 39.5781,-2.32813 38.2031,-1.20313 C36.8281,-0.078125 35.0938,0.484375 33,0.484375 C30.2396,0.484375 28.0729,-0.505208 26.5,-2.48438 C24.6042,-4.86979 23.6563,-8.75 23.6563,-14.125 M27.2813,-14.125 C27.2813,-9.42708 27.8307,-6.29948 28.9297,-4.74219 C30.0286,-3.1849 31.3854,-2.40625 33,-2.40625 C34.6146,-2.40625 35.9714,-3.1875 37.0703,-4.75 C38.1693,-6.3125 38.7188,-9.4375 38.7188,-14.125 C38.7188,-18.8333 38.1693,-21.9635 37.0703,-23.5156 C35.9714,-25.0677 34.599,-25.8438 32.9531,-25.8438 C31.3385,-25.8438 30.0521,-25.1615 29.0938,-23.7969 C27.8854,-22.0469 27.2813,-18.8229 27.2813,-14.125 "/>
</g>

<g fill="#212121" fill-opacity="1" stroke="none" transform="matrix(0.5,0,0,0.5,286.317,288.5)"
font-family="MS Shell Dlg 2" font-size="8" font-weight="400" font-style="normal" 
>
<path vector-effect="none" fill-rule="evenodd" d="M20.1406,-3.375 L20.1406,0 L1.21875,0 C1.1875,-0.84375 1.32292,-1.65625 1.625,-2.4375 C2.10417,-3.72917 2.875,-5 3.9375,-6.25 C5,-7.5 6.53125,-8.94792 8.53125,-10.5938 C11.6458,-13.1458 13.75,-15.1667 14.8438,-16.6563 C15.9375,-18.1458 16.4844,-19.5521 16.4844,-20.875 C16.4844,-22.2708 15.987,-23.4479 14.9922,-24.4063 C13.9974,-25.3646 12.6979,-25.8438 11.0938,-25.8438 C9.40625,-25.8438 8.05469,-25.3359 7.03906,-24.3203 C6.02344,-23.3047 5.50521,-21.8958 5.48438,-20.0938 L1.875,-20.4688 C2.125,-23.1667 3.05729,-25.2214 4.67188,-26.6328 C6.28646,-28.0443 8.45313,-28.75 11.1719,-28.75 C13.9219,-28.75 16.0964,-27.9896 17.6953,-26.4688 C19.2943,-24.9479 20.0938,-23.0573 20.0938,-20.7969 C20.0938,-19.651 19.8594,-18.526 19.3906,-17.4219 C18.9219,-16.3177 18.1458,-15.1536 17.0625,-13.9297 C15.9792,-12.7057 14.1719,-11.026 11.6406,-8.89063 C9.53646,-7.11979 8.1849,-5.91927 7.58594,-5.28906 C6.98698,-4.65885 6.48958,-4.02083 6.09375,-3.375 L20.1406,-3.375 M23.6563,-7.5 L27.3594,-7.8125 C27.6302,-6.02083 28.263,-4.67188 29.2578,-3.76563 C30.2526,-2.85938 31.4531,-2.40625 32.8594,-2.40625 C34.5573,-2.40625 35.9922,-3.04427 37.1641,-4.32031 C38.3359,-5.59635 38.9219,-7.28646 38.9219,-9.39063 C38.9219,-11.401 38.3568,-12.9844 37.2266,-14.1406 C36.0964,-15.2969 34.6198,-15.875 32.7969,-15.875 C31.6719,-15.875 30.6536,-15.6198 29.7422,-15.1094 C28.8307,-14.599 28.1146,-13.9323 27.5938,-13.1094 L24.2813,-13.5313 L27.0625,-28.25 L41.2969,-28.25 L41.2969,-24.8906 L29.875,-24.8906 L28.3281,-17.1875 C30.0469,-18.3854 31.849,-18.9844 33.7344,-18.9844 C36.2344,-18.9844 38.3438,-18.1198 40.0625,-16.3906 C41.7813,-14.6615 42.6406,-12.4323 42.6406,-9.70313 C42.6406,-7.11979 41.8854,-4.88021 40.375,-2.98438 C38.5417,-0.671875 36.0365,0.484375 32.8594,0.484375 C30.2552,0.484375 28.1302,-0.244792 26.4844,-1.70313 C24.8385,-3.16146 23.8958,-5.09375 23.6563,-7.5 "/>
</g>

<g fill="#212121" fill-opacity="1" stroke="none" transform="matrix(0.5,0,0,0.5,370.746,288.5)"
font-family="MS Shell Dlg 2" font-size="8" font-weight="400" font-style="normal" 
>
<path vector-effect="none" fill-rule="evenodd" d="M1.6875,-7.5625 L5.20313,-8.03125 C5.59896,-6.04167 6.28385,-4.60677 7.25781,-3.72656 C8.23177,-2.84635 9.41146,-2.40625 10.7969,-2.40625 C12.4531,-2.40625 13.8516,-2.97917 14.9922,-4.125 C16.1328,-5.27083 16.7031,-6.6875 16.7031,-8.375 C16.7031,-9.98958 16.1745,-11.3229 15.1172,-12.375 C14.0599,-13.4271 12.7188,-13.9531 11.0938,-13.9531 C10.4271,-13.9531 9.59896,-13.8229 8.60938,-13.5625 L9,-16.6406 C9.23958,-16.6198 9.43229,-16.6094 9.57813,-16.6094 C11.0677,-16.6094 12.4115,-17 13.6094,-17.7813 C14.8073,-18.5625 15.4063,-19.7656 15.4063,-21.3906 C15.4063,-22.6823 14.9714,-23.75 14.1016,-24.5938 C13.2318,-25.4375 12.1042,-25.8594 10.7188,-25.8594 C9.35417,-25.8594 8.21615,-25.4297 7.30469,-24.5703 C6.39323,-23.7109 5.80729,-22.4219 5.54688,-20.7031 L2.03125,-21.3281 C2.45833,-23.6823 3.4349,-25.5078 4.96094,-26.8047 C6.48698,-28.1016 8.38021,-28.75 10.6406,-28.75 C12.2031,-28.75 13.6432,-28.4141 14.9609,-27.7422 C16.2786,-27.0703 17.2865,-26.1563 17.9844,-25 C18.6823,-23.8438 19.0313,-22.6146 19.0313,-21.3125 C19.0313,-20.0729 18.6979,-18.9453 18.0313,-17.9297 C17.3646,-16.9141 16.3802,-16.1094 15.0781,-15.5156 C16.776,-15.1198 18.0938,-14.3073 19.0313,-13.0781 C19.9688,-11.849 20.4375,-10.3073 20.4375,-8.45313 C20.4375,-5.95313 19.526,-3.83333 17.7031,-2.09375 C15.8802,-0.354167 13.5729,0.515625 10.7813,0.515625 C8.27083,0.515625 6.1849,-0.234375 4.52344,-1.73438 C2.86198,-3.23438 1.91667,-5.17708 1.6875,-7.5625 M23.6563,-14.125 C23.6563,-17.5104 24.0052,-20.2344 24.7031,-22.2969 C25.401,-24.3594 26.4375,-25.9505 27.8125,-27.0703 C29.1875,-28.1901 30.9167,-28.75 33,-28.75 C34.5313,-28.75 35.8776,-28.4401 37.0391,-27.8203 C38.2005,-27.2005 39.1589,-26.3099 39.9141,-25.1484 C40.6693,-23.987 41.2604,-22.5677 41.6875,-20.8906 C42.1146,-19.2135 42.3281,-16.9583 42.3281,-14.125 C42.3281,-10.7604 41.9844,-8.04688 41.2969,-5.98438 C40.6094,-3.92188 39.5781,-2.32813 38.2031,-1.20313 C36.8281,-0.078125 35.0938,0.484375 33,0.484375 C30.2396,0.484375 28.0729,-0.505208 26.5,-2.48438 C24.6042,-4.86979 23.6563,-8.75 23.6563,-14.125 M27.2813,-14.125 C27.2813,-9.42708 27.8307,-6.29948 28.9297,-4.74219 C30.0286,-3.1849 31.3854,-2.40625 33,-2.40625 C34.6146,-2.40625 35.9714,-3.1875 37.0703,-4.75 C38.1693,-6.3125 38.7188,-9.4375 38.7188,-14.125 C38.7188,-18.8333 38.1693,-21.9635 37.0703,-23.5156 C35.9714,-25.0677 34.599,-25.8438 32.9531,-25.8438 C31.3385,-25.8438 30.0521,-25.1615 29.0938,-23.7969 C27.8854,-22.0469 27.2813,-18.8229 27.2813,-14.125 "/>
</g>

<g fill="#212121" fill-opacity="1" stroke="#212121" stroke-opacity="1" stroke-width="1" stroke-linecap="square" stroke-linejoin="round" transform="matrix(0.5,0,0,0.5,0,0)"
font-family="MS Shell Dlg 2" font-size="8" font-weight="400" font-style="normal" 
>
<polyline fill="none" vector-effect="none" points="140,528 140,66 " />
<polyline fill="none" vector-effect="none" points="930,528 930,66 " />
<polyline fill="none" vector-effect="none" points="140,512.808 147.9,512.808 " />
<polyline fill="none" vector-effect="none" points="140,404.814 147.9,404.814 " />
<polyline fill="none" vector-effect="none" points="140,296.819 147.9,296.819 " />
<polyline fill="none" vector-effect="none" points="140,188.825 147.9,188.825 " />
<polyline fill="none" vector-effect="none" points="140,80.8305 147.9,80.8305 " />
<polyline fill="none" vector-effect="none" points="930,512.808 922.1,512.808 " />
<polyline fill="none" vector-effect="none" points="930,404.814 922.1,404.814 " />
<polyline fill="none" vector-effect="none" points="930,296.819 922.1,296.819 " />
<polyline fill="none" vector-effect="none" points="930,188.825 922.1,188.825 " />
<polyline fill="none" vector-effect="none" points="930,80.8305 922.1,80.8305 " />
</g>

<g fill="#212121" fill-opacity="1" stroke="none" transform="matrix(0.5,0,0,0.5,53,263.404)"
font-family="MS Shell Dlg 2" font-size="8" font-weight="400" font-style="normal" 
>
<path vector-effect="none" fill-rule="evenodd" d="M1.65625,-14.125 C1.65625,-17.5104 2.00521,-20.2344 2.70313,-22.2969 C3.40104,-24.3594 4.4375,-25.9505 5.8125,-27.0703 C7.1875,-28.1901 8.91667,-28.75 11,-28.75 C12.5313,-28.75 13.8776,-28.4401 15.0391,-27.8203 C16.2005,-27.2005 17.1589,-26.3099 17.9141,-25.1484 C18.6693,-23.987 19.2604,-22.5677 19.6875,-20.8906 C20.1146,-19.2135 20.3281,-16.9583 20.3281,-14.125 C20.3281,-10.7604 19.9844,-8.04688 19.2969,-5.98438 C18.6094,-3.92188 17.5781,-2.32813 16.2031,-1.20313 C14.8281,-0.078125 13.0938,0.484375 11,0.484375 C8.23958,0.484375 6.07292,-0.505208 4.5,-2.48438 C2.60417,-4.86979 1.65625,-8.75 1.65625,-14.125 M5.28125,-14.125 C5.28125,-9.42708 5.83073,-6.29948 6.92969,-4.74219 C8.02865,-3.1849 9.38542,-2.40625 11,-2.40625 C12.6146,-2.40625 13.9714,-3.1875 15.0703,-4.75 C16.1693,-6.3125 16.7188,-9.4375 16.7188,-14.125 C16.7188,-18.8333 16.1693,-21.9635 15.0703,-23.5156 C13.9714,-25.0677 12.599,-25.8438 10.9531,-25.8438 C9.33854,-25.8438 8.05208,-25.1615 7.09375,-23.7969 C5.88542,-22.0469 5.28125,-18.8229 5.28125,-14.125 "/>
</g>

<g fill="#212121" fill-opacity="1" stroke="none" transform="matrix(0.5,0,0,0.5,53,209.407)"
font-family="MS Shell Dlg 2" font-size="8" font-weight="400" font-style="normal" 
>
<path vector-effect="none" fill-rule="evenodd" d="M1.65625,-7.5 L5.35938,-7.8125 C5.63021,-6.02083 6.26302,-4.67188 7.25781,-3.76563 C8.2526,-2.85938 9.45313,-2.40625 10.8594,-2.40625 C12.5573,-2.40625 13.9922,-3.04427 15.1641,-4.32031 C16.3359,-5.59635 16.9219,-7.28646 16.9219,-9.39063 C16.9219,-11.401 16.3568,-12.9844 15.2266,-14.1406 C14.0964,-15.2969 12.6198,-15.875 10.7969,-15.875 C9.67188,-15.875 8.65365,-15.6198 7.74219,-15.1094 C6.83073,-14.599 6.11458,-13.9323 5.59375,-13.1094 L2.28125,-13.5313 L5.0625,-28.25 L19.2969,-28.25 L19.2969,-24.8906 L7.875,-24.8906 L6.32813,-17.1875 C8.04688,-18.3854 9.84896,-18.9844 11.7344,-18.9844 C14.2344,-18.9844 16.3438,-18.1198 18.0625,-16.3906 C19.7813,-14.6615 20.6406,-12.4323 20.6406,-9.70313 C20.6406,-7.11979 19.8854,-4.88021 18.375,-2.98438 C16.5417,-0.671875 14.0365,0.484375 10.8594,0.484375 C8.25521,0.484375 6.13021,-0.244792 4.48438,-1.70313 C2.83854,-3.16146 1.89583,-5.09375 1.65625,-7.5 "/>
</g>

<g fill="#212121" fill-opacity="1" stroke="none" transform="matrix(0.5,0,0,0.5,42,155.41)"
font-family="MS Shell Dlg 2" font-size="8" font-weight="400" font-style="normal" 
>
<path vector-effect="none" fill-rule="evenodd" d="M14.9063,0 L11.3906,0 L11.3906,-22.4063 C10.5469,-21.5938 9.4375,-20.7839 8.0625,-19.9766 C6.6875,-19.1693 5.45313,-18.5677 4.35938,-18.1719 L4.35938,-21.5625 C6.32813,-22.4896 8.04688,-23.6094 9.51563,-24.9219 C10.9844,-26.2344 12.026,-27.5104 12.6406,-28.75 L14.9063,-28.75 L14.9063,0 M23.6563,-14.125 C23.6563,-17.5104 24.0052,-20.2344 24.7031,-22.2969 C25.401,-24.3594 26.4375,-25.9505 27.8125,-27.0703 C29.1875,-28.1901 30.9167,-28.75 33,-28.75 C34.5313,-28.75 35.8776,-28.4401 37.0391,-27.8203 C38.2005,-27.2005 39.1589,-26.3099 39.9141,-25.1484 C40.6693,-23.987 41.2604,-22.5677 41.6875,-20.8906 C42.1146,-19.2135 42.3281,-16.9583 42.3281,-14.125 C42.3281,-10.7604 41.9844,-8.04688 41.2969,-5.98438 C40.6094,-3.92188 39.5781,-2.32813 38.2031,-1.20313 C36.8281,-0.078125 35.0938,0.484375 33,0.484375 C30.2396,0.484375 28.0729,-0.505208 26.5,-2.48438 C24.6042,-4.86979 23.6563,-8.75 23.6563,-14.125 M27.2813,-14.125 C27.2813,-9.42708 27.8307,-6.29948 28.9297,-4.74219 C30.0286,-3.1849 31.3854,-2.40625 33,-2.40625 C34.6146,-2.40625 35.9714,-3.1875 37.0703,-4.75 C38.1693,-6.3125 38.7188,-9.4375 38.7188,-14.125 C38.7188,-18.8333 38.1693,-21.9635 37.0703,-23.5156 C35.9714,-25.0677 34.599,-25.8438 32.9531,-25.8438 C31.3385,-25.8438 30.0521,-25.1615 29.0938,-23.7969 C27.8854,-22.0469 27.2813,-18.8229 27.2813,-14.125 "/>
</g>

<g fill="#212121" fill-opacity="1" stroke="none" transform="matrix(0.5,0,0,0.5,42,101.412)"
font-family="MS Shell Dlg 2" font-size="8" font-weight="400" font-style="normal" 
>
<path vector-effect="none" fill-rule="evenodd" d="M14.9063,0 L11.3906,0 L11.3906,-22.4063 C10.5469,-21.5938 9.4375,-20.7839 8.0625,-19.9766 C6.6875,-19.1693 5.45313,-18.5677 4.35938,-18.1719 L4.35938,-21.5625 C6.32813,-22.4896 8.04688,-23.6094 9.51563,-24.9219 C10.9844,-26.2344 12.026,-27.5104 12.6406,-28.75 L14.9063,-28.75 L14.9063,0 M23.6563,-7.5 L27.3594,-7.8125 C27.6302,-6.02083 28.263,-4.67188 29.2578,-3.76563 C30.2526,-2.85938 31.4531,-2.40625 32.8594,-2.40625 C34.5573,-2.40625 35.9922,-3.04427 37.1641,-4.32031 C38.3359,-5.59635 38.9219,-7.28646 38.9219,-9.39063 C38.9219,-11.401 38.3568,-12.9844 37.2266,-14.1406 C36.0964,-15.2969 34.6198,-15.875 32.7969,-15.875 C31.6719,-15.875 30.6536,-15.6198 29.7422,-15.1094 C28.8307,-14.599 28.1146,-13.9323 27.5938,-13.1094 L24.2813,-13.5313 L27.0625,-28.25 L41.2969,-28.25 L41.2969,-24.8906 L29.875,-24.8906 L28.3281,-17.1875 C30.0469,-18.3854 31.849,-18.9844 33.7344,-18.9844 C36.2344,-18.9844 38.3438,-18.1198 40.0625,-16.3906 C41.7813,-14.6615 42.6406,-12.4323 42.6406,-9.70313 C42.6406,-7.11979 41.8854,-4.88021 40.375,-2.98438 C38.5417,-0.671875 36.0365,0.484375 32.8594,0.484375 C30.2552,0.484375 28.1302,-0.244792 26.4844,-1.70313 C24.8385,-3.16146 23.8958,-5.09375 23.6563,-7.5 "/>
</g>

<g fill="#212121" fill-opacity="1" stroke="none" transform="matrix(0.5,0,0,0.5,42,47.4153)"
font-family="MS Shell Dlg 2" font-size="8" font-weight="400" font-style="normal" 
>
<path vector-effect="none" fill-rule="evenodd" d="M20.1406,-3.375 L20.1406,0 L1.21875,0 C1.1875,-0.84375 1.32292,-1.65625 1.625,-2.4375 C2.10417,-3.72917 2.875,-5 3.9375,-6.25 C5,-7.5 6.53125,-8.94792 8.53125,-10.5938 C11.6458,-13.1458 13.75,-15.1667 14.8438,-16.6563 C15.9375,-18.1458 16.4844,-19.5521 16.4844,-20.875 C16.4844,-22.2708 15.987,-23.4479 14.9922,-24.4063 C13.9974,-25.3646 12.6979,-25.8438 11.0938,-25.8438 C9.40625,-25.8438 8.05469,-25.3359 7.03906,-24.3203 C6.02344,-23.3047 5.50521,-21.8958 5.48438,-20.0938 L1.875,-20.4688 C2.125,-23.1667 3.05729,-25.2214 4.67188,-26.6328 C6.28646,-28.0443 8.45313,-28.75 11.1719,-28.75 C13.9219,-28.75 16.0964,-27.9896 17.6953,-26.4688 C19.2943,-24.9479 20.0938,-23.0573 20.0938,-20.7969 C20.0938,-19.651 19.8594,-18.526 19.3906,-17.4219 C18.9219,-16.3177 18.1458,-15.1536 17.0625,-13.9297 C15.9792,-12.7057 14.1719,-11.026 11.6406,-8.89063 C9.53646,-7.11979 8.1849,-5.91927 7.58594,-5.28906 C6.98698,-4.65885 6.48958,-4.02083 6.09375,-3.375 L20.1406,-3.375 M23.6563,-14.125 C23.6563,-17.5104 24.0052,-20.2344 24.7031,-22.2969 C25.401,-24.3594 26.4375,-25.9505 27.8125,-27.0703 C29.1875,-28.1901 30.9167,-28.75 33,-28.75 C34.5313,-28.75 35.8776,-28.4401 37.0391,-27.8203 C38.2005,-27.2005 39.1589,-26.3099 39.9141,-25.1484 C40.6693,-23.987 41.2604,-22.5677 41.6875,-20.8906 C42.1146,-19.2135 42.3281,-16.9583 42.3281,-14.125 C42.3281,-10.7604 41.9844,-8.04688 41.2969,-5.98438 C40.6094,-3.92188 39.5781,-2.32813 38.2031,-1.20313 C36.8281,-0.078125 35.0938,0.484375 33,0.484375 C30.2396,0.484375 28.0729,-0.505208 26.5,-2.48438 C24.6042,-4.86979 23.6563,-8.75 23.6563,-14.125 M27.2813,-14.125 C27.2813,-9.42708 27.8307,-6.29948 28.9297,-4.74219 C30.0286,-3.1849 31.3854,-2.40625 33,-2.40625 C34.6146,-2.40625 35.9714,-3.1875 37.0703,-4.75 C38.1693,-6.3125 38.7188,-9.4375 38.7188,-14.125 C38.7188,-18.8333 38.1693,-21.9635 37.0703,-23.5156 C35.9714,-25.0677 34.599,-25.8438 32.9531,-25.8438 C31.3385,-25.8438 30.0521,-25.1615 29.0938,-23.7969 C27.8854,-22.0469 27.2813,-18.8229 27.2813,-14.125 "/>
</g>

<g fill="#212121" fill-opacity="1" stroke="none" transform="matrix(0,-0.5,0.5,0,30.5799,256.545)"
font-family="MS Shell Dlg 2" font-size="8" font-weight="400" font-style="normal" 
>
<path vector-effect="none" fill-rule="evenodd" d="M10.0313,-4.70313 C11.0313,-3.43229 12.2839,-2.42708 13.7891,-1.6875 C15.2943,-0.947917 16.8594,-0.578125 18.4844,-0.578125 C19.8385,-0.578125 21.0964,-0.846354 22.2578,-1.38281 C23.4193,-1.91927 24.4323,-2.66927 25.2969,-3.63281 C26.1615,-4.59635 26.8281,-5.6849 27.2969,-6.89844 C27.7656,-8.11198 28,-9.39583 28,-10.75 C28,-10.9792 28.125,-11.0938 28.375,-11.0938 L28.9219,-11.0938 C29.151,-11.0938 29.2656,-10.9479 29.2656,-10.6563 C29.2656,-9.125 28.9714,-7.64583 28.3828,-6.21875 C27.7943,-4.79167 26.9635,-3.53906 25.8906,-2.46094 C24.8177,-1.38281 23.5833,-0.541667 22.1875,0.0625 C20.7917,0.666667 19.3333,0.96875 17.8125,0.96875 C15.7083,0.96875 13.7135,0.541667 11.8281,-0.3125 C9.94271,-1.16667 8.30208,-2.33333 6.90625,-3.8125 C5.51042,-5.29167 4.42188,-7.00521 3.64063,-8.95313 C2.85938,-10.901 2.46875,-12.9323 2.46875,-15.0469 C2.46875,-17.151 2.85938,-19.1771 3.64063,-21.125 C4.42188,-23.0729 5.51042,-24.7917 6.90625,-26.2813 C8.30208,-27.7708 9.94271,-28.9349 11.8281,-29.7734 C13.7135,-30.612 15.7083,-31.0313 17.8125,-31.0313 C19.3125,-31.0313 20.75,-30.7031 22.125,-30.0469 C23.5,-29.3906 24.7031,-28.4688 25.7344,-27.2813 L28.2969,-30.8906 C28.4635,-30.9844 28.5625,-31.0313 28.5938,-31.0313 L28.9219,-31.0313 C29.0052,-31.0313 29.0833,-30.9948 29.1563,-30.9219 C29.2292,-30.849 29.2656,-30.7604 29.2656,-30.6563 L29.2656,-18.7813 C29.2656,-18.5208 29.151,-18.3906 28.9219,-18.3906 L28.125,-18.3906 C27.8542,-18.3906 27.7188,-18.5208 27.7188,-18.7813 C27.7188,-19.625 27.5495,-20.5703 27.2109,-21.6172 C26.8724,-22.6641 26.4427,-23.6563 25.9219,-24.5938 C25.401,-25.5313 24.7969,-26.3594 24.1094,-27.0781 C22.4635,-28.6823 20.5729,-29.4844 18.4375,-29.4844 C16.8125,-29.4844 15.2604,-29.1172 13.7813,-28.3828 C12.3021,-27.6484 11.0521,-26.6406 10.0313,-25.3594 C8.95833,-23.9844 8.21354,-22.4193 7.79688,-20.6641 C7.38021,-18.9089 7.17188,-17.0365 7.17188,-15.0469 C7.17188,-13.0469 7.38021,-11.1667 7.79688,-9.40625 C8.21354,-7.64583 8.95833,-6.07813 10.0313,-4.70313 "/>
</g>

<g fill="#212121" fill-opacity="1" stroke="none" transform="matrix(0,-0.5,0.5,0,30.5799,240.656)"
font-family="MS Shell Dlg 2" font-size="8" font-weight="400" font-style="normal" 
>
<path vector-effect="none" fill-rule="evenodd" d="M11,0.5 C9.23958,0.5 7.60677,0.0520833 6.10156,-0.84375 C4.59635,-1.73958 3.40625,-2.9401 2.53125,-4.44531 C1.65625,-5.95052 1.21875,-7.59375 1.21875,-9.375 C1.21875,-10.7188 1.46094,-12.013 1.94531,-13.2578 C2.42969,-14.5026 3.11719,-15.6146 4.00781,-16.5938 C4.89844,-17.5729 5.9401,-18.3385 7.13281,-18.8906 C8.32552,-19.4427 9.61458,-19.7188 11,-19.7188 C12.8021,-19.7188 14.4453,-19.2422 15.9297,-18.2891 C17.4141,-17.3359 18.5859,-16.0625 19.4453,-14.4688 C20.3047,-12.875 20.7344,-11.1771 20.7344,-9.375 C20.7344,-7.60417 20.2969,-5.96354 19.4219,-4.45313 C18.5469,-2.94271 17.362,-1.73958 15.8672,-0.84375 C14.3724,0.0520833 12.75,0.5 11,0.5 M11,-0.8125 C13.3542,-0.8125 14.9245,-1.66406 15.7109,-3.36719 C16.4974,-5.07031 16.8906,-7.23438 16.8906,-9.85938 C16.8906,-11.3281 16.8125,-12.5469 16.6563,-13.5156 C16.5,-14.4844 16.1563,-15.3594 15.625,-16.1406 C15.2917,-16.6302 14.8698,-17.0573 14.3594,-17.4219 C13.849,-17.7865 13.3125,-18.0651 12.75,-18.2578 C12.1875,-18.4505 11.6042,-18.5469 11,-18.5469 C10.0833,-18.5469 9.21354,-18.3385 8.39063,-17.9219 C7.56771,-17.5052 6.88542,-16.9115 6.34375,-16.1406 C5.79167,-15.3073 5.44271,-14.3958 5.29688,-13.4063 C5.15104,-12.4167 5.07813,-11.2344 5.07813,-9.85938 C5.07813,-8.21354 5.22135,-6.73698 5.50781,-5.42969 C5.79427,-4.1224 6.36979,-3.02604 7.23438,-2.14063 C8.09896,-1.25521 9.35417,-0.8125 11,-0.8125 "/>
</g>

<g fill="#212121" fill-opacity="1" stroke="none" transform="matrix(0,-0.5,0.5,0,30.5799,229.656)"
font-family="MS Shell Dlg 2" font-size="8" font-weight="400" font-style="normal" 
>
<path vector-effect="none" fill-rule="evenodd" d="M1.3125,0 L1.3125,-1.54688 C2.3125,-1.54688 3.13542,-1.625 3.78125,-1.78125 C4.42708,-1.9375 4.75,-2.32292 4.75,-2.9375 L4.75,-14.9531 C4.75,-15.7448 4.63281,-16.3151 4.39844,-16.6641 C4.16406,-17.013 3.82292,-17.2266 3.375,-17.3047 C2.92708,-17.3828 2.23958,-17.4219 1.3125,-17.4219 L1.3125,-18.9688 L7.6875,-19.4375 L7.6875,-15.1406 C8.28125,-16.401 9.15365,-17.4323 10.3047,-18.2344 C11.4557,-19.0365 12.7135,-19.4375 14.0781,-19.4375 C16.1094,-19.4375 17.638,-18.9505 18.6641,-17.9766 C19.6901,-17.0026 20.2031,-15.5156 20.2031,-13.5156 L20.2031,-2.9375 C20.2031,-2.32292 20.5234,-1.9375 21.1641,-1.78125 C21.8047,-1.625 22.6302,-1.54688 23.6406,-1.54688 L23.6406,0 L13.5625,0 L13.5625,-1.54688 C14.5625,-1.54688 15.3854,-1.625 16.0313,-1.78125 C16.6771,-1.9375 17,-2.32292 17,-2.9375 L17,-13.3906 C17,-14.8177 16.7917,-15.9948 16.375,-16.9219 C15.9583,-17.849 15.1042,-18.3125 13.8125,-18.3125 C12.1146,-18.3125 10.7161,-17.6302 9.61719,-16.2656 C8.51823,-14.901 7.96875,-13.3542 7.96875,-11.625 L7.96875,-2.9375 C7.96875,-2.32292 8.29167,-1.9375 8.9375,-1.78125 C9.58333,-1.625 10.401,-1.54688 11.3906,-1.54688 L11.3906,0 L1.3125,0"/>
</g>

<g fill="#212121" fill-opacity="1" stroke="none" transform="matrix(0,-0.5,0.5,0,30.5799,217.434)"
font-family="MS Shell Dlg 2" font-size="8" font-weight="400" font-style="normal" 
>
<path vector-effect="none" fill-rule="evenodd" d="M10.9531,0.5 C9.18229,0.5 7.57292,0.0364583 6.125,-0.890625 C4.67708,-1.81771 3.53906,-3.04948 2.71094,-4.58594 C1.88281,-6.1224 1.46875,-7.76042 1.46875,-9.5 C1.46875,-11.2292 1.88021,-12.888 2.70313,-14.4766 C3.52604,-16.0651 4.66406,-17.3359 6.11719,-18.2891 C7.57031,-19.2422 9.18229,-19.7188 10.9531,-19.7188 C12.6719,-19.7188 14.237,-19.3828 15.6484,-18.7109 C17.0599,-18.0391 17.7656,-16.9323 17.7656,-15.3906 C17.7656,-14.8177 17.5625,-14.3203 17.1563,-13.8984 C16.75,-13.4766 16.25,-13.2656 15.6563,-13.2656 C15.0729,-13.2656 14.5781,-13.4766 14.1719,-13.8984 C13.7656,-14.3203 13.5625,-14.8177 13.5625,-15.3906 C13.5625,-15.901 13.7266,-16.3464 14.0547,-16.7266 C14.3828,-17.1068 14.7917,-17.349 15.2813,-17.4531 C14.2604,-18.0885 12.8333,-18.4063 11,-18.4063 C9.59375,-18.4063 8.46094,-17.9427 7.60156,-17.0156 C6.74219,-16.0885 6.14063,-14.9401 5.79688,-13.5703 C5.45313,-12.2005 5.28125,-10.8438 5.28125,-9.5 C5.28125,-8.08333 5.49219,-6.71354 5.91406,-5.39063 C6.33594,-4.06771 7.01823,-2.97396 7.96094,-2.10938 C8.90365,-1.24479 10.0833,-0.8125 11.5,-0.8125 C12.8854,-0.8125 14.0651,-1.23698 15.0391,-2.08594 C16.013,-2.9349 16.6771,-4.04688 17.0313,-5.42188 C17.0313,-5.59896 17.1458,-5.6875 17.375,-5.6875 L17.9219,-5.6875 C18.0052,-5.6875 18.0833,-5.64844 18.1563,-5.57031 C18.2292,-5.49219 18.2656,-5.40104 18.2656,-5.29688 L18.2656,-5.17188 C17.8177,-3.43229 16.9349,-2.05208 15.6172,-1.03125 C14.2995,-0.0104167 12.7448,0.5 10.9531,0.5 "/>
</g>

<g fill="#212121" fill-opacity="1" stroke="none" transform="matrix(0,-0.5,0.5,0,30.5799,207.656)"
font-family="MS Shell Dlg 2" font-size="8" font-weight="400" font-style="normal" 
>
<path vector-effect="none" fill-rule="evenodd" d="M10.9531,0.5 C9.16146,0.5 7.51823,0.0286458 6.02344,-0.914063 C4.52865,-1.85677 3.35417,-3.11198 2.5,-4.67969 C1.64583,-6.2474 1.21875,-7.90104 1.21875,-9.64063 C1.21875,-11.3594 1.60938,-12.9922 2.39063,-14.5391 C3.17188,-16.0859 4.26042,-17.3359 5.65625,-18.2891 C7.05208,-19.2422 8.60938,-19.7188 10.3281,-19.7188 C11.6823,-19.7188 12.8568,-19.4948 13.8516,-19.0469 C14.8464,-18.599 15.6667,-17.974 16.3125,-17.1719 C16.9583,-16.3698 17.4453,-15.4245 17.7734,-14.3359 C18.1016,-13.2474 18.2656,-12.0521 18.2656,-10.75 C18.2656,-10.3542 18.1146,-10.1563 17.8125,-10.1563 L5.07813,-10.1563 L5.07813,-9.6875 C5.07813,-7.26042 5.56771,-5.17448 6.54688,-3.42969 C7.52604,-1.6849 9.125,-0.8125 11.3438,-0.8125 C12.25,-0.8125 13.0859,-1.01302 13.8516,-1.41406 C14.6172,-1.8151 15.2813,-2.3724 15.8438,-3.08594 C16.4063,-3.79948 16.7917,-4.5625 17,-5.375 C17.0208,-5.47917 17.0729,-5.57031 17.1563,-5.64844 C17.2396,-5.72656 17.3281,-5.76563 17.4219,-5.76563 L17.8125,-5.76563 C18.1146,-5.76563 18.2656,-5.57813 18.2656,-5.20313 C17.849,-3.54688 16.9531,-2.18229 15.5781,-1.10938 C14.2031,-0.0364583 12.6615,0.5 10.9531,0.5 M5.10938,-11.2656 L15.1406,-11.2656 C15.1406,-12.3594 14.987,-13.4714 14.6797,-14.6016 C14.3724,-15.7318 13.862,-16.6719 13.1484,-17.4219 C12.4349,-18.1719 11.4948,-18.5469 10.3281,-18.5469 C8.67188,-18.5469 7.38802,-17.7708 6.47656,-16.2188 C5.5651,-14.6667 5.10938,-13.0156 5.10938,-11.2656 "/>
</g>

<g fill="#212121" fill-opacity="1" stroke="none" transform="matrix(0,-0.5,0.5,0,30.5799,197.878)"
font-family="MS Shell Dlg 2" font-size="8" font-weight="400" font-style="normal" 
>
<path vector-effect="none" fill-rule="evenodd" d="M1.3125,0 L1.3125,-1.54688 C2.3125,-1.54688 3.13542,-1.625 3.78125,-1.78125 C4.42708,-1.9375 4.75,-2.32292 4.75,-2.9375 L4.75,-14.9531 C4.75,-15.7448 4.63281,-16.3151 4.39844,-16.6641 C4.16406,-17.013 3.82292,-17.2266 3.375,-17.3047 C2.92708,-17.3828 2.23958,-17.4219 1.3125,-17.4219 L1.3125,-18.9688 L7.6875,-19.4375 L7.6875,-15.1406 C8.28125,-16.401 9.15365,-17.4323 10.3047,-18.2344 C11.4557,-19.0365 12.7135,-19.4375 14.0781,-19.4375 C16.1094,-19.4375 17.638,-18.9505 18.6641,-17.9766 C19.6901,-17.0026 20.2031,-15.5156 20.2031,-13.5156 L20.2031,-2.9375 C20.2031,-2.32292 20.5234,-1.9375 21.1641,-1.78125 C21.8047,-1.625 22.6302,-1.54688 23.6406,-1.54688 L23.6406,0 L13.5625,0 L13.5625,-1.54688 C14.5625,-1.54688 15.3854,-1.625 16.0313,-1.78125 C16.6771,-1.9375 17,-2.32292 17,-2.9375 L17,-13.3906 C17,-14.8177 16.7917,-15.9948 16.375,-16.9219 C15.9583,-17.849 15.1042,-18.3125 13.8125,-18.3125 C12.1146,-18.3125 10.7161,-17.6302 9.61719,-16.2656 C8.51823,-14.901 7.96875,-13.3542 7.96875,-11.625 L7.96875,-2.9375 C7.96875,-2.32292 8.29167,-1.9375 8.9375,-1.78125 C9.58333,-1.625 10.401,-1.54688 11.3906,-1.54688 L11.3906,0 L1.3125,0"/>
</g>

<g fill="#212121" fill-opacity="1" stroke="none" transform="matrix(0,-0.5,0.5,0,30.5799,186.267)"
font-family="MS Shell Dlg 2" font-size="8" font-weight="400" font-style="normal" 
>
<path vector-effect="none" fill-rule="evenodd" d="M4.48438,-5.28125 L4.48438,-17.4219 L0.84375,-17.4219 L0.84375,-18.5625 C2.76042,-18.5625 4.16927,-19.4583 5.07031,-21.25 C5.97135,-23.0417 6.42188,-24.9844 6.42188,-27.0781 L7.6875,-27.0781 L7.6875,-18.9688 L13.9063,-18.9688 L13.9063,-17.4219 L7.6875,-17.4219 L7.6875,-5.39063 C7.6875,-4.17188 7.89323,-3.10417 8.30469,-2.1875 C8.71615,-1.27083 9.44792,-0.8125 10.5,-0.8125 C11.5104,-0.8125 12.237,-1.29688 12.6797,-2.26563 C13.1224,-3.23438 13.3438,-4.27604 13.3438,-5.39063 L13.3438,-7.98438 L14.6094,-7.98438 L14.6094,-5.29688 C14.6094,-4.38021 14.4401,-3.47396 14.1016,-2.57813 C13.763,-1.68229 13.2656,-0.945313 12.6094,-0.367188 C11.9531,0.210938 11.151,0.5 10.2031,0.5 C8.44271,0.5 7.04948,-0.0286458 6.02344,-1.08594 C4.9974,-2.14323 4.48438,-3.54167 4.48438,-5.28125 "/>
</g>

<g fill="#212121" fill-opacity="1" stroke="none" transform="matrix(0,-0.5,0.5,0,30.5799,177.711)"
font-family="MS Shell Dlg 2" font-size="8" font-weight="400" font-style="normal" 
>
<path vector-effect="none" fill-rule="evenodd" d="M1.14063,0 L1.14063,-1.54688 C2.14063,-1.54688 2.96354,-1.625 3.60938,-1.78125 C4.25521,-1.9375 4.57813,-2.32292 4.57813,-2.9375 L4.57813,-14.9531 C4.57813,-15.7448 4.46094,-16.3151 4.22656,-16.6641 C3.99219,-17.013 3.65104,-17.2266 3.20313,-17.3047 C2.75521,-17.3828 2.06771,-17.4219 1.14063,-17.4219 L1.14063,-18.9688 L7.4375,-19.4375 L7.4375,-15.1406 C7.90625,-16.4219 8.57813,-17.4583 9.45313,-18.25 C10.3281,-19.0417 11.3906,-19.4375 12.6406,-19.4375 C13.5052,-19.4375 14.2813,-19.1797 14.9688,-18.6641 C15.6563,-18.1484 16,-17.4688 16,-16.625 C16,-16.0938 15.8125,-15.6328 15.4375,-15.2422 C15.0625,-14.8516 14.5938,-14.6563 14.0313,-14.6563 C13.4896,-14.6563 13.0234,-14.849 12.6328,-15.2344 C12.2422,-15.6198 12.0469,-16.0833 12.0469,-16.625 C12.0469,-17.4167 12.3281,-17.9792 12.8906,-18.3125 L12.6406,-18.3125 C11.4427,-18.3125 10.4688,-17.8828 9.71875,-17.0234 C8.96875,-16.1641 8.4375,-15.0964 8.125,-13.8203 C7.8125,-12.5443 7.65625,-11.3229 7.65625,-10.1563 L7.65625,-2.9375 C7.65625,-2.01042 9.07813,-1.54688 11.9219,-1.54688 L11.9219,0 L1.14063,0"/>
</g>

<g fill="#212121" fill-opacity="1" stroke="none" transform="matrix(0,-0.5,0.5,0,30.5799,169.095)"
font-family="MS Shell Dlg 2" font-size="8" font-weight="400" font-style="normal" 
>
<path vector-effect="none" fill-rule="evenodd" d="M1.76563,-4.3125 C1.76563,-6.0625 2.45313,-7.48698 3.82813,-8.58594 C5.20313,-9.6849 6.85417,-10.4583 8.78125,-10.9063 C10.7083,-11.3542 12.5365,-11.5781 14.2656,-11.5781 L14.2656,-13.375 C14.2656,-14.2188 14.0807,-15.0365 13.7109,-15.8281 C13.3411,-16.6198 12.8047,-17.2708 12.1016,-17.7813 C11.3984,-18.2917 10.625,-18.5469 9.78125,-18.5469 C7.83333,-18.5469 6.34896,-18.1094 5.32813,-17.2344 C5.89063,-17.2344 6.35417,-17.0234 6.71875,-16.6016 C7.08333,-16.1797 7.26563,-15.6927 7.26563,-15.1406 C7.26563,-14.5573 7.05729,-14.0573 6.64063,-13.6406 C6.22396,-13.224 5.72917,-13.0156 5.15625,-13.0156 C4.57292,-13.0156 4.07292,-13.224 3.65625,-13.6406 C3.23958,-14.0573 3.03125,-14.5573 3.03125,-15.1406 C3.03125,-16.6927 3.73177,-17.8438 5.13281,-18.5938 C6.53385,-19.3438 8.08333,-19.7188 9.78125,-19.7188 C10.9688,-19.7188 12.1641,-19.4661 13.3672,-18.9609 C14.5703,-18.4557 15.5547,-17.7292 16.3203,-16.7813 C17.0859,-15.8333 17.4688,-14.7344 17.4688,-13.4844 L17.4688,-3.57813 C17.4688,-3.01563 17.5911,-2.49479 17.8359,-2.01563 C18.0807,-1.53646 18.4583,-1.29688 18.9688,-1.29688 C19.4583,-1.29688 19.8203,-1.53646 20.0547,-2.01563 C20.2891,-2.49479 20.4063,-3.01042 20.4063,-3.5625 L20.4063,-6.35938 L21.7031,-6.35938 L21.7031,-3.54688 C21.7031,-2.89063 21.5313,-2.26823 21.1875,-1.67969 C20.8438,-1.09115 20.3802,-0.619792 19.7969,-0.265625 C19.2135,0.0885417 18.5885,0.265625 17.9219,0.265625 C17.0573,0.265625 16.3151,-0.0703125 15.6953,-0.742188 C15.0755,-1.41406 14.7292,-2.21354 14.6563,-3.14063 C14.1146,-2.02604 13.3125,-1.14063 12.25,-0.484375 C11.1875,0.171875 10.0573,0.5 8.85938,0.5 C7.73438,0.5 6.63281,0.333333 5.55469,0 C4.47656,-0.333333 3.57552,-0.854167 2.85156,-1.5625 C2.1276,-2.27083 1.76563,-3.1875 1.76563,-4.3125 M5.32813,-4.32813 C5.32813,-3.29688 5.70833,-2.43229 6.46875,-1.73438 C7.22917,-1.03646 8.125,-0.6875 9.15625,-0.6875 C10.1042,-0.6875 10.9635,-0.921875 11.7344,-1.39063 C12.5052,-1.85938 13.1198,-2.5 13.5781,-3.3125 C14.0365,-4.125 14.2656,-4.98438 14.2656,-5.89063 L14.2656,-10.4375 C12.9323,-10.4375 11.5677,-10.2214 10.1719,-9.78906 C8.77604,-9.35677 7.61979,-8.67708 6.70313,-7.75 C5.78646,-6.82292 5.32813,-5.68229 5.32813,-4.32813 "/>
</g>

<g fill="#212121" fill-opacity="1" stroke="none" transform="matrix(0,-0.5,0.5,0,30.5799,158.095)"
font-family="MS Shell Dlg 2" font-size="8" font-weight="400" font-style="normal" 
>
<path vector-effect="none" fill-rule="evenodd" d="M4.48438,-5.28125 L4.48438,-17.4219 L0.84375,-17.4219 L0.84375,-18.5625 C2.76042,-18.5625 4.16927,-19.4583 5.07031,-21.25 C5.97135,-23.0417 6.42188,-24.9844 6.42188,-27.0781 L7.6875,-27.0781 L7.6875,-18.9688 L13.9063,-18.9688 L13.9063,-17.4219 L7.6875,-17.4219 L7.6875,-5.39063 C7.6875,-4.17188 7.89323,-3.10417 8.30469,-2.1875 C8.71615,-1.27083 9.44792,-0.8125 10.5,-0.8125 C11.5104,-0.8125 12.237,-1.29688 12.6797,-2.26563 C13.1224,-3.23438 13.3438,-4.27604 13.3438,-5.39063 L13.3438,-7.98438 L14.6094,-7.98438 L14.6094,-5.29688 C14.6094,-4.38021 14.4401,-3.47396 14.1016,-2.57813 C13.763,-1.68229 13.2656,-0.945313 12.6094,-0.367188 C11.9531,0.210938 11.151,0.5 10.2031,0.5 C8.44271,0.5 7.04948,-0.0286458 6.02344,-1.08594 C4.9974,-2.14323 4.48438,-3.54167 4.48438,-5.28125 "/>
</g>

<g fill="#212121" fill-opacity="1" stroke="none" transform="matrix(0,-0.5,0.5,0,30.5799,149.539)"
font-family="MS Shell Dlg 2" font-size="8" font-weight="400" font-style="normal" 
>
<path vector-effect="none" fill-rule="evenodd" d="M1.35938,0 L1.35938,-1.54688 C2.35938,-1.54688 3.18229,-1.625 3.82813,-1.78125 C4.47396,-1.9375 4.79688,-2.32292 4.79688,-2.9375 L4.79688,-14.9531 C4.79688,-16.0885 4.57813,-16.7839 4.14063,-17.0391 C3.70313,-17.2943 2.83854,-17.4219 1.54688,-17.4219 L1.54688,-18.9688 L7.89063,-19.4375 L7.89063,-2.9375 C7.89063,-2.32292 8.16927,-1.9375 8.72656,-1.78125 C9.28385,-1.625 10.026,-1.54688 10.9531,-1.54688 L10.9531,0 L1.35938,0 M3.21875,-27 C3.21875,-27.6458 3.46354,-28.2135 3.95313,-28.7031 C4.44271,-29.1927 5,-29.4375 5.625,-29.4375 C6.04167,-29.4375 6.44271,-29.3307 6.82813,-29.1172 C7.21354,-28.9036 7.51563,-28.6016 7.73438,-28.2109 C7.95313,-27.8203 8.0625,-27.4167 8.0625,-27 C8.0625,-26.375 7.81771,-25.8177 7.32813,-25.3281 C6.83854,-24.8385 6.27083,-24.5938 5.625,-24.5938 C5,-24.5938 4.44271,-24.8385 3.95313,-25.3281 C3.46354,-25.8177 3.21875,-26.375 3.21875,-27 "/>
</g>

<g fill="#212121" fill-opacity="1" stroke="none" transform="matrix(0,-0.5,0.5,0,30.5799,143.428)"
font-family="MS Shell Dlg 2" font-size="8" font-weight="400" font-style="normal" 
>
<path vector-effect="none" fill-rule="evenodd" d="M11,0.5 C9.23958,0.5 7.60677,0.0520833 6.10156,-0.84375 C4.59635,-1.73958 3.40625,-2.9401 2.53125,-4.44531 C1.65625,-5.95052 1.21875,-7.59375 1.21875,-9.375 C1.21875,-10.7188 1.46094,-12.013 1.94531,-13.2578 C2.42969,-14.5026 3.11719,-15.6146 4.00781,-16.5938 C4.89844,-17.5729 5.9401,-18.3385 7.13281,-18.8906 C8.32552,-19.4427 9.61458,-19.7188 11,-19.7188 C12.8021,-19.7188 14.4453,-19.2422 15.9297,-18.2891 C17.4141,-17.3359 18.5859,-16.0625 19.4453,-14.4688 C20.3047,-12.875 20.7344,-11.1771 20.7344,-9.375 C20.7344,-7.60417 20.2969,-5.96354 19.4219,-4.45313 C18.5469,-2.94271 17.362,-1.73958 15.8672,-0.84375 C14.3724,0.0520833 12.75,0.5 11,0.5 M11,-0.8125 C13.3542,-0.8125 14.9245,-1.66406 15.7109,-3.36719 C16.4974,-5.07031 16.8906,-7.23438 16.8906,-9.85938 C16.8906,-11.3281 16.8125,-12.5469 16.6563,-13.5156 C16.5,-14.4844 16.1563,-15.3594 15.625,-16.1406 C15.2917,-16.6302 14.8698,-17.0573 14.3594,-17.4219 C13.849,-17.7865 13.3125,-18.0651 12.75,-18.2578 C12.1875,-18.4505 11.6042,-18.5469 11,-18.5469 C10.0833,-18.5469 9.21354,-18.3385 8.39063,-17.9219 C7.56771,-17.5052 6.88542,-16.9115 6.34375,-16.1406 C5.79167,-15.3073 5.44271,-14.3958 5.29688,-13.4063 C5.15104,-12.4167 5.07813,-11.2344 5.07813,-9.85938 C5.07813,-8.21354 5.22135,-6.73698 5.50781,-5.42969 C5.79427,-4.1224 6.36979,-3.02604 7.23438,-2.14063 C8.09896,-1.25521 9.35417,-0.8125 11,-0.8125 "/>
</g>

<g fill="#212121" fill-opacity="1" stroke="none" transform="matrix(0,-0.5,0.5,0,30.5799,132.428)"
font-family="MS Shell Dlg 2" font-size="8" font-weight="400" font-style="normal" 
>
<path vector-effect="none" fill-rule="evenodd" d="M1.3125,0 L1.3125,-1.54688 C2.3125,-1.54688 3.13542,-1.625 3.78125,-1.78125 C4.42708,-1.9375 4.75,-2.32292 4.75,-2.9375 L4.75,-14.9531 C4.75,-15.7448 4.63281,-16.3151 4.39844,-16.6641 C4.16406,-17.013 3.82292,-17.2266 3.375,-17.3047 C2.92708,-17.3828 2.23958,-17.4219 1.3125,-17.4219 L1.3125,-18.9688 L7.6875,-19.4375 L7.6875,-15.1406 C8.28125,-16.401 9.15365,-17.4323 10.3047,-18.2344 C11.4557,-19.0365 12.7135,-19.4375 14.0781,-19.4375 C16.1094,-19.4375 17.638,-18.9505 18.6641,-17.9766 C19.6901,-17.0026 20.2031,-15.5156 20.2031,-13.5156 L20.2031,-2.9375 C20.2031,-2.32292 20.5234,-1.9375 21.1641,-1.78125 C21.8047,-1.625 22.6302,-1.54688 23.6406,-1.54688 L23.6406,0 L13.5625,0 L13.5625,-1.54688 C14.5625,-1.54688 15.3854,-1.625 16.0313,-1.78125 C16.6771,-1.9375 17,-2.32292 17,-2.9375 L17,-13.3906 C17,-14.8177 16.7917,-15.9948 16.375,-16.9219 C15.9583,-17.849 15.1042,-18.3125 13.8125,-18.3125 C12.1146,-18.3125 10.7161,-17.6302 9.61719,-16.2656 C8.51823,-14.901 7.96875,-13.3542 7.96875,-11.625 L7.96875,-2.9375 C7.96875,-2.32292 8.29167,-1.9375 8.9375,-1.78125 C9.58333,-1.625 10.401,-1.54688 11.3906,-1.54688 L11.3906,0 L1.3125,0"/>
</g>

<g fill="#212121" fill-opacity="1" stroke="none" transform="matrix(0,-0.5,0.5,0,30.5799,112.872)"
font-family="MS Shell Dlg 2" font-size="8" font-weight="400" font-style="normal" 
>
<path vector-effect="none" fill-rule="evenodd" d="M5.20313,11 L5.20313,-33 L11.2188,-33 L11.2188,-31.2344 L6.96875,-31.2344 L6.96875,9.23438 L11.2188,9.23438 L11.2188,11 L5.20313,11"/>
</g>

<g fill="#212121" fill-opacity="1" stroke="none" transform="matrix(0,-0.5,0.5,0,30.5799,106.761)"
font-family="MS Shell Dlg 2" font-size="8" font-weight="400" font-style="normal" 
>
<path vector-effect="none" fill-rule="evenodd" d="M1.3125,0 L1.3125,-1.54688 C2.3125,-1.54688 3.13542,-1.625 3.78125,-1.78125 C4.42708,-1.9375 4.75,-2.32292 4.75,-2.9375 L4.75,-14.9531 C4.75,-15.7448 4.63281,-16.3151 4.39844,-16.6641 C4.16406,-17.013 3.82292,-17.2266 3.375,-17.3047 C2.92708,-17.3828 2.23958,-17.4219 1.3125,-17.4219 L1.3125,-18.9688 L7.6875,-19.4375 L7.6875,-15.1406 C8.28125,-16.401 9.15365,-17.4323 10.3047,-18.2344 C11.4557,-19.0365 12.7135,-19.4375 14.0781,-19.4375 C17.4531,-19.4375 19.4375,-18.0625 20.0313,-15.3125 C20.6146,-16.5521 21.4714,-17.5495 22.6016,-18.3047 C23.7318,-19.0599 24.9688,-19.4375 26.3125,-19.4375 C27.6458,-19.4375 28.7682,-19.224 29.6797,-18.7969 C30.5911,-18.3698 31.276,-17.7161 31.7344,-16.8359 C32.1927,-15.9557 32.4219,-14.849 32.4219,-13.5156 L32.4219,-2.9375 C32.4219,-2.32292 32.7474,-1.9375 33.3984,-1.78125 C34.0495,-1.625 34.8698,-1.54688 35.8594,-1.54688 L35.8594,0 L25.7813,0 L25.7813,-1.54688 C26.7813,-1.54688 27.6042,-1.625 28.25,-1.78125 C28.8958,-1.9375 29.2188,-2.32292 29.2188,-2.9375 L29.2188,-13.3906 C29.2188,-14.8594 29.0104,-16.0469 28.5938,-16.9531 C28.1771,-17.8594 27.3281,-18.3125 26.0469,-18.3125 C24.349,-18.3125 22.9505,-17.6302 21.8516,-16.2656 C20.7526,-14.901 20.2031,-13.3542 20.2031,-11.625 L20.2031,-2.9375 C20.2031,-2.32292 20.5234,-1.9375 21.1641,-1.78125 C21.8047,-1.625 22.6302,-1.54688 23.6406,-1.54688 L23.6406,0 L13.5625,0 L13.5625,-1.54688 C14.5625,-1.54688 15.3854,-1.625 16.0313,-1.78125 C16.6771,-1.9375 17,-2.32292 17,-2.9375 L17,-13.3906 C17,-14.8177 16.7917,-15.9948 16.375,-16.9219 C15.9583,-17.849 15.1042,-18.3125 13.8125,-18.3125 C12.1146,-18.3125 10.7161,-17.6302 9.61719,-16.2656 C8.51823,-14.901 7.96875,-13.3542 7.96875,-11.625 L7.96875,-2.9375 C7.96875,-2.32292 8.29167,-1.9375 8.9375,-1.78125 C9.58333,-1.625 10.401,-1.54688 11.3906,-1.54688 L11.3906,0 L1.3125,0"/>
</g>

<g fill="#212121" fill-opacity="1" stroke="none" transform="matrix(0,-0.5,0.5,0,30.5799,88.4277)"
font-family="MS Shell Dlg 2" font-size="8" font-weight="400" font-style="normal" 
>
<path vector-effect="none" fill-rule="evenodd" d="M11,0.5 C9.23958,0.5 7.60677,0.0520833 6.10156,-0.84375 C4.59635,-1.73958 3.40625,-2.9401 2.53125,-4.44531 C1.65625,-5.95052 1.21875,-7.59375 1.21875,-9.375 C1.21875,-10.7188 1.46094,-12.013 1.94531,-13.2578 C2.42969,-14.5026 3.11719,-15.6146 4.00781,-16.5938 C4.89844,-17.5729 5.9401,-18.3385 7.13281,-18.8906 C8.32552,-19.4427 9.61458,-19.7188 11,-19.7188 C12.8021,-19.7188 14.4453,-19.2422 15.9297,-18.2891 C17.4141,-17.3359 18.5859,-16.0625 19.4453,-14.4688 C20.3047,-12.875 20.7344,-11.1771 20.7344,-9.375 C20.7344,-7.60417 20.2969,-5.96354 19.4219,-4.45313 C18.5469,-2.94271 17.362,-1.73958 15.8672,-0.84375 C14.3724,0.0520833 12.75,0.5 11,0.5 M11,-0.8125 C13.3542,-0.8125 14.9245,-1.66406 15.7109,-3.36719 C16.4974,-5.07031 16.8906,-7.23438 16.8906,-9.85938 C16.8906,-11.3281 16.8125,-12.5469 16.6563,-13.5156 C16.5,-14.4844 16.1563,-15.3594 15.625,-16.1406 C15.2917,-16.6302 14.8698,-17.0573 14.3594,-17.4219 C13.849,-17.7865 13.3125,-18.0651 12.75,-18.2578 C12.1875,-18.4505 11.6042,-18.5469 11,-18.5469 C10.0833,-18.5469 9.21354,-18.3385 8.39063,-17.9219 C7.56771,-17.5052 6.88542,-16.9115 6.34375,-16.1406 C5.79167,-15.3073 5.44271,-14.3958 5.29688,-13.4063 C5.15104,-12.4167 5.07813,-11.2344 5.07813,-9.85938 C5.07813,-8.21354 5.22135,-6.73698 5.50781,-5.42969 C5.79427,-4.1224 6.36979,-3.02604 7.23438,-2.14063 C8.09896,-1.25521 9.35417,-0.8125 11,-0.8125 "/>
</g>

<g fill="#212121" fill-opacity="1" stroke="none" transform="matrix(0,-0.5,0.5,0,30.5799,77.4276)"
font-family="MS Shell Dlg 2" font-size="8" font-weight="400" font-style="normal" 
>
<path vector-effect="none" fill-rule="evenodd" d="M1.35938,0 L1.35938,-1.54688 C2.35938,-1.54688 3.18229,-1.625 3.82813,-1.78125 C4.47396,-1.9375 4.79688,-2.32292 4.79688,-2.9375 L4.79688,-26.0469 C4.79688,-26.8281 4.67708,-27.3958 4.4375,-27.75 C4.19792,-28.1042 3.85677,-28.3203 3.41406,-28.3984 C2.97135,-28.4766 2.28646,-28.5156 1.35938,-28.5156 L1.35938,-30.0625 L7.89063,-30.5313 L7.89063,-2.9375 C7.89063,-2.32292 8.21094,-1.9375 8.85156,-1.78125 C9.49219,-1.625 10.3073,-1.54688 11.2969,-1.54688 L11.2969,0 L1.35938,0"/>
</g>

<g fill="#212121" fill-opacity="1" stroke="none" transform="matrix(0,-0.5,0.5,0,30.5799,71.3165)"
font-family="MS Shell Dlg 2" font-size="8" font-weight="400" font-style="normal" 
>
<path vector-effect="none" fill-rule="evenodd" d="M2.46875,10.125 C2.46875,10.0313 2.48438,9.97396 2.51563,9.95313 L17.8125,-32.4688 C17.8646,-32.6354 17.9635,-32.7656 18.1094,-32.8594 C18.2552,-32.9531 18.4219,-33 18.6094,-33 C18.8698,-33 19.0807,-32.9219 19.2422,-32.7656 C19.4036,-32.6094 19.4844,-32.3958 19.4844,-32.125 L19.4844,-31.9531 L4.1875,10.4688 C4.02083,10.8229 3.74479,11 3.35938,11 C3.10938,11 2.89844,10.9141 2.72656,10.7422 C2.55469,10.5703 2.46875,10.3646 2.46875,10.125 "/>
</g>

<g fill="#212121" fill-opacity="1" stroke="none" transform="matrix(0,-0.5,0.5,0,30.5799,60.3165)"
font-family="MS Shell Dlg 2" font-size="8" font-weight="400" font-style="normal" 
>
<path vector-effect="none" fill-rule="evenodd" d="M1.35938,0 L1.35938,-1.54688 C4.38021,-1.54688 5.89063,-2.01042 5.89063,-2.9375 L5.89063,-27.1094 C5.89063,-28.0469 4.38021,-28.5156 1.35938,-28.5156 L1.35938,-30.0625 L15.625,-30.0625 L15.625,-28.5156 C11.8646,-28.5156 9.98438,-28.0469 9.98438,-27.1094 L9.98438,-2.9375 C9.98438,-2.3125 10.1641,-1.92448 10.5234,-1.77344 C10.8828,-1.6224 11.4479,-1.54688 12.2188,-1.54688 L15.625,-1.54688 C17.8125,-1.54688 19.5,-1.94792 20.6875,-2.75 C21.875,-3.55208 22.7161,-4.64323 23.2109,-6.02344 C23.7057,-7.40365 24.0833,-9.23958 24.3438,-11.5313 L25.6094,-11.5313 L24.3906,0 L1.35938,0"/>
</g>

<g fill="#212121" fill-opacity="1" stroke="none" transform="matrix(0,-0.5,0.5,0,30.5799,46.5664)"
font-family="MS Shell Dlg 2" font-size="8" font-weight="400" font-style="normal" 
>
<path vector-effect="none" fill-rule="evenodd" d="M0.96875,11 L0.96875,9.23438 L5.25,9.23438 L5.25,-31.2344 L0.96875,-31.2344 L0.96875,-33 L7,-33 L7,11 L0.96875,11"/>
</g>

<g fill="#212121" fill-opacity="1" stroke="none" transform="matrix(0.5,0,0,0.5,68.5,28.5)"
font-family="MS Shell Dlg 2" font-size="8" font-weight="400" font-style="normal" 
>
<path vector-effect="none" fill-rule="evenodd" d="M5.875,-1.15625 C5.875,-1.36458 5.94271,-1.55208 6.07813,-1.71875 L14.3906,-10 L6.07813,-18.3281 C5.94271,-18.4531 5.875,-18.625 5.875,-18.8438 C5.875,-19.0417 5.95313,-19.2266 6.10938,-19.3984 C6.26563,-19.5703 6.45833,-19.6563 6.6875,-19.6563 C6.86458,-19.6563 7.0625,-19.5677 7.28125,-19.3906 L15.5625,-11.1094 L23.8125,-19.3906 C24.0313,-19.5677 24.224,-19.6563 24.3906,-19.6563 C24.6198,-19.6563 24.8125,-19.5781 24.9688,-19.4219 C25.125,-19.2656 25.2031,-19.0729 25.2031,-18.8438 C25.2031,-18.625 25.1354,-18.4531 25,-18.3281 L16.6875,-10 L25,-1.71875 C25.1354,-1.55208 25.2031,-1.36458 25.2031,-1.15625 C25.2031,-0.9375 25.125,-0.75 24.9688,-0.59375 C24.8125,-0.4375 24.6198,-0.359375 24.3906,-0.359375 C24.2031,-0.359375 24.0104,-0.453125 23.8125,-0.640625 L15.5625,-8.89063 L7.28125,-0.640625 C7.09375,-0.453125 6.89583,-0.359375 6.6875,-0.359375 C6.45833,-0.359375 6.26563,-0.442708 6.10938,-0.609375 C5.95313,-0.776042 5.875,-0.958333 5.875,-1.15625 "/>
</g>

<g fill="#212121" fill-opacity="1" stroke="none" transform="matrix(0.5,0,0,0.5,84,28.5)"
font-family="MS Shell Dlg 2" font-size="8" font-weight="400" font-style="normal" 
>
<path vector-effect="none" fill-rule="evenodd" d="M14.9063,0 L11.3906,0 L11.3906,-22.4063 C10.5469,-21.5938 9.4375,-20.7839 8.0625,-19.9766 C6.6875,-19.1693 5.45313,-18.5677 4.35938,-18.1719 L4.35938,-21.5625 C6.32813,-22.4896 8.04688,-23.6094 9.51563,-24.9219 C10.9844,-26.2344 12.026,-27.5104 12.6406,-28.75 L14.9063,-28.75 L14.9063,0 M23.6563,-14.125 C23.6563,-17.5104 24.0052,-20.2344 24.7031,-22.2969 C25.401,-24.3594 26.4375,-25.9505 27.8125,-27.0703 C29.1875,-28.1901 30.9167,-28.75 33,-28.75 C34.5313,-28.75 35.8776,-28.4401 37.0391,-27.8203 C38.2005,-27.2005 39.1589,-26.3099 39.9141,-25.1484 C40.6693,-23.987 41.2604,-22.5677 41.6875,-20.8906 C42.1146,-19.2135 42.3281,-16.9583 42.3281,-14.125 C42.3281,-10.7604 41.9844,-8.04688 41.2969,-5.98438 C40.6094,-3.92188 39.5781,-2.32813 38.2031,-1.20313 C36.8281,-0.078125 35.0938,0.484375 33,0.484375 C30.2396,0.484375 28.0729,-0.505208 26.5,-2.48438 C24.6042,-4.86979 23.6563,-8.75 23.6563,-14.125 M27.2813,-14.125 C27.2813,-9.42708 27.8307,-6.29948 28.9297,-4.74219 C30.0286,-3.1849 31.3854,-2.40625 33,-2.40625 C34.6146,-2.40625 35.9714,-3.1875 37.0703,-4.75 C38.1693,-6.3125 38.7188,-9.4375 38.7188,-14.125 C38.7188,-18.8333 38.1693,-21.9635 37.0703,-23.5156 C35.9714,-25.0677 34.599,-25.8438 32.9531,-25.8438 C31.3385,-25.8438 30.0521,-25.1615 29.0938,-23.7969 C27.8854,-22.0469 27.2813,-18.8229 27.2813,-14.125 "/>
</g>

<g fill="#212121" fill-opacity="1" stroke="none" transform="matrix(0.5,0,0,0.5,106,18.5)"
font-family="MS Shell Dlg 2" font-size="8" font-weight="400" font-style="normal" 
>
<path vector-effect="none" fill-rule="evenodd" d="M1.01563,-6.875 L1.01563,-9.70313 L9.65625,-9.70313 L9.65625,-6.875 L1.01563,-6.875 M21.3438,0 L21.3438,-5.48438 L11.4063,-5.48438 L11.4063,-8.0625 L21.8594,-22.9063 L24.1563,-22.9063 L24.1563,-8.0625 L27.25,-8.0625 L27.25,-5.48438 L24.1563,-5.48438 L24.1563,0 L21.3438,0 M21.3438,-8.0625 L21.3438,-18.3906 L14.1719,-8.0625 L21.3438,-8.0625"/>
</g>

<g fill="none" stroke="#1171be" stroke-opacity="1" stroke-width="4" stroke-linecap="butt" stroke-linejoin="round" transform="matrix(0.5,0,0,0.5,0,0)"
font-family="MS Shell Dlg 2" font-size="8" font-weight="400" font-style="normal" 
>
<polyline fill="none" vector-effect="none" points="155.603,495.428 172.489,506.285 189.375,504.546 206.261,505.17 223.147,431.554 240.032,272.809 256.918,160.587 273.804,106.619 290.69,133.698 307.576,167.24 324.462,238.562 341.347,292.23 358.233,347.518 375.119,410.792 392.005,450.207 408.891,476.448 425.777,490.819 442.662,492.943 459.548,507.794 476.434,509.695 493.32,497.894 510.206,500.786 527.091,494.934 543.977,495.444 560.863,497.878 577.749,496.793 594.635,501.722 611.521,495.609 628.406,496.776 645.292,496.184 662.178,507.909 679.064,492.169 695.95,506.498 712.836,507.204 729.721,497.549 746.607,508.368 763.493,495.411 780.379,498.585 797.265,509.843 814.15,496.809 831.036,494.835 847.922,502.708 864.808,499.291 881.694,510.482 898.58,512.808 915.465,510.203 930,504.062 " />
</g>

<g fill="none" stroke="#dd5400" stroke-opacity="1" stroke-width="4" stroke-linecap="butt" stroke-linejoin="round" transform="matrix(0.5,0,0,0.5,0,0)"
font-family="MS Shell Dlg 2" font-size="8" font-weight="400" font-style="normal" 
>
<polyline fill="none" vector-effect="none" points="155.603,461.043 172.489,482.193 189.375,474.491 206.261,471.433 223.147,467.407 240.032,468.805 256.918,462.01 273.804,460.843 290.69,452.397 307.576,451.394 324.462,465.475 341.347,463.377 358.233,452.664 375.119,462.343 392.005,464.609 408.891,459.709 425.777,458.141 442.662,459.309 459.548,468.272 476.434,441.017 493.32,378.43 510.206,339.013 527.091,320.553 543.977,308.671 560.863,303.29 577.749,324.978 594.635,357.899 611.521,362.555 628.406,381.291 645.292,429.065 662.178,453.099 679.064,448.25 695.95,466.941 712.836,475.322 729.721,465.376 746.607,479.705 763.493,468.805 780.379,466.708 797.265,482.193 814.15,458.808 831.036,457.273 847.922,465.042 864.808,466.075 881.694,476.219 898.58,481.164 915.465,485.044 930,474.273 " />
</g>

<g fill="none" stroke="#edb120" stroke-opacity="1" stroke-width="4" stroke-linecap="butt" stroke-linejoin="round" transform="matrix(0.5,0,0,0.5,0,0)"
font-family="MS Shell Dlg 2" font-size="8" font-weight="400" font-style="normal" 
>
<polyline fill="none" vector-effect="none" points="155.603,516.212 172.489,528 189.375,523.006 206.261,524.134 223.147,517.408 240.032,506.81 256.918,500.009 273.804,488.336 290.69,481.726 307.576,481.771 324.462,486.082 341.347,492.417 358.233,495.179 375.119,500.699 392.005,498.363 408.891,510.05 425.777,517.895 442.662,517.408 459.548,526.697 476.434,525.946 493.32,517.984 510.206,517.01 527.091,518.028 543.977,515.437 560.863,516.057 577.749,509.961 594.635,518.117 611.521,515.836 628.406,510.871 645.292,483.715 662.178,434.572 679.064,349.562 695.95,278.732 712.836,237.727 729.721,202.655 746.607,200.636 763.493,191.704 780.379,207.171 797.265,247.004 814.15,269.791 831.036,299.762 847.922,359.15 864.808,399.022 881.694,437.24 898.58,486.461 915.465,507.342 930,511.696 " />
</g>

<g fill="#000000" fill-opacity="1" stroke="#000000" stroke-opacity="1" stroke-dasharray="16,16" stroke-dashoffset="0" stroke-width="4" stroke-linecap="butt" stroke-linejoin="round" transform="matrix(0.5,0,0,0.5,0,0)"
font-family="MS Shell Dlg 2" font-size="8" font-weight="400" font-style="normal" 
>
<polyline fill="none" vector-effect="none" points="273.804,512.808 273.804,66 " />
<polyline fill="none" vector-effect="none" points="560.863,512.808 560.863,66 " />
<polyline fill="none" vector-effect="none" points="763.493,512.808 763.493,66 " />
</g>

<g fill="#ffffff" fill-opacity="1" stroke="none" transform="matrix(5e-05,0,0,5e-05,0,0)"
font-family="MS Shell Dlg 2" font-size="8" font-weight="400" font-style="normal" 
>
<path vector-effect="none" fill-rule="evenodd" d="M3.30804e+06,1.419e+06 L5.15826e+06,1.419e+06 L5.15826e+06,890999 L3.30804e+06,890999 L3.30804e+06,1.419e+06"/>
</g>

<g fill="#212121" fill-opacity="1" stroke="none" transform="matrix(0.5,0,0,0.5,168.402,61.8299)"
font-family="MS Shell Dlg 2" font-size="8" font-weight="400" font-style="normal" 
>
<path vector-effect="none" fill-rule="evenodd" d="M1.84375,0 C1.65625,0 1.5625,-0.0885417 1.5625,-0.265625 C1.57292,-0.286458 1.58073,-0.302083 1.58594,-0.3125 C1.59115,-0.322917 1.59375,-0.34375 1.59375,-0.375 L13.2969,-23.9688 C13.401,-24.2188 13.6042,-24.3438 13.9063,-24.3438 L14.375,-24.3438 C14.6875,-24.3438 14.8906,-24.2188 14.9844,-23.9688 L26.7031,-0.375 C26.7135,-0.354167 26.7214,-0.335938 26.7266,-0.320313 C26.7318,-0.304688 26.7344,-0.286458 26.7344,-0.265625 C26.7344,-0.0885417 26.6406,0 26.4531,0 L1.84375,0 M4.07813,-2.71875 L22,-2.71875 L13.0469,-20.7656 L4.07813,-2.71875"/>
</g>

<g fill="#212121" fill-opacity="1" stroke="none" transform="matrix(0.5,0,0,0.5,182.569,61.8299)"
font-family="MS Shell Dlg 2" font-size="8" font-weight="400" font-style="normal" 
>
<path vector-effect="none" fill-rule="evenodd" d="M2.10938,-2.76563 C2.10938,-3.09896 2.14063,-3.41667 2.20313,-3.71875 L4.67188,-13.4688 L1.09375,-13.4688 C0.864583,-13.4688 0.75,-13.6146 0.75,-13.9063 C0.833333,-14.4063 0.984375,-14.6563 1.20313,-14.6563 L4.96875,-14.6563 L6.32813,-20.2031 C6.41146,-20.5052 6.58594,-20.7604 6.85156,-20.9688 C7.11719,-21.1771 7.41667,-21.2813 7.75,-21.2813 C8.04167,-21.2813 8.28385,-21.1953 8.47656,-21.0234 C8.66927,-20.8516 8.76563,-20.625 8.76563,-20.3438 C8.76563,-20.2708 8.76302,-20.2161 8.75781,-20.1797 C8.7526,-20.1432 8.74479,-20.1042 8.73438,-20.0625 L7.375,-14.6563 L10.875,-14.6563 C11.1042,-14.6563 11.2188,-14.5104 11.2188,-14.2188 C11.2083,-14.1563 11.1875,-14.0599 11.1563,-13.9297 C11.125,-13.7995 11.0807,-13.6901 11.0234,-13.6016 C10.9661,-13.513 10.8854,-13.4688 10.7813,-13.4688 L7.07813,-13.4688 L4.625,-3.65625 C4.46875,-3.01042 4.39063,-2.45313 4.39063,-1.98438 C4.39063,-1.01563 4.71875,-0.53125 5.375,-0.53125 C6.375,-0.53125 7.26042,-0.997396 8.03125,-1.92969 C8.80208,-2.86198 9.39063,-3.89063 9.79688,-5.01563 C9.88021,-5.14063 9.96875,-5.20313 10.0625,-5.20313 L10.4688,-5.20313 C10.5625,-5.20313 10.638,-5.17448 10.6953,-5.11719 C10.7526,-5.0599 10.7813,-4.98958 10.7813,-4.90625 C10.7813,-4.86458 10.7656,-4.83333 10.7344,-4.8125 C10.2448,-3.4375 9.52344,-2.22917 8.57031,-1.1875 C7.61719,-0.145833 6.52604,0.375 5.29688,0.375 C4.40104,0.375 3.64583,0.0807292 3.03125,-0.507813 C2.41667,-1.09635 2.10938,-1.84896 2.10938,-2.76563 "/>
</g>

<g fill="#212121" fill-opacity="1" stroke="none" transform="matrix(0.5,0,0,0.5,193.43,61.8299)"
font-family="MS Shell Dlg 2" font-size="8" font-weight="400" font-style="normal" 
>
<path vector-effect="none" fill-rule="evenodd" d="M2.5625,-4.51563 C2.375,-4.51563 2.21875,-4.58854 2.09375,-4.73438 C1.96875,-4.88021 1.90625,-5.03646 1.90625,-5.20313 C1.90625,-5.39063 1.96875,-5.54948 2.09375,-5.67969 C2.21875,-5.8099 2.375,-5.875 2.5625,-5.875 L23.9063,-5.875 C24.0729,-5.875 24.2161,-5.8099 24.3359,-5.67969 C24.4557,-5.54948 24.5156,-5.39063 24.5156,-5.20313 C24.5156,-5.03646 24.4557,-4.88021 24.3359,-4.73438 C24.2161,-4.58854 24.0729,-4.51563 23.9063,-4.51563 L2.5625,-4.51563 M2.5625,-11.125 C2.375,-11.125 2.21875,-11.1901 2.09375,-11.3203 C1.96875,-11.4505 1.90625,-11.6094 1.90625,-11.7969 C1.90625,-11.9635 1.96875,-12.1198 2.09375,-12.2656 C2.21875,-12.4115 2.375,-12.4844 2.5625,-12.4844 L23.9063,-12.4844 C24.0729,-12.4844 24.2161,-12.4115 24.3359,-12.2656 C24.4557,-12.1198 24.5156,-11.9635 24.5156,-11.7969 C24.5156,-11.6094 24.4557,-11.4505 24.3359,-11.3203 C24.2161,-11.1901 24.0729,-11.125 23.9063,-11.125 L2.5625,-11.125"/>
</g>

<g fill="#212121" fill-opacity="1" stroke="none" transform="matrix(0.5,0,0,0.5,211.374,61.8299)"
font-family="MS Shell Dlg 2" font-size="8" font-weight="400" font-style="normal" 
>
<path vector-effect="none" fill-rule="evenodd" d="M1.42188,-5.17188 C1.42188,-6.52604 1.8724,-7.72656 2.77344,-8.77344 C3.67448,-9.82031 4.82292,-10.6927 6.21875,-11.3906 L4.96875,-12.2031 C4.1875,-12.7135 3.55469,-13.3932 3.07031,-14.2422 C2.58594,-15.0911 2.34375,-15.9792 2.34375,-16.9063 C2.34375,-17.9896 2.6276,-18.9688 3.19531,-19.8438 C3.76302,-20.7188 4.52083,-21.4036 5.46875,-21.8984 C6.41667,-22.3932 7.42708,-22.6406 8.5,-22.6406 C9.51042,-22.6406 10.4818,-22.4375 11.4141,-22.0313 C12.3464,-21.625 13.1146,-21.0391 13.7188,-20.2734 C14.3229,-19.5078 14.625,-18.599 14.625,-17.5469 C14.625,-16.7865 14.4453,-16.0807 14.0859,-15.4297 C13.7266,-14.7786 13.2344,-14.1927 12.6094,-13.6719 C11.9844,-13.151 11.3177,-12.7083 10.6094,-12.3438 L12.5469,-11.0938 C13.4427,-10.5104 14.1667,-9.74219 14.7188,-8.78906 C15.2708,-7.83594 15.5469,-6.83333 15.5469,-5.78125 C15.5469,-4.55208 15.2161,-3.4349 14.5547,-2.42969 C13.8932,-1.42448 13.0208,-0.643229 11.9375,-0.0859375 C10.8542,0.471354 9.70833,0.75 8.5,0.75 C7.32292,0.75 6.1901,0.510417 5.10156,0.03125 C4.01302,-0.447917 3.1276,-1.13802 2.44531,-2.03906 C1.76302,-2.9401 1.42188,-3.98438 1.42188,-5.17188 M3.26563,-5.17188 C3.26563,-4.27604 3.51302,-3.45833 4.00781,-2.71875 C4.5026,-1.97917 5.15365,-1.39844 5.96094,-0.976563 C6.76823,-0.554688 7.61458,-0.34375 8.5,-0.34375 C9.8125,-0.34375 11.0078,-0.729167 12.0859,-1.5 C13.1641,-2.27083 13.7031,-3.29167 13.7031,-4.5625 C13.7031,-4.98958 13.6172,-5.41667 13.4453,-5.84375 C13.2734,-6.27083 13.0339,-6.65885 12.7266,-7.00781 C12.4193,-7.35677 12.0781,-7.64063 11.7031,-7.85938 L7.14063,-10.8125 C6.43229,-10.4375 5.78125,-9.96354 5.1875,-9.39063 C4.59375,-8.81771 4.125,-8.17188 3.78125,-7.45313 C3.4375,-6.73438 3.26563,-5.97396 3.26563,-5.17188 M5.60938,-15.5469 L9.73438,-12.8906 C10.6823,-13.4427 11.4609,-14.112 12.0703,-14.8984 C12.6797,-15.6849 12.9844,-16.5677 12.9844,-17.5469 C12.9844,-18.3177 12.7708,-19.0208 12.3438,-19.6563 C11.9167,-20.2917 11.3594,-20.7865 10.6719,-21.1406 C9.98438,-21.4948 9.25,-21.6719 8.46875,-21.6719 C7.78125,-21.6719 7.08854,-21.5391 6.39063,-21.2734 C5.69271,-21.0078 5.11719,-20.612 4.66406,-20.0859 C4.21094,-19.5599 3.98438,-18.9427 3.98438,-18.2344 C3.98438,-17.1719 4.52604,-16.276 5.60938,-15.5469 "/>
</g>

<g fill="#212121" fill-opacity="1" stroke="none" transform="matrix(0.5,0,0,0.5,219.874,61.8299)"
font-family="MS Shell Dlg 2" font-size="8" font-weight="400" font-style="normal" 
>
<path vector-effect="none" fill-rule="evenodd" d="M2.85938,-1.875 C2.85938,-2.38542 3.04688,-2.82292 3.42188,-3.1875 C3.79688,-3.55208 4.23438,-3.73438 4.73438,-3.73438 C5.04688,-3.73438 5.35156,-3.65104 5.64844,-3.48438 C5.94531,-3.31771 6.17708,-3.08594 6.34375,-2.78906 C6.51042,-2.49219 6.59375,-2.1875 6.59375,-1.875 C6.59375,-1.375 6.41146,-0.9375 6.04688,-0.5625 C5.68229,-0.1875 5.24479,0 4.73438,0 C4.23438,0 3.79688,-0.1875 3.42188,-0.5625 C3.04688,-0.9375 2.85938,-1.375 2.85938,-1.875 "/>
</g>

<g fill="#212121" fill-opacity="1" stroke="none" transform="matrix(0.5,0,0,0.5,224.596,61.8299)"
font-family="MS Shell Dlg 2" font-size="8" font-weight="400" font-style="normal" 
>
<path vector-effect="none" fill-rule="evenodd" d="M2.95313,-3.875 C3.18229,-3.21875 3.53906,-2.61979 4.02344,-2.07813 C4.50781,-1.53646 5.07813,-1.11198 5.73438,-0.804688 C6.39063,-0.497396 7.07292,-0.34375 7.78125,-0.34375 C9.42708,-0.34375 10.5599,-0.979167 11.1797,-2.25 C11.7995,-3.52083 12.1094,-5.0625 12.1094,-6.875 C12.1094,-7.66667 12.0938,-8.33073 12.0625,-8.86719 C12.0313,-9.40365 11.9583,-9.91667 11.8438,-10.4063 C11.625,-11.2083 11.2526,-11.9063 10.7266,-12.5 C10.2005,-13.0938 9.55729,-13.3906 8.79688,-13.3906 C8.03646,-13.3906 7.38281,-13.276 6.83594,-13.0469 C6.28906,-12.8177 5.84375,-12.5469 5.5,-12.2344 C5.15625,-11.9219 4.85156,-11.5938 4.58594,-11.25 C4.32031,-10.9063 4.15104,-10.724 4.07813,-10.7031 L3.70313,-10.7031 C3.65104,-10.7031 3.58333,-10.7396 3.5,-10.8125 C3.41667,-10.8854 3.375,-10.9583 3.375,-11.0313 L3.375,-22.375 C3.375,-22.4375 3.41146,-22.4974 3.48438,-22.5547 C3.55729,-22.612 3.63021,-22.6406 3.70313,-22.6406 L3.79688,-22.6406 C5.32813,-21.9115 6.95313,-21.5469 8.67188,-21.5469 C10.349,-21.5469 11.9688,-21.9115 13.5313,-22.6406 L13.625,-22.6406 C13.7083,-22.6406 13.7839,-22.6146 13.8516,-22.5625 C13.9193,-22.5104 13.9531,-22.4479 13.9531,-22.375 L13.9531,-22.0625 C13.9531,-21.9479 13.9271,-21.8906 13.875,-21.8906 C13.1042,-20.8698 12.1354,-20.0703 10.9688,-19.4922 C9.80208,-18.9141 8.59375,-18.625 7.34375,-18.625 C6.4375,-18.625 5.50521,-18.7552 4.54688,-19.0156 L4.54688,-12.5781 C5.29688,-13.1927 5.96875,-13.6302 6.5625,-13.8906 C7.15625,-14.151 7.91146,-14.2813 8.82813,-14.2813 C10.0781,-14.2813 11.2005,-13.9219 12.1953,-13.2031 C13.1901,-12.4844 13.9531,-11.5469 14.4844,-10.3906 C15.0156,-9.23438 15.2813,-8.05208 15.2813,-6.84375 C15.2813,-5.47917 14.9453,-4.21615 14.2734,-3.05469 C13.6016,-1.89323 12.6901,-0.96875 11.5391,-0.28125 C10.388,0.40625 9.13542,0.75 7.78125,0.75 C6.66667,0.75 5.64063,0.460938 4.70313,-0.117188 C3.76563,-0.695313 3.02865,-1.47135 2.49219,-2.44531 C1.95573,-3.41927 1.6875,-4.45313 1.6875,-5.54688 C1.6875,-6.05729 1.85417,-6.47396 2.1875,-6.79688 C2.52083,-7.11979 2.9375,-7.28125 3.4375,-7.28125 C3.9375,-7.28125 4.35677,-7.11719 4.69531,-6.78906 C5.03385,-6.46094 5.20313,-6.05208 5.20313,-5.5625 C5.20313,-5.07292 5.03385,-4.65885 4.69531,-4.32031 C4.35677,-3.98177 3.9375,-3.8125 3.4375,-3.8125 C3.36458,-3.8125 3.27604,-3.82031 3.17188,-3.83594 C3.06771,-3.85156 2.99479,-3.86458 2.95313,-3.875 "/>
</g>

<g fill="#212121" fill-opacity="1" stroke="none" transform="matrix(0.5,0,0,0.5,238.763,61.8299)"
font-family="MS Shell Dlg 2" font-size="8" font-weight="400" font-style="normal" 
>
<path vector-effect="none" fill-rule="evenodd" d="M4.01563,8.5 L4.01563,-25.5 L8.67188,-25.5 L8.67188,-24.1406 L5.375,-24.1406 L5.375,7.14063 L8.67188,7.14063 L8.67188,8.5 L4.01563,8.5"/>
</g>

<g fill="#212121" fill-opacity="1" stroke="none" transform="matrix(0.5,0,0,0.5,243.485,61.8299)"
font-family="MS Shell Dlg 2" font-size="8" font-weight="400" font-style="normal" 
>
<path vector-effect="none" fill-rule="evenodd" d="M1.125,0.09375 L1.125,-5.46875 C1.125,-5.64583 1.22396,-5.73438 1.42188,-5.73438 L1.84375,-5.73438 C1.97917,-5.73438 2.06771,-5.64583 2.10938,-5.46875 C2.74479,-2.17708 4.27083,-0.53125 6.6875,-0.53125 C7.76042,-0.53125 8.65885,-0.776042 9.38281,-1.26563 C10.1068,-1.75521 10.4688,-2.50521 10.4688,-3.51563 C10.4688,-4.24479 10.1875,-4.86719 9.625,-5.38281 C9.0625,-5.89844 8.39583,-6.25 7.625,-6.4375 L5.34375,-6.89063 C4.58333,-7.05729 3.89063,-7.3125 3.26563,-7.65625 C2.64063,-8 2.1276,-8.45573 1.72656,-9.02344 C1.32552,-9.59115 1.125,-10.25 1.125,-11 C1.125,-11.9896 1.38802,-12.8021 1.91406,-13.4375 C2.4401,-14.0729 3.125,-14.5313 3.96875,-14.8125 C4.8125,-15.0938 5.71875,-15.2344 6.6875,-15.2344 C7.85417,-15.2344 8.86979,-14.9323 9.73438,-14.3281 L10.7031,-15.1563 C10.7031,-15.2083 10.7604,-15.2344 10.875,-15.2344 L11.125,-15.2344 C11.1875,-15.2344 11.2474,-15.2057 11.3047,-15.1484 C11.362,-15.0911 11.3906,-15.026 11.3906,-14.9531 L11.3906,-10.5313 C11.3906,-10.3125 11.3021,-10.2031 11.125,-10.2031 L10.7031,-10.2031 C10.5052,-10.2031 10.4063,-10.3125 10.4063,-10.5313 C10.4063,-11.7083 10.0781,-12.6563 9.42188,-13.375 C8.76563,-14.0938 7.84375,-14.4531 6.65625,-14.4531 C5.63542,-14.4531 4.7526,-14.2656 4.00781,-13.8906 C3.26302,-13.5156 2.89063,-12.8698 2.89063,-11.9531 C2.89063,-11.3177 3.15885,-10.7995 3.69531,-10.3984 C4.23177,-9.9974 4.85938,-9.70833 5.57813,-9.53125 L7.89063,-9.09375 C8.66146,-8.91667 9.38281,-8.61719 10.0547,-8.19531 C10.7266,-7.77344 11.2578,-7.24219 11.6484,-6.60156 C12.0391,-5.96094 12.2344,-5.23438 12.2344,-4.42188 C12.2344,-3.59896 12.0938,-2.88542 11.8125,-2.28125 C11.5313,-1.67708 11.138,-1.17708 10.6328,-0.78125 C10.1276,-0.385417 9.53125,-0.09375 8.84375,0.09375 C8.15625,0.28125 7.4375,0.375 6.6875,0.375 C5.27083,0.375 4.0625,-0.104167 3.0625,-1.0625 L1.8125,0.296875 C1.8125,0.348958 1.75,0.375 1.625,0.375 L1.42188,0.375 C1.22396,0.375 1.125,0.28125 1.125,0.09375 "/>
</g>

<g fill="#212121" fill-opacity="1" stroke="none" transform="matrix(0.5,0,0,0.5,250.191,61.8299)"
font-family="MS Shell Dlg 2" font-size="8" font-weight="400" font-style="normal" 
>
<path vector-effect="none" fill-rule="evenodd" d="M0.75,8.5 L0.75,7.14063 L4.04688,7.14063 L4.04688,-24.1406 L0.75,-24.1406 L0.75,-25.5 L5.40625,-25.5 L5.40625,8.5 L0.75,8.5"/>
</g>

<g fill="#ffffff" fill-opacity="1" stroke="none" transform="matrix(5e-05,0,0,5e-05,0,0)"
font-family="MS Shell Dlg 2" font-size="8" font-weight="400" font-style="normal" 
>
<path vector-effect="none" fill-rule="evenodd" d="M5.86363e+06,1.449e+06 L7.44941e+06,1.449e+06 L7.44941e+06,920999 L5.86363e+06,920999 L5.86363e+06,1.449e+06"/>
</g>

<g fill="#212121" fill-opacity="1" stroke="none" transform="matrix(0.5,0,0,0.5,296.182,63.3299)"
font-family="MS Shell Dlg 2" font-size="8" font-weight="400" font-style="normal" 
>
<path vector-effect="none" fill-rule="evenodd" d="M1.84375,0 C1.65625,0 1.5625,-0.0885417 1.5625,-0.265625 C1.57292,-0.286458 1.58073,-0.302083 1.58594,-0.3125 C1.59115,-0.322917 1.59375,-0.34375 1.59375,-0.375 L13.2969,-23.9688 C13.401,-24.2188 13.6042,-24.3438 13.9063,-24.3438 L14.375,-24.3438 C14.6875,-24.3438 14.8906,-24.2188 14.9844,-23.9688 L26.7031,-0.375 C26.7135,-0.354167 26.7214,-0.335938 26.7266,-0.320313 C26.7318,-0.304688 26.7344,-0.286458 26.7344,-0.265625 C26.7344,-0.0885417 26.6406,0 26.4531,0 L1.84375,0 M4.07813,-2.71875 L22,-2.71875 L13.0469,-20.7656 L4.07813,-2.71875"/>
</g>

<g fill="#212121" fill-opacity="1" stroke="none" transform="matrix(0.5,0,0,0.5,310.348,63.3299)"
font-family="MS Shell Dlg 2" font-size="8" font-weight="400" font-style="normal" 
>
<path vector-effect="none" fill-rule="evenodd" d="M2.10938,-2.76563 C2.10938,-3.09896 2.14063,-3.41667 2.20313,-3.71875 L4.67188,-13.4688 L1.09375,-13.4688 C0.864583,-13.4688 0.75,-13.6146 0.75,-13.9063 C0.833333,-14.4063 0.984375,-14.6563 1.20313,-14.6563 L4.96875,-14.6563 L6.32813,-20.2031 C6.41146,-20.5052 6.58594,-20.7604 6.85156,-20.9688 C7.11719,-21.1771 7.41667,-21.2813 7.75,-21.2813 C8.04167,-21.2813 8.28385,-21.1953 8.47656,-21.0234 C8.66927,-20.8516 8.76563,-20.625 8.76563,-20.3438 C8.76563,-20.2708 8.76302,-20.2161 8.75781,-20.1797 C8.7526,-20.1432 8.74479,-20.1042 8.73438,-20.0625 L7.375,-14.6563 L10.875,-14.6563 C11.1042,-14.6563 11.2188,-14.5104 11.2188,-14.2188 C11.2083,-14.1563 11.1875,-14.0599 11.1563,-13.9297 C11.125,-13.7995 11.0807,-13.6901 11.0234,-13.6016 C10.9661,-13.513 10.8854,-13.4688 10.7813,-13.4688 L7.07813,-13.4688 L4.625,-3.65625 C4.46875,-3.01042 4.39063,-2.45313 4.39063,-1.98438 C4.39063,-1.01563 4.71875,-0.53125 5.375,-0.53125 C6.375,-0.53125 7.26042,-0.997396 8.03125,-1.92969 C8.80208,-2.86198 9.39063,-3.89063 9.79688,-5.01563 C9.88021,-5.14063 9.96875,-5.20313 10.0625,-5.20313 L10.4688,-5.20313 C10.5625,-5.20313 10.638,-5.17448 10.6953,-5.11719 C10.7526,-5.0599 10.7813,-4.98958 10.7813,-4.90625 C10.7813,-4.86458 10.7656,-4.83333 10.7344,-4.8125 C10.2448,-3.4375 9.52344,-2.22917 8.57031,-1.1875 C7.61719,-0.145833 6.52604,0.375 5.29688,0.375 C4.40104,0.375 3.64583,0.0807292 3.03125,-0.507813 C2.41667,-1.09635 2.10938,-1.84896 2.10938,-2.76563 "/>
</g>

<g fill="#212121" fill-opacity="1" stroke="none" transform="matrix(0.5,0,0,0.5,321.209,63.3299)"
font-family="MS Shell Dlg 2" font-size="8" font-weight="400" font-style="normal" 
>
<path vector-effect="none" fill-rule="evenodd" d="M2.5625,-4.51563 C2.375,-4.51563 2.21875,-4.58854 2.09375,-4.73438 C1.96875,-4.88021 1.90625,-5.03646 1.90625,-5.20313 C1.90625,-5.39063 1.96875,-5.54948 2.09375,-5.67969 C2.21875,-5.8099 2.375,-5.875 2.5625,-5.875 L23.9063,-5.875 C24.0729,-5.875 24.2161,-5.8099 24.3359,-5.67969 C24.4557,-5.54948 24.5156,-5.39063 24.5156,-5.20313 C24.5156,-5.03646 24.4557,-4.88021 24.3359,-4.73438 C24.2161,-4.58854 24.0729,-4.51563 23.9063,-4.51563 L2.5625,-4.51563 M2.5625,-11.125 C2.375,-11.125 2.21875,-11.1901 2.09375,-11.3203 C1.96875,-11.4505 1.90625,-11.6094 1.90625,-11.7969 C1.90625,-11.9635 1.96875,-12.1198 2.09375,-12.2656 C2.21875,-12.4115 2.375,-12.4844 2.5625,-12.4844 L23.9063,-12.4844 C24.0729,-12.4844 24.2161,-12.4115 24.3359,-12.2656 C24.4557,-12.1198 24.5156,-11.9635 24.5156,-11.7969 C24.5156,-11.6094 24.4557,-11.4505 24.3359,-11.3203 C24.2161,-11.1901 24.0729,-11.125 23.9063,-11.125 L2.5625,-11.125"/>
</g>

<g fill="#212121" fill-opacity="1" stroke="none" transform="matrix(0.5,0,0,0.5,339.154,63.3299)"
font-family="MS Shell Dlg 2" font-size="8" font-weight="400" font-style="normal" 
>
<path vector-effect="none" fill-rule="evenodd" d="M8.5,0.75 C7.09375,0.75 5.91927,0.375 4.97656,-0.375 C4.03385,-1.125 3.30729,-2.09375 2.79688,-3.28125 C2.28646,-4.46875 1.92969,-5.71615 1.72656,-7.02344 C1.52344,-8.33073 1.42188,-9.65104 1.42188,-10.9844 C1.42188,-12.7865 1.77083,-14.5885 2.46875,-16.3906 C3.16667,-18.1927 4.19531,-19.6849 5.55469,-20.8672 C6.91406,-22.0495 8.52083,-22.6406 10.375,-22.6406 C11.1458,-22.6406 11.8672,-22.4948 12.5391,-22.2031 C13.2109,-21.9115 13.737,-21.4818 14.1172,-20.9141 C14.4974,-20.3464 14.6875,-19.6563 14.6875,-18.8438 C14.6875,-18.375 14.5313,-17.9844 14.2188,-17.6719 C13.9063,-17.3594 13.5156,-17.2031 13.0469,-17.2031 C12.6094,-17.2031 12.2292,-17.362 11.9063,-17.6797 C11.5833,-17.9974 11.4219,-18.3854 11.4219,-18.8438 C11.4219,-19.2813 11.5833,-19.6615 11.9063,-19.9844 C12.2292,-20.3073 12.6094,-20.4688 13.0469,-20.4688 L13.2344,-20.4688 C12.9427,-20.875 12.5339,-21.1771 12.0078,-21.375 C11.4818,-21.5729 10.9375,-21.6719 10.375,-21.6719 C9.6875,-21.6719 9.05469,-21.5208 8.47656,-21.2188 C7.89844,-20.9167 7.375,-20.5104 6.90625,-20 C6.4375,-19.4896 6.04948,-18.9271 5.74219,-18.3125 C5.4349,-17.6979 5.19531,-16.9974 5.02344,-16.2109 C4.85156,-15.4245 4.74219,-14.6875 4.69531,-14 C4.64844,-13.3125 4.625,-12.4479 4.625,-11.4063 C5.03125,-12.3438 5.59896,-13.1094 6.32813,-13.7031 C7.05729,-14.2969 7.88021,-14.5938 8.79688,-14.5938 C9.80729,-14.5938 10.7266,-14.388 11.5547,-13.9766 C12.3828,-13.5651 13.0964,-12.9974 13.6953,-12.2734 C14.2943,-11.5495 14.7526,-10.724 15.0703,-9.79688 C15.388,-8.86979 15.5469,-7.92708 15.5469,-6.96875 C15.5469,-5.64583 15.25,-4.38281 14.6563,-3.17969 C14.0625,-1.97656 13.2292,-1.02083 12.1563,-0.3125 C11.0833,0.395833 9.86458,0.75 8.5,0.75 M8.5,-0.34375 C9.375,-0.34375 10.0781,-0.544271 10.6094,-0.945313 C11.1406,-1.34635 11.5313,-1.875 11.7813,-2.53125 C12.0313,-3.1875 12.1849,-3.84896 12.2422,-4.51563 C12.2995,-5.18229 12.3281,-6 12.3281,-6.96875 C12.3281,-8.25 12.2682,-9.34375 12.1484,-10.25 C12.0286,-11.1563 11.6979,-11.9557 11.1563,-12.6484 C10.6146,-13.3411 9.78646,-13.6875 8.67188,-13.6875 C7.74479,-13.6875 6.98698,-13.3776 6.39844,-12.7578 C5.8099,-12.138 5.38021,-11.3568 5.10938,-10.4141 C4.83854,-9.47135 4.70313,-8.5625 4.70313,-7.6875 C4.70313,-7.38542 4.71354,-7.15625 4.73438,-7 C4.73438,-6.96875 4.73177,-6.94271 4.72656,-6.92188 C4.72135,-6.90104 4.71354,-6.875 4.70313,-6.84375 C4.70313,-5.875 4.80208,-4.89323 5,-3.89844 C5.19792,-2.90365 5.57813,-2.0625 6.14063,-1.375 C6.70313,-0.6875 7.48958,-0.34375 8.5,-0.34375 "/>
</g>

<g fill="#212121" fill-opacity="1" stroke="none" transform="matrix(0.5,0,0,0.5,353.32,63.3299)"
font-family="MS Shell Dlg 2" font-size="8" font-weight="400" font-style="normal" 
>
<path vector-effect="none" fill-rule="evenodd" d="M4.01563,8.5 L4.01563,-25.5 L8.67188,-25.5 L8.67188,-24.1406 L5.375,-24.1406 L5.375,7.14063 L8.67188,7.14063 L8.67188,8.5 L4.01563,8.5"/>
</g>

<g fill="#212121" fill-opacity="1" stroke="none" transform="matrix(0.5,0,0,0.5,358.043,63.3299)"
font-family="MS Shell Dlg 2" font-size="8" font-weight="400" font-style="normal" 
>
<path vector-effect="none" fill-rule="evenodd" d="M1.125,0.09375 L1.125,-5.46875 C1.125,-5.64583 1.22396,-5.73438 1.42188,-5.73438 L1.84375,-5.73438 C1.97917,-5.73438 2.06771,-5.64583 2.10938,-5.46875 C2.74479,-2.17708 4.27083,-0.53125 6.6875,-0.53125 C7.76042,-0.53125 8.65885,-0.776042 9.38281,-1.26563 C10.1068,-1.75521 10.4688,-2.50521 10.4688,-3.51563 C10.4688,-4.24479 10.1875,-4.86719 9.625,-5.38281 C9.0625,-5.89844 8.39583,-6.25 7.625,-6.4375 L5.34375,-6.89063 C4.58333,-7.05729 3.89063,-7.3125 3.26563,-7.65625 C2.64063,-8 2.1276,-8.45573 1.72656,-9.02344 C1.32552,-9.59115 1.125,-10.25 1.125,-11 C1.125,-11.9896 1.38802,-12.8021 1.91406,-13.4375 C2.4401,-14.0729 3.125,-14.5313 3.96875,-14.8125 C4.8125,-15.0938 5.71875,-15.2344 6.6875,-15.2344 C7.85417,-15.2344 8.86979,-14.9323 9.73438,-14.3281 L10.7031,-15.1563 C10.7031,-15.2083 10.7604,-15.2344 10.875,-15.2344 L11.125,-15.2344 C11.1875,-15.2344 11.2474,-15.2057 11.3047,-15.1484 C11.362,-15.0911 11.3906,-15.026 11.3906,-14.9531 L11.3906,-10.5313 C11.3906,-10.3125 11.3021,-10.2031 11.125,-10.2031 L10.7031,-10.2031 C10.5052,-10.2031 10.4063,-10.3125 10.4063,-10.5313 C10.4063,-11.7083 10.0781,-12.6563 9.42188,-13.375 C8.76563,-14.0938 7.84375,-14.4531 6.65625,-14.4531 C5.63542,-14.4531 4.7526,-14.2656 4.00781,-13.8906 C3.26302,-13.5156 2.89063,-12.8698 2.89063,-11.9531 C2.89063,-11.3177 3.15885,-10.7995 3.69531,-10.3984 C4.23177,-9.9974 4.85938,-9.70833 5.57813,-9.53125 L7.89063,-9.09375 C8.66146,-8.91667 9.38281,-8.61719 10.0547,-8.19531 C10.7266,-7.77344 11.2578,-7.24219 11.6484,-6.60156 C12.0391,-5.96094 12.2344,-5.23438 12.2344,-4.42188 C12.2344,-3.59896 12.0938,-2.88542 11.8125,-2.28125 C11.5313,-1.67708 11.138,-1.17708 10.6328,-0.78125 C10.1276,-0.385417 9.53125,-0.09375 8.84375,0.09375 C8.15625,0.28125 7.4375,0.375 6.6875,0.375 C5.27083,0.375 4.0625,-0.104167 3.0625,-1.0625 L1.8125,0.296875 C1.8125,0.348958 1.75,0.375 1.625,0.375 L1.42188,0.375 C1.22396,0.375 1.125,0.28125 1.125,0.09375 "/>
</g>

<g fill="#212121" fill-opacity="1" stroke="none" transform="matrix(0.5,0,0,0.5,364.748,63.3299)"
font-family="MS Shell Dlg 2" font-size="8" font-weight="400" font-style="normal" 
>
<path vector-effect="none" fill-rule="evenodd" d="M0.75,8.5 L0.75,7.14063 L4.04688,7.14063 L4.04688,-24.1406 L0.75,-24.1406 L0.75,-25.5 L5.40625,-25.5 L5.40625,8.5 L0.75,8.5"/>
</g>

<g fill="#ffffff" fill-opacity="1" stroke="none" transform="matrix(5e-05,0,0,5e-05,0,0)"
font-family="MS Shell Dlg 2" font-size="8" font-weight="400" font-style="normal" 
>
<path vector-effect="none" fill-rule="evenodd" d="M7.75e+06,90000 L7.75e+06,1.39e+06 L9.54e+06,1.39e+06 L9.54e+06,90000 L7.75e+06,90000"/>
</g>

<g fill="#1171be" fill-opacity="1" stroke="#1171be" stroke-opacity="1" stroke-width="4" stroke-linecap="butt" stroke-linejoin="round" transform="matrix(0.5,0,0,0.5,0,0)"
font-family="MS Shell Dlg 2" font-size="8" font-weight="400" font-style="normal" 
>
<polyline fill="none" vector-effect="none" points="780.983,32.41 840.816,32.41 " />
</g>

<g fill="#dd5400" fill-opacity="1" stroke="#dd5400" stroke-opacity="1" stroke-width="4" stroke-linecap="butt" stroke-linejoin="round" transform="matrix(0.5,0,0,0.5,0,0)"
font-family="MS Shell Dlg 2" font-size="8" font-weight="400" font-style="normal" 
>
<polyline fill="none" vector-effect="none" points="780.983,74 840.816,74 " />
</g>

<g fill="#edb120" fill-opacity="1" stroke="#edb120" stroke-opacity="1" stroke-width="4" stroke-linecap="butt" stroke-linejoin="round" transform="matrix(0.5,0,0,0.5,0,0)"
font-family="MS Shell Dlg 2" font-size="8" font-weight="400" font-style="normal" 
>
<polyline fill="none" vector-effect="none" points="780.983,115.59 840.816,115.59 " />
</g>

<g fill="#212121" fill-opacity="1" stroke="none" transform="matrix(0.5,0,0,0.5,422.652,22.455)"
font-family="MS Shell Dlg 2" font-size="8" font-weight="400" font-style="normal" 
>
<path vector-effect="none" fill-rule="evenodd" d="M2.78125,0 L2.78125,-25.7656 L12.5,-25.7656 C14.2083,-25.7656 15.5156,-25.6875 16.4219,-25.5313 C17.6823,-25.3125 18.7422,-24.9089 19.6016,-24.3203 C20.4609,-23.7318 21.151,-22.9036 21.6719,-21.8359 C22.1927,-20.7682 22.4531,-19.5938 22.4531,-18.3125 C22.4531,-16.125 21.7552,-14.2734 20.3594,-12.7578 C18.9635,-11.2422 16.4427,-10.4844 12.7969,-10.4844 L6.1875,-10.4844 L6.1875,0 L2.78125,0 M6.1875,-13.5156 L12.8438,-13.5156 C15.0521,-13.5156 16.6198,-13.9271 17.5469,-14.75 C18.474,-15.5729 18.9375,-16.7292 18.9375,-18.2188 C18.9375,-19.2917 18.6641,-20.2109 18.1172,-20.9766 C17.5703,-21.7422 16.8542,-22.25 15.9688,-22.5 C15.3854,-22.6563 14.3229,-22.7344 12.7813,-22.7344 L6.1875,-22.7344 L6.1875,-13.5156 M26.3906,-22.125 L26.3906,-25.7656 L29.5625,-25.7656 L29.5625,-22.125 L26.3906,-22.125 M26.3906,0 L26.3906,-18.6719 L29.5625,-18.6719 L29.5625,0 L26.3906,0 M34.375,7.15625 L34.375,-18.6719 L37.25,-18.6719 L37.25,-16.25 C37.9375,-17.1979 38.7083,-17.9089 39.5625,-18.3828 C40.4167,-18.8568 41.4531,-19.0938 42.6719,-19.0938 C44.2656,-19.0938 45.6719,-18.6823 46.8906,-17.8594 C48.1094,-17.0365 49.0286,-15.8776 49.6484,-14.3828 C50.2682,-12.888 50.5781,-11.25 50.5781,-9.46875 C50.5781,-7.5625 50.237,-5.84375 49.5547,-4.3125 C48.8724,-2.78125 47.8776,-1.60938 46.5703,-0.796875 C45.263,0.015625 43.8854,0.421875 42.4375,0.421875 C41.3854,0.421875 40.4401,0.197917 39.6016,-0.25 C38.763,-0.697917 38.0729,-1.26042 37.5313,-1.9375 L37.5313,7.15625 L34.375,7.15625 M37.2344,-9.23438 C37.2344,-6.82813 37.7214,-5.05208 38.6953,-3.90625 C39.6693,-2.76042 40.849,-2.1875 42.2344,-2.1875 C43.6406,-2.1875 44.8438,-2.78125 45.8438,-3.96875 C46.8438,-5.15625 47.3438,-7 47.3438,-9.5 C47.3438,-11.875 46.8542,-13.6536 45.875,-14.8359 C44.8958,-16.0182 43.7292,-16.6094 42.375,-16.6094 C41.0208,-16.6094 39.8255,-15.9792 38.7891,-14.7188 C37.7526,-13.4583 37.2344,-11.6302 37.2344,-9.23438 M67.1563,-6.01563 L70.4219,-5.60938 C69.9115,-3.70313 68.9583,-2.22135 67.5625,-1.16406 C66.1667,-0.106771 64.3854,0.421875 62.2188,0.421875 C59.4896,0.421875 57.3229,-0.419271 55.7188,-2.10156 C54.1146,-3.78385 53.3125,-6.14063 53.3125,-9.17188 C53.3125,-12.3177 54.1224,-14.7578 55.7422,-16.4922 C57.362,-18.2266 59.4583,-19.0938 62.0313,-19.0938 C64.5313,-19.0938 66.5729,-18.2448 68.1563,-16.5469 C69.7396,-14.849 70.5313,-12.4583 70.5313,-9.375 C70.5313,-9.1875 70.526,-8.90625 70.5156,-8.53125 L56.5938,-8.53125 C56.7083,-6.47917 57.2865,-4.90885 58.3281,-3.82031 C59.3698,-2.73177 60.6719,-2.1875 62.2344,-2.1875 C63.3906,-2.1875 64.3802,-2.49219 65.2031,-3.10156 C66.026,-3.71094 66.6771,-4.68229 67.1563,-6.01563 M56.7656,-11.125 L67.1875,-11.125 C67.0521,-12.6979 66.6563,-13.875 66,-14.6563 C64.9896,-15.875 63.6823,-16.4844 62.0781,-16.4844 C60.6198,-16.4844 59.3958,-16 58.4063,-15.0313 C57.4167,-14.0625 56.8698,-12.7604 56.7656,-11.125 M95.4063,0 L92.25,0 L92.25,-20.1563 C91.4896,-19.4375 90.4896,-18.7135 89.25,-17.9844 C88.0104,-17.2552 86.901,-16.7083 85.9219,-16.3438 L85.9219,-19.4063 C87.6927,-20.2396 89.2396,-21.2474 90.5625,-22.4297 C91.8854,-23.612 92.8229,-24.7604 93.375,-25.875 L95.4063,-25.875 L95.4063,0"/>
</g>

<g fill="#212121" fill-opacity="1" stroke="none" transform="matrix(0.5,0,0,0.5,422.652,43.25)"
font-family="MS Shell Dlg 2" font-size="8" font-weight="400" font-style="normal" 
>
<path vector-effect="none" fill-rule="evenodd" d="M2.78125,0 L2.78125,-25.7656 L12.5,-25.7656 C14.2083,-25.7656 15.5156,-25.6875 16.4219,-25.5313 C17.6823,-25.3125 18.7422,-24.9089 19.6016,-24.3203 C20.4609,-23.7318 21.151,-22.9036 21.6719,-21.8359 C22.1927,-20.7682 22.4531,-19.5938 22.4531,-18.3125 C22.4531,-16.125 21.7552,-14.2734 20.3594,-12.7578 C18.9635,-11.2422 16.4427,-10.4844 12.7969,-10.4844 L6.1875,-10.4844 L6.1875,0 L2.78125,0 M6.1875,-13.5156 L12.8438,-13.5156 C15.0521,-13.5156 16.6198,-13.9271 17.5469,-14.75 C18.474,-15.5729 18.9375,-16.7292 18.9375,-18.2188 C18.9375,-19.2917 18.6641,-20.2109 18.1172,-20.9766 C17.5703,-21.7422 16.8542,-22.25 15.9688,-22.5 C15.3854,-22.6563 14.3229,-22.7344 12.7813,-22.7344 L6.1875,-22.7344 L6.1875,-13.5156 M26.3906,-22.125 L26.3906,-25.7656 L29.5625,-25.7656 L29.5625,-22.125 L26.3906,-22.125 M26.3906,0 L26.3906,-18.6719 L29.5625,-18.6719 L29.5625,0 L26.3906,0 M34.375,7.15625 L34.375,-18.6719 L37.25,-18.6719 L37.25,-16.25 C37.9375,-17.1979 38.7083,-17.9089 39.5625,-18.3828 C40.4167,-18.8568 41.4531,-19.0938 42.6719,-19.0938 C44.2656,-19.0938 45.6719,-18.6823 46.8906,-17.8594 C48.1094,-17.0365 49.0286,-15.8776 49.6484,-14.3828 C50.2682,-12.888 50.5781,-11.25 50.5781,-9.46875 C50.5781,-7.5625 50.237,-5.84375 49.5547,-4.3125 C48.8724,-2.78125 47.8776,-1.60938 46.5703,-0.796875 C45.263,0.015625 43.8854,0.421875 42.4375,0.421875 C41.3854,0.421875 40.4401,0.197917 39.6016,-0.25 C38.763,-0.697917 38.0729,-1.26042 37.5313,-1.9375 L37.5313,7.15625 L34.375,7.15625 M37.2344,-9.23438 C37.2344,-6.82813 37.7214,-5.05208 38.6953,-3.90625 C39.6693,-2.76042 40.849,-2.1875 42.2344,-2.1875 C43.6406,-2.1875 44.8438,-2.78125 45.8438,-3.96875 C46.8438,-5.15625 47.3438,-7 47.3438,-9.5 C47.3438,-11.875 46.8542,-13.6536 45.875,-14.8359 C44.8958,-16.0182 43.7292,-16.6094 42.375,-16.6094 C41.0208,-16.6094 39.8255,-15.9792 38.7891,-14.7188 C37.7526,-13.4583 37.2344,-11.6302 37.2344,-9.23438 M67.1563,-6.01563 L70.4219,-5.60938 C69.9115,-3.70313 68.9583,-2.22135 67.5625,-1.16406 C66.1667,-0.106771 64.3854,0.421875 62.2188,0.421875 C59.4896,0.421875 57.3229,-0.419271 55.7188,-2.10156 C54.1146,-3.78385 53.3125,-6.14063 53.3125,-9.17188 C53.3125,-12.3177 54.1224,-14.7578 55.7422,-16.4922 C57.362,-18.2266 59.4583,-19.0938 62.0313,-19.0938 C64.5313,-19.0938 66.5729,-18.2448 68.1563,-16.5469 C69.7396,-14.849 70.5313,-12.4583 70.5313,-9.375 C70.5313,-9.1875 70.526,-8.90625 70.5156,-8.53125 L56.5938,-8.53125 C56.7083,-6.47917 57.2865,-4.90885 58.3281,-3.82031 C59.3698,-2.73177 60.6719,-2.1875 62.2344,-2.1875 C63.3906,-2.1875 64.3802,-2.49219 65.2031,-3.10156 C66.026,-3.71094 66.6771,-4.68229 67.1563,-6.01563 M56.7656,-11.125 L67.1875,-11.125 C67.0521,-12.6979 66.6563,-13.875 66,-14.6563 C64.9896,-15.875 63.6823,-16.4844 62.0781,-16.4844 C60.6198,-16.4844 59.3958,-16 58.4063,-15.0313 C57.4167,-14.0625 56.8698,-12.7604 56.7656,-11.125 M100.125,-3.04688 L100.125,0 L83.0938,0 C83.0729,-0.760417 83.1927,-1.49479 83.4531,-2.20313 C83.8906,-3.35938 84.5859,-4.5 85.5391,-5.625 C86.4922,-6.75 87.875,-8.05208 89.6875,-9.53125 C92.4896,-11.8229 94.3828,-13.6406 95.3672,-14.9844 C96.3516,-16.3281 96.8438,-17.599 96.8438,-18.7969 C96.8438,-20.0469 96.3932,-21.1016 95.4922,-21.9609 C94.5911,-22.8203 93.4219,-23.25 91.9844,-23.25 C90.4635,-23.25 89.2448,-22.7943 88.3281,-21.8828 C87.4115,-20.9714 86.9479,-19.7083 86.9375,-18.0938 L83.6875,-18.4219 C83.9063,-20.849 84.7422,-22.6979 86.1953,-23.9688 C87.6484,-25.2396 89.6042,-25.875 92.0625,-25.875 C94.5313,-25.875 96.487,-25.1901 97.9297,-23.8203 C99.3724,-22.4505 100.094,-20.75 100.094,-18.7188 C100.094,-17.6875 99.8828,-16.6745 99.4609,-15.6797 C99.0391,-14.6849 98.3385,-13.6354 97.3594,-12.5313 C96.3802,-11.4271 94.7552,-9.91667 92.4844,-8 C90.5781,-6.40625 89.3568,-5.32552 88.8203,-4.75781 C88.2839,-4.1901 87.8385,-3.61979 87.4844,-3.04688 L100.125,-3.04688"/>
</g>

<g fill="#212121" fill-opacity="1" stroke="none" transform="matrix(0.5,0,0,0.5,422.652,64.045)"
font-family="MS Shell Dlg 2" font-size="8" font-weight="400" font-style="normal" 
>
<path vector-effect="none" fill-rule="evenodd" d="M2.78125,0 L2.78125,-25.7656 L12.5,-25.7656 C14.2083,-25.7656 15.5156,-25.6875 16.4219,-25.5313 C17.6823,-25.3125 18.7422,-24.9089 19.6016,-24.3203 C20.4609,-23.7318 21.151,-22.9036 21.6719,-21.8359 C22.1927,-20.7682 22.4531,-19.5938 22.4531,-18.3125 C22.4531,-16.125 21.7552,-14.2734 20.3594,-12.7578 C18.9635,-11.2422 16.4427,-10.4844 12.7969,-10.4844 L6.1875,-10.4844 L6.1875,0 L2.78125,0 M6.1875,-13.5156 L12.8438,-13.5156 C15.0521,-13.5156 16.6198,-13.9271 17.5469,-14.75 C18.474,-15.5729 18.9375,-16.7292 18.9375,-18.2188 C18.9375,-19.2917 18.6641,-20.2109 18.1172,-20.9766 C17.5703,-21.7422 16.8542,-22.25 15.9688,-22.5 C15.3854,-22.6563 14.3229,-22.7344 12.7813,-22.7344 L6.1875,-22.7344 L6.1875,-13.5156 M26.3906,-22.125 L26.3906,-25.7656 L29.5625,-25.7656 L29.5625,-22.125 L26.3906,-22.125 M26.3906,0 L26.3906,-18.6719 L29.5625,-18.6719 L29.5625,0 L26.3906,0 M34.375,7.15625 L34.375,-18.6719 L37.25,-18.6719 L37.25,-16.25 C37.9375,-17.1979 38.7083,-17.9089 39.5625,-18.3828 C40.4167,-18.8568 41.4531,-19.0938 42.6719,-19.0938 C44.2656,-19.0938 45.6719,-18.6823 46.8906,-17.8594 C48.1094,-17.0365 49.0286,-15.8776 49.6484,-14.3828 C50.2682,-12.888 50.5781,-11.25 50.5781,-9.46875 C50.5781,-7.5625 50.237,-5.84375 49.5547,-4.3125 C48.8724,-2.78125 47.8776,-1.60938 46.5703,-0.796875 C45.263,0.015625 43.8854,0.421875 42.4375,0.421875 C41.3854,0.421875 40.4401,0.197917 39.6016,-0.25 C38.763,-0.697917 38.0729,-1.26042 37.5313,-1.9375 L37.5313,7.15625 L34.375,7.15625 M37.2344,-9.23438 C37.2344,-6.82813 37.7214,-5.05208 38.6953,-3.90625 C39.6693,-2.76042 40.849,-2.1875 42.2344,-2.1875 C43.6406,-2.1875 44.8438,-2.78125 45.8438,-3.96875 C46.8438,-5.15625 47.3438,-7 47.3438,-9.5 C47.3438,-11.875 46.8542,-13.6536 45.875,-14.8359 C44.8958,-16.0182 43.7292,-16.6094 42.375,-16.6094 C41.0208,-16.6094 39.8255,-15.9792 38.7891,-14.7188 C37.7526,-13.4583 37.2344,-11.6302 37.2344,-9.23438 M67.1563,-6.01563 L70.4219,-5.60938 C69.9115,-3.70313 68.9583,-2.22135 67.5625,-1.16406 C66.1667,-0.106771 64.3854,0.421875 62.2188,0.421875 C59.4896,0.421875 57.3229,-0.419271 55.7188,-2.10156 C54.1146,-3.78385 53.3125,-6.14063 53.3125,-9.17188 C53.3125,-12.3177 54.1224,-14.7578 55.7422,-16.4922 C57.362,-18.2266 59.4583,-19.0938 62.0313,-19.0938 C64.5313,-19.0938 66.5729,-18.2448 68.1563,-16.5469 C69.7396,-14.849 70.5313,-12.4583 70.5313,-9.375 C70.5313,-9.1875 70.526,-8.90625 70.5156,-8.53125 L56.5938,-8.53125 C56.7083,-6.47917 57.2865,-4.90885 58.3281,-3.82031 C59.3698,-2.73177 60.6719,-2.1875 62.2344,-2.1875 C63.3906,-2.1875 64.3802,-2.49219 65.2031,-3.10156 C66.026,-3.71094 66.6771,-4.68229 67.1563,-6.01563 M56.7656,-11.125 L67.1875,-11.125 C67.0521,-12.6979 66.6563,-13.875 66,-14.6563 C64.9896,-15.875 63.6823,-16.4844 62.0781,-16.4844 C60.6198,-16.4844 59.3958,-16 58.4063,-15.0313 C57.4167,-14.0625 56.8698,-12.7604 56.7656,-11.125 M83.5156,-6.79688 L86.6719,-7.21875 C87.0365,-5.42708 87.6563,-4.13542 88.5313,-3.34375 C89.4063,-2.55208 90.4688,-2.15625 91.7188,-2.15625 C93.2083,-2.15625 94.4661,-2.67188 95.4922,-3.70313 C96.5182,-4.73438 97.0313,-6.01563 97.0313,-7.54688 C97.0313,-8.99479 96.5573,-10.1901 95.6094,-11.1328 C94.6615,-12.0755 93.4531,-12.5469 91.9844,-12.5469 C91.3906,-12.5469 90.6458,-12.4323 89.75,-12.2031 L90.1094,-14.9844 C90.3177,-14.9531 90.4844,-14.9375 90.6094,-14.9375 C91.9635,-14.9375 93.1797,-15.2891 94.2578,-15.9922 C95.3359,-16.6953 95.875,-17.7813 95.875,-19.25 C95.875,-20.4063 95.4818,-21.3672 94.6953,-22.1328 C93.9089,-22.8984 92.8958,-23.2813 91.6563,-23.2813 C90.4271,-23.2813 89.401,-22.8932 88.5781,-22.1172 C87.7552,-21.3411 87.2292,-20.1823 87,-18.6406 L83.8281,-19.2031 C84.2135,-21.3177 85.0911,-22.9583 86.4609,-24.125 C87.8307,-25.2917 89.5365,-25.875 91.5781,-25.875 C92.9844,-25.875 94.2786,-25.5729 95.4609,-24.9688 C96.6432,-24.3646 97.5495,-23.5417 98.1797,-22.5 C98.8099,-21.4583 99.125,-20.349 99.125,-19.1719 C99.125,-18.0677 98.8255,-17.0573 98.2266,-16.1406 C97.6276,-15.224 96.7448,-14.4948 95.5781,-13.9531 C97.099,-13.6094 98.2813,-12.8828 99.125,-11.7734 C99.9688,-10.6641 100.391,-9.27604 100.391,-7.60938 C100.391,-5.35938 99.5703,-3.45313 97.9297,-1.89063 C96.2891,-0.328125 94.2135,0.453125 91.7031,0.453125 C89.4427,0.453125 87.5651,-0.221354 86.0703,-1.57031 C84.5755,-2.91927 83.724,-4.66146 83.5156,-6.79688 "/>
</g>

<g fill="none" stroke="#212121" stroke-opacity="1" stroke-width="1" stroke-linecap="butt" stroke-linejoin="miter" stroke-miterlimit="2" transform="matrix(0.5,0,0,0.5,0,0)"
font-family="MS Shell Dlg 2" font-size="8" font-weight="400" font-style="normal" 
>
<path vector-effect="none" fill-rule="evenodd" d="M775,139 L775,9 L954,9 L954,139 L775,139"/>
</g>
</g>
</svg>
