  0
SECTION
  2
HEADER
  9
$ACADVER
  1
AC1012
  9
$DWGCODEPAGE
  3
ansi_1252
  9
$INSBASE
 10
0.0
 20
0.0
 30
0.0
  9
$EXTMIN
 10
-10.6972586288175
 20
-7.6075
 30
0.0
  9
$EXTMAX
 10
24.9499031106422
 20
11.69229801556
 30
0.0
  9
$LIMMIN
 10
0.0
 20
0.0
  9
$LIMMAX
 10
0.0
 20
0.0
  9
$ORTHOMODE
 70
         0
  9
$REGENMODE
 70
         1
  9
$FILLMODE
 70
         1
  9
$QTEXTMODE
 70
         0
  9
$MIRRTEXT
 70
         1
  9
$DRAGMODE
 70
         2
  9
$LTSCALE
 40
1.0
  9
$OSMODE
 70
         0
  9
$ATTMODE
 70
         1
  9
$TEXTSIZE
 40
3.5
  9
$TRACEWID
 40
0.05
  9
$TEXTSTYLE
  7
STANDARD
  9
$CLAYER
  8
0
  9
$CELTYPE
  6
CONTINUOUS
  9
$CECOLOR
 62
       256
  9
$CELTSCALE
 40
1.0
  9
$DELOBJ
 70
         1
  9
$DISPSILH
 70
         0
  9
$DIMSCALE
 40
1.0
  9
$DIMASZ
 40
0.0
  9
$DIMEXO
 40
0.0
  9
$DIMDLI
 40
0.38
  9
$DIMRND
 40
0.0
  9
$DIMDLE
 40
0.0
  9
$DIMEXE
 40
0.18
  9
$DIMTP
 40
0.0
  9
$DIMTM
 40
0.0
  9
$DIMTXT
 40
2.5
  9
$DIMCEN
 40
0.09
  9
$DIMTSZ
 40
0.0
  9
$DIMTOL
 70
         0
  9
$DIMLIM
 70
         0
  9
$DIMTIH
 70
         1
  9
$DIMTOH
 70
         1
  9
$DIMSE1
 70
         0
  9
$DIMSE2
 70
         0
  9
$DIMTAD
 70
         1
  9
$DIMZIN
 70
         0
  9
$DIMBLK
  1

  9
$DIMASO
 70
         1
  9
$DIMSHO
 70
         1
  9
$DIMPOST
  1

  9
$DIMAPOST
  1

  9
$DIMALT
 70
         0
  9
$DIMALTD
 70
         2
  9
$DIMALTF
 40
0.0394
  9
$DIMLFAC
 40
1.0
  9
$DIMTOFL
 70
         0
  9
$DIMTVP
 40
0.0
  9
$DIMTIX
 70
         0
  9
$DIMSOXD
 70
         0
  9
$DIMSAH
 70
         0
  9
$DIMBLK1
  1

  9
$DIMBLK2
  1

  9
$DIMSTYLE
  2
STANDARD
  9
$DIMCLRD
 70
         0
  9
$DIMCLRE
 70
         0
  9
$DIMCLRT
 70
         0
  9
$DIMTFAC
 40
1.0
  9
$DIMGAP
 40
0.0
  9
$DIMJUST
 70
         0
  9
$DIMSD1
 70
         0
  9
$DIMSD2
 70
         0
  9
$DIMTOLJ
 70
         1
  9
$DIMTZIN
 70
         0
  9
$DIMALTZ
 70
         0
  9
$DIMALTTZ
 70
         0
  9
$DIMFIT
 70
         3
  9
$DIMUPT
 70
         0
  9
$DIMUNIT
 70
         2
  9
$DIMDEC
 70
         4
  9
$DIMTDEC
 70
         4
  9
$DIMALTU
 70
         2
  9
$DIMALTTD
 70
         2
  9
$DIMTXSTY
  7
STANDARD
  9
$DIMAUNIT
 70
         0
  9
$LUNITS
 70
         2
  9
$LUPREC
 70
         4
  9
$SKETCHINC
 40
0.1
  9
$FILLETRAD
 40
0.0
  9
$AUNITS
 70
         0
  9
$AUPREC
 70
         0
  9
$MENU
  1
acad
  9
$ELEVATION
 40
0.0
  9
$PELEVATION
 40
0.0
  9
$THICKNESS
 40
0.0
  9
$LIMCHECK
 70
         0
  9
$BLIPMODE
 70
         1
  9
$CHAMFERA
 40
0.0
  9
$CHAMFERB
 40
0.0
  9
$CHAMFERC
 40
0.0
  9
$CHAMFERD
 40
0.0
  9
$SKPOLY
 70
         0
  9
$TDCREATE
 40
0.000000000
  9
$TDUPDATE
 40
0.000000000
  9
$TDINDWG
 40
0.0000000000
  9
$TDUSRTIMER
 40
0.0000000000
  9
$USRTIMER
 70
         1
  9
$ANGBASE
 50
0.0
  9
$ANGDIR
 70
         0
  9
$PDMODE
 70
         0
  9
$PDSIZE
 40
-1.0
  9
$PLINEWID
 40
0.0
  9
$COORDS
 70
         0
  9
$SPLFRAME
 70
         0
  9
$SPLINETYPE
 70
         6
  9
$SPLINESEGS
 70
         8
  9
$ATTDIA
 70
         0
  9
$ATTREQ
 70
         1
  9
$HANDLING
 70
         1
  9
$HANDSEED
  5
33
  9
$SURFTAB1
 70
         6
  9
$SURFTAB2
 70
         6
  9
$SURFTYPE
 70
         6
  9
$SURFU
 70
         6
  9
$SURFV
 70
         6
  9
$UCSNAME
  2

  9
$UCSORG
 10
0.0
 20
0.0
 30
0.0
  9
$UCSXDIR
 10
1.0
 20
0.0
 30
0.0
  9
$UCSYDIR
 10
0.0
 20
1.0
 30
0.0
  9
$PUCSNAME
  2

  9
$PUCSORG
 10
0.0
 20
0.0
 30
0.0
  9
$PUCSXDIR
 10
1.0
 20
0.0
 30
0.0
  9
$PUCSYDIR
 10
0.0
 20
1.0
 30
0.0
  9
$USERI1
 70
         0
  9
$USERI2
 70
         0
  9
$USERI3
 70
         0
  9
$USERI4
 70
         0
  9
$USERI5
 70
         0
  9
$USERR1
 40
0.0
  9
$USERR2
 40
0.0
  9
$USERR3
 40
0.0
  9
$USERR4
 40
0.0
  9
$USERR5
 40
0.0
  9
$WORLDVIEW
 70
         1
  9
$SHADEDGE
 70
         3
  9
$SHADEDIF
 70
        70
  9
$TILEMODE
 70
         1
  9
$MAXACTVP
 70
        16
  9
$PINSBASE
 10
0.0
 20
0.0
 30
0.0
  9
$PLIMCHECK
 70
         0
  9
$PEXTMIN
 10
1.0000000000E+20
 20
1.0000000000E+20
 30
1.0000000000E+20
  9
$PEXTMAX
 10
-1.0000000000E+20
 20
-1.0000000000E+20
 30
-1.0000000000E+20
  9
$PLIMMIN
 10
0.0
 20
0.0
  9
$PLIMMAX
 10
12.0
 20
9.0
  9
$UNITMODE
 70
         0
  9
$VISRETAIN
 70
         0
  9
$PLINEGEN
 70
         1
  9
$PSLTSCALE
 70
         1
  9
$TREEDEPTH
 70
      3020
  9
$PICKSTYLE
 70
         1
  9
$CMLSTYLE
  2
STANDARD
  9
$CMLJUST
 70
         0
  9
$CMLSCALE
 40
1.0
  9
$SAVEIMAGES
 70
         0
  0
ENDSEC
  0
SECTION
  2
CLASSES
  0
CLASS
  1
LWPOLYLINE
  2
AcDbPolyline
  3
"AutoCAD"
 90
    32768
280
         0
281
         1
  0
CLASS
  1
DICTIONARYVAR
  2
AcDbDictionaryVar
  3
"AutoCAD"
 90
    32768
280
         0
281
         0
  0
CLASS
  1
LAYOUT
  2
AcDbLayout
  3
"AutoCAD 2000"
 90
    32768
280
         0
281
         0
  0
CLASS
  1
PLOTSETTINGS
  2
AcDbPlotSettings
  3
"AutoCAD 2000"
 90
    32768
280
         0
281
         0
  0
CLASS
  1
ACDBDICTIONARYWDFLT
  2
AcDbDictionaryWithDefault
  3
"AutoCAD 2000"
 90
    32768
280
         0
281
         0
  0
CLASS
  1
ACDBPLACEHOLDER
  2
AcDbPlaceHolder
  3
"AutoCAD 2000"
 90
    32768
280
         0
281
         0
  0
ENDSEC
  0
SECTION
  2
TABLES
  0
TABLE
  2
VPORT
  5
7
100
AcDbSymbolTable
 70
         1
  0
VPORT
  5
15
100
AcDbSymbolTableRecord
100
AcDbViewportTableRecord
  2
*ACTIVE
 70
         0
 10
0.0
 20
0.0
 11
1.0
 21
1.0
 12
7.12632224091235
 22
2.04239900778
 13
0.0
 23
0.0
 14
1.0
 24
1.0
 15
0.0
 25
0.0
 16
0.0
 26
0.0
 36
1.0
 17
0.0
 27
0.0
 37
0.0
 40
19.29979801556
 41
1.0
 42
50.0
 43
0.0
 44
0.0
 50
0.0
 51
0.0
 71
         0
 72
      2000
 73
         1
 74
         1
 75
         0
 76
         0
 77
         0
 78
         0
  0
ENDTAB
  0
TABLE
  2
LTYPE
  5
4
100
AcDbSymbolTable
 70
         8
  0
LTYPE
  5
11
100
AcDbSymbolTableRecord
100
AcDbLinetypeTableRecord
  2
BYBLOCK
 70
        64
  3

 72
        65
 73
         0
 40
0.0
  0
LTYPE
  5
12
100
AcDbSymbolTableRecord
100
AcDbLinetypeTableRecord
  2
BYLAYER
 70
        64
  3

 72
        65
 73
         0
 40
0.0
  0
LTYPE
  5
13
100
AcDbSymbolTableRecord
100
AcDbLinetypeTableRecord
  2
CONTINUOUS
 70
        64
  3
Solid line
 72
        65
 73
         0
 40
0.0
  0
ENDTAB
  0
TABLE
  2
LAYER
  5
2
100
AcDbSymbolTable
 70
         2
  0
LAYER
  5
14
100
AcDbSymbolTableRecord
100
AcDbLayerTableRecord
  2
0
 70
         0
 62
         7
  6
CONTINUOUS
  0
LAYER
  5
23
100
AcDbSymbolTableRecord
100
AcDbLayerTableRecord
  2
DEFPOINTS
 70
         0
 62
         7
  6
CONTINUOUS
  0
ENDTAB
  0
TABLE
  2
STYLE
  5
3
100
AcDbSymbolTable
 70
         1
  0
STYLE
  5
17
100
AcDbSymbolTableRecord
100
AcDbTextStyleTableRecord
  2
STANDARD
 70
         0
 40
0.0
 41
1.0
 50
0.0
 71
         0
 42
0.0
  3
txt
  4

  0
ENDTAB
  0
TABLE
  2
VIEW
  5
5
100
AcDbSymbolTable
 70
         0
  0
ENDTAB
  0
TABLE
  2
UCS
  5
6
100
AcDbSymbolTable
 70
         0
  0
ENDTAB
  0
TABLE
  2
APPID
  5
8
100
AcDbSymbolTable
 70
         1
  0
APPID
  5
16
100
AcDbSymbolTableRecord
100
AcDbRegAppTableRecord
  2
ACAD
 70
         0
  0
ENDTAB
  0
TABLE
  2
DIMSTYLE
  5
9
100
AcDbSymbolTable
 70
         1
  0
DIMSTYLE
105
18
100
AcDbSymbolTableRecord
100
AcDbDimStyleTableRecord
  2
STANDARD
 70
         0
  3

  4

  5

  6

  7

 40
1.0
 41
0.18
 42
0.0625
 43
0.38
 44
0.18
 45
0.0
 46
0.0
 47
0.0
 48
0.0
 71
         0
 72
         0
 73
         1
 74
         1
 75
         0
 76
         0
 77
         0
 78
         0
140
0.18
141
0.09
142
0.0
143
25.4
144
1.0
145
0.0
146
1.0
147
0.09
170
         0
171
         2
172
         0
173
         0
174
         0
175
         0
176
         0
177
         0
178
         0
270
         2
271
         4
272
         4
273
         2
274
         2
275
         0
280
         0
281
         0
282
         0
283
         1
284
         0
285
         0
286
         0
287
         3
288
         0
340
17
  0
ENDTAB
  0
TABLE
  2
BLOCK_RECORD
  5
1
100
AcDbSymbolTable
 70
         0
  0
BLOCK_RECORD
  5
A
100
AcDbSymbolTableRecord
100
AcDbBlockTableRecord
  2
*MODEL_SPACE
  0
BLOCK_RECORD
  5
B
100
AcDbSymbolTableRecord
100
AcDbBlockTableRecord
  2
*PAPER_SPACE
  0
ENDTAB
  0
ENDSEC
  0
SECTION
  2
BLOCKS
  0
BLOCK
  5
D
100
AcDbEntity
  8
0
100
AcDbBlockBegin
  2
*MODEL_SPACE
 70
         0
 10
0.0
 20
0.0
 30
0.0
  3
*MODEL_SPACE
  1

  0
ENDBLK
  5
E
100
AcDbEntity
  8
0
100
AcDbBlockEnd
  0
BLOCK
  5
F
100
AcDbEntity
 67
         1
  8
0
100
AcDbBlockBegin
  2
*PAPER_SPACE
 70
         0
 10
0.0
 20
0.0
 30
0.0
  3
*PAPER_SPACE
  1

  0
ENDBLK
  5
10
100
AcDbEntity
 67
         1
  8
0
100
AcDbBlockEnd
  0
ENDSEC
  0
SECTION
  2
ENTITIES
  0
LWPOLYLINE
  5
30
100
AcDbEntity
  8
1
100
AcDbPolyline
 90
471
 70
1
10
-10.6972586288175
20
1.4275
10
-10.6942586288175
20
1.3575
10
-10.6852586288175
20
1.2885
10
-10.6702586288175
20
1.2205
10
-10.6492586288175
20
1.1535
10
-10.6222586288175
20
1.0895
10
-10.5892586288175
20
1.0275
10
-10.5522586288175
20
0.968499999999999
10
-10.5092586288175
20
0.9125
10
-10.4622586288175
20
0.8615
10
-10.4112586288175
20
0.8145
10
-10.3552586288175
20
0.7715
10
-10.2962586288175
20
0.7345
10
-10.2342586288175
20
0.7015
10
-10.1702586288175
20
0.6755
10
-10.1622586288175
20
0.6725
10
-10.0952586288175
20
0.652500000000001
10
-10.0272586288175
20
0.6375
10
-9.95725862881752
20
0.629500000000001
10
-9.88725862881752
20
0.6275
10
-9.81825862881752
20
0.6315
10
-9.74925862881752
20
0.6415
10
-9.68025862881752
20
0.6575
10
-9.61425862881752
20
0.6795
10
-9.55025862881752
20
0.706500000000001
10
-9.48825862881752
20
0.7395
10
-9.43025862881752
20
0.777500000000001
10
-9.37525862881752
20
0.821499999999999
10
-9.32425862881752
20
0.8685
10
-9.27725862881752
20
0.920499999999999
10
-9.27225862881752
20
0.927500000000001
10
-6.67325862881752
20
0.9525
10
-6.67325862881752
20
-0.0474999999999997
10
-6.19525862881752
20
-0.860499999999999
10
-6.39525862881752
20
-1.0605
10
-6.19525862881752
20
-1.2605
10
-6.39525862881752
20
-1.4605
10
-6.19525862881752
20
-1.6605
10
-6.39525862881752
20
-1.8605
10
-6.19525862881752
20
-2.0605
10
-6.39525862881752
20
-2.2605
10
-6.19525862881752
20
-2.4605
10
-6.39525862881752
20
-2.6605
10
-6.19525862881752
20
-2.8605
10
-6.39525862881752
20
-3.0605
10
-6.19525862881752
20
-3.2605
10
-6.39525862881752
20
-3.4605
10
-5.93725862881752
20
-3.9005
10
-5.61925862881752
20
-3.6005
10
-5.81925862881752
20
-3.4005
10
-5.61925862881752
20
-3.2005
10
-5.81925862881752
20
-3.0005
10
-5.61925862881752
20
-2.8005
10
-5.81925862881752
20
-2.6005
10
-5.61925862881752
20
-2.4005
10
-5.81925862881752
20
-2.2005
10
-5.61925862881752
20
-2.0005
10
-5.81925862881752
20
-1.8005
10
-5.61925862881752
20
-1.6005
10
-5.81925862881752
20
-1.4005
10
-5.61925862881752
20
-1.2005
10
-5.81925862881752
20
-1.0005
10
-5.56525862881752
20
-0.7455
10
-5.28625862881752
20
-1.0245
10
-5.48625862881752
20
-1.2245
10
-5.28625862881752
20
-1.4245
10
-5.48625862881752
20
-1.6245
10
-5.28625862881752
20
-1.8245
10
-5.48625862881752
20
-2.0245
10
-5.28625862881752
20
-2.2245
10
-5.48625862881752
20
-2.4245
10
-5.28625862881752
20
-2.6245
10
-5.48625862881752
20
-2.8245
10
-5.28625862881752
20
-3.0245
10
-5.48625862881752
20
-3.2245
10
-5.28625862881752
20
-3.4245
10
-5.28625862881752
20
-3.6575
10
-5.70925862881752
20
-4.3825
10
-5.70925862881752
20
-6.1825
10
-5.76225862881752
20
-6.2285
10
-5.81025862881752
20
-6.2785
10
-5.85425862881752
20
-6.3335
10
-5.89325862881752
20
-6.3915
10
-5.92625862881752
20
-6.4525
10
-5.95425862881752
20
-6.5165
10
-5.97725862881752
20
-6.5825
10
-5.99425862881752
20
-6.6505
10
-6.00425862881752
20
-6.7195
10
-6.00925862881752
20
-6.7895
10
-6.00725862881752
20
-6.8595
10
-6.00025862881752
20
-6.9285
10
-5.98625862881752
20
-6.9975
10
-5.96725862881752
20
-7.0645
10
-5.96425862881752
20
-7.0725
10
-5.93825862881752
20
-7.1375
10
-5.90625862881752
20
-7.1995
10
-5.87025862881752
20
-7.2585
10
-5.82825862881752
20
-7.3145
10
-5.78125862881752
20
-7.3665
10
-5.73025862881752
20
-7.4145
10
-5.67525862881752
20
-7.4575
10
-5.61725862881752
20
-7.4955
10
-5.55525862881752
20
-7.5285
10
-5.49125862881752
20
-7.5565
10
-5.42425862881752
20
-7.5775
10
-5.35625862881752
20
-7.5935
10
-5.28725862881752
20
-7.6035
10
-5.21725862881752
20
-7.6075
10
-5.20925862881752
20
-7.6075
10
-5.13925862881752
20
-7.6045
10
-5.07025862881752
20
-7.5955
10
-5.00225862881752
20
-7.5805
10
-4.93525862881752
20
-7.5595
10
-4.87125862881752
20
-7.5325
10
-4.80925862881752
20
-7.5005
10
-4.75025862881752
20
-7.4625
10
-4.69425862881752
20
-7.4205
10
-4.64325862881752
20
-7.3725
10
-4.59625862881752
20
-7.3215
10
-4.55325862881752
20
-7.2665
10
-4.51625862881752
20
-7.2075
10
-4.48425862881752
20
-7.1455
10
-4.45725862881752
20
-7.0805
10
-4.45425862881752
20
-7.0725
10
-4.43425862881752
20
-7.0055
10
-4.41925862881752
20
-6.9375
10
-4.41125862881752
20
-6.8685
10
-4.40925862881752
20
-6.7985
10
-4.41325862881752
20
-6.7285
10
-4.42325862881752
20
-6.6595
10
-4.43825862881752
20
-6.5915
10
-4.46025862881752
20
-6.5255
10
-4.48825862881752
20
-6.4605
10
-4.52125862881752
20
-6.3995
10
-4.55925862881752
20
-6.3405
10
-4.60225862881752
20
-6.2865
10
-4.65025862881752
20
-6.2355
10
-4.70225862881752
20
-6.1885
10
-4.70925862881752
20
-6.1825
10
-4.70925862881752
20
-4.3825
10
-5.18725862881752
20
-3.6575
10
-5.18725862881752
20
-3.4245
10
-5.38725862881752
20
-3.2245
10
-5.18725862881752
20
-3.0245
10
-5.38725862881752
20
-2.8245
10
-5.18725862881752
20
-2.6245
10
-5.38725862881752
20
-2.4245
10
-5.18725862881752
20
-2.2245
10
-5.38725862881752
20
-2.0245
10
-5.18725862881752
20
-1.8245
10
-5.38725862881752
20
-1.6245
10
-5.18725862881752
20
-1.4245
10
-5.38725862881752
20
-1.2245
10
-5.18725862881752
20
-1.0245
10
-5.56525862881752
20
-0.658499999999999
10
-5.91825862881752
20
-1.0005
10
-5.71825862881752
20
-1.2005
10
-5.91825862881752
20
-1.4005
10
-5.71825862881752
20
-1.6005
10
-5.91825862881752
20
-1.8005
10
-5.71825862881752
20
-2.0005
10
-5.91825862881752
20
-2.2005
10
-5.71825862881752
20
-2.4005
10
-5.91825862881752
20
-2.6005
10
-5.71825862881752
20
-2.8005
10
-5.91825862881752
20
-3.0005
10
-5.71825862881752
20
-3.2005
10
-5.91825862881752
20
-3.4005
10
-5.71825862881752
20
-3.6005
10
-5.93725862881752
20
-3.8195
10
-6.29625862881752
20
-3.4605
10
-6.09625862881752
20
-3.2605
10
-6.29625862881752
20
-3.0605
10
-6.09625862881752
20
-2.8605
10
-6.29625862881752
20
-2.6605
10
-6.09625862881752
20
-2.4605
10
-6.29625862881752
20
-2.2605
10
-6.09625862881752
20
-2.0605
10
-6.29625862881752
20
-1.8605
10
-6.09625862881752
20
-1.6605
10
-6.29625862881752
20
-1.4605
10
-6.09625862881752
20
-1.2605
10
-6.29625862881752
20
-1.0605
10
-6.09625862881752
20
-0.860499999999999
10
-5.67325862881752
20
-0.0474999999999997
10
-5.67325862881752
20
0.9525
10
-4.67325862881752
20
0.9525
10
-3.86025862881752
20
1.3755
10
-3.66025862881752
20
1.5755
10
-3.46025862881752
20
1.3755
10
-3.26025862881752
20
1.5755
10
-3.06025862881752
20
1.3755
10
-2.86025862881752
20
1.5755
10
-2.66025862881752
20
1.3755
10
-2.46025862881752
20
1.5755
10
-2.26025862881752
20
1.3755
10
-2.06025862881752
20
1.5755
10
-1.86025862881752
20
1.3755
10
-1.66025862881752
20
1.5755
10
-1.46025862881752
20
1.3755
10
-1.26025862881752
20
1.5755
10
-0.900258628817519
20
1.2175
10
-1.12025862881752
20
0.998500000000001
10
-1.32025862881752
20
1.1985
10
-1.52025862881752
20
0.998500000000001
10
-1.72025862881752
20
1.1985
10
-1.92025862881752
20
0.998500000000001
10
-2.12025862881752
20
1.1985
10
-2.32025862881752
20
0.998500000000001
10
-2.52025862881752
20
1.1985
10
-2.72025862881752
20
0.998500000000001
10
-2.92025862881752
20
1.1985
10
-3.12025862881752
20
0.998500000000001
10
-3.32025862881752
20
1.1985
10
-3.52025862881752
20
0.998500000000001
10
-3.72025862881752
20
1.1985
10
-4.06125862881752
20
0.8455
10
-3.69625862881752
20
0.4675
10
-3.49625862881752
20
0.667499999999999
10
-3.29625862881752
20
0.4675
10
-3.09625862881752
20
0.667499999999999
10
-2.89625862881752
20
0.4675
10
-2.69625862881752
20
0.667499999999999
10
-2.49625862881752
20
0.4675
10
-2.29625862881752
20
0.667499999999999
10
-2.09625862881752
20
0.4675
10
-1.89625862881752
20
0.667499999999999
10
-1.69625862881752
20
0.4675
10
-1.49625862881752
20
0.667499999999999
10
-1.29625862881752
20
0.4675
10
-1.06325862881752
20
0.4675
10
-0.0002586288175187
20
-0.0005
10
7.57032224091237
20
-7.50979685972376
10
15.1409031106422
20
-0.0005
10
15.5409031106422
20
0.450000000000006
10
15.6808466672994
20
0.450000000000006
10
15.8808466672994
20
0.249999999999973
10
16.0808466672994
20
0.450000000000006
10
16.2808466672994
20
0.249999999999973
10
16.3808466672994
20
0.350000000000003
10
16.4808466672994
20
0.450000000000006
10
16.6808466672994
20
0.249999999999973
10
16.8808466672994
20
0.450000000000006
10
17.0808466672994
20
0.249999999999973
10
17.2808466672994
20
0.450000000000006
10
17.4808466672995
20
0.249999999999973
10
17.6808466672995
20
0.450000000000006
10
17.8409031106422
20
0.450000000000006
42
0.414213562373095
10
19.8409031106422
20
-1.54999999999999
42
0.414213562373096
10
21.8409031106422
20
0.450000000000009
10
22.4729031106422
20
0.0780000000000047
10
23.5259031106422
20
0.0780000000000047
10
23.5719031106422
20
0.0250000000000047
10
23.6219031106422
20
-0.0229999999999954
10
23.6769031106422
20
-0.0669999999999954
10
23.7349031106422
20
-0.104999999999995
10
23.7959031106422
20
-0.138999999999995
10
23.8599031106422
20
-0.166999999999995
10
23.9259031106422
20
-0.189999999999995
10
23.9939031106422
20
-0.205999999999995
10
24.0629031106422
20
-0.216999999999995
10
24.1319031106422
20
-0.221999999999995
10
24.2019031106422
20
-0.219999999999995
10
24.2709031106422
20
-0.212999999999995
10
24.3399031106422
20
-0.198999999999995
10
24.4069031106422
20
-0.179999999999995
10
24.4149031106422
20
-0.176999999999995
10
24.4799031106422
20
-0.150999999999995
10
24.5419031106422
20
-0.118999999999995
10
24.6009031106422
20
-0.0829999999999954
10
24.6569031106422
20
-0.0409999999999954
10
24.7089031106422
20
0.0060000000000046
10
24.7569031106422
20
0.0570000000000047
10
24.7999031106422
20
0.112000000000005
10
24.8379031106422
20
0.170000000000005
10
24.8709031106422
20
0.232000000000005
10
24.8989031106422
20
0.296000000000005
10
24.9199031106422
20
0.362000000000005
10
24.9359031106422
20
0.430000000000005
10
24.9459031106422
20
0.499000000000005
10
24.9499031106422
20
0.569000000000005
10
24.9499031106422
20
0.578000000000005
10
24.9469031106422
20
0.648000000000005
10
24.9379031106422
20
0.717000000000005
10
24.9229031106422
20
0.785000000000005
10
24.9019031106422
20
0.852000000000005
10
24.8749031106422
20
0.916000000000005
10
24.8429031106422
20
0.978000000000005
10
24.8059031106422
20
1.037
10
24.7629031106422
20
1.092
10
24.7159031106422
20
1.144
10
24.6649031106422
20
1.191
10
24.6089031106422
20
1.233
10
24.5509031106422
20
1.271
10
24.4889031106422
20
1.303
10
24.4239031106422
20
1.33
10
24.4149031106422
20
1.333
10
24.3479031106422
20
1.353
10
24.2799031106422
20
1.368
10
24.2109031106422
20
1.376
10
24.1409031106422
20
1.378
10
24.0719031106422
20
1.374
10
24.0029031106422
20
1.364
10
23.9349031106422
20
1.348
10
23.8679031106422
20
1.327
10
23.8039031106422
20
1.299
10
23.7429031106422
20
1.266
10
23.6839031106422
20
1.228
10
23.6299031106422
20
1.185
10
23.5789031106422
20
1.137
10
23.5319031106422
20
1.086
10
23.5259031106422
20
1.078
10
22.4729031106422
20
1.078
10
21.8409031106422
20
0.548999999999999
42
0.4142135623731
10
19.8409031106422
20
2.54899999999999
42
0.414213562373094
10
17.8409031106422
20
0.548999999999994
10
17.6808466672995
20
0.548999999999994
10
17.4808466672995
20
0.348999999999974
10
17.2808466672994
20
0.548999999999994
10
17.0808466672994
20
0.348999999999974
10
16.8808466672994
20
0.548999999999994
10
16.6808466672994
20
0.348999999999974
10
16.4808466672994
20
0.548999999999994
10
16.4313466672994
20
0.499500000000014
10
16.3308466672994
20
0.398999999999997
10
16.2808466672994
20
0.348999999999974
10
16.0808466672994
20
0.548999999999994
10
15.8808466672994
20
0.348999999999974
10
15.6808466672994
20
0.548999999999994
10
15.5409031106422
20
0.548999999999994
10
15.1409031106422
20
0.9995
10
7.57032224091237
20
11.69229801556
10
-0.0002586288175187
20
0.9995
10
-1.06325862881752
20
0.5665
10
-1.29625862881752
20
0.5665
10
-1.49625862881752
20
0.7665
10
-1.69625862881752
20
0.5665
10
-1.89625862881752
20
0.7665
10
-2.09625862881752
20
0.5665
10
-2.29625862881752
20
0.7665
10
-2.49625862881752
20
0.5665
10
-2.69625862881752
20
0.7665
10
-2.89625862881752
20
0.5665
10
-3.09625862881752
20
0.7665
10
-3.29625862881752
20
0.5665
10
-3.49625862881752
20
0.7665
10
-3.69625862881752
20
0.5665
10
-3.97425862881752
20
0.8455
10
-3.72025862881752
20
1.0995
10
-3.52025862881752
20
0.8995
10
-3.32025862881752
20
1.0995
10
-3.12025862881752
20
0.8995
10
-2.92025862881752
20
1.0995
10
-2.72025862881752
20
0.8995
10
-2.52025862881752
20
1.0995
10
-2.32025862881752
20
0.8995
10
-2.12025862881752
20
1.0995
10
-1.92025862881752
20
0.8995
10
-1.72025862881752
20
1.0995
10
-1.52025862881752
20
0.8995
10
-1.32025862881752
20
1.0995
10
-1.12025862881752
20
0.8995
10
-0.820258628817519
20
1.2175
10
-1.26025862881752
20
1.6745
10
-1.46025862881752
20
1.4745
10
-1.66025862881752
20
1.6745
10
-1.86025862881752
20
1.4745
10
-2.06025862881752
20
1.6745
10
-2.26025862881752
20
1.4745
10
-2.46025862881752
20
1.6745
10
-2.66025862881752
20
1.4745
10
-2.86025862881752
20
1.6745
10
-3.06025862881752
20
1.4745
10
-3.26025862881752
20
1.6745
10
-3.46025862881752
20
1.4745
10
-3.66025862881752
20
1.6745
10
-3.86025862881752
20
1.4745
10
-4.67325862881752
20
1.9525
10
-5.67325862881752
20
1.9525
10
-5.65325862881752
20
4.4145
10
-5.60025862881752
20
4.4605
10
-5.55225862881752
20
4.5105
10
-5.50825862881752
20
4.5655
10
-5.46925862881752
20
4.6235
10
-5.43625862881752
20
4.6845
10
-5.40825862881752
20
4.7485
10
-5.38525862881752
20
4.8145
10
-5.36825862881752
20
4.8825
10
-5.35825862881752
20
4.9515
10
-5.35325862881752
20
5.0205
10
-5.35425862881752
20
5.0905
10
-5.36225862881752
20
5.1595
10
-5.37525862881752
20
5.2285
10
-5.39525862881752
20
5.2955
10
-5.39825862881752
20
5.3045
10
-5.42425862881752
20
5.3695
10
-5.45525862881752
20
5.4315
10
-5.49225862881752
20
5.4905
10
-5.53425862881752
20
5.5465
10
-5.58025862881752
20
5.5985
10
-5.63125862881752
20
5.6465
10
-5.68625862881752
20
5.6895
10
-5.74525862881752
20
5.7275
10
-5.80625862881752
20
5.7605
10
-5.87025862881752
20
5.7875
10
-5.93625862881752
20
5.8095
10
-6.00425862881752
20
5.8255
10
-6.07325862881752
20
5.8355
10
-6.14325862881752
20
5.8395
10
-6.15325862881752
20
5.8395
10
-6.22325862881752
20
5.8365
10
-6.29225862881752
20
5.8275
10
-6.36025862881752
20
5.8125
10
-6.42725862881752
20
5.7915
10
-6.49125862881752
20
5.7645
10
-6.55325862881752
20
5.7325
10
-6.61225862881752
20
5.6945
10
-6.66725862881752
20
5.6525
10
-6.71925862881752
20
5.6055
10
-6.76625862881752
20
5.5535
10
-6.80825862881752
20
5.4985
10
-6.84625862881752
20
5.4395
10
-6.87825862881752
20
5.3775
10
-6.90525862881752
20
5.3135
10
-6.90825862881752
20
5.3045
10
-6.92825862881752
20
5.2375
10
-6.94325862881752
20
5.1695
10
-6.95125862881752
20
5.0995
10
-6.95325862881752
20
5.0295
10
-6.94925862881752
20
4.9605
10
-6.93925862881752
20
4.8915
10
-6.92325862881752
20
4.8225
10
-6.90125862881752
20
4.7565
10
-6.87425862881752
20
4.6925
10
-6.84125862881752
20
4.6305
10
-6.80325862881752
20
4.5725
10
-6.75925862881752
20
4.5175
10
-6.71225862881752
20
4.4665
10
-6.66025862881752
20
4.4195
10
-6.65325862881752
20
4.4145
10
-6.67325862881752
20
1.9525
10
-9.27225862881752
20
1.9275
10
-9.31825862881752
20
1.9805
10
-9.36825862881752
20
2.0285
10
-9.42325862881752
20
2.0725
10
-9.48125862881752
20
2.1115
10
-9.54225862881752
20
2.1445
10
-9.60625862881752
20
2.1725
10
-9.67225862881752
20
2.1955
10
-9.74025862881752
20
2.2125
10
-9.80925862881752
20
2.2225
10
-9.87825862881752
20
2.2275
10
-9.94825862881752
20
2.2265
10
-10.0172586288175
20
2.2185
10
-10.0862586288175
20
2.2055
10
-10.1532586288175
20
2.1855
10
-10.1622586288175
20
2.1825
10
-10.2272586288175
20
2.1565
10
-10.2892586288175
20
2.1255
10
-10.3482586288175
20
2.0885
10
-10.4042586288175
20
2.0465
10
-10.4562586288175
20
1.9995
10
-10.5042586288175
20
1.9485
10
-10.5472586288175
20
1.8935
10
-10.5852586288175
20
1.8355
10
-10.6182586288175
20
1.7735
10
-10.6462586288175
20
1.7095
10
-10.6672586288175
20
1.6435
10
-10.6832586288175
20
1.5755
10
-10.6932586288175
20
1.5065
10
-10.6972586288175
20
1.4365
  0
LWPOLYLINE
  5
31
100
AcDbEntity
  8
1
100
AcDbPolyline
 90
86
 70
1
10
7.57032224091237
20
9.9617158437773
10
13.9156380056502
20
0.79968018018018
10
13.123949579532
20
0.79968018018018
10
13.123949579532
20
1.07281444862955
10
13.123949579532
20
1.13617444862954
10
9.59254175124868
20
1.13617444862954
10
9.59254175124868
20
1.26289444862953
10
11.3582456653903
20
1.26289444862953
10
11.3582456653903
20
1.5163344486295
10
9.97270175124863
20
1.5163344486295
10
9.97270175124863
20
5.08479254193913
10
8.20763449026255
20
5.08479254193913
10
8.44573639135827
20
5.79180185936839
10
8.23722586390939
20
6.82395124775313
10
8.2800676809291
20
6.87953522668997
10
8.31721644091962
20
6.93804992254636
10
8.34945432703476
20
7.00067354986727
10
8.37521697296694
20
7.06504967956278
10
8.3964647764149
20
7.13157434302406
10
8.4112373396799
20
7.19985150885995
10
8.42071287730689
20
7.26909899391666
10
8.42293099159714
20
7.33892076680302
10
8.42005009594497
20
7.40873266006085
10
8.41128800719658
20
7.47735645914517
10
8.39546651080704
20
7.54557434720978
10
8.37494203586623
20
7.61182195794711
10
8.34755616897985
20
7.67668345881535
10
8.31566533923779
20
7.73859448350695
10
8.31114061712503
20
7.74584202721514
10
8.27278442682856
20
7.80440654433892
10
8.22914109052263
20
7.85884237074109
10
8.18217100590598
20
7.90954553781283
10
8.12991377527987
20
7.95612001416297
10
8.07354761318925
20
7.99778361663771
10
8.01405271848348
20
8.03473436093266
10
7.95162710685816
20
8.06599204819843
10
7.88725097716266
20
8.09175469413061
10
7.81994413054759
20
8.11182428303361
10
7.75166696471169
20
8.12659684629861
10
7.68281551104615
20
8.13411198622687
10
7.61299373815978
20
8.13633010051712
10
7.54337986059755
20
8.13246900601557
10
7.47397387835944
20
8.12252870272224
10
7.46515208871513
20
8.120746561462
10
7.3971322163461
20
8.10394486622308
10
7.33128063699994
20
8.08145999358354
10
7.26759735067664
20
8.05329194354337
10
7.20608235737621
20
8.01944071610258
10
7.14869605479739
20
7.98030234265233
10
7.09426022839521
20
7.9366590063464
10
7.04375507701906
20
7.88870872288038
10
6.99835881521388
20
7.83566930910048
10
6.95669521273913
20
7.77930314700987
10
6.92072466729355
20
7.72000626799968
10
6.89064519457273
20
7.65679847322058
10
6.86488254864055
20
7.59242234352507
10
6.84579315858691
20
7.52531351260558
10
6.83219880986687
20
7.45625416361591
10
6.83104035457901
20
7.44683832688485
10
6.82470342919571
20
7.37720469006552
10
6.82346551375483
20
7.30758093287474
10
6.8292870059551
20
7.23836308670366
10
6.84118770694718
20
7.16935313585672
10
6.85877158533987
20
7.10251147803264
10
6.88223665682878
20
7.03685791438206
10
6.91138490571832
20
6.97337264375436
10
6.94523613315911
20
6.91185765045393
10
6.98535470545873
20
6.85466936357068
10
7.02978022491844
20
6.80141175171346
10
7.07871070723383
20
6.75110461603289
10
7.13155210531814
20
6.70668855307707
10
7.18870045056255
20
6.66620316514727
10
7.24799732957273
20
6.6302326197017
10
7.25702701454117
20
6.62593555217016
10
7.46553754199005
20
5.59378616378542
10
8.13763091892509
20
5.08479254193913
10
6.372563657939
20
5.08479254193913
10
6.372563657939
20
1.4846544486295
10
9.97270175124863
20
1.4529744486295
10
11.2948856653903
20
1.4529744486295
10
11.2948856653903
20
1.32625444862952
10
9.52918175124869
20
1.32625444862952
10
9.52918175124869
20
1.07281444862955
10
12.9241297597122
20
1.07281444862955
10
12.9241297597122
20
0.9995
10
1.22500647617454
20
0.9995
  0
LWPOLYLINE
  5
32
100
AcDbEntity
  8
1
100
AcDbPolyline
 90
3
 70
1
10
1.46656551052583
20
-0.0005
10
13.6740789712989
20
-0.0005
10
7.57032224091237
20
-6.09648351980093
  0
ENDSEC
  0
SECTION
  2
OBJECTS
  0
DICTIONARY
  5
19
100
AcDbDictionary
  3
ACAD_GROUP
350
1A
  3
ACAD_MLINESTYLE
350
1B
  0
DICTIONARY
  5
1A
102
{ACAD_REACTORS
330
19
102
}
100
AcDbDictionary
  0
DICTIONARY
  5
1B
102
{ACAD_REACTORS
330
19
102
}
100
AcDbDictionary
  3
STANDARD
350
1C
  0
MLINESTYLE
  5
1C
102
{ACAD_REACTORS
330
1B
102
}
100
AcDbMlineStyle
  2
STANDARD
 70
         0
  3

 62
         0
 51
90.0
 52
90.0
 71
         2
 49
0.5
 62
       256
  6
BYLAYER
 49
-0.5
 62
       256
  6
BYLAYER
  0
ENDSEC
  0
EOF
