<?xml version="1.0" encoding="UTF-8" standalone="no"?>
<svg width="275.167mm" height="190.5mm"
 viewBox="0 0 780 540"
 xmlns="http://www.w3.org/2000/svg" xmlns:xlink="http://www.w3.org/1999/xlink"  version="1.2" baseProfile="tiny">
<title>Qt SVG Document</title>
<desc>MATLAB, The MathWorks, Inc. Version 25.2.0.3042426 R2025b Update 1</desc>
<defs>
</defs>
<g fill="none" stroke="black" stroke-width="1" fill-rule="evenodd" stroke-linecap="square" stroke-linejoin="bevel" >

<g fill="#000000" fill-opacity="1" stroke="none" transform="matrix(0.75,0,0,0.75,0,0)"
font-family="MS Shell Dlg 2" font-size="8.25" font-weight="400" font-style="normal" 
>
<path vector-effect="none" fill-rule="evenodd" d="M0,0 L1041,0 L1041,720 L0,720 L0,0"/>
</g>

<g fill="#121212" fill-opacity="1" stroke="none" transform="matrix(7.5e-05,0,0,7.5e-05,0,0)"
font-family="MS Shell Dlg 2" font-size="8.25" font-weight="400" font-style="normal" 
>
<path vector-effect="none" fill-rule="evenodd" d="M1.68e+06,270000 L1.68e+06,6.27e+06 L1e+07,6.27e+06 L1e+07,270000 L1.68e+06,270000"/>
</g>

<g fill="#ffffff" fill-opacity="0.25098" stroke="#ffffff" stroke-opacity="0.25098" stroke-width="0.666667" stroke-linecap="butt" stroke-linejoin="round" transform="matrix(0.75,0,0,0.75,0,0)"
font-family="MS Shell Dlg 2" font-size="8.25" font-weight="400" font-style="normal" 
>
<polyline fill="none" vector-effect="none" points="168,27 168,627 " />
<polyline fill="none" vector-effect="none" points="376,27 376,627 " />
<polyline fill="none" vector-effect="none" points="584,27 584,627 " />
<polyline fill="none" vector-effect="none" points="792,27 792,627 " />
<polyline fill="none" vector-effect="none" points="1000,27 1000,627 " />
<polyline fill="none" vector-effect="none" points="168,627 1000,627 " />
<polyline fill="none" vector-effect="none" points="168,512.762 1000,512.762 " />
<polyline fill="none" vector-effect="none" points="168,398.523 1000,398.523 " />
<polyline fill="none" vector-effect="none" points="168,284.285 1000,284.285 " />
<polyline fill="none" vector-effect="none" points="168,170.047 1000,170.047 " />
<polyline fill="none" vector-effect="none" points="168,55.8085 1000,55.8085 " />
</g>

<g fill="#d9d9d9" fill-opacity="1" stroke="none" transform="matrix(0.75,0,0,0.75,389.035,529.1)"
font-family="MS Shell Dlg 2" font-size="8.25" font-weight="400" font-style="normal" 
>
<path vector-effect="none" fill-rule="evenodd" d="M6.07813,0 L6.07813,-1.26563 C7.28646,-1.26563 8.45833,-1.33333 9.59375,-1.46875 C10.7292,-1.60417 11.2969,-1.91667 11.2969,-2.40625 L11.2969,-22.1875 C11.2969,-22.6979 11.1536,-23.0156 10.8672,-23.1406 C10.5807,-23.2656 10.1146,-23.3281 9.46875,-23.3281 L7.96875,-23.3281 C5.98958,-23.3281 4.58333,-22.8958 3.75,-22.0313 C3.3125,-21.5938 3,-20.8984 2.8125,-19.9453 C2.625,-18.9922 2.46875,-17.7917 2.34375,-16.3438 L1.29688,-16.3438 L1.98438,-24.5938 L23.9844,-24.5938 L24.6563,-16.3438 L23.6094,-16.3438 C23.4635,-17.8958 23.3073,-19.125 23.1406,-20.0313 C22.974,-20.9375 22.6667,-21.6042 22.2188,-22.0313 C21.375,-22.8958 19.9688,-23.3281 18,-23.3281 L16.4844,-23.3281 C16.0573,-23.3281 15.724,-23.3099 15.4844,-23.2734 C15.2448,-23.237 15.0469,-23.1354 14.8906,-22.9688 C14.7344,-22.8021 14.6563,-22.5417 14.6563,-22.1875 L14.6563,-2.40625 C14.6563,-1.91667 15.2266,-1.60417 16.3672,-1.46875 C17.5078,-1.33333 18.6719,-1.26563 19.8594,-1.26563 L19.8594,0 L6.07813,0"/>
</g>

<g fill="#d9d9d9" fill-opacity="1" stroke="none" transform="matrix(0.75,0,0,0.75,408.896,529.1)"
font-family="MS Shell Dlg 2" font-size="8.25" font-weight="400" font-style="normal" 
>
<path vector-effect="none" fill-rule="evenodd" d="M1.10938,0 L1.10938,-1.26563 C1.93229,-1.26563 2.60677,-1.33073 3.13281,-1.46094 C3.65885,-1.59115 3.92188,-1.90625 3.92188,-2.40625 L3.92188,-12.2344 C3.92188,-13.1615 3.74219,-13.7292 3.38281,-13.9375 C3.02344,-14.1458 2.31771,-14.25 1.26563,-14.25 L1.26563,-15.5156 L6.45313,-15.9063 L6.45313,-2.40625 C6.45313,-1.90625 6.68229,-1.59115 7.14063,-1.46094 C7.59896,-1.33073 8.20833,-1.26563 8.96875,-1.26563 L8.96875,0 L1.10938,0 M2.64063,-22.0938 C2.64063,-22.625 2.83854,-23.0885 3.23438,-23.4844 C3.63021,-23.8802 4.08854,-24.0781 4.60938,-24.0781 C4.94271,-24.0781 5.26823,-23.9922 5.58594,-23.8203 C5.90365,-23.6484 6.15104,-23.4036 6.32813,-23.0859 C6.50521,-22.7682 6.59375,-22.4375 6.59375,-22.0938 C6.59375,-21.5833 6.39323,-21.1276 5.99219,-20.7266 C5.59115,-20.3255 5.13021,-20.125 4.60938,-20.125 C4.08854,-20.125 3.63021,-20.3255 3.23438,-20.7266 C2.83854,-21.1276 2.64063,-21.5833 2.64063,-22.0938 "/>
</g>

<g fill="#d9d9d9" fill-opacity="1" stroke="none" transform="matrix(0.75,0,0,0.75,416.535,529.1)"
font-family="MS Shell Dlg 2" font-size="8.25" font-weight="400" font-style="normal" 
>
<path vector-effect="none" fill-rule="evenodd" d="M1.07813,0 L1.07813,-1.26563 C1.89063,-1.26563 2.5625,-1.33073 3.09375,-1.46094 C3.625,-1.59115 3.89063,-1.90625 3.89063,-2.40625 L3.89063,-12.2344 C3.89063,-12.8802 3.79427,-13.3464 3.60156,-13.6328 C3.40885,-13.9193 3.13021,-14.0938 2.76563,-14.1563 C2.40104,-14.2188 1.83854,-14.25 1.07813,-14.25 L1.07813,-15.5156 L6.29688,-15.9063 L6.29688,-12.3906 C6.77604,-13.4219 7.48698,-14.2656 8.42969,-14.9219 C9.3724,-15.5781 10.401,-15.9063 11.5156,-15.9063 C14.276,-15.9063 15.901,-14.7813 16.3906,-12.5313 C16.8698,-13.5417 17.5703,-14.3568 18.4922,-14.9766 C19.4141,-15.5964 20.4271,-15.9063 21.5313,-15.9063 C22.625,-15.9063 23.5443,-15.7318 24.2891,-15.3828 C25.0339,-15.0339 25.5938,-14.4974 25.9688,-13.7734 C26.3438,-13.0495 26.5313,-12.1458 26.5313,-11.0625 L26.5313,-2.40625 C26.5313,-1.90625 26.7969,-1.59115 27.3281,-1.46094 C27.8594,-1.33073 28.5313,-1.26563 29.3438,-1.26563 L29.3438,0 L21.0938,0 L21.0938,-1.26563 C21.9167,-1.26563 22.5911,-1.33073 23.1172,-1.46094 C23.6432,-1.59115 23.9063,-1.90625 23.9063,-2.40625 L23.9063,-10.9531 C23.9063,-12.1615 23.737,-13.1354 23.3984,-13.875 C23.0599,-14.6146 22.3646,-14.9844 21.3125,-14.9844 C19.9271,-14.9844 18.7839,-14.4271 17.8828,-13.3125 C16.9818,-12.1979 16.5313,-10.9323 16.5313,-9.51563 L16.5313,-2.40625 C16.5313,-1.90625 16.7943,-1.59115 17.3203,-1.46094 C17.8464,-1.33073 18.5208,-1.26563 19.3438,-1.26563 L19.3438,0 L11.0938,0 L11.0938,-1.26563 C11.9167,-1.26563 12.5911,-1.33073 13.1172,-1.46094 C13.6432,-1.59115 13.9063,-1.90625 13.9063,-2.40625 L13.9063,-10.9531 C13.9063,-12.1198 13.737,-13.0833 13.3984,-13.8438 C13.0599,-14.6042 12.3594,-14.9844 11.2969,-14.9844 C9.91146,-14.9844 8.76823,-14.4271 7.86719,-13.3125 C6.96615,-12.1979 6.51563,-10.9323 6.51563,-9.51563 L6.51563,-2.40625 C6.51563,-1.90625 6.78125,-1.59115 7.3125,-1.46094 C7.84375,-1.33073 8.51042,-1.26563 9.3125,-1.26563 L9.3125,0 L1.07813,0"/>
</g>

<g fill="#d9d9d9" fill-opacity="1" stroke="none" transform="matrix(0.75,0,0,0.75,439.451,529.1)"
font-family="MS Shell Dlg 2" font-size="8.25" font-weight="400" font-style="normal" 
>
<path vector-effect="none" fill-rule="evenodd" d="M8.96875,0.40625 C7.5,0.40625 6.15365,0.0208333 4.92969,-0.75 C3.70573,-1.52083 2.74479,-2.54688 2.04688,-3.82813 C1.34896,-5.10938 1,-6.46354 1,-7.89063 C1,-9.29688 1.32031,-10.6328 1.96094,-11.8984 C2.60156,-13.1641 3.49219,-14.1875 4.63281,-14.9688 C5.77344,-15.75 7.04688,-16.1406 8.45313,-16.1406 C9.55729,-16.1406 10.5156,-15.9557 11.3281,-15.5859 C12.1406,-15.2161 12.8125,-14.7031 13.3438,-14.0469 C13.875,-13.3906 14.2734,-12.6172 14.5391,-11.7266 C14.8047,-10.8359 14.9375,-9.85938 14.9375,-8.79688 C14.9375,-8.47396 14.8177,-8.3125 14.5781,-8.3125 L4.15625,-8.3125 L4.15625,-7.92188 C4.15625,-5.94271 4.55729,-4.23958 5.35938,-2.8125 C6.16146,-1.38542 7.46875,-0.671875 9.28125,-0.671875 C10.0208,-0.671875 10.7031,-0.835938 11.3281,-1.16406 C11.9531,-1.49219 12.4974,-1.94792 12.9609,-2.53125 C13.4245,-3.11458 13.7396,-3.73958 13.9063,-4.40625 C13.9271,-4.48958 13.9714,-4.5625 14.0391,-4.625 C14.1068,-4.6875 14.1771,-4.71875 14.25,-4.71875 L14.5781,-4.71875 C14.8177,-4.71875 14.9375,-4.56771 14.9375,-4.26563 C14.6042,-2.90104 13.875,-1.78125 12.75,-0.90625 C11.625,-0.03125 10.3646,0.40625 8.96875,0.40625 M4.1875,-9.21875 L12.3906,-9.21875 C12.3906,-10.1146 12.2656,-11.0234 12.0156,-11.9453 C11.7656,-12.8672 11.3464,-13.6354 10.7578,-14.25 C10.1693,-14.8646 9.40104,-15.1719 8.45313,-15.1719 C7.09896,-15.1719 6.04948,-14.5365 5.30469,-13.2656 C4.5599,-11.9948 4.1875,-10.6458 4.1875,-9.21875 "/>
</g>

<g fill="#d9d9d9" fill-opacity="1" stroke="none" transform="matrix(0.75,0,0,0.75,460.84,529.1)"
font-family="MS Shell Dlg 2" font-size="8.25" font-weight="400" font-style="normal" 
>
<path vector-effect="none" fill-rule="evenodd" d="M4.25,9 L4.25,-27 L9.17188,-27 L9.17188,-25.5625 L5.70313,-25.5625 L5.70313,7.5625 L9.17188,7.5625 L9.17188,9 L4.25,9"/>
</g>

<g fill="#d9d9d9" fill-opacity="1" stroke="none" transform="matrix(0.75,0,0,0.75,468.479,529.1)"
font-family="MS Shell Dlg 2" font-size="8.25" font-weight="400" font-style="normal" 
>
<path vector-effect="none" fill-rule="evenodd" d="M1.20313,0.109375 L1.20313,-5.78125 C1.20313,-5.96875 1.30729,-6.0625 1.51563,-6.0625 L1.95313,-6.0625 C2.08854,-6.0625 2.18229,-5.96875 2.23438,-5.78125 C2.90104,-2.30208 4.51563,-0.5625 7.07813,-0.5625 C8.22396,-0.5625 9.17969,-0.820313 9.94531,-1.33594 C10.7109,-1.85156 11.0938,-2.65104 11.0938,-3.73438 C11.0938,-4.50521 10.7943,-5.16146 10.1953,-5.70313 C9.59635,-6.24479 8.88542,-6.61979 8.0625,-6.82813 L5.65625,-7.29688 C4.85417,-7.47396 4.1224,-7.74219 3.46094,-8.10156 C2.79948,-8.46094 2.25781,-8.94271 1.83594,-9.54688 C1.41406,-10.151 1.20313,-10.849 1.20313,-11.6406 C1.20313,-12.6927 1.47917,-13.5547 2.03125,-14.2266 C2.58333,-14.8984 3.30469,-15.3854 4.19531,-15.6875 C5.08594,-15.9896 6.04688,-16.1406 7.07813,-16.1406 C8.31771,-16.1406 9.39063,-15.8177 10.2969,-15.1719 L11.3438,-16.0469 C11.3438,-16.1094 11.401,-16.1406 11.5156,-16.1406 L11.7813,-16.1406 C11.8542,-16.1406 11.9193,-16.1068 11.9766,-16.0391 C12.0339,-15.9714 12.0625,-15.9063 12.0625,-15.8438 L12.0625,-11.1406 C12.0625,-10.9219 11.9688,-10.8125 11.7813,-10.8125 L11.3438,-10.8125 C11.125,-10.8125 11.0156,-10.9219 11.0156,-11.1406 C11.0156,-12.401 10.6693,-13.4115 9.97656,-14.1719 C9.28385,-14.9323 8.30729,-15.3125 7.04688,-15.3125 C5.97396,-15.3125 5.04167,-15.112 4.25,-14.7109 C3.45833,-14.3099 3.0625,-13.625 3.0625,-12.6563 C3.0625,-11.9896 3.34635,-11.4427 3.91406,-11.0156 C4.48177,-10.5885 5.14583,-10.2813 5.90625,-10.0938 L8.34375,-9.64063 C9.16667,-9.44271 9.93229,-9.1224 10.6406,-8.67969 C11.349,-8.23698 11.9115,-7.67448 12.3281,-6.99219 C12.7448,-6.3099 12.9531,-5.54167 12.9531,-4.6875 C12.9531,-3.8125 12.8047,-3.05729 12.5078,-2.42188 C12.2109,-1.78646 11.7943,-1.25521 11.2578,-0.828125 C10.7214,-0.401042 10.0911,-0.0885417 9.36719,0.109375 C8.64323,0.307292 7.88021,0.40625 7.07813,0.40625 C5.57813,0.40625 4.29688,-0.104167 3.23438,-1.125 L1.92188,0.3125 C1.92188,0.375 1.85417,0.40625 1.71875,0.40625 L1.51563,0.40625 C1.30729,0.40625 1.20313,0.307292 1.20313,0.109375 "/>
</g>

<g fill="#d9d9d9" fill-opacity="1" stroke="none" transform="matrix(0.75,0,0,0.75,479.326,529.1)"
font-family="MS Shell Dlg 2" font-size="8.25" font-weight="400" font-style="normal" 
>
<path vector-effect="none" fill-rule="evenodd" d="M0.796875,9 L0.796875,7.5625 L4.29688,7.5625 L4.29688,-25.5625 L0.796875,-25.5625 L0.796875,-27 L5.73438,-27 L5.73438,9 L0.796875,9"/>
</g>

<g fill="#d9d9d9" fill-opacity="1" stroke="#d9d9d9" stroke-opacity="1" stroke-width="0.666667" stroke-linecap="square" stroke-linejoin="round" transform="matrix(0.75,0,0,0.75,0,0)"
font-family="MS Shell Dlg 2" font-size="8.25" font-weight="400" font-style="normal" 
>
<polyline fill="none" vector-effect="none" points="168,627 1000,627 " />
<polyline fill="none" vector-effect="none" points="168,27 1000,27 " />
<polyline fill="none" vector-effect="none" points="168,627 168,618.68 " />
<polyline fill="none" vector-effect="none" points="168,35.32 168,27 " />
<polyline fill="none" vector-effect="none" points="376,627 376,618.68 " />
<polyline fill="none" vector-effect="none" points="376,35.32 376,27 " />
<polyline fill="none" vector-effect="none" points="584,627 584,618.68 " />
<polyline fill="none" vector-effect="none" points="584,35.32 584,27 " />
<polyline fill="none" vector-effect="none" points="792,627 792,618.68 " />
<polyline fill="none" vector-effect="none" points="792,35.32 792,27 " />
<polyline fill="none" vector-effect="none" points="1000,627 1000,618.68 " />
<polyline fill="none" vector-effect="none" points="1000,35.32 1000,27 " />
</g>

<g fill="#d9d9d9" fill-opacity="1" stroke="none" transform="matrix(0.75,0,0,0.75,119.25,499.75)"
font-family="MS Shell Dlg 2" font-size="8.25" font-weight="400" font-style="normal" 
>
<path vector-effect="none" fill-rule="evenodd" d="M1.375,-11.6563 C1.375,-14.4479 1.66146,-16.6953 2.23438,-18.3984 C2.80729,-20.1016 3.66146,-21.4141 4.79688,-22.3359 C5.93229,-23.2578 7.35938,-23.7188 9.07813,-23.7188 C10.3385,-23.7188 11.4479,-23.4635 12.4063,-22.9531 C13.3646,-22.4427 14.1536,-21.7057 14.7734,-20.7422 C15.3932,-19.7786 15.8828,-18.6068 16.2422,-17.2266 C16.6016,-15.8464 16.7813,-13.9896 16.7813,-11.6563 C16.7813,-8.88542 16.4948,-6.64844 15.9219,-4.94531 C15.349,-3.24219 14.4974,-1.92448 13.3672,-0.992188 C12.237,-0.0598958 10.8073,0.40625 9.07813,0.40625 C6.79688,0.40625 5.00521,-0.411458 3.70313,-2.04688 C2.15104,-4.01563 1.375,-7.21875 1.375,-11.6563 M4.34375,-11.6563 C4.34375,-7.77083 4.79948,-5.1875 5.71094,-3.90625 C6.6224,-2.625 7.74479,-1.98438 9.07813,-1.98438 C10.401,-1.98438 11.5182,-2.6276 12.4297,-3.91406 C13.3411,-5.20052 13.7969,-7.78125 13.7969,-11.6563 C13.7969,-15.5417 13.3411,-18.1224 12.4297,-19.3984 C11.5182,-20.6745 10.3906,-21.3125 9.04688,-21.3125 C7.71354,-21.3125 6.64583,-20.75 5.84375,-19.625 C4.84375,-18.1875 4.34375,-15.5313 4.34375,-11.6563 "/>
</g>

<g fill="#d9d9d9" fill-opacity="1" stroke="none" transform="matrix(0.75,0,0,0.75,268.5,499.75)"
font-family="MS Shell Dlg 2" font-size="8.25" font-weight="400" font-style="normal" 
>
<path vector-effect="none" fill-rule="evenodd" d="M16.6094,-2.78125 L16.6094,0 L1,0 C0.979167,-0.697917 1.09375,-1.36979 1.34375,-2.01563 C1.73958,-3.07813 2.375,-4.125 3.25,-5.15625 C4.125,-6.1875 5.39063,-7.38021 7.04688,-8.73438 C9.60938,-10.8385 11.3411,-12.5052 12.2422,-13.7344 C13.1432,-14.9635 13.5938,-16.125 13.5938,-17.2188 C13.5938,-18.375 13.1849,-19.3464 12.3672,-20.1328 C11.5495,-20.9193 10.4792,-21.3125 9.15625,-21.3125 C7.76042,-21.3125 6.64323,-20.8932 5.80469,-20.0547 C4.96615,-19.2161 4.54167,-18.0573 4.53125,-16.5781 L1.54688,-16.8906 C1.75521,-19.1094 2.52344,-20.8021 3.85156,-21.9688 C5.17969,-23.1354 6.96875,-23.7188 9.21875,-23.7188 C11.4792,-23.7188 13.2708,-23.0911 14.5938,-21.8359 C15.9167,-20.5807 16.5781,-19.0208 16.5781,-17.1563 C16.5781,-16.2188 16.3854,-15.2917 16,-14.375 C15.6146,-13.4583 14.974,-12.4948 14.0781,-11.4844 C13.1823,-10.474 11.6927,-9.08854 9.60938,-7.32813 C7.86979,-5.86979 6.7526,-4.88021 6.25781,-4.35938 C5.76302,-3.83854 5.35417,-3.3125 5.03125,-2.78125 L16.6094,-2.78125 M19.375,-11.6563 C19.375,-14.4479 19.6615,-16.6953 20.2344,-18.3984 C20.8073,-20.1016 21.6615,-21.4141 22.7969,-22.3359 C23.9323,-23.2578 25.3594,-23.7188 27.0781,-23.7188 C28.3385,-23.7188 29.4479,-23.4635 30.4063,-22.9531 C31.3646,-22.4427 32.1536,-21.7057 32.7734,-20.7422 C33.3932,-19.7786 33.8828,-18.6068 34.2422,-17.2266 C34.6016,-15.8464 34.7813,-13.9896 34.7813,-11.6563 C34.7813,-8.88542 34.4948,-6.64844 33.9219,-4.94531 C33.349,-3.24219 32.4974,-1.92448 31.3672,-0.992188 C30.237,-0.0598958 28.8073,0.40625 27.0781,0.40625 C24.7969,0.40625 23.0052,-0.411458 21.7031,-2.04688 C20.151,-4.01563 19.375,-7.21875 19.375,-11.6563 M22.3438,-11.6563 C22.3438,-7.77083 22.7995,-5.1875 23.7109,-3.90625 C24.6224,-2.625 25.7448,-1.98438 27.0781,-1.98438 C28.401,-1.98438 29.5182,-2.6276 30.4297,-3.91406 C31.3411,-5.20052 31.7969,-7.78125 31.7969,-11.6563 C31.7969,-15.5417 31.3411,-18.1224 30.4297,-19.3984 C29.5182,-20.6745 28.3906,-21.3125 27.0469,-21.3125 C25.7135,-21.3125 24.6458,-20.75 23.8438,-19.625 C22.8438,-18.1875 22.3438,-15.5313 22.3438,-11.6563 "/>
</g>

<g fill="#d9d9d9" fill-opacity="1" stroke="none" transform="matrix(0.75,0,0,0.75,424.5,499.75)"
font-family="MS Shell Dlg 2" font-size="8.25" font-weight="400" font-style="normal" 
>
<path vector-effect="none" fill-rule="evenodd" d="M10.6719,0 L10.6719,-5.65625 L0.421875,-5.65625 L0.421875,-8.3125 L11.2031,-23.625 L13.5625,-23.625 L13.5625,-8.3125 L16.7656,-8.3125 L16.7656,-5.65625 L13.5625,-5.65625 L13.5625,0 L10.6719,0 M10.6719,-8.3125 L10.6719,-18.9688 L3.26563,-8.3125 L10.6719,-8.3125 M19.375,-11.6563 C19.375,-14.4479 19.6615,-16.6953 20.2344,-18.3984 C20.8073,-20.1016 21.6615,-21.4141 22.7969,-22.3359 C23.9323,-23.2578 25.3594,-23.7188 27.0781,-23.7188 C28.3385,-23.7188 29.4479,-23.4635 30.4063,-22.9531 C31.3646,-22.4427 32.1536,-21.7057 32.7734,-20.7422 C33.3932,-19.7786 33.8828,-18.6068 34.2422,-17.2266 C34.6016,-15.8464 34.7813,-13.9896 34.7813,-11.6563 C34.7813,-8.88542 34.4948,-6.64844 33.9219,-4.94531 C33.349,-3.24219 32.4974,-1.92448 31.3672,-0.992188 C30.237,-0.0598958 28.8073,0.40625 27.0781,0.40625 C24.7969,0.40625 23.0052,-0.411458 21.7031,-2.04688 C20.151,-4.01563 19.375,-7.21875 19.375,-11.6563 M22.3438,-11.6563 C22.3438,-7.77083 22.7995,-5.1875 23.7109,-3.90625 C24.6224,-2.625 25.7448,-1.98438 27.0781,-1.98438 C28.401,-1.98438 29.5182,-2.6276 30.4297,-3.91406 C31.3411,-5.20052 31.7969,-7.78125 31.7969,-11.6563 C31.7969,-15.5417 31.3411,-18.1224 30.4297,-19.3984 C29.5182,-20.6745 28.3906,-21.3125 27.0469,-21.3125 C25.7135,-21.3125 24.6458,-20.75 23.8438,-19.625 C22.8438,-18.1875 22.3438,-15.5313 22.3438,-11.6563 "/>
</g>

<g fill="#d9d9d9" fill-opacity="1" stroke="none" transform="matrix(0.75,0,0,0.75,580.5,499.75)"
font-family="MS Shell Dlg 2" font-size="8.25" font-weight="400" font-style="normal" 
>
<path vector-effect="none" fill-rule="evenodd" d="M16.4219,-17.8438 L13.5313,-17.6094 C13.2813,-18.7448 12.9167,-19.5729 12.4375,-20.0938 C11.6563,-20.9167 10.6927,-21.3281 9.54688,-21.3281 C8.61979,-21.3281 7.80729,-21.0729 7.10938,-20.5625 C6.19271,-19.8958 5.47135,-18.9245 4.94531,-17.6484 C4.41927,-16.3724 4.14583,-14.5521 4.125,-12.1875 C4.82292,-13.25 5.67708,-14.0391 6.6875,-14.5547 C7.69792,-15.0703 8.75521,-15.3281 9.85938,-15.3281 C11.7969,-15.3281 13.4453,-14.6146 14.8047,-13.1875 C16.1641,-11.7604 16.8438,-9.92188 16.8438,-7.67188 C16.8438,-6.19271 16.5234,-4.8151 15.8828,-3.53906 C15.2422,-2.26302 14.362,-1.28646 13.2422,-0.609375 C12.1224,0.0677083 10.8542,0.40625 9.4375,0.40625 C7.02083,0.40625 5.04948,-0.484375 3.52344,-2.26563 C1.9974,-4.04688 1.23438,-6.97396 1.23438,-11.0469 C1.23438,-15.6198 2.07813,-18.9427 3.76563,-21.0156 C5.24479,-22.8177 7.22917,-23.7188 9.71875,-23.7188 C11.5729,-23.7188 13.0938,-23.1979 14.2813,-22.1563 C15.4688,-21.1146 16.1823,-19.6771 16.4219,-17.8438 M4.57813,-7.65625 C4.57813,-6.65625 4.78906,-5.70052 5.21094,-4.78906 C5.63281,-3.8776 6.22656,-3.18229 6.99219,-2.70313 C7.75781,-2.22396 8.55729,-1.98438 9.39063,-1.98438 C10.6198,-1.98438 11.6745,-2.47917 12.5547,-3.46875 C13.4349,-4.45833 13.875,-5.80208 13.875,-7.5 C13.875,-9.125 13.4401,-10.4089 12.5703,-11.3516 C11.7005,-12.2943 10.6042,-12.7656 9.28125,-12.7656 C7.96875,-12.7656 6.85677,-12.2943 5.94531,-11.3516 C5.03385,-10.4089 4.57813,-9.17708 4.57813,-7.65625 M19.375,-11.6563 C19.375,-14.4479 19.6615,-16.6953 20.2344,-18.3984 C20.8073,-20.1016 21.6615,-21.4141 22.7969,-22.3359 C23.9323,-23.2578 25.3594,-23.7188 27.0781,-23.7188 C28.3385,-23.7188 29.4479,-23.4635 30.4063,-22.9531 C31.3646,-22.4427 32.1536,-21.7057 32.7734,-20.7422 C33.3932,-19.7786 33.8828,-18.6068 34.2422,-17.2266 C34.6016,-15.8464 34.7813,-13.9896 34.7813,-11.6563 C34.7813,-8.88542 34.4948,-6.64844 33.9219,-4.94531 C33.349,-3.24219 32.4974,-1.92448 31.3672,-0.992188 C30.237,-0.0598958 28.8073,0.40625 27.0781,0.40625 C24.7969,0.40625 23.0052,-0.411458 21.7031,-2.04688 C20.151,-4.01563 19.375,-7.21875 19.375,-11.6563 M22.3438,-11.6563 C22.3438,-7.77083 22.7995,-5.1875 23.7109,-3.90625 C24.6224,-2.625 25.7448,-1.98438 27.0781,-1.98438 C28.401,-1.98438 29.5182,-2.6276 30.4297,-3.91406 C31.3411,-5.20052 31.7969,-7.78125 31.7969,-11.6563 C31.7969,-15.5417 31.3411,-18.1224 30.4297,-19.3984 C29.5182,-20.6745 28.3906,-21.3125 27.0469,-21.3125 C25.7135,-21.3125 24.6458,-20.75 23.8438,-19.625 C22.8438,-18.1875 22.3438,-15.5313 22.3438,-11.6563 "/>
</g>

<g fill="#d9d9d9" fill-opacity="1" stroke="none" transform="matrix(0.75,0,0,0.75,736.5,499.75)"
font-family="MS Shell Dlg 2" font-size="8.25" font-weight="400" font-style="normal" 
>
<path vector-effect="none" fill-rule="evenodd" d="M5.82813,-12.8125 C4.63021,-13.25 3.73958,-13.8776 3.15625,-14.6953 C2.57292,-15.513 2.28125,-16.4896 2.28125,-17.625 C2.28125,-19.3438 2.90104,-20.7891 4.14063,-21.9609 C5.38021,-23.1328 7.02604,-23.7188 9.07813,-23.7188 C11.1406,-23.7188 12.7995,-23.1198 14.0547,-21.9219 C15.3099,-20.724 15.9375,-19.2656 15.9375,-17.5469 C15.9375,-16.4531 15.651,-15.5 15.0781,-14.6875 C14.5052,-13.875 13.6302,-13.25 12.4531,-12.8125 C13.901,-12.3333 15.0052,-11.5677 15.7656,-10.5156 C16.526,-9.46354 16.9063,-8.20833 16.9063,-6.75 C16.9063,-4.72917 16.1901,-3.03125 14.7578,-1.65625 C13.3255,-0.28125 11.4479,0.40625 9.125,0.40625 C6.79167,0.40625 4.91146,-0.283854 3.48438,-1.66406 C2.05729,-3.04427 1.34375,-4.76563 1.34375,-6.82813 C1.34375,-8.36979 1.73177,-9.65885 2.50781,-10.6953 C3.28385,-11.7318 4.39063,-12.4375 5.82813,-12.8125 M5.25,-17.7188 C5.25,-16.6042 5.60938,-15.6927 6.32813,-14.9844 C7.04688,-14.276 7.98438,-13.9219 9.14063,-13.9219 C10.2552,-13.9219 11.1693,-14.2734 11.8828,-14.9766 C12.5964,-15.6797 12.9531,-16.5417 12.9531,-17.5625 C12.9531,-18.625 12.5859,-19.5182 11.8516,-20.2422 C11.1172,-20.9661 10.2031,-21.3281 9.10938,-21.3281 C7.99479,-21.3281 7.07292,-20.974 6.34375,-20.2656 C5.61458,-19.5573 5.25,-18.7083 5.25,-17.7188 M4.3125,-6.8125 C4.3125,-5.98958 4.51042,-5.1901 4.90625,-4.41406 C5.30208,-3.63802 5.88542,-3.03906 6.65625,-2.61719 C7.42708,-2.19531 8.26042,-1.98438 9.15625,-1.98438 C10.5417,-1.98438 11.6849,-2.42969 12.5859,-3.32031 C13.487,-4.21094 13.9375,-5.34375 13.9375,-6.71875 C13.9375,-8.11458 13.474,-9.26823 12.5469,-10.1797 C11.6198,-11.0911 10.4583,-11.5469 9.0625,-11.5469 C7.69792,-11.5469 6.5651,-11.0964 5.66406,-10.1953 C4.76302,-9.29427 4.3125,-8.16667 4.3125,-6.8125 M19.375,-11.6563 C19.375,-14.4479 19.6615,-16.6953 20.2344,-18.3984 C20.8073,-20.1016 21.6615,-21.4141 22.7969,-22.3359 C23.9323,-23.2578 25.3594,-23.7188 27.0781,-23.7188 C28.3385,-23.7188 29.4479,-23.4635 30.4063,-22.9531 C31.3646,-22.4427 32.1536,-21.7057 32.7734,-20.7422 C33.3932,-19.7786 33.8828,-18.6068 34.2422,-17.2266 C34.6016,-15.8464 34.7813,-13.9896 34.7813,-11.6563 C34.7813,-8.88542 34.4948,-6.64844 33.9219,-4.94531 C33.349,-3.24219 32.4974,-1.92448 31.3672,-0.992188 C30.237,-0.0598958 28.8073,0.40625 27.0781,0.40625 C24.7969,0.40625 23.0052,-0.411458 21.7031,-2.04688 C20.151,-4.01563 19.375,-7.21875 19.375,-11.6563 M22.3438,-11.6563 C22.3438,-7.77083 22.7995,-5.1875 23.7109,-3.90625 C24.6224,-2.625 25.7448,-1.98438 27.0781,-1.98438 C28.401,-1.98438 29.5182,-2.6276 30.4297,-3.91406 C31.3411,-5.20052 31.7969,-7.78125 31.7969,-11.6563 C31.7969,-15.5417 31.3411,-18.1224 30.4297,-19.3984 C29.5182,-20.6745 28.3906,-21.3125 27.0469,-21.3125 C25.7135,-21.3125 24.6458,-20.75 23.8438,-19.625 C22.8438,-18.1875 22.3438,-15.5313 22.3438,-11.6563 "/>
</g>

<g fill="#d9d9d9" fill-opacity="1" stroke="none" transform="matrix(0,-0.75,0.75,0,39.3499,387.17)"
font-family="MS Shell Dlg 2" font-size="8.25" font-weight="400" font-style="normal" 
>
<path vector-effect="none" fill-rule="evenodd" d="M8.20313,-3.84375 C9.02604,-2.80208 10.0521,-1.97917 11.2813,-1.375 C12.5104,-0.770833 13.7917,-0.46875 15.125,-0.46875 C16.2292,-0.46875 17.2578,-0.690104 18.2109,-1.13281 C19.1641,-1.57552 19.9948,-2.1901 20.7031,-2.97656 C21.4115,-3.76302 21.9557,-4.65365 22.3359,-5.64844 C22.7161,-6.64323 22.9063,-7.69271 22.9063,-8.79688 C22.9063,-8.98438 23.0104,-9.07813 23.2188,-9.07813 L23.6563,-9.07813 C23.8438,-9.07813 23.9375,-8.95833 23.9375,-8.71875 C23.9375,-7.46875 23.6979,-6.26042 23.2188,-5.09375 C22.7396,-3.92708 22.0599,-2.90104 21.1797,-2.01563 C20.2995,-1.13021 19.2891,-0.440104 18.1484,0.0546875 C17.0078,0.549479 15.8177,0.796875 14.5781,0.796875 C12.849,0.796875 11.2135,0.447917 9.67188,-0.25 C8.13021,-0.947917 6.78906,-1.90365 5.64844,-3.11719 C4.50781,-4.33073 3.61719,-5.73438 2.97656,-7.32813 C2.33594,-8.92188 2.01563,-10.5833 2.01563,-12.3125 C2.01563,-14.0313 2.33594,-15.6875 2.97656,-17.2813 C3.61719,-18.875 4.50781,-20.2813 5.64844,-21.5 C6.78906,-22.7188 8.13021,-23.6719 9.67188,-24.3594 C11.2135,-25.0469 12.849,-25.3906 14.5781,-25.3906 C15.8073,-25.3906 16.9844,-25.1224 18.1094,-24.5859 C19.2344,-24.0495 20.2188,-23.2969 21.0625,-22.3281 L23.1563,-25.2813 C23.2917,-25.3542 23.3698,-25.3906 23.3906,-25.3906 L23.6563,-25.3906 C23.7292,-25.3906 23.7943,-25.3594 23.8516,-25.2969 C23.9089,-25.2344 23.9375,-25.1615 23.9375,-25.0781 L23.9375,-15.3594 C23.9375,-15.151 23.8438,-15.0469 23.6563,-15.0469 L23.0156,-15.0469 C22.7865,-15.0469 22.6719,-15.151 22.6719,-15.3594 C22.6719,-16.0573 22.5339,-16.8333 22.2578,-17.6875 C21.9818,-18.5417 21.6302,-19.3516 21.2031,-20.1172 C20.776,-20.8828 20.2813,-21.5625 19.7188,-22.1563 C18.375,-23.4688 16.8281,-24.125 15.0781,-24.125 C13.7552,-24.125 12.487,-23.8255 11.2734,-23.2266 C10.0599,-22.6276 9.03646,-21.8021 8.20313,-20.75 C7.32813,-19.625 6.72135,-18.3438 6.38281,-16.9063 C6.04427,-15.4688 5.875,-13.9375 5.875,-12.3125 C5.875,-10.6771 6.04427,-9.13802 6.38281,-7.69531 C6.72135,-6.2526 7.32813,-4.96875 8.20313,-3.84375 "/>
</g>

<g fill="#d9d9d9" fill-opacity="1" stroke="none" transform="matrix(0,-0.75,0.75,0,39.3499,367.309)"
font-family="MS Shell Dlg 2" font-size="8.25" font-weight="400" font-style="normal" 
>
<path vector-effect="none" fill-rule="evenodd" d="M9,0.40625 C7.5625,0.40625 6.22656,0.0390625 4.99219,-0.695313 C3.75781,-1.42969 2.78385,-2.41146 2.07031,-3.64063 C1.35677,-4.86979 1,-6.21354 1,-7.67188 C1,-8.76563 1.19792,-9.82292 1.59375,-10.8438 C1.98958,-11.8646 2.55208,-12.776 3.28125,-13.5781 C4.01042,-14.3802 4.86198,-15.0078 5.83594,-15.4609 C6.8099,-15.9141 7.86458,-16.1406 9,-16.1406 C10.4792,-16.1406 11.8255,-15.75 13.0391,-14.9688 C14.2526,-14.1875 15.2109,-13.1432 15.9141,-11.8359 C16.6172,-10.5286 16.9688,-9.14063 16.9688,-7.67188 C16.9688,-6.22396 16.6094,-4.88281 15.8906,-3.64844 C15.1719,-2.41406 14.2005,-1.42969 12.9766,-0.695313 C11.7526,0.0390625 10.4271,0.40625 9,0.40625 M9,-0.671875 C10.9271,-0.671875 12.2109,-1.36719 12.8516,-2.75781 C13.4922,-4.14844 13.8125,-5.91667 13.8125,-8.0625 C13.8125,-9.27083 13.75,-10.2682 13.625,-11.0547 C13.5,-11.8411 13.2188,-12.5573 12.7813,-13.2031 C12.5104,-13.599 12.1667,-13.9479 11.75,-14.25 C11.3333,-14.5521 10.8932,-14.7813 10.4297,-14.9375 C9.96615,-15.0938 9.48958,-15.1719 9,-15.1719 C8.25,-15.1719 7.53906,-15.0026 6.86719,-14.6641 C6.19531,-14.3255 5.63542,-13.8385 5.1875,-13.2031 C4.73958,-12.526 4.45573,-11.7813 4.33594,-10.9688 C4.21615,-10.1563 4.15625,-9.1875 4.15625,-8.0625 C4.15625,-6.71875 4.27344,-5.51302 4.50781,-4.44531 C4.74219,-3.3776 5.21354,-2.48177 5.92188,-1.75781 C6.63021,-1.03385 7.65625,-0.671875 9,-0.671875 "/>
</g>

<g fill="#d9d9d9" fill-opacity="1" stroke="none" transform="matrix(0,-0.75,0.75,0,39.3499,353.559)"
font-family="MS Shell Dlg 2" font-size="8.25" font-weight="400" font-style="normal" 
>
<path vector-effect="none" fill-rule="evenodd" d="M1.07813,0 L1.07813,-1.26563 C1.89063,-1.26563 2.5625,-1.33073 3.09375,-1.46094 C3.625,-1.59115 3.89063,-1.90625 3.89063,-2.40625 L3.89063,-12.2344 C3.89063,-12.8802 3.79427,-13.3464 3.60156,-13.6328 C3.40885,-13.9193 3.13021,-14.0938 2.76563,-14.1563 C2.40104,-14.2188 1.83854,-14.25 1.07813,-14.25 L1.07813,-15.5156 L6.29688,-15.9063 L6.29688,-12.3906 C6.77604,-13.4219 7.48698,-14.2656 8.42969,-14.9219 C9.3724,-15.5781 10.401,-15.9063 11.5156,-15.9063 C13.1823,-15.9063 14.4349,-15.5078 15.2734,-14.7109 C16.112,-13.9141 16.5313,-12.6979 16.5313,-11.0625 L16.5313,-2.40625 C16.5313,-1.90625 16.7943,-1.59115 17.3203,-1.46094 C17.8464,-1.33073 18.5208,-1.26563 19.3438,-1.26563 L19.3438,0 L11.0938,0 L11.0938,-1.26563 C11.9167,-1.26563 12.5911,-1.33073 13.1172,-1.46094 C13.6432,-1.59115 13.9063,-1.90625 13.9063,-2.40625 L13.9063,-10.9531 C13.9063,-12.1198 13.737,-13.0833 13.3984,-13.8438 C13.0599,-14.6042 12.3594,-14.9844 11.2969,-14.9844 C9.91146,-14.9844 8.76823,-14.4271 7.86719,-13.3125 C6.96615,-12.1979 6.51563,-10.9323 6.51563,-9.51563 L6.51563,-2.40625 C6.51563,-1.90625 6.78125,-1.59115 7.3125,-1.46094 C7.84375,-1.33073 8.51042,-1.26563 9.3125,-1.26563 L9.3125,0 L1.07813,0"/>
</g>

<g fill="#d9d9d9" fill-opacity="1" stroke="none" transform="matrix(0,-0.75,0.75,0,39.3499,338.281)"
font-family="MS Shell Dlg 2" font-size="8.25" font-weight="400" font-style="normal" 
>
<path vector-effect="none" fill-rule="evenodd" d="M8.96875,0.40625 C7.51042,0.40625 6.1901,0.0286458 5.00781,-0.726563 C3.82552,-1.48177 2.89583,-2.48958 2.21875,-3.75 C1.54167,-5.01042 1.20313,-6.34896 1.20313,-7.76563 C1.20313,-9.18229 1.53906,-10.5417 2.21094,-11.8438 C2.88281,-13.1458 3.8125,-14.1875 5,-14.9688 C6.1875,-15.75 7.51042,-16.1406 8.96875,-16.1406 C10.375,-16.1406 11.6536,-15.8646 12.8047,-15.3125 C13.9557,-14.7604 14.5313,-13.8542 14.5313,-12.5938 C14.5313,-12.125 14.3646,-11.7188 14.0313,-11.375 C13.6979,-11.0313 13.2917,-10.8594 12.8125,-10.8594 C12.3333,-10.8594 11.9271,-11.0313 11.5938,-11.375 C11.2604,-11.7188 11.0938,-12.125 11.0938,-12.5938 C11.0938,-13.0104 11.2292,-13.375 11.5,-13.6875 C11.7708,-14 12.1042,-14.1979 12.5,-14.2813 C11.6667,-14.8021 10.5,-15.0625 9,-15.0625 C7.85417,-15.0625 6.92969,-14.6823 6.22656,-13.9219 C5.52344,-13.1615 5.03125,-12.2214 4.75,-11.1016 C4.46875,-9.98177 4.32813,-8.86979 4.32813,-7.76563 C4.32813,-6.60938 4.5,-5.49219 4.84375,-4.41406 C5.1875,-3.33594 5.74479,-2.44271 6.51563,-1.73438 C7.28646,-1.02604 8.25,-0.671875 9.40625,-0.671875 C10.5417,-0.671875 11.5078,-1.01823 12.3047,-1.71094 C13.1016,-2.40365 13.6458,-3.3125 13.9375,-4.4375 C13.9375,-4.58333 14.0313,-4.65625 14.2188,-4.65625 L14.6563,-4.65625 C14.7292,-4.65625 14.7943,-4.6224 14.8516,-4.55469 C14.9089,-4.48698 14.9375,-4.41146 14.9375,-4.32813 L14.9375,-4.23438 C14.5729,-2.80729 13.8516,-1.67708 12.7734,-0.84375 C11.6953,-0.0104167 10.4271,0.40625 8.96875,0.40625 "/>
</g>

<g fill="#d9d9d9" fill-opacity="1" stroke="none" transform="matrix(0,-0.75,0.75,0,39.3499,326.059)"
font-family="MS Shell Dlg 2" font-size="8.25" font-weight="400" font-style="normal" 
>
<path vector-effect="none" fill-rule="evenodd" d="M8.96875,0.40625 C7.5,0.40625 6.15365,0.0208333 4.92969,-0.75 C3.70573,-1.52083 2.74479,-2.54688 2.04688,-3.82813 C1.34896,-5.10938 1,-6.46354 1,-7.89063 C1,-9.29688 1.32031,-10.6328 1.96094,-11.8984 C2.60156,-13.1641 3.49219,-14.1875 4.63281,-14.9688 C5.77344,-15.75 7.04688,-16.1406 8.45313,-16.1406 C9.55729,-16.1406 10.5156,-15.9557 11.3281,-15.5859 C12.1406,-15.2161 12.8125,-14.7031 13.3438,-14.0469 C13.875,-13.3906 14.2734,-12.6172 14.5391,-11.7266 C14.8047,-10.8359 14.9375,-9.85938 14.9375,-8.79688 C14.9375,-8.47396 14.8177,-8.3125 14.5781,-8.3125 L4.15625,-8.3125 L4.15625,-7.92188 C4.15625,-5.94271 4.55729,-4.23958 5.35938,-2.8125 C6.16146,-1.38542 7.46875,-0.671875 9.28125,-0.671875 C10.0208,-0.671875 10.7031,-0.835938 11.3281,-1.16406 C11.9531,-1.49219 12.4974,-1.94792 12.9609,-2.53125 C13.4245,-3.11458 13.7396,-3.73958 13.9063,-4.40625 C13.9271,-4.48958 13.9714,-4.5625 14.0391,-4.625 C14.1068,-4.6875 14.1771,-4.71875 14.25,-4.71875 L14.5781,-4.71875 C14.8177,-4.71875 14.9375,-4.56771 14.9375,-4.26563 C14.6042,-2.90104 13.875,-1.78125 12.75,-0.90625 C11.625,-0.03125 10.3646,0.40625 8.96875,0.40625 M4.1875,-9.21875 L12.3906,-9.21875 C12.3906,-10.1146 12.2656,-11.0234 12.0156,-11.9453 C11.7656,-12.8672 11.3464,-13.6354 10.7578,-14.25 C10.1693,-14.8646 9.40104,-15.1719 8.45313,-15.1719 C7.09896,-15.1719 6.04948,-14.5365 5.30469,-13.2656 C4.5599,-11.9948 4.1875,-10.6458 4.1875,-9.21875 "/>
</g>

<g fill="#d9d9d9" fill-opacity="1" stroke="none" transform="matrix(0,-0.75,0.75,0,39.3499,313.837)"
font-family="MS Shell Dlg 2" font-size="8.25" font-weight="400" font-style="normal" 
>
<path vector-effect="none" fill-rule="evenodd" d="M1.07813,0 L1.07813,-1.26563 C1.89063,-1.26563 2.5625,-1.33073 3.09375,-1.46094 C3.625,-1.59115 3.89063,-1.90625 3.89063,-2.40625 L3.89063,-12.2344 C3.89063,-12.8802 3.79427,-13.3464 3.60156,-13.6328 C3.40885,-13.9193 3.13021,-14.0938 2.76563,-14.1563 C2.40104,-14.2188 1.83854,-14.25 1.07813,-14.25 L1.07813,-15.5156 L6.29688,-15.9063 L6.29688,-12.3906 C6.77604,-13.4219 7.48698,-14.2656 8.42969,-14.9219 C9.3724,-15.5781 10.401,-15.9063 11.5156,-15.9063 C13.1823,-15.9063 14.4349,-15.5078 15.2734,-14.7109 C16.112,-13.9141 16.5313,-12.6979 16.5313,-11.0625 L16.5313,-2.40625 C16.5313,-1.90625 16.7943,-1.59115 17.3203,-1.46094 C17.8464,-1.33073 18.5208,-1.26563 19.3438,-1.26563 L19.3438,0 L11.0938,0 L11.0938,-1.26563 C11.9167,-1.26563 12.5911,-1.33073 13.1172,-1.46094 C13.6432,-1.59115 13.9063,-1.90625 13.9063,-2.40625 L13.9063,-10.9531 C13.9063,-12.1198 13.737,-13.0833 13.3984,-13.8438 C13.0599,-14.6042 12.3594,-14.9844 11.2969,-14.9844 C9.91146,-14.9844 8.76823,-14.4271 7.86719,-13.3125 C6.96615,-12.1979 6.51563,-10.9323 6.51563,-9.51563 L6.51563,-2.40625 C6.51563,-1.90625 6.78125,-1.59115 7.3125,-1.46094 C7.84375,-1.33073 8.51042,-1.26563 9.3125,-1.26563 L9.3125,0 L1.07813,0"/>
</g>

<g fill="#d9d9d9" fill-opacity="1" stroke="none" transform="matrix(0,-0.75,0.75,0,39.3499,299.323)"
font-family="MS Shell Dlg 2" font-size="8.25" font-weight="400" font-style="normal" 
>
<path vector-effect="none" fill-rule="evenodd" d="M3.67188,-4.32813 L3.67188,-14.25 L0.6875,-14.25 L0.6875,-15.1875 C2.26042,-15.1875 3.41406,-15.9193 4.14844,-17.3828 C4.88281,-18.8464 5.25,-20.4375 5.25,-22.1563 L6.29688,-22.1563 L6.29688,-15.5156 L11.375,-15.5156 L11.375,-14.25 L6.29688,-14.25 L6.29688,-4.40625 C6.29688,-3.41667 6.46354,-2.54688 6.79688,-1.79688 C7.13021,-1.04688 7.72917,-0.671875 8.59375,-0.671875 C9.41667,-0.671875 10.0104,-1.0651 10.375,-1.85156 C10.7396,-2.63802 10.9219,-3.48958 10.9219,-4.40625 L10.9219,-6.53125 L11.9531,-6.53125 L11.9531,-4.32813 C11.9531,-3.57813 11.8151,-2.83594 11.5391,-2.10156 C11.263,-1.36719 10.8568,-0.765625 10.3203,-0.296875 C9.78385,0.171875 9.125,0.40625 8.34375,0.40625 C6.90625,0.40625 5.76823,-0.0260417 4.92969,-0.890625 C4.09115,-1.75521 3.67188,-2.90104 3.67188,-4.32813 "/>
</g>

<g fill="#d9d9d9" fill-opacity="1" stroke="none" transform="matrix(0,-0.75,0.75,0,39.3499,288.628)"
font-family="MS Shell Dlg 2" font-size="8.25" font-weight="400" font-style="normal" 
>
<path vector-effect="none" fill-rule="evenodd" d="M0.9375,0 L0.9375,-1.26563 C1.75,-1.26563 2.42188,-1.33073 2.95313,-1.46094 C3.48438,-1.59115 3.75,-1.90625 3.75,-2.40625 L3.75,-12.2344 C3.75,-12.8802 3.65365,-13.3464 3.46094,-13.6328 C3.26823,-13.9193 2.98958,-14.0938 2.625,-14.1563 C2.26042,-14.2188 1.69792,-14.25 0.9375,-14.25 L0.9375,-15.5156 L6.07813,-15.9063 L6.07813,-12.3906 C6.46354,-13.4323 7.01563,-14.2786 7.73438,-14.9297 C8.45313,-15.5807 9.32292,-15.9063 10.3438,-15.9063 C11.0521,-15.9063 11.6875,-15.6953 12.25,-15.2734 C12.8125,-14.8516 13.0938,-14.2969 13.0938,-13.6094 C13.0938,-13.1719 12.9401,-12.7917 12.6328,-12.4688 C12.3255,-12.1458 11.9427,-11.9844 11.4844,-11.9844 C11.0365,-11.9844 10.6536,-12.1432 10.3359,-12.4609 C10.0182,-12.7786 9.85938,-13.1615 9.85938,-13.6094 C9.85938,-14.2552 10.0885,-14.7135 10.5469,-14.9844 L10.3438,-14.9844 C9.36458,-14.9844 8.56771,-14.6328 7.95313,-13.9297 C7.33854,-13.2266 6.90365,-12.3516 6.64844,-11.3047 C6.39323,-10.2578 6.26563,-9.26042 6.26563,-8.3125 L6.26563,-2.40625 C6.26563,-1.64583 7.42708,-1.26563 9.75,-1.26563 L9.75,0 L0.9375,0"/>
</g>

<g fill="#d9d9d9" fill-opacity="1" stroke="none" transform="matrix(0,-0.75,0.75,0,39.3499,277.858)"
font-family="MS Shell Dlg 2" font-size="8.25" font-weight="400" font-style="normal" 
>
<path vector-effect="none" fill-rule="evenodd" d="M1.4375,-3.53125 C1.4375,-4.95833 2,-6.1224 3.125,-7.02344 C4.25,-7.92448 5.60156,-8.55729 7.17969,-8.92188 C8.75781,-9.28646 10.2552,-9.46875 11.6719,-9.46875 L11.6719,-10.9531 C11.6719,-11.6406 11.5208,-12.3073 11.2188,-12.9531 C10.9167,-13.599 10.4766,-14.1302 9.89844,-14.5469 C9.32031,-14.9635 8.6875,-15.1719 8,-15.1719 C6.40625,-15.1719 5.19271,-14.8125 4.35938,-14.0938 C4.81771,-14.0938 5.19531,-13.9219 5.49219,-13.5781 C5.78906,-13.2344 5.9375,-12.8385 5.9375,-12.3906 C5.9375,-11.9115 5.76823,-11.5026 5.42969,-11.1641 C5.09115,-10.8255 4.6875,-10.6563 4.21875,-10.6563 C3.73958,-10.6563 3.33073,-10.8255 2.99219,-11.1641 C2.65365,-11.5026 2.48438,-11.9115 2.48438,-12.3906 C2.48438,-13.6615 3.05729,-14.6042 4.20313,-15.2188 C5.34896,-15.8333 6.61458,-16.1406 8,-16.1406 C8.96875,-16.1406 9.94531,-15.9323 10.9297,-15.5156 C11.9141,-15.099 12.7214,-14.5052 13.3516,-13.7344 C13.9818,-12.9635 14.2969,-12.0625 14.2969,-11.0313 L14.2969,-2.9375 C14.2969,-2.46875 14.3958,-2.03906 14.5938,-1.64844 C14.7917,-1.25781 15.099,-1.0625 15.5156,-1.0625 C15.9219,-1.0625 16.2214,-1.25781 16.4141,-1.64844 C16.6068,-2.03906 16.7031,-2.46354 16.7031,-2.92188 L16.7031,-5.20313 L17.75,-5.20313 L17.75,-2.90625 C17.75,-2.375 17.6094,-1.86458 17.3281,-1.375 C17.0469,-0.885417 16.6693,-0.497396 16.1953,-0.210938 C15.7214,0.0755208 15.2083,0.21875 14.6563,0.21875 C13.9583,0.21875 13.3542,-0.0572917 12.8438,-0.609375 C12.3333,-1.16146 12.0469,-1.8125 11.9844,-2.5625 C11.5469,-1.65625 10.8932,-0.934896 10.0234,-0.398438 C9.15365,0.138021 8.22917,0.40625 7.25,0.40625 C6.33333,0.40625 5.43229,0.270833 4.54688,0 C3.66146,-0.270833 2.92188,-0.695313 2.32813,-1.27344 C1.73438,-1.85156 1.4375,-2.60417 1.4375,-3.53125 M4.35938,-3.53125 C4.35938,-2.69792 4.66927,-1.99479 5.28906,-1.42188 C5.90885,-0.848958 6.64063,-0.5625 7.48438,-0.5625 C8.26563,-0.5625 8.97135,-0.755208 9.60156,-1.14063 C10.2318,-1.52604 10.7344,-2.05208 11.1094,-2.71875 C11.4844,-3.38542 11.6719,-4.08333 11.6719,-4.8125 L11.6719,-8.54688 C10.5781,-8.54688 9.46094,-8.36719 8.32031,-8.00781 C7.17969,-7.64844 6.23438,-7.09115 5.48438,-6.33594 C4.73438,-5.58073 4.35938,-4.64583 4.35938,-3.53125 "/>
</g>

<g fill="#d9d9d9" fill-opacity="1" stroke="none" transform="matrix(0,-0.75,0.75,0,39.3499,264.108)"
font-family="MS Shell Dlg 2" font-size="8.25" font-weight="400" font-style="normal" 
>
<path vector-effect="none" fill-rule="evenodd" d="M3.67188,-4.32813 L3.67188,-14.25 L0.6875,-14.25 L0.6875,-15.1875 C2.26042,-15.1875 3.41406,-15.9193 4.14844,-17.3828 C4.88281,-18.8464 5.25,-20.4375 5.25,-22.1563 L6.29688,-22.1563 L6.29688,-15.5156 L11.375,-15.5156 L11.375,-14.25 L6.29688,-14.25 L6.29688,-4.40625 C6.29688,-3.41667 6.46354,-2.54688 6.79688,-1.79688 C7.13021,-1.04688 7.72917,-0.671875 8.59375,-0.671875 C9.41667,-0.671875 10.0104,-1.0651 10.375,-1.85156 C10.7396,-2.63802 10.9219,-3.48958 10.9219,-4.40625 L10.9219,-6.53125 L11.9531,-6.53125 L11.9531,-4.32813 C11.9531,-3.57813 11.8151,-2.83594 11.5391,-2.10156 C11.263,-1.36719 10.8568,-0.765625 10.3203,-0.296875 C9.78385,0.171875 9.125,0.40625 8.34375,0.40625 C6.90625,0.40625 5.76823,-0.0260417 4.92969,-0.890625 C4.09115,-1.75521 3.67188,-2.90104 3.67188,-4.32813 "/>
</g>

<g fill="#d9d9d9" fill-opacity="1" stroke="none" transform="matrix(0,-0.75,0.75,0,39.3499,253.413)"
font-family="MS Shell Dlg 2" font-size="8.25" font-weight="400" font-style="normal" 
>
<path vector-effect="none" fill-rule="evenodd" d="M1.10938,0 L1.10938,-1.26563 C1.93229,-1.26563 2.60677,-1.33073 3.13281,-1.46094 C3.65885,-1.59115 3.92188,-1.90625 3.92188,-2.40625 L3.92188,-12.2344 C3.92188,-13.1615 3.74219,-13.7292 3.38281,-13.9375 C3.02344,-14.1458 2.31771,-14.25 1.26563,-14.25 L1.26563,-15.5156 L6.45313,-15.9063 L6.45313,-2.40625 C6.45313,-1.90625 6.68229,-1.59115 7.14063,-1.46094 C7.59896,-1.33073 8.20833,-1.26563 8.96875,-1.26563 L8.96875,0 L1.10938,0 M2.64063,-22.0938 C2.64063,-22.625 2.83854,-23.0885 3.23438,-23.4844 C3.63021,-23.8802 4.08854,-24.0781 4.60938,-24.0781 C4.94271,-24.0781 5.26823,-23.9922 5.58594,-23.8203 C5.90365,-23.6484 6.15104,-23.4036 6.32813,-23.0859 C6.50521,-22.7682 6.59375,-22.4375 6.59375,-22.0938 C6.59375,-21.5833 6.39323,-21.1276 5.99219,-20.7266 C5.59115,-20.3255 5.13021,-20.125 4.60938,-20.125 C4.08854,-20.125 3.63021,-20.3255 3.23438,-20.7266 C2.83854,-21.1276 2.64063,-21.5833 2.64063,-22.0938 "/>
</g>

<g fill="#d9d9d9" fill-opacity="1" stroke="none" transform="matrix(0,-0.75,0.75,0,39.3499,245.774)"
font-family="MS Shell Dlg 2" font-size="8.25" font-weight="400" font-style="normal" 
>
<path vector-effect="none" fill-rule="evenodd" d="M9,0.40625 C7.5625,0.40625 6.22656,0.0390625 4.99219,-0.695313 C3.75781,-1.42969 2.78385,-2.41146 2.07031,-3.64063 C1.35677,-4.86979 1,-6.21354 1,-7.67188 C1,-8.76563 1.19792,-9.82292 1.59375,-10.8438 C1.98958,-11.8646 2.55208,-12.776 3.28125,-13.5781 C4.01042,-14.3802 4.86198,-15.0078 5.83594,-15.4609 C6.8099,-15.9141 7.86458,-16.1406 9,-16.1406 C10.4792,-16.1406 11.8255,-15.75 13.0391,-14.9688 C14.2526,-14.1875 15.2109,-13.1432 15.9141,-11.8359 C16.6172,-10.5286 16.9688,-9.14063 16.9688,-7.67188 C16.9688,-6.22396 16.6094,-4.88281 15.8906,-3.64844 C15.1719,-2.41406 14.2005,-1.42969 12.9766,-0.695313 C11.7526,0.0390625 10.4271,0.40625 9,0.40625 M9,-0.671875 C10.9271,-0.671875 12.2109,-1.36719 12.8516,-2.75781 C13.4922,-4.14844 13.8125,-5.91667 13.8125,-8.0625 C13.8125,-9.27083 13.75,-10.2682 13.625,-11.0547 C13.5,-11.8411 13.2188,-12.5573 12.7813,-13.2031 C12.5104,-13.599 12.1667,-13.9479 11.75,-14.25 C11.3333,-14.5521 10.8932,-14.7813 10.4297,-14.9375 C9.96615,-15.0938 9.48958,-15.1719 9,-15.1719 C8.25,-15.1719 7.53906,-15.0026 6.86719,-14.6641 C6.19531,-14.3255 5.63542,-13.8385 5.1875,-13.2031 C4.73958,-12.526 4.45573,-11.7813 4.33594,-10.9688 C4.21615,-10.1563 4.15625,-9.1875 4.15625,-8.0625 C4.15625,-6.71875 4.27344,-5.51302 4.50781,-4.44531 C4.74219,-3.3776 5.21354,-2.48177 5.92188,-1.75781 C6.63021,-1.03385 7.65625,-0.671875 9,-0.671875 "/>
</g>

<g fill="#d9d9d9" fill-opacity="1" stroke="none" transform="matrix(0,-0.75,0.75,0,39.3499,232.024)"
font-family="MS Shell Dlg 2" font-size="8.25" font-weight="400" font-style="normal" 
>
<path vector-effect="none" fill-rule="evenodd" d="M1.07813,0 L1.07813,-1.26563 C1.89063,-1.26563 2.5625,-1.33073 3.09375,-1.46094 C3.625,-1.59115 3.89063,-1.90625 3.89063,-2.40625 L3.89063,-12.2344 C3.89063,-12.8802 3.79427,-13.3464 3.60156,-13.6328 C3.40885,-13.9193 3.13021,-14.0938 2.76563,-14.1563 C2.40104,-14.2188 1.83854,-14.25 1.07813,-14.25 L1.07813,-15.5156 L6.29688,-15.9063 L6.29688,-12.3906 C6.77604,-13.4219 7.48698,-14.2656 8.42969,-14.9219 C9.3724,-15.5781 10.401,-15.9063 11.5156,-15.9063 C13.1823,-15.9063 14.4349,-15.5078 15.2734,-14.7109 C16.112,-13.9141 16.5313,-12.6979 16.5313,-11.0625 L16.5313,-2.40625 C16.5313,-1.90625 16.7943,-1.59115 17.3203,-1.46094 C17.8464,-1.33073 18.5208,-1.26563 19.3438,-1.26563 L19.3438,0 L11.0938,0 L11.0938,-1.26563 C11.9167,-1.26563 12.5911,-1.33073 13.1172,-1.46094 C13.6432,-1.59115 13.9063,-1.90625 13.9063,-2.40625 L13.9063,-10.9531 C13.9063,-12.1198 13.737,-13.0833 13.3984,-13.8438 C13.0599,-14.6042 12.3594,-14.9844 11.2969,-14.9844 C9.91146,-14.9844 8.76823,-14.4271 7.86719,-13.3125 C6.96615,-12.1979 6.51563,-10.9323 6.51563,-9.51563 L6.51563,-2.40625 C6.51563,-1.90625 6.78125,-1.59115 7.3125,-1.46094 C7.84375,-1.33073 8.51042,-1.26563 9.3125,-1.26563 L9.3125,0 L1.07813,0"/>
</g>

<g fill="#d9d9d9" fill-opacity="1" stroke="none" transform="matrix(0,-0.75,0.75,0,39.3499,207.58)"
font-family="MS Shell Dlg 2" font-size="8.25" font-weight="400" font-style="normal" 
>
<path vector-effect="none" fill-rule="evenodd" d="M4.25,9 L4.25,-27 L9.17188,-27 L9.17188,-25.5625 L5.70313,-25.5625 L5.70313,7.5625 L9.17188,7.5625 L9.17188,9 L4.25,9"/>
</g>

<g fill="#d9d9d9" fill-opacity="1" stroke="none" transform="matrix(0,-0.75,0.75,0,39.3499,199.941)"
font-family="MS Shell Dlg 2" font-size="8.25" font-weight="400" font-style="normal" 
>
<path vector-effect="none" fill-rule="evenodd" d="M1.07813,0 L1.07813,-1.26563 C1.89063,-1.26563 2.5625,-1.33073 3.09375,-1.46094 C3.625,-1.59115 3.89063,-1.90625 3.89063,-2.40625 L3.89063,-12.2344 C3.89063,-12.8802 3.79427,-13.3464 3.60156,-13.6328 C3.40885,-13.9193 3.13021,-14.0938 2.76563,-14.1563 C2.40104,-14.2188 1.83854,-14.25 1.07813,-14.25 L1.07813,-15.5156 L6.29688,-15.9063 L6.29688,-12.3906 C6.77604,-13.4219 7.48698,-14.2656 8.42969,-14.9219 C9.3724,-15.5781 10.401,-15.9063 11.5156,-15.9063 C14.276,-15.9063 15.901,-14.7813 16.3906,-12.5313 C16.8698,-13.5417 17.5703,-14.3568 18.4922,-14.9766 C19.4141,-15.5964 20.4271,-15.9063 21.5313,-15.9063 C22.625,-15.9063 23.5443,-15.7318 24.2891,-15.3828 C25.0339,-15.0339 25.5938,-14.4974 25.9688,-13.7734 C26.3438,-13.0495 26.5313,-12.1458 26.5313,-11.0625 L26.5313,-2.40625 C26.5313,-1.90625 26.7969,-1.59115 27.3281,-1.46094 C27.8594,-1.33073 28.5313,-1.26563 29.3438,-1.26563 L29.3438,0 L21.0938,0 L21.0938,-1.26563 C21.9167,-1.26563 22.5911,-1.33073 23.1172,-1.46094 C23.6432,-1.59115 23.9063,-1.90625 23.9063,-2.40625 L23.9063,-10.9531 C23.9063,-12.1615 23.737,-13.1354 23.3984,-13.875 C23.0599,-14.6146 22.3646,-14.9844 21.3125,-14.9844 C19.9271,-14.9844 18.7839,-14.4271 17.8828,-13.3125 C16.9818,-12.1979 16.5313,-10.9323 16.5313,-9.51563 L16.5313,-2.40625 C16.5313,-1.90625 16.7943,-1.59115 17.3203,-1.46094 C17.8464,-1.33073 18.5208,-1.26563 19.3438,-1.26563 L19.3438,0 L11.0938,0 L11.0938,-1.26563 C11.9167,-1.26563 12.5911,-1.33073 13.1172,-1.46094 C13.6432,-1.59115 13.9063,-1.90625 13.9063,-2.40625 L13.9063,-10.9531 C13.9063,-12.1198 13.737,-13.0833 13.3984,-13.8438 C13.0599,-14.6042 12.3594,-14.9844 11.2969,-14.9844 C9.91146,-14.9844 8.76823,-14.4271 7.86719,-13.3125 C6.96615,-12.1979 6.51563,-10.9323 6.51563,-9.51563 L6.51563,-2.40625 C6.51563,-1.90625 6.78125,-1.59115 7.3125,-1.46094 C7.84375,-1.33073 8.51042,-1.26563 9.3125,-1.26563 L9.3125,0 L1.07813,0"/>
</g>

<g fill="#d9d9d9" fill-opacity="1" stroke="none" transform="matrix(0,-0.75,0.75,0,39.3499,177.024)"
font-family="MS Shell Dlg 2" font-size="8.25" font-weight="400" font-style="normal" 
>
<path vector-effect="none" fill-rule="evenodd" d="M9,0.40625 C7.5625,0.40625 6.22656,0.0390625 4.99219,-0.695313 C3.75781,-1.42969 2.78385,-2.41146 2.07031,-3.64063 C1.35677,-4.86979 1,-6.21354 1,-7.67188 C1,-8.76563 1.19792,-9.82292 1.59375,-10.8438 C1.98958,-11.8646 2.55208,-12.776 3.28125,-13.5781 C4.01042,-14.3802 4.86198,-15.0078 5.83594,-15.4609 C6.8099,-15.9141 7.86458,-16.1406 9,-16.1406 C10.4792,-16.1406 11.8255,-15.75 13.0391,-14.9688 C14.2526,-14.1875 15.2109,-13.1432 15.9141,-11.8359 C16.6172,-10.5286 16.9688,-9.14063 16.9688,-7.67188 C16.9688,-6.22396 16.6094,-4.88281 15.8906,-3.64844 C15.1719,-2.41406 14.2005,-1.42969 12.9766,-0.695313 C11.7526,0.0390625 10.4271,0.40625 9,0.40625 M9,-0.671875 C10.9271,-0.671875 12.2109,-1.36719 12.8516,-2.75781 C13.4922,-4.14844 13.8125,-5.91667 13.8125,-8.0625 C13.8125,-9.27083 13.75,-10.2682 13.625,-11.0547 C13.5,-11.8411 13.2188,-12.5573 12.7813,-13.2031 C12.5104,-13.599 12.1667,-13.9479 11.75,-14.25 C11.3333,-14.5521 10.8932,-14.7813 10.4297,-14.9375 C9.96615,-15.0938 9.48958,-15.1719 9,-15.1719 C8.25,-15.1719 7.53906,-15.0026 6.86719,-14.6641 C6.19531,-14.3255 5.63542,-13.8385 5.1875,-13.2031 C4.73958,-12.526 4.45573,-11.7813 4.33594,-10.9688 C4.21615,-10.1563 4.15625,-9.1875 4.15625,-8.0625 C4.15625,-6.71875 4.27344,-5.51302 4.50781,-4.44531 C4.74219,-3.3776 5.21354,-2.48177 5.92188,-1.75781 C6.63021,-1.03385 7.65625,-0.671875 9,-0.671875 "/>
</g>

<g fill="#d9d9d9" fill-opacity="1" stroke="none" transform="matrix(0,-0.75,0.75,0,39.3499,163.274)"
font-family="MS Shell Dlg 2" font-size="8.25" font-weight="400" font-style="normal" 
>
<path vector-effect="none" fill-rule="evenodd" d="M1.10938,0 L1.10938,-1.26563 C1.93229,-1.26563 2.60677,-1.33073 3.13281,-1.46094 C3.65885,-1.59115 3.92188,-1.90625 3.92188,-2.40625 L3.92188,-21.3125 C3.92188,-21.9479 3.82552,-22.4115 3.63281,-22.7031 C3.4401,-22.9948 3.16146,-23.1719 2.79688,-23.2344 C2.43229,-23.2969 1.86979,-23.3281 1.10938,-23.3281 L1.10938,-24.5938 L6.45313,-24.9844 L6.45313,-2.40625 C6.45313,-1.90625 6.71615,-1.59115 7.24219,-1.46094 C7.76823,-1.33073 8.4375,-1.26563 9.25,-1.26563 L9.25,0 L1.10938,0"/>
</g>

<g fill="#d9d9d9" fill-opacity="1" stroke="none" transform="matrix(0,-0.75,0.75,0,39.3499,155.635)"
font-family="MS Shell Dlg 2" font-size="8.25" font-weight="400" font-style="normal" 
>
<path vector-effect="none" fill-rule="evenodd" d="M2.01563,8.28125 C2.01563,8.20833 2.03125,8.16146 2.0625,8.14063 L14.5781,-26.5625 C14.6198,-26.6979 14.7005,-26.8047 14.8203,-26.8828 C14.9401,-26.9609 15.0729,-27 15.2188,-27 C15.4375,-27 15.612,-26.9349 15.7422,-26.8047 C15.8724,-26.6745 15.9375,-26.5 15.9375,-26.2813 L15.9375,-26.1406 L3.42188,8.5625 C3.28646,8.85417 3.0625,9 2.75,9 C2.54167,9 2.36719,8.92969 2.22656,8.78906 C2.08594,8.64844 2.01563,8.47917 2.01563,8.28125 "/>
</g>

<g fill="#d9d9d9" fill-opacity="1" stroke="none" transform="matrix(0,-0.75,0.75,0,39.3499,141.885)"
font-family="MS Shell Dlg 2" font-size="8.25" font-weight="400" font-style="normal" 
>
<path vector-effect="none" fill-rule="evenodd" d="M1.07813,0 L1.07813,-1.26563 C1.89063,-1.26563 2.5625,-1.33073 3.09375,-1.46094 C3.625,-1.59115 3.89063,-1.90625 3.89063,-2.40625 L3.89063,-12.2344 C3.89063,-12.8802 3.79427,-13.3464 3.60156,-13.6328 C3.40885,-13.9193 3.13021,-14.0938 2.76563,-14.1563 C2.40104,-14.2188 1.83854,-14.25 1.07813,-14.25 L1.07813,-15.5156 L6.29688,-15.9063 L6.29688,-12.3906 C6.77604,-13.4219 7.48698,-14.2656 8.42969,-14.9219 C9.3724,-15.5781 10.401,-15.9063 11.5156,-15.9063 C14.276,-15.9063 15.901,-14.7813 16.3906,-12.5313 C16.8698,-13.5417 17.5703,-14.3568 18.4922,-14.9766 C19.4141,-15.5964 20.4271,-15.9063 21.5313,-15.9063 C22.625,-15.9063 23.5443,-15.7318 24.2891,-15.3828 C25.0339,-15.0339 25.5938,-14.4974 25.9688,-13.7734 C26.3438,-13.0495 26.5313,-12.1458 26.5313,-11.0625 L26.5313,-2.40625 C26.5313,-1.90625 26.7969,-1.59115 27.3281,-1.46094 C27.8594,-1.33073 28.5313,-1.26563 29.3438,-1.26563 L29.3438,0 L21.0938,0 L21.0938,-1.26563 C21.9167,-1.26563 22.5911,-1.33073 23.1172,-1.46094 C23.6432,-1.59115 23.9063,-1.90625 23.9063,-2.40625 L23.9063,-10.9531 C23.9063,-12.1615 23.737,-13.1354 23.3984,-13.875 C23.0599,-14.6146 22.3646,-14.9844 21.3125,-14.9844 C19.9271,-14.9844 18.7839,-14.4271 17.8828,-13.3125 C16.9818,-12.1979 16.5313,-10.9323 16.5313,-9.51563 L16.5313,-2.40625 C16.5313,-1.90625 16.7943,-1.59115 17.3203,-1.46094 C17.8464,-1.33073 18.5208,-1.26563 19.3438,-1.26563 L19.3438,0 L11.0938,0 L11.0938,-1.26563 C11.9167,-1.26563 12.5911,-1.33073 13.1172,-1.46094 C13.6432,-1.59115 13.9063,-1.90625 13.9063,-2.40625 L13.9063,-10.9531 C13.9063,-12.1198 13.737,-13.0833 13.3984,-13.8438 C13.0599,-14.6042 12.3594,-14.9844 11.2969,-14.9844 C9.91146,-14.9844 8.76823,-14.4271 7.86719,-13.3125 C6.96615,-12.1979 6.51563,-10.9323 6.51563,-9.51563 L6.51563,-2.40625 C6.51563,-1.90625 6.78125,-1.59115 7.3125,-1.46094 C7.84375,-1.33073 8.51042,-1.26563 9.3125,-1.26563 L9.3125,0 L1.07813,0"/>
</g>

<g fill="#d9d9d9" fill-opacity="1" stroke="none" transform="matrix(0,-0.75,0.75,0,29.3704,118.968)"
font-family="MS Shell Dlg 2" font-size="8.25" font-weight="400" font-style="normal" 
>
<path vector-effect="none" fill-rule="evenodd" d="M2.375,-1.9375 C2.77083,-1.375 3.29688,-0.953125 3.95313,-0.671875 C4.60938,-0.390625 5.31771,-0.25 6.07813,-0.25 C7.04688,-0.25 7.73438,-0.664063 8.14063,-1.49219 C8.54688,-2.32031 8.75,-3.26042 8.75,-4.3125 C8.75,-4.78125 8.70833,-5.2526 8.625,-5.72656 C8.54167,-6.20052 8.39844,-6.64063 8.19531,-7.04688 C7.99219,-7.45313 7.71354,-7.77865 7.35938,-8.02344 C7.00521,-8.26823 6.57292,-8.39063 6.0625,-8.39063 L4.39063,-8.39063 C4.24479,-8.39063 4.17188,-8.46354 4.17188,-8.60938 L4.17188,-8.82813 C4.17188,-8.95313 4.24479,-9.01563 4.39063,-9.01563 L5.78125,-9.125 C6.36458,-9.125 6.84896,-9.34635 7.23438,-9.78906 C7.61979,-10.2318 7.90104,-10.7682 8.07813,-11.3984 C8.25521,-12.0286 8.34375,-12.6302 8.34375,-13.2031 C8.34375,-13.9948 8.15885,-14.6484 7.78906,-15.1641 C7.41927,-15.6797 6.84896,-15.9375 6.07813,-15.9375 C5.44271,-15.9375 4.83594,-15.8151 4.25781,-15.5703 C3.67969,-15.3255 3.21875,-14.9635 2.875,-14.4844 C2.91667,-14.4844 2.94792,-14.487 2.96875,-14.4922 C2.98958,-14.4974 3.01563,-14.5 3.04688,-14.5 C3.42188,-14.5 3.73698,-14.3698 3.99219,-14.1094 C4.2474,-13.849 4.375,-13.5365 4.375,-13.1719 C4.375,-12.8177 4.2474,-12.5104 3.99219,-12.25 C3.73698,-11.9896 3.42188,-11.8594 3.04688,-11.8594 C2.68229,-11.8594 2.36979,-11.9896 2.10938,-12.25 C1.84896,-12.5104 1.71875,-12.8177 1.71875,-13.1719 C1.71875,-13.8906 1.9349,-14.513 2.36719,-15.0391 C2.79948,-15.5651 3.35417,-15.9661 4.03125,-16.2422 C4.70833,-16.5182 5.39063,-16.6563 6.07813,-16.6563 C6.58854,-16.6563 7.1224,-16.5807 7.67969,-16.4297 C8.23698,-16.2786 8.74479,-16.0625 9.20313,-15.7813 C9.66146,-15.5 10.0339,-15.1406 10.3203,-14.7031 C10.6068,-14.2656 10.75,-13.7656 10.75,-13.2031 C10.75,-12.5052 10.5938,-11.8594 10.2813,-11.2656 C9.96875,-10.6719 9.53906,-10.1589 8.99219,-9.72656 C8.44531,-9.29427 7.84896,-8.97396 7.20313,-8.76563 C7.92188,-8.61979 8.60677,-8.34375 9.25781,-7.9375 C9.90885,-7.53125 10.4323,-7.01042 10.8281,-6.375 C11.224,-5.73958 11.4219,-5.05729 11.4219,-4.32813 C11.4219,-3.40104 11.1693,-2.5651 10.6641,-1.82031 C10.1589,-1.07552 9.4974,-0.494792 8.67969,-0.078125 C7.86198,0.338542 6.99479,0.546875 6.07813,0.546875 C5.29688,0.546875 4.51302,0.398438 3.72656,0.101563 C2.9401,-0.195313 2.29688,-0.640625 1.79688,-1.23438 C1.29688,-1.82813 1.04688,-2.54167 1.04688,-3.375 C1.04688,-3.79167 1.1849,-4.13802 1.46094,-4.41406 C1.73698,-4.6901 2.08333,-4.82813 2.5,-4.82813 C2.77083,-4.82813 3.01823,-4.76563 3.24219,-4.64063 C3.46615,-4.51563 3.64063,-4.33854 3.76563,-4.10938 C3.89063,-3.88021 3.95313,-3.63542 3.95313,-3.375 C3.95313,-2.96875 3.8099,-2.6276 3.52344,-2.35156 C3.23698,-2.07552 2.89583,-1.9375 2.5,-1.9375 L2.375,-1.9375"/>
</g>

<g fill="#d9d9d9" fill-opacity="1" stroke="none" transform="matrix(0,-0.75,0.75,0,39.3499,107.968)"
font-family="MS Shell Dlg 2" font-size="8.25" font-weight="400" font-style="normal" 
>
<path vector-effect="none" fill-rule="evenodd" d="M0.796875,9 L0.796875,7.5625 L4.29688,7.5625 L4.29688,-25.5625 L0.796875,-25.5625 L0.796875,-27 L5.73438,-27 L5.73438,9 L0.796875,9"/>
</g>

<g fill="#d9d9d9" fill-opacity="1" stroke="#d9d9d9" stroke-opacity="1" stroke-width="0.666667" stroke-linecap="square" stroke-linejoin="round" transform="matrix(0.75,0,0,0.75,0,0)"
font-family="MS Shell Dlg 2" font-size="8.25" font-weight="400" font-style="normal" 
>
<polyline fill="none" vector-effect="none" points="168,627 168,27 " />
<polyline fill="none" vector-effect="none" points="1000,627 1000,27 " />
<polyline fill="none" vector-effect="none" points="168,627 176.32,627 " />
<polyline fill="none" vector-effect="none" points="991.68,627 1000,627 " />
<polyline fill="none" vector-effect="none" points="168,512.762 176.32,512.762 " />
<polyline fill="none" vector-effect="none" points="991.68,512.762 1000,512.762 " />
<polyline fill="none" vector-effect="none" points="168,398.523 176.32,398.523 " />
<polyline fill="none" vector-effect="none" points="991.68,398.523 1000,398.523 " />
<polyline fill="none" vector-effect="none" points="168,284.285 176.32,284.285 " />
<polyline fill="none" vector-effect="none" points="991.68,284.285 1000,284.285 " />
<polyline fill="none" vector-effect="none" points="168,170.047 176.32,170.047 " />
<polyline fill="none" vector-effect="none" points="991.68,170.047 1000,170.047 " />
<polyline fill="none" vector-effect="none" points="168,55.8085 176.32,55.8085 " />
<polyline fill="none" vector-effect="none" points="991.68,55.8085 1000,55.8085 " />
</g>

<g fill="#d9d9d9" fill-opacity="1" stroke="none" transform="matrix(0.75,0,0,0.75,105.5,478.875)"
font-family="MS Shell Dlg 2" font-size="8.25" font-weight="400" font-style="normal" 
>
<path vector-effect="none" fill-rule="evenodd" d="M1.375,-11.6563 C1.375,-14.4479 1.66146,-16.6953 2.23438,-18.3984 C2.80729,-20.1016 3.66146,-21.4141 4.79688,-22.3359 C5.93229,-23.2578 7.35938,-23.7188 9.07813,-23.7188 C10.3385,-23.7188 11.4479,-23.4635 12.4063,-22.9531 C13.3646,-22.4427 14.1536,-21.7057 14.7734,-20.7422 C15.3932,-19.7786 15.8828,-18.6068 16.2422,-17.2266 C16.6016,-15.8464 16.7813,-13.9896 16.7813,-11.6563 C16.7813,-8.88542 16.4948,-6.64844 15.9219,-4.94531 C15.349,-3.24219 14.4974,-1.92448 13.3672,-0.992188 C12.237,-0.0598958 10.8073,0.40625 9.07813,0.40625 C6.79688,0.40625 5.00521,-0.411458 3.70313,-2.04688 C2.15104,-4.01563 1.375,-7.21875 1.375,-11.6563 M4.34375,-11.6563 C4.34375,-7.77083 4.79948,-5.1875 5.71094,-3.90625 C6.6224,-2.625 7.74479,-1.98438 9.07813,-1.98438 C10.401,-1.98438 11.5182,-2.6276 12.4297,-3.91406 C13.3411,-5.20052 13.7969,-7.78125 13.7969,-11.6563 C13.7969,-15.5417 13.3411,-18.1224 12.4297,-19.3984 C11.5182,-20.6745 10.3906,-21.3125 9.04688,-21.3125 C7.71354,-21.3125 6.64583,-20.75 5.84375,-19.625 C4.84375,-18.1875 4.34375,-15.5313 4.34375,-11.6563 "/>
</g>

<g fill="#d9d9d9" fill-opacity="1" stroke="none" transform="matrix(0.75,0,0,0.75,71.75,393.196)"
font-family="MS Shell Dlg 2" font-size="8.25" font-weight="400" font-style="normal" 
>
<path vector-effect="none" fill-rule="evenodd" d="M1.375,-11.6563 C1.375,-14.4479 1.66146,-16.6953 2.23438,-18.3984 C2.80729,-20.1016 3.66146,-21.4141 4.79688,-22.3359 C5.93229,-23.2578 7.35938,-23.7188 9.07813,-23.7188 C10.3385,-23.7188 11.4479,-23.4635 12.4063,-22.9531 C13.3646,-22.4427 14.1536,-21.7057 14.7734,-20.7422 C15.3932,-19.7786 15.8828,-18.6068 16.2422,-17.2266 C16.6016,-15.8464 16.7813,-13.9896 16.7813,-11.6563 C16.7813,-8.88542 16.4948,-6.64844 15.9219,-4.94531 C15.349,-3.24219 14.4974,-1.92448 13.3672,-0.992188 C12.237,-0.0598958 10.8073,0.40625 9.07813,0.40625 C6.79688,0.40625 5.00521,-0.411458 3.70313,-2.04688 C2.15104,-4.01563 1.375,-7.21875 1.375,-11.6563 M4.34375,-11.6563 C4.34375,-7.77083 4.79948,-5.1875 5.71094,-3.90625 C6.6224,-2.625 7.74479,-1.98438 9.07813,-1.98438 C10.401,-1.98438 11.5182,-2.6276 12.4297,-3.91406 C13.3411,-5.20052 13.7969,-7.78125 13.7969,-11.6563 C13.7969,-15.5417 13.3411,-18.1224 12.4297,-19.3984 C11.5182,-20.6745 10.3906,-21.3125 9.04688,-21.3125 C7.71354,-21.3125 6.64583,-20.75 5.84375,-19.625 C4.84375,-18.1875 4.34375,-15.5313 4.34375,-11.6563 M21,0 L21,-3.29688 L24.2969,-3.29688 L24.2969,0 L21,0 M28.375,-11.6563 C28.375,-14.4479 28.6615,-16.6953 29.2344,-18.3984 C29.8073,-20.1016 30.6615,-21.4141 31.7969,-22.3359 C32.9323,-23.2578 34.3594,-23.7188 36.0781,-23.7188 C37.3385,-23.7188 38.4479,-23.4635 39.4063,-22.9531 C40.3646,-22.4427 41.1536,-21.7057 41.7734,-20.7422 C42.3932,-19.7786 42.8828,-18.6068 43.2422,-17.2266 C43.6016,-15.8464 43.7813,-13.9896 43.7813,-11.6563 C43.7813,-8.88542 43.4948,-6.64844 42.9219,-4.94531 C42.349,-3.24219 41.4974,-1.92448 40.3672,-0.992188 C39.237,-0.0598958 37.8073,0.40625 36.0781,0.40625 C33.7969,0.40625 32.0052,-0.411458 30.7031,-2.04688 C29.151,-4.01563 28.375,-7.21875 28.375,-11.6563 M31.3438,-11.6563 C31.3438,-7.77083 31.7995,-5.1875 32.7109,-3.90625 C33.6224,-2.625 34.7448,-1.98438 36.0781,-1.98438 C37.401,-1.98438 38.5182,-2.6276 39.4297,-3.91406 C40.3411,-5.20052 40.7969,-7.78125 40.7969,-11.6563 C40.7969,-15.5417 40.3411,-18.1224 39.4297,-19.3984 C38.5182,-20.6745 37.3906,-21.3125 36.0469,-21.3125 C34.7135,-21.3125 33.6458,-20.75 32.8438,-19.625 C31.8438,-18.1875 31.3438,-15.5313 31.3438,-11.6563 M61.6094,-2.78125 L61.6094,0 L46,0 C45.9792,-0.697917 46.0938,-1.36979 46.3438,-2.01563 C46.7396,-3.07813 47.375,-4.125 48.25,-5.15625 C49.125,-6.1875 50.3906,-7.38021 52.0469,-8.73438 C54.6094,-10.8385 56.3411,-12.5052 57.2422,-13.7344 C58.1432,-14.9635 58.5938,-16.125 58.5938,-17.2188 C58.5938,-18.375 58.1849,-19.3464 57.3672,-20.1328 C56.5495,-20.9193 55.4792,-21.3125 54.1563,-21.3125 C52.7604,-21.3125 51.6432,-20.8932 50.8047,-20.0547 C49.9661,-19.2161 49.5417,-18.0573 49.5313,-16.5781 L46.5469,-16.8906 C46.7552,-19.1094 47.5234,-20.8021 48.8516,-21.9688 C50.1797,-23.1354 51.9688,-23.7188 54.2188,-23.7188 C56.4792,-23.7188 58.2708,-23.0911 59.5938,-21.8359 C60.9167,-20.5807 61.5781,-19.0208 61.5781,-17.1563 C61.5781,-16.2188 61.3854,-15.2917 61,-14.375 C60.6146,-13.4583 59.974,-12.4948 59.0781,-11.4844 C58.1823,-10.474 56.6927,-9.08854 54.6094,-7.32813 C52.8698,-5.86979 51.7526,-4.88021 51.2578,-4.35938 C50.763,-3.83854 50.3542,-3.3125 50.0313,-2.78125 L61.6094,-2.78125"/>
</g>

<g fill="#d9d9d9" fill-opacity="1" stroke="none" transform="matrix(0.75,0,0,0.75,71.75,307.518)"
font-family="MS Shell Dlg 2" font-size="8.25" font-weight="400" font-style="normal" 
>
<path vector-effect="none" fill-rule="evenodd" d="M1.375,-11.6563 C1.375,-14.4479 1.66146,-16.6953 2.23438,-18.3984 C2.80729,-20.1016 3.66146,-21.4141 4.79688,-22.3359 C5.93229,-23.2578 7.35938,-23.7188 9.07813,-23.7188 C10.3385,-23.7188 11.4479,-23.4635 12.4063,-22.9531 C13.3646,-22.4427 14.1536,-21.7057 14.7734,-20.7422 C15.3932,-19.7786 15.8828,-18.6068 16.2422,-17.2266 C16.6016,-15.8464 16.7813,-13.9896 16.7813,-11.6563 C16.7813,-8.88542 16.4948,-6.64844 15.9219,-4.94531 C15.349,-3.24219 14.4974,-1.92448 13.3672,-0.992188 C12.237,-0.0598958 10.8073,0.40625 9.07813,0.40625 C6.79688,0.40625 5.00521,-0.411458 3.70313,-2.04688 C2.15104,-4.01563 1.375,-7.21875 1.375,-11.6563 M4.34375,-11.6563 C4.34375,-7.77083 4.79948,-5.1875 5.71094,-3.90625 C6.6224,-2.625 7.74479,-1.98438 9.07813,-1.98438 C10.401,-1.98438 11.5182,-2.6276 12.4297,-3.91406 C13.3411,-5.20052 13.7969,-7.78125 13.7969,-11.6563 C13.7969,-15.5417 13.3411,-18.1224 12.4297,-19.3984 C11.5182,-20.6745 10.3906,-21.3125 9.04688,-21.3125 C7.71354,-21.3125 6.64583,-20.75 5.84375,-19.625 C4.84375,-18.1875 4.34375,-15.5313 4.34375,-11.6563 M21,0 L21,-3.29688 L24.2969,-3.29688 L24.2969,0 L21,0 M28.375,-11.6563 C28.375,-14.4479 28.6615,-16.6953 29.2344,-18.3984 C29.8073,-20.1016 30.6615,-21.4141 31.7969,-22.3359 C32.9323,-23.2578 34.3594,-23.7188 36.0781,-23.7188 C37.3385,-23.7188 38.4479,-23.4635 39.4063,-22.9531 C40.3646,-22.4427 41.1536,-21.7057 41.7734,-20.7422 C42.3932,-19.7786 42.8828,-18.6068 43.2422,-17.2266 C43.6016,-15.8464 43.7813,-13.9896 43.7813,-11.6563 C43.7813,-8.88542 43.4948,-6.64844 42.9219,-4.94531 C42.349,-3.24219 41.4974,-1.92448 40.3672,-0.992188 C39.237,-0.0598958 37.8073,0.40625 36.0781,0.40625 C33.7969,0.40625 32.0052,-0.411458 30.7031,-2.04688 C29.151,-4.01563 28.375,-7.21875 28.375,-11.6563 M31.3438,-11.6563 C31.3438,-7.77083 31.7995,-5.1875 32.7109,-3.90625 C33.6224,-2.625 34.7448,-1.98438 36.0781,-1.98438 C37.401,-1.98438 38.5182,-2.6276 39.4297,-3.91406 C40.3411,-5.20052 40.7969,-7.78125 40.7969,-11.6563 C40.7969,-15.5417 40.3411,-18.1224 39.4297,-19.3984 C38.5182,-20.6745 37.3906,-21.3125 36.0469,-21.3125 C34.7135,-21.3125 33.6458,-20.75 32.8438,-19.625 C31.8438,-18.1875 31.3438,-15.5313 31.3438,-11.6563 M55.6719,0 L55.6719,-5.65625 L45.4219,-5.65625 L45.4219,-8.3125 L56.2031,-23.625 L58.5625,-23.625 L58.5625,-8.3125 L61.7656,-8.3125 L61.7656,-5.65625 L58.5625,-5.65625 L58.5625,0 L55.6719,0 M55.6719,-8.3125 L55.6719,-18.9688 L48.2656,-8.3125 L55.6719,-8.3125"/>
</g>

<g fill="#d9d9d9" fill-opacity="1" stroke="none" transform="matrix(0.75,0,0,0.75,71.75,221.839)"
font-family="MS Shell Dlg 2" font-size="8.25" font-weight="400" font-style="normal" 
>
<path vector-effect="none" fill-rule="evenodd" d="M1.375,-11.6563 C1.375,-14.4479 1.66146,-16.6953 2.23438,-18.3984 C2.80729,-20.1016 3.66146,-21.4141 4.79688,-22.3359 C5.93229,-23.2578 7.35938,-23.7188 9.07813,-23.7188 C10.3385,-23.7188 11.4479,-23.4635 12.4063,-22.9531 C13.3646,-22.4427 14.1536,-21.7057 14.7734,-20.7422 C15.3932,-19.7786 15.8828,-18.6068 16.2422,-17.2266 C16.6016,-15.8464 16.7813,-13.9896 16.7813,-11.6563 C16.7813,-8.88542 16.4948,-6.64844 15.9219,-4.94531 C15.349,-3.24219 14.4974,-1.92448 13.3672,-0.992188 C12.237,-0.0598958 10.8073,0.40625 9.07813,0.40625 C6.79688,0.40625 5.00521,-0.411458 3.70313,-2.04688 C2.15104,-4.01563 1.375,-7.21875 1.375,-11.6563 M4.34375,-11.6563 C4.34375,-7.77083 4.79948,-5.1875 5.71094,-3.90625 C6.6224,-2.625 7.74479,-1.98438 9.07813,-1.98438 C10.401,-1.98438 11.5182,-2.6276 12.4297,-3.91406 C13.3411,-5.20052 13.7969,-7.78125 13.7969,-11.6563 C13.7969,-15.5417 13.3411,-18.1224 12.4297,-19.3984 C11.5182,-20.6745 10.3906,-21.3125 9.04688,-21.3125 C7.71354,-21.3125 6.64583,-20.75 5.84375,-19.625 C4.84375,-18.1875 4.34375,-15.5313 4.34375,-11.6563 M21,0 L21,-3.29688 L24.2969,-3.29688 L24.2969,0 L21,0 M28.375,-11.6563 C28.375,-14.4479 28.6615,-16.6953 29.2344,-18.3984 C29.8073,-20.1016 30.6615,-21.4141 31.7969,-22.3359 C32.9323,-23.2578 34.3594,-23.7188 36.0781,-23.7188 C37.3385,-23.7188 38.4479,-23.4635 39.4063,-22.9531 C40.3646,-22.4427 41.1536,-21.7057 41.7734,-20.7422 C42.3932,-19.7786 42.8828,-18.6068 43.2422,-17.2266 C43.6016,-15.8464 43.7813,-13.9896 43.7813,-11.6563 C43.7813,-8.88542 43.4948,-6.64844 42.9219,-4.94531 C42.349,-3.24219 41.4974,-1.92448 40.3672,-0.992188 C39.237,-0.0598958 37.8073,0.40625 36.0781,0.40625 C33.7969,0.40625 32.0052,-0.411458 30.7031,-2.04688 C29.151,-4.01563 28.375,-7.21875 28.375,-11.6563 M31.3438,-11.6563 C31.3438,-7.77083 31.7995,-5.1875 32.7109,-3.90625 C33.6224,-2.625 34.7448,-1.98438 36.0781,-1.98438 C37.401,-1.98438 38.5182,-2.6276 39.4297,-3.91406 C40.3411,-5.20052 40.7969,-7.78125 40.7969,-11.6563 C40.7969,-15.5417 40.3411,-18.1224 39.4297,-19.3984 C38.5182,-20.6745 37.3906,-21.3125 36.0469,-21.3125 C34.7135,-21.3125 33.6458,-20.75 32.8438,-19.625 C31.8438,-18.1875 31.3438,-15.5313 31.3438,-11.6563 M61.4219,-17.8438 L58.5313,-17.6094 C58.2813,-18.7448 57.9167,-19.5729 57.4375,-20.0938 C56.6563,-20.9167 55.6927,-21.3281 54.5469,-21.3281 C53.6198,-21.3281 52.8073,-21.0729 52.1094,-20.5625 C51.1927,-19.8958 50.4714,-18.9245 49.9453,-17.6484 C49.4193,-16.3724 49.1458,-14.5521 49.125,-12.1875 C49.8229,-13.25 50.6771,-14.0391 51.6875,-14.5547 C52.6979,-15.0703 53.7552,-15.3281 54.8594,-15.3281 C56.7969,-15.3281 58.4453,-14.6146 59.8047,-13.1875 C61.1641,-11.7604 61.8438,-9.92188 61.8438,-7.67188 C61.8438,-6.19271 61.5234,-4.8151 60.8828,-3.53906 C60.2422,-2.26302 59.362,-1.28646 58.2422,-0.609375 C57.1224,0.0677083 55.8542,0.40625 54.4375,0.40625 C52.0208,0.40625 50.0495,-0.484375 48.5234,-2.26563 C46.9974,-4.04688 46.2344,-6.97396 46.2344,-11.0469 C46.2344,-15.6198 47.0781,-18.9427 48.7656,-21.0156 C50.2448,-22.8177 52.2292,-23.7188 54.7188,-23.7188 C56.5729,-23.7188 58.0938,-23.1979 59.2813,-22.1563 C60.4688,-21.1146 61.1823,-19.6771 61.4219,-17.8438 M49.5781,-7.65625 C49.5781,-6.65625 49.7891,-5.70052 50.2109,-4.78906 C50.6328,-3.8776 51.2266,-3.18229 51.9922,-2.70313 C52.7578,-2.22396 53.5573,-1.98438 54.3906,-1.98438 C55.6198,-1.98438 56.6745,-2.47917 57.5547,-3.46875 C58.4349,-4.45833 58.875,-5.80208 58.875,-7.5 C58.875,-9.125 58.4401,-10.4089 57.5703,-11.3516 C56.7005,-12.2943 55.6042,-12.7656 54.2813,-12.7656 C52.9688,-12.7656 51.8568,-12.2943 50.9453,-11.3516 C50.0339,-10.4089 49.5781,-9.17708 49.5781,-7.65625 "/>
</g>

<g fill="#d9d9d9" fill-opacity="1" stroke="none" transform="matrix(0.75,0,0,0.75,71.75,136.16)"
font-family="MS Shell Dlg 2" font-size="8.25" font-weight="400" font-style="normal" 
>
<path vector-effect="none" fill-rule="evenodd" d="M1.375,-11.6563 C1.375,-14.4479 1.66146,-16.6953 2.23438,-18.3984 C2.80729,-20.1016 3.66146,-21.4141 4.79688,-22.3359 C5.93229,-23.2578 7.35938,-23.7188 9.07813,-23.7188 C10.3385,-23.7188 11.4479,-23.4635 12.4063,-22.9531 C13.3646,-22.4427 14.1536,-21.7057 14.7734,-20.7422 C15.3932,-19.7786 15.8828,-18.6068 16.2422,-17.2266 C16.6016,-15.8464 16.7813,-13.9896 16.7813,-11.6563 C16.7813,-8.88542 16.4948,-6.64844 15.9219,-4.94531 C15.349,-3.24219 14.4974,-1.92448 13.3672,-0.992188 C12.237,-0.0598958 10.8073,0.40625 9.07813,0.40625 C6.79688,0.40625 5.00521,-0.411458 3.70313,-2.04688 C2.15104,-4.01563 1.375,-7.21875 1.375,-11.6563 M4.34375,-11.6563 C4.34375,-7.77083 4.79948,-5.1875 5.71094,-3.90625 C6.6224,-2.625 7.74479,-1.98438 9.07813,-1.98438 C10.401,-1.98438 11.5182,-2.6276 12.4297,-3.91406 C13.3411,-5.20052 13.7969,-7.78125 13.7969,-11.6563 C13.7969,-15.5417 13.3411,-18.1224 12.4297,-19.3984 C11.5182,-20.6745 10.3906,-21.3125 9.04688,-21.3125 C7.71354,-21.3125 6.64583,-20.75 5.84375,-19.625 C4.84375,-18.1875 4.34375,-15.5313 4.34375,-11.6563 M21,0 L21,-3.29688 L24.2969,-3.29688 L24.2969,0 L21,0 M28.375,-11.6563 C28.375,-14.4479 28.6615,-16.6953 29.2344,-18.3984 C29.8073,-20.1016 30.6615,-21.4141 31.7969,-22.3359 C32.9323,-23.2578 34.3594,-23.7188 36.0781,-23.7188 C37.3385,-23.7188 38.4479,-23.4635 39.4063,-22.9531 C40.3646,-22.4427 41.1536,-21.7057 41.7734,-20.7422 C42.3932,-19.7786 42.8828,-18.6068 43.2422,-17.2266 C43.6016,-15.8464 43.7813,-13.9896 43.7813,-11.6563 C43.7813,-8.88542 43.4948,-6.64844 42.9219,-4.94531 C42.349,-3.24219 41.4974,-1.92448 40.3672,-0.992188 C39.237,-0.0598958 37.8073,0.40625 36.0781,0.40625 C33.7969,0.40625 32.0052,-0.411458 30.7031,-2.04688 C29.151,-4.01563 28.375,-7.21875 28.375,-11.6563 M31.3438,-11.6563 C31.3438,-7.77083 31.7995,-5.1875 32.7109,-3.90625 C33.6224,-2.625 34.7448,-1.98438 36.0781,-1.98438 C37.401,-1.98438 38.5182,-2.6276 39.4297,-3.91406 C40.3411,-5.20052 40.7969,-7.78125 40.7969,-11.6563 C40.7969,-15.5417 40.3411,-18.1224 39.4297,-19.3984 C38.5182,-20.6745 37.3906,-21.3125 36.0469,-21.3125 C34.7135,-21.3125 33.6458,-20.75 32.8438,-19.625 C31.8438,-18.1875 31.3438,-15.5313 31.3438,-11.6563 M50.8281,-12.8125 C49.6302,-13.25 48.7396,-13.8776 48.1563,-14.6953 C47.5729,-15.513 47.2813,-16.4896 47.2813,-17.625 C47.2813,-19.3438 47.901,-20.7891 49.1406,-21.9609 C50.3802,-23.1328 52.026,-23.7188 54.0781,-23.7188 C56.1406,-23.7188 57.7995,-23.1198 59.0547,-21.9219 C60.3099,-20.724 60.9375,-19.2656 60.9375,-17.5469 C60.9375,-16.4531 60.651,-15.5 60.0781,-14.6875 C59.5052,-13.875 58.6302,-13.25 57.4531,-12.8125 C58.901,-12.3333 60.0052,-11.5677 60.7656,-10.5156 C61.526,-9.46354 61.9063,-8.20833 61.9063,-6.75 C61.9063,-4.72917 61.1901,-3.03125 59.7578,-1.65625 C58.3255,-0.28125 56.4479,0.40625 54.125,0.40625 C51.7917,0.40625 49.9115,-0.283854 48.4844,-1.66406 C47.0573,-3.04427 46.3438,-4.76563 46.3438,-6.82813 C46.3438,-8.36979 46.7318,-9.65885 47.5078,-10.6953 C48.2839,-11.7318 49.3906,-12.4375 50.8281,-12.8125 M50.25,-17.7188 C50.25,-16.6042 50.6094,-15.6927 51.3281,-14.9844 C52.0469,-14.276 52.9844,-13.9219 54.1406,-13.9219 C55.2552,-13.9219 56.1693,-14.2734 56.8828,-14.9766 C57.5964,-15.6797 57.9531,-16.5417 57.9531,-17.5625 C57.9531,-18.625 57.5859,-19.5182 56.8516,-20.2422 C56.1172,-20.9661 55.2031,-21.3281 54.1094,-21.3281 C52.9948,-21.3281 52.0729,-20.974 51.3438,-20.2656 C50.6146,-19.5573 50.25,-18.7083 50.25,-17.7188 M49.3125,-6.8125 C49.3125,-5.98958 49.5104,-5.1901 49.9063,-4.41406 C50.3021,-3.63802 50.8854,-3.03906 51.6563,-2.61719 C52.4271,-2.19531 53.2604,-1.98438 54.1563,-1.98438 C55.5417,-1.98438 56.6849,-2.42969 57.5859,-3.32031 C58.487,-4.21094 58.9375,-5.34375 58.9375,-6.71875 C58.9375,-8.11458 58.474,-9.26823 57.5469,-10.1797 C56.6198,-11.0911 55.4583,-11.5469 54.0625,-11.5469 C52.6979,-11.5469 51.5651,-11.0964 50.6641,-10.1953 C49.763,-9.29427 49.3125,-8.16667 49.3125,-6.8125 "/>
</g>

<g fill="#d9d9d9" fill-opacity="1" stroke="none" transform="matrix(0.75,0,0,0.75,85.25,50.4814)"
font-family="MS Shell Dlg 2" font-size="8.25" font-weight="400" font-style="normal" 
>
<path vector-effect="none" fill-rule="evenodd" d="M1.375,-11.6563 C1.375,-14.4479 1.66146,-16.6953 2.23438,-18.3984 C2.80729,-20.1016 3.66146,-21.4141 4.79688,-22.3359 C5.93229,-23.2578 7.35938,-23.7188 9.07813,-23.7188 C10.3385,-23.7188 11.4479,-23.4635 12.4063,-22.9531 C13.3646,-22.4427 14.1536,-21.7057 14.7734,-20.7422 C15.3932,-19.7786 15.8828,-18.6068 16.2422,-17.2266 C16.6016,-15.8464 16.7813,-13.9896 16.7813,-11.6563 C16.7813,-8.88542 16.4948,-6.64844 15.9219,-4.94531 C15.349,-3.24219 14.4974,-1.92448 13.3672,-0.992188 C12.237,-0.0598958 10.8073,0.40625 9.07813,0.40625 C6.79688,0.40625 5.00521,-0.411458 3.70313,-2.04688 C2.15104,-4.01563 1.375,-7.21875 1.375,-11.6563 M4.34375,-11.6563 C4.34375,-7.77083 4.79948,-5.1875 5.71094,-3.90625 C6.6224,-2.625 7.74479,-1.98438 9.07813,-1.98438 C10.401,-1.98438 11.5182,-2.6276 12.4297,-3.91406 C13.3411,-5.20052 13.7969,-7.78125 13.7969,-11.6563 C13.7969,-15.5417 13.3411,-18.1224 12.4297,-19.3984 C11.5182,-20.6745 10.3906,-21.3125 9.04688,-21.3125 C7.71354,-21.3125 6.64583,-20.75 5.84375,-19.625 C4.84375,-18.1875 4.34375,-15.5313 4.34375,-11.6563 M21,0 L21,-3.29688 L24.2969,-3.29688 L24.2969,0 L21,0 M39.2969,0 L36.3906,0 L36.3906,-18.4844 C35.6927,-17.8177 34.7786,-17.151 33.6484,-16.4844 C32.5182,-15.8177 31.5,-15.3177 30.5938,-14.9844 L30.5938,-17.7969 C32.2188,-18.5573 33.638,-19.4792 34.8516,-20.5625 C36.0651,-21.6458 36.9219,-22.6979 37.4219,-23.7188 L39.2969,-23.7188 L39.2969,0"/>
</g>

<g fill="none" stroke="#268cdd" stroke-opacity="1" stroke-width="2.66667" stroke-linecap="butt" stroke-linejoin="round" transform="matrix(0.75,0,0,0.75,0,0)"
font-family="MS Shell Dlg 2" font-size="8.25" font-weight="400" font-style="normal" 
>
<polyline fill="none" vector-effect="none" points="168,627 169.04,627 170.08,627 171.12,627 172.16,627 173.2,627 174.24,627 175.28,627 176.32,627 177.36,627 178.4,627 179.44,627 180.48,627 181.52,627 182.56,627 183.6,627 184.64,627 185.68,627 186.72,627 187.76,627 188.8,627 189.84,627 190.88,627 191.92,627 192.96,627 194,627 195.04,627 196.08,627 197.12,627 198.16,627 199.2,627 200.24,627 201.28,627 202.32,627 203.36,627 204.4,627 205.44,627 206.48,627 207.52,627 208.56,627 209.6,627 210.64,627 211.68,627 212.72,627 213.76,627 214.8,627 215.84,627 216.88,627 217.92,627 218.96,627 220,627 221.04,627 222.08,627 223.12,627 224.16,627 225.2,627 226.24,627 227.28,627 228.32,627 229.36,627 230.4,627 231.44,627 232.48,627 233.52,627 234.56,627 235.6,627 236.64,627 237.68,627 238.72,627 239.76,627 240.8,627 241.84,627 242.88,627 243.92,627 244.96,627 246,627 247.04,627 248.08,627 249.12,627 250.16,627 251.2,627 252.24,627 253.28,627 254.32,627 255.36,627 256.4,627 257.44,627 258.48,627 259.52,627 260.56,627 261.6,627 262.64,627 263.68,627 264.72,627 265.76,627 266.8,627 267.84,627 268.88,627 269.92,627 270.96,627 272,627 273.04,627 274.08,627 275.12,627 276.16,627 277.2,627 278.24,627 279.28,627 280.32,627 281.36,627 282.4,627 283.44,627 284.48,627 285.52,627 286.56,627 287.6,627 288.64,627 289.68,627 290.72,627 291.76,627 292.8,627 293.84,627 294.88,627 295.92,627 296.96,627 298,627 299.04,627 300.08,627 301.12,627 302.16,627 303.2,627 304.24,627 305.28,626.999 306.32,626.999 307.36,626.999 308.4,626.998 309.44,626.995 310.48,626.992 311.52,626.987 312.56,626.981 313.6,626.975 314.64,626.97 315.68,626.954 316.72,626.926 317.76,626.884 318.8,626.833 319.84,626.776 320.88,626.701 321.92,626.603 322.96,626.482 324,626.334 325.04,626.131 326.08,625.834 327.12,625.432 328.16,624.924 329.2,624.317 330.24,623.613 331.28,622.8 332.32,621.873 333.36,620.83 334.4,619.453 335.44,617.482 336.48,615.071 337.52,612.416 338.56,609.517 339.6,606.411 340.64,602.896 341.68,598.584 342.72,593.322 343.76,587.109 344.8,580.28 345.84,573.24 346.88,565.762 347.92,557.548 348.96,548.598 350,538.677 351.04,527.61 352.08,515.724 353.12,503.285 354.16,490.293 355.2,476.878 356.24,463.283 357.28,449.543 358.32,435.584 359.36,421.404 360.4,407.208 361.44,393.469 362.48,380.394 363.52,367.918 364.56,356.039 365.6,344.794 366.64,334.727 367.68,326.562 368.72,320.518 369.76,316.595 370.8,314.193 371.84,312.549 372.88,312.017 373.92,313.115 374.96,315.843 376,321.341 377.04,330.393 378.08,341.323 379.12,352.814 380.16,364.864 381.2,377.675 382.24,391.535 383.28,406.38 384.32,422.056 385.36,438.563 386.4,455.464 387.44,471.977 388.48,488.014 389.52,503.837 390.56,519.445 391.6,534.419 392.64,548.053 393.68,560.339 394.72,571.555 395.76,581.701 396.8,590.968 397.84,599.613 398.88,607.551 399.92,614.625 400.96,620.835 402,625.537 402.555,627 " />
<polyline fill="none" vector-effect="none" points="429.747,627 430.08,626.958 431.12,626.815 432.16,626.66 433.2,626.506 434.24,626.366 435.28,626.229 436.32,626.084 437.36,625.93 438.4,625.781 439.44,625.677 440.48,625.643 441.52,625.677 442.56,625.778 443.6,625.688 444.64,625.176 445.68,624.542 446.72,624.058 447.76,623.725 448.8,623.342 449.84,622.638 450.88,621.71 451.92,620.721 452.96,619.672 454,618.627 455.04,617.619 456.08,616.54 457.12,615.314 458.16,613.94 459.2,612.064 460.24,609.365 461.28,606.249 462.32,603.084 463.36,599.872 464.4,596.529 465.44,592.854 466.48,588.756 467.52,584.26 468.56,579.365 469.6,573.862 470.64,567.549 471.68,560.654 472.72,553.391 473.76,545.759 474.8,537.95 475.84,529.879 476.88,520.951 477.92,510.841 478.96,499.549 480,487.5 481.04,475.355 482.08,463.045 483.12,450.263 484.16,437.009 485.2,422.931 486.24,407.798 487.28,392.134 488.32,376.35 489.36,360.445 490.4,344.351 491.44,327.956 492.48,311.267 493.52,294.331 494.56,277.148 495.6,260.051 496.64,243.531 497.68,227.497 498.72,211.696 499.76,196.13 500.8,180.646 501.84,165.553 502.88,151.69 503.92,139.438 504.96,128.796 506,119.292 507.04,110.246 508.08,101.824 509.12,94.3968 510.16,87.9631 511.2,83.3538 512.24,81.5454 513.28,81.9278 514.32,83.7439 515.36,86.9938 516.4,91.0621 517.44,95.7078 518.48,102.108 519.52,111.065 520.56,122.579 521.6,135.654 522.64,148.767 523.68,162.13 524.72,176.48 525.76,191.814 526.8,208.333 527.84,226.045 528.88,244.467 529.92,263.304 530.96,282.557 532,301.995 533.04,321.235 534.08,340.282 535.12,359.291 536.16,378.26 537.2,397.005 538.24,415.046 539.28,432.132 540.32,448.303 541.36,463.56 542.4,478.319 543.44,492.901 544.48,506.744 545.52,519.383 546.56,530.818 547.6,541.433 548.64,551.504 549.68,560.485 550.72,567.938 551.76,573.862 552.8,578.981 553.84,584.203 554.88,589.081 555.92,592.987 556.96,595.92 558,598.038 559.04,599.666 560.08,600.892 561.12,601.643 562.16,601.918 563.2,601.777 564.24,601.493 565.28,601.332 566.32,601.34 567.36,601.518 568.4,601.482 569.44,600.867 570.48,600.08 571.52,599.515 572.56,599.172 573.6,599.033 574.64,599.086 575.68,599.355 576.72,599.858 577.76,600.594 578.8,600.984 579.84,600.615 580.88,600.328 581.92,600.788 582.96,601.997 584,603.357 585.04,604.002 586.08,604.116 587.12,604.162 588.16,604.138 589.2,604.135 590.24,604.379 591.28,604.988 592.32,605.943 593.36,607.244 594.4,608.112 595.44,607.771 596.48,607.002 597.52,606.584 598.56,606.516 599.6,606.688 600.64,606.87 601.68,606.99 602.72,607.097 603.76,607.193 604.8,606.913 605.84,605.922 606.88,604.622 607.92,603.389 608.96,602.223 610,601.22 611.04,600.339 612.08,599.282 613.12,597.883 614.16,596.142 615.2,594.17 616.24,592.193 617.28,590.286 618.32,588.398 619.36,586.53 620.4,584.345 621.44,581.435 622.48,578.038 623.52,574.459 624.56,570.697 625.6,566.869 626.64,563.165 627.68,559.585 628.72,556.05 629.76,552.561 630.8,548.1 631.84,541.877 632.88,535.25 633.92,529.351 634.96,524.179 636,519.541 637.04,514.742 638.08,509.226 639.12,502.938 640.16,495.878 641.2,488.34 642.24,480.893 643.28,473.648 644.32,466.447 645.36,459.291 646.4,452.293 647.44,445.441 648.48,438.437 649.52,431.103 650.56,423.441 651.6,415.503 652.64,407.599 653.68,400.065 654.72,392.979 655.76,386.34 656.8,380.008 657.84,373.706 658.88,367.373 659.92,361.083 660.96,354.836 662,348.827 663.04,343.395 664.08,338.562 665.12,334.207 666.16,330.329 667.2,326.825 668.24,323.55 669.28,320.546 670.32,317.894 671.36,315.595 672.4,314.263 673.44,314.356 674.48,315.021 675.52,315.565 676.56,315.988 677.6,316.466 678.64,317.535 679.68,319.556 680.72,322.528 681.76,326.454 682.8,330.971 683.84,335.581 684.88,340.445 685.92,345.855 686.96,351.811 688,357.908 689.04,363.747 690.08,369.743 691.12,376.306 692.16,383.435 693.2,390.766 694.24,397.744 695.28,404.451 696.32,411.158 697.36,417.865 698.4,424.975 699.44,432.767 700.48,440.661 701.52,448.193 702.56,455.365 703.6,462.227 704.64,468.967 705.68,475.732 706.72,482.54 707.76,489.39 708.8,496.2 709.84,502.817 710.88,509.208 711.92,515.418 712.96,521.447 714,527.571 715.04,533.855 716.08,539.713 717.12,544.764 718.16,549.009 719.2,553.53 720.24,559.104 721.28,564.193 722.32,567.562 723.36,569.211 724.4,570.154 725.44,571.976 726.48,574.524 727.52,577.073 728.56,579.622 729.6,582.171 730.64,584.72 731.68,587.269 732.72,589.817 733.76,592.366 734.8,594.52 735.84,595.838 736.88,596.644 737.92,597.311 738.96,597.838 740,598.533 741.04,599.748 742.08,601.247 743.12,602.747 744.16,604.246 745.2,606.124 746.24,608.331 747.28,609.852 748.32,610.095 749.36,609.06 750.4,607.727 751.44,607.504 752.48,608.049 753.52,608.595 754.56,609.14 755.6,609.685 756.64,610.23 757.68,610.775 758.72,611.32 759.76,611.865 760.8,612.231 761.84,612.24 762.88,612.076 763.92,611.917 764.96,611.765 766,611.694 767.04,611.78 768.08,611.942 769.12,612.105 770.16,612.268 771.2,612.427 772.24,612.584 773.28,612.748 774.32,612.925 775.36,613.115 776.4,613.307 777.44,613.488 778.48,613.662 779.52,613.835 780.56,614.008 781.6,614.181 782.64,614.354 783.68,614.527 784.72,614.701 785.76,614.874 786.8,615.047 787.84,615.22 788.88,615.393 789.92,615.566 790.96,615.739 792,615.913 793.04,616.086 794.08,616.259 795.12,616.432 796.16,616.605 797.2,616.787 798.24,616.974 799.28,617.137 800.32,617.262 801.36,617.348 802.4,617.431 803.44,617.557 804.48,617.712 805.52,617.867 806.56,618.022 807.6,618.176 808.64,618.331 809.68,618.486 810.72,618.641 811.76,618.796 812.8,618.951 813.84,619.106 814.88,619.261 815.92,619.415 816.96,619.57 818,619.725 819.04,619.88 820.08,620.035 821.12,620.19 822.16,620.345 823.2,620.513 824.24,620.683 825.28,620.806 826.32,620.856 827.36,620.833 828.4,620.805 829.44,620.865 830.48,620.981 831.52,621.097 832.56,621.213 833.6,621.329 834.64,621.445 835.68,621.561 836.72,621.677 837.76,621.793 838.8,621.909 839.84,622.025 840.88,622.141 841.92,622.257 842.96,622.373 844,622.489 845.04,622.605 846.08,622.72 847.12,622.836 848.16,622.952 849.2,623.076 850.24,623.194 851.28,623.263 852.32,623.264 853.36,623.198 854.4,623.129 855.44,623.148 856.48,623.223 857.52,623.297 858.56,623.371 859.6,623.445 860.64,623.519 861.68,623.593 862.72,623.667 863.76,623.742 864.8,623.816 865.84,623.89 866.88,623.964 867.92,624.038 868.96,624.112 870,624.186 871.04,624.26 872.08,624.334 873.12,624.409 874.16,624.483 875.2,624.559 876.24,624.62 877.28,624.638 878.32,624.604 879.36,624.516 880.4,624.429 881.44,624.418 882.48,624.453 883.52,624.488 884.56,624.524 885.6,624.559 886.64,624.594 887.68,624.629 888.72,624.664 889.76,624.699 890.8,624.734 891.84,624.769 892.88,624.804 893.92,624.839 894.96,624.875 896,624.91 897.04,624.945 898.08,624.98 899.12,625.015 900.16,625.05 901.2,625.085 902.24,625.12 903.28,625.155 904.32,625.19 905.36,625.226 906.4,625.261 907.44,625.296 908.48,625.331 909.52,625.366 910.56,625.401 911.6,625.436 912.64,625.471 913.68,625.506 914.72,625.542 915.76,625.577 916.8,625.612 917.84,625.647 918.88,625.682 919.92,625.717 920.96,625.752 922,625.787 923.04,625.822 924.08,625.857 925.12,625.893 926.16,625.928 927.2,625.976 928.24,626.056 929.28,626.156 930.32,626.267 931.36,626.387 932.4,626.482 933.44,626.515 934.48,626.515 935.52,626.515 936.56,626.515 937.6,626.515 938.64,626.515 939.68,626.515 940.72,626.515 941.76,626.515 942.8,626.515 943.84,626.515 944.88,626.515 945.92,626.515 946.96,626.515 948,626.515 949.04,626.515 950.08,626.515 951.12,626.515 952.16,626.515 953.2,626.515 954.24,626.515 955.28,626.515 956.32,626.515 957.36,626.515 958.4,626.515 959.44,626.515 960.48,626.515 961.52,626.515 962.56,626.515 963.6,626.515 964.64,626.515 965.68,626.515 966.72,626.515 967.76,626.515 968.8,626.515 969.84,626.515 970.88,626.515 971.92,626.515 972.96,626.515 974,626.515 975.04,626.515 976.08,626.515 977.12,626.515 978.16,626.515 979.2,626.523 980.24,626.547 981.28,626.58 982.32,626.612 983.36,626.644 984.4,626.668 985.44,626.676 986.48,626.676 987.52,626.676 988.56,626.676 989.6,626.676 990.64,626.676 991.68,626.676 992.72,626.676 993.76,626.676 994.8,626.676 995.84,626.676 996.88,626.676 997.92,626.676 998.96,626.676 1000,626.838 1000,626.838 " />
</g>

<g fill="none" stroke="#ffffff" stroke-opacity="1" stroke-width="2.66667" stroke-linecap="butt" stroke-linejoin="miter" stroke-miterlimit="2" transform="matrix(0.75,0,0,0.75,0,0)"
font-family="MS Shell Dlg 2" font-size="8.25" font-weight="400" font-style="normal" 
>
<path vector-effect="none" fill-rule="evenodd" d="M379.547,312.017 C379.547,308.335 376.562,305.35 372.88,305.35 C369.198,305.35 366.213,308.335 366.213,312.017 C366.213,315.699 369.198,318.683 372.88,318.683 C376.562,318.683 379.547,315.699 379.547,312.017 "/>
<path vector-effect="none" fill-rule="evenodd" d="M518.907,81.5455 C518.907,77.8636 515.922,74.8788 512.24,74.8788 C508.558,74.8788 505.573,77.8636 505.573,81.5455 C505.573,85.2273 508.558,88.2121 512.24,88.2121 C515.922,88.2121 518.907,85.2273 518.907,81.5455 "/>
<path vector-effect="none" fill-rule="evenodd" d="M679.067,315.595 C679.067,311.913 676.082,308.928 672.4,308.928 C668.718,308.928 665.733,311.913 665.733,315.595 C665.733,319.277 668.718,322.262 672.4,322.262 C676.082,322.262 679.067,319.277 679.067,315.595 "/>
</g>
</g>
</svg>
