<?xml version="1.0" encoding="UTF-8" standalone="no"?>
<svg width="228.6mm" height="149.931mm"
 viewBox="0 0 648 425"
 xmlns="http://www.w3.org/2000/svg" xmlns:xlink="http://www.w3.org/1999/xlink"  version="1.2" baseProfile="tiny">
<title>Qt SVG Document</title>
<desc>MATLAB, The MathWorks, Inc. Version 25.2.0.3042426 R2025b Update 1</desc>
<defs>
</defs>
<g fill="none" stroke="black" stroke-width="1" fill-rule="evenodd" stroke-linecap="square" stroke-linejoin="bevel" >

<g fill="#000000" fill-opacity="1" stroke="none" transform="matrix(0.75,0,0,0.75,0,0)"
font-family="MS Shell Dlg 2" font-size="8.25" font-weight="400" font-style="normal" 
>
<path vector-effect="none" fill-rule="evenodd" d="M0,0 L864,0 L864,567 L0,567 L0,0"/>
</g>

<g fill="#121212" fill-opacity="1" stroke="none" transform="matrix(7.5e-05,0,0,7.5e-05,0,0)"
font-family="MS Shell Dlg 2" font-size="8.25" font-weight="400" font-style="normal" 
>
<path vector-effect="none" fill-rule="evenodd" d="M1.28e+06,140000 L1.28e+06,4.74e+06 L8.27e+06,4.74e+06 L8.27e+06,140000 L1.28e+06,140000"/>
</g>

<g fill="#ffffff" fill-opacity="0.25098" stroke="#ffffff" stroke-opacity="0.25098" stroke-width="0.666667" stroke-linecap="butt" stroke-linejoin="round" transform="matrix(0.75,0,0,0.75,0,0)"
font-family="MS Shell Dlg 2" font-size="8.25" font-weight="400" font-style="normal" 
>
<polyline fill="none" vector-effect="none" points="128,14 128,474 " />
<polyline fill="none" vector-effect="none" points="267.8,14 267.8,474 " />
<polyline fill="none" vector-effect="none" points="407.6,14 407.6,474 " />
<polyline fill="none" vector-effect="none" points="547.4,14 547.4,474 " />
<polyline fill="none" vector-effect="none" points="687.2,14 687.2,474 " />
<polyline fill="none" vector-effect="none" points="827,14 827,474 " />
<polyline fill="none" vector-effect="none" points="128,474 827,474 " />
<polyline fill="none" vector-effect="none" points="128,370.487 827,370.487 " />
<polyline fill="none" vector-effect="none" points="128,266.975 827,266.975 " />
<polyline fill="none" vector-effect="none" points="128,163.462 827,163.462 " />
<polyline fill="none" vector-effect="none" points="128,59.9496 827,59.9496 " />
</g>

<g fill="#d9d9d9" fill-opacity="1" stroke="none" transform="matrix(0.75,0,0,0.75,309.16,414.35)"
font-family="MS Shell Dlg 2" font-size="8.25" font-weight="400" font-style="normal" 
>
<path vector-effect="none" fill-rule="evenodd" d="M6.07813,0 L6.07813,-1.26563 C7.28646,-1.26563 8.45833,-1.33333 9.59375,-1.46875 C10.7292,-1.60417 11.2969,-1.91667 11.2969,-2.40625 L11.2969,-22.1875 C11.2969,-22.6979 11.1536,-23.0156 10.8672,-23.1406 C10.5807,-23.2656 10.1146,-23.3281 9.46875,-23.3281 L7.96875,-23.3281 C5.98958,-23.3281 4.58333,-22.8958 3.75,-22.0313 C3.3125,-21.5938 3,-20.8984 2.8125,-19.9453 C2.625,-18.9922 2.46875,-17.7917 2.34375,-16.3438 L1.29688,-16.3438 L1.98438,-24.5938 L23.9844,-24.5938 L24.6563,-16.3438 L23.6094,-16.3438 C23.4635,-17.8958 23.3073,-19.125 23.1406,-20.0313 C22.974,-20.9375 22.6667,-21.6042 22.2188,-22.0313 C21.375,-22.8958 19.9688,-23.3281 18,-23.3281 L16.4844,-23.3281 C16.0573,-23.3281 15.724,-23.3099 15.4844,-23.2734 C15.2448,-23.237 15.0469,-23.1354 14.8906,-22.9688 C14.7344,-22.8021 14.6563,-22.5417 14.6563,-22.1875 L14.6563,-2.40625 C14.6563,-1.91667 15.2266,-1.60417 16.3672,-1.46875 C17.5078,-1.33333 18.6719,-1.26563 19.8594,-1.26563 L19.8594,0 L6.07813,0"/>
</g>

<g fill="#d9d9d9" fill-opacity="1" stroke="none" transform="matrix(0.75,0,0,0.75,329.021,414.35)"
font-family="MS Shell Dlg 2" font-size="8.25" font-weight="400" font-style="normal" 
>
<path vector-effect="none" fill-rule="evenodd" d="M1.10938,0 L1.10938,-1.26563 C1.93229,-1.26563 2.60677,-1.33073 3.13281,-1.46094 C3.65885,-1.59115 3.92188,-1.90625 3.92188,-2.40625 L3.92188,-12.2344 C3.92188,-13.1615 3.74219,-13.7292 3.38281,-13.9375 C3.02344,-14.1458 2.31771,-14.25 1.26563,-14.25 L1.26563,-15.5156 L6.45313,-15.9063 L6.45313,-2.40625 C6.45313,-1.90625 6.68229,-1.59115 7.14063,-1.46094 C7.59896,-1.33073 8.20833,-1.26563 8.96875,-1.26563 L8.96875,0 L1.10938,0 M2.64063,-22.0938 C2.64063,-22.625 2.83854,-23.0885 3.23438,-23.4844 C3.63021,-23.8802 4.08854,-24.0781 4.60938,-24.0781 C4.94271,-24.0781 5.26823,-23.9922 5.58594,-23.8203 C5.90365,-23.6484 6.15104,-23.4036 6.32813,-23.0859 C6.50521,-22.7682 6.59375,-22.4375 6.59375,-22.0938 C6.59375,-21.5833 6.39323,-21.1276 5.99219,-20.7266 C5.59115,-20.3255 5.13021,-20.125 4.60938,-20.125 C4.08854,-20.125 3.63021,-20.3255 3.23438,-20.7266 C2.83854,-21.1276 2.64063,-21.5833 2.64063,-22.0938 "/>
</g>

<g fill="#d9d9d9" fill-opacity="1" stroke="none" transform="matrix(0.75,0,0,0.75,336.66,414.35)"
font-family="MS Shell Dlg 2" font-size="8.25" font-weight="400" font-style="normal" 
>
<path vector-effect="none" fill-rule="evenodd" d="M1.07813,0 L1.07813,-1.26563 C1.89063,-1.26563 2.5625,-1.33073 3.09375,-1.46094 C3.625,-1.59115 3.89063,-1.90625 3.89063,-2.40625 L3.89063,-12.2344 C3.89063,-12.8802 3.79427,-13.3464 3.60156,-13.6328 C3.40885,-13.9193 3.13021,-14.0938 2.76563,-14.1563 C2.40104,-14.2188 1.83854,-14.25 1.07813,-14.25 L1.07813,-15.5156 L6.29688,-15.9063 L6.29688,-12.3906 C6.77604,-13.4219 7.48698,-14.2656 8.42969,-14.9219 C9.3724,-15.5781 10.401,-15.9063 11.5156,-15.9063 C14.276,-15.9063 15.901,-14.7813 16.3906,-12.5313 C16.8698,-13.5417 17.5703,-14.3568 18.4922,-14.9766 C19.4141,-15.5964 20.4271,-15.9063 21.5313,-15.9063 C22.625,-15.9063 23.5443,-15.7318 24.2891,-15.3828 C25.0339,-15.0339 25.5938,-14.4974 25.9688,-13.7734 C26.3438,-13.0495 26.5313,-12.1458 26.5313,-11.0625 L26.5313,-2.40625 C26.5313,-1.90625 26.7969,-1.59115 27.3281,-1.46094 C27.8594,-1.33073 28.5313,-1.26563 29.3438,-1.26563 L29.3438,0 L21.0938,0 L21.0938,-1.26563 C21.9167,-1.26563 22.5911,-1.33073 23.1172,-1.46094 C23.6432,-1.59115 23.9063,-1.90625 23.9063,-2.40625 L23.9063,-10.9531 C23.9063,-12.1615 23.737,-13.1354 23.3984,-13.875 C23.0599,-14.6146 22.3646,-14.9844 21.3125,-14.9844 C19.9271,-14.9844 18.7839,-14.4271 17.8828,-13.3125 C16.9818,-12.1979 16.5313,-10.9323 16.5313,-9.51563 L16.5313,-2.40625 C16.5313,-1.90625 16.7943,-1.59115 17.3203,-1.46094 C17.8464,-1.33073 18.5208,-1.26563 19.3438,-1.26563 L19.3438,0 L11.0938,0 L11.0938,-1.26563 C11.9167,-1.26563 12.5911,-1.33073 13.1172,-1.46094 C13.6432,-1.59115 13.9063,-1.90625 13.9063,-2.40625 L13.9063,-10.9531 C13.9063,-12.1198 13.737,-13.0833 13.3984,-13.8438 C13.0599,-14.6042 12.3594,-14.9844 11.2969,-14.9844 C9.91146,-14.9844 8.76823,-14.4271 7.86719,-13.3125 C6.96615,-12.1979 6.51563,-10.9323 6.51563,-9.51563 L6.51563,-2.40625 C6.51563,-1.90625 6.78125,-1.59115 7.3125,-1.46094 C7.84375,-1.33073 8.51042,-1.26563 9.3125,-1.26563 L9.3125,0 L1.07813,0"/>
</g>

<g fill="#d9d9d9" fill-opacity="1" stroke="none" transform="matrix(0.75,0,0,0.75,359.576,414.35)"
font-family="MS Shell Dlg 2" font-size="8.25" font-weight="400" font-style="normal" 
>
<path vector-effect="none" fill-rule="evenodd" d="M8.96875,0.40625 C7.5,0.40625 6.15365,0.0208333 4.92969,-0.75 C3.70573,-1.52083 2.74479,-2.54688 2.04688,-3.82813 C1.34896,-5.10938 1,-6.46354 1,-7.89063 C1,-9.29688 1.32031,-10.6328 1.96094,-11.8984 C2.60156,-13.1641 3.49219,-14.1875 4.63281,-14.9688 C5.77344,-15.75 7.04688,-16.1406 8.45313,-16.1406 C9.55729,-16.1406 10.5156,-15.9557 11.3281,-15.5859 C12.1406,-15.2161 12.8125,-14.7031 13.3438,-14.0469 C13.875,-13.3906 14.2734,-12.6172 14.5391,-11.7266 C14.8047,-10.8359 14.9375,-9.85938 14.9375,-8.79688 C14.9375,-8.47396 14.8177,-8.3125 14.5781,-8.3125 L4.15625,-8.3125 L4.15625,-7.92188 C4.15625,-5.94271 4.55729,-4.23958 5.35938,-2.8125 C6.16146,-1.38542 7.46875,-0.671875 9.28125,-0.671875 C10.0208,-0.671875 10.7031,-0.835938 11.3281,-1.16406 C11.9531,-1.49219 12.4974,-1.94792 12.9609,-2.53125 C13.4245,-3.11458 13.7396,-3.73958 13.9063,-4.40625 C13.9271,-4.48958 13.9714,-4.5625 14.0391,-4.625 C14.1068,-4.6875 14.1771,-4.71875 14.25,-4.71875 L14.5781,-4.71875 C14.8177,-4.71875 14.9375,-4.56771 14.9375,-4.26563 C14.6042,-2.90104 13.875,-1.78125 12.75,-0.90625 C11.625,-0.03125 10.3646,0.40625 8.96875,0.40625 M4.1875,-9.21875 L12.3906,-9.21875 C12.3906,-10.1146 12.2656,-11.0234 12.0156,-11.9453 C11.7656,-12.8672 11.3464,-13.6354 10.7578,-14.25 C10.1693,-14.8646 9.40104,-15.1719 8.45313,-15.1719 C7.09896,-15.1719 6.04948,-14.5365 5.30469,-13.2656 C4.5599,-11.9948 4.1875,-10.6458 4.1875,-9.21875 "/>
</g>

<g fill="#d9d9d9" fill-opacity="1" stroke="none" transform="matrix(0.75,0,0,0.75,380.965,414.35)"
font-family="MS Shell Dlg 2" font-size="8.25" font-weight="400" font-style="normal" 
>
<path vector-effect="none" fill-rule="evenodd" d="M4.25,9 L4.25,-27 L9.17188,-27 L9.17188,-25.5625 L5.70313,-25.5625 L5.70313,7.5625 L9.17188,7.5625 L9.17188,9 L4.25,9"/>
</g>

<g fill="#d9d9d9" fill-opacity="1" stroke="none" transform="matrix(0.75,0,0,0.75,388.604,414.35)"
font-family="MS Shell Dlg 2" font-size="8.25" font-weight="400" font-style="normal" 
>
<path vector-effect="none" fill-rule="evenodd" d="M1.20313,0.109375 L1.20313,-5.78125 C1.20313,-5.96875 1.30729,-6.0625 1.51563,-6.0625 L1.95313,-6.0625 C2.08854,-6.0625 2.18229,-5.96875 2.23438,-5.78125 C2.90104,-2.30208 4.51563,-0.5625 7.07813,-0.5625 C8.22396,-0.5625 9.17969,-0.820313 9.94531,-1.33594 C10.7109,-1.85156 11.0938,-2.65104 11.0938,-3.73438 C11.0938,-4.50521 10.7943,-5.16146 10.1953,-5.70313 C9.59635,-6.24479 8.88542,-6.61979 8.0625,-6.82813 L5.65625,-7.29688 C4.85417,-7.47396 4.1224,-7.74219 3.46094,-8.10156 C2.79948,-8.46094 2.25781,-8.94271 1.83594,-9.54688 C1.41406,-10.151 1.20313,-10.849 1.20313,-11.6406 C1.20313,-12.6927 1.47917,-13.5547 2.03125,-14.2266 C2.58333,-14.8984 3.30469,-15.3854 4.19531,-15.6875 C5.08594,-15.9896 6.04688,-16.1406 7.07813,-16.1406 C8.31771,-16.1406 9.39063,-15.8177 10.2969,-15.1719 L11.3438,-16.0469 C11.3438,-16.1094 11.401,-16.1406 11.5156,-16.1406 L11.7813,-16.1406 C11.8542,-16.1406 11.9193,-16.1068 11.9766,-16.0391 C12.0339,-15.9714 12.0625,-15.9063 12.0625,-15.8438 L12.0625,-11.1406 C12.0625,-10.9219 11.9688,-10.8125 11.7813,-10.8125 L11.3438,-10.8125 C11.125,-10.8125 11.0156,-10.9219 11.0156,-11.1406 C11.0156,-12.401 10.6693,-13.4115 9.97656,-14.1719 C9.28385,-14.9323 8.30729,-15.3125 7.04688,-15.3125 C5.97396,-15.3125 5.04167,-15.112 4.25,-14.7109 C3.45833,-14.3099 3.0625,-13.625 3.0625,-12.6563 C3.0625,-11.9896 3.34635,-11.4427 3.91406,-11.0156 C4.48177,-10.5885 5.14583,-10.2813 5.90625,-10.0938 L8.34375,-9.64063 C9.16667,-9.44271 9.93229,-9.1224 10.6406,-8.67969 C11.349,-8.23698 11.9115,-7.67448 12.3281,-6.99219 C12.7448,-6.3099 12.9531,-5.54167 12.9531,-4.6875 C12.9531,-3.8125 12.8047,-3.05729 12.5078,-2.42188 C12.2109,-1.78646 11.7943,-1.25521 11.2578,-0.828125 C10.7214,-0.401042 10.0911,-0.0885417 9.36719,0.109375 C8.64323,0.307292 7.88021,0.40625 7.07813,0.40625 C5.57813,0.40625 4.29688,-0.104167 3.23438,-1.125 L1.92188,0.3125 C1.92188,0.375 1.85417,0.40625 1.71875,0.40625 L1.51563,0.40625 C1.30729,0.40625 1.20313,0.307292 1.20313,0.109375 "/>
</g>

<g fill="#d9d9d9" fill-opacity="1" stroke="none" transform="matrix(0.75,0,0,0.75,399.451,414.35)"
font-family="MS Shell Dlg 2" font-size="8.25" font-weight="400" font-style="normal" 
>
<path vector-effect="none" fill-rule="evenodd" d="M0.796875,9 L0.796875,7.5625 L4.29688,7.5625 L4.29688,-25.5625 L0.796875,-25.5625 L0.796875,-27 L5.73438,-27 L5.73438,9 L0.796875,9"/>
</g>

<g fill="#d9d9d9" fill-opacity="1" stroke="#d9d9d9" stroke-opacity="1" stroke-width="0.666667" stroke-linecap="square" stroke-linejoin="round" transform="matrix(0.75,0,0,0.75,0,0)"
font-family="MS Shell Dlg 2" font-size="8.25" font-weight="400" font-style="normal" 
>
<polyline fill="none" vector-effect="none" points="128,474 827,474 " />
<polyline fill="none" vector-effect="none" points="128,14 827,14 " />
<polyline fill="none" vector-effect="none" points="128,474 128,467.01 " />
<polyline fill="none" vector-effect="none" points="128,20.99 128,14 " />
<polyline fill="none" vector-effect="none" points="267.8,474 267.8,467.01 " />
<polyline fill="none" vector-effect="none" points="267.8,20.99 267.8,14 " />
<polyline fill="none" vector-effect="none" points="407.6,474 407.6,467.01 " />
<polyline fill="none" vector-effect="none" points="407.6,20.99 407.6,14 " />
<polyline fill="none" vector-effect="none" points="547.4,474 547.4,467.01 " />
<polyline fill="none" vector-effect="none" points="547.4,20.99 547.4,14 " />
<polyline fill="none" vector-effect="none" points="687.2,474 687.2,467.01 " />
<polyline fill="none" vector-effect="none" points="687.2,20.99 687.2,14 " />
<polyline fill="none" vector-effect="none" points="827,474 827,467.01 " />
<polyline fill="none" vector-effect="none" points="827,20.99 827,14 " />
</g>

<g fill="#d9d9d9" fill-opacity="1" stroke="none" transform="matrix(0.75,0,0,0.75,89.25,385)"
font-family="MS Shell Dlg 2" font-size="8.25" font-weight="400" font-style="normal" 
>
<path vector-effect="none" fill-rule="evenodd" d="M1.375,-11.6563 C1.375,-14.4479 1.66146,-16.6953 2.23438,-18.3984 C2.80729,-20.1016 3.66146,-21.4141 4.79688,-22.3359 C5.93229,-23.2578 7.35938,-23.7188 9.07813,-23.7188 C10.3385,-23.7188 11.4479,-23.4635 12.4063,-22.9531 C13.3646,-22.4427 14.1536,-21.7057 14.7734,-20.7422 C15.3932,-19.7786 15.8828,-18.6068 16.2422,-17.2266 C16.6016,-15.8464 16.7813,-13.9896 16.7813,-11.6563 C16.7813,-8.88542 16.4948,-6.64844 15.9219,-4.94531 C15.349,-3.24219 14.4974,-1.92448 13.3672,-0.992188 C12.237,-0.0598958 10.8073,0.40625 9.07813,0.40625 C6.79688,0.40625 5.00521,-0.411458 3.70313,-2.04688 C2.15104,-4.01563 1.375,-7.21875 1.375,-11.6563 M4.34375,-11.6563 C4.34375,-7.77083 4.79948,-5.1875 5.71094,-3.90625 C6.6224,-2.625 7.74479,-1.98438 9.07813,-1.98438 C10.401,-1.98438 11.5182,-2.6276 12.4297,-3.91406 C13.3411,-5.20052 13.7969,-7.78125 13.7969,-11.6563 C13.7969,-15.5417 13.3411,-18.1224 12.4297,-19.3984 C11.5182,-20.6745 10.3906,-21.3125 9.04688,-21.3125 C7.71354,-21.3125 6.64583,-20.75 5.84375,-19.625 C4.84375,-18.1875 4.34375,-15.5313 4.34375,-11.6563 "/>
</g>

<g fill="#d9d9d9" fill-opacity="1" stroke="none" transform="matrix(0.75,0,0,0.75,187.35,385)"
font-family="MS Shell Dlg 2" font-size="8.25" font-weight="400" font-style="normal" 
>
<path vector-effect="none" fill-rule="evenodd" d="M16.6094,-2.78125 L16.6094,0 L1,0 C0.979167,-0.697917 1.09375,-1.36979 1.34375,-2.01563 C1.73958,-3.07813 2.375,-4.125 3.25,-5.15625 C4.125,-6.1875 5.39063,-7.38021 7.04688,-8.73438 C9.60938,-10.8385 11.3411,-12.5052 12.2422,-13.7344 C13.1432,-14.9635 13.5938,-16.125 13.5938,-17.2188 C13.5938,-18.375 13.1849,-19.3464 12.3672,-20.1328 C11.5495,-20.9193 10.4792,-21.3125 9.15625,-21.3125 C7.76042,-21.3125 6.64323,-20.8932 5.80469,-20.0547 C4.96615,-19.2161 4.54167,-18.0573 4.53125,-16.5781 L1.54688,-16.8906 C1.75521,-19.1094 2.52344,-20.8021 3.85156,-21.9688 C5.17969,-23.1354 6.96875,-23.7188 9.21875,-23.7188 C11.4792,-23.7188 13.2708,-23.0911 14.5938,-21.8359 C15.9167,-20.5807 16.5781,-19.0208 16.5781,-17.1563 C16.5781,-16.2188 16.3854,-15.2917 16,-14.375 C15.6146,-13.4583 14.974,-12.4948 14.0781,-11.4844 C13.1823,-10.474 11.6927,-9.08854 9.60938,-7.32813 C7.86979,-5.86979 6.7526,-4.88021 6.25781,-4.35938 C5.76302,-3.83854 5.35417,-3.3125 5.03125,-2.78125 L16.6094,-2.78125 M19.375,-11.6563 C19.375,-14.4479 19.6615,-16.6953 20.2344,-18.3984 C20.8073,-20.1016 21.6615,-21.4141 22.7969,-22.3359 C23.9323,-23.2578 25.3594,-23.7188 27.0781,-23.7188 C28.3385,-23.7188 29.4479,-23.4635 30.4063,-22.9531 C31.3646,-22.4427 32.1536,-21.7057 32.7734,-20.7422 C33.3932,-19.7786 33.8828,-18.6068 34.2422,-17.2266 C34.6016,-15.8464 34.7813,-13.9896 34.7813,-11.6563 C34.7813,-8.88542 34.4948,-6.64844 33.9219,-4.94531 C33.349,-3.24219 32.4974,-1.92448 31.3672,-0.992188 C30.237,-0.0598958 28.8073,0.40625 27.0781,0.40625 C24.7969,0.40625 23.0052,-0.411458 21.7031,-2.04688 C20.151,-4.01563 19.375,-7.21875 19.375,-11.6563 M22.3438,-11.6563 C22.3438,-7.77083 22.7995,-5.1875 23.7109,-3.90625 C24.6224,-2.625 25.7448,-1.98438 27.0781,-1.98438 C28.401,-1.98438 29.5182,-2.6276 30.4297,-3.91406 C31.3411,-5.20052 31.7969,-7.78125 31.7969,-11.6563 C31.7969,-15.5417 31.3411,-18.1224 30.4297,-19.3984 C29.5182,-20.6745 28.3906,-21.3125 27.0469,-21.3125 C25.7135,-21.3125 24.6458,-20.75 23.8438,-19.625 C22.8438,-18.1875 22.3438,-15.5313 22.3438,-11.6563 "/>
</g>

<g fill="#d9d9d9" fill-opacity="1" stroke="none" transform="matrix(0.75,0,0,0.75,292.2,385)"
font-family="MS Shell Dlg 2" font-size="8.25" font-weight="400" font-style="normal" 
>
<path vector-effect="none" fill-rule="evenodd" d="M10.6719,0 L10.6719,-5.65625 L0.421875,-5.65625 L0.421875,-8.3125 L11.2031,-23.625 L13.5625,-23.625 L13.5625,-8.3125 L16.7656,-8.3125 L16.7656,-5.65625 L13.5625,-5.65625 L13.5625,0 L10.6719,0 M10.6719,-8.3125 L10.6719,-18.9688 L3.26563,-8.3125 L10.6719,-8.3125 M19.375,-11.6563 C19.375,-14.4479 19.6615,-16.6953 20.2344,-18.3984 C20.8073,-20.1016 21.6615,-21.4141 22.7969,-22.3359 C23.9323,-23.2578 25.3594,-23.7188 27.0781,-23.7188 C28.3385,-23.7188 29.4479,-23.4635 30.4063,-22.9531 C31.3646,-22.4427 32.1536,-21.7057 32.7734,-20.7422 C33.3932,-19.7786 33.8828,-18.6068 34.2422,-17.2266 C34.6016,-15.8464 34.7813,-13.9896 34.7813,-11.6563 C34.7813,-8.88542 34.4948,-6.64844 33.9219,-4.94531 C33.349,-3.24219 32.4974,-1.92448 31.3672,-0.992188 C30.237,-0.0598958 28.8073,0.40625 27.0781,0.40625 C24.7969,0.40625 23.0052,-0.411458 21.7031,-2.04688 C20.151,-4.01563 19.375,-7.21875 19.375,-11.6563 M22.3438,-11.6563 C22.3438,-7.77083 22.7995,-5.1875 23.7109,-3.90625 C24.6224,-2.625 25.7448,-1.98438 27.0781,-1.98438 C28.401,-1.98438 29.5182,-2.6276 30.4297,-3.91406 C31.3411,-5.20052 31.7969,-7.78125 31.7969,-11.6563 C31.7969,-15.5417 31.3411,-18.1224 30.4297,-19.3984 C29.5182,-20.6745 28.3906,-21.3125 27.0469,-21.3125 C25.7135,-21.3125 24.6458,-20.75 23.8438,-19.625 C22.8438,-18.1875 22.3438,-15.5313 22.3438,-11.6563 "/>
</g>

<g fill="#d9d9d9" fill-opacity="1" stroke="none" transform="matrix(0.75,0,0,0.75,397.05,385)"
font-family="MS Shell Dlg 2" font-size="8.25" font-weight="400" font-style="normal" 
>
<path vector-effect="none" fill-rule="evenodd" d="M16.4219,-17.8438 L13.5313,-17.6094 C13.2813,-18.7448 12.9167,-19.5729 12.4375,-20.0938 C11.6563,-20.9167 10.6927,-21.3281 9.54688,-21.3281 C8.61979,-21.3281 7.80729,-21.0729 7.10938,-20.5625 C6.19271,-19.8958 5.47135,-18.9245 4.94531,-17.6484 C4.41927,-16.3724 4.14583,-14.5521 4.125,-12.1875 C4.82292,-13.25 5.67708,-14.0391 6.6875,-14.5547 C7.69792,-15.0703 8.75521,-15.3281 9.85938,-15.3281 C11.7969,-15.3281 13.4453,-14.6146 14.8047,-13.1875 C16.1641,-11.7604 16.8438,-9.92188 16.8438,-7.67188 C16.8438,-6.19271 16.5234,-4.8151 15.8828,-3.53906 C15.2422,-2.26302 14.362,-1.28646 13.2422,-0.609375 C12.1224,0.0677083 10.8542,0.40625 9.4375,0.40625 C7.02083,0.40625 5.04948,-0.484375 3.52344,-2.26563 C1.9974,-4.04688 1.23438,-6.97396 1.23438,-11.0469 C1.23438,-15.6198 2.07813,-18.9427 3.76563,-21.0156 C5.24479,-22.8177 7.22917,-23.7188 9.71875,-23.7188 C11.5729,-23.7188 13.0938,-23.1979 14.2813,-22.1563 C15.4688,-21.1146 16.1823,-19.6771 16.4219,-17.8438 M4.57813,-7.65625 C4.57813,-6.65625 4.78906,-5.70052 5.21094,-4.78906 C5.63281,-3.8776 6.22656,-3.18229 6.99219,-2.70313 C7.75781,-2.22396 8.55729,-1.98438 9.39063,-1.98438 C10.6198,-1.98438 11.6745,-2.47917 12.5547,-3.46875 C13.4349,-4.45833 13.875,-5.80208 13.875,-7.5 C13.875,-9.125 13.4401,-10.4089 12.5703,-11.3516 C11.7005,-12.2943 10.6042,-12.7656 9.28125,-12.7656 C7.96875,-12.7656 6.85677,-12.2943 5.94531,-11.3516 C5.03385,-10.4089 4.57813,-9.17708 4.57813,-7.65625 M19.375,-11.6563 C19.375,-14.4479 19.6615,-16.6953 20.2344,-18.3984 C20.8073,-20.1016 21.6615,-21.4141 22.7969,-22.3359 C23.9323,-23.2578 25.3594,-23.7188 27.0781,-23.7188 C28.3385,-23.7188 29.4479,-23.4635 30.4063,-22.9531 C31.3646,-22.4427 32.1536,-21.7057 32.7734,-20.7422 C33.3932,-19.7786 33.8828,-18.6068 34.2422,-17.2266 C34.6016,-15.8464 34.7813,-13.9896 34.7813,-11.6563 C34.7813,-8.88542 34.4948,-6.64844 33.9219,-4.94531 C33.349,-3.24219 32.4974,-1.92448 31.3672,-0.992188 C30.237,-0.0598958 28.8073,0.40625 27.0781,0.40625 C24.7969,0.40625 23.0052,-0.411458 21.7031,-2.04688 C20.151,-4.01563 19.375,-7.21875 19.375,-11.6563 M22.3438,-11.6563 C22.3438,-7.77083 22.7995,-5.1875 23.7109,-3.90625 C24.6224,-2.625 25.7448,-1.98438 27.0781,-1.98438 C28.401,-1.98438 29.5182,-2.6276 30.4297,-3.91406 C31.3411,-5.20052 31.7969,-7.78125 31.7969,-11.6563 C31.7969,-15.5417 31.3411,-18.1224 30.4297,-19.3984 C29.5182,-20.6745 28.3906,-21.3125 27.0469,-21.3125 C25.7135,-21.3125 24.6458,-20.75 23.8438,-19.625 C22.8438,-18.1875 22.3438,-15.5313 22.3438,-11.6563 "/>
</g>

<g fill="#d9d9d9" fill-opacity="1" stroke="none" transform="matrix(0.75,0,0,0.75,501.9,385)"
font-family="MS Shell Dlg 2" font-size="8.25" font-weight="400" font-style="normal" 
>
<path vector-effect="none" fill-rule="evenodd" d="M5.82813,-12.8125 C4.63021,-13.25 3.73958,-13.8776 3.15625,-14.6953 C2.57292,-15.513 2.28125,-16.4896 2.28125,-17.625 C2.28125,-19.3438 2.90104,-20.7891 4.14063,-21.9609 C5.38021,-23.1328 7.02604,-23.7188 9.07813,-23.7188 C11.1406,-23.7188 12.7995,-23.1198 14.0547,-21.9219 C15.3099,-20.724 15.9375,-19.2656 15.9375,-17.5469 C15.9375,-16.4531 15.651,-15.5 15.0781,-14.6875 C14.5052,-13.875 13.6302,-13.25 12.4531,-12.8125 C13.901,-12.3333 15.0052,-11.5677 15.7656,-10.5156 C16.526,-9.46354 16.9063,-8.20833 16.9063,-6.75 C16.9063,-4.72917 16.1901,-3.03125 14.7578,-1.65625 C13.3255,-0.28125 11.4479,0.40625 9.125,0.40625 C6.79167,0.40625 4.91146,-0.283854 3.48438,-1.66406 C2.05729,-3.04427 1.34375,-4.76563 1.34375,-6.82813 C1.34375,-8.36979 1.73177,-9.65885 2.50781,-10.6953 C3.28385,-11.7318 4.39063,-12.4375 5.82813,-12.8125 M5.25,-17.7188 C5.25,-16.6042 5.60938,-15.6927 6.32813,-14.9844 C7.04688,-14.276 7.98438,-13.9219 9.14063,-13.9219 C10.2552,-13.9219 11.1693,-14.2734 11.8828,-14.9766 C12.5964,-15.6797 12.9531,-16.5417 12.9531,-17.5625 C12.9531,-18.625 12.5859,-19.5182 11.8516,-20.2422 C11.1172,-20.9661 10.2031,-21.3281 9.10938,-21.3281 C7.99479,-21.3281 7.07292,-20.974 6.34375,-20.2656 C5.61458,-19.5573 5.25,-18.7083 5.25,-17.7188 M4.3125,-6.8125 C4.3125,-5.98958 4.51042,-5.1901 4.90625,-4.41406 C5.30208,-3.63802 5.88542,-3.03906 6.65625,-2.61719 C7.42708,-2.19531 8.26042,-1.98438 9.15625,-1.98438 C10.5417,-1.98438 11.6849,-2.42969 12.5859,-3.32031 C13.487,-4.21094 13.9375,-5.34375 13.9375,-6.71875 C13.9375,-8.11458 13.474,-9.26823 12.5469,-10.1797 C11.6198,-11.0911 10.4583,-11.5469 9.0625,-11.5469 C7.69792,-11.5469 6.5651,-11.0964 5.66406,-10.1953 C4.76302,-9.29427 4.3125,-8.16667 4.3125,-6.8125 M19.375,-11.6563 C19.375,-14.4479 19.6615,-16.6953 20.2344,-18.3984 C20.8073,-20.1016 21.6615,-21.4141 22.7969,-22.3359 C23.9323,-23.2578 25.3594,-23.7188 27.0781,-23.7188 C28.3385,-23.7188 29.4479,-23.4635 30.4063,-22.9531 C31.3646,-22.4427 32.1536,-21.7057 32.7734,-20.7422 C33.3932,-19.7786 33.8828,-18.6068 34.2422,-17.2266 C34.6016,-15.8464 34.7813,-13.9896 34.7813,-11.6563 C34.7813,-8.88542 34.4948,-6.64844 33.9219,-4.94531 C33.349,-3.24219 32.4974,-1.92448 31.3672,-0.992188 C30.237,-0.0598958 28.8073,0.40625 27.0781,0.40625 C24.7969,0.40625 23.0052,-0.411458 21.7031,-2.04688 C20.151,-4.01563 19.375,-7.21875 19.375,-11.6563 M22.3438,-11.6563 C22.3438,-7.77083 22.7995,-5.1875 23.7109,-3.90625 C24.6224,-2.625 25.7448,-1.98438 27.0781,-1.98438 C28.401,-1.98438 29.5182,-2.6276 30.4297,-3.91406 C31.3411,-5.20052 31.7969,-7.78125 31.7969,-11.6563 C31.7969,-15.5417 31.3411,-18.1224 30.4297,-19.3984 C29.5182,-20.6745 28.3906,-21.3125 27.0469,-21.3125 C25.7135,-21.3125 24.6458,-20.75 23.8438,-19.625 C22.8438,-18.1875 22.3438,-15.5313 22.3438,-11.6563 "/>
</g>

<g fill="#d9d9d9" fill-opacity="1" stroke="none" transform="matrix(0.75,0,0,0.75,600,385)"
font-family="MS Shell Dlg 2" font-size="8.25" font-weight="400" font-style="normal" 
>
<path vector-effect="none" fill-rule="evenodd" d="M12.2969,0 L9.39063,0 L9.39063,-18.4844 C8.69271,-17.8177 7.77865,-17.151 6.64844,-16.4844 C5.51823,-15.8177 4.5,-15.3177 3.59375,-14.9844 L3.59375,-17.7969 C5.21875,-18.5573 6.63802,-19.4792 7.85156,-20.5625 C9.0651,-21.6458 9.92188,-22.6979 10.4219,-23.7188 L12.2969,-23.7188 L12.2969,0 M19.375,-11.6563 C19.375,-14.4479 19.6615,-16.6953 20.2344,-18.3984 C20.8073,-20.1016 21.6615,-21.4141 22.7969,-22.3359 C23.9323,-23.2578 25.3594,-23.7188 27.0781,-23.7188 C28.3385,-23.7188 29.4479,-23.4635 30.4063,-22.9531 C31.3646,-22.4427 32.1536,-21.7057 32.7734,-20.7422 C33.3932,-19.7786 33.8828,-18.6068 34.2422,-17.2266 C34.6016,-15.8464 34.7813,-13.9896 34.7813,-11.6563 C34.7813,-8.88542 34.4948,-6.64844 33.9219,-4.94531 C33.349,-3.24219 32.4974,-1.92448 31.3672,-0.992188 C30.237,-0.0598958 28.8073,0.40625 27.0781,0.40625 C24.7969,0.40625 23.0052,-0.411458 21.7031,-2.04688 C20.151,-4.01563 19.375,-7.21875 19.375,-11.6563 M22.3438,-11.6563 C22.3438,-7.77083 22.7995,-5.1875 23.7109,-3.90625 C24.6224,-2.625 25.7448,-1.98438 27.0781,-1.98438 C28.401,-1.98438 29.5182,-2.6276 30.4297,-3.91406 C31.3411,-5.20052 31.7969,-7.78125 31.7969,-11.6563 C31.7969,-15.5417 31.3411,-18.1224 30.4297,-19.3984 C29.5182,-20.6745 28.3906,-21.3125 27.0469,-21.3125 C25.7135,-21.3125 24.6458,-20.75 23.8438,-19.625 C22.8438,-18.1875 22.3438,-15.5313 22.3438,-11.6563 M37.375,-11.6563 C37.375,-14.4479 37.6615,-16.6953 38.2344,-18.3984 C38.8073,-20.1016 39.6615,-21.4141 40.7969,-22.3359 C41.9323,-23.2578 43.3594,-23.7188 45.0781,-23.7188 C46.3385,-23.7188 47.4479,-23.4635 48.4063,-22.9531 C49.3646,-22.4427 50.1536,-21.7057 50.7734,-20.7422 C51.3932,-19.7786 51.8828,-18.6068 52.2422,-17.2266 C52.6016,-15.8464 52.7813,-13.9896 52.7813,-11.6563 C52.7813,-8.88542 52.4948,-6.64844 51.9219,-4.94531 C51.349,-3.24219 50.4974,-1.92448 49.3672,-0.992188 C48.237,-0.0598958 46.8073,0.40625 45.0781,0.40625 C42.7969,0.40625 41.0052,-0.411458 39.7031,-2.04688 C38.151,-4.01563 37.375,-7.21875 37.375,-11.6563 M40.3438,-11.6563 C40.3438,-7.77083 40.7995,-5.1875 41.7109,-3.90625 C42.6224,-2.625 43.7448,-1.98438 45.0781,-1.98438 C46.401,-1.98438 47.5182,-2.6276 48.4297,-3.91406 C49.3411,-5.20052 49.7969,-7.78125 49.7969,-11.6563 C49.7969,-15.5417 49.3411,-18.1224 48.4297,-19.3984 C47.5182,-20.6745 46.3906,-21.3125 45.0469,-21.3125 C43.7135,-21.3125 42.6458,-20.75 41.8438,-19.625 C40.8438,-18.1875 40.3438,-15.5313 40.3438,-11.6563 "/>
</g>

<g fill="#d9d9d9" fill-opacity="1" stroke="none" transform="matrix(0,-0.75,0.75,0,27.3499,326.42)"
font-family="MS Shell Dlg 2" font-size="8.25" font-weight="400" font-style="normal" 
>
<path vector-effect="none" fill-rule="evenodd" d="M8.20313,-3.84375 C9.02604,-2.80208 10.0521,-1.97917 11.2813,-1.375 C12.5104,-0.770833 13.7917,-0.46875 15.125,-0.46875 C16.2292,-0.46875 17.2578,-0.690104 18.2109,-1.13281 C19.1641,-1.57552 19.9948,-2.1901 20.7031,-2.97656 C21.4115,-3.76302 21.9557,-4.65365 22.3359,-5.64844 C22.7161,-6.64323 22.9063,-7.69271 22.9063,-8.79688 C22.9063,-8.98438 23.0104,-9.07813 23.2188,-9.07813 L23.6563,-9.07813 C23.8438,-9.07813 23.9375,-8.95833 23.9375,-8.71875 C23.9375,-7.46875 23.6979,-6.26042 23.2188,-5.09375 C22.7396,-3.92708 22.0599,-2.90104 21.1797,-2.01563 C20.2995,-1.13021 19.2891,-0.440104 18.1484,0.0546875 C17.0078,0.549479 15.8177,0.796875 14.5781,0.796875 C12.849,0.796875 11.2135,0.447917 9.67188,-0.25 C8.13021,-0.947917 6.78906,-1.90365 5.64844,-3.11719 C4.50781,-4.33073 3.61719,-5.73438 2.97656,-7.32813 C2.33594,-8.92188 2.01563,-10.5833 2.01563,-12.3125 C2.01563,-14.0313 2.33594,-15.6875 2.97656,-17.2813 C3.61719,-18.875 4.50781,-20.2813 5.64844,-21.5 C6.78906,-22.7188 8.13021,-23.6719 9.67188,-24.3594 C11.2135,-25.0469 12.849,-25.3906 14.5781,-25.3906 C15.8073,-25.3906 16.9844,-25.1224 18.1094,-24.5859 C19.2344,-24.0495 20.2188,-23.2969 21.0625,-22.3281 L23.1563,-25.2813 C23.2917,-25.3542 23.3698,-25.3906 23.3906,-25.3906 L23.6563,-25.3906 C23.7292,-25.3906 23.7943,-25.3594 23.8516,-25.2969 C23.9089,-25.2344 23.9375,-25.1615 23.9375,-25.0781 L23.9375,-15.3594 C23.9375,-15.151 23.8438,-15.0469 23.6563,-15.0469 L23.0156,-15.0469 C22.7865,-15.0469 22.6719,-15.151 22.6719,-15.3594 C22.6719,-16.0573 22.5339,-16.8333 22.2578,-17.6875 C21.9818,-18.5417 21.6302,-19.3516 21.2031,-20.1172 C20.776,-20.8828 20.2813,-21.5625 19.7188,-22.1563 C18.375,-23.4688 16.8281,-24.125 15.0781,-24.125 C13.7552,-24.125 12.487,-23.8255 11.2734,-23.2266 C10.0599,-22.6276 9.03646,-21.8021 8.20313,-20.75 C7.32813,-19.625 6.72135,-18.3438 6.38281,-16.9063 C6.04427,-15.4688 5.875,-13.9375 5.875,-12.3125 C5.875,-10.6771 6.04427,-9.13802 6.38281,-7.69531 C6.72135,-6.2526 7.32813,-4.96875 8.20313,-3.84375 "/>
</g>

<g fill="#d9d9d9" fill-opacity="1" stroke="none" transform="matrix(0,-0.75,0.75,0,27.3499,306.559)"
font-family="MS Shell Dlg 2" font-size="8.25" font-weight="400" font-style="normal" 
>
<path vector-effect="none" fill-rule="evenodd" d="M9,0.40625 C7.5625,0.40625 6.22656,0.0390625 4.99219,-0.695313 C3.75781,-1.42969 2.78385,-2.41146 2.07031,-3.64063 C1.35677,-4.86979 1,-6.21354 1,-7.67188 C1,-8.76563 1.19792,-9.82292 1.59375,-10.8438 C1.98958,-11.8646 2.55208,-12.776 3.28125,-13.5781 C4.01042,-14.3802 4.86198,-15.0078 5.83594,-15.4609 C6.8099,-15.9141 7.86458,-16.1406 9,-16.1406 C10.4792,-16.1406 11.8255,-15.75 13.0391,-14.9688 C14.2526,-14.1875 15.2109,-13.1432 15.9141,-11.8359 C16.6172,-10.5286 16.9688,-9.14063 16.9688,-7.67188 C16.9688,-6.22396 16.6094,-4.88281 15.8906,-3.64844 C15.1719,-2.41406 14.2005,-1.42969 12.9766,-0.695313 C11.7526,0.0390625 10.4271,0.40625 9,0.40625 M9,-0.671875 C10.9271,-0.671875 12.2109,-1.36719 12.8516,-2.75781 C13.4922,-4.14844 13.8125,-5.91667 13.8125,-8.0625 C13.8125,-9.27083 13.75,-10.2682 13.625,-11.0547 C13.5,-11.8411 13.2188,-12.5573 12.7813,-13.2031 C12.5104,-13.599 12.1667,-13.9479 11.75,-14.25 C11.3333,-14.5521 10.8932,-14.7813 10.4297,-14.9375 C9.96615,-15.0938 9.48958,-15.1719 9,-15.1719 C8.25,-15.1719 7.53906,-15.0026 6.86719,-14.6641 C6.19531,-14.3255 5.63542,-13.8385 5.1875,-13.2031 C4.73958,-12.526 4.45573,-11.7813 4.33594,-10.9688 C4.21615,-10.1563 4.15625,-9.1875 4.15625,-8.0625 C4.15625,-6.71875 4.27344,-5.51302 4.50781,-4.44531 C4.74219,-3.3776 5.21354,-2.48177 5.92188,-1.75781 C6.63021,-1.03385 7.65625,-0.671875 9,-0.671875 "/>
</g>

<g fill="#d9d9d9" fill-opacity="1" stroke="none" transform="matrix(0,-0.75,0.75,0,27.3499,292.809)"
font-family="MS Shell Dlg 2" font-size="8.25" font-weight="400" font-style="normal" 
>
<path vector-effect="none" fill-rule="evenodd" d="M1.07813,0 L1.07813,-1.26563 C1.89063,-1.26563 2.5625,-1.33073 3.09375,-1.46094 C3.625,-1.59115 3.89063,-1.90625 3.89063,-2.40625 L3.89063,-12.2344 C3.89063,-12.8802 3.79427,-13.3464 3.60156,-13.6328 C3.40885,-13.9193 3.13021,-14.0938 2.76563,-14.1563 C2.40104,-14.2188 1.83854,-14.25 1.07813,-14.25 L1.07813,-15.5156 L6.29688,-15.9063 L6.29688,-12.3906 C6.77604,-13.4219 7.48698,-14.2656 8.42969,-14.9219 C9.3724,-15.5781 10.401,-15.9063 11.5156,-15.9063 C13.1823,-15.9063 14.4349,-15.5078 15.2734,-14.7109 C16.112,-13.9141 16.5313,-12.6979 16.5313,-11.0625 L16.5313,-2.40625 C16.5313,-1.90625 16.7943,-1.59115 17.3203,-1.46094 C17.8464,-1.33073 18.5208,-1.26563 19.3438,-1.26563 L19.3438,0 L11.0938,0 L11.0938,-1.26563 C11.9167,-1.26563 12.5911,-1.33073 13.1172,-1.46094 C13.6432,-1.59115 13.9063,-1.90625 13.9063,-2.40625 L13.9063,-10.9531 C13.9063,-12.1198 13.737,-13.0833 13.3984,-13.8438 C13.0599,-14.6042 12.3594,-14.9844 11.2969,-14.9844 C9.91146,-14.9844 8.76823,-14.4271 7.86719,-13.3125 C6.96615,-12.1979 6.51563,-10.9323 6.51563,-9.51563 L6.51563,-2.40625 C6.51563,-1.90625 6.78125,-1.59115 7.3125,-1.46094 C7.84375,-1.33073 8.51042,-1.26563 9.3125,-1.26563 L9.3125,0 L1.07813,0"/>
</g>

<g fill="#d9d9d9" fill-opacity="1" stroke="none" transform="matrix(0,-0.75,0.75,0,27.3499,277.531)"
font-family="MS Shell Dlg 2" font-size="8.25" font-weight="400" font-style="normal" 
>
<path vector-effect="none" fill-rule="evenodd" d="M8.96875,0.40625 C7.51042,0.40625 6.1901,0.0286458 5.00781,-0.726563 C3.82552,-1.48177 2.89583,-2.48958 2.21875,-3.75 C1.54167,-5.01042 1.20313,-6.34896 1.20313,-7.76563 C1.20313,-9.18229 1.53906,-10.5417 2.21094,-11.8438 C2.88281,-13.1458 3.8125,-14.1875 5,-14.9688 C6.1875,-15.75 7.51042,-16.1406 8.96875,-16.1406 C10.375,-16.1406 11.6536,-15.8646 12.8047,-15.3125 C13.9557,-14.7604 14.5313,-13.8542 14.5313,-12.5938 C14.5313,-12.125 14.3646,-11.7188 14.0313,-11.375 C13.6979,-11.0313 13.2917,-10.8594 12.8125,-10.8594 C12.3333,-10.8594 11.9271,-11.0313 11.5938,-11.375 C11.2604,-11.7188 11.0938,-12.125 11.0938,-12.5938 C11.0938,-13.0104 11.2292,-13.375 11.5,-13.6875 C11.7708,-14 12.1042,-14.1979 12.5,-14.2813 C11.6667,-14.8021 10.5,-15.0625 9,-15.0625 C7.85417,-15.0625 6.92969,-14.6823 6.22656,-13.9219 C5.52344,-13.1615 5.03125,-12.2214 4.75,-11.1016 C4.46875,-9.98177 4.32813,-8.86979 4.32813,-7.76563 C4.32813,-6.60938 4.5,-5.49219 4.84375,-4.41406 C5.1875,-3.33594 5.74479,-2.44271 6.51563,-1.73438 C7.28646,-1.02604 8.25,-0.671875 9.40625,-0.671875 C10.5417,-0.671875 11.5078,-1.01823 12.3047,-1.71094 C13.1016,-2.40365 13.6458,-3.3125 13.9375,-4.4375 C13.9375,-4.58333 14.0313,-4.65625 14.2188,-4.65625 L14.6563,-4.65625 C14.7292,-4.65625 14.7943,-4.6224 14.8516,-4.55469 C14.9089,-4.48698 14.9375,-4.41146 14.9375,-4.32813 L14.9375,-4.23438 C14.5729,-2.80729 13.8516,-1.67708 12.7734,-0.84375 C11.6953,-0.0104167 10.4271,0.40625 8.96875,0.40625 "/>
</g>

<g fill="#d9d9d9" fill-opacity="1" stroke="none" transform="matrix(0,-0.75,0.75,0,27.3499,265.309)"
font-family="MS Shell Dlg 2" font-size="8.25" font-weight="400" font-style="normal" 
>
<path vector-effect="none" fill-rule="evenodd" d="M8.96875,0.40625 C7.5,0.40625 6.15365,0.0208333 4.92969,-0.75 C3.70573,-1.52083 2.74479,-2.54688 2.04688,-3.82813 C1.34896,-5.10938 1,-6.46354 1,-7.89063 C1,-9.29688 1.32031,-10.6328 1.96094,-11.8984 C2.60156,-13.1641 3.49219,-14.1875 4.63281,-14.9688 C5.77344,-15.75 7.04688,-16.1406 8.45313,-16.1406 C9.55729,-16.1406 10.5156,-15.9557 11.3281,-15.5859 C12.1406,-15.2161 12.8125,-14.7031 13.3438,-14.0469 C13.875,-13.3906 14.2734,-12.6172 14.5391,-11.7266 C14.8047,-10.8359 14.9375,-9.85938 14.9375,-8.79688 C14.9375,-8.47396 14.8177,-8.3125 14.5781,-8.3125 L4.15625,-8.3125 L4.15625,-7.92188 C4.15625,-5.94271 4.55729,-4.23958 5.35938,-2.8125 C6.16146,-1.38542 7.46875,-0.671875 9.28125,-0.671875 C10.0208,-0.671875 10.7031,-0.835938 11.3281,-1.16406 C11.9531,-1.49219 12.4974,-1.94792 12.9609,-2.53125 C13.4245,-3.11458 13.7396,-3.73958 13.9063,-4.40625 C13.9271,-4.48958 13.9714,-4.5625 14.0391,-4.625 C14.1068,-4.6875 14.1771,-4.71875 14.25,-4.71875 L14.5781,-4.71875 C14.8177,-4.71875 14.9375,-4.56771 14.9375,-4.26563 C14.6042,-2.90104 13.875,-1.78125 12.75,-0.90625 C11.625,-0.03125 10.3646,0.40625 8.96875,0.40625 M4.1875,-9.21875 L12.3906,-9.21875 C12.3906,-10.1146 12.2656,-11.0234 12.0156,-11.9453 C11.7656,-12.8672 11.3464,-13.6354 10.7578,-14.25 C10.1693,-14.8646 9.40104,-15.1719 8.45313,-15.1719 C7.09896,-15.1719 6.04948,-14.5365 5.30469,-13.2656 C4.5599,-11.9948 4.1875,-10.6458 4.1875,-9.21875 "/>
</g>

<g fill="#d9d9d9" fill-opacity="1" stroke="none" transform="matrix(0,-0.75,0.75,0,27.3499,253.087)"
font-family="MS Shell Dlg 2" font-size="8.25" font-weight="400" font-style="normal" 
>
<path vector-effect="none" fill-rule="evenodd" d="M1.07813,0 L1.07813,-1.26563 C1.89063,-1.26563 2.5625,-1.33073 3.09375,-1.46094 C3.625,-1.59115 3.89063,-1.90625 3.89063,-2.40625 L3.89063,-12.2344 C3.89063,-12.8802 3.79427,-13.3464 3.60156,-13.6328 C3.40885,-13.9193 3.13021,-14.0938 2.76563,-14.1563 C2.40104,-14.2188 1.83854,-14.25 1.07813,-14.25 L1.07813,-15.5156 L6.29688,-15.9063 L6.29688,-12.3906 C6.77604,-13.4219 7.48698,-14.2656 8.42969,-14.9219 C9.3724,-15.5781 10.401,-15.9063 11.5156,-15.9063 C13.1823,-15.9063 14.4349,-15.5078 15.2734,-14.7109 C16.112,-13.9141 16.5313,-12.6979 16.5313,-11.0625 L16.5313,-2.40625 C16.5313,-1.90625 16.7943,-1.59115 17.3203,-1.46094 C17.8464,-1.33073 18.5208,-1.26563 19.3438,-1.26563 L19.3438,0 L11.0938,0 L11.0938,-1.26563 C11.9167,-1.26563 12.5911,-1.33073 13.1172,-1.46094 C13.6432,-1.59115 13.9063,-1.90625 13.9063,-2.40625 L13.9063,-10.9531 C13.9063,-12.1198 13.737,-13.0833 13.3984,-13.8438 C13.0599,-14.6042 12.3594,-14.9844 11.2969,-14.9844 C9.91146,-14.9844 8.76823,-14.4271 7.86719,-13.3125 C6.96615,-12.1979 6.51563,-10.9323 6.51563,-9.51563 L6.51563,-2.40625 C6.51563,-1.90625 6.78125,-1.59115 7.3125,-1.46094 C7.84375,-1.33073 8.51042,-1.26563 9.3125,-1.26563 L9.3125,0 L1.07813,0"/>
</g>

<g fill="#d9d9d9" fill-opacity="1" stroke="none" transform="matrix(0,-0.75,0.75,0,27.3499,238.573)"
font-family="MS Shell Dlg 2" font-size="8.25" font-weight="400" font-style="normal" 
>
<path vector-effect="none" fill-rule="evenodd" d="M3.67188,-4.32813 L3.67188,-14.25 L0.6875,-14.25 L0.6875,-15.1875 C2.26042,-15.1875 3.41406,-15.9193 4.14844,-17.3828 C4.88281,-18.8464 5.25,-20.4375 5.25,-22.1563 L6.29688,-22.1563 L6.29688,-15.5156 L11.375,-15.5156 L11.375,-14.25 L6.29688,-14.25 L6.29688,-4.40625 C6.29688,-3.41667 6.46354,-2.54688 6.79688,-1.79688 C7.13021,-1.04688 7.72917,-0.671875 8.59375,-0.671875 C9.41667,-0.671875 10.0104,-1.0651 10.375,-1.85156 C10.7396,-2.63802 10.9219,-3.48958 10.9219,-4.40625 L10.9219,-6.53125 L11.9531,-6.53125 L11.9531,-4.32813 C11.9531,-3.57813 11.8151,-2.83594 11.5391,-2.10156 C11.263,-1.36719 10.8568,-0.765625 10.3203,-0.296875 C9.78385,0.171875 9.125,0.40625 8.34375,0.40625 C6.90625,0.40625 5.76823,-0.0260417 4.92969,-0.890625 C4.09115,-1.75521 3.67188,-2.90104 3.67188,-4.32813 "/>
</g>

<g fill="#d9d9d9" fill-opacity="1" stroke="none" transform="matrix(0,-0.75,0.75,0,27.3499,227.879)"
font-family="MS Shell Dlg 2" font-size="8.25" font-weight="400" font-style="normal" 
>
<path vector-effect="none" fill-rule="evenodd" d="M0.9375,0 L0.9375,-1.26563 C1.75,-1.26563 2.42188,-1.33073 2.95313,-1.46094 C3.48438,-1.59115 3.75,-1.90625 3.75,-2.40625 L3.75,-12.2344 C3.75,-12.8802 3.65365,-13.3464 3.46094,-13.6328 C3.26823,-13.9193 2.98958,-14.0938 2.625,-14.1563 C2.26042,-14.2188 1.69792,-14.25 0.9375,-14.25 L0.9375,-15.5156 L6.07813,-15.9063 L6.07813,-12.3906 C6.46354,-13.4323 7.01563,-14.2786 7.73438,-14.9297 C8.45313,-15.5807 9.32292,-15.9063 10.3438,-15.9063 C11.0521,-15.9063 11.6875,-15.6953 12.25,-15.2734 C12.8125,-14.8516 13.0938,-14.2969 13.0938,-13.6094 C13.0938,-13.1719 12.9401,-12.7917 12.6328,-12.4688 C12.3255,-12.1458 11.9427,-11.9844 11.4844,-11.9844 C11.0365,-11.9844 10.6536,-12.1432 10.3359,-12.4609 C10.0182,-12.7786 9.85938,-13.1615 9.85938,-13.6094 C9.85938,-14.2552 10.0885,-14.7135 10.5469,-14.9844 L10.3438,-14.9844 C9.36458,-14.9844 8.56771,-14.6328 7.95313,-13.9297 C7.33854,-13.2266 6.90365,-12.3516 6.64844,-11.3047 C6.39323,-10.2578 6.26563,-9.26042 6.26563,-8.3125 L6.26563,-2.40625 C6.26563,-1.64583 7.42708,-1.26563 9.75,-1.26563 L9.75,0 L0.9375,0"/>
</g>

<g fill="#d9d9d9" fill-opacity="1" stroke="none" transform="matrix(0,-0.75,0.75,0,27.3499,217.108)"
font-family="MS Shell Dlg 2" font-size="8.25" font-weight="400" font-style="normal" 
>
<path vector-effect="none" fill-rule="evenodd" d="M1.4375,-3.53125 C1.4375,-4.95833 2,-6.1224 3.125,-7.02344 C4.25,-7.92448 5.60156,-8.55729 7.17969,-8.92188 C8.75781,-9.28646 10.2552,-9.46875 11.6719,-9.46875 L11.6719,-10.9531 C11.6719,-11.6406 11.5208,-12.3073 11.2188,-12.9531 C10.9167,-13.599 10.4766,-14.1302 9.89844,-14.5469 C9.32031,-14.9635 8.6875,-15.1719 8,-15.1719 C6.40625,-15.1719 5.19271,-14.8125 4.35938,-14.0938 C4.81771,-14.0938 5.19531,-13.9219 5.49219,-13.5781 C5.78906,-13.2344 5.9375,-12.8385 5.9375,-12.3906 C5.9375,-11.9115 5.76823,-11.5026 5.42969,-11.1641 C5.09115,-10.8255 4.6875,-10.6563 4.21875,-10.6563 C3.73958,-10.6563 3.33073,-10.8255 2.99219,-11.1641 C2.65365,-11.5026 2.48438,-11.9115 2.48438,-12.3906 C2.48438,-13.6615 3.05729,-14.6042 4.20313,-15.2188 C5.34896,-15.8333 6.61458,-16.1406 8,-16.1406 C8.96875,-16.1406 9.94531,-15.9323 10.9297,-15.5156 C11.9141,-15.099 12.7214,-14.5052 13.3516,-13.7344 C13.9818,-12.9635 14.2969,-12.0625 14.2969,-11.0313 L14.2969,-2.9375 C14.2969,-2.46875 14.3958,-2.03906 14.5938,-1.64844 C14.7917,-1.25781 15.099,-1.0625 15.5156,-1.0625 C15.9219,-1.0625 16.2214,-1.25781 16.4141,-1.64844 C16.6068,-2.03906 16.7031,-2.46354 16.7031,-2.92188 L16.7031,-5.20313 L17.75,-5.20313 L17.75,-2.90625 C17.75,-2.375 17.6094,-1.86458 17.3281,-1.375 C17.0469,-0.885417 16.6693,-0.497396 16.1953,-0.210938 C15.7214,0.0755208 15.2083,0.21875 14.6563,0.21875 C13.9583,0.21875 13.3542,-0.0572917 12.8438,-0.609375 C12.3333,-1.16146 12.0469,-1.8125 11.9844,-2.5625 C11.5469,-1.65625 10.8932,-0.934896 10.0234,-0.398438 C9.15365,0.138021 8.22917,0.40625 7.25,0.40625 C6.33333,0.40625 5.43229,0.270833 4.54688,0 C3.66146,-0.270833 2.92188,-0.695313 2.32813,-1.27344 C1.73438,-1.85156 1.4375,-2.60417 1.4375,-3.53125 M4.35938,-3.53125 C4.35938,-2.69792 4.66927,-1.99479 5.28906,-1.42188 C5.90885,-0.848958 6.64063,-0.5625 7.48438,-0.5625 C8.26563,-0.5625 8.97135,-0.755208 9.60156,-1.14063 C10.2318,-1.52604 10.7344,-2.05208 11.1094,-2.71875 C11.4844,-3.38542 11.6719,-4.08333 11.6719,-4.8125 L11.6719,-8.54688 C10.5781,-8.54688 9.46094,-8.36719 8.32031,-8.00781 C7.17969,-7.64844 6.23438,-7.09115 5.48438,-6.33594 C4.73438,-5.58073 4.35938,-4.64583 4.35938,-3.53125 "/>
</g>

<g fill="#d9d9d9" fill-opacity="1" stroke="none" transform="matrix(0,-0.75,0.75,0,27.3499,203.358)"
font-family="MS Shell Dlg 2" font-size="8.25" font-weight="400" font-style="normal" 
>
<path vector-effect="none" fill-rule="evenodd" d="M3.67188,-4.32813 L3.67188,-14.25 L0.6875,-14.25 L0.6875,-15.1875 C2.26042,-15.1875 3.41406,-15.9193 4.14844,-17.3828 C4.88281,-18.8464 5.25,-20.4375 5.25,-22.1563 L6.29688,-22.1563 L6.29688,-15.5156 L11.375,-15.5156 L11.375,-14.25 L6.29688,-14.25 L6.29688,-4.40625 C6.29688,-3.41667 6.46354,-2.54688 6.79688,-1.79688 C7.13021,-1.04688 7.72917,-0.671875 8.59375,-0.671875 C9.41667,-0.671875 10.0104,-1.0651 10.375,-1.85156 C10.7396,-2.63802 10.9219,-3.48958 10.9219,-4.40625 L10.9219,-6.53125 L11.9531,-6.53125 L11.9531,-4.32813 C11.9531,-3.57813 11.8151,-2.83594 11.5391,-2.10156 C11.263,-1.36719 10.8568,-0.765625 10.3203,-0.296875 C9.78385,0.171875 9.125,0.40625 8.34375,0.40625 C6.90625,0.40625 5.76823,-0.0260417 4.92969,-0.890625 C4.09115,-1.75521 3.67188,-2.90104 3.67188,-4.32813 "/>
</g>

<g fill="#d9d9d9" fill-opacity="1" stroke="none" transform="matrix(0,-0.75,0.75,0,27.3499,192.663)"
font-family="MS Shell Dlg 2" font-size="8.25" font-weight="400" font-style="normal" 
>
<path vector-effect="none" fill-rule="evenodd" d="M1.10938,0 L1.10938,-1.26563 C1.93229,-1.26563 2.60677,-1.33073 3.13281,-1.46094 C3.65885,-1.59115 3.92188,-1.90625 3.92188,-2.40625 L3.92188,-12.2344 C3.92188,-13.1615 3.74219,-13.7292 3.38281,-13.9375 C3.02344,-14.1458 2.31771,-14.25 1.26563,-14.25 L1.26563,-15.5156 L6.45313,-15.9063 L6.45313,-2.40625 C6.45313,-1.90625 6.68229,-1.59115 7.14063,-1.46094 C7.59896,-1.33073 8.20833,-1.26563 8.96875,-1.26563 L8.96875,0 L1.10938,0 M2.64063,-22.0938 C2.64063,-22.625 2.83854,-23.0885 3.23438,-23.4844 C3.63021,-23.8802 4.08854,-24.0781 4.60938,-24.0781 C4.94271,-24.0781 5.26823,-23.9922 5.58594,-23.8203 C5.90365,-23.6484 6.15104,-23.4036 6.32813,-23.0859 C6.50521,-22.7682 6.59375,-22.4375 6.59375,-22.0938 C6.59375,-21.5833 6.39323,-21.1276 5.99219,-20.7266 C5.59115,-20.3255 5.13021,-20.125 4.60938,-20.125 C4.08854,-20.125 3.63021,-20.3255 3.23438,-20.7266 C2.83854,-21.1276 2.64063,-21.5833 2.64063,-22.0938 "/>
</g>

<g fill="#d9d9d9" fill-opacity="1" stroke="none" transform="matrix(0,-0.75,0.75,0,27.3499,185.024)"
font-family="MS Shell Dlg 2" font-size="8.25" font-weight="400" font-style="normal" 
>
<path vector-effect="none" fill-rule="evenodd" d="M9,0.40625 C7.5625,0.40625 6.22656,0.0390625 4.99219,-0.695313 C3.75781,-1.42969 2.78385,-2.41146 2.07031,-3.64063 C1.35677,-4.86979 1,-6.21354 1,-7.67188 C1,-8.76563 1.19792,-9.82292 1.59375,-10.8438 C1.98958,-11.8646 2.55208,-12.776 3.28125,-13.5781 C4.01042,-14.3802 4.86198,-15.0078 5.83594,-15.4609 C6.8099,-15.9141 7.86458,-16.1406 9,-16.1406 C10.4792,-16.1406 11.8255,-15.75 13.0391,-14.9688 C14.2526,-14.1875 15.2109,-13.1432 15.9141,-11.8359 C16.6172,-10.5286 16.9688,-9.14063 16.9688,-7.67188 C16.9688,-6.22396 16.6094,-4.88281 15.8906,-3.64844 C15.1719,-2.41406 14.2005,-1.42969 12.9766,-0.695313 C11.7526,0.0390625 10.4271,0.40625 9,0.40625 M9,-0.671875 C10.9271,-0.671875 12.2109,-1.36719 12.8516,-2.75781 C13.4922,-4.14844 13.8125,-5.91667 13.8125,-8.0625 C13.8125,-9.27083 13.75,-10.2682 13.625,-11.0547 C13.5,-11.8411 13.2188,-12.5573 12.7813,-13.2031 C12.5104,-13.599 12.1667,-13.9479 11.75,-14.25 C11.3333,-14.5521 10.8932,-14.7813 10.4297,-14.9375 C9.96615,-15.0938 9.48958,-15.1719 9,-15.1719 C8.25,-15.1719 7.53906,-15.0026 6.86719,-14.6641 C6.19531,-14.3255 5.63542,-13.8385 5.1875,-13.2031 C4.73958,-12.526 4.45573,-11.7813 4.33594,-10.9688 C4.21615,-10.1563 4.15625,-9.1875 4.15625,-8.0625 C4.15625,-6.71875 4.27344,-5.51302 4.50781,-4.44531 C4.74219,-3.3776 5.21354,-2.48177 5.92188,-1.75781 C6.63021,-1.03385 7.65625,-0.671875 9,-0.671875 "/>
</g>

<g fill="#d9d9d9" fill-opacity="1" stroke="none" transform="matrix(0,-0.75,0.75,0,27.3499,171.274)"
font-family="MS Shell Dlg 2" font-size="8.25" font-weight="400" font-style="normal" 
>
<path vector-effect="none" fill-rule="evenodd" d="M1.07813,0 L1.07813,-1.26563 C1.89063,-1.26563 2.5625,-1.33073 3.09375,-1.46094 C3.625,-1.59115 3.89063,-1.90625 3.89063,-2.40625 L3.89063,-12.2344 C3.89063,-12.8802 3.79427,-13.3464 3.60156,-13.6328 C3.40885,-13.9193 3.13021,-14.0938 2.76563,-14.1563 C2.40104,-14.2188 1.83854,-14.25 1.07813,-14.25 L1.07813,-15.5156 L6.29688,-15.9063 L6.29688,-12.3906 C6.77604,-13.4219 7.48698,-14.2656 8.42969,-14.9219 C9.3724,-15.5781 10.401,-15.9063 11.5156,-15.9063 C13.1823,-15.9063 14.4349,-15.5078 15.2734,-14.7109 C16.112,-13.9141 16.5313,-12.6979 16.5313,-11.0625 L16.5313,-2.40625 C16.5313,-1.90625 16.7943,-1.59115 17.3203,-1.46094 C17.8464,-1.33073 18.5208,-1.26563 19.3438,-1.26563 L19.3438,0 L11.0938,0 L11.0938,-1.26563 C11.9167,-1.26563 12.5911,-1.33073 13.1172,-1.46094 C13.6432,-1.59115 13.9063,-1.90625 13.9063,-2.40625 L13.9063,-10.9531 C13.9063,-12.1198 13.737,-13.0833 13.3984,-13.8438 C13.0599,-14.6042 12.3594,-14.9844 11.2969,-14.9844 C9.91146,-14.9844 8.76823,-14.4271 7.86719,-13.3125 C6.96615,-12.1979 6.51563,-10.9323 6.51563,-9.51563 L6.51563,-2.40625 C6.51563,-1.90625 6.78125,-1.59115 7.3125,-1.46094 C7.84375,-1.33073 8.51042,-1.26563 9.3125,-1.26563 L9.3125,0 L1.07813,0"/>
</g>

<g fill="#d9d9d9" fill-opacity="1" stroke="none" transform="matrix(0,-0.75,0.75,0,27.3499,146.83)"
font-family="MS Shell Dlg 2" font-size="8.25" font-weight="400" font-style="normal" 
>
<path vector-effect="none" fill-rule="evenodd" d="M4.25,9 L4.25,-27 L9.17188,-27 L9.17188,-25.5625 L5.70313,-25.5625 L5.70313,7.5625 L9.17188,7.5625 L9.17188,9 L4.25,9"/>
</g>

<g fill="#d9d9d9" fill-opacity="1" stroke="none" transform="matrix(0,-0.75,0.75,0,27.3499,139.191)"
font-family="MS Shell Dlg 2" font-size="8.25" font-weight="400" font-style="normal" 
>
<path vector-effect="none" fill-rule="evenodd" d="M1.07813,0 L1.07813,-1.26563 C1.89063,-1.26563 2.5625,-1.33073 3.09375,-1.46094 C3.625,-1.59115 3.89063,-1.90625 3.89063,-2.40625 L3.89063,-12.2344 C3.89063,-12.8802 3.79427,-13.3464 3.60156,-13.6328 C3.40885,-13.9193 3.13021,-14.0938 2.76563,-14.1563 C2.40104,-14.2188 1.83854,-14.25 1.07813,-14.25 L1.07813,-15.5156 L6.29688,-15.9063 L6.29688,-12.3906 C6.77604,-13.4219 7.48698,-14.2656 8.42969,-14.9219 C9.3724,-15.5781 10.401,-15.9063 11.5156,-15.9063 C14.276,-15.9063 15.901,-14.7813 16.3906,-12.5313 C16.8698,-13.5417 17.5703,-14.3568 18.4922,-14.9766 C19.4141,-15.5964 20.4271,-15.9063 21.5313,-15.9063 C22.625,-15.9063 23.5443,-15.7318 24.2891,-15.3828 C25.0339,-15.0339 25.5938,-14.4974 25.9688,-13.7734 C26.3438,-13.0495 26.5313,-12.1458 26.5313,-11.0625 L26.5313,-2.40625 C26.5313,-1.90625 26.7969,-1.59115 27.3281,-1.46094 C27.8594,-1.33073 28.5313,-1.26563 29.3438,-1.26563 L29.3438,0 L21.0938,0 L21.0938,-1.26563 C21.9167,-1.26563 22.5911,-1.33073 23.1172,-1.46094 C23.6432,-1.59115 23.9063,-1.90625 23.9063,-2.40625 L23.9063,-10.9531 C23.9063,-12.1615 23.737,-13.1354 23.3984,-13.875 C23.0599,-14.6146 22.3646,-14.9844 21.3125,-14.9844 C19.9271,-14.9844 18.7839,-14.4271 17.8828,-13.3125 C16.9818,-12.1979 16.5313,-10.9323 16.5313,-9.51563 L16.5313,-2.40625 C16.5313,-1.90625 16.7943,-1.59115 17.3203,-1.46094 C17.8464,-1.33073 18.5208,-1.26563 19.3438,-1.26563 L19.3438,0 L11.0938,0 L11.0938,-1.26563 C11.9167,-1.26563 12.5911,-1.33073 13.1172,-1.46094 C13.6432,-1.59115 13.9063,-1.90625 13.9063,-2.40625 L13.9063,-10.9531 C13.9063,-12.1198 13.737,-13.0833 13.3984,-13.8438 C13.0599,-14.6042 12.3594,-14.9844 11.2969,-14.9844 C9.91146,-14.9844 8.76823,-14.4271 7.86719,-13.3125 C6.96615,-12.1979 6.51563,-10.9323 6.51563,-9.51563 L6.51563,-2.40625 C6.51563,-1.90625 6.78125,-1.59115 7.3125,-1.46094 C7.84375,-1.33073 8.51042,-1.26563 9.3125,-1.26563 L9.3125,0 L1.07813,0"/>
</g>

<g fill="#d9d9d9" fill-opacity="1" stroke="none" transform="matrix(0,-0.75,0.75,0,27.3499,116.274)"
font-family="MS Shell Dlg 2" font-size="8.25" font-weight="400" font-style="normal" 
>
<path vector-effect="none" fill-rule="evenodd" d="M9,0.40625 C7.5625,0.40625 6.22656,0.0390625 4.99219,-0.695313 C3.75781,-1.42969 2.78385,-2.41146 2.07031,-3.64063 C1.35677,-4.86979 1,-6.21354 1,-7.67188 C1,-8.76563 1.19792,-9.82292 1.59375,-10.8438 C1.98958,-11.8646 2.55208,-12.776 3.28125,-13.5781 C4.01042,-14.3802 4.86198,-15.0078 5.83594,-15.4609 C6.8099,-15.9141 7.86458,-16.1406 9,-16.1406 C10.4792,-16.1406 11.8255,-15.75 13.0391,-14.9688 C14.2526,-14.1875 15.2109,-13.1432 15.9141,-11.8359 C16.6172,-10.5286 16.9688,-9.14063 16.9688,-7.67188 C16.9688,-6.22396 16.6094,-4.88281 15.8906,-3.64844 C15.1719,-2.41406 14.2005,-1.42969 12.9766,-0.695313 C11.7526,0.0390625 10.4271,0.40625 9,0.40625 M9,-0.671875 C10.9271,-0.671875 12.2109,-1.36719 12.8516,-2.75781 C13.4922,-4.14844 13.8125,-5.91667 13.8125,-8.0625 C13.8125,-9.27083 13.75,-10.2682 13.625,-11.0547 C13.5,-11.8411 13.2188,-12.5573 12.7813,-13.2031 C12.5104,-13.599 12.1667,-13.9479 11.75,-14.25 C11.3333,-14.5521 10.8932,-14.7813 10.4297,-14.9375 C9.96615,-15.0938 9.48958,-15.1719 9,-15.1719 C8.25,-15.1719 7.53906,-15.0026 6.86719,-14.6641 C6.19531,-14.3255 5.63542,-13.8385 5.1875,-13.2031 C4.73958,-12.526 4.45573,-11.7813 4.33594,-10.9688 C4.21615,-10.1563 4.15625,-9.1875 4.15625,-8.0625 C4.15625,-6.71875 4.27344,-5.51302 4.50781,-4.44531 C4.74219,-3.3776 5.21354,-2.48177 5.92188,-1.75781 C6.63021,-1.03385 7.65625,-0.671875 9,-0.671875 "/>
</g>

<g fill="#d9d9d9" fill-opacity="1" stroke="none" transform="matrix(0,-0.75,0.75,0,27.3499,102.524)"
font-family="MS Shell Dlg 2" font-size="8.25" font-weight="400" font-style="normal" 
>
<path vector-effect="none" fill-rule="evenodd" d="M1.10938,0 L1.10938,-1.26563 C1.93229,-1.26563 2.60677,-1.33073 3.13281,-1.46094 C3.65885,-1.59115 3.92188,-1.90625 3.92188,-2.40625 L3.92188,-21.3125 C3.92188,-21.9479 3.82552,-22.4115 3.63281,-22.7031 C3.4401,-22.9948 3.16146,-23.1719 2.79688,-23.2344 C2.43229,-23.2969 1.86979,-23.3281 1.10938,-23.3281 L1.10938,-24.5938 L6.45313,-24.9844 L6.45313,-2.40625 C6.45313,-1.90625 6.71615,-1.59115 7.24219,-1.46094 C7.76823,-1.33073 8.4375,-1.26563 9.25,-1.26563 L9.25,0 L1.10938,0"/>
</g>

<g fill="#d9d9d9" fill-opacity="1" stroke="none" transform="matrix(0,-0.75,0.75,0,27.3499,94.8852)"
font-family="MS Shell Dlg 2" font-size="8.25" font-weight="400" font-style="normal" 
>
<path vector-effect="none" fill-rule="evenodd" d="M2.01563,8.28125 C2.01563,8.20833 2.03125,8.16146 2.0625,8.14063 L14.5781,-26.5625 C14.6198,-26.6979 14.7005,-26.8047 14.8203,-26.8828 C14.9401,-26.9609 15.0729,-27 15.2188,-27 C15.4375,-27 15.612,-26.9349 15.7422,-26.8047 C15.8724,-26.6745 15.9375,-26.5 15.9375,-26.2813 L15.9375,-26.1406 L3.42188,8.5625 C3.28646,8.85417 3.0625,9 2.75,9 C2.54167,9 2.36719,8.92969 2.22656,8.78906 C2.08594,8.64844 2.01563,8.47917 2.01563,8.28125 "/>
</g>

<g fill="#d9d9d9" fill-opacity="1" stroke="none" transform="matrix(0,-0.75,0.75,0,27.3499,81.1352)"
font-family="MS Shell Dlg 2" font-size="8.25" font-weight="400" font-style="normal" 
>
<path vector-effect="none" fill-rule="evenodd" d="M1.07813,0 L1.07813,-1.26563 C1.89063,-1.26563 2.5625,-1.33073 3.09375,-1.46094 C3.625,-1.59115 3.89063,-1.90625 3.89063,-2.40625 L3.89063,-12.2344 C3.89063,-12.8802 3.79427,-13.3464 3.60156,-13.6328 C3.40885,-13.9193 3.13021,-14.0938 2.76563,-14.1563 C2.40104,-14.2188 1.83854,-14.25 1.07813,-14.25 L1.07813,-15.5156 L6.29688,-15.9063 L6.29688,-12.3906 C6.77604,-13.4219 7.48698,-14.2656 8.42969,-14.9219 C9.3724,-15.5781 10.401,-15.9063 11.5156,-15.9063 C14.276,-15.9063 15.901,-14.7813 16.3906,-12.5313 C16.8698,-13.5417 17.5703,-14.3568 18.4922,-14.9766 C19.4141,-15.5964 20.4271,-15.9063 21.5313,-15.9063 C22.625,-15.9063 23.5443,-15.7318 24.2891,-15.3828 C25.0339,-15.0339 25.5938,-14.4974 25.9688,-13.7734 C26.3438,-13.0495 26.5313,-12.1458 26.5313,-11.0625 L26.5313,-2.40625 C26.5313,-1.90625 26.7969,-1.59115 27.3281,-1.46094 C27.8594,-1.33073 28.5313,-1.26563 29.3438,-1.26563 L29.3438,0 L21.0938,0 L21.0938,-1.26563 C21.9167,-1.26563 22.5911,-1.33073 23.1172,-1.46094 C23.6432,-1.59115 23.9063,-1.90625 23.9063,-2.40625 L23.9063,-10.9531 C23.9063,-12.1615 23.737,-13.1354 23.3984,-13.875 C23.0599,-14.6146 22.3646,-14.9844 21.3125,-14.9844 C19.9271,-14.9844 18.7839,-14.4271 17.8828,-13.3125 C16.9818,-12.1979 16.5313,-10.9323 16.5313,-9.51563 L16.5313,-2.40625 C16.5313,-1.90625 16.7943,-1.59115 17.3203,-1.46094 C17.8464,-1.33073 18.5208,-1.26563 19.3438,-1.26563 L19.3438,0 L11.0938,0 L11.0938,-1.26563 C11.9167,-1.26563 12.5911,-1.33073 13.1172,-1.46094 C13.6432,-1.59115 13.9063,-1.90625 13.9063,-2.40625 L13.9063,-10.9531 C13.9063,-12.1198 13.737,-13.0833 13.3984,-13.8438 C13.0599,-14.6042 12.3594,-14.9844 11.2969,-14.9844 C9.91146,-14.9844 8.76823,-14.4271 7.86719,-13.3125 C6.96615,-12.1979 6.51563,-10.9323 6.51563,-9.51563 L6.51563,-2.40625 C6.51563,-1.90625 6.78125,-1.59115 7.3125,-1.46094 C7.84375,-1.33073 8.51042,-1.26563 9.3125,-1.26563 L9.3125,0 L1.07813,0"/>
</g>

<g fill="#d9d9d9" fill-opacity="1" stroke="none" transform="matrix(0,-0.75,0.75,0,17.3704,58.2185)"
font-family="MS Shell Dlg 2" font-size="8.25" font-weight="400" font-style="normal" 
>
<path vector-effect="none" fill-rule="evenodd" d="M2.375,-1.9375 C2.77083,-1.375 3.29688,-0.953125 3.95313,-0.671875 C4.60938,-0.390625 5.31771,-0.25 6.07813,-0.25 C7.04688,-0.25 7.73438,-0.664063 8.14063,-1.49219 C8.54688,-2.32031 8.75,-3.26042 8.75,-4.3125 C8.75,-4.78125 8.70833,-5.2526 8.625,-5.72656 C8.54167,-6.20052 8.39844,-6.64063 8.19531,-7.04688 C7.99219,-7.45313 7.71354,-7.77865 7.35938,-8.02344 C7.00521,-8.26823 6.57292,-8.39063 6.0625,-8.39063 L4.39063,-8.39063 C4.24479,-8.39063 4.17188,-8.46354 4.17188,-8.60938 L4.17188,-8.82813 C4.17188,-8.95313 4.24479,-9.01563 4.39063,-9.01563 L5.78125,-9.125 C6.36458,-9.125 6.84896,-9.34635 7.23438,-9.78906 C7.61979,-10.2318 7.90104,-10.7682 8.07813,-11.3984 C8.25521,-12.0286 8.34375,-12.6302 8.34375,-13.2031 C8.34375,-13.9948 8.15885,-14.6484 7.78906,-15.1641 C7.41927,-15.6797 6.84896,-15.9375 6.07813,-15.9375 C5.44271,-15.9375 4.83594,-15.8151 4.25781,-15.5703 C3.67969,-15.3255 3.21875,-14.9635 2.875,-14.4844 C2.91667,-14.4844 2.94792,-14.487 2.96875,-14.4922 C2.98958,-14.4974 3.01563,-14.5 3.04688,-14.5 C3.42188,-14.5 3.73698,-14.3698 3.99219,-14.1094 C4.2474,-13.849 4.375,-13.5365 4.375,-13.1719 C4.375,-12.8177 4.2474,-12.5104 3.99219,-12.25 C3.73698,-11.9896 3.42188,-11.8594 3.04688,-11.8594 C2.68229,-11.8594 2.36979,-11.9896 2.10938,-12.25 C1.84896,-12.5104 1.71875,-12.8177 1.71875,-13.1719 C1.71875,-13.8906 1.9349,-14.513 2.36719,-15.0391 C2.79948,-15.5651 3.35417,-15.9661 4.03125,-16.2422 C4.70833,-16.5182 5.39063,-16.6563 6.07813,-16.6563 C6.58854,-16.6563 7.1224,-16.5807 7.67969,-16.4297 C8.23698,-16.2786 8.74479,-16.0625 9.20313,-15.7813 C9.66146,-15.5 10.0339,-15.1406 10.3203,-14.7031 C10.6068,-14.2656 10.75,-13.7656 10.75,-13.2031 C10.75,-12.5052 10.5938,-11.8594 10.2813,-11.2656 C9.96875,-10.6719 9.53906,-10.1589 8.99219,-9.72656 C8.44531,-9.29427 7.84896,-8.97396 7.20313,-8.76563 C7.92188,-8.61979 8.60677,-8.34375 9.25781,-7.9375 C9.90885,-7.53125 10.4323,-7.01042 10.8281,-6.375 C11.224,-5.73958 11.4219,-5.05729 11.4219,-4.32813 C11.4219,-3.40104 11.1693,-2.5651 10.6641,-1.82031 C10.1589,-1.07552 9.4974,-0.494792 8.67969,-0.078125 C7.86198,0.338542 6.99479,0.546875 6.07813,0.546875 C5.29688,0.546875 4.51302,0.398438 3.72656,0.101563 C2.9401,-0.195313 2.29688,-0.640625 1.79688,-1.23438 C1.29688,-1.82813 1.04688,-2.54167 1.04688,-3.375 C1.04688,-3.79167 1.1849,-4.13802 1.46094,-4.41406 C1.73698,-4.6901 2.08333,-4.82813 2.5,-4.82813 C2.77083,-4.82813 3.01823,-4.76563 3.24219,-4.64063 C3.46615,-4.51563 3.64063,-4.33854 3.76563,-4.10938 C3.89063,-3.88021 3.95313,-3.63542 3.95313,-3.375 C3.95313,-2.96875 3.8099,-2.6276 3.52344,-2.35156 C3.23698,-2.07552 2.89583,-1.9375 2.5,-1.9375 L2.375,-1.9375"/>
</g>

<g fill="#d9d9d9" fill-opacity="1" stroke="none" transform="matrix(0,-0.75,0.75,0,27.3499,47.2184)"
font-family="MS Shell Dlg 2" font-size="8.25" font-weight="400" font-style="normal" 
>
<path vector-effect="none" fill-rule="evenodd" d="M0.796875,9 L0.796875,7.5625 L4.29688,7.5625 L4.29688,-25.5625 L0.796875,-25.5625 L0.796875,-27 L5.73438,-27 L5.73438,9 L0.796875,9"/>
</g>

<g fill="#d9d9d9" fill-opacity="1" stroke="#d9d9d9" stroke-opacity="1" stroke-width="0.666667" stroke-linecap="square" stroke-linejoin="round" transform="matrix(0.75,0,0,0.75,0,0)"
font-family="MS Shell Dlg 2" font-size="8.25" font-weight="400" font-style="normal" 
>
<polyline fill="none" vector-effect="none" points="128,474 128,14 " />
<polyline fill="none" vector-effect="none" points="827,474 827,14 " />
<polyline fill="none" vector-effect="none" points="128,474 134.99,474 " />
<polyline fill="none" vector-effect="none" points="820.01,474 827,474 " />
<polyline fill="none" vector-effect="none" points="128,370.487 134.99,370.487 " />
<polyline fill="none" vector-effect="none" points="820.01,370.487 827,370.487 " />
<polyline fill="none" vector-effect="none" points="128,266.975 134.99,266.975 " />
<polyline fill="none" vector-effect="none" points="820.01,266.975 827,266.975 " />
<polyline fill="none" vector-effect="none" points="128,163.462 134.99,163.462 " />
<polyline fill="none" vector-effect="none" points="820.01,163.462 827,163.462 " />
<polyline fill="none" vector-effect="none" points="128,59.9496 134.99,59.9496 " />
<polyline fill="none" vector-effect="none" points="820.01,59.9496 827,59.9496 " />
</g>

<g fill="#d9d9d9" fill-opacity="1" stroke="none" transform="matrix(0.75,0,0,0.75,75.5,364.125)"
font-family="MS Shell Dlg 2" font-size="8.25" font-weight="400" font-style="normal" 
>
<path vector-effect="none" fill-rule="evenodd" d="M1.375,-11.6563 C1.375,-14.4479 1.66146,-16.6953 2.23438,-18.3984 C2.80729,-20.1016 3.66146,-21.4141 4.79688,-22.3359 C5.93229,-23.2578 7.35938,-23.7188 9.07813,-23.7188 C10.3385,-23.7188 11.4479,-23.4635 12.4063,-22.9531 C13.3646,-22.4427 14.1536,-21.7057 14.7734,-20.7422 C15.3932,-19.7786 15.8828,-18.6068 16.2422,-17.2266 C16.6016,-15.8464 16.7813,-13.9896 16.7813,-11.6563 C16.7813,-8.88542 16.4948,-6.64844 15.9219,-4.94531 C15.349,-3.24219 14.4974,-1.92448 13.3672,-0.992188 C12.237,-0.0598958 10.8073,0.40625 9.07813,0.40625 C6.79688,0.40625 5.00521,-0.411458 3.70313,-2.04688 C2.15104,-4.01563 1.375,-7.21875 1.375,-11.6563 M4.34375,-11.6563 C4.34375,-7.77083 4.79948,-5.1875 5.71094,-3.90625 C6.6224,-2.625 7.74479,-1.98438 9.07813,-1.98438 C10.401,-1.98438 11.5182,-2.6276 12.4297,-3.91406 C13.3411,-5.20052 13.7969,-7.78125 13.7969,-11.6563 C13.7969,-15.5417 13.3411,-18.1224 12.4297,-19.3984 C11.5182,-20.6745 10.3906,-21.3125 9.04688,-21.3125 C7.71354,-21.3125 6.64583,-20.75 5.84375,-19.625 C4.84375,-18.1875 4.34375,-15.5313 4.34375,-11.6563 "/>
</g>

<g fill="#d9d9d9" fill-opacity="1" stroke="none" transform="matrix(0.75,0,0,0.75,41.75,286.491)"
font-family="MS Shell Dlg 2" font-size="8.25" font-weight="400" font-style="normal" 
>
<path vector-effect="none" fill-rule="evenodd" d="M1.375,-11.6563 C1.375,-14.4479 1.66146,-16.6953 2.23438,-18.3984 C2.80729,-20.1016 3.66146,-21.4141 4.79688,-22.3359 C5.93229,-23.2578 7.35938,-23.7188 9.07813,-23.7188 C10.3385,-23.7188 11.4479,-23.4635 12.4063,-22.9531 C13.3646,-22.4427 14.1536,-21.7057 14.7734,-20.7422 C15.3932,-19.7786 15.8828,-18.6068 16.2422,-17.2266 C16.6016,-15.8464 16.7813,-13.9896 16.7813,-11.6563 C16.7813,-8.88542 16.4948,-6.64844 15.9219,-4.94531 C15.349,-3.24219 14.4974,-1.92448 13.3672,-0.992188 C12.237,-0.0598958 10.8073,0.40625 9.07813,0.40625 C6.79688,0.40625 5.00521,-0.411458 3.70313,-2.04688 C2.15104,-4.01563 1.375,-7.21875 1.375,-11.6563 M4.34375,-11.6563 C4.34375,-7.77083 4.79948,-5.1875 5.71094,-3.90625 C6.6224,-2.625 7.74479,-1.98438 9.07813,-1.98438 C10.401,-1.98438 11.5182,-2.6276 12.4297,-3.91406 C13.3411,-5.20052 13.7969,-7.78125 13.7969,-11.6563 C13.7969,-15.5417 13.3411,-18.1224 12.4297,-19.3984 C11.5182,-20.6745 10.3906,-21.3125 9.04688,-21.3125 C7.71354,-21.3125 6.64583,-20.75 5.84375,-19.625 C4.84375,-18.1875 4.34375,-15.5313 4.34375,-11.6563 M21,0 L21,-3.29688 L24.2969,-3.29688 L24.2969,0 L21,0 M28.375,-11.6563 C28.375,-14.4479 28.6615,-16.6953 29.2344,-18.3984 C29.8073,-20.1016 30.6615,-21.4141 31.7969,-22.3359 C32.9323,-23.2578 34.3594,-23.7188 36.0781,-23.7188 C37.3385,-23.7188 38.4479,-23.4635 39.4063,-22.9531 C40.3646,-22.4427 41.1536,-21.7057 41.7734,-20.7422 C42.3932,-19.7786 42.8828,-18.6068 43.2422,-17.2266 C43.6016,-15.8464 43.7813,-13.9896 43.7813,-11.6563 C43.7813,-8.88542 43.4948,-6.64844 42.9219,-4.94531 C42.349,-3.24219 41.4974,-1.92448 40.3672,-0.992188 C39.237,-0.0598958 37.8073,0.40625 36.0781,0.40625 C33.7969,0.40625 32.0052,-0.411458 30.7031,-2.04688 C29.151,-4.01563 28.375,-7.21875 28.375,-11.6563 M31.3438,-11.6563 C31.3438,-7.77083 31.7995,-5.1875 32.7109,-3.90625 C33.6224,-2.625 34.7448,-1.98438 36.0781,-1.98438 C37.401,-1.98438 38.5182,-2.6276 39.4297,-3.91406 C40.3411,-5.20052 40.7969,-7.78125 40.7969,-11.6563 C40.7969,-15.5417 40.3411,-18.1224 39.4297,-19.3984 C38.5182,-20.6745 37.3906,-21.3125 36.0469,-21.3125 C34.7135,-21.3125 33.6458,-20.75 32.8438,-19.625 C31.8438,-18.1875 31.3438,-15.5313 31.3438,-11.6563 M61.6094,-2.78125 L61.6094,0 L46,0 C45.9792,-0.697917 46.0938,-1.36979 46.3438,-2.01563 C46.7396,-3.07813 47.375,-4.125 48.25,-5.15625 C49.125,-6.1875 50.3906,-7.38021 52.0469,-8.73438 C54.6094,-10.8385 56.3411,-12.5052 57.2422,-13.7344 C58.1432,-14.9635 58.5938,-16.125 58.5938,-17.2188 C58.5938,-18.375 58.1849,-19.3464 57.3672,-20.1328 C56.5495,-20.9193 55.4792,-21.3125 54.1563,-21.3125 C52.7604,-21.3125 51.6432,-20.8932 50.8047,-20.0547 C49.9661,-19.2161 49.5417,-18.0573 49.5313,-16.5781 L46.5469,-16.8906 C46.7552,-19.1094 47.5234,-20.8021 48.8516,-21.9688 C50.1797,-23.1354 51.9688,-23.7188 54.2188,-23.7188 C56.4792,-23.7188 58.2708,-23.0911 59.5938,-21.8359 C60.9167,-20.5807 61.5781,-19.0208 61.5781,-17.1563 C61.5781,-16.2188 61.3854,-15.2917 61,-14.375 C60.6146,-13.4583 59.974,-12.4948 59.0781,-11.4844 C58.1823,-10.474 56.6927,-9.08854 54.6094,-7.32813 C52.8698,-5.86979 51.7526,-4.88021 51.2578,-4.35938 C50.763,-3.83854 50.3542,-3.3125 50.0313,-2.78125 L61.6094,-2.78125"/>
</g>

<g fill="#d9d9d9" fill-opacity="1" stroke="none" transform="matrix(0.75,0,0,0.75,41.75,208.856)"
font-family="MS Shell Dlg 2" font-size="8.25" font-weight="400" font-style="normal" 
>
<path vector-effect="none" fill-rule="evenodd" d="M1.375,-11.6563 C1.375,-14.4479 1.66146,-16.6953 2.23438,-18.3984 C2.80729,-20.1016 3.66146,-21.4141 4.79688,-22.3359 C5.93229,-23.2578 7.35938,-23.7188 9.07813,-23.7188 C10.3385,-23.7188 11.4479,-23.4635 12.4063,-22.9531 C13.3646,-22.4427 14.1536,-21.7057 14.7734,-20.7422 C15.3932,-19.7786 15.8828,-18.6068 16.2422,-17.2266 C16.6016,-15.8464 16.7813,-13.9896 16.7813,-11.6563 C16.7813,-8.88542 16.4948,-6.64844 15.9219,-4.94531 C15.349,-3.24219 14.4974,-1.92448 13.3672,-0.992188 C12.237,-0.0598958 10.8073,0.40625 9.07813,0.40625 C6.79688,0.40625 5.00521,-0.411458 3.70313,-2.04688 C2.15104,-4.01563 1.375,-7.21875 1.375,-11.6563 M4.34375,-11.6563 C4.34375,-7.77083 4.79948,-5.1875 5.71094,-3.90625 C6.6224,-2.625 7.74479,-1.98438 9.07813,-1.98438 C10.401,-1.98438 11.5182,-2.6276 12.4297,-3.91406 C13.3411,-5.20052 13.7969,-7.78125 13.7969,-11.6563 C13.7969,-15.5417 13.3411,-18.1224 12.4297,-19.3984 C11.5182,-20.6745 10.3906,-21.3125 9.04688,-21.3125 C7.71354,-21.3125 6.64583,-20.75 5.84375,-19.625 C4.84375,-18.1875 4.34375,-15.5313 4.34375,-11.6563 M21,0 L21,-3.29688 L24.2969,-3.29688 L24.2969,0 L21,0 M28.375,-11.6563 C28.375,-14.4479 28.6615,-16.6953 29.2344,-18.3984 C29.8073,-20.1016 30.6615,-21.4141 31.7969,-22.3359 C32.9323,-23.2578 34.3594,-23.7188 36.0781,-23.7188 C37.3385,-23.7188 38.4479,-23.4635 39.4063,-22.9531 C40.3646,-22.4427 41.1536,-21.7057 41.7734,-20.7422 C42.3932,-19.7786 42.8828,-18.6068 43.2422,-17.2266 C43.6016,-15.8464 43.7813,-13.9896 43.7813,-11.6563 C43.7813,-8.88542 43.4948,-6.64844 42.9219,-4.94531 C42.349,-3.24219 41.4974,-1.92448 40.3672,-0.992188 C39.237,-0.0598958 37.8073,0.40625 36.0781,0.40625 C33.7969,0.40625 32.0052,-0.411458 30.7031,-2.04688 C29.151,-4.01563 28.375,-7.21875 28.375,-11.6563 M31.3438,-11.6563 C31.3438,-7.77083 31.7995,-5.1875 32.7109,-3.90625 C33.6224,-2.625 34.7448,-1.98438 36.0781,-1.98438 C37.401,-1.98438 38.5182,-2.6276 39.4297,-3.91406 C40.3411,-5.20052 40.7969,-7.78125 40.7969,-11.6563 C40.7969,-15.5417 40.3411,-18.1224 39.4297,-19.3984 C38.5182,-20.6745 37.3906,-21.3125 36.0469,-21.3125 C34.7135,-21.3125 33.6458,-20.75 32.8438,-19.625 C31.8438,-18.1875 31.3438,-15.5313 31.3438,-11.6563 M55.6719,0 L55.6719,-5.65625 L45.4219,-5.65625 L45.4219,-8.3125 L56.2031,-23.625 L58.5625,-23.625 L58.5625,-8.3125 L61.7656,-8.3125 L61.7656,-5.65625 L58.5625,-5.65625 L58.5625,0 L55.6719,0 M55.6719,-8.3125 L55.6719,-18.9688 L48.2656,-8.3125 L55.6719,-8.3125"/>
</g>

<g fill="#d9d9d9" fill-opacity="1" stroke="none" transform="matrix(0.75,0,0,0.75,41.75,131.222)"
font-family="MS Shell Dlg 2" font-size="8.25" font-weight="400" font-style="normal" 
>
<path vector-effect="none" fill-rule="evenodd" d="M1.375,-11.6563 C1.375,-14.4479 1.66146,-16.6953 2.23438,-18.3984 C2.80729,-20.1016 3.66146,-21.4141 4.79688,-22.3359 C5.93229,-23.2578 7.35938,-23.7188 9.07813,-23.7188 C10.3385,-23.7188 11.4479,-23.4635 12.4063,-22.9531 C13.3646,-22.4427 14.1536,-21.7057 14.7734,-20.7422 C15.3932,-19.7786 15.8828,-18.6068 16.2422,-17.2266 C16.6016,-15.8464 16.7813,-13.9896 16.7813,-11.6563 C16.7813,-8.88542 16.4948,-6.64844 15.9219,-4.94531 C15.349,-3.24219 14.4974,-1.92448 13.3672,-0.992188 C12.237,-0.0598958 10.8073,0.40625 9.07813,0.40625 C6.79688,0.40625 5.00521,-0.411458 3.70313,-2.04688 C2.15104,-4.01563 1.375,-7.21875 1.375,-11.6563 M4.34375,-11.6563 C4.34375,-7.77083 4.79948,-5.1875 5.71094,-3.90625 C6.6224,-2.625 7.74479,-1.98438 9.07813,-1.98438 C10.401,-1.98438 11.5182,-2.6276 12.4297,-3.91406 C13.3411,-5.20052 13.7969,-7.78125 13.7969,-11.6563 C13.7969,-15.5417 13.3411,-18.1224 12.4297,-19.3984 C11.5182,-20.6745 10.3906,-21.3125 9.04688,-21.3125 C7.71354,-21.3125 6.64583,-20.75 5.84375,-19.625 C4.84375,-18.1875 4.34375,-15.5313 4.34375,-11.6563 M21,0 L21,-3.29688 L24.2969,-3.29688 L24.2969,0 L21,0 M28.375,-11.6563 C28.375,-14.4479 28.6615,-16.6953 29.2344,-18.3984 C29.8073,-20.1016 30.6615,-21.4141 31.7969,-22.3359 C32.9323,-23.2578 34.3594,-23.7188 36.0781,-23.7188 C37.3385,-23.7188 38.4479,-23.4635 39.4063,-22.9531 C40.3646,-22.4427 41.1536,-21.7057 41.7734,-20.7422 C42.3932,-19.7786 42.8828,-18.6068 43.2422,-17.2266 C43.6016,-15.8464 43.7813,-13.9896 43.7813,-11.6563 C43.7813,-8.88542 43.4948,-6.64844 42.9219,-4.94531 C42.349,-3.24219 41.4974,-1.92448 40.3672,-0.992188 C39.237,-0.0598958 37.8073,0.40625 36.0781,0.40625 C33.7969,0.40625 32.0052,-0.411458 30.7031,-2.04688 C29.151,-4.01563 28.375,-7.21875 28.375,-11.6563 M31.3438,-11.6563 C31.3438,-7.77083 31.7995,-5.1875 32.7109,-3.90625 C33.6224,-2.625 34.7448,-1.98438 36.0781,-1.98438 C37.401,-1.98438 38.5182,-2.6276 39.4297,-3.91406 C40.3411,-5.20052 40.7969,-7.78125 40.7969,-11.6563 C40.7969,-15.5417 40.3411,-18.1224 39.4297,-19.3984 C38.5182,-20.6745 37.3906,-21.3125 36.0469,-21.3125 C34.7135,-21.3125 33.6458,-20.75 32.8438,-19.625 C31.8438,-18.1875 31.3438,-15.5313 31.3438,-11.6563 M61.4219,-17.8438 L58.5313,-17.6094 C58.2813,-18.7448 57.9167,-19.5729 57.4375,-20.0938 C56.6563,-20.9167 55.6927,-21.3281 54.5469,-21.3281 C53.6198,-21.3281 52.8073,-21.0729 52.1094,-20.5625 C51.1927,-19.8958 50.4714,-18.9245 49.9453,-17.6484 C49.4193,-16.3724 49.1458,-14.5521 49.125,-12.1875 C49.8229,-13.25 50.6771,-14.0391 51.6875,-14.5547 C52.6979,-15.0703 53.7552,-15.3281 54.8594,-15.3281 C56.7969,-15.3281 58.4453,-14.6146 59.8047,-13.1875 C61.1641,-11.7604 61.8438,-9.92188 61.8438,-7.67188 C61.8438,-6.19271 61.5234,-4.8151 60.8828,-3.53906 C60.2422,-2.26302 59.362,-1.28646 58.2422,-0.609375 C57.1224,0.0677083 55.8542,0.40625 54.4375,0.40625 C52.0208,0.40625 50.0495,-0.484375 48.5234,-2.26563 C46.9974,-4.04688 46.2344,-6.97396 46.2344,-11.0469 C46.2344,-15.6198 47.0781,-18.9427 48.7656,-21.0156 C50.2448,-22.8177 52.2292,-23.7188 54.7188,-23.7188 C56.5729,-23.7188 58.0938,-23.1979 59.2813,-22.1563 C60.4688,-21.1146 61.1823,-19.6771 61.4219,-17.8438 M49.5781,-7.65625 C49.5781,-6.65625 49.7891,-5.70052 50.2109,-4.78906 C50.6328,-3.8776 51.2266,-3.18229 51.9922,-2.70313 C52.7578,-2.22396 53.5573,-1.98438 54.3906,-1.98438 C55.6198,-1.98438 56.6745,-2.47917 57.5547,-3.46875 C58.4349,-4.45833 58.875,-5.80208 58.875,-7.5 C58.875,-9.125 58.4401,-10.4089 57.5703,-11.3516 C56.7005,-12.2943 55.6042,-12.7656 54.2813,-12.7656 C52.9688,-12.7656 51.8568,-12.2943 50.9453,-11.3516 C50.0339,-10.4089 49.5781,-9.17708 49.5781,-7.65625 "/>
</g>

<g fill="#d9d9d9" fill-opacity="1" stroke="none" transform="matrix(0.75,0,0,0.75,41.75,53.5872)"
font-family="MS Shell Dlg 2" font-size="8.25" font-weight="400" font-style="normal" 
>
<path vector-effect="none" fill-rule="evenodd" d="M1.375,-11.6563 C1.375,-14.4479 1.66146,-16.6953 2.23438,-18.3984 C2.80729,-20.1016 3.66146,-21.4141 4.79688,-22.3359 C5.93229,-23.2578 7.35938,-23.7188 9.07813,-23.7188 C10.3385,-23.7188 11.4479,-23.4635 12.4063,-22.9531 C13.3646,-22.4427 14.1536,-21.7057 14.7734,-20.7422 C15.3932,-19.7786 15.8828,-18.6068 16.2422,-17.2266 C16.6016,-15.8464 16.7813,-13.9896 16.7813,-11.6563 C16.7813,-8.88542 16.4948,-6.64844 15.9219,-4.94531 C15.349,-3.24219 14.4974,-1.92448 13.3672,-0.992188 C12.237,-0.0598958 10.8073,0.40625 9.07813,0.40625 C6.79688,0.40625 5.00521,-0.411458 3.70313,-2.04688 C2.15104,-4.01563 1.375,-7.21875 1.375,-11.6563 M4.34375,-11.6563 C4.34375,-7.77083 4.79948,-5.1875 5.71094,-3.90625 C6.6224,-2.625 7.74479,-1.98438 9.07813,-1.98438 C10.401,-1.98438 11.5182,-2.6276 12.4297,-3.91406 C13.3411,-5.20052 13.7969,-7.78125 13.7969,-11.6563 C13.7969,-15.5417 13.3411,-18.1224 12.4297,-19.3984 C11.5182,-20.6745 10.3906,-21.3125 9.04688,-21.3125 C7.71354,-21.3125 6.64583,-20.75 5.84375,-19.625 C4.84375,-18.1875 4.34375,-15.5313 4.34375,-11.6563 M21,0 L21,-3.29688 L24.2969,-3.29688 L24.2969,0 L21,0 M28.375,-11.6563 C28.375,-14.4479 28.6615,-16.6953 29.2344,-18.3984 C29.8073,-20.1016 30.6615,-21.4141 31.7969,-22.3359 C32.9323,-23.2578 34.3594,-23.7188 36.0781,-23.7188 C37.3385,-23.7188 38.4479,-23.4635 39.4063,-22.9531 C40.3646,-22.4427 41.1536,-21.7057 41.7734,-20.7422 C42.3932,-19.7786 42.8828,-18.6068 43.2422,-17.2266 C43.6016,-15.8464 43.7813,-13.9896 43.7813,-11.6563 C43.7813,-8.88542 43.4948,-6.64844 42.9219,-4.94531 C42.349,-3.24219 41.4974,-1.92448 40.3672,-0.992188 C39.237,-0.0598958 37.8073,0.40625 36.0781,0.40625 C33.7969,0.40625 32.0052,-0.411458 30.7031,-2.04688 C29.151,-4.01563 28.375,-7.21875 28.375,-11.6563 M31.3438,-11.6563 C31.3438,-7.77083 31.7995,-5.1875 32.7109,-3.90625 C33.6224,-2.625 34.7448,-1.98438 36.0781,-1.98438 C37.401,-1.98438 38.5182,-2.6276 39.4297,-3.91406 C40.3411,-5.20052 40.7969,-7.78125 40.7969,-11.6563 C40.7969,-15.5417 40.3411,-18.1224 39.4297,-19.3984 C38.5182,-20.6745 37.3906,-21.3125 36.0469,-21.3125 C34.7135,-21.3125 33.6458,-20.75 32.8438,-19.625 C31.8438,-18.1875 31.3438,-15.5313 31.3438,-11.6563 M50.8281,-12.8125 C49.6302,-13.25 48.7396,-13.8776 48.1563,-14.6953 C47.5729,-15.513 47.2813,-16.4896 47.2813,-17.625 C47.2813,-19.3438 47.901,-20.7891 49.1406,-21.9609 C50.3802,-23.1328 52.026,-23.7188 54.0781,-23.7188 C56.1406,-23.7188 57.7995,-23.1198 59.0547,-21.9219 C60.3099,-20.724 60.9375,-19.2656 60.9375,-17.5469 C60.9375,-16.4531 60.651,-15.5 60.0781,-14.6875 C59.5052,-13.875 58.6302,-13.25 57.4531,-12.8125 C58.901,-12.3333 60.0052,-11.5677 60.7656,-10.5156 C61.526,-9.46354 61.9063,-8.20833 61.9063,-6.75 C61.9063,-4.72917 61.1901,-3.03125 59.7578,-1.65625 C58.3255,-0.28125 56.4479,0.40625 54.125,0.40625 C51.7917,0.40625 49.9115,-0.283854 48.4844,-1.66406 C47.0573,-3.04427 46.3438,-4.76563 46.3438,-6.82813 C46.3438,-8.36979 46.7318,-9.65885 47.5078,-10.6953 C48.2839,-11.7318 49.3906,-12.4375 50.8281,-12.8125 M50.25,-17.7188 C50.25,-16.6042 50.6094,-15.6927 51.3281,-14.9844 C52.0469,-14.276 52.9844,-13.9219 54.1406,-13.9219 C55.2552,-13.9219 56.1693,-14.2734 56.8828,-14.9766 C57.5964,-15.6797 57.9531,-16.5417 57.9531,-17.5625 C57.9531,-18.625 57.5859,-19.5182 56.8516,-20.2422 C56.1172,-20.9661 55.2031,-21.3281 54.1094,-21.3281 C52.9948,-21.3281 52.0729,-20.974 51.3438,-20.2656 C50.6146,-19.5573 50.25,-18.7083 50.25,-17.7188 M49.3125,-6.8125 C49.3125,-5.98958 49.5104,-5.1901 49.9063,-4.41406 C50.3021,-3.63802 50.8854,-3.03906 51.6563,-2.61719 C52.4271,-2.19531 53.2604,-1.98438 54.1563,-1.98438 C55.5417,-1.98438 56.6849,-2.42969 57.5859,-3.32031 C58.487,-4.21094 58.9375,-5.34375 58.9375,-6.71875 C58.9375,-8.11458 58.474,-9.26823 57.5469,-10.1797 C56.6198,-11.0911 55.4583,-11.5469 54.0625,-11.5469 C52.6979,-11.5469 51.5651,-11.0964 50.6641,-10.1953 C49.763,-9.29427 49.3125,-8.16667 49.3125,-6.8125 "/>
</g>

<g fill="none" stroke="#268cdd" stroke-opacity="1" stroke-width="2.66667" stroke-linecap="butt" stroke-linejoin="round" transform="matrix(0.75,0,0,0.75,0,0)"
font-family="MS Shell Dlg 2" font-size="8.25" font-weight="400" font-style="normal" 
>
<polyline fill="none" vector-effect="none" points="128,474 128.699,474 129.398,474 130.097,474 130.796,474 131.495,474 132.194,474 132.893,474 133.592,474 134.291,474 134.99,474 135.689,474 136.388,474 137.087,474 137.786,474 138.485,474 139.184,474 139.883,474 140.582,474 141.281,474 141.98,474 142.679,474 143.378,474 144.077,474 144.776,474 145.475,474 146.174,474 146.873,474 147.572,474 148.271,474 148.97,474 149.669,474 150.368,474 151.067,474 151.766,474 152.465,474 153.164,474 153.863,474 154.562,474 155.261,474 155.96,474 156.659,474 157.358,474 158.057,474 158.756,474 159.455,474 160.154,474 160.853,474 161.552,474 162.251,474 162.95,474 163.649,474 164.348,474 165.047,474 165.746,474 166.445,474 167.144,474 167.843,474 168.542,474 169.241,474 169.94,474 170.639,474 171.338,474 172.037,474 172.736,474 173.435,474 174.134,474 174.833,474 175.532,474 176.231,474 176.93,474 177.629,474 178.328,474 179.027,474 179.726,474 180.425,474 181.124,474 181.823,474 182.522,474 183.221,474 183.92,474 184.619,474 185.318,474 186.017,474 186.716,474 187.415,474 188.114,474 188.813,474 189.512,474 190.211,474 190.91,474 191.609,474 192.308,474 193.007,474 193.706,474 194.405,474 195.104,474 195.803,474 196.502,474 197.201,474 197.9,474 198.599,474 199.298,474 199.997,474 200.696,474 201.395,474 202.094,474 202.793,474 203.492,474 204.191,474 204.89,474 205.589,474 206.288,474 206.987,474 207.686,474 208.385,474 209.084,474 209.783,474 210.482,474 211.181,474 211.88,474 212.579,474 213.278,474 213.977,474 214.676,474 215.375,474 216.074,474 216.773,474 217.472,474 218.171,474 218.87,474 219.569,474 220.268,474 220.967,474 221.666,474 222.365,474 223.064,474 223.763,474 224.462,474 225.161,474 225.86,474 226.559,474 227.258,474 227.957,474 228.656,474 229.355,474 230.054,474 230.753,474 231.452,474 232.151,474 232.85,474 233.549,474 234.248,474 234.947,474 235.646,474 236.345,474 237.044,474 237.743,474 238.442,474 239.141,474 239.84,474 240.539,474 241.238,474 241.937,474 242.636,474 243.335,474 244.034,474 244.733,474 245.432,474 246.131,474 246.83,474 247.529,474 248.228,474 248.927,474 249.626,474 250.325,474 251.024,474 251.723,474 252.422,474 253.121,474 253.82,473.999 254.519,473.999 255.218,473.999 255.917,473.999 256.616,473.998 257.315,473.998 258.014,473.997 258.713,473.996 259.412,473.994 260.111,473.992 260.81,473.989 261.509,473.986 262.208,473.981 262.907,473.975 263.606,473.968 264.305,473.96 265.004,473.949 265.703,473.932 266.402,473.909 267.101,473.88 267.8,473.848 268.499,473.812 269.198,473.763 269.897,473.695 270.596,473.61 271.295,473.494 271.994,473.33 272.693,473.13 273.392,472.904 274.091,472.653 274.79,472.327 275.489,471.888 276.188,471.406 276.887,470.936 277.586,470.479 278.285,469.896 278.984,468.986 279.683,467.792 280.382,466.423 281.081,464.879 281.78,463.302 282.479,461.749 283.178,459.945 283.877,457.705 284.576,455.028 285.275,452.076 285.974,449.02 286.673,445.718 287.372,442.017 288.071,437.917 288.77,433.319 289.469,428.213 290.168,422.83 290.867,417.312 291.566,411.659 292.265,405.516 292.964,398.466 293.663,390.767 294.362,382.741 295.061,374.389 295.76,365.936 296.459,357.606 297.158,349.172 297.857,340.409 298.556,331.315 299.255,322.063 299.954,312.972 300.653,304.097 301.352,295.34 302.051,286.702 302.75,278.338 303.449,270.467 304.148,263.027 304.847,255.894 305.546,249.066 306.245,243.246 306.944,238.97 307.643,235.296 308.342,231.44 309.041,227.403 309.74,224.743 310.439,225.245 311.138,227.687 311.837,230.622 312.536,234.049 313.235,237.539 313.934,241.039 314.633,245.546 315.332,251.68 316.031,259.441 316.73,268.116 317.429,276.706 318.128,285.487 318.827,295.026 319.526,305.323 320.225,316.184 320.924,327.189 321.623,338.19 322.322,349.268 323.021,360.423 323.72,371.68 324.419,382.787 325.118,393.299 325.817,403.05 326.516,412.042 327.215,420.817 327.914,429.823 328.613,438.378 329.312,445.892 330.011,452.366 330.71,458.31 331.409,464.229 332.108,469.599 332.807,473.903 332.828,474 " />
<polyline fill="none" vector-effect="none" points="351.26,474 351.68,473.869 352.379,473.576 353.078,473.223 353.777,472.871 354.476,472.519 355.175,472.44 355.874,472.82 356.573,473.262 357.272,473.45 357.971,473.386 358.67,473.15 359.369,472.963 360.068,472.953 360.767,473.111 361.466,473.436 362.165,473.828 362.645,474 " />
<polyline fill="none" vector-effect="none" points="364.276,474 364.961,473.726 365.66,473.459 366.359,473.456 367.058,473.658 367.757,473.928 367.906,474 " />
<polyline fill="none" vector-effect="none" points="373.588,474 374.048,473.935 374.747,473.809 375.446,473.656 376.145,473.483 376.844,473.335 377.543,473.263 378.242,473.28 378.941,473.387 379.64,473.512 380.339,473.539 381.038,473.469 381.737,473.35 382.436,473.181 383.135,473 383.834,472.862 384.533,472.755 385.232,472.647 385.931,472.54 386.63,472.272 387.329,471.732 388.028,471.156 388.727,470.732 389.426,470.46 390.125,470.304 390.824,470.112 391.523,469.744 392.222,469.176 392.921,468.408 393.62,467.544 394.319,466.746 395.018,465.996 395.717,465.217 396.416,464.41 397.115,463.463 397.814,462.244 398.513,460.833 399.212,459.332 399.911,457.741 400.61,455.988 401.309,453.974 402.008,451.728 402.707,449.304 403.406,446.703 404.105,444.122 404.804,441.652 405.503,438.939 406.202,435.731 406.901,432.03 407.6,428.103 408.299,424.265 408.998,420.322 409.697,416.029 410.396,411.386 411.095,406.425 411.794,401.172 412.493,395.596 413.192,389.666 413.891,383.382 414.59,376.683 415.289,369.628 415.988,362.46 416.687,355.303 417.386,348.157 418.085,340.621 418.784,332.232 419.483,323.289 420.182,314.158 420.881,304.839 421.58,295.485 422.279,286.176 422.978,276.653 423.677,266.729 424.376,256.403 425.075,245.89 425.774,235.53 426.473,225.297 427.172,215.039 427.871,204.756 428.57,194.477 429.269,184.238 429.968,174.028 430.667,163.825 431.366,153.628 432.065,143.46 432.764,133.609 433.463,124.454 434.162,116.105 434.861,108.563 435.56,101.279 436.259,93.7327 436.958,86.5144 437.657,80.1871 438.356,74.7507 439.055,69.7101 439.754,64.7386 440.453,60.5845 441.152,57.8272 441.851,56.4668 442.55,56.0407 443.249,55.8182 443.948,55.8598 444.647,56.494 445.346,57.7208 446.045,60.236 446.744,64.4951 447.443,69.4418 448.142,74.2601 448.841,78.95 449.54,84.8997 450.239,93.5264 450.938,103.486 451.637,113.405 452.336,123.283 453.035,133.003 453.734,142.783 454.433,153.251 455.132,164.696 455.831,177.118 456.53,190.029 457.229,202.699 457.928,215.252 458.627,228.056 459.326,241.111 460.025,254.282 460.724,267.352 461.423,280.335 462.122,293.328 462.821,306.329 463.52,319.119 464.219,331.297 464.918,342.81 465.617,353.79 466.316,364.236 467.015,374.582 467.714,385.133 468.413,395.263 469.112,404.47 469.811,412.756 470.51,420.599 471.209,428.452 471.908,435.803 472.607,442.159 473.306,447.522 474.005,452.16 474.704,456.524 475.403,460.624 476.102,464.285 476.801,467.506 477.5,470.023 478.199,471.752 478.898,473.232 479.235,474 " />
<polyline fill="none" vector-effect="none" points="483.121,474 483.791,472.933 484.49,471.913 485.189,470.841 485.888,469.671 486.587,468.434 487.286,467.129 487.985,465.794 488.684,464.487 489.383,463.204 490.082,461.92 490.781,460.634 491.48,459.47 492.179,458.563 492.878,457.807 493.577,457.085 494.276,456.397 494.975,455.833 495.674,455.499 496.373,455.328 497.072,455.238 497.771,455.229 498.47,455.223 499.169,455.18 499.868,455.24 500.567,455.5 501.266,455.959 501.965,456.514 502.664,456.986 503.363,457.373 504.062,457.745 504.761,458.101 505.46,458.545 506.159,459.219 506.858,460.08 507.557,461.047 508.256,462.119 508.955,463.002 509.654,463.385 510.353,463.537 511.052,463.746 511.751,464.011 512.45,464.173 513.149,464.167 513.848,464.294 514.547,464.757 515.246,465.559 515.945,466.568 516.644,467.423 517.343,467.899 518.042,468.008 518.741,467.751 519.44,467.375 520.139,467.297 520.838,467.52 521.537,467.88 522.236,468.376 522.935,468.758 523.634,468.724 524.333,468.44 525.032,468.13 525.731,467.794 526.43,467.352 527.129,466.831 527.828,466.471 528.527,466.402 529.226,466.625 529.925,467.078 530.624,467.476 531.323,467.549 532.022,467.249 532.721,466.576 533.42,465.729 534.119,465.042 534.818,464.518 535.517,464.022 536.216,463.555 536.915,463.052 537.614,462.423 538.313,461.697 539.012,460.927 539.711,460.114 540.41,459.202 541.109,458.16 541.808,457.078 542.507,456.026 543.206,455.001 543.905,454.064 544.604,453.156 545.303,452.039 546.002,450.595 546.701,448.825 547.4,446.9 548.099,445.06 548.798,443.232 549.497,441.277 550.196,439.195 550.895,437.032 551.594,434.856 552.293,432.648 552.992,430.375 553.691,428.034 554.39,425.507 555.089,422.69 555.788,419.733 556.487,416.765 557.186,413.787 557.885,410.896 558.584,408.063 559.283,405.002 559.982,401.551 560.681,397.711 561.38,393.699 562.079,389.787 562.778,385.838 563.477,381.661 564.176,377.255 564.875,372.756 565.574,368.411 566.273,364.26 566.972,360.226 567.671,356.308 568.37,352.318 569.069,347.999 569.768,343.439 570.467,338.794 571.166,334.064 571.865,329.229 572.564,324.323 573.263,319.449 573.962,314.656 574.661,309.943 575.36,305.239 576.059,300.506 576.758,295.858 577.457,291.384 578.156,287.082 578.855,282.853 579.554,278.617 580.253,274.506 580.952,270.629 581.651,266.986 582.35,263.493 583.049,260.02 583.748,256.586 584.447,253.257 585.146,250.031 585.845,247.318 586.544,245.489 587.243,244.076 587.942,242.65 588.641,241.212 589.34,239.349 590.039,237.082 590.738,235.471 591.437,235.143 592.136,236.101 592.835,237.459 593.534,237.909 594.233,237.69 594.932,237.472 595.631,237.253 596.33,237.289 597.029,238.053 597.728,239.619 598.427,241.842 599.126,244.722 599.825,247.656 600.524,249.821 601.223,251.492 601.922,253.163 602.621,254.834 603.32,257.674 604.019,262.564 604.718,267.904 605.417,272.38 606.116,275.993 606.815,278.876 607.514,281.771 608.213,285.451 608.912,290.085 609.611,295.675 610.31,301.535 611.009,306.663 611.708,311.267 612.407,315.87 613.106,320.473 613.805,325.177 614.504,330.1 615.203,335.169 615.902,340.292 616.601,345.469 617.3,350.626 617.999,355.669 618.698,360.646 619.397,365.623 620.096,370.6 620.795,374.754 621.494,377.514 622.193,380.08 622.892,383.399 623.591,387.473 624.29,391.946 624.989,396.21 625.688,400.244 626.387,404.279 627.086,408.313 627.785,412.348 628.484,416.382 629.183,420.417 629.882,424.451 630.581,428.486 631.28,431.466 631.979,432.522 632.678,432.985 633.377,434 634.076,435.569 634.775,437.726 635.474,440.325 636.173,443.051 636.872,445.778 637.571,448.505 638.27,451.231 638.969,453.958 639.668,456.685 640.367,459.411 641.066,462.138 641.765,464.606 642.464,466.201 643.163,466.653 643.862,466.043 644.561,464.371 645.26,462.815 645.959,462.907 646.658,463.999 647.357,465.091 648.056,466.184 648.755,467.276 649.454,468.368 650.153,469.461 650.852,470.553 651.551,471.645 652.25,473.119 652.604,474 " />
<polyline fill="none" vector-effect="none" points="654.72,474 655.046,473.019 655.745,470.667 656.444,469.805 657.143,469.936 657.842,470.068 658.541,470.2 659.24,470.331 659.939,470.463 660.638,470.594 661.337,470.726 662.036,470.857 662.735,470.989 663.434,471.12 664.133,471.252 664.832,471.384 665.531,471.515 666.23,471.235 666.929,470.266 667.628,469.226 668.327,468.593 669.026,468.367 669.725,468.376 670.424,468.309 671.123,468.135 671.822,467.962 672.521,467.789 673.22,467.615 673.919,467.442 674.618,467.269 675.317,467.096 676.016,466.922 676.715,466.839 677.414,466.927 678.113,467.089 678.812,467.232 679.511,467.356 680.21,467.43 680.909,467.431 681.608,467.399 682.307,467.367 683.006,467.334 683.705,467.302 684.404,467.27 685.103,467.238 685.802,467.205 686.501,467.173 687.2,467.141 687.899,467.109 688.598,467.076 689.297,467.044 689.996,467.012 690.695,466.98 691.394,466.947 692.093,466.915 692.792,466.883 693.491,466.851 694.19,466.819 694.889,466.786 695.588,466.754 696.287,466.722 696.986,466.69 697.685,466.558 698.384,466.34 699.083,466.3 699.782,466.593 700.481,467.219 701.18,467.885 701.879,468.188 702.578,468.253 703.277,468.318 703.976,468.383 704.675,468.448 705.374,468.514 706.073,468.579 706.772,468.644 707.471,468.709 708.17,468.774 708.869,468.839 709.568,468.904 710.267,468.969 710.966,469.035 711.665,469.1 712.364,469.165 713.063,469.23 713.762,469.295 714.461,469.36 715.16,469.425 715.859,469.49 716.558,469.556 717.257,469.621 717.956,469.686 718.655,469.751 719.354,469.816 720.053,469.881 720.752,469.946 721.451,470.012 722.15,470.093 722.849,470.205 723.548,470.334 724.247,470.462 724.946,470.589 725.645,470.705 726.344,470.798 727.043,470.88 727.742,470.961 728.441,471.043 729.14,471.125 729.839,471.206 730.538,471.288 731.237,471.369 731.936,471.451 732.635,471.533 733.334,471.614 734.033,471.696 734.732,471.778 735.431,471.859 736.13,471.941 736.829,472.023 737.528,472.104 738.227,472.186 738.926,472.267 739.625,472.349 740.324,472.431 741.023,472.512 741.722,472.594 742.421,472.676 743.12,472.829 743.819,473.053 744.518,473.169 745.217,473.067 745.916,472.747 746.615,472.396 747.314,472.272 748.013,472.298 748.712,472.323 749.411,472.349 750.11,472.374 750.809,472.4 751.508,472.425 752.207,472.451 752.906,472.476 753.605,472.502 754.304,472.527 755.003,472.553 755.702,472.578 756.401,472.604 757.1,472.629 757.799,472.655 758.498,472.68 759.197,472.706 759.896,472.732 760.595,472.757 761.294,472.783 761.993,472.808 762.692,472.834 763.391,472.859 764.09,472.885 764.789,472.91 765.488,472.936 766.187,472.961 766.886,472.987 767.585,473.012 768.284,473.038 768.983,473.063 769.682,473.089 770.381,473.114 771.08,473.14 771.779,473.165 772.478,473.191 773.177,473.216 773.876,473.242 774.575,473.267 775.274,473.293 775.973,473.318 776.672,473.344 777.371,473.369 778.07,473.395 778.769,473.42 779.468,473.446 780.167,473.471 780.866,473.497 781.565,473.522 782.264,473.548 782.963,473.574 783.662,473.599 784.361,473.625 785.06,473.65 785.759,473.676 786.458,473.701 787.157,473.727 787.856,473.752 788.555,473.778 789.254,473.803 789.953,473.829 790.652,473.854 791.351,473.88 792.05,473.896 792.749,473.896 793.448,473.889 794.147,473.886 794.846,473.886 795.545,473.888 796.244,473.889 796.943,473.889 797.642,473.889 798.341,473.889 799.04,473.889 799.739,473.889 800.438,473.889 801.137,473.889 801.836,473.889 802.535,473.889 803.234,473.889 803.933,473.889 804.632,473.889 805.331,473.889 806.03,473.889 806.729,473.889 807.428,473.889 808.127,473.889 808.826,473.889 809.525,473.889 810.224,473.889 810.923,473.889 811.622,473.889 812.321,473.889 813.02,473.889 813.719,473.889 814.418,473.889 815.117,473.889 815.816,473.889 816.515,473.889 817.214,473.889 817.913,473.889 818.612,473.889 819.311,473.889 820.01,473.889 820.709,473.889 821.408,473.889 822.107,473.889 822.806,473.889 823.505,473.889 824.204,473.889 824.903,473.889 825.602,473.889 826.301,473.889 827,473.889 " />
</g>

<g fill="none" stroke="#ffffff" stroke-opacity="1" stroke-width="2.66667" stroke-linecap="butt" stroke-linejoin="miter" stroke-miterlimit="2" transform="matrix(0.75,0,0,0.75,0,0)"
font-family="MS Shell Dlg 2" font-size="8.25" font-weight="400" font-style="normal" 
>
<path vector-effect="none" fill-rule="evenodd" d="M317.106,224.743 C317.106,221.061 314.121,218.076 310.439,218.076 C306.757,218.076 303.772,221.061 303.772,224.743 C303.772,228.425 306.757,231.41 310.439,231.41 C314.121,231.41 317.106,228.425 317.106,224.743 "/>
<path vector-effect="none" fill-rule="evenodd" d="M451.314,55.8598 C451.314,52.1779 448.329,49.1931 444.647,49.1931 C440.965,49.1931 437.98,52.1779 437.98,55.8598 C437.98,59.5417 440.965,62.5264 444.647,62.5264 C448.329,62.5264 451.314,59.5417 451.314,55.8598 "/>
<path vector-effect="none" fill-rule="evenodd" d="M603.696,237.289 C603.696,233.607 600.711,230.622 597.029,230.622 C593.347,230.622 590.362,233.607 590.362,237.289 C590.362,240.971 593.347,243.955 597.029,243.955 C600.711,243.955 603.696,240.971 603.696,237.289 "/>
</g>
</g>
</svg>
