<?xml version="1.0" encoding="UTF-8" standalone="no"?>
<svg width="158.75mm" height="105.833mm"
 viewBox="0 0 450 300"
 xmlns="http://www.w3.org/2000/svg" xmlns:xlink="http://www.w3.org/1999/xlink"  version="1.2" baseProfile="tiny">
<title>Qt SVG Document</title>
<desc>MATLAB, The MathWorks, Inc. Version 25.1.0.2943329 R2025a</desc>
<defs>
</defs>
<g fill="none" stroke="black" stroke-width="1" fill-rule="evenodd" stroke-linecap="square" stroke-linejoin="bevel" >

<g fill="#ffffff" fill-opacity="1" stroke="none" transform="matrix(0.5,0,0,0.5,0,0)"
font-family="MS Shell Dlg 2" font-size="8" font-weight="400" font-style="normal" 
>
<path vector-effect="none" fill-rule="evenodd" d="M0,0 L901,0 L901,600 L0,600 L0,0"/>
</g>

<g fill="#ffffff" fill-opacity="1" stroke="none" transform="matrix(5e-05,0,0,5e-05,0,0)"
font-family="MS Shell Dlg 2" font-size="8" font-weight="400" font-style="normal" 
>
<path vector-effect="none" fill-rule="evenodd" d="M1.27e+06,450000 L1.27e+06,4.88e+06 L8.15e+06,4.88e+06 L8.15e+06,450000 L1.27e+06,450000"/>
</g>

<g fill="#212121" fill-opacity="0.14902" stroke="#212121" stroke-opacity="0.14902" stroke-width="1" stroke-linecap="butt" stroke-linejoin="round" transform="matrix(0.5,0,0,0.5,0,0)"
font-family="MS Shell Dlg 2" font-size="8" font-weight="400" font-style="normal" 
>
<polyline fill="none" vector-effect="none" points="127,45 127,488 " />
<polyline fill="none" vector-effect="none" points="299,45 299,488 " />
<polyline fill="none" vector-effect="none" points="471,45 471,488 " />
<polyline fill="none" vector-effect="none" points="643,45 643,488 " />
<polyline fill="none" vector-effect="none" points="815,45 815,488 " />
<polyline fill="none" vector-effect="none" points="127,474.274 815,474.274 " />
<polyline fill="none" vector-effect="none" points="127,390.615 815,390.615 " />
<polyline fill="none" vector-effect="none" points="127,306.956 815,306.956 " />
<polyline fill="none" vector-effect="none" points="127,223.297 815,223.297 " />
<polyline fill="none" vector-effect="none" points="127,139.638 815,139.638 " />
<polyline fill="none" vector-effect="none" points="127,55.979 815,55.979 " />
</g>

<g fill="#212121" fill-opacity="1" stroke="none" transform="matrix(0.5,0,0,0.5,196.328,291.48)"
font-family="MS Shell Dlg 2" font-size="8" font-weight="400" font-style="normal" 
>
<path vector-effect="none" fill-rule="evenodd" d="M7.4375,0 L7.4375,-1.54688 C8.90625,-1.54688 10.3359,-1.63021 11.7266,-1.79688 C13.1172,-1.96354 13.8125,-2.34375 13.8125,-2.9375 L13.8125,-27.1094 C13.8125,-27.7448 13.638,-28.138 13.2891,-28.2891 C12.9401,-28.4401 12.3698,-28.5156 11.5781,-28.5156 L9.73438,-28.5156 C7.31771,-28.5156 5.59896,-27.9844 4.57813,-26.9219 C4.04688,-26.3906 3.66667,-25.5417 3.4375,-24.375 C3.20833,-23.2083 3.01563,-21.7448 2.85938,-19.9844 L1.59375,-19.9844 L2.42188,-30.0625 L29.3125,-30.0625 L30.1406,-19.9844 L28.8594,-19.9844 C28.6823,-21.8698 28.4896,-23.3672 28.2813,-24.4766 C28.0729,-25.5859 27.6979,-26.401 27.1563,-26.9219 C26.125,-27.9844 24.4063,-28.5156 22,-28.5156 L20.1563,-28.5156 C19.625,-28.5156 19.2135,-28.4922 18.9219,-28.4453 C18.6302,-28.3984 18.3906,-28.2734 18.2031,-28.0703 C18.0156,-27.8672 17.9219,-27.5469 17.9219,-27.1094 L17.9219,-2.9375 C17.9219,-2.34375 18.6172,-1.96354 20.0078,-1.79688 C21.3984,-1.63021 22.8229,-1.54688 24.2813,-1.54688 L24.2813,0 L7.4375,0"/>
</g>

<g fill="#212121" fill-opacity="1" stroke="none" transform="matrix(0.5,0,0,0.5,212.217,291.48)"
font-family="MS Shell Dlg 2" font-size="8" font-weight="400" font-style="normal" 
>
<path vector-effect="none" fill-rule="evenodd" d="M1.35938,0 L1.35938,-1.54688 C2.35938,-1.54688 3.18229,-1.625 3.82813,-1.78125 C4.47396,-1.9375 4.79688,-2.32292 4.79688,-2.9375 L4.79688,-14.9531 C4.79688,-16.0885 4.57813,-16.7839 4.14063,-17.0391 C3.70313,-17.2943 2.83854,-17.4219 1.54688,-17.4219 L1.54688,-18.9688 L7.89063,-19.4375 L7.89063,-2.9375 C7.89063,-2.32292 8.16927,-1.9375 8.72656,-1.78125 C9.28385,-1.625 10.026,-1.54688 10.9531,-1.54688 L10.9531,0 L1.35938,0 M3.21875,-27 C3.21875,-27.6458 3.46354,-28.2135 3.95313,-28.7031 C4.44271,-29.1927 5,-29.4375 5.625,-29.4375 C6.04167,-29.4375 6.44271,-29.3307 6.82813,-29.1172 C7.21354,-28.9036 7.51563,-28.6016 7.73438,-28.2109 C7.95313,-27.8203 8.0625,-27.4167 8.0625,-27 C8.0625,-26.375 7.81771,-25.8177 7.32813,-25.3281 C6.83854,-24.8385 6.27083,-24.5938 5.625,-24.5938 C5,-24.5938 4.44271,-24.8385 3.95313,-25.3281 C3.46354,-25.8177 3.21875,-26.375 3.21875,-27 "/>
</g>

<g fill="#212121" fill-opacity="1" stroke="none" transform="matrix(0.5,0,0,0.5,218.328,291.48)"
font-family="MS Shell Dlg 2" font-size="8" font-weight="400" font-style="normal" 
>
<path vector-effect="none" fill-rule="evenodd" d="M1.3125,0 L1.3125,-1.54688 C2.3125,-1.54688 3.13542,-1.625 3.78125,-1.78125 C4.42708,-1.9375 4.75,-2.32292 4.75,-2.9375 L4.75,-14.9531 C4.75,-15.7448 4.63281,-16.3151 4.39844,-16.6641 C4.16406,-17.013 3.82292,-17.2266 3.375,-17.3047 C2.92708,-17.3828 2.23958,-17.4219 1.3125,-17.4219 L1.3125,-18.9688 L7.6875,-19.4375 L7.6875,-15.1406 C8.28125,-16.401 9.15365,-17.4323 10.3047,-18.2344 C11.4557,-19.0365 12.7135,-19.4375 14.0781,-19.4375 C17.4531,-19.4375 19.4375,-18.0625 20.0313,-15.3125 C20.6146,-16.5521 21.4714,-17.5495 22.6016,-18.3047 C23.7318,-19.0599 24.9688,-19.4375 26.3125,-19.4375 C27.6458,-19.4375 28.7682,-19.224 29.6797,-18.7969 C30.5911,-18.3698 31.276,-17.7161 31.7344,-16.8359 C32.1927,-15.9557 32.4219,-14.849 32.4219,-13.5156 L32.4219,-2.9375 C32.4219,-2.32292 32.7474,-1.9375 33.3984,-1.78125 C34.0495,-1.625 34.8698,-1.54688 35.8594,-1.54688 L35.8594,0 L25.7813,0 L25.7813,-1.54688 C26.7813,-1.54688 27.6042,-1.625 28.25,-1.78125 C28.8958,-1.9375 29.2188,-2.32292 29.2188,-2.9375 L29.2188,-13.3906 C29.2188,-14.8594 29.0104,-16.0469 28.5938,-16.9531 C28.1771,-17.8594 27.3281,-18.3125 26.0469,-18.3125 C24.349,-18.3125 22.9505,-17.6302 21.8516,-16.2656 C20.7526,-14.901 20.2031,-13.3542 20.2031,-11.625 L20.2031,-2.9375 C20.2031,-2.32292 20.5234,-1.9375 21.1641,-1.78125 C21.8047,-1.625 22.6302,-1.54688 23.6406,-1.54688 L23.6406,0 L13.5625,0 L13.5625,-1.54688 C14.5625,-1.54688 15.3854,-1.625 16.0313,-1.78125 C16.6771,-1.9375 17,-2.32292 17,-2.9375 L17,-13.3906 C17,-14.8177 16.7917,-15.9948 16.375,-16.9219 C15.9583,-17.849 15.1042,-18.3125 13.8125,-18.3125 C12.1146,-18.3125 10.7161,-17.6302 9.61719,-16.2656 C8.51823,-14.901 7.96875,-13.3542 7.96875,-11.625 L7.96875,-2.9375 C7.96875,-2.32292 8.29167,-1.9375 8.9375,-1.78125 C9.58333,-1.625 10.401,-1.54688 11.3906,-1.54688 L11.3906,0 L1.3125,0"/>
</g>

<g fill="#212121" fill-opacity="1" stroke="none" transform="matrix(0.5,0,0,0.5,236.661,291.48)"
font-family="MS Shell Dlg 2" font-size="8" font-weight="400" font-style="normal" 
>
<path vector-effect="none" fill-rule="evenodd" d="M10.9531,0.5 C9.16146,0.5 7.51823,0.0286458 6.02344,-0.914063 C4.52865,-1.85677 3.35417,-3.11198 2.5,-4.67969 C1.64583,-6.2474 1.21875,-7.90104 1.21875,-9.64063 C1.21875,-11.3594 1.60938,-12.9922 2.39063,-14.5391 C3.17188,-16.0859 4.26042,-17.3359 5.65625,-18.2891 C7.05208,-19.2422 8.60938,-19.7188 10.3281,-19.7188 C11.6823,-19.7188 12.8568,-19.4948 13.8516,-19.0469 C14.8464,-18.599 15.6667,-17.974 16.3125,-17.1719 C16.9583,-16.3698 17.4453,-15.4245 17.7734,-14.3359 C18.1016,-13.2474 18.2656,-12.0521 18.2656,-10.75 C18.2656,-10.3542 18.1146,-10.1563 17.8125,-10.1563 L5.07813,-10.1563 L5.07813,-9.6875 C5.07813,-7.26042 5.56771,-5.17448 6.54688,-3.42969 C7.52604,-1.6849 9.125,-0.8125 11.3438,-0.8125 C12.25,-0.8125 13.0859,-1.01302 13.8516,-1.41406 C14.6172,-1.8151 15.2813,-2.3724 15.8438,-3.08594 C16.4063,-3.79948 16.7917,-4.5625 17,-5.375 C17.0208,-5.47917 17.0729,-5.57031 17.1563,-5.64844 C17.2396,-5.72656 17.3281,-5.76563 17.4219,-5.76563 L17.8125,-5.76563 C18.1146,-5.76563 18.2656,-5.57813 18.2656,-5.20313 C17.849,-3.54688 16.9531,-2.18229 15.5781,-1.10938 C14.2031,-0.0364583 12.6615,0.5 10.9531,0.5 M5.10938,-11.2656 L15.1406,-11.2656 C15.1406,-12.3594 14.987,-13.4714 14.6797,-14.6016 C14.3724,-15.7318 13.862,-16.6719 13.1484,-17.4219 C12.4349,-18.1719 11.4948,-18.5469 10.3281,-18.5469 C8.67188,-18.5469 7.38802,-17.7708 6.47656,-16.2188 C5.5651,-14.6667 5.10938,-13.0156 5.10938,-11.2656 "/>
</g>

<g fill="#212121" fill-opacity="1" stroke="none" transform="matrix(0.5,0,0,0.5,253.772,291.48)"
font-family="MS Shell Dlg 2" font-size="8" font-weight="400" font-style="normal" 
>
<path vector-effect="none" fill-rule="evenodd" d="M5.20313,11 L5.20313,-33 L11.2188,-33 L11.2188,-31.2344 L6.96875,-31.2344 L6.96875,9.23438 L11.2188,9.23438 L11.2188,11 L5.20313,11"/>
</g>

<g fill="#212121" fill-opacity="1" stroke="none" transform="matrix(0.5,0,0,0.5,259.883,291.48)"
font-family="MS Shell Dlg 2" font-size="8" font-weight="400" font-style="normal" 
>
<path vector-effect="none" fill-rule="evenodd" d="M1.46875,0.125 L1.46875,-7.0625 C1.46875,-7.29167 1.59375,-7.40625 1.84375,-7.40625 L2.39063,-7.40625 C2.55729,-7.40625 2.67188,-7.29167 2.73438,-7.0625 C3.54688,-2.8125 5.52083,-0.6875 8.65625,-0.6875 C10.0521,-0.6875 11.2188,-1.0026 12.1563,-1.63281 C13.0938,-2.26302 13.5625,-3.23958 13.5625,-4.5625 C13.5625,-5.5 13.1953,-6.30208 12.4609,-6.96875 C11.7266,-7.63542 10.8594,-8.09375 9.85938,-8.34375 L6.92188,-8.92188 C5.93229,-9.13021 5.03385,-9.45573 4.22656,-9.89844 C3.41927,-10.3411 2.75781,-10.9323 2.24219,-11.6719 C1.72656,-12.4115 1.46875,-13.2656 1.46875,-14.2344 C1.46875,-15.5156 1.80729,-16.5677 2.48438,-17.3906 C3.16146,-18.2135 4.04427,-18.8073 5.13281,-19.1719 C6.22135,-19.5365 7.39583,-19.7188 8.65625,-19.7188 C10.1667,-19.7188 11.4792,-19.3281 12.5938,-18.5469 L13.8594,-19.6094 C13.8594,-19.6823 13.9323,-19.7188 14.0781,-19.7188 L14.3906,-19.7188 C14.4844,-19.7188 14.5651,-19.6797 14.6328,-19.6016 C14.7005,-19.5234 14.7344,-19.4427 14.7344,-19.3594 L14.7344,-13.625 C14.7344,-13.3542 14.6198,-13.2188 14.3906,-13.2188 L13.8594,-13.2188 C13.599,-13.2188 13.4688,-13.3542 13.4688,-13.625 C13.4688,-15.1563 13.0443,-16.388 12.1953,-17.3203 C11.3464,-18.2526 10.151,-18.7188 8.60938,-18.7188 C7.29688,-18.7188 6.15625,-18.474 5.1875,-17.9844 C4.21875,-17.4948 3.73438,-16.6563 3.73438,-15.4688 C3.73438,-14.6563 4.08333,-13.987 4.78125,-13.4609 C5.47917,-12.9349 6.29167,-12.5573 7.21875,-12.3281 L10.2031,-11.7813 C11.2031,-11.5417 12.138,-11.151 13.0078,-10.6094 C13.8776,-10.0677 14.5651,-9.38021 15.0703,-8.54688 C15.5755,-7.71354 15.8281,-6.77083 15.8281,-5.71875 C15.8281,-4.66667 15.6458,-3.7474 15.2813,-2.96094 C14.9167,-2.17448 14.4089,-1.52344 13.7578,-1.00781 C13.1068,-0.492188 12.3385,-0.111979 11.4531,0.132813 C10.5677,0.377604 9.63542,0.5 8.65625,0.5 C6.82292,0.5 5.25521,-0.125 3.95313,-1.375 L2.34375,0.390625 C2.34375,0.463542 2.26563,0.5 2.10938,0.5 L1.84375,0.5 C1.59375,0.5 1.46875,0.375 1.46875,0.125 "/>
</g>

<g fill="#212121" fill-opacity="1" stroke="none" transform="matrix(0.5,0,0,0.5,268.561,291.48)"
font-family="MS Shell Dlg 2" font-size="8" font-weight="400" font-style="normal" 
>
<path vector-effect="none" fill-rule="evenodd" d="M0.96875,11 L0.96875,9.23438 L5.25,9.23438 L5.25,-31.2344 L0.96875,-31.2344 L0.96875,-33 L7,-33 L7,11 L0.96875,11"/>
</g>

<g fill="#212121" fill-opacity="1" stroke="#212121" stroke-opacity="1" stroke-width="1" stroke-linecap="square" stroke-linejoin="round" transform="matrix(0.5,0,0,0.5,0,0)"
font-family="MS Shell Dlg 2" font-size="8" font-weight="400" font-style="normal" 
>
<polyline fill="none" vector-effect="none" points="127,488 815,488 " />
<polyline fill="none" vector-effect="none" points="127,45 815,45 " />
<polyline fill="none" vector-effect="none" points="127,488 127,481.12 " />
<polyline fill="none" vector-effect="none" points="127,51.88 127,45 " />
<polyline fill="none" vector-effect="none" points="299,488 299,481.12 " />
<polyline fill="none" vector-effect="none" points="299,51.88 299,45 " />
<polyline fill="none" vector-effect="none" points="471,488 471,481.12 " />
<polyline fill="none" vector-effect="none" points="471,51.88 471,45 " />
<polyline fill="none" vector-effect="none" points="643,488 643,481.12 " />
<polyline fill="none" vector-effect="none" points="643,51.88 643,45 " />
<polyline fill="none" vector-effect="none" points="815,488 815,481.12 " />
<polyline fill="none" vector-effect="none" points="815,51.88 815,45 " />
</g>

<g fill="#212121" fill-opacity="1" stroke="none" transform="matrix(0.5,0,0,0.5,58,268.5)"
font-family="MS Shell Dlg 2" font-size="8" font-weight="400" font-style="normal" 
>
<path vector-effect="none" fill-rule="evenodd" d="M1.65625,-14.125 C1.65625,-17.5104 2.00521,-20.2344 2.70313,-22.2969 C3.40104,-24.3594 4.4375,-25.9505 5.8125,-27.0703 C7.1875,-28.1901 8.91667,-28.75 11,-28.75 C12.5313,-28.75 13.8776,-28.4401 15.0391,-27.8203 C16.2005,-27.2005 17.1589,-26.3099 17.9141,-25.1484 C18.6693,-23.987 19.2604,-22.5677 19.6875,-20.8906 C20.1146,-19.2135 20.3281,-16.9583 20.3281,-14.125 C20.3281,-10.7604 19.9844,-8.04688 19.2969,-5.98438 C18.6094,-3.92188 17.5781,-2.32813 16.2031,-1.20313 C14.8281,-0.078125 13.0938,0.484375 11,0.484375 C8.23958,0.484375 6.07292,-0.505208 4.5,-2.48438 C2.60417,-4.86979 1.65625,-8.75 1.65625,-14.125 M5.28125,-14.125 C5.28125,-9.42708 5.83073,-6.29948 6.92969,-4.74219 C8.02865,-3.1849 9.38542,-2.40625 11,-2.40625 C12.6146,-2.40625 13.9714,-3.1875 15.0703,-4.75 C16.1693,-6.3125 16.7188,-9.4375 16.7188,-14.125 C16.7188,-18.8333 16.1693,-21.9635 15.0703,-23.5156 C13.9714,-25.0677 12.599,-25.8438 10.9531,-25.8438 C9.33854,-25.8438 8.05208,-25.1615 7.09375,-23.7969 C5.88542,-22.0469 5.28125,-18.8229 5.28125,-14.125 "/>
</g>

<g fill="#212121" fill-opacity="1" stroke="none" transform="matrix(0.5,0,0,0.5,144,268.5)"
font-family="MS Shell Dlg 2" font-size="8" font-weight="400" font-style="normal" 
>
<path vector-effect="none" fill-rule="evenodd" d="M1.65625,-7.5 L5.35938,-7.8125 C5.63021,-6.02083 6.26302,-4.67188 7.25781,-3.76563 C8.2526,-2.85938 9.45313,-2.40625 10.8594,-2.40625 C12.5573,-2.40625 13.9922,-3.04427 15.1641,-4.32031 C16.3359,-5.59635 16.9219,-7.28646 16.9219,-9.39063 C16.9219,-11.401 16.3568,-12.9844 15.2266,-14.1406 C14.0964,-15.2969 12.6198,-15.875 10.7969,-15.875 C9.67188,-15.875 8.65365,-15.6198 7.74219,-15.1094 C6.83073,-14.599 6.11458,-13.9323 5.59375,-13.1094 L2.28125,-13.5313 L5.0625,-28.25 L19.2969,-28.25 L19.2969,-24.8906 L7.875,-24.8906 L6.32813,-17.1875 C8.04688,-18.3854 9.84896,-18.9844 11.7344,-18.9844 C14.2344,-18.9844 16.3438,-18.1198 18.0625,-16.3906 C19.7813,-14.6615 20.6406,-12.4323 20.6406,-9.70313 C20.6406,-7.11979 19.8854,-4.88021 18.375,-2.98438 C16.5417,-0.671875 14.0365,0.484375 10.8594,0.484375 C8.25521,0.484375 6.13021,-0.244792 4.48438,-1.70313 C2.83854,-3.16146 1.89583,-5.09375 1.65625,-7.5 "/>
</g>

<g fill="#212121" fill-opacity="1" stroke="none" transform="matrix(0.5,0,0,0.5,224.5,268.5)"
font-family="MS Shell Dlg 2" font-size="8" font-weight="400" font-style="normal" 
>
<path vector-effect="none" fill-rule="evenodd" d="M14.9063,0 L11.3906,0 L11.3906,-22.4063 C10.5469,-21.5938 9.4375,-20.7839 8.0625,-19.9766 C6.6875,-19.1693 5.45313,-18.5677 4.35938,-18.1719 L4.35938,-21.5625 C6.32813,-22.4896 8.04688,-23.6094 9.51563,-24.9219 C10.9844,-26.2344 12.026,-27.5104 12.6406,-28.75 L14.9063,-28.75 L14.9063,0 M23.6563,-14.125 C23.6563,-17.5104 24.0052,-20.2344 24.7031,-22.2969 C25.401,-24.3594 26.4375,-25.9505 27.8125,-27.0703 C29.1875,-28.1901 30.9167,-28.75 33,-28.75 C34.5313,-28.75 35.8776,-28.4401 37.0391,-27.8203 C38.2005,-27.2005 39.1589,-26.3099 39.9141,-25.1484 C40.6693,-23.987 41.2604,-22.5677 41.6875,-20.8906 C42.1146,-19.2135 42.3281,-16.9583 42.3281,-14.125 C42.3281,-10.7604 41.9844,-8.04688 41.2969,-5.98438 C40.6094,-3.92188 39.5781,-2.32813 38.2031,-1.20313 C36.8281,-0.078125 35.0938,0.484375 33,0.484375 C30.2396,0.484375 28.0729,-0.505208 26.5,-2.48438 C24.6042,-4.86979 23.6563,-8.75 23.6563,-14.125 M27.2813,-14.125 C27.2813,-9.42708 27.8307,-6.29948 28.9297,-4.74219 C30.0286,-3.1849 31.3854,-2.40625 33,-2.40625 C34.6146,-2.40625 35.9714,-3.1875 37.0703,-4.75 C38.1693,-6.3125 38.7188,-9.4375 38.7188,-14.125 C38.7188,-18.8333 38.1693,-21.9635 37.0703,-23.5156 C35.9714,-25.0677 34.599,-25.8438 32.9531,-25.8438 C31.3385,-25.8438 30.0521,-25.1615 29.0938,-23.7969 C27.8854,-22.0469 27.2813,-18.8229 27.2813,-14.125 "/>
</g>

<g fill="#212121" fill-opacity="1" stroke="none" transform="matrix(0.5,0,0,0.5,310.5,268.5)"
font-family="MS Shell Dlg 2" font-size="8" font-weight="400" font-style="normal" 
>
<path vector-effect="none" fill-rule="evenodd" d="M14.9063,0 L11.3906,0 L11.3906,-22.4063 C10.5469,-21.5938 9.4375,-20.7839 8.0625,-19.9766 C6.6875,-19.1693 5.45313,-18.5677 4.35938,-18.1719 L4.35938,-21.5625 C6.32813,-22.4896 8.04688,-23.6094 9.51563,-24.9219 C10.9844,-26.2344 12.026,-27.5104 12.6406,-28.75 L14.9063,-28.75 L14.9063,0 M23.6563,-7.5 L27.3594,-7.8125 C27.6302,-6.02083 28.263,-4.67188 29.2578,-3.76563 C30.2526,-2.85938 31.4531,-2.40625 32.8594,-2.40625 C34.5573,-2.40625 35.9922,-3.04427 37.1641,-4.32031 C38.3359,-5.59635 38.9219,-7.28646 38.9219,-9.39063 C38.9219,-11.401 38.3568,-12.9844 37.2266,-14.1406 C36.0964,-15.2969 34.6198,-15.875 32.7969,-15.875 C31.6719,-15.875 30.6536,-15.6198 29.7422,-15.1094 C28.8307,-14.599 28.1146,-13.9323 27.5938,-13.1094 L24.2813,-13.5313 L27.0625,-28.25 L41.2969,-28.25 L41.2969,-24.8906 L29.875,-24.8906 L28.3281,-17.1875 C30.0469,-18.3854 31.849,-18.9844 33.7344,-18.9844 C36.2344,-18.9844 38.3438,-18.1198 40.0625,-16.3906 C41.7813,-14.6615 42.6406,-12.4323 42.6406,-9.70313 C42.6406,-7.11979 41.8854,-4.88021 40.375,-2.98438 C38.5417,-0.671875 36.0365,0.484375 32.8594,0.484375 C30.2552,0.484375 28.1302,-0.244792 26.4844,-1.70313 C24.8385,-3.16146 23.8958,-5.09375 23.6563,-7.5 "/>
</g>

<g fill="#212121" fill-opacity="1" stroke="none" transform="matrix(0.5,0,0,0.5,396.5,268.5)"
font-family="MS Shell Dlg 2" font-size="8" font-weight="400" font-style="normal" 
>
<path vector-effect="none" fill-rule="evenodd" d="M20.1406,-3.375 L20.1406,0 L1.21875,0 C1.1875,-0.84375 1.32292,-1.65625 1.625,-2.4375 C2.10417,-3.72917 2.875,-5 3.9375,-6.25 C5,-7.5 6.53125,-8.94792 8.53125,-10.5938 C11.6458,-13.1458 13.75,-15.1667 14.8438,-16.6563 C15.9375,-18.1458 16.4844,-19.5521 16.4844,-20.875 C16.4844,-22.2708 15.987,-23.4479 14.9922,-24.4063 C13.9974,-25.3646 12.6979,-25.8438 11.0938,-25.8438 C9.40625,-25.8438 8.05469,-25.3359 7.03906,-24.3203 C6.02344,-23.3047 5.50521,-21.8958 5.48438,-20.0938 L1.875,-20.4688 C2.125,-23.1667 3.05729,-25.2214 4.67188,-26.6328 C6.28646,-28.0443 8.45313,-28.75 11.1719,-28.75 C13.9219,-28.75 16.0964,-27.9896 17.6953,-26.4688 C19.2943,-24.9479 20.0938,-23.0573 20.0938,-20.7969 C20.0938,-19.651 19.8594,-18.526 19.3906,-17.4219 C18.9219,-16.3177 18.1458,-15.1536 17.0625,-13.9297 C15.9792,-12.7057 14.1719,-11.026 11.6406,-8.89063 C9.53646,-7.11979 8.1849,-5.91927 7.58594,-5.28906 C6.98698,-4.65885 6.48958,-4.02083 6.09375,-3.375 L20.1406,-3.375 M23.6563,-14.125 C23.6563,-17.5104 24.0052,-20.2344 24.7031,-22.2969 C25.401,-24.3594 26.4375,-25.9505 27.8125,-27.0703 C29.1875,-28.1901 30.9167,-28.75 33,-28.75 C34.5313,-28.75 35.8776,-28.4401 37.0391,-27.8203 C38.2005,-27.2005 39.1589,-26.3099 39.9141,-25.1484 C40.6693,-23.987 41.2604,-22.5677 41.6875,-20.8906 C42.1146,-19.2135 42.3281,-16.9583 42.3281,-14.125 C42.3281,-10.7604 41.9844,-8.04688 41.2969,-5.98438 C40.6094,-3.92188 39.5781,-2.32813 38.2031,-1.20313 C36.8281,-0.078125 35.0938,0.484375 33,0.484375 C30.2396,0.484375 28.0729,-0.505208 26.5,-2.48438 C24.6042,-4.86979 23.6563,-8.75 23.6563,-14.125 M27.2813,-14.125 C27.2813,-9.42708 27.8307,-6.29948 28.9297,-4.74219 C30.0286,-3.1849 31.3854,-2.40625 33,-2.40625 C34.6146,-2.40625 35.9714,-3.1875 37.0703,-4.75 C38.1693,-6.3125 38.7188,-9.4375 38.7188,-14.125 C38.7188,-18.8333 38.1693,-21.9635 37.0703,-23.5156 C35.9714,-25.0677 34.599,-25.8438 32.9531,-25.8438 C31.3385,-25.8438 30.0521,-25.1615 29.0938,-23.7969 C27.8854,-22.0469 27.2813,-18.8229 27.2813,-14.125 "/>
</g>

<g fill="#212121" fill-opacity="1" stroke="none" transform="matrix(0,-0.5,0.5,0,18.5799,178.852)"
font-family="MS Shell Dlg 2" font-size="8" font-weight="400" font-style="normal" 
>
<path vector-effect="none" fill-rule="evenodd" d="M10.0313,-4.70313 C11.0313,-3.43229 12.2839,-2.42708 13.7891,-1.6875 C15.2943,-0.947917 16.8594,-0.578125 18.4844,-0.578125 C19.8385,-0.578125 21.0964,-0.846354 22.2578,-1.38281 C23.4193,-1.91927 24.4323,-2.66927 25.2969,-3.63281 C26.1615,-4.59635 26.8281,-5.6849 27.2969,-6.89844 C27.7656,-8.11198 28,-9.39583 28,-10.75 C28,-10.9792 28.125,-11.0938 28.375,-11.0938 L28.9219,-11.0938 C29.151,-11.0938 29.2656,-10.9479 29.2656,-10.6563 C29.2656,-9.125 28.9714,-7.64583 28.3828,-6.21875 C27.7943,-4.79167 26.9635,-3.53906 25.8906,-2.46094 C24.8177,-1.38281 23.5833,-0.541667 22.1875,0.0625 C20.7917,0.666667 19.3333,0.96875 17.8125,0.96875 C15.7083,0.96875 13.7135,0.541667 11.8281,-0.3125 C9.94271,-1.16667 8.30208,-2.33333 6.90625,-3.8125 C5.51042,-5.29167 4.42188,-7.00521 3.64063,-8.95313 C2.85938,-10.901 2.46875,-12.9323 2.46875,-15.0469 C2.46875,-17.151 2.85938,-19.1771 3.64063,-21.125 C4.42188,-23.0729 5.51042,-24.7917 6.90625,-26.2813 C8.30208,-27.7708 9.94271,-28.9349 11.8281,-29.7734 C13.7135,-30.612 15.7083,-31.0313 17.8125,-31.0313 C19.3125,-31.0313 20.75,-30.7031 22.125,-30.0469 C23.5,-29.3906 24.7031,-28.4688 25.7344,-27.2813 L28.2969,-30.8906 C28.4635,-30.9844 28.5625,-31.0313 28.5938,-31.0313 L28.9219,-31.0313 C29.0052,-31.0313 29.0833,-30.9948 29.1563,-30.9219 C29.2292,-30.849 29.2656,-30.7604 29.2656,-30.6563 L29.2656,-18.7813 C29.2656,-18.5208 29.151,-18.3906 28.9219,-18.3906 L28.125,-18.3906 C27.8542,-18.3906 27.7188,-18.5208 27.7188,-18.7813 C27.7188,-19.625 27.5495,-20.5703 27.2109,-21.6172 C26.8724,-22.6641 26.4427,-23.6563 25.9219,-24.5938 C25.401,-25.5313 24.7969,-26.3594 24.1094,-27.0781 C22.4635,-28.6823 20.5729,-29.4844 18.4375,-29.4844 C16.8125,-29.4844 15.2604,-29.1172 13.7813,-28.3828 C12.3021,-27.6484 11.0521,-26.6406 10.0313,-25.3594 C8.95833,-23.9844 8.21354,-22.4193 7.79688,-20.6641 C7.38021,-18.9089 7.17188,-17.0365 7.17188,-15.0469 C7.17188,-13.0469 7.38021,-11.1667 7.79688,-9.40625 C8.21354,-7.64583 8.95833,-6.07813 10.0313,-4.70313 "/>
</g>

<g fill="#212121" fill-opacity="1" stroke="none" transform="matrix(0,-0.5,0.5,0,18.5799,162.963)"
font-family="MS Shell Dlg 2" font-size="8" font-weight="400" font-style="normal" 
>
<path vector-effect="none" fill-rule="evenodd" d="M1.14063,0 L1.14063,-1.54688 C4.30729,-1.54688 5.89063,-2.01042 5.89063,-2.9375 L5.89063,-27.1094 C5.89063,-28.0469 4.30729,-28.5156 1.14063,-28.5156 L1.14063,-30.0625 L14.7344,-30.0625 L14.7344,-28.5156 C11.5677,-28.5156 9.98438,-28.0469 9.98438,-27.1094 L9.98438,-2.9375 C9.98438,-2.01042 11.5677,-1.54688 14.7344,-1.54688 L14.7344,0 L1.14063,0"/>
</g>

<g fill="#212121" fill-opacity="1" stroke="none" transform="matrix(0,-0.5,0.5,0,18.5799,155.018)"
font-family="MS Shell Dlg 2" font-size="8" font-weight="400" font-style="normal" 
>
<path vector-effect="none" fill-rule="evenodd" d="M1.46875,0 L1.46875,-1.54688 C4.48958,-1.54688 6,-2.01042 6,-2.9375 L6,-27.1094 C6,-28.0469 4.48958,-28.5156 1.46875,-28.5156 L1.46875,-30.0625 L15.2813,-30.0625 C16.9271,-30.0625 18.6563,-29.7656 20.4688,-29.1719 C22.2813,-28.5781 23.7943,-27.6719 25.0078,-26.4531 C26.2214,-25.2344 26.8281,-23.7813 26.8281,-22.0938 C26.8281,-20.8542 26.4609,-19.7526 25.7266,-18.7891 C24.9922,-17.8255 24.0469,-17.0182 22.8906,-16.3672 C21.7344,-15.7161 20.5573,-15.2448 19.3594,-14.9531 C20.6719,-14.4948 21.8229,-13.7656 22.8125,-12.7656 C23.8021,-11.7656 24.3958,-10.6198 24.5938,-9.32813 L25.2188,-5.42188 C25.5104,-3.65104 25.8125,-2.33333 26.125,-1.46875 C26.4375,-0.604167 27.1302,-0.171875 28.2031,-0.171875 C29.1198,-0.171875 29.8047,-0.598958 30.2578,-1.45313 C30.7109,-2.30729 30.9375,-3.23438 30.9375,-4.23438 C30.9375,-4.33854 30.9844,-4.42969 31.0781,-4.50781 C31.1719,-4.58594 31.2708,-4.625 31.375,-4.625 L31.7813,-4.625 C32.0625,-4.625 32.2031,-4.43229 32.2031,-4.04688 C32.2031,-3.24479 32.0469,-2.45833 31.7344,-1.6875 C31.4219,-0.916667 30.9688,-0.28125 30.375,0.21875 C29.7813,0.71875 29.0729,0.96875 28.25,0.96875 C26.1354,0.96875 24.3151,0.442708 22.7891,-0.609375 C21.263,-1.66146 20.5,-3.20833 20.5,-5.25 L20.5,-9.15625 C20.5,-10.6146 19.9922,-11.8672 18.9766,-12.9141 C17.9609,-13.9609 16.7135,-14.4844 15.2344,-14.4844 L9.95313,-14.4844 L9.95313,-2.9375 C9.95313,-2.01042 11.4635,-1.54688 14.4844,-1.54688 L14.4844,0 L1.46875,0 M9.95313,-15.625 L14.6563,-15.625 C17.0938,-15.625 18.9479,-16.1146 20.2188,-17.0938 C21.4896,-18.0729 22.125,-19.7396 22.125,-22.0938 C22.125,-24.4271 21.4948,-26.0807 20.2344,-27.0547 C18.974,-28.0286 17.1146,-28.5156 14.6563,-28.5156 L12.1875,-28.5156 C11.6563,-28.5156 11.2422,-28.4922 10.9453,-28.4453 C10.6484,-28.3984 10.4089,-28.2734 10.2266,-28.0703 C10.0443,-27.8672 9.95313,-27.5469 9.95313,-27.1094 L9.95313,-15.625"/>
</g>

<g fill="#212121" fill-opacity="1" stroke="none" transform="matrix(0,-0.5,0.5,0,18.5799,138.824)"
font-family="MS Shell Dlg 2" font-size="8" font-weight="400" font-style="normal" 
>
<path vector-effect="none" fill-rule="evenodd" d="M3.70313,-2.42188 C3.70313,-3.08854 3.94531,-3.65625 4.42969,-4.125 C4.91406,-4.59375 5.47917,-4.82813 6.125,-4.82813 C6.52083,-4.82813 6.91406,-4.72135 7.30469,-4.50781 C7.69531,-4.29427 7.9974,-3.99479 8.21094,-3.60938 C8.42448,-3.22396 8.53125,-2.82813 8.53125,-2.42188 C8.53125,-1.78646 8.29427,-1.22396 7.82031,-0.734375 C7.34635,-0.244792 6.78125,0 6.125,0 C5.47917,0 4.91406,-0.244792 4.42969,-0.734375 C3.94531,-1.22396 3.70313,-1.78646 3.70313,-2.42188 M3.70313,-16.5469 C3.70313,-16.9635 3.8099,-17.3568 4.02344,-17.7266 C4.23698,-18.0964 4.53385,-18.3958 4.91406,-18.625 C5.29427,-18.8542 5.69792,-18.9688 6.125,-18.9688 C6.54167,-18.9688 6.9401,-18.8542 7.32031,-18.625 C7.70052,-18.3958 7.9974,-18.0964 8.21094,-17.7266 C8.42448,-17.3568 8.53125,-16.9635 8.53125,-16.5469 C8.53125,-15.8906 8.29948,-15.3255 7.83594,-14.8516 C7.3724,-14.3776 6.80208,-14.1406 6.125,-14.1406 C5.46875,-14.1406 4.90104,-14.3776 4.42188,-14.8516 C3.94271,-15.3255 3.70313,-15.8906 3.70313,-16.5469 "/>
</g>

<g fill="#212121" fill-opacity="1" stroke="none" transform="matrix(0,-0.5,0.5,0,18.5799,125.379)"
font-family="MS Shell Dlg 2" font-size="8" font-weight="400" font-style="normal" 
>
<path vector-effect="none" fill-rule="evenodd" d="M2.34375,-0.8125 C2.34375,-0.989583 2.35938,-1.11979 2.39063,-1.20313 L8.76563,-26.625 C8.88021,-27.125 8.95313,-27.5156 8.98438,-27.7969 C8.98438,-28.276 8.03125,-28.5156 6.125,-28.5156 C5.82292,-28.5156 5.67188,-28.7083 5.67188,-29.0938 C5.68229,-29.1667 5.71354,-29.2943 5.76563,-29.4766 C5.81771,-29.6589 5.88281,-29.8021 5.96094,-29.9063 C6.03906,-30.0104 6.15104,-30.0625 6.29688,-30.0625 L12.2188,-30.5313 L12.3594,-30.5313 C12.3594,-30.5 12.4089,-30.4609 12.5078,-30.4141 C12.6068,-30.3672 12.6615,-30.3333 12.6719,-30.3125 C12.7344,-30.1667 12.7656,-30.0521 12.7656,-29.9688 L9.32813,-16.25 C11.1302,-18.375 13.2708,-19.4375 15.75,-19.4375 C16.7813,-19.4375 17.6719,-19.2604 18.4219,-18.9063 C19.1719,-18.5521 19.7578,-18.013 20.1797,-17.2891 C20.6016,-16.5651 20.8125,-15.7031 20.8125,-14.7031 C20.8125,-13.4948 20.5443,-12.0417 20.0078,-10.3438 C19.4714,-8.64583 18.8021,-6.74479 18,-4.64063 C17.5833,-3.68229 17.375,-2.80208 17.375,-2 C17.375,-1.125 17.7135,-0.6875 18.3906,-0.6875 C19.5365,-0.6875 20.4922,-1.29948 21.2578,-2.52344 C22.0234,-3.7474 22.5625,-5.06771 22.875,-6.48438 C22.9375,-6.65104 23.0521,-6.73438 23.2188,-6.73438 L23.7656,-6.73438 C23.8802,-6.73438 23.974,-6.69531 24.0469,-6.61719 C24.1198,-6.53906 24.1563,-6.45313 24.1563,-6.35938 C24.1563,-6.32813 24.1406,-6.28125 24.1094,-6.21875 C23.849,-5.15625 23.4635,-4.11198 22.9531,-3.08594 C22.4427,-2.0599 21.8021,-1.20573 21.0313,-0.523438 C20.2604,0.158854 19.3542,0.5 18.3125,0.5 C17.2813,0.5 16.3984,0.143229 15.6641,-0.570313 C14.9297,-1.28385 14.5625,-2.14583 14.5625,-3.15625 C14.5625,-3.69792 14.6771,-4.27083 14.9063,-4.875 C15.7396,-7.08333 16.4323,-9.05469 16.9844,-10.7891 C17.5365,-12.5234 17.8125,-14.0469 17.8125,-15.3594 C17.8125,-16.2031 17.6484,-16.9063 17.3203,-17.4688 C16.9922,-18.0313 16.4375,-18.3125 15.6563,-18.3125 C14.0833,-18.3125 12.7109,-17.8281 11.5391,-16.8594 C10.3672,-15.8906 9.34896,-14.6146 8.48438,-13.0313 L5.5,-1.01563 C5.38542,-0.567708 5.16406,-0.203125 4.83594,0.078125 C4.50781,0.359375 4.13021,0.5 3.70313,0.5 C3.32813,0.5 3.00781,0.372396 2.74219,0.117188 C2.47656,-0.138021 2.34375,-0.447917 2.34375,-0.8125 "/>
</g>

<g fill="#212121" fill-opacity="1" stroke="none" transform="matrix(0,-0.5,0.5,0,18.5799,112.704)"
font-family="MS Shell Dlg 2" font-size="8" font-weight="400" font-style="normal" 
>
<path vector-effect="none" fill-rule="evenodd" d="M13.6406,10.9219 C12.0052,9.63021 10.599,8.14844 9.42188,6.47656 C8.24479,4.80469 7.27865,3.02344 6.52344,1.13281 C5.76823,-0.757813 5.20573,-2.73438 4.83594,-4.79688 C4.46615,-6.85938 4.28125,-8.92708 4.28125,-11 C4.28125,-13.1042 4.46615,-15.1875 4.83594,-17.25 C5.20573,-19.3125 5.77344,-21.2969 6.53906,-23.2031 C7.30469,-25.1094 8.28385,-26.8932 9.47656,-28.5547 C10.6693,-30.2161 12.0573,-31.6719 13.6406,-32.9219 C13.6406,-32.974 13.7135,-33 13.8594,-33 L14.2656,-33 C14.349,-33 14.4271,-32.9609 14.5,-32.8828 C14.5729,-32.8047 14.6094,-32.7135 14.6094,-32.6094 C14.6094,-32.4844 14.5833,-32.3906 14.5313,-32.3281 C13.0938,-30.9323 11.8984,-29.4323 10.9453,-27.8281 C9.99219,-26.224 9.22656,-24.5156 8.64844,-22.7031 C8.07031,-20.8906 7.65104,-19.013 7.39063,-17.0703 C7.13021,-15.1276 7,-13.1042 7,-11 C7,-1.67708 9.49479,5.40625 14.4844,10.25 C14.5677,10.3333 14.6094,10.4531 14.6094,10.6094 C14.6094,10.6823 14.5703,10.7656 14.4922,10.8594 C14.4141,10.9531 14.3385,11 14.2656,11 L13.8594,11 C13.7135,11 13.6406,10.974 13.6406,10.9219 "/>
</g>

<g fill="#212121" fill-opacity="1" stroke="none" transform="matrix(0,-0.5,0.5,0,18.5799,104.148)"
font-family="MS Shell Dlg 2" font-size="8" font-weight="400" font-style="normal" 
>
<path vector-effect="none" fill-rule="evenodd" d="M2.73438,-3.57813 C2.73438,-4.00521 2.77604,-4.41667 2.85938,-4.8125 L6.03125,-17.4219 L1.42188,-17.4219 C1.11979,-17.4219 0.96875,-17.6146 0.96875,-18 C1.08333,-18.6458 1.27604,-18.9688 1.54688,-18.9688 L6.42188,-18.9688 L8.1875,-26.1406 C8.30208,-26.5365 8.53125,-26.8698 8.875,-27.1406 C9.21875,-27.4115 9.60417,-27.5469 10.0313,-27.5469 C10.4063,-27.5469 10.7188,-27.4349 10.9688,-27.2109 C11.2188,-26.987 11.3438,-26.6875 11.3438,-26.3125 C11.3438,-26.2292 11.3411,-26.1641 11.3359,-26.1172 C11.3307,-26.0703 11.3177,-26.0156 11.2969,-25.9531 L9.54688,-18.9688 L14.0781,-18.9688 C14.3802,-18.9688 14.5313,-18.776 14.5313,-18.3906 C14.5104,-18.3177 14.4792,-18.1953 14.4375,-18.0234 C14.3958,-17.8516 14.3385,-17.7083 14.2656,-17.5938 C14.1927,-17.4792 14.0833,-17.4219 13.9375,-17.4219 L9.15625,-17.4219 L6,-4.71875 C5.78125,-3.89583 5.67188,-3.18229 5.67188,-2.57813 C5.67188,-1.31771 6.10417,-0.6875 6.96875,-0.6875 C8.25,-0.6875 9.38802,-1.29167 10.3828,-2.5 C11.3776,-3.70833 12.1406,-5.03646 12.6719,-6.48438 C12.7865,-6.65104 12.901,-6.73438 13.0156,-6.73438 L13.5625,-6.73438 C13.6771,-6.73438 13.7682,-6.69531 13.8359,-6.61719 C13.9036,-6.53906 13.9375,-6.45313 13.9375,-6.35938 C13.9375,-6.29688 13.9271,-6.25 13.9063,-6.21875 C13.2604,-4.4375 12.3203,-2.8724 11.0859,-1.52344 C9.85156,-0.174479 8.44271,0.5 6.85938,0.5 C5.69271,0.5 4.71354,0.117188 3.92188,-0.648438 C3.13021,-1.41406 2.73438,-2.39063 2.73438,-3.57813 "/>
</g>

<g fill="#212121" fill-opacity="1" stroke="none" transform="matrix(0,-0.5,0.5,0,18.5799,96.2039)"
font-family="MS Shell Dlg 2" font-size="8" font-weight="400" font-style="normal" 
>
<path vector-effect="none" fill-rule="evenodd" d="M2.85938,11 C2.59896,11 2.46875,10.8698 2.46875,10.6094 C2.46875,10.4844 2.5,10.3906 2.5625,10.3281 C7.57292,5.43229 10.0781,-1.67708 10.0781,-11 C10.0781,-20.3229 7.59896,-27.4063 2.64063,-32.25 C2.52604,-32.3229 2.46875,-32.4427 2.46875,-32.6094 C2.46875,-32.7135 2.50781,-32.8047 2.58594,-32.8828 C2.66406,-32.9609 2.75521,-33 2.85938,-33 L3.26563,-33 C3.34896,-33 3.42188,-32.974 3.48438,-32.9219 C5.58854,-31.2552 7.34115,-29.2344 8.74219,-26.8594 C10.1432,-24.4844 11.1719,-21.9505 11.8281,-19.2578 C12.4844,-16.5651 12.8125,-13.8125 12.8125,-11 C12.8125,-8.92708 12.6354,-6.88281 12.2813,-4.86719 C11.9271,-2.85156 11.3672,-0.867188 10.6016,1.08594 C9.83594,3.03906 8.86719,4.84375 7.69531,6.5 C6.52344,8.15625 5.11979,9.63021 3.48438,10.9219 C3.42188,10.974 3.34896,11 3.26563,11 L2.85938,11"/>
</g>

<g fill="#212121" fill-opacity="1" stroke="#212121" stroke-opacity="1" stroke-width="1" stroke-linecap="square" stroke-linejoin="round" transform="matrix(0.5,0,0,0.5,0,0)"
font-family="MS Shell Dlg 2" font-size="8" font-weight="400" font-style="normal" 
>
<polyline fill="none" vector-effect="none" points="127,488 127,45 " />
<polyline fill="none" vector-effect="none" points="815,488 815,45 " />
<polyline fill="none" vector-effect="none" points="127,474.274 133.88,474.274 " />
<polyline fill="none" vector-effect="none" points="808.12,474.274 815,474.274 " />
<polyline fill="none" vector-effect="none" points="127,390.615 133.88,390.615 " />
<polyline fill="none" vector-effect="none" points="808.12,390.615 815,390.615 " />
<polyline fill="none" vector-effect="none" points="127,306.956 133.88,306.956 " />
<polyline fill="none" vector-effect="none" points="808.12,306.956 815,306.956 " />
<polyline fill="none" vector-effect="none" points="127,223.297 133.88,223.297 " />
<polyline fill="none" vector-effect="none" points="808.12,223.297 815,223.297 " />
<polyline fill="none" vector-effect="none" points="127,139.638 133.88,139.638 " />
<polyline fill="none" vector-effect="none" points="808.12,139.638 815,139.638 " />
<polyline fill="none" vector-effect="none" points="127,55.979 133.88,55.979 " />
<polyline fill="none" vector-effect="none" points="808.12,55.979 815,55.979 " />
</g>

<g fill="#212121" fill-opacity="1" stroke="none" transform="matrix(0.5,0,0,0.5,46.5,244.137)"
font-family="MS Shell Dlg 2" font-size="8" font-weight="400" font-style="normal" 
>
<path vector-effect="none" fill-rule="evenodd" d="M1.65625,-14.125 C1.65625,-17.5104 2.00521,-20.2344 2.70313,-22.2969 C3.40104,-24.3594 4.4375,-25.9505 5.8125,-27.0703 C7.1875,-28.1901 8.91667,-28.75 11,-28.75 C12.5313,-28.75 13.8776,-28.4401 15.0391,-27.8203 C16.2005,-27.2005 17.1589,-26.3099 17.9141,-25.1484 C18.6693,-23.987 19.2604,-22.5677 19.6875,-20.8906 C20.1146,-19.2135 20.3281,-16.9583 20.3281,-14.125 C20.3281,-10.7604 19.9844,-8.04688 19.2969,-5.98438 C18.6094,-3.92188 17.5781,-2.32813 16.2031,-1.20313 C14.8281,-0.078125 13.0938,0.484375 11,0.484375 C8.23958,0.484375 6.07292,-0.505208 4.5,-2.48438 C2.60417,-4.86979 1.65625,-8.75 1.65625,-14.125 M5.28125,-14.125 C5.28125,-9.42708 5.83073,-6.29948 6.92969,-4.74219 C8.02865,-3.1849 9.38542,-2.40625 11,-2.40625 C12.6146,-2.40625 13.9714,-3.1875 15.0703,-4.75 C16.1693,-6.3125 16.7188,-9.4375 16.7188,-14.125 C16.7188,-18.8333 16.1693,-21.9635 15.0703,-23.5156 C13.9714,-25.0677 12.599,-25.8438 10.9531,-25.8438 C9.33854,-25.8438 8.05208,-25.1615 7.09375,-23.7969 C5.88542,-22.0469 5.28125,-18.8229 5.28125,-14.125 "/>
</g>

<g fill="#212121" fill-opacity="1" stroke="none" transform="matrix(0.5,0,0,0.5,30,202.308)"
font-family="MS Shell Dlg 2" font-size="8" font-weight="400" font-style="normal" 
>
<path vector-effect="none" fill-rule="evenodd" d="M1.65625,-14.125 C1.65625,-17.5104 2.00521,-20.2344 2.70313,-22.2969 C3.40104,-24.3594 4.4375,-25.9505 5.8125,-27.0703 C7.1875,-28.1901 8.91667,-28.75 11,-28.75 C12.5313,-28.75 13.8776,-28.4401 15.0391,-27.8203 C16.2005,-27.2005 17.1589,-26.3099 17.9141,-25.1484 C18.6693,-23.987 19.2604,-22.5677 19.6875,-20.8906 C20.1146,-19.2135 20.3281,-16.9583 20.3281,-14.125 C20.3281,-10.7604 19.9844,-8.04688 19.2969,-5.98438 C18.6094,-3.92188 17.5781,-2.32813 16.2031,-1.20313 C14.8281,-0.078125 13.0938,0.484375 11,0.484375 C8.23958,0.484375 6.07292,-0.505208 4.5,-2.48438 C2.60417,-4.86979 1.65625,-8.75 1.65625,-14.125 M5.28125,-14.125 C5.28125,-9.42708 5.83073,-6.29948 6.92969,-4.74219 C8.02865,-3.1849 9.38542,-2.40625 11,-2.40625 C12.6146,-2.40625 13.9714,-3.1875 15.0703,-4.75 C16.1693,-6.3125 16.7188,-9.4375 16.7188,-14.125 C16.7188,-18.8333 16.1693,-21.9635 15.0703,-23.5156 C13.9714,-25.0677 12.599,-25.8438 10.9531,-25.8438 C9.33854,-25.8438 8.05208,-25.1615 7.09375,-23.7969 C5.88542,-22.0469 5.28125,-18.8229 5.28125,-14.125 M25.6406,0 L25.6406,-4 L29.6406,-4 L29.6406,0 L25.6406,0 M53.1406,-3.375 L53.1406,0 L34.2188,0 C34.1875,-0.84375 34.3229,-1.65625 34.625,-2.4375 C35.1042,-3.72917 35.875,-5 36.9375,-6.25 C38,-7.5 39.5313,-8.94792 41.5313,-10.5938 C44.6458,-13.1458 46.75,-15.1667 47.8438,-16.6563 C48.9375,-18.1458 49.4844,-19.5521 49.4844,-20.875 C49.4844,-22.2708 48.987,-23.4479 47.9922,-24.4063 C46.9974,-25.3646 45.6979,-25.8438 44.0938,-25.8438 C42.4063,-25.8438 41.0547,-25.3359 40.0391,-24.3203 C39.0234,-23.3047 38.5052,-21.8958 38.4844,-20.0938 L34.875,-20.4688 C35.125,-23.1667 36.0573,-25.2214 37.6719,-26.6328 C39.2865,-28.0443 41.4531,-28.75 44.1719,-28.75 C46.9219,-28.75 49.0964,-27.9896 50.6953,-26.4688 C52.2943,-24.9479 53.0938,-23.0573 53.0938,-20.7969 C53.0938,-19.651 52.8594,-18.526 52.3906,-17.4219 C51.9219,-16.3177 51.1458,-15.1536 50.0625,-13.9297 C48.9792,-12.7057 47.1719,-11.026 44.6406,-8.89063 C42.5365,-7.11979 41.1849,-5.91927 40.5859,-5.28906 C39.987,-4.65885 39.4896,-4.02083 39.0938,-3.375 L53.1406,-3.375"/>
</g>

<g fill="#212121" fill-opacity="1" stroke="none" transform="matrix(0.5,0,0,0.5,30,160.478)"
font-family="MS Shell Dlg 2" font-size="8" font-weight="400" font-style="normal" 
>
<path vector-effect="none" fill-rule="evenodd" d="M1.65625,-14.125 C1.65625,-17.5104 2.00521,-20.2344 2.70313,-22.2969 C3.40104,-24.3594 4.4375,-25.9505 5.8125,-27.0703 C7.1875,-28.1901 8.91667,-28.75 11,-28.75 C12.5313,-28.75 13.8776,-28.4401 15.0391,-27.8203 C16.2005,-27.2005 17.1589,-26.3099 17.9141,-25.1484 C18.6693,-23.987 19.2604,-22.5677 19.6875,-20.8906 C20.1146,-19.2135 20.3281,-16.9583 20.3281,-14.125 C20.3281,-10.7604 19.9844,-8.04688 19.2969,-5.98438 C18.6094,-3.92188 17.5781,-2.32813 16.2031,-1.20313 C14.8281,-0.078125 13.0938,0.484375 11,0.484375 C8.23958,0.484375 6.07292,-0.505208 4.5,-2.48438 C2.60417,-4.86979 1.65625,-8.75 1.65625,-14.125 M5.28125,-14.125 C5.28125,-9.42708 5.83073,-6.29948 6.92969,-4.74219 C8.02865,-3.1849 9.38542,-2.40625 11,-2.40625 C12.6146,-2.40625 13.9714,-3.1875 15.0703,-4.75 C16.1693,-6.3125 16.7188,-9.4375 16.7188,-14.125 C16.7188,-18.8333 16.1693,-21.9635 15.0703,-23.5156 C13.9714,-25.0677 12.599,-25.8438 10.9531,-25.8438 C9.33854,-25.8438 8.05208,-25.1615 7.09375,-23.7969 C5.88542,-22.0469 5.28125,-18.8229 5.28125,-14.125 M25.6406,0 L25.6406,-4 L29.6406,-4 L29.6406,0 L25.6406,0 M45.9375,0 L45.9375,-6.85938 L33.5156,-6.85938 L33.5156,-10.0781 L46.5781,-28.6406 L49.4531,-28.6406 L49.4531,-10.0781 L53.3125,-10.0781 L53.3125,-6.85938 L49.4531,-6.85938 L49.4531,0 L45.9375,0 M45.9375,-10.0781 L45.9375,-22.9844 L36.9688,-10.0781 L45.9375,-10.0781"/>
</g>

<g fill="#212121" fill-opacity="1" stroke="none" transform="matrix(0.5,0,0,0.5,30,118.649)"
font-family="MS Shell Dlg 2" font-size="8" font-weight="400" font-style="normal" 
>
<path vector-effect="none" fill-rule="evenodd" d="M1.65625,-14.125 C1.65625,-17.5104 2.00521,-20.2344 2.70313,-22.2969 C3.40104,-24.3594 4.4375,-25.9505 5.8125,-27.0703 C7.1875,-28.1901 8.91667,-28.75 11,-28.75 C12.5313,-28.75 13.8776,-28.4401 15.0391,-27.8203 C16.2005,-27.2005 17.1589,-26.3099 17.9141,-25.1484 C18.6693,-23.987 19.2604,-22.5677 19.6875,-20.8906 C20.1146,-19.2135 20.3281,-16.9583 20.3281,-14.125 C20.3281,-10.7604 19.9844,-8.04688 19.2969,-5.98438 C18.6094,-3.92188 17.5781,-2.32813 16.2031,-1.20313 C14.8281,-0.078125 13.0938,0.484375 11,0.484375 C8.23958,0.484375 6.07292,-0.505208 4.5,-2.48438 C2.60417,-4.86979 1.65625,-8.75 1.65625,-14.125 M5.28125,-14.125 C5.28125,-9.42708 5.83073,-6.29948 6.92969,-4.74219 C8.02865,-3.1849 9.38542,-2.40625 11,-2.40625 C12.6146,-2.40625 13.9714,-3.1875 15.0703,-4.75 C16.1693,-6.3125 16.7188,-9.4375 16.7188,-14.125 C16.7188,-18.8333 16.1693,-21.9635 15.0703,-23.5156 C13.9714,-25.0677 12.599,-25.8438 10.9531,-25.8438 C9.33854,-25.8438 8.05208,-25.1615 7.09375,-23.7969 C5.88542,-22.0469 5.28125,-18.8229 5.28125,-14.125 M25.6406,0 L25.6406,-4 L29.6406,-4 L29.6406,0 L25.6406,0 M52.9063,-21.625 L49.4063,-21.3438 C49.0938,-22.7292 48.651,-23.7344 48.0781,-24.3594 C47.1302,-25.3594 45.9583,-25.8594 44.5625,-25.8594 C43.4479,-25.8594 42.4635,-25.5469 41.6094,-24.9219 C40.5052,-24.1198 39.6354,-22.9427 39,-21.3906 C38.3646,-19.8385 38.0313,-17.6302 38,-14.7656 C38.8438,-16.0573 39.8776,-17.0156 41.1016,-17.6406 C42.3255,-18.2656 43.6094,-18.5781 44.9531,-18.5781 C47.2969,-18.5781 49.2917,-17.7161 50.9375,-15.9922 C52.5833,-14.2682 53.4063,-12.0365 53.4063,-9.29688 C53.4063,-7.50521 53.0208,-5.83594 52.25,-4.28906 C51.4792,-2.74219 50.4167,-1.5599 49.0625,-0.742188 C47.7083,0.0755208 46.1719,0.484375 44.4531,0.484375 C41.5156,0.484375 39.1224,-0.59375 37.2734,-2.75 C35.4245,-4.90625 34.5,-8.45833 34.5,-13.4063 C34.5,-18.9375 35.526,-22.9583 37.5781,-25.4688 C39.3594,-27.6563 41.7604,-28.75 44.7813,-28.75 C47.0313,-28.75 48.875,-28.1198 50.3125,-26.8594 C51.75,-25.599 52.6146,-23.8542 52.9063,-21.625 M38.5469,-9.28125 C38.5469,-8.07292 38.8047,-6.91406 39.3203,-5.80469 C39.8359,-4.69531 40.5547,-3.85156 41.4766,-3.27344 C42.3984,-2.69531 43.3698,-2.40625 44.3906,-2.40625 C45.8698,-2.40625 47.1432,-3.00521 48.2109,-4.20313 C49.2786,-5.40104 49.8125,-7.02604 49.8125,-9.07813 C49.8125,-11.0573 49.2865,-12.6172 48.2344,-13.7578 C47.1823,-14.8984 45.8542,-15.4688 44.25,-15.4688 C42.6667,-15.4688 41.3203,-14.8984 40.2109,-13.7578 C39.1016,-12.6172 38.5469,-11.125 38.5469,-9.28125 "/>
</g>

<g fill="#212121" fill-opacity="1" stroke="none" transform="matrix(0.5,0,0,0.5,30,76.819)"
font-family="MS Shell Dlg 2" font-size="8" font-weight="400" font-style="normal" 
>
<path vector-effect="none" fill-rule="evenodd" d="M1.65625,-14.125 C1.65625,-17.5104 2.00521,-20.2344 2.70313,-22.2969 C3.40104,-24.3594 4.4375,-25.9505 5.8125,-27.0703 C7.1875,-28.1901 8.91667,-28.75 11,-28.75 C12.5313,-28.75 13.8776,-28.4401 15.0391,-27.8203 C16.2005,-27.2005 17.1589,-26.3099 17.9141,-25.1484 C18.6693,-23.987 19.2604,-22.5677 19.6875,-20.8906 C20.1146,-19.2135 20.3281,-16.9583 20.3281,-14.125 C20.3281,-10.7604 19.9844,-8.04688 19.2969,-5.98438 C18.6094,-3.92188 17.5781,-2.32813 16.2031,-1.20313 C14.8281,-0.078125 13.0938,0.484375 11,0.484375 C8.23958,0.484375 6.07292,-0.505208 4.5,-2.48438 C2.60417,-4.86979 1.65625,-8.75 1.65625,-14.125 M5.28125,-14.125 C5.28125,-9.42708 5.83073,-6.29948 6.92969,-4.74219 C8.02865,-3.1849 9.38542,-2.40625 11,-2.40625 C12.6146,-2.40625 13.9714,-3.1875 15.0703,-4.75 C16.1693,-6.3125 16.7188,-9.4375 16.7188,-14.125 C16.7188,-18.8333 16.1693,-21.9635 15.0703,-23.5156 C13.9714,-25.0677 12.599,-25.8438 10.9531,-25.8438 C9.33854,-25.8438 8.05208,-25.1615 7.09375,-23.7969 C5.88542,-22.0469 5.28125,-18.8229 5.28125,-14.125 M25.6406,0 L25.6406,-4 L29.6406,-4 L29.6406,0 L25.6406,0 M40.0781,-15.5313 C38.6198,-16.0625 37.5391,-16.8229 36.8359,-17.8125 C36.1328,-18.8021 35.7813,-19.9896 35.7813,-21.375 C35.7813,-23.4583 36.5286,-25.2083 38.0234,-26.625 C39.5182,-28.0417 41.5104,-28.75 44,-28.75 C46.5,-28.75 48.5104,-28.0234 50.0313,-26.5703 C51.5521,-25.1172 52.3125,-23.349 52.3125,-21.2656 C52.3125,-19.9427 51.9661,-18.7891 51.2734,-17.8047 C50.5807,-16.8203 49.5208,-16.0625 48.0938,-15.5313 C49.8542,-14.9583 51.1927,-14.0339 52.1094,-12.7578 C53.026,-11.4818 53.4844,-9.95833 53.4844,-8.1875 C53.4844,-5.73958 52.6198,-3.68229 50.8906,-2.01563 C49.1615,-0.348958 46.8854,0.484375 44.0625,0.484375 C41.2292,0.484375 38.9479,-0.351563 37.2188,-2.02344 C35.4896,-3.69531 34.625,-5.78125 34.625,-8.28125 C34.625,-10.1458 35.0964,-11.7057 36.0391,-12.9609 C36.9818,-14.2161 38.3281,-15.0729 40.0781,-15.5313 M39.375,-21.4844 C39.375,-20.1302 39.8099,-19.0234 40.6797,-18.1641 C41.5495,-17.3047 42.6823,-16.875 44.0781,-16.875 C45.4323,-16.875 46.5417,-17.3021 47.4063,-18.1563 C48.2708,-19.0104 48.7031,-20.0573 48.7031,-21.2969 C48.7031,-22.5781 48.2578,-23.6589 47.3672,-24.5391 C46.4766,-25.4193 45.3646,-25.8594 44.0313,-25.8594 C42.6979,-25.8594 41.5885,-25.4297 40.7031,-24.5703 C39.8177,-23.7109 39.375,-22.6823 39.375,-21.4844 M38.2344,-8.26563 C38.2344,-7.26563 38.4714,-6.29688 38.9453,-5.35938 C39.4193,-4.42188 40.125,-3.69531 41.0625,-3.17969 C42,-2.66406 43.0104,-2.40625 44.0938,-2.40625 C45.7708,-2.40625 47.1563,-2.94531 48.25,-4.02344 C49.3438,-5.10156 49.8906,-6.47396 49.8906,-8.14063 C49.8906,-9.83854 49.3281,-11.2396 48.2031,-12.3438 C47.0781,-13.4479 45.6719,-14 43.9844,-14 C42.3281,-14 40.9557,-13.4531 39.8672,-12.3594 C38.7786,-11.2656 38.2344,-9.90104 38.2344,-8.26563 "/>
</g>

<g fill="#212121" fill-opacity="1" stroke="none" transform="matrix(0.5,0,0,0.5,46.5,34.9895)"
font-family="MS Shell Dlg 2" font-size="8" font-weight="400" font-style="normal" 
>
<path vector-effect="none" fill-rule="evenodd" d="M14.9063,0 L11.3906,0 L11.3906,-22.4063 C10.5469,-21.5938 9.4375,-20.7839 8.0625,-19.9766 C6.6875,-19.1693 5.45313,-18.5677 4.35938,-18.1719 L4.35938,-21.5625 C6.32813,-22.4896 8.04688,-23.6094 9.51563,-24.9219 C10.9844,-26.2344 12.026,-27.5104 12.6406,-28.75 L14.9063,-28.75 L14.9063,0"/>
</g>

<g fill="none" stroke="#1171be" stroke-opacity="1" stroke-width="4" stroke-linecap="butt" stroke-linejoin="round" transform="matrix(0.5,0,0,0.5,0,0)"
font-family="MS Shell Dlg 2" font-size="8" font-weight="400" font-style="normal" 
>
<polyline fill="none" vector-effect="none" points="127,474.274 130.44,474.274 133.88,474.274 137.32,474.274 140.76,474.274 144.2,474.274 147.64,474.274 151.08,474.274 154.52,474.274 157.96,474.274 161.4,474.274 164.84,474.274 168.28,474.274 171.72,474.274 175.16,474.274 178.6,474.274 182.04,474.274 185.48,474.274 188.92,474.274 192.36,474.274 195.8,474.274 199.24,474.274 202.68,474.274 206.12,474.274 209.56,474.274 213,474.274 216.44,474.274 219.88,474.274 223.32,474.273 226.76,474.269 230.2,474.258 233.64,474.225 237.08,474.138 240.52,473.927 243.96,473.43 247.4,472.371 250.84,470.296 254.28,466.491 257.72,459.964 261.16,449.437 264.6,433.332 268.04,410.497 271.48,380.368 274.92,343 278.36,299.75 281.8,253.329 285.24,207.807 288.68,167.786 292.12,137.531 295.56,120.461 299,118.469 302.44,131.84 305.88,159.021 309.32,197.108 312.76,240.02 316.2,283.476 319.64,325.629 323.08,364.71 326.52,399.354 329.96,426.471 333.4,447.729 336.84,463.638 340.28,473.217 343.72,479.306 347.16,482.103 350.6,482.174 354.04,481.216 357.48,479.422 360.92,477.496 364.36,475.871 367.8,474.689 371.24,473.988 374.68,473.592 378.12,473.554 381.56,473.68 385,473.844 388.44,474.035 391.88,474.183 395.32,474.286 398.76,474.33 402.2,474.341 405.64,474.332 409.08,474.307 412.52,474.282 415.96,474.259 419.4,474.24 422.84,474.223 426.28,474.206 429.72,474.187 433.16,474.164 436.6,474.135 440.04,474.099 443.48,474.056 446.92,474.004 450.36,473.944 453.8,473.878 457.24,473.803 460.68,473.724 464.12,473.641 467.56,473.554 471,473.468 474.44,473.384 477.88,473.307 481.32,473.238 484.76,473.178 488.2,473.133 491.64,473.1 495.08,473.083 498.52,473.087 501.96,473.107 505.4,473.145 508.84,473.206 512.28,473.283 515.72,473.363 519.16,473.446 522.6,473.537 526.04,473.626 529.48,473.715 532.92,473.804 536.36,473.893 539.8,473.976 543.24,474.057 546.68,474.132 550.12,474.181 553.56,474.222 557,474.262 560.44,474.284 563.88,474.306 567.32,474.318 570.76,474.317 574.2,474.321 577.64,474.313 581.08,474.298 584.52,474.288 587.96,474.27 591.4,474.249 594.84,474.23 598.28,474.211 601.72,474.191 605.16,474.17 608.6,474.147 612.04,474.125 615.48,474.101 618.92,474.075 622.36,474.05 625.8,474.022 629.24,473.994 632.68,473.965 636.12,473.934 639.56,473.902 643,473.871 646.44,473.838 649.88,473.806 653.32,473.775 656.76,473.746 660.2,473.717 663.64,473.693 667.08,473.671 670.52,473.651 673.96,473.638 677.4,473.627 680.84,473.621 684.28,473.623 687.72,473.625 691.16,473.636 694.6,473.655 698.04,473.67 701.48,473.696 704.92,473.728 708.36,473.757 711.8,473.795 715.24,473.836 718.68,473.873 722.12,473.91 725.56,473.946 729,473.981 732.44,474.015 735.88,474.05 739.32,474.086 742.76,474.121 746.2,474.153 749.64,474.174 753.08,474.194 756.52,474.222 759.96,474.249 763.4,474.276 766.84,474.287 770.28,474.287 773.72,474.297 777.16,474.311 780.6,474.324 784.04,474.335 787.48,474.331 790.92,474.325 794.36,474.329 797.8,474.333 801.24,474.337 804.68,474.32 808.12,474.294 811.56,474.287 815,474.287 " />
</g>

<g fill="#000000" fill-opacity="1" stroke="none" transform="matrix(0.5,0,0,0.5,0,0)"
font-family="MS Shell Dlg 2" font-size="8" font-weight="400" font-style="normal" 
>
<circle cx="299.001" cy="45" r="6"/>
</g>

<g fill="none" stroke="#000000" stroke-opacity="1" stroke-width="4" stroke-linecap="butt" stroke-linejoin="miter" stroke-miterlimit="2" transform="matrix(0.5,0,0,0.5,0,0)"
font-family="MS Shell Dlg 2" font-size="8" font-weight="400" font-style="normal" 
>
<path vector-effect="none" fill-rule="evenodd" d="M305.001,45 C305.001,41.6863 302.314,39 299.001,39 C295.687,39 293.001,41.6863 293.001,45 C293.001,48.3137 295.687,51 299.001,51 C302.314,51 305.001,48.3137 305.001,45 "/>
</g>

<g fill="none" stroke="#d95319" stroke-opacity="1" stroke-dasharray="16,16" stroke-dashoffset="0" stroke-width="4" stroke-linecap="butt" stroke-linejoin="round" transform="matrix(0.5,0,0,0.5,0,0)"
font-family="MS Shell Dlg 2" font-size="8" font-weight="400" font-style="normal" 
>
<polyline fill="none" vector-effect="none" points="127,474.274 130.44,474.274 133.88,474.274 137.32,474.274 140.76,474.274 144.2,474.274 147.64,474.274 151.08,474.274 154.52,474.274 157.96,474.274 161.4,474.274 164.84,474.274 168.28,474.274 171.72,474.274 175.16,474.274 178.6,474.274 182.04,474.274 185.48,474.274 188.92,474.274 192.36,474.274 195.8,474.274 199.24,474.274 202.68,474.274 206.12,474.274 209.56,474.274 213,474.274 216.44,474.274 219.88,474.274 223.32,474.274 226.76,474.274 230.2,474.274 233.64,474.274 237.08,474.273 240.52,474.271 243.96,474.267 247.4,474.258 250.84,474.238 254.28,474.199 257.72,474.127 261.16,474.001 264.6,473.787 268.04,473.453 271.48,472.965 274.92,472.289 278.36,471.409 281.8,470.325 285.24,469.074 288.68,467.736 292.12,466.414 295.56,465.225 299,464.297 302.44,463.755 305.88,463.69 309.32,464.152 312.76,464.972 316.2,465.993 319.64,467.256 323.08,468.61 326.52,469.919 329.96,471.104 333.4,472.132 336.84,473.006 340.28,473.65 343.72,474.123 347.16,474.411 350.6,474.523 354.04,474.553 357.48,474.512 360.92,474.444 364.36,474.379 367.8,474.319 371.24,474.271 374.68,474.229 378.12,474.19 381.56,474.142 385,474.079 388.44,473.97 391.88,473.802 395.32,473.567 398.76,473.178 402.2,472.63 405.64,471.887 409.08,470.778 412.52,469.316 415.96,467.394 419.4,464.75 422.84,461.466 426.28,457.288 429.72,451.972 433.16,445.714 436.6,438.086 440.04,429.044 443.48,418.937 446.92,407.263 450.36,394.35 453.8,380.645 457.24,365.894 460.68,350.705 464.12,335.48 467.56,320.641 471,306.635 474.44,293.721 477.88,283.016 481.32,274.38 484.76,268.07 488.2,265.256 491.64,265.127 495.08,268.071 498.52,274.589 501.96,283.493 505.4,295.199 508.84,309.628 512.28,325.67 515.72,342.084 519.16,358.192 522.6,374.335 526.04,390.474 529.48,405.235 532.92,419.005 536.36,432.992 539.8,443.835 543.24,453.182 546.68,462.89 550.12,469.111 553.56,474.394 557,479.259 560.44,481.35 563.88,483.411 567.32,484.404 570.76,483.757 574.2,483.688 577.64,482.645 581.08,480.971 584.52,479.831 587.96,478.479 591.4,477.06 594.84,475.898 598.28,475.03 601.72,474.185 605.16,473.601 608.6,473.362 612.04,473.029 615.48,472.99 618.92,473.148 622.36,473.165 625.8,473.345 629.24,473.583 632.68,473.755 636.12,473.934 639.56,474.114 643,474.245 646.44,474.326 649.88,474.415 653.32,474.449 656.76,474.441 660.2,474.457 663.64,474.435 667.08,474.397 670.52,474.374 673.96,474.344 677.4,474.312 680.84,474.289 684.28,474.273 687.72,474.257 691.16,474.25 694.6,474.25 698.04,474.246 701.48,474.249 704.92,474.255 708.36,474.258 711.8,474.262 715.24,474.265 718.68,474.269 722.12,474.272 725.56,474.276 729,474.276 732.44,474.275 735.88,474.276 739.32,474.277 742.76,474.279 746.2,474.279 749.64,474.278 753.08,474.277 756.52,474.277 759.96,474.276 763.4,474.276 766.84,474.276 770.28,474.275 773.72,474.275 777.16,474.274 780.6,474.274 784.04,474.274 787.48,474.274 790.92,474.274 794.36,474.274 797.8,474.274 801.24,474.274 804.68,474.274 808.12,474.274 811.56,474.274 815,474.274 " />
</g>

<g fill="#000000" fill-opacity="1" stroke="none" transform="matrix(0.5,0,0,0.5,0,0)"
font-family="MS Shell Dlg 2" font-size="8" font-weight="400" font-style="normal" 
>
<circle cx="494.089" cy="182.462" r="6"/>
</g>

<g fill="none" stroke="#000000" stroke-opacity="1" stroke-width="4" stroke-linecap="butt" stroke-linejoin="miter" stroke-miterlimit="2" transform="matrix(0.5,0,0,0.5,0,0)"
font-family="MS Shell Dlg 2" font-size="8" font-weight="400" font-style="normal" 
>
<path vector-effect="none" fill-rule="evenodd" d="M500.089,182.462 C500.089,179.149 497.403,176.462 494.089,176.462 C490.775,176.462 488.089,179.149 488.089,182.462 C488.089,185.776 490.775,188.462 494.089,188.462 C497.403,188.462 500.089,185.776 500.089,182.462 "/>
</g>

<g fill="none" stroke="#77ac30" stroke-opacity="1" stroke-width="4" stroke-linecap="butt" stroke-linejoin="round" transform="matrix(0.5,0,0,0.5,0,0)"
font-family="MS Shell Dlg 2" font-size="8" font-weight="400" font-style="normal" 
>
<polyline fill="none" vector-effect="none" points="127,474.274 130.44,474.274 133.88,474.274 137.32,474.274 140.76,474.274 144.2,474.274 147.64,474.274 151.08,474.274 154.52,474.274 157.96,474.274 161.4,474.274 164.84,474.274 168.28,474.274 171.72,474.274 175.16,474.274 178.6,474.274 182.04,474.274 185.48,474.274 188.92,474.274 192.36,474.274 195.8,474.274 199.24,474.274 202.68,474.274 206.12,474.274 209.56,474.274 213,474.274 216.44,474.274 219.88,474.274 223.32,474.274 226.76,474.274 230.2,474.274 233.64,474.273 237.08,474.271 240.52,474.267 243.96,474.255 247.4,474.229 250.84,474.173 254.28,474.063 257.72,473.858 261.16,473.501 264.6,472.904 268.04,471.973 271.48,470.608 274.92,468.699 278.36,466.169 281.8,463.011 285.24,459.322 288.68,455.366 292.12,451.521 295.56,448.175 299,445.689 302.44,444.372 305.88,444.432 309.32,445.972 312.76,448.49 316.2,451.534 319.64,455.2 323.08,459.085 326.52,462.843 329.96,466.26 333.4,469.22 336.84,471.639 340.28,473.28 343.72,474.37 347.16,474.937 350.6,475.072 354.04,475.059 357.48,474.916 360.92,474.731 364.36,474.56 367.8,474.415 371.24,474.312 374.68,474.242 378.12,474.214 381.56,474.21 385,474.216 388.44,474.233 391.88,474.251 395.32,474.265 398.76,474.275 402.2,474.279 405.64,474.281 409.08,474.28 412.52,474.279 415.96,474.277 419.4,474.275 422.84,474.274 426.28,474.273 429.72,474.273 433.16,474.273 436.6,474.274 440.04,474.274 443.48,474.274 446.92,474.274 450.36,474.274 453.8,474.274 457.24,474.274 460.68,474.274 464.12,474.274 467.56,474.274 471,474.274 474.44,474.274 477.88,474.274 481.32,474.274 484.76,474.274 488.2,474.274 491.64,474.274 495.08,474.273 498.52,474.272 501.96,474.271 505.4,474.27 508.84,474.265 512.28,474.258 515.72,474.25 519.16,474.236 522.6,474.214 526.04,474.193 529.48,474.15 532.92,474.088 536.36,474.031 539.8,473.914 543.24,473.768 546.68,473.614 550.12,473.347 553.56,473.049 557,472.677 560.44,472.125 563.88,471.57 567.32,470.774 570.76,469.729 574.2,468.755 577.64,467.253 581.08,465.467 584.52,463.751 587.96,461.292 591.4,458.597 594.84,455.733 598.28,452.028 601.72,448.256 605.16,443.933 608.6,438.808 612.04,433.901 615.48,428.017 618.92,421.522 622.36,415.387 625.8,408.378 629.24,401.053 632.68,393.916 636.12,386.393 639.56,378.814 643,371.539 646.44,364.44 649.88,357.309 653.32,351.155 656.76,345.617 660.2,339.92 663.64,336.021 667.08,332.864 670.52,329.826 673.96,329.034 677.4,328.688 680.84,329.226 684.28,331.952 687.72,334.475 691.16,338.798 694.6,344.809 698.04,350.1 701.48,357.384 704.92,365.641 708.36,373.291 711.8,382.051 715.24,391.09 718.68,399.682 722.12,408.275 725.56,416.868 729,423.995 732.44,430.344 735.88,437.613 739.32,445.113 742.76,452.614 746.2,458.976 749.64,462.056 753.08,465.039 756.52,470.069 759.96,475.099 763.4,480.129 766.84,481.618 770.28,480.883 773.72,482.266 777.16,484.45 780.6,486.634 784.04,488 787.48,486.363 790.92,484.461 794.36,484.477 797.8,484.493 801.24,484.51 804.68,481.437 808.12,477.237 811.56,476.117 815,476.117 " />
</g>

<g fill="none" stroke="#77ac30" stroke-opacity="1" stroke-width="4" stroke-linecap="butt" stroke-linejoin="miter" stroke-miterlimit="2" transform="matrix(0.5,0,0,0.5,0,0)"
font-family="MS Shell Dlg 2" font-size="8" font-weight="400" font-style="normal" 
>
<path vector-effect="none" fill-rule="evenodd" d="M133,474.274 C133,470.96 130.314,468.274 127,468.274 C123.686,468.274 121,470.96 121,474.274 C121,477.588 123.686,480.274 127,480.274 C130.314,480.274 133,477.588 133,474.274 "/>
<path vector-effect="none" fill-rule="evenodd" d="M167.4,474.274 C167.4,470.96 164.714,468.274 161.4,468.274 C158.086,468.274 155.4,470.96 155.4,474.274 C155.4,477.588 158.086,480.274 161.4,480.274 C164.714,480.274 167.4,477.588 167.4,474.274 "/>
<path vector-effect="none" fill-rule="evenodd" d="M201.8,474.274 C201.8,470.96 199.114,468.274 195.8,468.274 C192.486,468.274 189.8,470.96 189.8,474.274 C189.8,477.588 192.486,480.274 195.8,480.274 C199.114,480.274 201.8,477.588 201.8,474.274 "/>
<path vector-effect="none" fill-rule="evenodd" d="M236.2,474.274 C236.2,470.96 233.514,468.274 230.2,468.274 C226.886,468.274 224.2,470.96 224.2,474.274 C224.2,477.588 226.886,480.274 230.2,480.274 C233.514,480.274 236.2,477.588 236.2,474.274 "/>
<path vector-effect="none" fill-rule="evenodd" d="M270.6,472.904 C270.6,469.59 267.914,466.904 264.6,466.904 C261.286,466.904 258.6,469.59 258.6,472.904 C258.6,476.218 261.286,478.904 264.6,478.904 C267.914,478.904 270.6,476.218 270.6,472.904 "/>
<path vector-effect="none" fill-rule="evenodd" d="M305,445.689 C305,442.375 302.314,439.689 299,439.689 C295.686,439.689 293,442.375 293,445.689 C293,449.003 295.686,451.689 299,451.689 C302.314,451.689 305,449.003 305,445.689 "/>
<path vector-effect="none" fill-rule="evenodd" d="M339.4,469.22 C339.4,465.907 336.714,463.22 333.4,463.22 C330.086,463.22 327.4,465.907 327.4,469.22 C327.4,472.534 330.086,475.22 333.4,475.22 C336.714,475.22 339.4,472.534 339.4,469.22 "/>
<path vector-effect="none" fill-rule="evenodd" d="M373.8,474.415 C373.8,471.101 371.114,468.415 367.8,468.415 C364.486,468.415 361.8,471.101 361.8,474.415 C361.8,477.729 364.486,480.415 367.8,480.415 C371.114,480.415 373.8,477.729 373.8,474.415 "/>
<path vector-effect="none" fill-rule="evenodd" d="M408.2,474.279 C408.2,470.966 405.514,468.279 402.2,468.279 C398.886,468.279 396.2,470.966 396.2,474.279 C396.2,477.593 398.886,480.279 402.2,480.279 C405.514,480.279 408.2,477.593 408.2,474.279 "/>
<path vector-effect="none" fill-rule="evenodd" d="M442.6,474.274 C442.6,470.96 439.914,468.274 436.6,468.274 C433.286,468.274 430.6,470.96 430.6,474.274 C430.6,477.587 433.286,480.274 436.6,480.274 C439.914,480.274 442.6,477.587 442.6,474.274 "/>
<path vector-effect="none" fill-rule="evenodd" d="M477,474.274 C477,470.96 474.314,468.274 471,468.274 C467.686,468.274 465,470.96 465,474.274 C465,477.588 467.686,480.274 471,480.274 C474.314,480.274 477,477.588 477,474.274 "/>
<path vector-effect="none" fill-rule="evenodd" d="M511.4,474.27 C511.4,470.956 508.714,468.27 505.4,468.27 C502.086,468.27 499.4,470.956 499.4,474.27 C499.4,477.583 502.086,480.27 505.4,480.27 C508.714,480.27 511.4,477.583 511.4,474.27 "/>
<path vector-effect="none" fill-rule="evenodd" d="M545.8,473.914 C545.8,470.6 543.114,467.914 539.8,467.914 C536.486,467.914 533.8,470.6 533.8,473.914 C533.8,477.227 536.486,479.914 539.8,479.914 C543.114,479.914 545.8,477.227 545.8,473.914 "/>
<path vector-effect="none" fill-rule="evenodd" d="M580.2,468.755 C580.2,465.441 577.514,462.755 574.2,462.755 C570.886,462.755 568.2,465.441 568.2,468.755 C568.2,472.069 570.886,474.755 574.2,474.755 C577.514,474.755 580.2,472.069 580.2,468.755 "/>
<path vector-effect="none" fill-rule="evenodd" d="M614.6,438.808 C614.6,435.494 611.914,432.808 608.6,432.808 C605.286,432.808 602.6,435.494 602.6,438.808 C602.6,442.122 605.286,444.808 608.6,444.808 C611.914,444.808 614.6,442.122 614.6,438.808 "/>
<path vector-effect="none" fill-rule="evenodd" d="M649,371.539 C649,368.226 646.314,365.539 643,365.539 C639.686,365.539 637,368.226 637,371.539 C637,374.853 639.686,377.539 643,377.539 C646.314,377.539 649,374.853 649,371.539 "/>
<path vector-effect="none" fill-rule="evenodd" d="M683.4,328.688 C683.4,325.374 680.714,322.688 677.4,322.688 C674.086,322.688 671.4,325.374 671.4,328.688 C671.4,332.002 674.086,334.688 677.4,334.688 C680.714,334.688 683.4,332.002 683.4,328.688 "/>
<path vector-effect="none" fill-rule="evenodd" d="M717.8,382.051 C717.8,378.737 715.114,376.051 711.8,376.051 C708.486,376.051 705.8,378.737 705.8,382.051 C705.8,385.364 708.486,388.051 711.8,388.051 C715.114,388.051 717.8,385.364 717.8,382.051 "/>
<path vector-effect="none" fill-rule="evenodd" d="M752.2,458.976 C752.2,455.663 749.514,452.976 746.2,452.976 C742.886,452.976 740.2,455.663 740.2,458.976 C740.2,462.29 742.886,464.976 746.2,464.976 C749.514,464.976 752.2,462.29 752.2,458.976 "/>
<path vector-effect="none" fill-rule="evenodd" d="M786.6,486.634 C786.6,483.32 783.914,480.634 780.6,480.634 C777.286,480.634 774.6,483.32 774.6,486.634 C774.6,489.948 777.286,492.634 780.6,492.634 C783.914,492.634 786.6,489.948 786.6,486.634 "/>
<path vector-effect="none" fill-rule="evenodd" d="M821,476.117 C821,472.803 818.314,470.117 815,470.117 C811.686,470.117 809,472.803 809,476.117 C809,479.43 811.686,482.117 815,482.117 C818.314,482.117 821,479.43 821,476.117 "/>
</g>

<g fill="#000000" fill-opacity="1" stroke="none" transform="matrix(0.5,0,0,0.5,0,0)"
font-family="MS Shell Dlg 2" font-size="8" font-weight="400" font-style="normal" 
>
<circle cx="677.601" cy="234.481" r="6"/>
</g>

<g fill="none" stroke="#000000" stroke-opacity="1" stroke-width="4" stroke-linecap="butt" stroke-linejoin="miter" stroke-miterlimit="2" transform="matrix(0.5,0,0,0.5,0,0)"
font-family="MS Shell Dlg 2" font-size="8" font-weight="400" font-style="normal" 
>
<path vector-effect="none" fill-rule="evenodd" d="M683.601,234.481 C683.601,231.167 680.915,228.481 677.601,228.481 C674.287,228.481 671.601,231.167 671.601,234.481 C671.601,237.795 674.287,240.481 677.601,240.481 C680.915,240.481 683.601,237.795 683.601,234.481 "/>
</g>

<g fill="#ffffff" fill-opacity="1" stroke="none" transform="matrix(5e-05,0,0,5e-05,0,0)"
font-family="MS Shell Dlg 2" font-size="8" font-weight="400" font-style="normal" 
>
<path vector-effect="none" fill-rule="evenodd" d="M6.19e+06,610000 L6.19e+06,1.91e+06 L7.99e+06,1.91e+06 L7.99e+06,610000 L6.19e+06,610000"/>
</g>

<g fill="#1171be" fill-opacity="1" stroke="#1171be" stroke-opacity="1" stroke-width="4" stroke-linecap="butt" stroke-linejoin="round" transform="matrix(0.5,0,0,0.5,0,0)"
font-family="MS Shell Dlg 2" font-size="8" font-weight="400" font-style="normal" 
>
<polyline fill="none" vector-effect="none" points="625.017,84.41 685.184,84.41 " />
</g>

<g fill="#d95319" fill-opacity="1" stroke="#d95319" stroke-opacity="1" stroke-dasharray="16,16" stroke-dashoffset="0" stroke-width="4" stroke-linecap="butt" stroke-linejoin="round" transform="matrix(0.5,0,0,0.5,0,0)"
font-family="MS Shell Dlg 2" font-size="8" font-weight="400" font-style="normal" 
>
<polyline fill="none" vector-effect="none" points="625.017,126 685.184,126 " />
</g>

<g fill="#77ac30" fill-opacity="1" stroke="#77ac30" stroke-opacity="1" stroke-width="4" stroke-linecap="butt" stroke-linejoin="round" transform="matrix(0.5,0,0,0.5,0,0)"
font-family="MS Shell Dlg 2" font-size="8" font-weight="400" font-style="normal" 
>
<polyline fill="none" vector-effect="none" points="625.017,167.59 685.184,167.59 " />
</g>

<g fill="none" stroke="#77ac30" stroke-opacity="1" stroke-width="4" stroke-linecap="butt" stroke-linejoin="miter" stroke-miterlimit="2" transform="matrix(0.5,0,0,0.5,0,0)"
font-family="MS Shell Dlg 2" font-size="8" font-weight="400" font-style="normal" 
>
<path vector-effect="none" fill-rule="evenodd" d="M661.1,167.59 C661.1,164.276 658.414,161.59 655.1,161.59 C651.787,161.59 649.1,164.276 649.1,167.59 C649.1,170.904 651.787,173.59 655.1,173.59 C658.414,173.59 661.1,170.904 661.1,167.59 "/>
</g>

<g fill="#212121" fill-opacity="1" stroke="none" transform="matrix(0.5,0,0,0.5,344.848,48.455)"
font-family="MS Shell Dlg 2" font-size="8" font-weight="400" font-style="normal" 
>
<path vector-effect="none" fill-rule="evenodd" d="M2.78125,0 L2.78125,-25.7656 L12.5,-25.7656 C14.2083,-25.7656 15.5156,-25.6875 16.4219,-25.5313 C17.6823,-25.3125 18.7422,-24.9089 19.6016,-24.3203 C20.4609,-23.7318 21.151,-22.9036 21.6719,-21.8359 C22.1927,-20.7682 22.4531,-19.5938 22.4531,-18.3125 C22.4531,-16.125 21.7552,-14.2734 20.3594,-12.7578 C18.9635,-11.2422 16.4427,-10.4844 12.7969,-10.4844 L6.1875,-10.4844 L6.1875,0 L2.78125,0 M6.1875,-13.5156 L12.8438,-13.5156 C15.0521,-13.5156 16.6198,-13.9271 17.5469,-14.75 C18.474,-15.5729 18.9375,-16.7292 18.9375,-18.2188 C18.9375,-19.2917 18.6641,-20.2109 18.1172,-20.9766 C17.5703,-21.7422 16.8542,-22.25 15.9688,-22.5 C15.3854,-22.6563 14.3229,-22.7344 12.7813,-22.7344 L6.1875,-22.7344 L6.1875,-13.5156 M26.3906,-22.125 L26.3906,-25.7656 L29.5625,-25.7656 L29.5625,-22.125 L26.3906,-22.125 M26.3906,0 L26.3906,-18.6719 L29.5625,-18.6719 L29.5625,0 L26.3906,0 M34.375,7.15625 L34.375,-18.6719 L37.25,-18.6719 L37.25,-16.25 C37.9375,-17.1979 38.7083,-17.9089 39.5625,-18.3828 C40.4167,-18.8568 41.4531,-19.0938 42.6719,-19.0938 C44.2656,-19.0938 45.6719,-18.6823 46.8906,-17.8594 C48.1094,-17.0365 49.0286,-15.8776 49.6484,-14.3828 C50.2682,-12.888 50.5781,-11.25 50.5781,-9.46875 C50.5781,-7.5625 50.237,-5.84375 49.5547,-4.3125 C48.8724,-2.78125 47.8776,-1.60938 46.5703,-0.796875 C45.263,0.015625 43.8854,0.421875 42.4375,0.421875 C41.3854,0.421875 40.4401,0.197917 39.6016,-0.25 C38.763,-0.697917 38.0729,-1.26042 37.5313,-1.9375 L37.5313,7.15625 L34.375,7.15625 M37.2344,-9.23438 C37.2344,-6.82813 37.7214,-5.05208 38.6953,-3.90625 C39.6693,-2.76042 40.849,-2.1875 42.2344,-2.1875 C43.6406,-2.1875 44.8438,-2.78125 45.8438,-3.96875 C46.8438,-5.15625 47.3438,-7 47.3438,-9.5 C47.3438,-11.875 46.8542,-13.6536 45.875,-14.8359 C44.8958,-16.0182 43.7292,-16.6094 42.375,-16.6094 C41.0208,-16.6094 39.8255,-15.9792 38.7891,-14.7188 C37.7526,-13.4583 37.2344,-11.6302 37.2344,-9.23438 M67.1563,-6.01563 L70.4219,-5.60938 C69.9115,-3.70313 68.9583,-2.22135 67.5625,-1.16406 C66.1667,-0.106771 64.3854,0.421875 62.2188,0.421875 C59.4896,0.421875 57.3229,-0.419271 55.7188,-2.10156 C54.1146,-3.78385 53.3125,-6.14063 53.3125,-9.17188 C53.3125,-12.3177 54.1224,-14.7578 55.7422,-16.4922 C57.362,-18.2266 59.4583,-19.0938 62.0313,-19.0938 C64.5313,-19.0938 66.5729,-18.2448 68.1563,-16.5469 C69.7396,-14.849 70.5313,-12.4583 70.5313,-9.375 C70.5313,-9.1875 70.526,-8.90625 70.5156,-8.53125 L56.5938,-8.53125 C56.7083,-6.47917 57.2865,-4.90885 58.3281,-3.82031 C59.3698,-2.73177 60.6719,-2.1875 62.2344,-2.1875 C63.3906,-2.1875 64.3802,-2.49219 65.2031,-3.10156 C66.026,-3.71094 66.6771,-4.68229 67.1563,-6.01563 M56.7656,-11.125 L67.1875,-11.125 C67.0521,-12.6979 66.6563,-13.875 66,-14.6563 C64.9896,-15.875 63.6823,-16.4844 62.0781,-16.4844 C60.6198,-16.4844 59.3958,-16 58.4063,-15.0313 C57.4167,-14.0625 56.8698,-12.7604 56.7656,-11.125 M95.4063,0 L92.25,0 L92.25,-20.1563 C91.4896,-19.4375 90.4896,-18.7135 89.25,-17.9844 C88.0104,-17.2552 86.901,-16.7083 85.9219,-16.3438 L85.9219,-19.4063 C87.6927,-20.2396 89.2396,-21.2474 90.5625,-22.4297 C91.8854,-23.612 92.8229,-24.7604 93.375,-25.875 L95.4063,-25.875 L95.4063,0"/>
</g>

<g fill="#212121" fill-opacity="1" stroke="none" transform="matrix(0.5,0,0,0.5,344.848,69.25)"
font-family="MS Shell Dlg 2" font-size="8" font-weight="400" font-style="normal" 
>
<path vector-effect="none" fill-rule="evenodd" d="M2.78125,0 L2.78125,-25.7656 L12.5,-25.7656 C14.2083,-25.7656 15.5156,-25.6875 16.4219,-25.5313 C17.6823,-25.3125 18.7422,-24.9089 19.6016,-24.3203 C20.4609,-23.7318 21.151,-22.9036 21.6719,-21.8359 C22.1927,-20.7682 22.4531,-19.5938 22.4531,-18.3125 C22.4531,-16.125 21.7552,-14.2734 20.3594,-12.7578 C18.9635,-11.2422 16.4427,-10.4844 12.7969,-10.4844 L6.1875,-10.4844 L6.1875,0 L2.78125,0 M6.1875,-13.5156 L12.8438,-13.5156 C15.0521,-13.5156 16.6198,-13.9271 17.5469,-14.75 C18.474,-15.5729 18.9375,-16.7292 18.9375,-18.2188 C18.9375,-19.2917 18.6641,-20.2109 18.1172,-20.9766 C17.5703,-21.7422 16.8542,-22.25 15.9688,-22.5 C15.3854,-22.6563 14.3229,-22.7344 12.7813,-22.7344 L6.1875,-22.7344 L6.1875,-13.5156 M26.3906,-22.125 L26.3906,-25.7656 L29.5625,-25.7656 L29.5625,-22.125 L26.3906,-22.125 M26.3906,0 L26.3906,-18.6719 L29.5625,-18.6719 L29.5625,0 L26.3906,0 M34.375,7.15625 L34.375,-18.6719 L37.25,-18.6719 L37.25,-16.25 C37.9375,-17.1979 38.7083,-17.9089 39.5625,-18.3828 C40.4167,-18.8568 41.4531,-19.0938 42.6719,-19.0938 C44.2656,-19.0938 45.6719,-18.6823 46.8906,-17.8594 C48.1094,-17.0365 49.0286,-15.8776 49.6484,-14.3828 C50.2682,-12.888 50.5781,-11.25 50.5781,-9.46875 C50.5781,-7.5625 50.237,-5.84375 49.5547,-4.3125 C48.8724,-2.78125 47.8776,-1.60938 46.5703,-0.796875 C45.263,0.015625 43.8854,0.421875 42.4375,0.421875 C41.3854,0.421875 40.4401,0.197917 39.6016,-0.25 C38.763,-0.697917 38.0729,-1.26042 37.5313,-1.9375 L37.5313,7.15625 L34.375,7.15625 M37.2344,-9.23438 C37.2344,-6.82813 37.7214,-5.05208 38.6953,-3.90625 C39.6693,-2.76042 40.849,-2.1875 42.2344,-2.1875 C43.6406,-2.1875 44.8438,-2.78125 45.8438,-3.96875 C46.8438,-5.15625 47.3438,-7 47.3438,-9.5 C47.3438,-11.875 46.8542,-13.6536 45.875,-14.8359 C44.8958,-16.0182 43.7292,-16.6094 42.375,-16.6094 C41.0208,-16.6094 39.8255,-15.9792 38.7891,-14.7188 C37.7526,-13.4583 37.2344,-11.6302 37.2344,-9.23438 M67.1563,-6.01563 L70.4219,-5.60938 C69.9115,-3.70313 68.9583,-2.22135 67.5625,-1.16406 C66.1667,-0.106771 64.3854,0.421875 62.2188,0.421875 C59.4896,0.421875 57.3229,-0.419271 55.7188,-2.10156 C54.1146,-3.78385 53.3125,-6.14063 53.3125,-9.17188 C53.3125,-12.3177 54.1224,-14.7578 55.7422,-16.4922 C57.362,-18.2266 59.4583,-19.0938 62.0313,-19.0938 C64.5313,-19.0938 66.5729,-18.2448 68.1563,-16.5469 C69.7396,-14.849 70.5313,-12.4583 70.5313,-9.375 C70.5313,-9.1875 70.526,-8.90625 70.5156,-8.53125 L56.5938,-8.53125 C56.7083,-6.47917 57.2865,-4.90885 58.3281,-3.82031 C59.3698,-2.73177 60.6719,-2.1875 62.2344,-2.1875 C63.3906,-2.1875 64.3802,-2.49219 65.2031,-3.10156 C66.026,-3.71094 66.6771,-4.68229 67.1563,-6.01563 M56.7656,-11.125 L67.1875,-11.125 C67.0521,-12.6979 66.6563,-13.875 66,-14.6563 C64.9896,-15.875 63.6823,-16.4844 62.0781,-16.4844 C60.6198,-16.4844 59.3958,-16 58.4063,-15.0313 C57.4167,-14.0625 56.8698,-12.7604 56.7656,-11.125 M100.125,-3.04688 L100.125,0 L83.0938,0 C83.0729,-0.760417 83.1927,-1.49479 83.4531,-2.20313 C83.8906,-3.35938 84.5859,-4.5 85.5391,-5.625 C86.4922,-6.75 87.875,-8.05208 89.6875,-9.53125 C92.4896,-11.8229 94.3828,-13.6406 95.3672,-14.9844 C96.3516,-16.3281 96.8438,-17.599 96.8438,-18.7969 C96.8438,-20.0469 96.3932,-21.1016 95.4922,-21.9609 C94.5911,-22.8203 93.4219,-23.25 91.9844,-23.25 C90.4635,-23.25 89.2448,-22.7943 88.3281,-21.8828 C87.4115,-20.9714 86.9479,-19.7083 86.9375,-18.0938 L83.6875,-18.4219 C83.9063,-20.849 84.7422,-22.6979 86.1953,-23.9688 C87.6484,-25.2396 89.6042,-25.875 92.0625,-25.875 C94.5313,-25.875 96.487,-25.1901 97.9297,-23.8203 C99.3724,-22.4505 100.094,-20.75 100.094,-18.7188 C100.094,-17.6875 99.8828,-16.6745 99.4609,-15.6797 C99.0391,-14.6849 98.3385,-13.6354 97.3594,-12.5313 C96.3802,-11.4271 94.7552,-9.91667 92.4844,-8 C90.5781,-6.40625 89.3568,-5.32552 88.8203,-4.75781 C88.2839,-4.1901 87.8385,-3.61979 87.4844,-3.04688 L100.125,-3.04688"/>
</g>

<g fill="#212121" fill-opacity="1" stroke="none" transform="matrix(0.5,0,0,0.5,344.848,90.045)"
font-family="MS Shell Dlg 2" font-size="8" font-weight="400" font-style="normal" 
>
<path vector-effect="none" fill-rule="evenodd" d="M2.78125,0 L2.78125,-25.7656 L12.5,-25.7656 C14.2083,-25.7656 15.5156,-25.6875 16.4219,-25.5313 C17.6823,-25.3125 18.7422,-24.9089 19.6016,-24.3203 C20.4609,-23.7318 21.151,-22.9036 21.6719,-21.8359 C22.1927,-20.7682 22.4531,-19.5938 22.4531,-18.3125 C22.4531,-16.125 21.7552,-14.2734 20.3594,-12.7578 C18.9635,-11.2422 16.4427,-10.4844 12.7969,-10.4844 L6.1875,-10.4844 L6.1875,0 L2.78125,0 M6.1875,-13.5156 L12.8438,-13.5156 C15.0521,-13.5156 16.6198,-13.9271 17.5469,-14.75 C18.474,-15.5729 18.9375,-16.7292 18.9375,-18.2188 C18.9375,-19.2917 18.6641,-20.2109 18.1172,-20.9766 C17.5703,-21.7422 16.8542,-22.25 15.9688,-22.5 C15.3854,-22.6563 14.3229,-22.7344 12.7813,-22.7344 L6.1875,-22.7344 L6.1875,-13.5156 M26.3906,-22.125 L26.3906,-25.7656 L29.5625,-25.7656 L29.5625,-22.125 L26.3906,-22.125 M26.3906,0 L26.3906,-18.6719 L29.5625,-18.6719 L29.5625,0 L26.3906,0 M34.375,7.15625 L34.375,-18.6719 L37.25,-18.6719 L37.25,-16.25 C37.9375,-17.1979 38.7083,-17.9089 39.5625,-18.3828 C40.4167,-18.8568 41.4531,-19.0938 42.6719,-19.0938 C44.2656,-19.0938 45.6719,-18.6823 46.8906,-17.8594 C48.1094,-17.0365 49.0286,-15.8776 49.6484,-14.3828 C50.2682,-12.888 50.5781,-11.25 50.5781,-9.46875 C50.5781,-7.5625 50.237,-5.84375 49.5547,-4.3125 C48.8724,-2.78125 47.8776,-1.60938 46.5703,-0.796875 C45.263,0.015625 43.8854,0.421875 42.4375,0.421875 C41.3854,0.421875 40.4401,0.197917 39.6016,-0.25 C38.763,-0.697917 38.0729,-1.26042 37.5313,-1.9375 L37.5313,7.15625 L34.375,7.15625 M37.2344,-9.23438 C37.2344,-6.82813 37.7214,-5.05208 38.6953,-3.90625 C39.6693,-2.76042 40.849,-2.1875 42.2344,-2.1875 C43.6406,-2.1875 44.8438,-2.78125 45.8438,-3.96875 C46.8438,-5.15625 47.3438,-7 47.3438,-9.5 C47.3438,-11.875 46.8542,-13.6536 45.875,-14.8359 C44.8958,-16.0182 43.7292,-16.6094 42.375,-16.6094 C41.0208,-16.6094 39.8255,-15.9792 38.7891,-14.7188 C37.7526,-13.4583 37.2344,-11.6302 37.2344,-9.23438 M67.1563,-6.01563 L70.4219,-5.60938 C69.9115,-3.70313 68.9583,-2.22135 67.5625,-1.16406 C66.1667,-0.106771 64.3854,0.421875 62.2188,0.421875 C59.4896,0.421875 57.3229,-0.419271 55.7188,-2.10156 C54.1146,-3.78385 53.3125,-6.14063 53.3125,-9.17188 C53.3125,-12.3177 54.1224,-14.7578 55.7422,-16.4922 C57.362,-18.2266 59.4583,-19.0938 62.0313,-19.0938 C64.5313,-19.0938 66.5729,-18.2448 68.1563,-16.5469 C69.7396,-14.849 70.5313,-12.4583 70.5313,-9.375 C70.5313,-9.1875 70.526,-8.90625 70.5156,-8.53125 L56.5938,-8.53125 C56.7083,-6.47917 57.2865,-4.90885 58.3281,-3.82031 C59.3698,-2.73177 60.6719,-2.1875 62.2344,-2.1875 C63.3906,-2.1875 64.3802,-2.49219 65.2031,-3.10156 C66.026,-3.71094 66.6771,-4.68229 67.1563,-6.01563 M56.7656,-11.125 L67.1875,-11.125 C67.0521,-12.6979 66.6563,-13.875 66,-14.6563 C64.9896,-15.875 63.6823,-16.4844 62.0781,-16.4844 C60.6198,-16.4844 59.3958,-16 58.4063,-15.0313 C57.4167,-14.0625 56.8698,-12.7604 56.7656,-11.125 M83.5156,-6.79688 L86.6719,-7.21875 C87.0365,-5.42708 87.6563,-4.13542 88.5313,-3.34375 C89.4063,-2.55208 90.4688,-2.15625 91.7188,-2.15625 C93.2083,-2.15625 94.4661,-2.67188 95.4922,-3.70313 C96.5182,-4.73438 97.0313,-6.01563 97.0313,-7.54688 C97.0313,-8.99479 96.5573,-10.1901 95.6094,-11.1328 C94.6615,-12.0755 93.4531,-12.5469 91.9844,-12.5469 C91.3906,-12.5469 90.6458,-12.4323 89.75,-12.2031 L90.1094,-14.9844 C90.3177,-14.9531 90.4844,-14.9375 90.6094,-14.9375 C91.9635,-14.9375 93.1797,-15.2891 94.2578,-15.9922 C95.3359,-16.6953 95.875,-17.7813 95.875,-19.25 C95.875,-20.4063 95.4818,-21.3672 94.6953,-22.1328 C93.9089,-22.8984 92.8958,-23.2813 91.6563,-23.2813 C90.4271,-23.2813 89.401,-22.8932 88.5781,-22.1172 C87.7552,-21.3411 87.2292,-20.1823 87,-18.6406 L83.8281,-19.2031 C84.2135,-21.3177 85.0911,-22.9583 86.4609,-24.125 C87.8307,-25.2917 89.5365,-25.875 91.5781,-25.875 C92.9844,-25.875 94.2786,-25.5729 95.4609,-24.9688 C96.6432,-24.3646 97.5495,-23.5417 98.1797,-22.5 C98.8099,-21.4583 99.125,-20.349 99.125,-19.1719 C99.125,-18.0677 98.8255,-17.0573 98.2266,-16.1406 C97.6276,-15.224 96.7448,-14.4948 95.5781,-13.9531 C97.099,-13.6094 98.2813,-12.8828 99.125,-11.7734 C99.9688,-10.6641 100.391,-9.27604 100.391,-7.60938 C100.391,-5.35938 99.5703,-3.45313 97.9297,-1.89063 C96.2891,-0.328125 94.2135,0.453125 91.7031,0.453125 C89.4427,0.453125 87.5651,-0.221354 86.0703,-1.57031 C84.5755,-2.91927 83.724,-4.66146 83.5156,-6.79688 "/>
</g>

<g fill="none" stroke="#212121" stroke-opacity="1" stroke-width="1" stroke-linecap="butt" stroke-linejoin="miter" stroke-miterlimit="2" transform="matrix(0.5,0,0,0.5,0,0)"
font-family="MS Shell Dlg 2" font-size="8" font-weight="400" font-style="normal" 
>
<path vector-effect="none" fill-rule="evenodd" d="M619,191 L619,61 L799,61 L799,191 L619,191"/>
</g>
</g>
</svg>
