<?xml version="1.0" encoding="UTF-8" standalone="no"?>
<svg width="228.6mm" height="149.931mm"
 viewBox="0 0 648 425"
 xmlns="http://www.w3.org/2000/svg" xmlns:xlink="http://www.w3.org/1999/xlink"  version="1.2" baseProfile="tiny">
<title>Qt SVG Document</title>
<desc>MATLAB, The MathWorks, Inc. Version 25.2.0.3042426 R2025b Update 1</desc>
<defs>
</defs>
<g fill="none" stroke="black" stroke-width="1" fill-rule="evenodd" stroke-linecap="square" stroke-linejoin="bevel" >

<g fill="#000000" fill-opacity="1" stroke="none" transform="matrix(0.75,0,0,0.75,0,0)"
font-family="MS Shell Dlg 2" font-size="8.25" font-weight="400" font-style="normal" 
>
<path vector-effect="none" fill-rule="evenodd" d="M0,0 L864,0 L864,567 L0,567 L0,0"/>
</g>

<g fill="#121212" fill-opacity="1" stroke="none" transform="matrix(7.5e-05,0,0,7.5e-05,0,0)"
font-family="MS Shell Dlg 2" font-size="8.25" font-weight="400" font-style="normal" 
>
<path vector-effect="none" fill-rule="evenodd" d="M1.12e+06,200000 L1.12e+06,4.18e+06 L8.27e+06,4.18e+06 L8.27e+06,200000 L1.12e+06,200000"/>
</g>

<g fill="#ffffff" fill-opacity="0.25098" stroke="#ffffff" stroke-opacity="0.25098" stroke-width="0.666667" stroke-linecap="butt" stroke-linejoin="round" transform="matrix(0.75,0,0,0.75,0,0)"
font-family="MS Shell Dlg 2" font-size="8.25" font-weight="400" font-style="normal" 
>
<polyline fill="none" vector-effect="none" points="112,20 112,418 " />
<polyline fill="none" vector-effect="none" points="231.167,20 231.167,418 " />
<polyline fill="none" vector-effect="none" points="350.333,20 350.333,418 " />
<polyline fill="none" vector-effect="none" points="469.5,20 469.5,418 " />
<polyline fill="none" vector-effect="none" points="588.667,20 588.667,418 " />
<polyline fill="none" vector-effect="none" points="707.833,20 707.833,418 " />
<polyline fill="none" vector-effect="none" points="827,20 827,418 " />
<polyline fill="none" vector-effect="none" points="112,395.683 827,395.683 " />
<polyline fill="none" vector-effect="none" points="112,270.455 827,270.455 " />
<polyline fill="none" vector-effect="none" points="112,145.228 827,145.228 " />
<polyline fill="none" vector-effect="none" points="112,20 827,20 " />
</g>

<g fill="#d9d9d9" fill-opacity="1" stroke="none" transform="matrix(0.75,0,0,0.75,310.629,372.35)"
font-family="MS Shell Dlg 2" font-size="8.25" font-weight="400" font-style="normal" 
>
<path vector-effect="none" fill-rule="evenodd" d="M7.25,0.40625 C6.10417,0.40625 5.09115,0.135417 4.21094,-0.40625 C3.33073,-0.947917 2.64844,-1.67448 2.16406,-2.58594 C1.67969,-3.4974 1.4375,-4.53646 1.4375,-5.70313 C1.4375,-7.32813 1.89323,-8.9375 2.80469,-10.5313 C3.71615,-12.125 4.92448,-13.4193 6.42969,-14.4141 C7.9349,-15.4089 9.51042,-15.9063 11.1563,-15.9063 C12.375,-15.9063 13.4479,-15.5885 14.375,-14.9531 C15.3021,-14.3177 16.0052,-13.4688 16.4844,-12.4063 C16.9635,-11.3438 17.2031,-10.2083 17.2031,-9 L17.25,-6.60938 C18.0625,-7.74479 18.7552,-8.92188 19.3281,-10.1406 C19.901,-11.3594 20.3385,-12.625 20.6406,-13.9375 C20.6823,-14.0833 20.776,-14.1563 20.9219,-14.1563 L21.3438,-14.1563 C21.5625,-14.1563 21.6719,-14.0417 21.6719,-13.8125 C21.6719,-13.7917 21.6615,-13.7604 21.6406,-13.7188 C21.3594,-12.6146 21.0078,-11.5573 20.5859,-10.5469 C20.1641,-9.53646 19.6693,-8.55729 19.1016,-7.60938 C18.5339,-6.66146 17.9167,-5.79688 17.25,-5.01563 C17.25,-2.04688 17.5938,-0.5625 18.2813,-0.5625 C18.7292,-0.5625 19.0964,-0.695313 19.3828,-0.960938 C19.6693,-1.22656 19.9219,-1.55208 20.1406,-1.9375 C20.3594,-2.32292 20.4948,-2.52083 20.5469,-2.53125 L20.9844,-2.53125 C21.1719,-2.53125 21.2656,-2.41146 21.2656,-2.17188 C21.2656,-1.57813 20.9245,-1 20.2422,-0.4375 C19.5599,0.125 18.8854,0.40625 18.2188,0.40625 C17.3438,0.40625 16.6198,0.122396 16.0469,-0.445313 C15.474,-1.01302 15.0833,-1.75 14.875,-2.65625 C13.75,-1.6875 12.5313,-0.934896 11.2188,-0.398438 C9.90625,0.138021 8.58333,0.40625 7.25,0.40625 M7.3125,-0.5625 C9.875,-0.5625 12.3385,-1.61458 14.7031,-3.71875 C14.6823,-3.86458 14.6615,-4.03906 14.6406,-4.24219 C14.6198,-4.44531 14.6094,-4.55729 14.6094,-4.57813 L14.6094,-8.46875 C14.6094,-12.8125 13.4375,-14.9844 11.0938,-14.9844 C9.6875,-14.9844 8.45573,-14.3828 7.39844,-13.1797 C6.34115,-11.9766 5.54688,-10.5417 5.01563,-8.875 C4.48438,-7.20833 4.21875,-5.68229 4.21875,-4.29688 C4.21875,-3.25521 4.48438,-2.3724 5.01563,-1.64844 C5.54688,-0.924479 6.3125,-0.5625 7.3125,-0.5625 "/>
</g>

<g fill="#d9d9d9" fill-opacity="1" stroke="none" transform="matrix(0.75,0,0,0.75,335.962,372.35)"
font-family="MS Shell Dlg 2" font-size="8.25" font-weight="400" font-style="normal" 
>
<path vector-effect="none" fill-rule="evenodd" d="M2.70313,-4.78125 C2.50521,-4.78125 2.34115,-4.85677 2.21094,-5.00781 C2.08073,-5.15885 2.01563,-5.32292 2.01563,-5.5 C2.01563,-5.69792 2.08073,-5.86719 2.21094,-6.00781 C2.34115,-6.14844 2.50521,-6.21875 2.70313,-6.21875 L25.3125,-6.21875 C25.4896,-6.21875 25.6432,-6.14844 25.7734,-6.00781 C25.9036,-5.86719 25.9688,-5.69792 25.9688,-5.5 C25.9688,-5.32292 25.9036,-5.15885 25.7734,-5.00781 C25.6432,-4.85677 25.4896,-4.78125 25.3125,-4.78125 L2.70313,-4.78125 M2.70313,-11.7813 C2.50521,-11.7813 2.34115,-11.8516 2.21094,-11.9922 C2.08073,-12.1328 2.01563,-12.3021 2.01563,-12.5 C2.01563,-12.6771 2.08073,-12.8411 2.21094,-12.9922 C2.34115,-13.1432 2.50521,-13.2188 2.70313,-13.2188 L25.3125,-13.2188 C25.4896,-13.2188 25.6432,-13.1432 25.7734,-12.9922 C25.9036,-12.8411 25.9688,-12.6771 25.9688,-12.5 C25.9688,-12.3021 25.9036,-12.1328 25.7734,-11.9922 C25.6432,-11.8516 25.4896,-11.7813 25.3125,-11.7813 L2.70313,-11.7813"/>
</g>

<g fill="#d9d9d9" fill-opacity="1" stroke="none" transform="matrix(0.75,0,0,0.75,369.54,360.907)"
font-family="MS Shell Dlg 2" font-size="8.25" font-weight="400" font-style="normal" 
>
<path vector-effect="none" fill-rule="evenodd" d="M2.70313,-2.90625 C2.70313,-3.26042 2.75,-3.66406 2.84375,-4.11719 C2.9375,-4.57031 3.04167,-4.97396 3.15625,-5.32813 C3.27083,-5.68229 3.46354,-6.22656 3.73438,-6.96094 C4.00521,-7.69531 4.15104,-8.09375 4.17188,-8.15625 C4.39063,-8.77083 4.5,-9.27083 4.5,-9.65625 C4.5,-10.1563 4.31771,-10.4063 3.95313,-10.4063 C3.29688,-10.4063 2.75521,-10.0651 2.32813,-9.38281 C1.90104,-8.70052 1.58333,-7.94271 1.375,-7.10938 C1.34375,-7.00521 1.27604,-6.95313 1.17188,-6.95313 L0.875,-6.95313 C0.739583,-6.95313 0.671875,-7.03125 0.671875,-7.1875 L0.671875,-7.25 C0.942708,-8.25 1.35417,-9.13281 1.90625,-9.89844 C2.45833,-10.6641 3.15625,-11.0469 4,-11.0469 C4.59375,-11.0469 5.09635,-10.8516 5.50781,-10.4609 C5.91927,-10.0703 6.125,-9.57292 6.125,-8.96875 C6.125,-8.66667 6.05729,-8.34375 5.92188,-8 C5.72396,-7.5 5.49219,-6.89583 5.22656,-6.1875 C4.96094,-5.47917 4.75521,-4.83594 4.60938,-4.25781 C4.46354,-3.67969 4.39063,-3.11979 4.39063,-2.57813 C4.39063,-1.93229 4.5625,-1.40625 4.90625,-1 C5.25,-0.59375 5.74479,-0.390625 6.39063,-0.390625 C7.28646,-0.390625 8.02604,-1.06771 8.60938,-2.42188 C8.57813,-2.51563 8.5625,-2.65104 8.5625,-2.82813 C8.5625,-3.27604 8.63542,-3.78646 8.78125,-4.35938 L10.1875,-9.96875 C10.2396,-10.1875 10.3672,-10.3776 10.5703,-10.5391 C10.7734,-10.7005 10.9948,-10.7813 11.2344,-10.7813 C11.4323,-10.7813 11.6042,-10.7161 11.75,-10.5859 C11.8958,-10.4557 11.9688,-10.2865 11.9688,-10.0781 C11.9688,-9.97396 11.9635,-9.90625 11.9531,-9.875 L10.5469,-4.29688 C10.3802,-3.63021 10.2969,-3.03646 10.2969,-2.51563 C10.2969,-1.89063 10.4427,-1.38021 10.7344,-0.984375 C11.026,-0.588542 11.4792,-0.390625 12.0938,-0.390625 C13.1667,-0.390625 14.0521,-1.09896 14.75,-2.51563 C15.0104,-3.01563 15.2995,-3.75781 15.6172,-4.74219 C15.9349,-5.72656 16.0938,-6.47917 16.0938,-7 C16.0938,-7.47917 16.0182,-7.85938 15.8672,-8.14063 C15.7161,-8.42188 15.5026,-8.72396 15.2266,-9.04688 C14.9505,-9.36979 14.8125,-9.61458 14.8125,-9.78125 C14.8125,-10.0938 14.9505,-10.388 15.2266,-10.6641 C15.5026,-10.9401 15.8021,-11.0781 16.125,-11.0781 C16.5208,-11.0781 16.8073,-10.8932 16.9844,-10.5234 C17.1615,-10.1536 17.25,-9.73958 17.25,-9.28125 C17.25,-8.71875 17.1563,-8.0026 16.9688,-7.13281 C16.7813,-6.26302 16.5443,-5.39063 16.2578,-4.51563 C15.9714,-3.64063 15.7031,-2.94271 15.4531,-2.42188 C14.5469,-0.619792 13.4115,0.28125 12.0469,0.28125 C11.349,0.28125 10.7109,0.145833 10.1328,-0.125 C9.55469,-0.395833 9.125,-0.828125 8.84375,-1.42188 C8.58333,-0.932292 8.23438,-0.526042 7.79688,-0.203125 C7.35938,0.119792 6.875,0.28125 6.34375,0.28125 C5.25,0.28125 4.36979,0.0182292 3.70313,-0.507813 C3.03646,-1.03385 2.70313,-1.83333 2.70313,-2.90625 "/>
</g>

<g fill="#d9d9d9" fill-opacity="1" stroke="none" transform="matrix(0.75,0,0,0.75,383.322,363.825)"
font-family="MS Shell Dlg 2" font-size="8.25" font-weight="400" font-style="normal" 
>
<path vector-effect="none" fill-rule="evenodd" d="M0.796875,-1.45313 C0.796875,-1.49479 0.799479,-1.54948 0.804688,-1.61719 C0.809896,-1.6849 0.817708,-1.7526 0.828125,-1.82031 C0.838542,-1.88802 0.84375,-1.94271 0.84375,-1.98438 L3.07813,-10.8906 C3.11979,-11.099 3.15104,-11.2604 3.17188,-11.375 C3.17188,-11.5625 2.78125,-11.6563 2,-11.6563 C1.875,-11.6563 1.8125,-11.7396 1.8125,-11.9063 C1.82292,-11.9271 1.83854,-11.9766 1.85938,-12.0547 C1.88021,-12.1328 1.90625,-12.1927 1.9375,-12.2344 C1.96875,-12.276 2.01563,-12.2969 2.07813,-12.2969 L4.5,-12.4844 C4.64583,-12.4844 4.71875,-12.4115 4.71875,-12.2656 L2.125,-1.92188 C2.04167,-1.72396 2,-1.43229 2,-1.04688 C2,-0.536458 2.17188,-0.28125 2.51563,-0.28125 C2.89063,-0.28125 3.16927,-0.510417 3.35156,-0.96875 C3.53385,-1.42708 3.69792,-1.98438 3.84375,-2.64063 C3.875,-2.71354 3.92708,-2.75 4,-2.75 L4.20313,-2.75 C4.25521,-2.75 4.29688,-2.73177 4.32813,-2.69531 C4.35938,-2.65885 4.375,-2.61979 4.375,-2.57813 C4.23958,-1.99479 4.11458,-1.53385 4,-1.19531 C3.88542,-0.856771 3.70052,-0.539063 3.44531,-0.242188 C3.1901,0.0546875 2.86979,0.203125 2.48438,0.203125 C2.00521,0.203125 1.60417,0.046875 1.28125,-0.265625 C0.958333,-0.578125 0.796875,-0.973958 0.796875,-1.45313 "/>
</g>

<g fill="#d9d9d9" fill-opacity="1" stroke="none" transform="matrix(7.5e-05,0,0,7.5e-05,0,0)"
font-family="MS Shell Dlg 2" font-size="8.25" font-weight="400" font-style="normal" 
>
<path vector-effect="none" fill-rule="evenodd" d="M4.91052e+06,4.86567e+06 L4.91052e+06,4.88033e+06 L5.20428e+06,4.88033e+06 L5.20428e+06,4.86567e+06 L4.91052e+06,4.86567e+06"/>
</g>

<g fill="#d9d9d9" fill-opacity="1" stroke="none" transform="matrix(0.75,0,0,0.75,368.289,381.833)"
font-family="MS Shell Dlg 2" font-size="8.25" font-weight="400" font-style="normal" 
>
<path vector-effect="none" fill-rule="evenodd" d="M2.70313,-2.90625 C2.70313,-3.26042 2.75,-3.66406 2.84375,-4.11719 C2.9375,-4.57031 3.04167,-4.97396 3.15625,-5.32813 C3.27083,-5.68229 3.46354,-6.22656 3.73438,-6.96094 C4.00521,-7.69531 4.15104,-8.09375 4.17188,-8.15625 C4.39063,-8.77083 4.5,-9.27083 4.5,-9.65625 C4.5,-10.1563 4.31771,-10.4063 3.95313,-10.4063 C3.29688,-10.4063 2.75521,-10.0651 2.32813,-9.38281 C1.90104,-8.70052 1.58333,-7.94271 1.375,-7.10938 C1.34375,-7.00521 1.27604,-6.95313 1.17188,-6.95313 L0.875,-6.95313 C0.739583,-6.95313 0.671875,-7.03125 0.671875,-7.1875 L0.671875,-7.25 C0.942708,-8.25 1.35417,-9.13281 1.90625,-9.89844 C2.45833,-10.6641 3.15625,-11.0469 4,-11.0469 C4.59375,-11.0469 5.09635,-10.8516 5.50781,-10.4609 C5.91927,-10.0703 6.125,-9.57292 6.125,-8.96875 C6.125,-8.66667 6.05729,-8.34375 5.92188,-8 C5.72396,-7.5 5.49219,-6.89583 5.22656,-6.1875 C4.96094,-5.47917 4.75521,-4.83594 4.60938,-4.25781 C4.46354,-3.67969 4.39063,-3.11979 4.39063,-2.57813 C4.39063,-1.93229 4.5625,-1.40625 4.90625,-1 C5.25,-0.59375 5.74479,-0.390625 6.39063,-0.390625 C7.28646,-0.390625 8.02604,-1.06771 8.60938,-2.42188 C8.57813,-2.51563 8.5625,-2.65104 8.5625,-2.82813 C8.5625,-3.27604 8.63542,-3.78646 8.78125,-4.35938 L10.1875,-9.96875 C10.2396,-10.1875 10.3672,-10.3776 10.5703,-10.5391 C10.7734,-10.7005 10.9948,-10.7813 11.2344,-10.7813 C11.4323,-10.7813 11.6042,-10.7161 11.75,-10.5859 C11.8958,-10.4557 11.9688,-10.2865 11.9688,-10.0781 C11.9688,-9.97396 11.9635,-9.90625 11.9531,-9.875 L10.5469,-4.29688 C10.3802,-3.63021 10.2969,-3.03646 10.2969,-2.51563 C10.2969,-1.89063 10.4427,-1.38021 10.7344,-0.984375 C11.026,-0.588542 11.4792,-0.390625 12.0938,-0.390625 C13.1667,-0.390625 14.0521,-1.09896 14.75,-2.51563 C15.0104,-3.01563 15.2995,-3.75781 15.6172,-4.74219 C15.9349,-5.72656 16.0938,-6.47917 16.0938,-7 C16.0938,-7.47917 16.0182,-7.85938 15.8672,-8.14063 C15.7161,-8.42188 15.5026,-8.72396 15.2266,-9.04688 C14.9505,-9.36979 14.8125,-9.61458 14.8125,-9.78125 C14.8125,-10.0938 14.9505,-10.388 15.2266,-10.6641 C15.5026,-10.9401 15.8021,-11.0781 16.125,-11.0781 C16.5208,-11.0781 16.8073,-10.8932 16.9844,-10.5234 C17.1615,-10.1536 17.25,-9.73958 17.25,-9.28125 C17.25,-8.71875 17.1563,-8.0026 16.9688,-7.13281 C16.7813,-6.26302 16.5443,-5.39063 16.2578,-4.51563 C15.9714,-3.64063 15.7031,-2.94271 15.4531,-2.42188 C14.5469,-0.619792 13.4115,0.28125 12.0469,0.28125 C11.349,0.28125 10.7109,0.145833 10.1328,-0.125 C9.55469,-0.395833 9.125,-0.828125 8.84375,-1.42188 C8.58333,-0.932292 8.23438,-0.526042 7.79688,-0.203125 C7.35938,0.119792 6.875,0.28125 6.34375,0.28125 C5.25,0.28125 4.36979,0.0182292 3.70313,-0.507813 C3.03646,-1.03385 2.70313,-1.83333 2.70313,-2.90625 "/>
</g>

<g fill="#d9d9d9" fill-opacity="1" stroke="none" transform="matrix(0.75,0,0,0.75,382.071,384.72)"
font-family="MS Shell Dlg 2" font-size="8.25" font-weight="400" font-style="normal" 
>
<path vector-effect="none" fill-rule="evenodd" d="M1.67188,0 L1.67188,-0.640625 C3.17188,-0.640625 3.92188,-0.828125 3.92188,-1.20313 L3.92188,-10.6563 C3.29688,-10.3542 2.51042,-10.2031 1.5625,-10.2031 L1.5625,-10.8438 C3.03125,-10.8438 4.14063,-11.224 4.89063,-11.9844 L5.15625,-11.9844 C5.19792,-11.9844 5.23698,-11.9688 5.27344,-11.9375 C5.3099,-11.9063 5.32813,-11.8698 5.32813,-11.8281 L5.32813,-1.20313 C5.32813,-0.828125 6.07813,-0.640625 7.57813,-0.640625 L7.57813,0 L1.67188,0"/>
</g>

<g fill="#d9d9d9" fill-opacity="1" stroke="#d9d9d9" stroke-opacity="1" stroke-width="0.666667" stroke-linecap="square" stroke-linejoin="round" transform="matrix(0.75,0,0,0.75,0,0)"
font-family="MS Shell Dlg 2" font-size="8.25" font-weight="400" font-style="normal" 
>
<polyline fill="none" vector-effect="none" points="112,418 827,418 " />
<polyline fill="none" vector-effect="none" points="112,20 827,20 " />
<polyline fill="none" vector-effect="none" points="112,418 112,410.85 " />
<polyline fill="none" vector-effect="none" points="112,27.15 112,20 " />
<polyline fill="none" vector-effect="none" points="231.167,418 231.167,410.85 " />
<polyline fill="none" vector-effect="none" points="231.167,27.15 231.167,20 " />
<polyline fill="none" vector-effect="none" points="350.333,418 350.333,410.85 " />
<polyline fill="none" vector-effect="none" points="350.333,27.15 350.333,20 " />
<polyline fill="none" vector-effect="none" points="469.5,418 469.5,410.85 " />
<polyline fill="none" vector-effect="none" points="469.5,27.15 469.5,20 " />
<polyline fill="none" vector-effect="none" points="588.667,418 588.667,410.85 " />
<polyline fill="none" vector-effect="none" points="588.667,27.15 588.667,20 " />
<polyline fill="none" vector-effect="none" points="707.833,418 707.833,410.85 " />
<polyline fill="none" vector-effect="none" points="707.833,27.15 707.833,20 " />
<polyline fill="none" vector-effect="none" points="827,418 827,410.85 " />
<polyline fill="none" vector-effect="none" points="827,27.15 827,20 " />
</g>

<g fill="#d9d9d9" fill-opacity="1" stroke="none" transform="matrix(0.75,0,0,0.75,67.125,343)"
font-family="MS Shell Dlg 2" font-size="8.25" font-weight="400" font-style="normal" 
>
<path vector-effect="none" fill-rule="evenodd" d="M1.375,-11.6563 C1.375,-14.4479 1.66146,-16.6953 2.23438,-18.3984 C2.80729,-20.1016 3.66146,-21.4141 4.79688,-22.3359 C5.93229,-23.2578 7.35938,-23.7188 9.07813,-23.7188 C10.3385,-23.7188 11.4479,-23.4635 12.4063,-22.9531 C13.3646,-22.4427 14.1536,-21.7057 14.7734,-20.7422 C15.3932,-19.7786 15.8828,-18.6068 16.2422,-17.2266 C16.6016,-15.8464 16.7813,-13.9896 16.7813,-11.6563 C16.7813,-8.88542 16.4948,-6.64844 15.9219,-4.94531 C15.349,-3.24219 14.4974,-1.92448 13.3672,-0.992188 C12.237,-0.0598958 10.8073,0.40625 9.07813,0.40625 C6.79688,0.40625 5.00521,-0.411458 3.70313,-2.04688 C2.15104,-4.01563 1.375,-7.21875 1.375,-11.6563 M4.34375,-11.6563 C4.34375,-7.77083 4.79948,-5.1875 5.71094,-3.90625 C6.6224,-2.625 7.74479,-1.98438 9.07813,-1.98438 C10.401,-1.98438 11.5182,-2.6276 12.4297,-3.91406 C13.3411,-5.20052 13.7969,-7.78125 13.7969,-11.6563 C13.7969,-15.5417 13.3411,-18.1224 12.4297,-19.3984 C11.5182,-20.6745 10.3906,-21.3125 9.04688,-21.3125 C7.71354,-21.3125 6.64583,-20.75 5.84375,-19.625 C4.84375,-18.1875 4.34375,-15.5313 4.34375,-11.6563 M21,0 L21,-3.29688 L24.2969,-3.29688 L24.2969,0 L21,0 M28.375,-6.1875 L31.4219,-6.45313 C31.6406,-4.96354 32.1615,-3.84635 32.9844,-3.10156 C33.8073,-2.35677 34.7969,-1.98438 35.9531,-1.98438 C37.349,-1.98438 38.5313,-2.51042 39.5,-3.5625 C40.4688,-4.61458 40.9531,-6.01042 40.9531,-7.75 C40.9531,-9.40625 40.4896,-10.7109 39.5625,-11.6641 C38.6354,-12.6172 37.4167,-13.0938 35.9063,-13.0938 C34.9792,-13.0938 34.138,-12.8828 33.3828,-12.4609 C32.6276,-12.0391 32.0365,-11.4896 31.6094,-10.8125 L28.8906,-11.1719 L31.1719,-23.2969 L42.9219,-23.2969 L42.9219,-20.5313 L33.5,-20.5313 L32.2188,-14.1875 C33.6354,-15.1667 35.125,-15.6563 36.6875,-15.6563 C38.75,-15.6563 40.4896,-14.9427 41.9063,-13.5156 C43.3229,-12.0885 44.0313,-10.2552 44.0313,-8.01563 C44.0313,-5.86979 43.4063,-4.02083 42.1563,-2.46875 C40.6458,-0.552083 38.5781,0.40625 35.9531,0.40625 C33.8073,0.40625 32.0547,-0.195313 30.6953,-1.39844 C29.3359,-2.60156 28.5625,-4.19792 28.375,-6.1875 "/>
</g>

<g fill="#d9d9d9" fill-opacity="1" stroke="none" transform="matrix(0.75,0,0,0.75,149.75,343)"
font-family="MS Shell Dlg 2" font-size="8.25" font-weight="400" font-style="normal" 
>
<path vector-effect="none" fill-rule="evenodd" d="M1.375,-11.6563 C1.375,-14.4479 1.66146,-16.6953 2.23438,-18.3984 C2.80729,-20.1016 3.66146,-21.4141 4.79688,-22.3359 C5.93229,-23.2578 7.35938,-23.7188 9.07813,-23.7188 C10.3385,-23.7188 11.4479,-23.4635 12.4063,-22.9531 C13.3646,-22.4427 14.1536,-21.7057 14.7734,-20.7422 C15.3932,-19.7786 15.8828,-18.6068 16.2422,-17.2266 C16.6016,-15.8464 16.7813,-13.9896 16.7813,-11.6563 C16.7813,-8.88542 16.4948,-6.64844 15.9219,-4.94531 C15.349,-3.24219 14.4974,-1.92448 13.3672,-0.992188 C12.237,-0.0598958 10.8073,0.40625 9.07813,0.40625 C6.79688,0.40625 5.00521,-0.411458 3.70313,-2.04688 C2.15104,-4.01563 1.375,-7.21875 1.375,-11.6563 M4.34375,-11.6563 C4.34375,-7.77083 4.79948,-5.1875 5.71094,-3.90625 C6.6224,-2.625 7.74479,-1.98438 9.07813,-1.98438 C10.401,-1.98438 11.5182,-2.6276 12.4297,-3.91406 C13.3411,-5.20052 13.7969,-7.78125 13.7969,-11.6563 C13.7969,-15.5417 13.3411,-18.1224 12.4297,-19.3984 C11.5182,-20.6745 10.3906,-21.3125 9.04688,-21.3125 C7.71354,-21.3125 6.64583,-20.75 5.84375,-19.625 C4.84375,-18.1875 4.34375,-15.5313 4.34375,-11.6563 M21,0 L21,-3.29688 L24.2969,-3.29688 L24.2969,0 L21,0 M28.375,-6.1875 L31.4219,-6.45313 C31.6406,-4.96354 32.1615,-3.84635 32.9844,-3.10156 C33.8073,-2.35677 34.7969,-1.98438 35.9531,-1.98438 C37.349,-1.98438 38.5313,-2.51042 39.5,-3.5625 C40.4688,-4.61458 40.9531,-6.01042 40.9531,-7.75 C40.9531,-9.40625 40.4896,-10.7109 39.5625,-11.6641 C38.6354,-12.6172 37.4167,-13.0938 35.9063,-13.0938 C34.9792,-13.0938 34.138,-12.8828 33.3828,-12.4609 C32.6276,-12.0391 32.0365,-11.4896 31.6094,-10.8125 L28.8906,-11.1719 L31.1719,-23.2969 L42.9219,-23.2969 L42.9219,-20.5313 L33.5,-20.5313 L32.2188,-14.1875 C33.6354,-15.1667 35.125,-15.6563 36.6875,-15.6563 C38.75,-15.6563 40.4896,-14.9427 41.9063,-13.5156 C43.3229,-12.0885 44.0313,-10.2552 44.0313,-8.01563 C44.0313,-5.86979 43.4063,-4.02083 42.1563,-2.46875 C40.6458,-0.552083 38.5781,0.40625 35.9531,0.40625 C33.8073,0.40625 32.0547,-0.195313 30.6953,-1.39844 C29.3359,-2.60156 28.5625,-4.19792 28.375,-6.1875 M46.375,-6.1875 L49.4219,-6.45313 C49.6406,-4.96354 50.1615,-3.84635 50.9844,-3.10156 C51.8073,-2.35677 52.7969,-1.98438 53.9531,-1.98438 C55.349,-1.98438 56.5313,-2.51042 57.5,-3.5625 C58.4688,-4.61458 58.9531,-6.01042 58.9531,-7.75 C58.9531,-9.40625 58.4896,-10.7109 57.5625,-11.6641 C56.6354,-12.6172 55.4167,-13.0938 53.9063,-13.0938 C52.9792,-13.0938 52.138,-12.8828 51.3828,-12.4609 C50.6276,-12.0391 50.0365,-11.4896 49.6094,-10.8125 L46.8906,-11.1719 L49.1719,-23.2969 L60.9219,-23.2969 L60.9219,-20.5313 L51.5,-20.5313 L50.2188,-14.1875 C51.6354,-15.1667 53.125,-15.6563 54.6875,-15.6563 C56.75,-15.6563 58.4896,-14.9427 59.9063,-13.5156 C61.3229,-12.0885 62.0313,-10.2552 62.0313,-8.01563 C62.0313,-5.86979 61.4063,-4.02083 60.1563,-2.46875 C58.6458,-0.552083 56.5781,0.40625 53.9531,0.40625 C51.8073,0.40625 50.0547,-0.195313 48.6953,-1.39844 C47.3359,-2.60156 46.5625,-4.19792 46.375,-6.1875 "/>
</g>

<g fill="#d9d9d9" fill-opacity="1" stroke="none" transform="matrix(0.75,0,0,0.75,245.875,343)"
font-family="MS Shell Dlg 2" font-size="8.25" font-weight="400" font-style="normal" 
>
<path vector-effect="none" fill-rule="evenodd" d="M1.375,-11.6563 C1.375,-14.4479 1.66146,-16.6953 2.23438,-18.3984 C2.80729,-20.1016 3.66146,-21.4141 4.79688,-22.3359 C5.93229,-23.2578 7.35938,-23.7188 9.07813,-23.7188 C10.3385,-23.7188 11.4479,-23.4635 12.4063,-22.9531 C13.3646,-22.4427 14.1536,-21.7057 14.7734,-20.7422 C15.3932,-19.7786 15.8828,-18.6068 16.2422,-17.2266 C16.6016,-15.8464 16.7813,-13.9896 16.7813,-11.6563 C16.7813,-8.88542 16.4948,-6.64844 15.9219,-4.94531 C15.349,-3.24219 14.4974,-1.92448 13.3672,-0.992188 C12.237,-0.0598958 10.8073,0.40625 9.07813,0.40625 C6.79688,0.40625 5.00521,-0.411458 3.70313,-2.04688 C2.15104,-4.01563 1.375,-7.21875 1.375,-11.6563 M4.34375,-11.6563 C4.34375,-7.77083 4.79948,-5.1875 5.71094,-3.90625 C6.6224,-2.625 7.74479,-1.98438 9.07813,-1.98438 C10.401,-1.98438 11.5182,-2.6276 12.4297,-3.91406 C13.3411,-5.20052 13.7969,-7.78125 13.7969,-11.6563 C13.7969,-15.5417 13.3411,-18.1224 12.4297,-19.3984 C11.5182,-20.6745 10.3906,-21.3125 9.04688,-21.3125 C7.71354,-21.3125 6.64583,-20.75 5.84375,-19.625 C4.84375,-18.1875 4.34375,-15.5313 4.34375,-11.6563 M21,0 L21,-3.29688 L24.2969,-3.29688 L24.2969,0 L21,0 M43.4219,-17.8438 L40.5313,-17.6094 C40.2813,-18.7448 39.9167,-19.5729 39.4375,-20.0938 C38.6563,-20.9167 37.6927,-21.3281 36.5469,-21.3281 C35.6198,-21.3281 34.8073,-21.0729 34.1094,-20.5625 C33.1927,-19.8958 32.4714,-18.9245 31.9453,-17.6484 C31.4193,-16.3724 31.1458,-14.5521 31.125,-12.1875 C31.8229,-13.25 32.6771,-14.0391 33.6875,-14.5547 C34.6979,-15.0703 35.7552,-15.3281 36.8594,-15.3281 C38.7969,-15.3281 40.4453,-14.6146 41.8047,-13.1875 C43.1641,-11.7604 43.8438,-9.92188 43.8438,-7.67188 C43.8438,-6.19271 43.5234,-4.8151 42.8828,-3.53906 C42.2422,-2.26302 41.362,-1.28646 40.2422,-0.609375 C39.1224,0.0677083 37.8542,0.40625 36.4375,0.40625 C34.0208,0.40625 32.0495,-0.484375 30.5234,-2.26563 C28.9974,-4.04688 28.2344,-6.97396 28.2344,-11.0469 C28.2344,-15.6198 29.0781,-18.9427 30.7656,-21.0156 C32.2448,-22.8177 34.2292,-23.7188 36.7188,-23.7188 C38.5729,-23.7188 40.0938,-23.1979 41.2813,-22.1563 C42.4688,-21.1146 43.1823,-19.6771 43.4219,-17.8438 M31.5781,-7.65625 C31.5781,-6.65625 31.7891,-5.70052 32.2109,-4.78906 C32.6328,-3.8776 33.2266,-3.18229 33.9922,-2.70313 C34.7578,-2.22396 35.5573,-1.98438 36.3906,-1.98438 C37.6198,-1.98438 38.6745,-2.47917 39.5547,-3.46875 C40.4349,-4.45833 40.875,-5.80208 40.875,-7.5 C40.875,-9.125 40.4401,-10.4089 39.5703,-11.3516 C38.7005,-12.2943 37.6042,-12.7656 36.2813,-12.7656 C34.9688,-12.7656 33.8568,-12.2943 32.9453,-11.3516 C32.0339,-10.4089 31.5781,-9.17708 31.5781,-7.65625 "/>
</g>

<g fill="#d9d9d9" fill-opacity="1" stroke="none" transform="matrix(0.75,0,0,0.75,328.5,343)"
font-family="MS Shell Dlg 2" font-size="8.25" font-weight="400" font-style="normal" 
>
<path vector-effect="none" fill-rule="evenodd" d="M1.375,-11.6563 C1.375,-14.4479 1.66146,-16.6953 2.23438,-18.3984 C2.80729,-20.1016 3.66146,-21.4141 4.79688,-22.3359 C5.93229,-23.2578 7.35938,-23.7188 9.07813,-23.7188 C10.3385,-23.7188 11.4479,-23.4635 12.4063,-22.9531 C13.3646,-22.4427 14.1536,-21.7057 14.7734,-20.7422 C15.3932,-19.7786 15.8828,-18.6068 16.2422,-17.2266 C16.6016,-15.8464 16.7813,-13.9896 16.7813,-11.6563 C16.7813,-8.88542 16.4948,-6.64844 15.9219,-4.94531 C15.349,-3.24219 14.4974,-1.92448 13.3672,-0.992188 C12.237,-0.0598958 10.8073,0.40625 9.07813,0.40625 C6.79688,0.40625 5.00521,-0.411458 3.70313,-2.04688 C2.15104,-4.01563 1.375,-7.21875 1.375,-11.6563 M4.34375,-11.6563 C4.34375,-7.77083 4.79948,-5.1875 5.71094,-3.90625 C6.6224,-2.625 7.74479,-1.98438 9.07813,-1.98438 C10.401,-1.98438 11.5182,-2.6276 12.4297,-3.91406 C13.3411,-5.20052 13.7969,-7.78125 13.7969,-11.6563 C13.7969,-15.5417 13.3411,-18.1224 12.4297,-19.3984 C11.5182,-20.6745 10.3906,-21.3125 9.04688,-21.3125 C7.71354,-21.3125 6.64583,-20.75 5.84375,-19.625 C4.84375,-18.1875 4.34375,-15.5313 4.34375,-11.6563 M21,0 L21,-3.29688 L24.2969,-3.29688 L24.2969,0 L21,0 M43.4219,-17.8438 L40.5313,-17.6094 C40.2813,-18.7448 39.9167,-19.5729 39.4375,-20.0938 C38.6563,-20.9167 37.6927,-21.3281 36.5469,-21.3281 C35.6198,-21.3281 34.8073,-21.0729 34.1094,-20.5625 C33.1927,-19.8958 32.4714,-18.9245 31.9453,-17.6484 C31.4193,-16.3724 31.1458,-14.5521 31.125,-12.1875 C31.8229,-13.25 32.6771,-14.0391 33.6875,-14.5547 C34.6979,-15.0703 35.7552,-15.3281 36.8594,-15.3281 C38.7969,-15.3281 40.4453,-14.6146 41.8047,-13.1875 C43.1641,-11.7604 43.8438,-9.92188 43.8438,-7.67188 C43.8438,-6.19271 43.5234,-4.8151 42.8828,-3.53906 C42.2422,-2.26302 41.362,-1.28646 40.2422,-0.609375 C39.1224,0.0677083 37.8542,0.40625 36.4375,0.40625 C34.0208,0.40625 32.0495,-0.484375 30.5234,-2.26563 C28.9974,-4.04688 28.2344,-6.97396 28.2344,-11.0469 C28.2344,-15.6198 29.0781,-18.9427 30.7656,-21.0156 C32.2448,-22.8177 34.2292,-23.7188 36.7188,-23.7188 C38.5729,-23.7188 40.0938,-23.1979 41.2813,-22.1563 C42.4688,-21.1146 43.1823,-19.6771 43.4219,-17.8438 M31.5781,-7.65625 C31.5781,-6.65625 31.7891,-5.70052 32.2109,-4.78906 C32.6328,-3.8776 33.2266,-3.18229 33.9922,-2.70313 C34.7578,-2.22396 35.5573,-1.98438 36.3906,-1.98438 C37.6198,-1.98438 38.6745,-2.47917 39.5547,-3.46875 C40.4349,-4.45833 40.875,-5.80208 40.875,-7.5 C40.875,-9.125 40.4401,-10.4089 39.5703,-11.3516 C38.7005,-12.2943 37.6042,-12.7656 36.2813,-12.7656 C34.9688,-12.7656 33.8568,-12.2943 32.9453,-11.3516 C32.0339,-10.4089 31.5781,-9.17708 31.5781,-7.65625 M46.375,-6.1875 L49.4219,-6.45313 C49.6406,-4.96354 50.1615,-3.84635 50.9844,-3.10156 C51.8073,-2.35677 52.7969,-1.98438 53.9531,-1.98438 C55.349,-1.98438 56.5313,-2.51042 57.5,-3.5625 C58.4688,-4.61458 58.9531,-6.01042 58.9531,-7.75 C58.9531,-9.40625 58.4896,-10.7109 57.5625,-11.6641 C56.6354,-12.6172 55.4167,-13.0938 53.9063,-13.0938 C52.9792,-13.0938 52.138,-12.8828 51.3828,-12.4609 C50.6276,-12.0391 50.0365,-11.4896 49.6094,-10.8125 L46.8906,-11.1719 L49.1719,-23.2969 L60.9219,-23.2969 L60.9219,-20.5313 L51.5,-20.5313 L50.2188,-14.1875 C51.6354,-15.1667 53.125,-15.6563 54.6875,-15.6563 C56.75,-15.6563 58.4896,-14.9427 59.9063,-13.5156 C61.3229,-12.0885 62.0313,-10.2552 62.0313,-8.01563 C62.0313,-5.86979 61.4063,-4.02083 60.1563,-2.46875 C58.6458,-0.552083 56.5781,0.40625 53.9531,0.40625 C51.8073,0.40625 50.0547,-0.195313 48.6953,-1.39844 C47.3359,-2.60156 46.5625,-4.19792 46.375,-6.1875 "/>
</g>

<g fill="#d9d9d9" fill-opacity="1" stroke="none" transform="matrix(0.75,0,0,0.75,424.625,343)"
font-family="MS Shell Dlg 2" font-size="8.25" font-weight="400" font-style="normal" 
>
<path vector-effect="none" fill-rule="evenodd" d="M1.375,-11.6563 C1.375,-14.4479 1.66146,-16.6953 2.23438,-18.3984 C2.80729,-20.1016 3.66146,-21.4141 4.79688,-22.3359 C5.93229,-23.2578 7.35938,-23.7188 9.07813,-23.7188 C10.3385,-23.7188 11.4479,-23.4635 12.4063,-22.9531 C13.3646,-22.4427 14.1536,-21.7057 14.7734,-20.7422 C15.3932,-19.7786 15.8828,-18.6068 16.2422,-17.2266 C16.6016,-15.8464 16.7813,-13.9896 16.7813,-11.6563 C16.7813,-8.88542 16.4948,-6.64844 15.9219,-4.94531 C15.349,-3.24219 14.4974,-1.92448 13.3672,-0.992188 C12.237,-0.0598958 10.8073,0.40625 9.07813,0.40625 C6.79688,0.40625 5.00521,-0.411458 3.70313,-2.04688 C2.15104,-4.01563 1.375,-7.21875 1.375,-11.6563 M4.34375,-11.6563 C4.34375,-7.77083 4.79948,-5.1875 5.71094,-3.90625 C6.6224,-2.625 7.74479,-1.98438 9.07813,-1.98438 C10.401,-1.98438 11.5182,-2.6276 12.4297,-3.91406 C13.3411,-5.20052 13.7969,-7.78125 13.7969,-11.6563 C13.7969,-15.5417 13.3411,-18.1224 12.4297,-19.3984 C11.5182,-20.6745 10.3906,-21.3125 9.04688,-21.3125 C7.71354,-21.3125 6.64583,-20.75 5.84375,-19.625 C4.84375,-18.1875 4.34375,-15.5313 4.34375,-11.6563 M21,0 L21,-3.29688 L24.2969,-3.29688 L24.2969,0 L21,0 M28.5625,-20.5313 L28.5625,-23.3125 L43.8594,-23.3125 L43.8594,-21.0625 C42.349,-19.4583 40.8568,-17.3307 39.3828,-14.6797 C37.9089,-12.0286 36.7656,-9.30208 35.9531,-6.5 C35.3802,-4.52083 35.0104,-2.35417 34.8438,0 L31.8594,0 C31.901,-1.85417 32.2708,-4.09896 32.9688,-6.73438 C33.6667,-9.36979 34.6667,-11.9089 35.9688,-14.3516 C37.2708,-16.7943 38.6563,-18.8542 40.125,-20.5313 L28.5625,-20.5313"/>
</g>

<g fill="#d9d9d9" fill-opacity="1" stroke="none" transform="matrix(0.75,0,0,0.75,507.25,343)"
font-family="MS Shell Dlg 2" font-size="8.25" font-weight="400" font-style="normal" 
>
<path vector-effect="none" fill-rule="evenodd" d="M1.375,-11.6563 C1.375,-14.4479 1.66146,-16.6953 2.23438,-18.3984 C2.80729,-20.1016 3.66146,-21.4141 4.79688,-22.3359 C5.93229,-23.2578 7.35938,-23.7188 9.07813,-23.7188 C10.3385,-23.7188 11.4479,-23.4635 12.4063,-22.9531 C13.3646,-22.4427 14.1536,-21.7057 14.7734,-20.7422 C15.3932,-19.7786 15.8828,-18.6068 16.2422,-17.2266 C16.6016,-15.8464 16.7813,-13.9896 16.7813,-11.6563 C16.7813,-8.88542 16.4948,-6.64844 15.9219,-4.94531 C15.349,-3.24219 14.4974,-1.92448 13.3672,-0.992188 C12.237,-0.0598958 10.8073,0.40625 9.07813,0.40625 C6.79688,0.40625 5.00521,-0.411458 3.70313,-2.04688 C2.15104,-4.01563 1.375,-7.21875 1.375,-11.6563 M4.34375,-11.6563 C4.34375,-7.77083 4.79948,-5.1875 5.71094,-3.90625 C6.6224,-2.625 7.74479,-1.98438 9.07813,-1.98438 C10.401,-1.98438 11.5182,-2.6276 12.4297,-3.91406 C13.3411,-5.20052 13.7969,-7.78125 13.7969,-11.6563 C13.7969,-15.5417 13.3411,-18.1224 12.4297,-19.3984 C11.5182,-20.6745 10.3906,-21.3125 9.04688,-21.3125 C7.71354,-21.3125 6.64583,-20.75 5.84375,-19.625 C4.84375,-18.1875 4.34375,-15.5313 4.34375,-11.6563 M21,0 L21,-3.29688 L24.2969,-3.29688 L24.2969,0 L21,0 M28.5625,-20.5313 L28.5625,-23.3125 L43.8594,-23.3125 L43.8594,-21.0625 C42.349,-19.4583 40.8568,-17.3307 39.3828,-14.6797 C37.9089,-12.0286 36.7656,-9.30208 35.9531,-6.5 C35.3802,-4.52083 35.0104,-2.35417 34.8438,0 L31.8594,0 C31.901,-1.85417 32.2708,-4.09896 32.9688,-6.73438 C33.6667,-9.36979 34.6667,-11.9089 35.9688,-14.3516 C37.2708,-16.7943 38.6563,-18.8542 40.125,-20.5313 L28.5625,-20.5313 M46.375,-6.1875 L49.4219,-6.45313 C49.6406,-4.96354 50.1615,-3.84635 50.9844,-3.10156 C51.8073,-2.35677 52.7969,-1.98438 53.9531,-1.98438 C55.349,-1.98438 56.5313,-2.51042 57.5,-3.5625 C58.4688,-4.61458 58.9531,-6.01042 58.9531,-7.75 C58.9531,-9.40625 58.4896,-10.7109 57.5625,-11.6641 C56.6354,-12.6172 55.4167,-13.0938 53.9063,-13.0938 C52.9792,-13.0938 52.138,-12.8828 51.3828,-12.4609 C50.6276,-12.0391 50.0365,-11.4896 49.6094,-10.8125 L46.8906,-11.1719 L49.1719,-23.2969 L60.9219,-23.2969 L60.9219,-20.5313 L51.5,-20.5313 L50.2188,-14.1875 C51.6354,-15.1667 53.125,-15.6563 54.6875,-15.6563 C56.75,-15.6563 58.4896,-14.9427 59.9063,-13.5156 C61.3229,-12.0885 62.0313,-10.2552 62.0313,-8.01563 C62.0313,-5.86979 61.4063,-4.02083 60.1563,-2.46875 C58.6458,-0.552083 56.5781,0.40625 53.9531,0.40625 C51.8073,0.40625 50.0547,-0.195313 48.6953,-1.39844 C47.3359,-2.60156 46.5625,-4.19792 46.375,-6.1875 "/>
</g>

<g fill="#d9d9d9" fill-opacity="1" stroke="none" transform="matrix(0.75,0,0,0.75,603.375,343)"
font-family="MS Shell Dlg 2" font-size="8.25" font-weight="400" font-style="normal" 
>
<path vector-effect="none" fill-rule="evenodd" d="M1.375,-11.6563 C1.375,-14.4479 1.66146,-16.6953 2.23438,-18.3984 C2.80729,-20.1016 3.66146,-21.4141 4.79688,-22.3359 C5.93229,-23.2578 7.35938,-23.7188 9.07813,-23.7188 C10.3385,-23.7188 11.4479,-23.4635 12.4063,-22.9531 C13.3646,-22.4427 14.1536,-21.7057 14.7734,-20.7422 C15.3932,-19.7786 15.8828,-18.6068 16.2422,-17.2266 C16.6016,-15.8464 16.7813,-13.9896 16.7813,-11.6563 C16.7813,-8.88542 16.4948,-6.64844 15.9219,-4.94531 C15.349,-3.24219 14.4974,-1.92448 13.3672,-0.992188 C12.237,-0.0598958 10.8073,0.40625 9.07813,0.40625 C6.79688,0.40625 5.00521,-0.411458 3.70313,-2.04688 C2.15104,-4.01563 1.375,-7.21875 1.375,-11.6563 M4.34375,-11.6563 C4.34375,-7.77083 4.79948,-5.1875 5.71094,-3.90625 C6.6224,-2.625 7.74479,-1.98438 9.07813,-1.98438 C10.401,-1.98438 11.5182,-2.6276 12.4297,-3.91406 C13.3411,-5.20052 13.7969,-7.78125 13.7969,-11.6563 C13.7969,-15.5417 13.3411,-18.1224 12.4297,-19.3984 C11.5182,-20.6745 10.3906,-21.3125 9.04688,-21.3125 C7.71354,-21.3125 6.64583,-20.75 5.84375,-19.625 C4.84375,-18.1875 4.34375,-15.5313 4.34375,-11.6563 M21,0 L21,-3.29688 L24.2969,-3.29688 L24.2969,0 L21,0 M32.8281,-12.8125 C31.6302,-13.25 30.7396,-13.8776 30.1563,-14.6953 C29.5729,-15.513 29.2813,-16.4896 29.2813,-17.625 C29.2813,-19.3438 29.901,-20.7891 31.1406,-21.9609 C32.3802,-23.1328 34.026,-23.7188 36.0781,-23.7188 C38.1406,-23.7188 39.7995,-23.1198 41.0547,-21.9219 C42.3099,-20.724 42.9375,-19.2656 42.9375,-17.5469 C42.9375,-16.4531 42.651,-15.5 42.0781,-14.6875 C41.5052,-13.875 40.6302,-13.25 39.4531,-12.8125 C40.901,-12.3333 42.0052,-11.5677 42.7656,-10.5156 C43.526,-9.46354 43.9063,-8.20833 43.9063,-6.75 C43.9063,-4.72917 43.1901,-3.03125 41.7578,-1.65625 C40.3255,-0.28125 38.4479,0.40625 36.125,0.40625 C33.7917,0.40625 31.9115,-0.283854 30.4844,-1.66406 C29.0573,-3.04427 28.3438,-4.76563 28.3438,-6.82813 C28.3438,-8.36979 28.7318,-9.65885 29.5078,-10.6953 C30.2839,-11.7318 31.3906,-12.4375 32.8281,-12.8125 M32.25,-17.7188 C32.25,-16.6042 32.6094,-15.6927 33.3281,-14.9844 C34.0469,-14.276 34.9844,-13.9219 36.1406,-13.9219 C37.2552,-13.9219 38.1693,-14.2734 38.8828,-14.9766 C39.5964,-15.6797 39.9531,-16.5417 39.9531,-17.5625 C39.9531,-18.625 39.5859,-19.5182 38.8516,-20.2422 C38.1172,-20.9661 37.2031,-21.3281 36.1094,-21.3281 C34.9948,-21.3281 34.0729,-20.974 33.3438,-20.2656 C32.6146,-19.5573 32.25,-18.7083 32.25,-17.7188 M31.3125,-6.8125 C31.3125,-5.98958 31.5104,-5.1901 31.9063,-4.41406 C32.3021,-3.63802 32.8854,-3.03906 33.6563,-2.61719 C34.4271,-2.19531 35.2604,-1.98438 36.1563,-1.98438 C37.5417,-1.98438 38.6849,-2.42969 39.5859,-3.32031 C40.487,-4.21094 40.9375,-5.34375 40.9375,-6.71875 C40.9375,-8.11458 40.474,-9.26823 39.5469,-10.1797 C38.6198,-11.0911 37.4583,-11.5469 36.0625,-11.5469 C34.6979,-11.5469 33.5651,-11.0964 32.6641,-10.1953 C31.763,-9.29427 31.3125,-8.16667 31.3125,-6.8125 "/>
</g>

<g fill="#d9d9d9" fill-opacity="1" stroke="none" transform="matrix(0,-0.75,0.75,0,28.8499,241.277)"
font-family="MS Shell Dlg 2" font-size="8.25" font-weight="400" font-style="normal" 
>
<path vector-effect="none" fill-rule="evenodd" d="M1.6875,0 C1.45833,0 1.34375,-0.15625 1.34375,-0.46875 C1.35417,-0.53125 1.375,-0.635417 1.40625,-0.78125 C1.4375,-0.927083 1.48698,-1.04427 1.55469,-1.13281 C1.6224,-1.22135 1.70313,-1.26563 1.79688,-1.26563 C3.25521,-1.26563 4.27604,-1.34896 4.85938,-1.51563 C5.17188,-1.61979 5.39583,-1.94271 5.53125,-2.48438 L10.4844,-22.25 C10.526,-22.4896 10.5469,-22.6563 10.5469,-22.75 C10.5469,-23.0104 10.401,-23.1563 10.1094,-23.1875 C9.66146,-23.2813 8.80208,-23.3281 7.53125,-23.3281 C7.29167,-23.3281 7.17188,-23.4844 7.17188,-23.7969 C7.25521,-24.1094 7.32031,-24.3203 7.36719,-24.4297 C7.41406,-24.5391 7.54688,-24.5938 7.76563,-24.5938 L18.4063,-24.5938 C18.6146,-24.5938 18.7188,-24.4375 18.7188,-24.125 C18.6875,-23.875 18.6484,-23.6797 18.6016,-23.5391 C18.5547,-23.3984 18.4375,-23.3281 18.25,-23.3281 C16.4792,-23.3281 15.2969,-23.2708 14.7031,-23.1563 C14.1094,-23.0521 13.7448,-22.6979 13.6094,-22.0938 L8.6875,-2.34375 C8.58333,-2.05208 8.53125,-1.78646 8.53125,-1.54688 C8.53125,-1.35938 8.9375,-1.26563 9.75,-1.26563 L13.0938,-1.26563 C14.9792,-1.26563 16.5078,-1.64063 17.6797,-2.39063 C18.8516,-3.14063 19.7188,-3.98698 20.2813,-4.92969 C20.8438,-5.8724 21.3151,-6.85156 21.6953,-7.86719 C22.0755,-8.88281 22.3542,-9.40625 22.5313,-9.4375 L22.8594,-9.4375 C23.099,-9.4375 23.2188,-9.28125 23.2188,-8.96875 L20.0156,-0.25 C19.9844,-0.0833333 19.875,0 19.6875,0 L1.6875,0"/>
</g>

<g fill="#d9d9d9" fill-opacity="1" stroke="none" transform="matrix(0,-0.75,0.75,0,32.9749,222.562)"
font-family="MS Shell Dlg 2" font-size="8.25" font-weight="400" font-style="normal" 
>
<path vector-effect="none" fill-rule="evenodd" d="M2.3125,0 L2.3125,-0.875 C4.39583,-0.875 5.4375,-1.14063 5.4375,-1.67188 L5.4375,-14.7969 C4.58333,-14.3802 3.49479,-14.1719 2.17188,-14.1719 L2.17188,-15.0469 C4.21354,-15.0469 5.75521,-15.5833 6.79688,-16.6563 L7.15625,-16.6563 C7.20833,-16.6563 7.26042,-16.6328 7.3125,-16.5859 C7.36458,-16.5391 7.39063,-16.4896 7.39063,-16.4375 L7.39063,-1.67188 C7.39063,-1.14063 8.43229,-0.875 10.5156,-0.875 L10.5156,0 L2.3125,0"/>
</g>

<g fill="#d9d9d9" fill-opacity="1" stroke="none" transform="matrix(0,-0.75,0.75,0,32.9749,212.937)"
font-family="MS Shell Dlg 2" font-size="8.25" font-weight="400" font-style="normal" 
>
<path vector-effect="none" fill-rule="evenodd" d="M2.48438,4.5 C2.48438,4.42708 2.51563,4.35938 2.57813,4.29688 C3.18229,3.72396 3.65104,3.05729 3.98438,2.29688 C4.31771,1.53646 4.48438,0.739583 4.48438,-0.09375 L4.48438,-0.40625 C4.21354,-0.135417 3.88021,0 3.48438,0 C3.09896,0 2.77083,-0.135417 2.5,-0.40625 C2.22917,-0.677083 2.09375,-1 2.09375,-1.375 C2.09375,-1.77083 2.22917,-2.09896 2.5,-2.35938 C2.77083,-2.61979 3.09896,-2.75 3.48438,-2.75 C4.07813,-2.75 4.5,-2.47396 4.75,-1.92188 C5,-1.36979 5.125,-0.760417 5.125,-0.09375 C5.125,0.833333 4.9401,1.71354 4.57031,2.54688 C4.20052,3.38021 3.67708,4.13021 3,4.79688 C2.9375,4.82813 2.88542,4.84375 2.84375,4.84375 C2.76042,4.84375 2.67969,4.80729 2.60156,4.73438 C2.52344,4.66146 2.48438,4.58333 2.48438,4.5 "/>
</g>

<g fill="#d9d9d9" fill-opacity="1" stroke="none" transform="matrix(0,-0.75,0.75,0,32.9749,207.589)"
font-family="MS Shell Dlg 2" font-size="8.25" font-weight="400" font-style="normal" 
>
<path vector-effect="none" fill-rule="evenodd" d="M2.70313,-2.98438 L2.70313,-8.5 C2.70313,-8.94792 2.63542,-9.27083 2.5,-9.46875 C2.36458,-9.66667 2.16927,-9.78906 1.91406,-9.83594 C1.65885,-9.88281 1.27083,-9.90625 0.75,-9.90625 L0.75,-10.7813 L4.53125,-11.0469 L4.53125,-2.98438 C4.53125,-2.33854 4.57813,-1.83333 4.67188,-1.46875 C4.76563,-1.10417 4.96354,-0.833333 5.26563,-0.65625 C5.56771,-0.479167 6.05208,-0.390625 6.71875,-0.390625 C7.61458,-0.390625 8.32813,-0.765625 8.85938,-1.51563 C9.39063,-2.26563 9.65625,-3.11458 9.65625,-4.0625 L9.65625,-8.5 C9.65625,-8.94792 9.58594,-9.27083 9.44531,-9.46875 C9.30469,-9.66667 9.11198,-9.78906 8.86719,-9.83594 C8.6224,-9.88281 8.23438,-9.90625 7.70313,-9.90625 L7.70313,-10.7813 L11.4688,-11.0469 L11.4688,-2.26563 C11.4688,-1.82813 11.5365,-1.51042 11.6719,-1.3125 C11.8073,-1.11458 12.0026,-0.992188 12.2578,-0.945313 C12.513,-0.898438 12.901,-0.875 13.4219,-0.875 L13.4219,0 L9.73438,0.28125 L9.73438,-1.84375 C9.42188,-1.20833 8.98958,-0.695313 8.4375,-0.304688 C7.88542,0.0859375 7.27604,0.28125 6.60938,0.28125 C5.41146,0.28125 4.46094,0.0260417 3.75781,-0.484375 C3.05469,-0.994792 2.70313,-1.82813 2.70313,-2.98438 "/>
</g>

<g fill="#d9d9d9" fill-opacity="1" stroke="none" transform="matrix(0,-0.75,0.75,0,32.9749,196.895)"
font-family="MS Shell Dlg 2" font-size="8.25" font-weight="400" font-style="normal" 
>
<path vector-effect="none" fill-rule="evenodd" d="M0.640625,4.84375 L0.640625,3.98438 C1.21354,3.98438 1.68229,3.9349 2.04688,3.83594 C2.41146,3.73698 2.59375,3.51563 2.59375,3.17188 L2.59375,-8.875 C2.59375,-9.33333 2.43229,-9.61979 2.10938,-9.73438 C1.78646,-9.84896 1.29688,-9.90625 0.640625,-9.90625 L0.640625,-10.7813 L4.34375,-11.0469 L4.34375,-9.5 C4.80208,-10 5.33333,-10.3828 5.9375,-10.6484 C6.54167,-10.9141 7.1875,-11.0469 7.875,-11.0469 C8.85417,-11.0469 9.73958,-10.7813 10.5313,-10.25 C11.3229,-9.71875 11.9401,-9.01823 12.3828,-8.14844 C12.8255,-7.27865 13.0469,-6.35938 13.0469,-5.39063 C13.0469,-4.38021 12.8021,-3.4401 12.3125,-2.57031 C11.8229,-1.70052 11.151,-1.00781 10.2969,-0.492188 C9.44271,0.0234375 8.51042,0.28125 7.5,0.28125 C6.28125,0.28125 5.25521,-0.213542 4.42188,-1.20313 L4.42188,3.17188 C4.42188,3.51563 4.60677,3.73698 4.97656,3.83594 C5.34635,3.9349 5.8125,3.98438 6.375,3.98438 L6.375,4.84375 L0.640625,4.84375 M4.42188,-2.4375 C4.71354,-1.84375 5.11979,-1.35417 5.64063,-0.96875 C6.16146,-0.583333 6.72917,-0.390625 7.34375,-0.390625 C7.92708,-0.390625 8.4401,-0.544271 8.88281,-0.851563 C9.32552,-1.15885 9.69792,-1.57292 10,-2.09375 C10.3021,-2.61458 10.5234,-3.16146 10.6641,-3.73438 C10.8047,-4.30729 10.875,-4.86458 10.875,-5.40625 C10.875,-6.07292 10.7552,-6.79427 10.5156,-7.57031 C10.276,-8.34635 9.90885,-9 9.41406,-9.53125 C8.91927,-10.0625 8.32292,-10.3281 7.625,-10.3281 C6.94792,-10.3281 6.32813,-10.1563 5.76563,-9.8125 C5.20313,-9.46875 4.75521,-9 4.42188,-8.40625 L4.42188,-2.4375"/>
</g>

<g fill="#d9d9d9" fill-opacity="1" stroke="none" transform="matrix(0,-0.75,0.75,0,32.9749,186.2)"
font-family="MS Shell Dlg 2" font-size="8.25" font-weight="400" font-style="normal" 
>
<path vector-effect="none" fill-rule="evenodd" d="M0.640625,4.84375 L0.640625,3.98438 C1.21354,3.98438 1.68229,3.9349 2.04688,3.83594 C2.41146,3.73698 2.59375,3.51563 2.59375,3.17188 L2.59375,-8.875 C2.59375,-9.33333 2.43229,-9.61979 2.10938,-9.73438 C1.78646,-9.84896 1.29688,-9.90625 0.640625,-9.90625 L0.640625,-10.7813 L4.34375,-11.0469 L4.34375,-9.5 C4.80208,-10 5.33333,-10.3828 5.9375,-10.6484 C6.54167,-10.9141 7.1875,-11.0469 7.875,-11.0469 C8.85417,-11.0469 9.73958,-10.7813 10.5313,-10.25 C11.3229,-9.71875 11.9401,-9.01823 12.3828,-8.14844 C12.8255,-7.27865 13.0469,-6.35938 13.0469,-5.39063 C13.0469,-4.38021 12.8021,-3.4401 12.3125,-2.57031 C11.8229,-1.70052 11.151,-1.00781 10.2969,-0.492188 C9.44271,0.0234375 8.51042,0.28125 7.5,0.28125 C6.28125,0.28125 5.25521,-0.213542 4.42188,-1.20313 L4.42188,3.17188 C4.42188,3.51563 4.60677,3.73698 4.97656,3.83594 C5.34635,3.9349 5.8125,3.98438 6.375,3.98438 L6.375,4.84375 L0.640625,4.84375 M4.42188,-2.4375 C4.71354,-1.84375 5.11979,-1.35417 5.64063,-0.96875 C6.16146,-0.583333 6.72917,-0.390625 7.34375,-0.390625 C7.92708,-0.390625 8.4401,-0.544271 8.88281,-0.851563 C9.32552,-1.15885 9.69792,-1.57292 10,-2.09375 C10.3021,-2.61458 10.5234,-3.16146 10.6641,-3.73438 C10.8047,-4.30729 10.875,-4.86458 10.875,-5.40625 C10.875,-6.07292 10.7552,-6.79427 10.5156,-7.57031 C10.276,-8.34635 9.90885,-9 9.41406,-9.53125 C8.91927,-10.0625 8.32292,-10.3281 7.625,-10.3281 C6.94792,-10.3281 6.32813,-10.1563 5.76563,-9.8125 C5.20313,-9.46875 4.75521,-9 4.42188,-8.40625 L4.42188,-2.4375"/>
</g>

<g fill="#d9d9d9" fill-opacity="1" stroke="none" transform="matrix(0,-0.75,0.75,0,32.9749,174.971)"
font-family="MS Shell Dlg 2" font-size="8.25" font-weight="400" font-style="normal" 
>
<path vector-effect="none" fill-rule="evenodd" d="M6.21875,0.28125 C5.20833,0.28125 4.27865,0.015625 3.42969,-0.515625 C2.58073,-1.04688 1.91406,-1.75781 1.42969,-2.64844 C0.945313,-3.53906 0.703125,-4.48438 0.703125,-5.48438 C0.703125,-6.46354 0.924479,-7.39063 1.36719,-8.26563 C1.8099,-9.14063 2.42708,-9.84896 3.21875,-10.3906 C4.01042,-10.9323 4.89583,-11.2031 5.875,-11.2031 C6.63542,-11.2031 7.29948,-11.0755 7.86719,-10.8203 C8.4349,-10.5651 8.90104,-10.2083 9.26563,-9.75 C9.63021,-9.29167 9.90625,-8.75521 10.0938,-8.14063 C10.2813,-7.52604 10.375,-6.84896 10.375,-6.10938 C10.375,-5.89063 10.2917,-5.78125 10.125,-5.78125 L2.875,-5.78125 L2.875,-5.5 C2.875,-4.125 3.15365,-2.94271 3.71094,-1.95313 C4.26823,-0.963542 5.18229,-0.46875 6.45313,-0.46875 C6.96354,-0.46875 7.4349,-0.580729 7.86719,-0.804688 C8.29948,-1.02865 8.67708,-1.34375 9,-1.75 C9.32292,-2.15625 9.54167,-2.59375 9.65625,-3.0625 C9.67708,-3.11458 9.70833,-3.16406 9.75,-3.21094 C9.79167,-3.25781 9.84375,-3.28125 9.90625,-3.28125 L10.125,-3.28125 C10.2917,-3.28125 10.375,-3.17188 10.375,-2.95313 C10.1354,-2.01563 9.625,-1.24219 8.84375,-0.632813 C8.0625,-0.0234375 7.1875,0.28125 6.21875,0.28125 M2.90625,-6.39063 L8.60938,-6.39063 C8.60938,-7.01563 8.52083,-7.64844 8.34375,-8.28906 C8.16667,-8.92969 7.875,-9.46354 7.46875,-9.89063 C7.0625,-10.3177 6.53125,-10.5313 5.875,-10.5313 C4.92708,-10.5313 4.19531,-10.0911 3.67969,-9.21094 C3.16406,-8.33073 2.90625,-7.39063 2.90625,-6.39063 "/>
</g>

<g fill="#d9d9d9" fill-opacity="1" stroke="none" transform="matrix(0,-0.75,0.75,0,32.9749,166.416)"
font-family="MS Shell Dlg 2" font-size="8.25" font-weight="400" font-style="normal" 
>
<path vector-effect="none" fill-rule="evenodd" d="M0.640625,0 L0.640625,-0.875 C1.21354,-0.875 1.68229,-0.919271 2.04688,-1.00781 C2.41146,-1.09635 2.59375,-1.31771 2.59375,-1.67188 L2.59375,-8.5 C2.59375,-8.94792 2.52865,-9.27083 2.39844,-9.46875 C2.26823,-9.66667 2.07552,-9.78906 1.82031,-9.83594 C1.5651,-9.88281 1.17188,-9.90625 0.640625,-9.90625 L0.640625,-10.7813 L4.21875,-11.0469 L4.21875,-8.60938 C4.48958,-9.32813 4.8724,-9.91406 5.36719,-10.3672 C5.86198,-10.8203 6.46354,-11.0469 7.17188,-11.0469 C7.67188,-11.0469 8.11719,-10.901 8.50781,-10.6094 C8.89844,-10.3177 9.09375,-9.93229 9.09375,-9.45313 C9.09375,-9.15104 8.98698,-8.88802 8.77344,-8.66406 C8.5599,-8.4401 8.29167,-8.32813 7.96875,-8.32813 C7.65625,-8.32813 7.39063,-8.4375 7.17188,-8.65625 C6.95313,-8.875 6.84375,-9.14063 6.84375,-9.45313 C6.84375,-9.90104 7.00521,-10.2188 7.32813,-10.4063 L7.17188,-10.4063 C6.50521,-10.4063 5.95833,-10.1615 5.53125,-9.67188 C5.10417,-9.18229 4.79948,-8.57552 4.61719,-7.85156 C4.4349,-7.1276 4.34375,-6.4375 4.34375,-5.78125 L4.34375,-1.67188 C4.34375,-1.14063 5.15625,-0.875 6.78125,-0.875 L6.78125,0 L0.640625,0"/>
</g>

<g fill="#d9d9d9" fill-opacity="1" stroke="none" transform="matrix(0,-0.75,0.75,0,28.8499,148.334)"
font-family="MS Shell Dlg 2" font-size="8.25" font-weight="400" font-style="normal" 
>
<path vector-effect="none" fill-rule="evenodd" d="M4.25,9 L4.25,-27 L9.17188,-27 L9.17188,-25.5625 L5.70313,-25.5625 L5.70313,7.5625 L9.17188,7.5625 L9.17188,9 L4.25,9"/>
</g>

<g fill="#d9d9d9" fill-opacity="1" stroke="none" transform="matrix(0,-0.75,0.75,0,28.8499,140.695)"
font-family="MS Shell Dlg 2" font-size="8.25" font-weight="400" font-style="normal" 
>
<path vector-effect="none" fill-rule="evenodd" d="M1.07813,0 L1.07813,-1.26563 C1.89063,-1.26563 2.5625,-1.33073 3.09375,-1.46094 C3.625,-1.59115 3.89063,-1.90625 3.89063,-2.40625 L3.89063,-12.2344 C3.89063,-12.8802 3.79427,-13.3464 3.60156,-13.6328 C3.40885,-13.9193 3.13021,-14.0938 2.76563,-14.1563 C2.40104,-14.2188 1.83854,-14.25 1.07813,-14.25 L1.07813,-15.5156 L6.29688,-15.9063 L6.29688,-12.3906 C6.77604,-13.4219 7.48698,-14.2656 8.42969,-14.9219 C9.3724,-15.5781 10.401,-15.9063 11.5156,-15.9063 C14.276,-15.9063 15.901,-14.7813 16.3906,-12.5313 C16.8698,-13.5417 17.5703,-14.3568 18.4922,-14.9766 C19.4141,-15.5964 20.4271,-15.9063 21.5313,-15.9063 C22.625,-15.9063 23.5443,-15.7318 24.2891,-15.3828 C25.0339,-15.0339 25.5938,-14.4974 25.9688,-13.7734 C26.3438,-13.0495 26.5313,-12.1458 26.5313,-11.0625 L26.5313,-2.40625 C26.5313,-1.90625 26.7969,-1.59115 27.3281,-1.46094 C27.8594,-1.33073 28.5313,-1.26563 29.3438,-1.26563 L29.3438,0 L21.0938,0 L21.0938,-1.26563 C21.9167,-1.26563 22.5911,-1.33073 23.1172,-1.46094 C23.6432,-1.59115 23.9063,-1.90625 23.9063,-2.40625 L23.9063,-10.9531 C23.9063,-12.1615 23.737,-13.1354 23.3984,-13.875 C23.0599,-14.6146 22.3646,-14.9844 21.3125,-14.9844 C19.9271,-14.9844 18.7839,-14.4271 17.8828,-13.3125 C16.9818,-12.1979 16.5313,-10.9323 16.5313,-9.51563 L16.5313,-2.40625 C16.5313,-1.90625 16.7943,-1.59115 17.3203,-1.46094 C17.8464,-1.33073 18.5208,-1.26563 19.3438,-1.26563 L19.3438,0 L11.0938,0 L11.0938,-1.26563 C11.9167,-1.26563 12.5911,-1.33073 13.1172,-1.46094 C13.6432,-1.59115 13.9063,-1.90625 13.9063,-2.40625 L13.9063,-10.9531 C13.9063,-12.1198 13.737,-13.0833 13.3984,-13.8438 C13.0599,-14.6042 12.3594,-14.9844 11.2969,-14.9844 C9.91146,-14.9844 8.76823,-14.4271 7.86719,-13.3125 C6.96615,-12.1979 6.51563,-10.9323 6.51563,-9.51563 L6.51563,-2.40625 C6.51563,-1.90625 6.78125,-1.59115 7.3125,-1.46094 C7.84375,-1.33073 8.51042,-1.26563 9.3125,-1.26563 L9.3125,0 L1.07813,0"/>
</g>

<g fill="#d9d9d9" fill-opacity="1" stroke="none" transform="matrix(0,-0.75,0.75,0,28.8499,117.779)"
font-family="MS Shell Dlg 2" font-size="8.25" font-weight="400" font-style="normal" 
>
<path vector-effect="none" fill-rule="evenodd" d="M1.07813,0 L1.07813,-1.26563 C1.89063,-1.26563 2.5625,-1.33073 3.09375,-1.46094 C3.625,-1.59115 3.89063,-1.90625 3.89063,-2.40625 L3.89063,-12.2344 C3.89063,-12.8802 3.79427,-13.3464 3.60156,-13.6328 C3.40885,-13.9193 3.13021,-14.0938 2.76563,-14.1563 C2.40104,-14.2188 1.83854,-14.25 1.07813,-14.25 L1.07813,-15.5156 L6.29688,-15.9063 L6.29688,-12.3906 C6.77604,-13.4219 7.48698,-14.2656 8.42969,-14.9219 C9.3724,-15.5781 10.401,-15.9063 11.5156,-15.9063 C14.276,-15.9063 15.901,-14.7813 16.3906,-12.5313 C16.8698,-13.5417 17.5703,-14.3568 18.4922,-14.9766 C19.4141,-15.5964 20.4271,-15.9063 21.5313,-15.9063 C22.625,-15.9063 23.5443,-15.7318 24.2891,-15.3828 C25.0339,-15.0339 25.5938,-14.4974 25.9688,-13.7734 C26.3438,-13.0495 26.5313,-12.1458 26.5313,-11.0625 L26.5313,-2.40625 C26.5313,-1.90625 26.7969,-1.59115 27.3281,-1.46094 C27.8594,-1.33073 28.5313,-1.26563 29.3438,-1.26563 L29.3438,0 L21.0938,0 L21.0938,-1.26563 C21.9167,-1.26563 22.5911,-1.33073 23.1172,-1.46094 C23.6432,-1.59115 23.9063,-1.90625 23.9063,-2.40625 L23.9063,-10.9531 C23.9063,-12.1615 23.737,-13.1354 23.3984,-13.875 C23.0599,-14.6146 22.3646,-14.9844 21.3125,-14.9844 C19.9271,-14.9844 18.7839,-14.4271 17.8828,-13.3125 C16.9818,-12.1979 16.5313,-10.9323 16.5313,-9.51563 L16.5313,-2.40625 C16.5313,-1.90625 16.7943,-1.59115 17.3203,-1.46094 C17.8464,-1.33073 18.5208,-1.26563 19.3438,-1.26563 L19.3438,0 L11.0938,0 L11.0938,-1.26563 C11.9167,-1.26563 12.5911,-1.33073 13.1172,-1.46094 C13.6432,-1.59115 13.9063,-1.90625 13.9063,-2.40625 L13.9063,-10.9531 C13.9063,-12.1198 13.737,-13.0833 13.3984,-13.8438 C13.0599,-14.6042 12.3594,-14.9844 11.2969,-14.9844 C9.91146,-14.9844 8.76823,-14.4271 7.86719,-13.3125 C6.96615,-12.1979 6.51563,-10.9323 6.51563,-9.51563 L6.51563,-2.40625 C6.51563,-1.90625 6.78125,-1.59115 7.3125,-1.46094 C7.84375,-1.33073 8.51042,-1.26563 9.3125,-1.26563 L9.3125,0 L1.07813,0"/>
</g>

<g fill="#d9d9d9" fill-opacity="1" stroke="none" transform="matrix(0,-0.75,0.75,0,28.8499,94.862)"
font-family="MS Shell Dlg 2" font-size="8.25" font-weight="400" font-style="normal" 
>
<path vector-effect="none" fill-rule="evenodd" d="M0.796875,9 L0.796875,7.5625 L4.29688,7.5625 L4.29688,-25.5625 L0.796875,-25.5625 L0.796875,-27 L5.73438,-27 L5.73438,9 L0.796875,9"/>
</g>

<g fill="#d9d9d9" fill-opacity="1" stroke="#d9d9d9" stroke-opacity="1" stroke-width="0.666667" stroke-linecap="square" stroke-linejoin="round" transform="matrix(0.75,0,0,0.75,0,0)"
font-family="MS Shell Dlg 2" font-size="8.25" font-weight="400" font-style="normal" 
>
<polyline fill="none" vector-effect="none" points="112,418 112,20 " />
<polyline fill="none" vector-effect="none" points="827,418 827,20 " />
<polyline fill="none" vector-effect="none" points="112,395.683 119.15,395.683 " />
<polyline fill="none" vector-effect="none" points="819.85,395.683 827,395.683 " />
<polyline fill="none" vector-effect="none" points="112,270.455 119.15,270.455 " />
<polyline fill="none" vector-effect="none" points="819.85,270.455 827,270.455 " />
<polyline fill="none" vector-effect="none" points="112,145.228 119.15,145.228 " />
<polyline fill="none" vector-effect="none" points="819.85,145.228 827,145.228 " />
<polyline fill="none" vector-effect="none" points="112,20 119.15,20 " />
<polyline fill="none" vector-effect="none" points="819.85,20 827,20 " />
</g>

<g fill="#d9d9d9" fill-opacity="1" stroke="none" transform="matrix(0.75,0,0,0.75,43.25,305.387)"
font-family="MS Shell Dlg 2" font-size="8.25" font-weight="400" font-style="normal" 
>
<path vector-effect="none" fill-rule="evenodd" d="M1.375,-11.6563 C1.375,-14.4479 1.66146,-16.6953 2.23438,-18.3984 C2.80729,-20.1016 3.66146,-21.4141 4.79688,-22.3359 C5.93229,-23.2578 7.35938,-23.7188 9.07813,-23.7188 C10.3385,-23.7188 11.4479,-23.4635 12.4063,-22.9531 C13.3646,-22.4427 14.1536,-21.7057 14.7734,-20.7422 C15.3932,-19.7786 15.8828,-18.6068 16.2422,-17.2266 C16.6016,-15.8464 16.7813,-13.9896 16.7813,-11.6563 C16.7813,-8.88542 16.4948,-6.64844 15.9219,-4.94531 C15.349,-3.24219 14.4974,-1.92448 13.3672,-0.992188 C12.237,-0.0598958 10.8073,0.40625 9.07813,0.40625 C6.79688,0.40625 5.00521,-0.411458 3.70313,-2.04688 C2.15104,-4.01563 1.375,-7.21875 1.375,-11.6563 M4.34375,-11.6563 C4.34375,-7.77083 4.79948,-5.1875 5.71094,-3.90625 C6.6224,-2.625 7.74479,-1.98438 9.07813,-1.98438 C10.401,-1.98438 11.5182,-2.6276 12.4297,-3.91406 C13.3411,-5.20052 13.7969,-7.78125 13.7969,-11.6563 C13.7969,-15.5417 13.3411,-18.1224 12.4297,-19.3984 C11.5182,-20.6745 10.3906,-21.3125 9.04688,-21.3125 C7.71354,-21.3125 6.64583,-20.75 5.84375,-19.625 C4.84375,-18.1875 4.34375,-15.5313 4.34375,-11.6563 M21,0 L21,-3.29688 L24.2969,-3.29688 L24.2969,0 L21,0 M43.6094,-2.78125 L43.6094,0 L28,0 C27.9792,-0.697917 28.0938,-1.36979 28.3438,-2.01563 C28.7396,-3.07813 29.375,-4.125 30.25,-5.15625 C31.125,-6.1875 32.3906,-7.38021 34.0469,-8.73438 C36.6094,-10.8385 38.3411,-12.5052 39.2422,-13.7344 C40.1432,-14.9635 40.5938,-16.125 40.5938,-17.2188 C40.5938,-18.375 40.1849,-19.3464 39.3672,-20.1328 C38.5495,-20.9193 37.4792,-21.3125 36.1563,-21.3125 C34.7604,-21.3125 33.6432,-20.8932 32.8047,-20.0547 C31.9661,-19.2161 31.5417,-18.0573 31.5313,-16.5781 L28.5469,-16.8906 C28.7552,-19.1094 29.5234,-20.8021 30.8516,-21.9688 C32.1797,-23.1354 33.9688,-23.7188 36.2188,-23.7188 C38.4792,-23.7188 40.2708,-23.0911 41.5938,-21.8359 C42.9167,-20.5807 43.5781,-19.0208 43.5781,-17.1563 C43.5781,-16.2188 43.3854,-15.2917 43,-14.375 C42.6146,-13.4583 41.974,-12.4948 41.0781,-11.4844 C40.1823,-10.474 38.6927,-9.08854 36.6094,-7.32813 C34.8698,-5.86979 33.7526,-4.88021 33.2578,-4.35938 C32.763,-3.83854 32.3542,-3.3125 32.0313,-2.78125 L43.6094,-2.78125"/>
</g>

<g fill="#d9d9d9" fill-opacity="1" stroke="none" transform="matrix(0.75,0,0,0.75,43.25,211.466)"
font-family="MS Shell Dlg 2" font-size="8.25" font-weight="400" font-style="normal" 
>
<path vector-effect="none" fill-rule="evenodd" d="M1.375,-11.6563 C1.375,-14.4479 1.66146,-16.6953 2.23438,-18.3984 C2.80729,-20.1016 3.66146,-21.4141 4.79688,-22.3359 C5.93229,-23.2578 7.35938,-23.7188 9.07813,-23.7188 C10.3385,-23.7188 11.4479,-23.4635 12.4063,-22.9531 C13.3646,-22.4427 14.1536,-21.7057 14.7734,-20.7422 C15.3932,-19.7786 15.8828,-18.6068 16.2422,-17.2266 C16.6016,-15.8464 16.7813,-13.9896 16.7813,-11.6563 C16.7813,-8.88542 16.4948,-6.64844 15.9219,-4.94531 C15.349,-3.24219 14.4974,-1.92448 13.3672,-0.992188 C12.237,-0.0598958 10.8073,0.40625 9.07813,0.40625 C6.79688,0.40625 5.00521,-0.411458 3.70313,-2.04688 C2.15104,-4.01563 1.375,-7.21875 1.375,-11.6563 M4.34375,-11.6563 C4.34375,-7.77083 4.79948,-5.1875 5.71094,-3.90625 C6.6224,-2.625 7.74479,-1.98438 9.07813,-1.98438 C10.401,-1.98438 11.5182,-2.6276 12.4297,-3.91406 C13.3411,-5.20052 13.7969,-7.78125 13.7969,-11.6563 C13.7969,-15.5417 13.3411,-18.1224 12.4297,-19.3984 C11.5182,-20.6745 10.3906,-21.3125 9.04688,-21.3125 C7.71354,-21.3125 6.64583,-20.75 5.84375,-19.625 C4.84375,-18.1875 4.34375,-15.5313 4.34375,-11.6563 M21,0 L21,-3.29688 L24.2969,-3.29688 L24.2969,0 L21,0 M37.6719,0 L37.6719,-5.65625 L27.4219,-5.65625 L27.4219,-8.3125 L38.2031,-23.625 L40.5625,-23.625 L40.5625,-8.3125 L43.7656,-8.3125 L43.7656,-5.65625 L40.5625,-5.65625 L40.5625,0 L37.6719,0 M37.6719,-8.3125 L37.6719,-18.9688 L30.2656,-8.3125 L37.6719,-8.3125"/>
</g>

<g fill="#d9d9d9" fill-opacity="1" stroke="none" transform="matrix(0.75,0,0,0.75,43.25,117.546)"
font-family="MS Shell Dlg 2" font-size="8.25" font-weight="400" font-style="normal" 
>
<path vector-effect="none" fill-rule="evenodd" d="M1.375,-11.6563 C1.375,-14.4479 1.66146,-16.6953 2.23438,-18.3984 C2.80729,-20.1016 3.66146,-21.4141 4.79688,-22.3359 C5.93229,-23.2578 7.35938,-23.7188 9.07813,-23.7188 C10.3385,-23.7188 11.4479,-23.4635 12.4063,-22.9531 C13.3646,-22.4427 14.1536,-21.7057 14.7734,-20.7422 C15.3932,-19.7786 15.8828,-18.6068 16.2422,-17.2266 C16.6016,-15.8464 16.7813,-13.9896 16.7813,-11.6563 C16.7813,-8.88542 16.4948,-6.64844 15.9219,-4.94531 C15.349,-3.24219 14.4974,-1.92448 13.3672,-0.992188 C12.237,-0.0598958 10.8073,0.40625 9.07813,0.40625 C6.79688,0.40625 5.00521,-0.411458 3.70313,-2.04688 C2.15104,-4.01563 1.375,-7.21875 1.375,-11.6563 M4.34375,-11.6563 C4.34375,-7.77083 4.79948,-5.1875 5.71094,-3.90625 C6.6224,-2.625 7.74479,-1.98438 9.07813,-1.98438 C10.401,-1.98438 11.5182,-2.6276 12.4297,-3.91406 C13.3411,-5.20052 13.7969,-7.78125 13.7969,-11.6563 C13.7969,-15.5417 13.3411,-18.1224 12.4297,-19.3984 C11.5182,-20.6745 10.3906,-21.3125 9.04688,-21.3125 C7.71354,-21.3125 6.64583,-20.75 5.84375,-19.625 C4.84375,-18.1875 4.34375,-15.5313 4.34375,-11.6563 M21,0 L21,-3.29688 L24.2969,-3.29688 L24.2969,0 L21,0 M43.4219,-17.8438 L40.5313,-17.6094 C40.2813,-18.7448 39.9167,-19.5729 39.4375,-20.0938 C38.6563,-20.9167 37.6927,-21.3281 36.5469,-21.3281 C35.6198,-21.3281 34.8073,-21.0729 34.1094,-20.5625 C33.1927,-19.8958 32.4714,-18.9245 31.9453,-17.6484 C31.4193,-16.3724 31.1458,-14.5521 31.125,-12.1875 C31.8229,-13.25 32.6771,-14.0391 33.6875,-14.5547 C34.6979,-15.0703 35.7552,-15.3281 36.8594,-15.3281 C38.7969,-15.3281 40.4453,-14.6146 41.8047,-13.1875 C43.1641,-11.7604 43.8438,-9.92188 43.8438,-7.67188 C43.8438,-6.19271 43.5234,-4.8151 42.8828,-3.53906 C42.2422,-2.26302 41.362,-1.28646 40.2422,-0.609375 C39.1224,0.0677083 37.8542,0.40625 36.4375,0.40625 C34.0208,0.40625 32.0495,-0.484375 30.5234,-2.26563 C28.9974,-4.04688 28.2344,-6.97396 28.2344,-11.0469 C28.2344,-15.6198 29.0781,-18.9427 30.7656,-21.0156 C32.2448,-22.8177 34.2292,-23.7188 36.7188,-23.7188 C38.5729,-23.7188 40.0938,-23.1979 41.2813,-22.1563 C42.4688,-21.1146 43.1823,-19.6771 43.4219,-17.8438 M31.5781,-7.65625 C31.5781,-6.65625 31.7891,-5.70052 32.2109,-4.78906 C32.6328,-3.8776 33.2266,-3.18229 33.9922,-2.70313 C34.7578,-2.22396 35.5573,-1.98438 36.3906,-1.98438 C37.6198,-1.98438 38.6745,-2.47917 39.5547,-3.46875 C40.4349,-4.45833 40.875,-5.80208 40.875,-7.5 C40.875,-9.125 40.4401,-10.4089 39.5703,-11.3516 C38.7005,-12.2943 37.6042,-12.7656 36.2813,-12.7656 C34.9688,-12.7656 33.8568,-12.2943 32.9453,-11.3516 C32.0339,-10.4089 31.5781,-9.17708 31.5781,-7.65625 "/>
</g>

<g fill="#d9d9d9" fill-opacity="1" stroke="none" transform="matrix(0.75,0,0,0.75,43.25,23.625)"
font-family="MS Shell Dlg 2" font-size="8.25" font-weight="400" font-style="normal" 
>
<path vector-effect="none" fill-rule="evenodd" d="M1.375,-11.6563 C1.375,-14.4479 1.66146,-16.6953 2.23438,-18.3984 C2.80729,-20.1016 3.66146,-21.4141 4.79688,-22.3359 C5.93229,-23.2578 7.35938,-23.7188 9.07813,-23.7188 C10.3385,-23.7188 11.4479,-23.4635 12.4063,-22.9531 C13.3646,-22.4427 14.1536,-21.7057 14.7734,-20.7422 C15.3932,-19.7786 15.8828,-18.6068 16.2422,-17.2266 C16.6016,-15.8464 16.7813,-13.9896 16.7813,-11.6563 C16.7813,-8.88542 16.4948,-6.64844 15.9219,-4.94531 C15.349,-3.24219 14.4974,-1.92448 13.3672,-0.992188 C12.237,-0.0598958 10.8073,0.40625 9.07813,0.40625 C6.79688,0.40625 5.00521,-0.411458 3.70313,-2.04688 C2.15104,-4.01563 1.375,-7.21875 1.375,-11.6563 M4.34375,-11.6563 C4.34375,-7.77083 4.79948,-5.1875 5.71094,-3.90625 C6.6224,-2.625 7.74479,-1.98438 9.07813,-1.98438 C10.401,-1.98438 11.5182,-2.6276 12.4297,-3.91406 C13.3411,-5.20052 13.7969,-7.78125 13.7969,-11.6563 C13.7969,-15.5417 13.3411,-18.1224 12.4297,-19.3984 C11.5182,-20.6745 10.3906,-21.3125 9.04688,-21.3125 C7.71354,-21.3125 6.64583,-20.75 5.84375,-19.625 C4.84375,-18.1875 4.34375,-15.5313 4.34375,-11.6563 M21,0 L21,-3.29688 L24.2969,-3.29688 L24.2969,0 L21,0 M32.8281,-12.8125 C31.6302,-13.25 30.7396,-13.8776 30.1563,-14.6953 C29.5729,-15.513 29.2813,-16.4896 29.2813,-17.625 C29.2813,-19.3438 29.901,-20.7891 31.1406,-21.9609 C32.3802,-23.1328 34.026,-23.7188 36.0781,-23.7188 C38.1406,-23.7188 39.7995,-23.1198 41.0547,-21.9219 C42.3099,-20.724 42.9375,-19.2656 42.9375,-17.5469 C42.9375,-16.4531 42.651,-15.5 42.0781,-14.6875 C41.5052,-13.875 40.6302,-13.25 39.4531,-12.8125 C40.901,-12.3333 42.0052,-11.5677 42.7656,-10.5156 C43.526,-9.46354 43.9063,-8.20833 43.9063,-6.75 C43.9063,-4.72917 43.1901,-3.03125 41.7578,-1.65625 C40.3255,-0.28125 38.4479,0.40625 36.125,0.40625 C33.7917,0.40625 31.9115,-0.283854 30.4844,-1.66406 C29.0573,-3.04427 28.3438,-4.76563 28.3438,-6.82813 C28.3438,-8.36979 28.7318,-9.65885 29.5078,-10.6953 C30.2839,-11.7318 31.3906,-12.4375 32.8281,-12.8125 M32.25,-17.7188 C32.25,-16.6042 32.6094,-15.6927 33.3281,-14.9844 C34.0469,-14.276 34.9844,-13.9219 36.1406,-13.9219 C37.2552,-13.9219 38.1693,-14.2734 38.8828,-14.9766 C39.5964,-15.6797 39.9531,-16.5417 39.9531,-17.5625 C39.9531,-18.625 39.5859,-19.5182 38.8516,-20.2422 C38.1172,-20.9661 37.2031,-21.3281 36.1094,-21.3281 C34.9948,-21.3281 34.0729,-20.974 33.3438,-20.2656 C32.6146,-19.5573 32.25,-18.7083 32.25,-17.7188 M31.3125,-6.8125 C31.3125,-5.98958 31.5104,-5.1901 31.9063,-4.41406 C32.3021,-3.63802 32.8854,-3.03906 33.6563,-2.61719 C34.4271,-2.19531 35.2604,-1.98438 36.1563,-1.98438 C37.5417,-1.98438 38.6849,-2.42969 39.5859,-3.32031 C40.487,-4.21094 40.9375,-5.34375 40.9375,-6.71875 C40.9375,-8.11458 40.474,-9.26823 39.5469,-10.1797 C38.6198,-11.0911 37.4583,-11.5469 36.0625,-11.5469 C34.6979,-11.5469 33.5651,-11.0964 32.6641,-10.1953 C31.763,-9.29427 31.3125,-8.16667 31.3125,-6.8125 "/>
</g>

<g fill="none" stroke="#268cdd" stroke-opacity="1" stroke-width="2.66667" stroke-linecap="butt" stroke-linejoin="round" transform="matrix(0.75,0,0,0.75,0,0)"
font-family="MS Shell Dlg 2" font-size="8.25" font-weight="400" font-style="normal" 
>
<polyline fill="none" vector-effect="none" points="112,69.7818 112.716,70.3491 113.431,70.9157 114.147,71.4815 114.863,72.0467 115.579,72.6111 116.294,73.1749 117.01,73.7379 117.726,74.3002 118.441,74.8618 119.157,75.4227 119.873,75.983 120.589,76.5425 121.304,77.1013 122.02,77.6594 122.736,78.2169 123.451,78.7736 124.167,79.3296 124.883,79.885 125.599,80.4397 126.314,80.9936 127.03,81.5469 127.746,82.0995 128.462,82.6514 129.177,83.2026 129.893,83.7532 130.609,84.303 131.324,84.8522 132.04,85.4007 132.756,85.9485 133.471,86.4957 134.187,87.0421 134.903,87.5879 135.619,88.1331 136.334,88.6775 137.05,89.2213 137.766,89.7644 138.482,90.3068 139.197,90.8486 139.913,91.3897 140.629,91.9302 141.344,92.47 142.06,93.0091 142.776,93.5476 143.492,94.0854 144.207,94.6225 144.923,95.159 145.639,95.6948 146.354,96.23 147.07,96.7645 147.786,97.2984 148.501,97.8317 149.217,98.3642 149.933,98.8962 150.649,99.4274 151.364,99.958 152.08,100.488 152.796,101.017 153.512,101.546 154.227,102.074 154.943,102.602 155.659,103.128 156.374,103.654 157.09,104.18 157.806,104.705 158.521,105.229 159.237,105.753 159.953,106.276 160.669,106.798 161.384,107.32 162.1,107.841 162.816,108.361 163.532,108.881 164.247,109.4 164.963,109.919 165.679,110.437 166.394,110.954 167.11,111.471 167.826,111.987 168.542,112.502 169.257,113.017 169.973,113.531 170.689,114.045 171.404,114.558 172.12,115.071 172.836,115.582 173.551,116.093 174.267,116.604 174.983,117.114 175.699,117.623 176.414,118.132 177.13,118.64 177.846,119.148 178.562,119.655 179.277,120.161 179.993,120.667 180.709,121.172 181.424,121.676 182.14,122.18 182.856,122.684 183.572,123.186 184.287,123.688 185.003,124.19 185.719,124.691 186.434,125.191 187.15,125.691 187.866,126.19 188.582,126.689 189.297,127.187 190.013,127.684 190.729,128.181 191.445,128.677 192.16,129.173 192.876,129.668 193.592,130.163 194.307,130.657 195.023,131.15 195.739,131.643 196.454,132.135 197.17,132.626 197.886,133.117 198.602,133.608 199.317,134.098 200.033,134.587 200.749,135.076 201.464,135.564 202.18,136.052 202.896,136.539 203.612,137.025 204.327,137.511 205.043,137.996 205.759,138.481 206.475,138.965 207.19,139.449 207.906,139.932 208.622,140.415 209.337,140.897 210.053,141.378 210.769,141.859 211.484,142.339 212.2,142.819 212.916,143.298 213.632,143.777 214.347,144.255 215.063,144.732 215.779,145.209 216.495,145.686 217.21,146.162 217.926,146.637 218.642,147.112 219.357,147.586 220.073,148.06 220.789,148.533 221.505,149.005 222.22,149.478 222.936,149.949 223.652,150.42 224.367,150.89 225.083,151.36 225.799,151.83 226.514,152.299 227.23,152.767 227.946,153.235 228.662,153.702 229.377,154.169 230.093,154.635 230.809,155.1 231.525,155.565 232.24,156.03 232.956,156.494 233.672,156.958 234.387,157.421 235.103,157.883 235.819,158.345 236.534,158.806 237.25,159.267 237.966,159.728 238.682,160.187 239.397,160.647 240.113,161.106 240.829,161.564 241.545,162.022 242.26,162.479 242.976,162.936 243.692,163.392 244.407,163.848 245.123,164.303 245.839,164.757 246.555,165.212 247.27,165.665 247.986,166.118 248.702,166.571 249.417,167.023 250.133,167.475 250.849,167.926 251.565,168.377 252.28,168.827 252.996,169.276 253.712,169.725 254.427,170.174 255.143,170.622 255.859,171.07 256.575,171.517 257.29,171.963 258.006,172.41 258.722,172.855 259.437,173.3 260.153,173.745 260.869,174.189 261.585,174.633 262.3,175.076 263.016,175.518 263.732,175.961 264.447,176.402 265.163,176.843 265.879,177.284 266.595,177.724 267.31,178.164 268.026,178.603 268.742,179.042 269.458,179.48 270.173,179.918 270.889,180.355 271.605,180.792 272.32,181.228 273.036,181.664 273.752,182.099 274.467,182.534 275.183,182.969 275.899,183.403 276.615,183.836 277.33,184.269 278.046,184.702 278.762,185.134 279.478,185.565 280.193,185.996 280.909,186.427 281.625,186.857 282.34,187.287 283.056,187.716 283.772,188.144 284.487,188.573 285.203,189 285.919,189.428 286.635,189.855 287.35,190.281 288.066,190.707 288.782,191.132 289.497,191.557 290.213,191.982 290.929,192.406 291.645,192.83 292.36,193.253 293.076,193.675 293.792,194.098 294.508,194.519 295.223,194.941 295.939,195.362 296.655,195.782 297.37,196.202 298.086,196.621 298.802,197.04 299.517,197.459 300.233,197.877 300.949,198.295 301.665,198.712 302.38,199.129 303.096,199.545 303.812,199.961 304.528,200.376 305.243,200.791 305.959,201.206 306.675,201.62 307.39,202.034 308.106,202.447 308.822,202.86 309.538,203.272 310.253,203.684 310.969,204.095 311.685,204.506 312.4,204.917 313.116,205.327 313.832,205.737 314.547,206.146 315.263,206.555 315.979,206.963 316.695,207.371 317.41,207.779 318.126,208.186 318.842,208.592 319.558,208.999 320.273,209.404 320.989,209.81 321.705,210.215 322.42,210.619 323.136,211.023 323.852,211.427 324.568,211.83 325.283,212.233 325.999,212.635 326.715,213.037 327.43,213.438 328.146,213.839 328.862,214.24 329.578,214.64 330.293,215.04 331.009,215.439 331.725,215.838 332.441,216.237 333.156,216.635 333.872,217.033 334.588,217.43 335.303,217.827 336.019,218.223 336.735,218.619 337.45,219.015 338.166,219.41 338.882,219.805 339.598,220.199 340.313,220.593 341.029,220.987 341.745,221.38 342.46,221.773 343.176,222.165 343.892,222.557 344.608,222.948 345.323,223.339 346.039,223.73 346.755,224.12 347.47,224.51 348.186,224.9 348.902,225.289 349.618,225.677 350.333,226.065 351.049,226.453 351.765,226.841 352.48,227.228 353.196,227.614 353.912,228.001 354.628,228.386 355.343,228.772 356.059,229.157 356.775,229.541 357.491,229.926 358.206,230.309 358.922,230.693 359.638,231.076 360.353,231.459 361.069,231.841 361.785,232.223 362.5,232.604 363.216,232.985 363.932,233.366 364.648,233.746 365.363,234.126 366.079,234.505 366.795,234.885 367.51,235.263 368.226,235.642 368.942,236.02 369.658,236.397 370.373,236.774 371.089,237.151 371.805,237.527 372.521,237.903 373.236,238.279 373.952,238.654 374.668,239.029 375.383,239.404 376.099,239.778 376.815,240.151 377.53,240.525 378.246,240.898 378.962,241.27 379.678,241.642 380.393,242.014 381.109,242.386 381.825,242.757 382.541,243.127 383.256,243.498 383.972,243.867 384.688,244.237 385.403,244.606 386.119,244.975 386.835,245.343 387.551,245.711 388.266,246.079 388.982,246.446 389.698,246.813 390.413,247.18 391.129,247.546 391.845,247.912 392.561,248.277 393.276,248.642 393.992,249.007 394.708,249.371 395.423,249.735 396.139,250.099 396.855,250.462 397.571,250.825 398.286,251.188 399.002,251.55 399.718,251.912 400.433,252.273 401.149,252.634 401.865,252.995 402.581,253.355 403.296,253.715 404.012,254.075 404.728,254.434 405.443,254.793 406.159,255.151 406.875,255.51 407.591,255.867 408.306,256.225 409.022,256.582 409.738,256.939 410.453,257.295 411.169,257.651 411.885,258.007 412.601,258.362 413.316,258.717 414.032,259.072 414.748,259.426 415.463,259.78 416.179,260.134 416.895,260.487 417.611,260.84 418.326,261.192 419.042,261.544 419.758,261.896 420.473,262.248 421.189,262.599 421.905,262.95 422.621,263.3 423.336,263.65 424.052,264 424.768,264.349 425.483,264.698 426.199,265.047 426.915,265.395 427.631,265.743 428.346,266.091 429.062,266.438 429.778,266.785 430.493,267.132 431.209,267.478 431.925,267.824 432.641,268.17 433.356,268.515 434.072,268.86 434.788,269.205 435.504,269.549 436.219,269.893 436.935,270.237 437.651,270.58 438.366,270.923 439.082,271.265 439.798,271.608 440.513,271.95 441.229,272.291 441.945,272.632 442.661,272.973 443.376,273.314 444.092,273.654 444.808,273.994 445.524,274.334 446.239,274.673 446.955,275.012 447.671,275.351 448.386,275.689 449.102,276.027 449.818,276.364 450.534,276.702 451.249,277.039 451.965,277.375 452.681,277.712 453.396,278.048 454.112,278.383 454.828,278.719 455.543,279.054 456.259,279.388 456.975,279.723 457.691,280.057 458.406,280.391 459.122,280.724 459.838,281.057 460.554,281.39 461.269,281.722 461.985,282.054 462.701,282.386 463.416,282.718 464.132,283.049 464.848,283.38 465.564,283.71 466.279,284.04 466.995,284.37 467.711,284.7 468.426,285.029 469.142,285.358 469.858,285.687 470.574,286.015 471.289,286.343 472.005,286.671 472.721,286.998 473.436,287.325 474.152,287.652 474.868,287.979 475.584,288.305 476.299,288.63 477.015,288.956 477.731,289.281 478.446,289.606 479.162,289.931 479.878,290.255 480.594,290.579 481.309,290.903 482.025,291.226 482.741,291.549 483.456,291.872 484.172,292.194 484.888,292.516 485.604,292.838 486.319,293.16 487.035,293.481 487.751,293.802 488.466,294.122 489.182,294.443 489.898,294.763 490.614,295.082 491.329,295.402 492.045,295.721 492.761,296.04 493.476,296.358 494.192,296.676 494.908,296.994 495.624,297.312 496.339,297.629 497.055,297.946 497.771,298.263 498.487,298.579 499.202,298.895 499.918,299.211 500.634,299.527 501.349,299.842 502.065,300.157 502.781,300.471 503.496,300.786 504.212,301.1 504.928,301.414 505.644,301.727 506.359,302.04 507.075,302.353 507.791,302.666 508.506,302.978 509.222,303.29 509.938,303.602 510.654,303.913 511.369,304.224 512.085,304.535 512.801,304.845 513.517,305.156 514.232,305.466 514.948,305.775 515.664,306.085 516.379,306.394 517.095,306.703 517.811,307.011 518.526,307.319 519.242,307.627 519.958,307.935 520.674,308.242 521.389,308.55 522.105,308.856 522.821,309.163 523.537,309.469 524.252,309.775 524.968,310.081 525.684,310.386 526.399,310.691 527.115,310.996 527.831,311.301 528.547,311.605 529.262,311.909 529.978,312.213 530.694,312.516 531.409,312.819 532.125,313.122 532.841,313.425 533.557,313.727 534.272,314.029 534.988,314.331 535.704,314.633 536.419,314.934 537.135,315.235 537.851,315.535 538.567,315.836 539.282,316.136 539.998,316.436 540.714,316.735 541.429,317.035 542.145,317.334 542.861,317.632 543.577,317.931 544.292,318.229 545.008,318.527 545.724,318.825 546.439,319.122 547.155,319.419 547.871,319.716 548.587,320.013 549.302,320.309 550.018,320.605 550.734,320.901 551.45,321.196 552.165,321.491 552.881,321.786 553.597,322.081 554.312,322.376 555.028,322.67 555.744,322.964 556.459,323.257 557.175,323.551 557.891,323.844 558.607,324.137 559.322,324.429 560.038,324.721 560.754,325.014 561.469,325.305 562.185,325.597 562.901,325.888 563.617,326.179 564.332,326.47 565.048,326.76 565.764,327.051 566.479,327.34 567.195,327.63 567.911,327.92 568.627,328.209 569.342,328.498 570.058,328.786 570.774,329.075 571.489,329.363 572.205,329.651 572.921,329.938 573.637,330.226 574.352,330.513 575.068,330.8 575.784,331.086 576.5,331.373 577.215,331.659 577.931,331.944 578.647,332.23 579.362,332.515 580.078,332.8 580.794,333.085 581.509,333.37 582.225,333.654 582.941,333.938 583.657,334.222 584.372,334.505 585.088,334.789 585.804,335.072 586.52,335.355 587.235,335.637 587.951,335.919 588.667,336.201 589.382,336.483 590.098,336.765 590.814,337.046 591.53,337.327 592.245,337.608 592.961,337.888 593.677,338.169 594.392,338.449 595.108,338.728 595.824,339.008 596.539,339.287 597.255,339.566 597.971,339.845 598.687,340.124 599.402,340.402 600.118,340.68 600.834,340.958 601.55,341.236 602.265,341.513 602.981,341.79 603.697,342.067 604.412,342.343 605.128,342.62 605.844,342.896 606.56,343.172 607.275,343.447 607.991,343.723 608.707,343.998 609.422,344.273 610.138,344.548 610.854,344.822 611.57,345.096 612.285,345.37 613.001,345.644 613.717,345.917 614.432,346.191 615.148,346.464 615.864,346.736 616.58,347.009 617.295,347.281 618.011,347.553 618.727,347.825 619.442,348.097 620.158,348.368 620.874,348.639 621.59,348.91 622.305,349.181 623.021,349.451 623.737,349.721 624.452,349.991 625.168,350.261 625.884,350.53 626.6,350.799 627.315,351.068 628.031,351.337 628.747,351.606 629.463,351.874 630.178,352.142 630.894,352.41 631.61,352.678 632.325,352.945 633.041,353.212 633.757,353.479 634.472,353.746 635.188,354.012 635.904,354.278 636.62,354.544 637.335,354.81 638.051,355.076 638.767,355.341 639.483,355.606 640.198,355.871 640.914,356.135 641.63,356.4 642.345,356.664 643.061,356.928 643.777,357.192 644.492,357.455 645.208,357.718 645.924,357.982 646.64,358.244 647.355,358.507 648.071,358.769 648.787,359.031 649.502,359.293 650.218,359.555 650.934,359.816 651.65,360.078 652.365,360.339 653.081,360.6 653.797,360.86 654.513,361.12 655.228,361.381 655.944,361.641 656.66,361.9 657.375,362.16 658.091,362.419 658.807,362.678 659.522,362.937 660.238,363.195 660.954,363.454 661.67,363.712 662.385,363.97 663.101,364.228 663.817,364.485 664.533,364.742 665.248,364.999 665.964,365.256 666.68,365.513 667.395,365.769 668.111,366.025 668.827,366.281 669.543,366.537 670.258,366.793 670.974,367.048 671.69,367.303 672.405,367.558 673.121,367.813 673.837,368.067 674.553,368.321 675.268,368.576 675.984,368.829 676.7,369.083 677.415,369.336 678.131,369.59 678.847,369.842 679.563,370.095 680.278,370.348 680.994,370.6 681.71,370.852 682.425,371.104 683.141,371.356 683.857,371.607 684.573,371.859 685.288,372.11 686.004,372.361 686.72,372.611 687.435,372.862 688.151,373.112 688.867,373.362 689.583,373.612 690.298,373.861 691.014,374.111 691.73,374.36 692.445,374.609 693.161,374.858 693.877,375.106 694.593,375.355 695.308,375.603 696.024,375.851 696.74,376.098 697.455,376.346 698.171,376.593 698.887,376.84 699.603,377.087 700.318,377.334 701.034,377.581 701.75,377.827 702.465,378.073 703.181,378.319 703.897,378.565 704.613,378.81 705.328,379.055 706.044,379.301 706.76,379.545 707.475,379.79 708.191,380.035 708.907,380.279 709.623,380.523 710.338,380.767 711.054,381.01 711.77,381.254 712.485,381.497 713.201,381.74 713.917,381.983 714.633,382.226 715.348,382.468 716.064,382.711 716.78,382.953 717.496,383.195 718.211,383.436 718.927,383.678 719.643,383.919 720.358,384.16 721.074,384.401 721.79,384.642 722.505,384.882 723.221,385.122 723.937,385.363 724.653,385.602 725.368,385.842 726.084,386.082 726.8,386.321 727.516,386.56 728.231,386.799 728.947,387.038 729.663,387.276 730.378,387.515 731.094,387.753 731.81,387.991 732.526,388.228 733.241,388.466 733.957,388.703 734.673,388.941 735.388,389.178 736.104,389.414 736.82,389.651 737.535,389.887 738.251,390.124 738.967,390.36 739.683,390.595 740.398,390.831 741.114,391.067 741.83,391.302 742.546,391.537 743.261,391.772 743.977,392.006 744.693,392.241 745.408,392.475 746.124,392.709 746.84,392.943 747.556,393.177 748.271,393.411 748.987,393.644 749.703,393.877 750.418,394.11 751.134,394.343 751.85,394.576 752.566,394.808 753.281,395.04 753.997,395.272 754.713,395.504 755.428,395.736 756.144,395.967 756.86,396.199 757.576,396.43 758.291,396.661 759.007,396.891 759.723,397.122 760.438,397.352 761.154,397.583 761.87,397.813 762.586,398.042 763.301,398.272 764.017,398.502 764.733,398.731 765.448,398.96 766.164,399.189 766.88,399.418 767.596,399.646 768.311,399.874 769.027,400.103 769.743,400.331 770.458,400.559 771.174,400.786 771.89,401.014 772.606,401.241 773.321,401.468 774.037,401.695 774.753,401.922 775.468,402.148 776.184,402.375 776.9,402.601 777.616,402.827 778.331,403.053 779.047,403.278 779.763,403.504 780.479,403.729 781.194,403.954 781.91,404.179 782.626,404.404 783.341,404.628 784.057,404.853 784.773,405.077 785.488,405.301 786.204,405.525 786.92,405.749 787.636,405.972 788.351,406.196 789.067,406.419 789.783,406.642 790.498,406.865 791.214,407.087 791.93,407.31 792.646,407.532 793.361,407.754 794.077,407.976 794.793,408.198 795.509,408.419 796.224,408.641 796.94,408.862 797.656,409.083 798.371,409.304 799.087,409.525 799.803,409.745 800.518,409.966 801.234,410.186 801.95,410.406 802.666,410.626 803.381,410.845 804.097,411.065 804.813,411.284 805.529,411.503 806.244,411.723 806.96,411.941 807.676,412.16 808.391,412.378 809.107,412.597 809.823,412.815 810.539,413.033 811.254,413.251 811.97,413.468 812.686,413.686 813.401,413.903 814.117,414.12 814.833,414.337 815.549,414.554 816.264,414.771 816.98,414.987 817.696,415.203 818.411,415.42 819.127,415.635 819.843,415.851 820.559,416.067 821.274,416.282 821.99,416.498 822.706,416.713 823.421,416.928 824.137,417.143 824.853,417.357 825.569,417.572 826.284,417.786 827,418 " />
</g>

<g fill="none" stroke="#ffffff" stroke-opacity="1" stroke-width="2.66667" stroke-linecap="butt" stroke-linejoin="miter" stroke-miterlimit="2" transform="matrix(0.75,0,0,0.75,0,0)"
font-family="MS Shell Dlg 2" font-size="8.25" font-weight="400" font-style="normal" 
>
<path vector-effect="none" fill-rule="evenodd" d="M595.333,336.201 C595.333,332.519 592.349,329.535 588.667,329.535 C584.985,329.535 582,332.519 582,336.201 C582,339.883 584.985,342.868 588.667,342.868 C592.349,342.868 595.333,339.883 595.333,336.201 "/>
</g>
</g>
</svg>
