<?xml version="1.0" encoding="UTF-8" standalone="no"?>
<svg width="220.839mm" height="190.5mm"
 viewBox="0 0 626 540"
 xmlns="http://www.w3.org/2000/svg" xmlns:xlink="http://www.w3.org/1999/xlink"  version="1.2" baseProfile="tiny">
<title>Qt SVG Document</title>
<desc>MATLAB, The MathWorks, Inc. Version 25.2.0.3042426 R2025b Update 1</desc>
<defs>
</defs>
<g fill="none" stroke="black" stroke-width="1" fill-rule="evenodd" stroke-linecap="square" stroke-linejoin="bevel" >

<g fill="#000000" fill-opacity="1" stroke="none" transform="matrix(0.75,0,0,0.75,0,0)"
font-family="MS Shell Dlg 2" font-size="8.25" font-weight="400" font-style="normal" 
>
<path vector-effect="none" fill-rule="evenodd" d="M0,0 L835,0 L835,720 L0,720 L0,0"/>
</g>

<g fill="#121212" fill-opacity="1" stroke="none" transform="matrix(7.5e-05,0,0,7.5e-05,0,0)"
font-family="MS Shell Dlg 2" font-size="8.25" font-weight="400" font-style="normal" 
>
<path vector-effect="none" fill-rule="evenodd" d="M1.08e+06,640000 L1.08e+06,6.27e+06 L8.1e+06,6.27e+06 L8.1e+06,640000 L1.08e+06,640000"/>
</g>

<g fill="#ffffff" fill-opacity="0.25098" stroke="#ffffff" stroke-opacity="0.25098" stroke-width="0.666667" stroke-linecap="butt" stroke-linejoin="round" transform="matrix(0.75,0,0,0.75,0,0)"
font-family="MS Shell Dlg 2" font-size="8.25" font-weight="400" font-style="normal" 
>
<polyline fill="none" vector-effect="none" points="108,64 108,627 " />
<polyline fill="none" vector-effect="none" points="264,64 264,627 " />
<polyline fill="none" vector-effect="none" points="420,64 420,627 " />
<polyline fill="none" vector-effect="none" points="576,64 576,627 " />
<polyline fill="none" vector-effect="none" points="732,64 732,627 " />
<polyline fill="none" vector-effect="none" points="108,627 810,627 " />
<polyline fill="none" vector-effect="none" points="108,522.89 810,522.89 " />
<polyline fill="none" vector-effect="none" points="108,418.779 810,418.779 " />
<polyline fill="none" vector-effect="none" points="108,314.669 810,314.669 " />
<polyline fill="none" vector-effect="none" points="108,210.559 810,210.559 " />
<polyline fill="none" vector-effect="none" points="108,106.449 810,106.449 " />
</g>

<g fill="#d9d9d9" fill-opacity="1" stroke="none" transform="matrix(0.75,0,0,0.75,295.285,529.1)"
font-family="MS Shell Dlg 2" font-size="8.25" font-weight="400" font-style="normal" 
>
<path vector-effect="none" fill-rule="evenodd" d="M6.07813,0 L6.07813,-1.26563 C7.28646,-1.26563 8.45833,-1.33333 9.59375,-1.46875 C10.7292,-1.60417 11.2969,-1.91667 11.2969,-2.40625 L11.2969,-22.1875 C11.2969,-22.6979 11.1536,-23.0156 10.8672,-23.1406 C10.5807,-23.2656 10.1146,-23.3281 9.46875,-23.3281 L7.96875,-23.3281 C5.98958,-23.3281 4.58333,-22.8958 3.75,-22.0313 C3.3125,-21.5938 3,-20.8984 2.8125,-19.9453 C2.625,-18.9922 2.46875,-17.7917 2.34375,-16.3438 L1.29688,-16.3438 L1.98438,-24.5938 L23.9844,-24.5938 L24.6563,-16.3438 L23.6094,-16.3438 C23.4635,-17.8958 23.3073,-19.125 23.1406,-20.0313 C22.974,-20.9375 22.6667,-21.6042 22.2188,-22.0313 C21.375,-22.8958 19.9688,-23.3281 18,-23.3281 L16.4844,-23.3281 C16.0573,-23.3281 15.724,-23.3099 15.4844,-23.2734 C15.2448,-23.237 15.0469,-23.1354 14.8906,-22.9688 C14.7344,-22.8021 14.6563,-22.5417 14.6563,-22.1875 L14.6563,-2.40625 C14.6563,-1.91667 15.2266,-1.60417 16.3672,-1.46875 C17.5078,-1.33333 18.6719,-1.26563 19.8594,-1.26563 L19.8594,0 L6.07813,0"/>
</g>

<g fill="#d9d9d9" fill-opacity="1" stroke="none" transform="matrix(0.75,0,0,0.75,315.146,529.1)"
font-family="MS Shell Dlg 2" font-size="8.25" font-weight="400" font-style="normal" 
>
<path vector-effect="none" fill-rule="evenodd" d="M1.10938,0 L1.10938,-1.26563 C1.93229,-1.26563 2.60677,-1.33073 3.13281,-1.46094 C3.65885,-1.59115 3.92188,-1.90625 3.92188,-2.40625 L3.92188,-12.2344 C3.92188,-13.1615 3.74219,-13.7292 3.38281,-13.9375 C3.02344,-14.1458 2.31771,-14.25 1.26563,-14.25 L1.26563,-15.5156 L6.45313,-15.9063 L6.45313,-2.40625 C6.45313,-1.90625 6.68229,-1.59115 7.14063,-1.46094 C7.59896,-1.33073 8.20833,-1.26563 8.96875,-1.26563 L8.96875,0 L1.10938,0 M2.64063,-22.0938 C2.64063,-22.625 2.83854,-23.0885 3.23438,-23.4844 C3.63021,-23.8802 4.08854,-24.0781 4.60938,-24.0781 C4.94271,-24.0781 5.26823,-23.9922 5.58594,-23.8203 C5.90365,-23.6484 6.15104,-23.4036 6.32813,-23.0859 C6.50521,-22.7682 6.59375,-22.4375 6.59375,-22.0938 C6.59375,-21.5833 6.39323,-21.1276 5.99219,-20.7266 C5.59115,-20.3255 5.13021,-20.125 4.60938,-20.125 C4.08854,-20.125 3.63021,-20.3255 3.23438,-20.7266 C2.83854,-21.1276 2.64063,-21.5833 2.64063,-22.0938 "/>
</g>

<g fill="#d9d9d9" fill-opacity="1" stroke="none" transform="matrix(0.75,0,0,0.75,322.785,529.1)"
font-family="MS Shell Dlg 2" font-size="8.25" font-weight="400" font-style="normal" 
>
<path vector-effect="none" fill-rule="evenodd" d="M1.07813,0 L1.07813,-1.26563 C1.89063,-1.26563 2.5625,-1.33073 3.09375,-1.46094 C3.625,-1.59115 3.89063,-1.90625 3.89063,-2.40625 L3.89063,-12.2344 C3.89063,-12.8802 3.79427,-13.3464 3.60156,-13.6328 C3.40885,-13.9193 3.13021,-14.0938 2.76563,-14.1563 C2.40104,-14.2188 1.83854,-14.25 1.07813,-14.25 L1.07813,-15.5156 L6.29688,-15.9063 L6.29688,-12.3906 C6.77604,-13.4219 7.48698,-14.2656 8.42969,-14.9219 C9.3724,-15.5781 10.401,-15.9063 11.5156,-15.9063 C14.276,-15.9063 15.901,-14.7813 16.3906,-12.5313 C16.8698,-13.5417 17.5703,-14.3568 18.4922,-14.9766 C19.4141,-15.5964 20.4271,-15.9063 21.5313,-15.9063 C22.625,-15.9063 23.5443,-15.7318 24.2891,-15.3828 C25.0339,-15.0339 25.5938,-14.4974 25.9688,-13.7734 C26.3438,-13.0495 26.5313,-12.1458 26.5313,-11.0625 L26.5313,-2.40625 C26.5313,-1.90625 26.7969,-1.59115 27.3281,-1.46094 C27.8594,-1.33073 28.5313,-1.26563 29.3438,-1.26563 L29.3438,0 L21.0938,0 L21.0938,-1.26563 C21.9167,-1.26563 22.5911,-1.33073 23.1172,-1.46094 C23.6432,-1.59115 23.9063,-1.90625 23.9063,-2.40625 L23.9063,-10.9531 C23.9063,-12.1615 23.737,-13.1354 23.3984,-13.875 C23.0599,-14.6146 22.3646,-14.9844 21.3125,-14.9844 C19.9271,-14.9844 18.7839,-14.4271 17.8828,-13.3125 C16.9818,-12.1979 16.5313,-10.9323 16.5313,-9.51563 L16.5313,-2.40625 C16.5313,-1.90625 16.7943,-1.59115 17.3203,-1.46094 C17.8464,-1.33073 18.5208,-1.26563 19.3438,-1.26563 L19.3438,0 L11.0938,0 L11.0938,-1.26563 C11.9167,-1.26563 12.5911,-1.33073 13.1172,-1.46094 C13.6432,-1.59115 13.9063,-1.90625 13.9063,-2.40625 L13.9063,-10.9531 C13.9063,-12.1198 13.737,-13.0833 13.3984,-13.8438 C13.0599,-14.6042 12.3594,-14.9844 11.2969,-14.9844 C9.91146,-14.9844 8.76823,-14.4271 7.86719,-13.3125 C6.96615,-12.1979 6.51563,-10.9323 6.51563,-9.51563 L6.51563,-2.40625 C6.51563,-1.90625 6.78125,-1.59115 7.3125,-1.46094 C7.84375,-1.33073 8.51042,-1.26563 9.3125,-1.26563 L9.3125,0 L1.07813,0"/>
</g>

<g fill="#d9d9d9" fill-opacity="1" stroke="none" transform="matrix(0.75,0,0,0.75,345.701,529.1)"
font-family="MS Shell Dlg 2" font-size="8.25" font-weight="400" font-style="normal" 
>
<path vector-effect="none" fill-rule="evenodd" d="M8.96875,0.40625 C7.5,0.40625 6.15365,0.0208333 4.92969,-0.75 C3.70573,-1.52083 2.74479,-2.54688 2.04688,-3.82813 C1.34896,-5.10938 1,-6.46354 1,-7.89063 C1,-9.29688 1.32031,-10.6328 1.96094,-11.8984 C2.60156,-13.1641 3.49219,-14.1875 4.63281,-14.9688 C5.77344,-15.75 7.04688,-16.1406 8.45313,-16.1406 C9.55729,-16.1406 10.5156,-15.9557 11.3281,-15.5859 C12.1406,-15.2161 12.8125,-14.7031 13.3438,-14.0469 C13.875,-13.3906 14.2734,-12.6172 14.5391,-11.7266 C14.8047,-10.8359 14.9375,-9.85938 14.9375,-8.79688 C14.9375,-8.47396 14.8177,-8.3125 14.5781,-8.3125 L4.15625,-8.3125 L4.15625,-7.92188 C4.15625,-5.94271 4.55729,-4.23958 5.35938,-2.8125 C6.16146,-1.38542 7.46875,-0.671875 9.28125,-0.671875 C10.0208,-0.671875 10.7031,-0.835938 11.3281,-1.16406 C11.9531,-1.49219 12.4974,-1.94792 12.9609,-2.53125 C13.4245,-3.11458 13.7396,-3.73958 13.9063,-4.40625 C13.9271,-4.48958 13.9714,-4.5625 14.0391,-4.625 C14.1068,-4.6875 14.1771,-4.71875 14.25,-4.71875 L14.5781,-4.71875 C14.8177,-4.71875 14.9375,-4.56771 14.9375,-4.26563 C14.6042,-2.90104 13.875,-1.78125 12.75,-0.90625 C11.625,-0.03125 10.3646,0.40625 8.96875,0.40625 M4.1875,-9.21875 L12.3906,-9.21875 C12.3906,-10.1146 12.2656,-11.0234 12.0156,-11.9453 C11.7656,-12.8672 11.3464,-13.6354 10.7578,-14.25 C10.1693,-14.8646 9.40104,-15.1719 8.45313,-15.1719 C7.09896,-15.1719 6.04948,-14.5365 5.30469,-13.2656 C4.5599,-11.9948 4.1875,-10.6458 4.1875,-9.21875 "/>
</g>

<g fill="#d9d9d9" fill-opacity="1" stroke="none" transform="matrix(0.75,0,0,0.75,367.09,529.1)"
font-family="MS Shell Dlg 2" font-size="8.25" font-weight="400" font-style="normal" 
>
<path vector-effect="none" fill-rule="evenodd" d="M4.25,9 L4.25,-27 L9.17188,-27 L9.17188,-25.5625 L5.70313,-25.5625 L5.70313,7.5625 L9.17188,7.5625 L9.17188,9 L4.25,9"/>
</g>

<g fill="#d9d9d9" fill-opacity="1" stroke="none" transform="matrix(0.75,0,0,0.75,374.729,529.1)"
font-family="MS Shell Dlg 2" font-size="8.25" font-weight="400" font-style="normal" 
>
<path vector-effect="none" fill-rule="evenodd" d="M1.20313,0.109375 L1.20313,-5.78125 C1.20313,-5.96875 1.30729,-6.0625 1.51563,-6.0625 L1.95313,-6.0625 C2.08854,-6.0625 2.18229,-5.96875 2.23438,-5.78125 C2.90104,-2.30208 4.51563,-0.5625 7.07813,-0.5625 C8.22396,-0.5625 9.17969,-0.820313 9.94531,-1.33594 C10.7109,-1.85156 11.0938,-2.65104 11.0938,-3.73438 C11.0938,-4.50521 10.7943,-5.16146 10.1953,-5.70313 C9.59635,-6.24479 8.88542,-6.61979 8.0625,-6.82813 L5.65625,-7.29688 C4.85417,-7.47396 4.1224,-7.74219 3.46094,-8.10156 C2.79948,-8.46094 2.25781,-8.94271 1.83594,-9.54688 C1.41406,-10.151 1.20313,-10.849 1.20313,-11.6406 C1.20313,-12.6927 1.47917,-13.5547 2.03125,-14.2266 C2.58333,-14.8984 3.30469,-15.3854 4.19531,-15.6875 C5.08594,-15.9896 6.04688,-16.1406 7.07813,-16.1406 C8.31771,-16.1406 9.39063,-15.8177 10.2969,-15.1719 L11.3438,-16.0469 C11.3438,-16.1094 11.401,-16.1406 11.5156,-16.1406 L11.7813,-16.1406 C11.8542,-16.1406 11.9193,-16.1068 11.9766,-16.0391 C12.0339,-15.9714 12.0625,-15.9063 12.0625,-15.8438 L12.0625,-11.1406 C12.0625,-10.9219 11.9688,-10.8125 11.7813,-10.8125 L11.3438,-10.8125 C11.125,-10.8125 11.0156,-10.9219 11.0156,-11.1406 C11.0156,-12.401 10.6693,-13.4115 9.97656,-14.1719 C9.28385,-14.9323 8.30729,-15.3125 7.04688,-15.3125 C5.97396,-15.3125 5.04167,-15.112 4.25,-14.7109 C3.45833,-14.3099 3.0625,-13.625 3.0625,-12.6563 C3.0625,-11.9896 3.34635,-11.4427 3.91406,-11.0156 C4.48177,-10.5885 5.14583,-10.2813 5.90625,-10.0938 L8.34375,-9.64063 C9.16667,-9.44271 9.93229,-9.1224 10.6406,-8.67969 C11.349,-8.23698 11.9115,-7.67448 12.3281,-6.99219 C12.7448,-6.3099 12.9531,-5.54167 12.9531,-4.6875 C12.9531,-3.8125 12.8047,-3.05729 12.5078,-2.42188 C12.2109,-1.78646 11.7943,-1.25521 11.2578,-0.828125 C10.7214,-0.401042 10.0911,-0.0885417 9.36719,0.109375 C8.64323,0.307292 7.88021,0.40625 7.07813,0.40625 C5.57813,0.40625 4.29688,-0.104167 3.23438,-1.125 L1.92188,0.3125 C1.92188,0.375 1.85417,0.40625 1.71875,0.40625 L1.51563,0.40625 C1.30729,0.40625 1.20313,0.307292 1.20313,0.109375 "/>
</g>

<g fill="#d9d9d9" fill-opacity="1" stroke="none" transform="matrix(0.75,0,0,0.75,385.576,529.1)"
font-family="MS Shell Dlg 2" font-size="8.25" font-weight="400" font-style="normal" 
>
<path vector-effect="none" fill-rule="evenodd" d="M0.796875,9 L0.796875,7.5625 L4.29688,7.5625 L4.29688,-25.5625 L0.796875,-25.5625 L0.796875,-27 L5.73438,-27 L5.73438,9 L0.796875,9"/>
</g>

<g fill="#d9d9d9" fill-opacity="1" stroke="#d9d9d9" stroke-opacity="1" stroke-width="0.666667" stroke-linecap="square" stroke-linejoin="round" transform="matrix(0.75,0,0,0.75,0,0)"
font-family="MS Shell Dlg 2" font-size="8.25" font-weight="400" font-style="normal" 
>
<polyline fill="none" vector-effect="none" points="108,627 810,627 " />
<polyline fill="none" vector-effect="none" points="108,64 810,64 " />
<polyline fill="none" vector-effect="none" points="108,627 108,619.98 " />
<polyline fill="none" vector-effect="none" points="108,71.02 108,64 " />
<polyline fill="none" vector-effect="none" points="264,627 264,619.98 " />
<polyline fill="none" vector-effect="none" points="264,71.02 264,64 " />
<polyline fill="none" vector-effect="none" points="420,627 420,619.98 " />
<polyline fill="none" vector-effect="none" points="420,71.02 420,64 " />
<polyline fill="none" vector-effect="none" points="576,627 576,619.98 " />
<polyline fill="none" vector-effect="none" points="576,71.02 576,64 " />
<polyline fill="none" vector-effect="none" points="732,627 732,619.98 " />
<polyline fill="none" vector-effect="none" points="732,71.02 732,64 " />
</g>

<g fill="#d9d9d9" fill-opacity="1" stroke="none" transform="matrix(0.75,0,0,0.75,74.25,499.75)"
font-family="MS Shell Dlg 2" font-size="8.25" font-weight="400" font-style="normal" 
>
<path vector-effect="none" fill-rule="evenodd" d="M1.375,-11.6563 C1.375,-14.4479 1.66146,-16.6953 2.23438,-18.3984 C2.80729,-20.1016 3.66146,-21.4141 4.79688,-22.3359 C5.93229,-23.2578 7.35938,-23.7188 9.07813,-23.7188 C10.3385,-23.7188 11.4479,-23.4635 12.4063,-22.9531 C13.3646,-22.4427 14.1536,-21.7057 14.7734,-20.7422 C15.3932,-19.7786 15.8828,-18.6068 16.2422,-17.2266 C16.6016,-15.8464 16.7813,-13.9896 16.7813,-11.6563 C16.7813,-8.88542 16.4948,-6.64844 15.9219,-4.94531 C15.349,-3.24219 14.4974,-1.92448 13.3672,-0.992188 C12.237,-0.0598958 10.8073,0.40625 9.07813,0.40625 C6.79688,0.40625 5.00521,-0.411458 3.70313,-2.04688 C2.15104,-4.01563 1.375,-7.21875 1.375,-11.6563 M4.34375,-11.6563 C4.34375,-7.77083 4.79948,-5.1875 5.71094,-3.90625 C6.6224,-2.625 7.74479,-1.98438 9.07813,-1.98438 C10.401,-1.98438 11.5182,-2.6276 12.4297,-3.91406 C13.3411,-5.20052 13.7969,-7.78125 13.7969,-11.6563 C13.7969,-15.5417 13.3411,-18.1224 12.4297,-19.3984 C11.5182,-20.6745 10.3906,-21.3125 9.04688,-21.3125 C7.71354,-21.3125 6.64583,-20.75 5.84375,-19.625 C4.84375,-18.1875 4.34375,-15.5313 4.34375,-11.6563 "/>
</g>

<g fill="#d9d9d9" fill-opacity="1" stroke="none" transform="matrix(0.75,0,0,0.75,184.5,499.75)"
font-family="MS Shell Dlg 2" font-size="8.25" font-weight="400" font-style="normal" 
>
<path vector-effect="none" fill-rule="evenodd" d="M16.6094,-2.78125 L16.6094,0 L1,0 C0.979167,-0.697917 1.09375,-1.36979 1.34375,-2.01563 C1.73958,-3.07813 2.375,-4.125 3.25,-5.15625 C4.125,-6.1875 5.39063,-7.38021 7.04688,-8.73438 C9.60938,-10.8385 11.3411,-12.5052 12.2422,-13.7344 C13.1432,-14.9635 13.5938,-16.125 13.5938,-17.2188 C13.5938,-18.375 13.1849,-19.3464 12.3672,-20.1328 C11.5495,-20.9193 10.4792,-21.3125 9.15625,-21.3125 C7.76042,-21.3125 6.64323,-20.8932 5.80469,-20.0547 C4.96615,-19.2161 4.54167,-18.0573 4.53125,-16.5781 L1.54688,-16.8906 C1.75521,-19.1094 2.52344,-20.8021 3.85156,-21.9688 C5.17969,-23.1354 6.96875,-23.7188 9.21875,-23.7188 C11.4792,-23.7188 13.2708,-23.0911 14.5938,-21.8359 C15.9167,-20.5807 16.5781,-19.0208 16.5781,-17.1563 C16.5781,-16.2188 16.3854,-15.2917 16,-14.375 C15.6146,-13.4583 14.974,-12.4948 14.0781,-11.4844 C13.1823,-10.474 11.6927,-9.08854 9.60938,-7.32813 C7.86979,-5.86979 6.7526,-4.88021 6.25781,-4.35938 C5.76302,-3.83854 5.35417,-3.3125 5.03125,-2.78125 L16.6094,-2.78125 M19.375,-11.6563 C19.375,-14.4479 19.6615,-16.6953 20.2344,-18.3984 C20.8073,-20.1016 21.6615,-21.4141 22.7969,-22.3359 C23.9323,-23.2578 25.3594,-23.7188 27.0781,-23.7188 C28.3385,-23.7188 29.4479,-23.4635 30.4063,-22.9531 C31.3646,-22.4427 32.1536,-21.7057 32.7734,-20.7422 C33.3932,-19.7786 33.8828,-18.6068 34.2422,-17.2266 C34.6016,-15.8464 34.7813,-13.9896 34.7813,-11.6563 C34.7813,-8.88542 34.4948,-6.64844 33.9219,-4.94531 C33.349,-3.24219 32.4974,-1.92448 31.3672,-0.992188 C30.237,-0.0598958 28.8073,0.40625 27.0781,0.40625 C24.7969,0.40625 23.0052,-0.411458 21.7031,-2.04688 C20.151,-4.01563 19.375,-7.21875 19.375,-11.6563 M22.3438,-11.6563 C22.3438,-7.77083 22.7995,-5.1875 23.7109,-3.90625 C24.6224,-2.625 25.7448,-1.98438 27.0781,-1.98438 C28.401,-1.98438 29.5182,-2.6276 30.4297,-3.91406 C31.3411,-5.20052 31.7969,-7.78125 31.7969,-11.6563 C31.7969,-15.5417 31.3411,-18.1224 30.4297,-19.3984 C29.5182,-20.6745 28.3906,-21.3125 27.0469,-21.3125 C25.7135,-21.3125 24.6458,-20.75 23.8438,-19.625 C22.8438,-18.1875 22.3438,-15.5313 22.3438,-11.6563 "/>
</g>

<g fill="#d9d9d9" fill-opacity="1" stroke="none" transform="matrix(0.75,0,0,0.75,301.5,499.75)"
font-family="MS Shell Dlg 2" font-size="8.25" font-weight="400" font-style="normal" 
>
<path vector-effect="none" fill-rule="evenodd" d="M10.6719,0 L10.6719,-5.65625 L0.421875,-5.65625 L0.421875,-8.3125 L11.2031,-23.625 L13.5625,-23.625 L13.5625,-8.3125 L16.7656,-8.3125 L16.7656,-5.65625 L13.5625,-5.65625 L13.5625,0 L10.6719,0 M10.6719,-8.3125 L10.6719,-18.9688 L3.26563,-8.3125 L10.6719,-8.3125 M19.375,-11.6563 C19.375,-14.4479 19.6615,-16.6953 20.2344,-18.3984 C20.8073,-20.1016 21.6615,-21.4141 22.7969,-22.3359 C23.9323,-23.2578 25.3594,-23.7188 27.0781,-23.7188 C28.3385,-23.7188 29.4479,-23.4635 30.4063,-22.9531 C31.3646,-22.4427 32.1536,-21.7057 32.7734,-20.7422 C33.3932,-19.7786 33.8828,-18.6068 34.2422,-17.2266 C34.6016,-15.8464 34.7813,-13.9896 34.7813,-11.6563 C34.7813,-8.88542 34.4948,-6.64844 33.9219,-4.94531 C33.349,-3.24219 32.4974,-1.92448 31.3672,-0.992188 C30.237,-0.0598958 28.8073,0.40625 27.0781,0.40625 C24.7969,0.40625 23.0052,-0.411458 21.7031,-2.04688 C20.151,-4.01563 19.375,-7.21875 19.375,-11.6563 M22.3438,-11.6563 C22.3438,-7.77083 22.7995,-5.1875 23.7109,-3.90625 C24.6224,-2.625 25.7448,-1.98438 27.0781,-1.98438 C28.401,-1.98438 29.5182,-2.6276 30.4297,-3.91406 C31.3411,-5.20052 31.7969,-7.78125 31.7969,-11.6563 C31.7969,-15.5417 31.3411,-18.1224 30.4297,-19.3984 C29.5182,-20.6745 28.3906,-21.3125 27.0469,-21.3125 C25.7135,-21.3125 24.6458,-20.75 23.8438,-19.625 C22.8438,-18.1875 22.3438,-15.5313 22.3438,-11.6563 "/>
</g>

<g fill="#d9d9d9" fill-opacity="1" stroke="none" transform="matrix(0.75,0,0,0.75,418.5,499.75)"
font-family="MS Shell Dlg 2" font-size="8.25" font-weight="400" font-style="normal" 
>
<path vector-effect="none" fill-rule="evenodd" d="M16.4219,-17.8438 L13.5313,-17.6094 C13.2813,-18.7448 12.9167,-19.5729 12.4375,-20.0938 C11.6563,-20.9167 10.6927,-21.3281 9.54688,-21.3281 C8.61979,-21.3281 7.80729,-21.0729 7.10938,-20.5625 C6.19271,-19.8958 5.47135,-18.9245 4.94531,-17.6484 C4.41927,-16.3724 4.14583,-14.5521 4.125,-12.1875 C4.82292,-13.25 5.67708,-14.0391 6.6875,-14.5547 C7.69792,-15.0703 8.75521,-15.3281 9.85938,-15.3281 C11.7969,-15.3281 13.4453,-14.6146 14.8047,-13.1875 C16.1641,-11.7604 16.8438,-9.92188 16.8438,-7.67188 C16.8438,-6.19271 16.5234,-4.8151 15.8828,-3.53906 C15.2422,-2.26302 14.362,-1.28646 13.2422,-0.609375 C12.1224,0.0677083 10.8542,0.40625 9.4375,0.40625 C7.02083,0.40625 5.04948,-0.484375 3.52344,-2.26563 C1.9974,-4.04688 1.23438,-6.97396 1.23438,-11.0469 C1.23438,-15.6198 2.07813,-18.9427 3.76563,-21.0156 C5.24479,-22.8177 7.22917,-23.7188 9.71875,-23.7188 C11.5729,-23.7188 13.0938,-23.1979 14.2813,-22.1563 C15.4688,-21.1146 16.1823,-19.6771 16.4219,-17.8438 M4.57813,-7.65625 C4.57813,-6.65625 4.78906,-5.70052 5.21094,-4.78906 C5.63281,-3.8776 6.22656,-3.18229 6.99219,-2.70313 C7.75781,-2.22396 8.55729,-1.98438 9.39063,-1.98438 C10.6198,-1.98438 11.6745,-2.47917 12.5547,-3.46875 C13.4349,-4.45833 13.875,-5.80208 13.875,-7.5 C13.875,-9.125 13.4401,-10.4089 12.5703,-11.3516 C11.7005,-12.2943 10.6042,-12.7656 9.28125,-12.7656 C7.96875,-12.7656 6.85677,-12.2943 5.94531,-11.3516 C5.03385,-10.4089 4.57813,-9.17708 4.57813,-7.65625 M19.375,-11.6563 C19.375,-14.4479 19.6615,-16.6953 20.2344,-18.3984 C20.8073,-20.1016 21.6615,-21.4141 22.7969,-22.3359 C23.9323,-23.2578 25.3594,-23.7188 27.0781,-23.7188 C28.3385,-23.7188 29.4479,-23.4635 30.4063,-22.9531 C31.3646,-22.4427 32.1536,-21.7057 32.7734,-20.7422 C33.3932,-19.7786 33.8828,-18.6068 34.2422,-17.2266 C34.6016,-15.8464 34.7813,-13.9896 34.7813,-11.6563 C34.7813,-8.88542 34.4948,-6.64844 33.9219,-4.94531 C33.349,-3.24219 32.4974,-1.92448 31.3672,-0.992188 C30.237,-0.0598958 28.8073,0.40625 27.0781,0.40625 C24.7969,0.40625 23.0052,-0.411458 21.7031,-2.04688 C20.151,-4.01563 19.375,-7.21875 19.375,-11.6563 M22.3438,-11.6563 C22.3438,-7.77083 22.7995,-5.1875 23.7109,-3.90625 C24.6224,-2.625 25.7448,-1.98438 27.0781,-1.98438 C28.401,-1.98438 29.5182,-2.6276 30.4297,-3.91406 C31.3411,-5.20052 31.7969,-7.78125 31.7969,-11.6563 C31.7969,-15.5417 31.3411,-18.1224 30.4297,-19.3984 C29.5182,-20.6745 28.3906,-21.3125 27.0469,-21.3125 C25.7135,-21.3125 24.6458,-20.75 23.8438,-19.625 C22.8438,-18.1875 22.3438,-15.5313 22.3438,-11.6563 "/>
</g>

<g fill="#d9d9d9" fill-opacity="1" stroke="none" transform="matrix(0.75,0,0,0.75,535.5,499.75)"
font-family="MS Shell Dlg 2" font-size="8.25" font-weight="400" font-style="normal" 
>
<path vector-effect="none" fill-rule="evenodd" d="M5.82813,-12.8125 C4.63021,-13.25 3.73958,-13.8776 3.15625,-14.6953 C2.57292,-15.513 2.28125,-16.4896 2.28125,-17.625 C2.28125,-19.3438 2.90104,-20.7891 4.14063,-21.9609 C5.38021,-23.1328 7.02604,-23.7188 9.07813,-23.7188 C11.1406,-23.7188 12.7995,-23.1198 14.0547,-21.9219 C15.3099,-20.724 15.9375,-19.2656 15.9375,-17.5469 C15.9375,-16.4531 15.651,-15.5 15.0781,-14.6875 C14.5052,-13.875 13.6302,-13.25 12.4531,-12.8125 C13.901,-12.3333 15.0052,-11.5677 15.7656,-10.5156 C16.526,-9.46354 16.9063,-8.20833 16.9063,-6.75 C16.9063,-4.72917 16.1901,-3.03125 14.7578,-1.65625 C13.3255,-0.28125 11.4479,0.40625 9.125,0.40625 C6.79167,0.40625 4.91146,-0.283854 3.48438,-1.66406 C2.05729,-3.04427 1.34375,-4.76563 1.34375,-6.82813 C1.34375,-8.36979 1.73177,-9.65885 2.50781,-10.6953 C3.28385,-11.7318 4.39063,-12.4375 5.82813,-12.8125 M5.25,-17.7188 C5.25,-16.6042 5.60938,-15.6927 6.32813,-14.9844 C7.04688,-14.276 7.98438,-13.9219 9.14063,-13.9219 C10.2552,-13.9219 11.1693,-14.2734 11.8828,-14.9766 C12.5964,-15.6797 12.9531,-16.5417 12.9531,-17.5625 C12.9531,-18.625 12.5859,-19.5182 11.8516,-20.2422 C11.1172,-20.9661 10.2031,-21.3281 9.10938,-21.3281 C7.99479,-21.3281 7.07292,-20.974 6.34375,-20.2656 C5.61458,-19.5573 5.25,-18.7083 5.25,-17.7188 M4.3125,-6.8125 C4.3125,-5.98958 4.51042,-5.1901 4.90625,-4.41406 C5.30208,-3.63802 5.88542,-3.03906 6.65625,-2.61719 C7.42708,-2.19531 8.26042,-1.98438 9.15625,-1.98438 C10.5417,-1.98438 11.6849,-2.42969 12.5859,-3.32031 C13.487,-4.21094 13.9375,-5.34375 13.9375,-6.71875 C13.9375,-8.11458 13.474,-9.26823 12.5469,-10.1797 C11.6198,-11.0911 10.4583,-11.5469 9.0625,-11.5469 C7.69792,-11.5469 6.5651,-11.0964 5.66406,-10.1953 C4.76302,-9.29427 4.3125,-8.16667 4.3125,-6.8125 M19.375,-11.6563 C19.375,-14.4479 19.6615,-16.6953 20.2344,-18.3984 C20.8073,-20.1016 21.6615,-21.4141 22.7969,-22.3359 C23.9323,-23.2578 25.3594,-23.7188 27.0781,-23.7188 C28.3385,-23.7188 29.4479,-23.4635 30.4063,-22.9531 C31.3646,-22.4427 32.1536,-21.7057 32.7734,-20.7422 C33.3932,-19.7786 33.8828,-18.6068 34.2422,-17.2266 C34.6016,-15.8464 34.7813,-13.9896 34.7813,-11.6563 C34.7813,-8.88542 34.4948,-6.64844 33.9219,-4.94531 C33.349,-3.24219 32.4974,-1.92448 31.3672,-0.992188 C30.237,-0.0598958 28.8073,0.40625 27.0781,0.40625 C24.7969,0.40625 23.0052,-0.411458 21.7031,-2.04688 C20.151,-4.01563 19.375,-7.21875 19.375,-11.6563 M22.3438,-11.6563 C22.3438,-7.77083 22.7995,-5.1875 23.7109,-3.90625 C24.6224,-2.625 25.7448,-1.98438 27.0781,-1.98438 C28.401,-1.98438 29.5182,-2.6276 30.4297,-3.91406 C31.3411,-5.20052 31.7969,-7.78125 31.7969,-11.6563 C31.7969,-15.5417 31.3411,-18.1224 30.4297,-19.3984 C29.5182,-20.6745 28.3906,-21.3125 27.0469,-21.3125 C25.7135,-21.3125 24.6458,-20.75 23.8438,-19.625 C22.8438,-18.1875 22.3438,-15.5313 22.3438,-11.6563 "/>
</g>

<g fill="#d9d9d9" fill-opacity="1" stroke="#d9d9d9" stroke-opacity="1" stroke-width="0.666667" stroke-linecap="square" stroke-linejoin="round" transform="matrix(0.75,0,0,0.75,0,0)"
font-family="MS Shell Dlg 2" font-size="8.25" font-weight="400" font-style="normal" 
>
<polyline fill="none" vector-effect="none" points="108,627 108,64 " />
<polyline fill="none" vector-effect="none" points="810,627 810,64 " />
<polyline fill="none" vector-effect="none" points="108,627 115.02,627 " />
<polyline fill="none" vector-effect="none" points="108,522.89 115.02,522.89 " />
<polyline fill="none" vector-effect="none" points="108,418.779 115.02,418.779 " />
<polyline fill="none" vector-effect="none" points="108,314.669 115.02,314.669 " />
<polyline fill="none" vector-effect="none" points="108,210.559 115.02,210.559 " />
<polyline fill="none" vector-effect="none" points="108,106.449 115.02,106.449 " />
<polyline fill="none" vector-effect="none" points="810,627 802.98,627 " />
<polyline fill="none" vector-effect="none" points="810,522.89 802.98,522.89 " />
<polyline fill="none" vector-effect="none" points="810,418.779 802.98,418.779 " />
<polyline fill="none" vector-effect="none" points="810,314.669 802.98,314.669 " />
<polyline fill="none" vector-effect="none" points="810,210.559 802.98,210.559 " />
<polyline fill="none" vector-effect="none" points="810,106.449 802.98,106.449 " />
</g>

<g fill="#d9d9d9" fill-opacity="1" stroke="none" transform="matrix(0.75,0,0,0.75,60.5,478.875)"
font-family="MS Shell Dlg 2" font-size="8.25" font-weight="400" font-style="normal" 
>
<path vector-effect="none" fill-rule="evenodd" d="M1.375,-11.6563 C1.375,-14.4479 1.66146,-16.6953 2.23438,-18.3984 C2.80729,-20.1016 3.66146,-21.4141 4.79688,-22.3359 C5.93229,-23.2578 7.35938,-23.7188 9.07813,-23.7188 C10.3385,-23.7188 11.4479,-23.4635 12.4063,-22.9531 C13.3646,-22.4427 14.1536,-21.7057 14.7734,-20.7422 C15.3932,-19.7786 15.8828,-18.6068 16.2422,-17.2266 C16.6016,-15.8464 16.7813,-13.9896 16.7813,-11.6563 C16.7813,-8.88542 16.4948,-6.64844 15.9219,-4.94531 C15.349,-3.24219 14.4974,-1.92448 13.3672,-0.992188 C12.237,-0.0598958 10.8073,0.40625 9.07813,0.40625 C6.79688,0.40625 5.00521,-0.411458 3.70313,-2.04688 C2.15104,-4.01563 1.375,-7.21875 1.375,-11.6563 M4.34375,-11.6563 C4.34375,-7.77083 4.79948,-5.1875 5.71094,-3.90625 C6.6224,-2.625 7.74479,-1.98438 9.07813,-1.98438 C10.401,-1.98438 11.5182,-2.6276 12.4297,-3.91406 C13.3411,-5.20052 13.7969,-7.78125 13.7969,-11.6563 C13.7969,-15.5417 13.3411,-18.1224 12.4297,-19.3984 C11.5182,-20.6745 10.3906,-21.3125 9.04688,-21.3125 C7.71354,-21.3125 6.64583,-20.75 5.84375,-19.625 C4.84375,-18.1875 4.34375,-15.5313 4.34375,-11.6563 "/>
</g>

<g fill="#d9d9d9" fill-opacity="1" stroke="none" transform="matrix(0.75,0,0,0.75,60.5,400.792)"
font-family="MS Shell Dlg 2" font-size="8.25" font-weight="400" font-style="normal" 
>
<path vector-effect="none" fill-rule="evenodd" d="M12.2969,0 L9.39063,0 L9.39063,-18.4844 C8.69271,-17.8177 7.77865,-17.151 6.64844,-16.4844 C5.51823,-15.8177 4.5,-15.3177 3.59375,-14.9844 L3.59375,-17.7969 C5.21875,-18.5573 6.63802,-19.4792 7.85156,-20.5625 C9.0651,-21.6458 9.92188,-22.6979 10.4219,-23.7188 L12.2969,-23.7188 L12.2969,0"/>
</g>

<g fill="#d9d9d9" fill-opacity="1" stroke="none" transform="matrix(0.75,0,0,0.75,60.5,322.71)"
font-family="MS Shell Dlg 2" font-size="8.25" font-weight="400" font-style="normal" 
>
<path vector-effect="none" fill-rule="evenodd" d="M16.6094,-2.78125 L16.6094,0 L1,0 C0.979167,-0.697917 1.09375,-1.36979 1.34375,-2.01563 C1.73958,-3.07813 2.375,-4.125 3.25,-5.15625 C4.125,-6.1875 5.39063,-7.38021 7.04688,-8.73438 C9.60938,-10.8385 11.3411,-12.5052 12.2422,-13.7344 C13.1432,-14.9635 13.5938,-16.125 13.5938,-17.2188 C13.5938,-18.375 13.1849,-19.3464 12.3672,-20.1328 C11.5495,-20.9193 10.4792,-21.3125 9.15625,-21.3125 C7.76042,-21.3125 6.64323,-20.8932 5.80469,-20.0547 C4.96615,-19.2161 4.54167,-18.0573 4.53125,-16.5781 L1.54688,-16.8906 C1.75521,-19.1094 2.52344,-20.8021 3.85156,-21.9688 C5.17969,-23.1354 6.96875,-23.7188 9.21875,-23.7188 C11.4792,-23.7188 13.2708,-23.0911 14.5938,-21.8359 C15.9167,-20.5807 16.5781,-19.0208 16.5781,-17.1563 C16.5781,-16.2188 16.3854,-15.2917 16,-14.375 C15.6146,-13.4583 14.974,-12.4948 14.0781,-11.4844 C13.1823,-10.474 11.6927,-9.08854 9.60938,-7.32813 C7.86979,-5.86979 6.7526,-4.88021 6.25781,-4.35938 C5.76302,-3.83854 5.35417,-3.3125 5.03125,-2.78125 L16.6094,-2.78125"/>
</g>

<g fill="#d9d9d9" fill-opacity="1" stroke="none" transform="matrix(0.75,0,0,0.75,60.5,244.627)"
font-family="MS Shell Dlg 2" font-size="8.25" font-weight="400" font-style="normal" 
>
<path vector-effect="none" fill-rule="evenodd" d="M1.39063,-6.23438 L4.28125,-6.625 C4.61458,-4.97917 5.18229,-3.79427 5.98438,-3.07031 C6.78646,-2.34635 7.76042,-1.98438 8.90625,-1.98438 C10.2708,-1.98438 11.4245,-2.45573 12.3672,-3.39844 C13.3099,-4.34115 13.7813,-5.51042 13.7813,-6.90625 C13.7813,-8.23958 13.3464,-9.33854 12.4766,-10.2031 C11.6068,-11.0677 10.5,-11.5 9.15625,-11.5 C8.60417,-11.5 7.92188,-11.3958 7.10938,-11.1875 L7.42188,-13.7344 C7.61979,-13.7135 7.77604,-13.7031 7.89063,-13.7031 C9.13021,-13.7031 10.2448,-14.0234 11.2344,-14.6641 C12.224,-15.3047 12.7188,-16.2969 12.7188,-17.6406 C12.7188,-18.7031 12.3568,-19.5833 11.6328,-20.2813 C10.9089,-20.9792 9.97917,-21.3281 8.84375,-21.3281 C7.71875,-21.3281 6.78125,-20.974 6.03125,-20.2656 C5.28125,-19.5573 4.79688,-18.4948 4.57813,-17.0781 L1.67188,-17.5938 C2.02604,-19.5417 2.83333,-21.0495 4.09375,-22.1172 C5.35417,-23.1849 6.91667,-23.7188 8.78125,-23.7188 C10.0729,-23.7188 11.2604,-23.4427 12.3438,-22.8906 C13.4271,-22.3385 14.2552,-21.5833 14.8281,-20.625 C15.401,-19.6667 15.6875,-18.651 15.6875,-17.5781 C15.6875,-16.5573 15.4141,-15.6276 14.8672,-14.7891 C14.3203,-13.9505 13.5104,-13.2865 12.4375,-12.7969 C13.8333,-12.474 14.9193,-11.8047 15.6953,-10.7891 C16.4714,-9.77344 16.8594,-8.50521 16.8594,-6.98438 C16.8594,-4.92188 16.1068,-3.17188 14.6016,-1.73438 C13.0964,-0.296875 11.1927,0.421875 8.89063,0.421875 C6.81771,0.421875 5.09635,-0.195313 3.72656,-1.42969 C2.35677,-2.66406 1.57813,-4.26563 1.39063,-6.23438 "/>
</g>

<g fill="#d9d9d9" fill-opacity="1" stroke="none" transform="matrix(0.75,0,0,0.75,60.5,166.544)"
font-family="MS Shell Dlg 2" font-size="8.25" font-weight="400" font-style="normal" 
>
<path vector-effect="none" fill-rule="evenodd" d="M10.6719,0 L10.6719,-5.65625 L0.421875,-5.65625 L0.421875,-8.3125 L11.2031,-23.625 L13.5625,-23.625 L13.5625,-8.3125 L16.7656,-8.3125 L16.7656,-5.65625 L13.5625,-5.65625 L13.5625,0 L10.6719,0 M10.6719,-8.3125 L10.6719,-18.9688 L3.26563,-8.3125 L10.6719,-8.3125"/>
</g>

<g fill="#d9d9d9" fill-opacity="1" stroke="none" transform="matrix(0.75,0,0,0.75,60.5,88.4615)"
font-family="MS Shell Dlg 2" font-size="8.25" font-weight="400" font-style="normal" 
>
<path vector-effect="none" fill-rule="evenodd" d="M1.375,-6.1875 L4.42188,-6.45313 C4.64063,-4.96354 5.16146,-3.84635 5.98438,-3.10156 C6.80729,-2.35677 7.79688,-1.98438 8.95313,-1.98438 C10.349,-1.98438 11.5313,-2.51042 12.5,-3.5625 C13.4688,-4.61458 13.9531,-6.01042 13.9531,-7.75 C13.9531,-9.40625 13.4896,-10.7109 12.5625,-11.6641 C11.6354,-12.6172 10.4167,-13.0938 8.90625,-13.0938 C7.97917,-13.0938 7.13802,-12.8828 6.38281,-12.4609 C5.6276,-12.0391 5.03646,-11.4896 4.60938,-10.8125 L1.89063,-11.1719 L4.17188,-23.2969 L15.9219,-23.2969 L15.9219,-20.5313 L6.5,-20.5313 L5.21875,-14.1875 C6.63542,-15.1667 8.125,-15.6563 9.6875,-15.6563 C11.75,-15.6563 13.4896,-14.9427 14.9063,-13.5156 C16.3229,-12.0885 17.0313,-10.2552 17.0313,-8.01563 C17.0313,-5.86979 16.4063,-4.02083 15.1563,-2.46875 C13.6458,-0.552083 11.5781,0.40625 8.95313,0.40625 C6.80729,0.40625 5.05469,-0.195313 3.69531,-1.39844 C2.33594,-2.60156 1.5625,-4.19792 1.375,-6.1875 "/>
</g>

<g fill="#d9d9d9" fill-opacity="1" stroke="none" transform="matrix(0,-0.75,0.75,0,46.8499,402.545)"
font-family="MS Shell Dlg 2" font-size="8.25" font-weight="400" font-style="normal" 
>
<path vector-effect="none" fill-rule="evenodd" d="M8.20313,-3.84375 C9.02604,-2.80208 10.0521,-1.97917 11.2813,-1.375 C12.5104,-0.770833 13.7917,-0.46875 15.125,-0.46875 C16.2292,-0.46875 17.2578,-0.690104 18.2109,-1.13281 C19.1641,-1.57552 19.9948,-2.1901 20.7031,-2.97656 C21.4115,-3.76302 21.9557,-4.65365 22.3359,-5.64844 C22.7161,-6.64323 22.9063,-7.69271 22.9063,-8.79688 C22.9063,-8.98438 23.0104,-9.07813 23.2188,-9.07813 L23.6563,-9.07813 C23.8438,-9.07813 23.9375,-8.95833 23.9375,-8.71875 C23.9375,-7.46875 23.6979,-6.26042 23.2188,-5.09375 C22.7396,-3.92708 22.0599,-2.90104 21.1797,-2.01563 C20.2995,-1.13021 19.2891,-0.440104 18.1484,0.0546875 C17.0078,0.549479 15.8177,0.796875 14.5781,0.796875 C12.849,0.796875 11.2135,0.447917 9.67188,-0.25 C8.13021,-0.947917 6.78906,-1.90365 5.64844,-3.11719 C4.50781,-4.33073 3.61719,-5.73438 2.97656,-7.32813 C2.33594,-8.92188 2.01563,-10.5833 2.01563,-12.3125 C2.01563,-14.0313 2.33594,-15.6875 2.97656,-17.2813 C3.61719,-18.875 4.50781,-20.2813 5.64844,-21.5 C6.78906,-22.7188 8.13021,-23.6719 9.67188,-24.3594 C11.2135,-25.0469 12.849,-25.3906 14.5781,-25.3906 C15.8073,-25.3906 16.9844,-25.1224 18.1094,-24.5859 C19.2344,-24.0495 20.2188,-23.2969 21.0625,-22.3281 L23.1563,-25.2813 C23.2917,-25.3542 23.3698,-25.3906 23.3906,-25.3906 L23.6563,-25.3906 C23.7292,-25.3906 23.7943,-25.3594 23.8516,-25.2969 C23.9089,-25.2344 23.9375,-25.1615 23.9375,-25.0781 L23.9375,-15.3594 C23.9375,-15.151 23.8438,-15.0469 23.6563,-15.0469 L23.0156,-15.0469 C22.7865,-15.0469 22.6719,-15.151 22.6719,-15.3594 C22.6719,-16.0573 22.5339,-16.8333 22.2578,-17.6875 C21.9818,-18.5417 21.6302,-19.3516 21.2031,-20.1172 C20.776,-20.8828 20.2813,-21.5625 19.7188,-22.1563 C18.375,-23.4688 16.8281,-24.125 15.0781,-24.125 C13.7552,-24.125 12.487,-23.8255 11.2734,-23.2266 C10.0599,-22.6276 9.03646,-21.8021 8.20313,-20.75 C7.32813,-19.625 6.72135,-18.3438 6.38281,-16.9063 C6.04427,-15.4688 5.875,-13.9375 5.875,-12.3125 C5.875,-10.6771 6.04427,-9.13802 6.38281,-7.69531 C6.72135,-6.2526 7.32813,-4.96875 8.20313,-3.84375 "/>
</g>

<g fill="#d9d9d9" fill-opacity="1" stroke="none" transform="matrix(0,-0.75,0.75,0,46.8499,382.684)"
font-family="MS Shell Dlg 2" font-size="8.25" font-weight="400" font-style="normal" 
>
<path vector-effect="none" fill-rule="evenodd" d="M9,0.40625 C7.5625,0.40625 6.22656,0.0390625 4.99219,-0.695313 C3.75781,-1.42969 2.78385,-2.41146 2.07031,-3.64063 C1.35677,-4.86979 1,-6.21354 1,-7.67188 C1,-8.76563 1.19792,-9.82292 1.59375,-10.8438 C1.98958,-11.8646 2.55208,-12.776 3.28125,-13.5781 C4.01042,-14.3802 4.86198,-15.0078 5.83594,-15.4609 C6.8099,-15.9141 7.86458,-16.1406 9,-16.1406 C10.4792,-16.1406 11.8255,-15.75 13.0391,-14.9688 C14.2526,-14.1875 15.2109,-13.1432 15.9141,-11.8359 C16.6172,-10.5286 16.9688,-9.14063 16.9688,-7.67188 C16.9688,-6.22396 16.6094,-4.88281 15.8906,-3.64844 C15.1719,-2.41406 14.2005,-1.42969 12.9766,-0.695313 C11.7526,0.0390625 10.4271,0.40625 9,0.40625 M9,-0.671875 C10.9271,-0.671875 12.2109,-1.36719 12.8516,-2.75781 C13.4922,-4.14844 13.8125,-5.91667 13.8125,-8.0625 C13.8125,-9.27083 13.75,-10.2682 13.625,-11.0547 C13.5,-11.8411 13.2188,-12.5573 12.7813,-13.2031 C12.5104,-13.599 12.1667,-13.9479 11.75,-14.25 C11.3333,-14.5521 10.8932,-14.7813 10.4297,-14.9375 C9.96615,-15.0938 9.48958,-15.1719 9,-15.1719 C8.25,-15.1719 7.53906,-15.0026 6.86719,-14.6641 C6.19531,-14.3255 5.63542,-13.8385 5.1875,-13.2031 C4.73958,-12.526 4.45573,-11.7813 4.33594,-10.9688 C4.21615,-10.1563 4.15625,-9.1875 4.15625,-8.0625 C4.15625,-6.71875 4.27344,-5.51302 4.50781,-4.44531 C4.74219,-3.3776 5.21354,-2.48177 5.92188,-1.75781 C6.63021,-1.03385 7.65625,-0.671875 9,-0.671875 "/>
</g>

<g fill="#d9d9d9" fill-opacity="1" stroke="none" transform="matrix(0,-0.75,0.75,0,46.8499,368.934)"
font-family="MS Shell Dlg 2" font-size="8.25" font-weight="400" font-style="normal" 
>
<path vector-effect="none" fill-rule="evenodd" d="M1.07813,0 L1.07813,-1.26563 C1.89063,-1.26563 2.5625,-1.33073 3.09375,-1.46094 C3.625,-1.59115 3.89063,-1.90625 3.89063,-2.40625 L3.89063,-12.2344 C3.89063,-12.8802 3.79427,-13.3464 3.60156,-13.6328 C3.40885,-13.9193 3.13021,-14.0938 2.76563,-14.1563 C2.40104,-14.2188 1.83854,-14.25 1.07813,-14.25 L1.07813,-15.5156 L6.29688,-15.9063 L6.29688,-12.3906 C6.77604,-13.4219 7.48698,-14.2656 8.42969,-14.9219 C9.3724,-15.5781 10.401,-15.9063 11.5156,-15.9063 C13.1823,-15.9063 14.4349,-15.5078 15.2734,-14.7109 C16.112,-13.9141 16.5313,-12.6979 16.5313,-11.0625 L16.5313,-2.40625 C16.5313,-1.90625 16.7943,-1.59115 17.3203,-1.46094 C17.8464,-1.33073 18.5208,-1.26563 19.3438,-1.26563 L19.3438,0 L11.0938,0 L11.0938,-1.26563 C11.9167,-1.26563 12.5911,-1.33073 13.1172,-1.46094 C13.6432,-1.59115 13.9063,-1.90625 13.9063,-2.40625 L13.9063,-10.9531 C13.9063,-12.1198 13.737,-13.0833 13.3984,-13.8438 C13.0599,-14.6042 12.3594,-14.9844 11.2969,-14.9844 C9.91146,-14.9844 8.76823,-14.4271 7.86719,-13.3125 C6.96615,-12.1979 6.51563,-10.9323 6.51563,-9.51563 L6.51563,-2.40625 C6.51563,-1.90625 6.78125,-1.59115 7.3125,-1.46094 C7.84375,-1.33073 8.51042,-1.26563 9.3125,-1.26563 L9.3125,0 L1.07813,0"/>
</g>

<g fill="#d9d9d9" fill-opacity="1" stroke="none" transform="matrix(0,-0.75,0.75,0,46.8499,353.656)"
font-family="MS Shell Dlg 2" font-size="8.25" font-weight="400" font-style="normal" 
>
<path vector-effect="none" fill-rule="evenodd" d="M8.96875,0.40625 C7.51042,0.40625 6.1901,0.0286458 5.00781,-0.726563 C3.82552,-1.48177 2.89583,-2.48958 2.21875,-3.75 C1.54167,-5.01042 1.20313,-6.34896 1.20313,-7.76563 C1.20313,-9.18229 1.53906,-10.5417 2.21094,-11.8438 C2.88281,-13.1458 3.8125,-14.1875 5,-14.9688 C6.1875,-15.75 7.51042,-16.1406 8.96875,-16.1406 C10.375,-16.1406 11.6536,-15.8646 12.8047,-15.3125 C13.9557,-14.7604 14.5313,-13.8542 14.5313,-12.5938 C14.5313,-12.125 14.3646,-11.7188 14.0313,-11.375 C13.6979,-11.0313 13.2917,-10.8594 12.8125,-10.8594 C12.3333,-10.8594 11.9271,-11.0313 11.5938,-11.375 C11.2604,-11.7188 11.0938,-12.125 11.0938,-12.5938 C11.0938,-13.0104 11.2292,-13.375 11.5,-13.6875 C11.7708,-14 12.1042,-14.1979 12.5,-14.2813 C11.6667,-14.8021 10.5,-15.0625 9,-15.0625 C7.85417,-15.0625 6.92969,-14.6823 6.22656,-13.9219 C5.52344,-13.1615 5.03125,-12.2214 4.75,-11.1016 C4.46875,-9.98177 4.32813,-8.86979 4.32813,-7.76563 C4.32813,-6.60938 4.5,-5.49219 4.84375,-4.41406 C5.1875,-3.33594 5.74479,-2.44271 6.51563,-1.73438 C7.28646,-1.02604 8.25,-0.671875 9.40625,-0.671875 C10.5417,-0.671875 11.5078,-1.01823 12.3047,-1.71094 C13.1016,-2.40365 13.6458,-3.3125 13.9375,-4.4375 C13.9375,-4.58333 14.0313,-4.65625 14.2188,-4.65625 L14.6563,-4.65625 C14.7292,-4.65625 14.7943,-4.6224 14.8516,-4.55469 C14.9089,-4.48698 14.9375,-4.41146 14.9375,-4.32813 L14.9375,-4.23438 C14.5729,-2.80729 13.8516,-1.67708 12.7734,-0.84375 C11.6953,-0.0104167 10.4271,0.40625 8.96875,0.40625 "/>
</g>

<g fill="#d9d9d9" fill-opacity="1" stroke="none" transform="matrix(0,-0.75,0.75,0,46.8499,341.434)"
font-family="MS Shell Dlg 2" font-size="8.25" font-weight="400" font-style="normal" 
>
<path vector-effect="none" fill-rule="evenodd" d="M8.96875,0.40625 C7.5,0.40625 6.15365,0.0208333 4.92969,-0.75 C3.70573,-1.52083 2.74479,-2.54688 2.04688,-3.82813 C1.34896,-5.10938 1,-6.46354 1,-7.89063 C1,-9.29688 1.32031,-10.6328 1.96094,-11.8984 C2.60156,-13.1641 3.49219,-14.1875 4.63281,-14.9688 C5.77344,-15.75 7.04688,-16.1406 8.45313,-16.1406 C9.55729,-16.1406 10.5156,-15.9557 11.3281,-15.5859 C12.1406,-15.2161 12.8125,-14.7031 13.3438,-14.0469 C13.875,-13.3906 14.2734,-12.6172 14.5391,-11.7266 C14.8047,-10.8359 14.9375,-9.85938 14.9375,-8.79688 C14.9375,-8.47396 14.8177,-8.3125 14.5781,-8.3125 L4.15625,-8.3125 L4.15625,-7.92188 C4.15625,-5.94271 4.55729,-4.23958 5.35938,-2.8125 C6.16146,-1.38542 7.46875,-0.671875 9.28125,-0.671875 C10.0208,-0.671875 10.7031,-0.835938 11.3281,-1.16406 C11.9531,-1.49219 12.4974,-1.94792 12.9609,-2.53125 C13.4245,-3.11458 13.7396,-3.73958 13.9063,-4.40625 C13.9271,-4.48958 13.9714,-4.5625 14.0391,-4.625 C14.1068,-4.6875 14.1771,-4.71875 14.25,-4.71875 L14.5781,-4.71875 C14.8177,-4.71875 14.9375,-4.56771 14.9375,-4.26563 C14.6042,-2.90104 13.875,-1.78125 12.75,-0.90625 C11.625,-0.03125 10.3646,0.40625 8.96875,0.40625 M4.1875,-9.21875 L12.3906,-9.21875 C12.3906,-10.1146 12.2656,-11.0234 12.0156,-11.9453 C11.7656,-12.8672 11.3464,-13.6354 10.7578,-14.25 C10.1693,-14.8646 9.40104,-15.1719 8.45313,-15.1719 C7.09896,-15.1719 6.04948,-14.5365 5.30469,-13.2656 C4.5599,-11.9948 4.1875,-10.6458 4.1875,-9.21875 "/>
</g>

<g fill="#d9d9d9" fill-opacity="1" stroke="none" transform="matrix(0,-0.75,0.75,0,46.8499,329.212)"
font-family="MS Shell Dlg 2" font-size="8.25" font-weight="400" font-style="normal" 
>
<path vector-effect="none" fill-rule="evenodd" d="M1.07813,0 L1.07813,-1.26563 C1.89063,-1.26563 2.5625,-1.33073 3.09375,-1.46094 C3.625,-1.59115 3.89063,-1.90625 3.89063,-2.40625 L3.89063,-12.2344 C3.89063,-12.8802 3.79427,-13.3464 3.60156,-13.6328 C3.40885,-13.9193 3.13021,-14.0938 2.76563,-14.1563 C2.40104,-14.2188 1.83854,-14.25 1.07813,-14.25 L1.07813,-15.5156 L6.29688,-15.9063 L6.29688,-12.3906 C6.77604,-13.4219 7.48698,-14.2656 8.42969,-14.9219 C9.3724,-15.5781 10.401,-15.9063 11.5156,-15.9063 C13.1823,-15.9063 14.4349,-15.5078 15.2734,-14.7109 C16.112,-13.9141 16.5313,-12.6979 16.5313,-11.0625 L16.5313,-2.40625 C16.5313,-1.90625 16.7943,-1.59115 17.3203,-1.46094 C17.8464,-1.33073 18.5208,-1.26563 19.3438,-1.26563 L19.3438,0 L11.0938,0 L11.0938,-1.26563 C11.9167,-1.26563 12.5911,-1.33073 13.1172,-1.46094 C13.6432,-1.59115 13.9063,-1.90625 13.9063,-2.40625 L13.9063,-10.9531 C13.9063,-12.1198 13.737,-13.0833 13.3984,-13.8438 C13.0599,-14.6042 12.3594,-14.9844 11.2969,-14.9844 C9.91146,-14.9844 8.76823,-14.4271 7.86719,-13.3125 C6.96615,-12.1979 6.51563,-10.9323 6.51563,-9.51563 L6.51563,-2.40625 C6.51563,-1.90625 6.78125,-1.59115 7.3125,-1.46094 C7.84375,-1.33073 8.51042,-1.26563 9.3125,-1.26563 L9.3125,0 L1.07813,0"/>
</g>

<g fill="#d9d9d9" fill-opacity="1" stroke="none" transform="matrix(0,-0.75,0.75,0,46.8499,314.698)"
font-family="MS Shell Dlg 2" font-size="8.25" font-weight="400" font-style="normal" 
>
<path vector-effect="none" fill-rule="evenodd" d="M3.67188,-4.32813 L3.67188,-14.25 L0.6875,-14.25 L0.6875,-15.1875 C2.26042,-15.1875 3.41406,-15.9193 4.14844,-17.3828 C4.88281,-18.8464 5.25,-20.4375 5.25,-22.1563 L6.29688,-22.1563 L6.29688,-15.5156 L11.375,-15.5156 L11.375,-14.25 L6.29688,-14.25 L6.29688,-4.40625 C6.29688,-3.41667 6.46354,-2.54688 6.79688,-1.79688 C7.13021,-1.04688 7.72917,-0.671875 8.59375,-0.671875 C9.41667,-0.671875 10.0104,-1.0651 10.375,-1.85156 C10.7396,-2.63802 10.9219,-3.48958 10.9219,-4.40625 L10.9219,-6.53125 L11.9531,-6.53125 L11.9531,-4.32813 C11.9531,-3.57813 11.8151,-2.83594 11.5391,-2.10156 C11.263,-1.36719 10.8568,-0.765625 10.3203,-0.296875 C9.78385,0.171875 9.125,0.40625 8.34375,0.40625 C6.90625,0.40625 5.76823,-0.0260417 4.92969,-0.890625 C4.09115,-1.75521 3.67188,-2.90104 3.67188,-4.32813 "/>
</g>

<g fill="#d9d9d9" fill-opacity="1" stroke="none" transform="matrix(0,-0.75,0.75,0,46.8499,304.004)"
font-family="MS Shell Dlg 2" font-size="8.25" font-weight="400" font-style="normal" 
>
<path vector-effect="none" fill-rule="evenodd" d="M0.9375,0 L0.9375,-1.26563 C1.75,-1.26563 2.42188,-1.33073 2.95313,-1.46094 C3.48438,-1.59115 3.75,-1.90625 3.75,-2.40625 L3.75,-12.2344 C3.75,-12.8802 3.65365,-13.3464 3.46094,-13.6328 C3.26823,-13.9193 2.98958,-14.0938 2.625,-14.1563 C2.26042,-14.2188 1.69792,-14.25 0.9375,-14.25 L0.9375,-15.5156 L6.07813,-15.9063 L6.07813,-12.3906 C6.46354,-13.4323 7.01563,-14.2786 7.73438,-14.9297 C8.45313,-15.5807 9.32292,-15.9063 10.3438,-15.9063 C11.0521,-15.9063 11.6875,-15.6953 12.25,-15.2734 C12.8125,-14.8516 13.0938,-14.2969 13.0938,-13.6094 C13.0938,-13.1719 12.9401,-12.7917 12.6328,-12.4688 C12.3255,-12.1458 11.9427,-11.9844 11.4844,-11.9844 C11.0365,-11.9844 10.6536,-12.1432 10.3359,-12.4609 C10.0182,-12.7786 9.85938,-13.1615 9.85938,-13.6094 C9.85938,-14.2552 10.0885,-14.7135 10.5469,-14.9844 L10.3438,-14.9844 C9.36458,-14.9844 8.56771,-14.6328 7.95313,-13.9297 C7.33854,-13.2266 6.90365,-12.3516 6.64844,-11.3047 C6.39323,-10.2578 6.26563,-9.26042 6.26563,-8.3125 L6.26563,-2.40625 C6.26563,-1.64583 7.42708,-1.26563 9.75,-1.26563 L9.75,0 L0.9375,0"/>
</g>

<g fill="#d9d9d9" fill-opacity="1" stroke="none" transform="matrix(0,-0.75,0.75,0,46.8499,293.233)"
font-family="MS Shell Dlg 2" font-size="8.25" font-weight="400" font-style="normal" 
>
<path vector-effect="none" fill-rule="evenodd" d="M1.4375,-3.53125 C1.4375,-4.95833 2,-6.1224 3.125,-7.02344 C4.25,-7.92448 5.60156,-8.55729 7.17969,-8.92188 C8.75781,-9.28646 10.2552,-9.46875 11.6719,-9.46875 L11.6719,-10.9531 C11.6719,-11.6406 11.5208,-12.3073 11.2188,-12.9531 C10.9167,-13.599 10.4766,-14.1302 9.89844,-14.5469 C9.32031,-14.9635 8.6875,-15.1719 8,-15.1719 C6.40625,-15.1719 5.19271,-14.8125 4.35938,-14.0938 C4.81771,-14.0938 5.19531,-13.9219 5.49219,-13.5781 C5.78906,-13.2344 5.9375,-12.8385 5.9375,-12.3906 C5.9375,-11.9115 5.76823,-11.5026 5.42969,-11.1641 C5.09115,-10.8255 4.6875,-10.6563 4.21875,-10.6563 C3.73958,-10.6563 3.33073,-10.8255 2.99219,-11.1641 C2.65365,-11.5026 2.48438,-11.9115 2.48438,-12.3906 C2.48438,-13.6615 3.05729,-14.6042 4.20313,-15.2188 C5.34896,-15.8333 6.61458,-16.1406 8,-16.1406 C8.96875,-16.1406 9.94531,-15.9323 10.9297,-15.5156 C11.9141,-15.099 12.7214,-14.5052 13.3516,-13.7344 C13.9818,-12.9635 14.2969,-12.0625 14.2969,-11.0313 L14.2969,-2.9375 C14.2969,-2.46875 14.3958,-2.03906 14.5938,-1.64844 C14.7917,-1.25781 15.099,-1.0625 15.5156,-1.0625 C15.9219,-1.0625 16.2214,-1.25781 16.4141,-1.64844 C16.6068,-2.03906 16.7031,-2.46354 16.7031,-2.92188 L16.7031,-5.20313 L17.75,-5.20313 L17.75,-2.90625 C17.75,-2.375 17.6094,-1.86458 17.3281,-1.375 C17.0469,-0.885417 16.6693,-0.497396 16.1953,-0.210938 C15.7214,0.0755208 15.2083,0.21875 14.6563,0.21875 C13.9583,0.21875 13.3542,-0.0572917 12.8438,-0.609375 C12.3333,-1.16146 12.0469,-1.8125 11.9844,-2.5625 C11.5469,-1.65625 10.8932,-0.934896 10.0234,-0.398438 C9.15365,0.138021 8.22917,0.40625 7.25,0.40625 C6.33333,0.40625 5.43229,0.270833 4.54688,0 C3.66146,-0.270833 2.92188,-0.695313 2.32813,-1.27344 C1.73438,-1.85156 1.4375,-2.60417 1.4375,-3.53125 M4.35938,-3.53125 C4.35938,-2.69792 4.66927,-1.99479 5.28906,-1.42188 C5.90885,-0.848958 6.64063,-0.5625 7.48438,-0.5625 C8.26563,-0.5625 8.97135,-0.755208 9.60156,-1.14063 C10.2318,-1.52604 10.7344,-2.05208 11.1094,-2.71875 C11.4844,-3.38542 11.6719,-4.08333 11.6719,-4.8125 L11.6719,-8.54688 C10.5781,-8.54688 9.46094,-8.36719 8.32031,-8.00781 C7.17969,-7.64844 6.23438,-7.09115 5.48438,-6.33594 C4.73438,-5.58073 4.35938,-4.64583 4.35938,-3.53125 "/>
</g>

<g fill="#d9d9d9" fill-opacity="1" stroke="none" transform="matrix(0,-0.75,0.75,0,46.8499,279.483)"
font-family="MS Shell Dlg 2" font-size="8.25" font-weight="400" font-style="normal" 
>
<path vector-effect="none" fill-rule="evenodd" d="M3.67188,-4.32813 L3.67188,-14.25 L0.6875,-14.25 L0.6875,-15.1875 C2.26042,-15.1875 3.41406,-15.9193 4.14844,-17.3828 C4.88281,-18.8464 5.25,-20.4375 5.25,-22.1563 L6.29688,-22.1563 L6.29688,-15.5156 L11.375,-15.5156 L11.375,-14.25 L6.29688,-14.25 L6.29688,-4.40625 C6.29688,-3.41667 6.46354,-2.54688 6.79688,-1.79688 C7.13021,-1.04688 7.72917,-0.671875 8.59375,-0.671875 C9.41667,-0.671875 10.0104,-1.0651 10.375,-1.85156 C10.7396,-2.63802 10.9219,-3.48958 10.9219,-4.40625 L10.9219,-6.53125 L11.9531,-6.53125 L11.9531,-4.32813 C11.9531,-3.57813 11.8151,-2.83594 11.5391,-2.10156 C11.263,-1.36719 10.8568,-0.765625 10.3203,-0.296875 C9.78385,0.171875 9.125,0.40625 8.34375,0.40625 C6.90625,0.40625 5.76823,-0.0260417 4.92969,-0.890625 C4.09115,-1.75521 3.67188,-2.90104 3.67188,-4.32813 "/>
</g>

<g fill="#d9d9d9" fill-opacity="1" stroke="none" transform="matrix(0,-0.75,0.75,0,46.8499,268.788)"
font-family="MS Shell Dlg 2" font-size="8.25" font-weight="400" font-style="normal" 
>
<path vector-effect="none" fill-rule="evenodd" d="M1.10938,0 L1.10938,-1.26563 C1.93229,-1.26563 2.60677,-1.33073 3.13281,-1.46094 C3.65885,-1.59115 3.92188,-1.90625 3.92188,-2.40625 L3.92188,-12.2344 C3.92188,-13.1615 3.74219,-13.7292 3.38281,-13.9375 C3.02344,-14.1458 2.31771,-14.25 1.26563,-14.25 L1.26563,-15.5156 L6.45313,-15.9063 L6.45313,-2.40625 C6.45313,-1.90625 6.68229,-1.59115 7.14063,-1.46094 C7.59896,-1.33073 8.20833,-1.26563 8.96875,-1.26563 L8.96875,0 L1.10938,0 M2.64063,-22.0938 C2.64063,-22.625 2.83854,-23.0885 3.23438,-23.4844 C3.63021,-23.8802 4.08854,-24.0781 4.60938,-24.0781 C4.94271,-24.0781 5.26823,-23.9922 5.58594,-23.8203 C5.90365,-23.6484 6.15104,-23.4036 6.32813,-23.0859 C6.50521,-22.7682 6.59375,-22.4375 6.59375,-22.0938 C6.59375,-21.5833 6.39323,-21.1276 5.99219,-20.7266 C5.59115,-20.3255 5.13021,-20.125 4.60938,-20.125 C4.08854,-20.125 3.63021,-20.3255 3.23438,-20.7266 C2.83854,-21.1276 2.64063,-21.5833 2.64063,-22.0938 "/>
</g>

<g fill="#d9d9d9" fill-opacity="1" stroke="none" transform="matrix(0,-0.75,0.75,0,46.8499,261.149)"
font-family="MS Shell Dlg 2" font-size="8.25" font-weight="400" font-style="normal" 
>
<path vector-effect="none" fill-rule="evenodd" d="M9,0.40625 C7.5625,0.40625 6.22656,0.0390625 4.99219,-0.695313 C3.75781,-1.42969 2.78385,-2.41146 2.07031,-3.64063 C1.35677,-4.86979 1,-6.21354 1,-7.67188 C1,-8.76563 1.19792,-9.82292 1.59375,-10.8438 C1.98958,-11.8646 2.55208,-12.776 3.28125,-13.5781 C4.01042,-14.3802 4.86198,-15.0078 5.83594,-15.4609 C6.8099,-15.9141 7.86458,-16.1406 9,-16.1406 C10.4792,-16.1406 11.8255,-15.75 13.0391,-14.9688 C14.2526,-14.1875 15.2109,-13.1432 15.9141,-11.8359 C16.6172,-10.5286 16.9688,-9.14063 16.9688,-7.67188 C16.9688,-6.22396 16.6094,-4.88281 15.8906,-3.64844 C15.1719,-2.41406 14.2005,-1.42969 12.9766,-0.695313 C11.7526,0.0390625 10.4271,0.40625 9,0.40625 M9,-0.671875 C10.9271,-0.671875 12.2109,-1.36719 12.8516,-2.75781 C13.4922,-4.14844 13.8125,-5.91667 13.8125,-8.0625 C13.8125,-9.27083 13.75,-10.2682 13.625,-11.0547 C13.5,-11.8411 13.2188,-12.5573 12.7813,-13.2031 C12.5104,-13.599 12.1667,-13.9479 11.75,-14.25 C11.3333,-14.5521 10.8932,-14.7813 10.4297,-14.9375 C9.96615,-15.0938 9.48958,-15.1719 9,-15.1719 C8.25,-15.1719 7.53906,-15.0026 6.86719,-14.6641 C6.19531,-14.3255 5.63542,-13.8385 5.1875,-13.2031 C4.73958,-12.526 4.45573,-11.7813 4.33594,-10.9688 C4.21615,-10.1563 4.15625,-9.1875 4.15625,-8.0625 C4.15625,-6.71875 4.27344,-5.51302 4.50781,-4.44531 C4.74219,-3.3776 5.21354,-2.48177 5.92188,-1.75781 C6.63021,-1.03385 7.65625,-0.671875 9,-0.671875 "/>
</g>

<g fill="#d9d9d9" fill-opacity="1" stroke="none" transform="matrix(0,-0.75,0.75,0,46.8499,247.399)"
font-family="MS Shell Dlg 2" font-size="8.25" font-weight="400" font-style="normal" 
>
<path vector-effect="none" fill-rule="evenodd" d="M1.07813,0 L1.07813,-1.26563 C1.89063,-1.26563 2.5625,-1.33073 3.09375,-1.46094 C3.625,-1.59115 3.89063,-1.90625 3.89063,-2.40625 L3.89063,-12.2344 C3.89063,-12.8802 3.79427,-13.3464 3.60156,-13.6328 C3.40885,-13.9193 3.13021,-14.0938 2.76563,-14.1563 C2.40104,-14.2188 1.83854,-14.25 1.07813,-14.25 L1.07813,-15.5156 L6.29688,-15.9063 L6.29688,-12.3906 C6.77604,-13.4219 7.48698,-14.2656 8.42969,-14.9219 C9.3724,-15.5781 10.401,-15.9063 11.5156,-15.9063 C13.1823,-15.9063 14.4349,-15.5078 15.2734,-14.7109 C16.112,-13.9141 16.5313,-12.6979 16.5313,-11.0625 L16.5313,-2.40625 C16.5313,-1.90625 16.7943,-1.59115 17.3203,-1.46094 C17.8464,-1.33073 18.5208,-1.26563 19.3438,-1.26563 L19.3438,0 L11.0938,0 L11.0938,-1.26563 C11.9167,-1.26563 12.5911,-1.33073 13.1172,-1.46094 C13.6432,-1.59115 13.9063,-1.90625 13.9063,-2.40625 L13.9063,-10.9531 C13.9063,-12.1198 13.737,-13.0833 13.3984,-13.8438 C13.0599,-14.6042 12.3594,-14.9844 11.2969,-14.9844 C9.91146,-14.9844 8.76823,-14.4271 7.86719,-13.3125 C6.96615,-12.1979 6.51563,-10.9323 6.51563,-9.51563 L6.51563,-2.40625 C6.51563,-1.90625 6.78125,-1.59115 7.3125,-1.46094 C7.84375,-1.33073 8.51042,-1.26563 9.3125,-1.26563 L9.3125,0 L1.07813,0"/>
</g>

<g fill="#d9d9d9" fill-opacity="1" stroke="none" transform="matrix(0,-0.75,0.75,0,46.8499,222.955)"
font-family="MS Shell Dlg 2" font-size="8.25" font-weight="400" font-style="normal" 
>
<path vector-effect="none" fill-rule="evenodd" d="M4.25,9 L4.25,-27 L9.17188,-27 L9.17188,-25.5625 L5.70313,-25.5625 L5.70313,7.5625 L9.17188,7.5625 L9.17188,9 L4.25,9"/>
</g>

<g fill="#d9d9d9" fill-opacity="1" stroke="none" transform="matrix(0,-0.75,0.75,0,46.8499,215.316)"
font-family="MS Shell Dlg 2" font-size="8.25" font-weight="400" font-style="normal" 
>
<path vector-effect="none" fill-rule="evenodd" d="M1.07813,0 L1.07813,-1.26563 C1.89063,-1.26563 2.5625,-1.33073 3.09375,-1.46094 C3.625,-1.59115 3.89063,-1.90625 3.89063,-2.40625 L3.89063,-12.2344 C3.89063,-12.8802 3.79427,-13.3464 3.60156,-13.6328 C3.40885,-13.9193 3.13021,-14.0938 2.76563,-14.1563 C2.40104,-14.2188 1.83854,-14.25 1.07813,-14.25 L1.07813,-15.5156 L6.29688,-15.9063 L6.29688,-12.3906 C6.77604,-13.4219 7.48698,-14.2656 8.42969,-14.9219 C9.3724,-15.5781 10.401,-15.9063 11.5156,-15.9063 C14.276,-15.9063 15.901,-14.7813 16.3906,-12.5313 C16.8698,-13.5417 17.5703,-14.3568 18.4922,-14.9766 C19.4141,-15.5964 20.4271,-15.9063 21.5313,-15.9063 C22.625,-15.9063 23.5443,-15.7318 24.2891,-15.3828 C25.0339,-15.0339 25.5938,-14.4974 25.9688,-13.7734 C26.3438,-13.0495 26.5313,-12.1458 26.5313,-11.0625 L26.5313,-2.40625 C26.5313,-1.90625 26.7969,-1.59115 27.3281,-1.46094 C27.8594,-1.33073 28.5313,-1.26563 29.3438,-1.26563 L29.3438,0 L21.0938,0 L21.0938,-1.26563 C21.9167,-1.26563 22.5911,-1.33073 23.1172,-1.46094 C23.6432,-1.59115 23.9063,-1.90625 23.9063,-2.40625 L23.9063,-10.9531 C23.9063,-12.1615 23.737,-13.1354 23.3984,-13.875 C23.0599,-14.6146 22.3646,-14.9844 21.3125,-14.9844 C19.9271,-14.9844 18.7839,-14.4271 17.8828,-13.3125 C16.9818,-12.1979 16.5313,-10.9323 16.5313,-9.51563 L16.5313,-2.40625 C16.5313,-1.90625 16.7943,-1.59115 17.3203,-1.46094 C17.8464,-1.33073 18.5208,-1.26563 19.3438,-1.26563 L19.3438,0 L11.0938,0 L11.0938,-1.26563 C11.9167,-1.26563 12.5911,-1.33073 13.1172,-1.46094 C13.6432,-1.59115 13.9063,-1.90625 13.9063,-2.40625 L13.9063,-10.9531 C13.9063,-12.1198 13.737,-13.0833 13.3984,-13.8438 C13.0599,-14.6042 12.3594,-14.9844 11.2969,-14.9844 C9.91146,-14.9844 8.76823,-14.4271 7.86719,-13.3125 C6.96615,-12.1979 6.51563,-10.9323 6.51563,-9.51563 L6.51563,-2.40625 C6.51563,-1.90625 6.78125,-1.59115 7.3125,-1.46094 C7.84375,-1.33073 8.51042,-1.26563 9.3125,-1.26563 L9.3125,0 L1.07813,0"/>
</g>

<g fill="#d9d9d9" fill-opacity="1" stroke="none" transform="matrix(0,-0.75,0.75,0,46.8499,192.399)"
font-family="MS Shell Dlg 2" font-size="8.25" font-weight="400" font-style="normal" 
>
<path vector-effect="none" fill-rule="evenodd" d="M9,0.40625 C7.5625,0.40625 6.22656,0.0390625 4.99219,-0.695313 C3.75781,-1.42969 2.78385,-2.41146 2.07031,-3.64063 C1.35677,-4.86979 1,-6.21354 1,-7.67188 C1,-8.76563 1.19792,-9.82292 1.59375,-10.8438 C1.98958,-11.8646 2.55208,-12.776 3.28125,-13.5781 C4.01042,-14.3802 4.86198,-15.0078 5.83594,-15.4609 C6.8099,-15.9141 7.86458,-16.1406 9,-16.1406 C10.4792,-16.1406 11.8255,-15.75 13.0391,-14.9688 C14.2526,-14.1875 15.2109,-13.1432 15.9141,-11.8359 C16.6172,-10.5286 16.9688,-9.14063 16.9688,-7.67188 C16.9688,-6.22396 16.6094,-4.88281 15.8906,-3.64844 C15.1719,-2.41406 14.2005,-1.42969 12.9766,-0.695313 C11.7526,0.0390625 10.4271,0.40625 9,0.40625 M9,-0.671875 C10.9271,-0.671875 12.2109,-1.36719 12.8516,-2.75781 C13.4922,-4.14844 13.8125,-5.91667 13.8125,-8.0625 C13.8125,-9.27083 13.75,-10.2682 13.625,-11.0547 C13.5,-11.8411 13.2188,-12.5573 12.7813,-13.2031 C12.5104,-13.599 12.1667,-13.9479 11.75,-14.25 C11.3333,-14.5521 10.8932,-14.7813 10.4297,-14.9375 C9.96615,-15.0938 9.48958,-15.1719 9,-15.1719 C8.25,-15.1719 7.53906,-15.0026 6.86719,-14.6641 C6.19531,-14.3255 5.63542,-13.8385 5.1875,-13.2031 C4.73958,-12.526 4.45573,-11.7813 4.33594,-10.9688 C4.21615,-10.1563 4.15625,-9.1875 4.15625,-8.0625 C4.15625,-6.71875 4.27344,-5.51302 4.50781,-4.44531 C4.74219,-3.3776 5.21354,-2.48177 5.92188,-1.75781 C6.63021,-1.03385 7.65625,-0.671875 9,-0.671875 "/>
</g>

<g fill="#d9d9d9" fill-opacity="1" stroke="none" transform="matrix(0,-0.75,0.75,0,46.8499,178.649)"
font-family="MS Shell Dlg 2" font-size="8.25" font-weight="400" font-style="normal" 
>
<path vector-effect="none" fill-rule="evenodd" d="M1.10938,0 L1.10938,-1.26563 C1.93229,-1.26563 2.60677,-1.33073 3.13281,-1.46094 C3.65885,-1.59115 3.92188,-1.90625 3.92188,-2.40625 L3.92188,-21.3125 C3.92188,-21.9479 3.82552,-22.4115 3.63281,-22.7031 C3.4401,-22.9948 3.16146,-23.1719 2.79688,-23.2344 C2.43229,-23.2969 1.86979,-23.3281 1.10938,-23.3281 L1.10938,-24.5938 L6.45313,-24.9844 L6.45313,-2.40625 C6.45313,-1.90625 6.71615,-1.59115 7.24219,-1.46094 C7.76823,-1.33073 8.4375,-1.26563 9.25,-1.26563 L9.25,0 L1.10938,0"/>
</g>

<g fill="#d9d9d9" fill-opacity="1" stroke="none" transform="matrix(0,-0.75,0.75,0,46.8499,171.01)"
font-family="MS Shell Dlg 2" font-size="8.25" font-weight="400" font-style="normal" 
>
<path vector-effect="none" fill-rule="evenodd" d="M2.01563,8.28125 C2.01563,8.20833 2.03125,8.16146 2.0625,8.14063 L14.5781,-26.5625 C14.6198,-26.6979 14.7005,-26.8047 14.8203,-26.8828 C14.9401,-26.9609 15.0729,-27 15.2188,-27 C15.4375,-27 15.612,-26.9349 15.7422,-26.8047 C15.8724,-26.6745 15.9375,-26.5 15.9375,-26.2813 L15.9375,-26.1406 L3.42188,8.5625 C3.28646,8.85417 3.0625,9 2.75,9 C2.54167,9 2.36719,8.92969 2.22656,8.78906 C2.08594,8.64844 2.01563,8.47917 2.01563,8.28125 "/>
</g>

<g fill="#d9d9d9" fill-opacity="1" stroke="none" transform="matrix(0,-0.75,0.75,0,46.8499,157.26)"
font-family="MS Shell Dlg 2" font-size="8.25" font-weight="400" font-style="normal" 
>
<path vector-effect="none" fill-rule="evenodd" d="M1.07813,0 L1.07813,-1.26563 C1.89063,-1.26563 2.5625,-1.33073 3.09375,-1.46094 C3.625,-1.59115 3.89063,-1.90625 3.89063,-2.40625 L3.89063,-12.2344 C3.89063,-12.8802 3.79427,-13.3464 3.60156,-13.6328 C3.40885,-13.9193 3.13021,-14.0938 2.76563,-14.1563 C2.40104,-14.2188 1.83854,-14.25 1.07813,-14.25 L1.07813,-15.5156 L6.29688,-15.9063 L6.29688,-12.3906 C6.77604,-13.4219 7.48698,-14.2656 8.42969,-14.9219 C9.3724,-15.5781 10.401,-15.9063 11.5156,-15.9063 C14.276,-15.9063 15.901,-14.7813 16.3906,-12.5313 C16.8698,-13.5417 17.5703,-14.3568 18.4922,-14.9766 C19.4141,-15.5964 20.4271,-15.9063 21.5313,-15.9063 C22.625,-15.9063 23.5443,-15.7318 24.2891,-15.3828 C25.0339,-15.0339 25.5938,-14.4974 25.9688,-13.7734 C26.3438,-13.0495 26.5313,-12.1458 26.5313,-11.0625 L26.5313,-2.40625 C26.5313,-1.90625 26.7969,-1.59115 27.3281,-1.46094 C27.8594,-1.33073 28.5313,-1.26563 29.3438,-1.26563 L29.3438,0 L21.0938,0 L21.0938,-1.26563 C21.9167,-1.26563 22.5911,-1.33073 23.1172,-1.46094 C23.6432,-1.59115 23.9063,-1.90625 23.9063,-2.40625 L23.9063,-10.9531 C23.9063,-12.1615 23.737,-13.1354 23.3984,-13.875 C23.0599,-14.6146 22.3646,-14.9844 21.3125,-14.9844 C19.9271,-14.9844 18.7839,-14.4271 17.8828,-13.3125 C16.9818,-12.1979 16.5313,-10.9323 16.5313,-9.51563 L16.5313,-2.40625 C16.5313,-1.90625 16.7943,-1.59115 17.3203,-1.46094 C17.8464,-1.33073 18.5208,-1.26563 19.3438,-1.26563 L19.3438,0 L11.0938,0 L11.0938,-1.26563 C11.9167,-1.26563 12.5911,-1.33073 13.1172,-1.46094 C13.6432,-1.59115 13.9063,-1.90625 13.9063,-2.40625 L13.9063,-10.9531 C13.9063,-12.1198 13.737,-13.0833 13.3984,-13.8438 C13.0599,-14.6042 12.3594,-14.9844 11.2969,-14.9844 C9.91146,-14.9844 8.76823,-14.4271 7.86719,-13.3125 C6.96615,-12.1979 6.51563,-10.9323 6.51563,-9.51563 L6.51563,-2.40625 C6.51563,-1.90625 6.78125,-1.59115 7.3125,-1.46094 C7.84375,-1.33073 8.51042,-1.26563 9.3125,-1.26563 L9.3125,0 L1.07813,0"/>
</g>

<g fill="#d9d9d9" fill-opacity="1" stroke="none" transform="matrix(0,-0.75,0.75,0,36.8704,134.343)"
font-family="MS Shell Dlg 2" font-size="8.25" font-weight="400" font-style="normal" 
>
<path vector-effect="none" fill-rule="evenodd" d="M2.375,-1.9375 C2.77083,-1.375 3.29688,-0.953125 3.95313,-0.671875 C4.60938,-0.390625 5.31771,-0.25 6.07813,-0.25 C7.04688,-0.25 7.73438,-0.664063 8.14063,-1.49219 C8.54688,-2.32031 8.75,-3.26042 8.75,-4.3125 C8.75,-4.78125 8.70833,-5.2526 8.625,-5.72656 C8.54167,-6.20052 8.39844,-6.64063 8.19531,-7.04688 C7.99219,-7.45313 7.71354,-7.77865 7.35938,-8.02344 C7.00521,-8.26823 6.57292,-8.39063 6.0625,-8.39063 L4.39063,-8.39063 C4.24479,-8.39063 4.17188,-8.46354 4.17188,-8.60938 L4.17188,-8.82813 C4.17188,-8.95313 4.24479,-9.01563 4.39063,-9.01563 L5.78125,-9.125 C6.36458,-9.125 6.84896,-9.34635 7.23438,-9.78906 C7.61979,-10.2318 7.90104,-10.7682 8.07813,-11.3984 C8.25521,-12.0286 8.34375,-12.6302 8.34375,-13.2031 C8.34375,-13.9948 8.15885,-14.6484 7.78906,-15.1641 C7.41927,-15.6797 6.84896,-15.9375 6.07813,-15.9375 C5.44271,-15.9375 4.83594,-15.8151 4.25781,-15.5703 C3.67969,-15.3255 3.21875,-14.9635 2.875,-14.4844 C2.91667,-14.4844 2.94792,-14.487 2.96875,-14.4922 C2.98958,-14.4974 3.01563,-14.5 3.04688,-14.5 C3.42188,-14.5 3.73698,-14.3698 3.99219,-14.1094 C4.2474,-13.849 4.375,-13.5365 4.375,-13.1719 C4.375,-12.8177 4.2474,-12.5104 3.99219,-12.25 C3.73698,-11.9896 3.42188,-11.8594 3.04688,-11.8594 C2.68229,-11.8594 2.36979,-11.9896 2.10938,-12.25 C1.84896,-12.5104 1.71875,-12.8177 1.71875,-13.1719 C1.71875,-13.8906 1.9349,-14.513 2.36719,-15.0391 C2.79948,-15.5651 3.35417,-15.9661 4.03125,-16.2422 C4.70833,-16.5182 5.39063,-16.6563 6.07813,-16.6563 C6.58854,-16.6563 7.1224,-16.5807 7.67969,-16.4297 C8.23698,-16.2786 8.74479,-16.0625 9.20313,-15.7813 C9.66146,-15.5 10.0339,-15.1406 10.3203,-14.7031 C10.6068,-14.2656 10.75,-13.7656 10.75,-13.2031 C10.75,-12.5052 10.5938,-11.8594 10.2813,-11.2656 C9.96875,-10.6719 9.53906,-10.1589 8.99219,-9.72656 C8.44531,-9.29427 7.84896,-8.97396 7.20313,-8.76563 C7.92188,-8.61979 8.60677,-8.34375 9.25781,-7.9375 C9.90885,-7.53125 10.4323,-7.01042 10.8281,-6.375 C11.224,-5.73958 11.4219,-5.05729 11.4219,-4.32813 C11.4219,-3.40104 11.1693,-2.5651 10.6641,-1.82031 C10.1589,-1.07552 9.4974,-0.494792 8.67969,-0.078125 C7.86198,0.338542 6.99479,0.546875 6.07813,0.546875 C5.29688,0.546875 4.51302,0.398438 3.72656,0.101563 C2.9401,-0.195313 2.29688,-0.640625 1.79688,-1.23438 C1.29688,-1.82813 1.04688,-2.54167 1.04688,-3.375 C1.04688,-3.79167 1.1849,-4.13802 1.46094,-4.41406 C1.73698,-4.6901 2.08333,-4.82813 2.5,-4.82813 C2.77083,-4.82813 3.01823,-4.76563 3.24219,-4.64063 C3.46615,-4.51563 3.64063,-4.33854 3.76563,-4.10938 C3.89063,-3.88021 3.95313,-3.63542 3.95313,-3.375 C3.95313,-2.96875 3.8099,-2.6276 3.52344,-2.35156 C3.23698,-2.07552 2.89583,-1.9375 2.5,-1.9375 L2.375,-1.9375"/>
</g>

<g fill="#d9d9d9" fill-opacity="1" stroke="none" transform="matrix(0,-0.75,0.75,0,46.8499,123.343)"
font-family="MS Shell Dlg 2" font-size="8.25" font-weight="400" font-style="normal" 
>
<path vector-effect="none" fill-rule="evenodd" d="M0.796875,9 L0.796875,7.5625 L4.29688,7.5625 L4.29688,-25.5625 L0.796875,-25.5625 L0.796875,-27 L5.73438,-27 L5.73438,9 L0.796875,9"/>
</g>

<g fill="#d9d9d9" fill-opacity="1" stroke="none" transform="matrix(0.75,0,0,0.75,78.75,42.75)"
font-family="MS Shell Dlg 2" font-size="8.25" font-weight="400" font-style="normal" 
>
<path vector-effect="none" fill-rule="evenodd" d="M4.84375,-0.953125 C4.84375,-1.11979 4.90104,-1.27604 5.01563,-1.42188 L11.875,-8.25 L5.01563,-15.1094 C4.90104,-15.224 4.84375,-15.3698 4.84375,-15.5469 C4.84375,-15.7135 4.90885,-15.8646 5.03906,-16 C5.16927,-16.1354 5.32813,-16.2031 5.51563,-16.2031 C5.66146,-16.2031 5.82813,-16.1354 6.01563,-16 L12.8438,-9.17188 L19.6406,-16 C19.8281,-16.1354 19.9896,-16.2031 20.125,-16.2031 C20.3125,-16.2031 20.4688,-16.1406 20.5938,-16.0156 C20.7188,-15.8906 20.7813,-15.7344 20.7813,-15.5469 C20.7813,-15.3698 20.7292,-15.224 20.625,-15.1094 L13.7656,-8.25 L20.625,-1.42188 C20.7292,-1.27604 20.7813,-1.11979 20.7813,-0.953125 C20.7813,-0.765625 20.7188,-0.609375 20.5938,-0.484375 C20.4688,-0.359375 20.3125,-0.296875 20.125,-0.296875 C19.9688,-0.296875 19.8073,-0.375 19.6406,-0.53125 L12.8438,-7.32813 L6.01563,-0.53125 C5.84896,-0.375 5.68229,-0.296875 5.51563,-0.296875 C5.32813,-0.296875 5.16927,-0.364583 5.03906,-0.5 C4.90885,-0.635417 4.84375,-0.786458 4.84375,-0.953125 "/>
</g>

<g fill="#d9d9d9" fill-opacity="1" stroke="none" transform="matrix(0.75,0,0,0.75,98.25,42.75)"
font-family="MS Shell Dlg 2" font-size="8.25" font-weight="400" font-style="normal" 
>
<path vector-effect="none" fill-rule="evenodd" d="M12.2969,0 L9.39063,0 L9.39063,-18.4844 C8.69271,-17.8177 7.77865,-17.151 6.64844,-16.4844 C5.51823,-15.8177 4.5,-15.3177 3.59375,-14.9844 L3.59375,-17.7969 C5.21875,-18.5573 6.63802,-19.4792 7.85156,-20.5625 C9.0651,-21.6458 9.92188,-22.6979 10.4219,-23.7188 L12.2969,-23.7188 L12.2969,0 M19.375,-11.6563 C19.375,-14.4479 19.6615,-16.6953 20.2344,-18.3984 C20.8073,-20.1016 21.6615,-21.4141 22.7969,-22.3359 C23.9323,-23.2578 25.3594,-23.7188 27.0781,-23.7188 C28.3385,-23.7188 29.4479,-23.4635 30.4063,-22.9531 C31.3646,-22.4427 32.1536,-21.7057 32.7734,-20.7422 C33.3932,-19.7786 33.8828,-18.6068 34.2422,-17.2266 C34.6016,-15.8464 34.7813,-13.9896 34.7813,-11.6563 C34.7813,-8.88542 34.4948,-6.64844 33.9219,-4.94531 C33.349,-3.24219 32.4974,-1.92448 31.3672,-0.992188 C30.237,-0.0598958 28.8073,0.40625 27.0781,0.40625 C24.7969,0.40625 23.0052,-0.411458 21.7031,-2.04688 C20.151,-4.01563 19.375,-7.21875 19.375,-11.6563 M22.3438,-11.6563 C22.3438,-7.77083 22.7995,-5.1875 23.7109,-3.90625 C24.6224,-2.625 25.7448,-1.98438 27.0781,-1.98438 C28.401,-1.98438 29.5182,-2.6276 30.4297,-3.91406 C31.3411,-5.20052 31.7969,-7.78125 31.7969,-11.6563 C31.7969,-15.5417 31.3411,-18.1224 30.4297,-19.3984 C29.5182,-20.6745 28.3906,-21.3125 27.0469,-21.3125 C25.7135,-21.3125 24.6458,-20.75 23.8438,-19.625 C22.8438,-18.1875 22.3438,-15.5313 22.3438,-11.6563 "/>
</g>

<g fill="#d9d9d9" fill-opacity="1" stroke="none" transform="matrix(0.75,0,0,0.75,125.25,30.75)"
font-family="MS Shell Dlg 2" font-size="8.25" font-weight="400" font-style="normal" 
>
<path vector-effect="none" fill-rule="evenodd" d="M0.828125,-5.59375 L0.828125,-7.89063 L7.84375,-7.89063 L7.84375,-5.59375 L0.828125,-5.59375 M10.0938,-4.90625 L12.375,-5.21875 C12.6354,-3.92708 13.0807,-2.99479 13.7109,-2.42188 C14.3411,-1.84896 15.1094,-1.5625 16.0156,-1.5625 C17.099,-1.5625 18.0104,-1.9349 18.75,-2.67969 C19.4896,-3.42448 19.8594,-4.34896 19.8594,-5.45313 C19.8594,-6.49479 19.5156,-7.35677 18.8281,-8.03906 C18.1406,-8.72135 17.2708,-9.0625 16.2188,-9.0625 C15.7813,-9.0625 15.2396,-8.97917 14.5938,-8.8125 L14.8594,-10.8125 C15.0052,-10.8021 15.125,-10.7969 15.2188,-10.7969 C16.1979,-10.7969 17.0755,-11.0495 17.8516,-11.5547 C18.6276,-12.0599 19.0156,-12.8438 19.0156,-13.9063 C19.0156,-14.7396 18.7318,-15.4323 18.1641,-15.9844 C17.5964,-16.5365 16.8646,-16.8125 15.9688,-16.8125 C15.0833,-16.8125 14.3438,-16.5339 13.75,-15.9766 C13.1563,-15.4193 12.776,-14.5781 12.6094,-13.4531 L10.3281,-13.8594 C10.599,-15.3906 11.2292,-16.5781 12.2188,-17.4219 C13.2083,-18.2656 14.4427,-18.6875 15.9219,-18.6875 C16.9323,-18.6875 17.8646,-18.4688 18.7188,-18.0313 C19.5729,-17.5938 20.2266,-17 20.6797,-16.25 C21.1328,-15.5 21.3594,-14.6979 21.3594,-13.8438 C21.3594,-13.0417 21.1458,-12.3125 20.7188,-11.6563 C20.2917,-11 19.651,-10.474 18.7969,-10.0781 C19.901,-9.82813 20.7578,-9.30208 21.3672,-8.5 C21.9766,-7.69792 22.2813,-6.69792 22.2813,-5.5 C22.2813,-3.875 21.6875,-2.4974 20.5,-1.36719 C19.3125,-0.236979 17.8177,0.328125 16.0156,0.328125 C14.3802,0.328125 13.0234,-0.158854 11.9453,-1.13281 C10.8672,-2.10677 10.25,-3.36458 10.0938,-4.90625 "/>
</g>

<g fill="#d9d9d9" fill-opacity="1" stroke="none" transform="matrix(0.75,0,0,0.75,243.75,36.8437)"
font-family="MS Shell Dlg 2" font-size="8.25" font-weight="400" font-style="normal" 
>
<path vector-effect="none" fill-rule="evenodd" d="M1.29688,-8.39063 L6.35938,-8.875 C6.67188,-7.17708 7.29167,-5.92969 8.21875,-5.13281 C9.14583,-4.33594 10.401,-3.9375 11.9844,-3.9375 C13.6615,-3.9375 14.9245,-4.29167 15.7734,-5 C16.6224,-5.70833 17.0469,-6.53646 17.0469,-7.48438 C17.0469,-8.09896 16.8698,-8.61979 16.5156,-9.04688 C16.1615,-9.47396 15.5365,-9.84375 14.6406,-10.1563 C14.0365,-10.375 12.651,-10.75 10.4844,-11.2813 C7.69271,-11.9792 5.73438,-12.8281 4.60938,-13.8281 C3.02604,-15.2552 2.23438,-16.9844 2.23438,-19.0156 C2.23438,-20.3281 2.60677,-21.5573 3.35156,-22.7031 C4.09635,-23.849 5.16927,-24.7188 6.57031,-25.3125 C7.97135,-25.9063 9.66146,-26.2031 11.6406,-26.2031 C14.8698,-26.2031 17.3021,-25.4948 18.9375,-24.0781 C20.5729,-22.6615 21.4323,-20.7708 21.5156,-18.4063 L16.3125,-18.1719 C16.0938,-19.4948 15.6172,-20.4479 14.8828,-21.0313 C14.1484,-21.6146 13.0469,-21.9063 11.5781,-21.9063 C10.0677,-21.9063 8.88542,-21.5938 8.03125,-20.9688 C7.47917,-20.5729 7.20313,-20.0417 7.20313,-19.375 C7.20313,-18.7604 7.46354,-18.2396 7.98438,-17.8125 C8.64063,-17.2604 10.2344,-16.6849 12.7656,-16.0859 C15.2969,-15.487 17.1693,-14.8672 18.3828,-14.2266 C19.5964,-13.5859 20.5443,-12.7135 21.2266,-11.6094 C21.9089,-10.5052 22.25,-9.13542 22.25,-7.5 C22.25,-6.03125 21.8411,-4.65104 21.0234,-3.35938 C20.2057,-2.06771 19.0469,-1.10938 17.5469,-0.484375 C16.0469,0.140625 14.1771,0.453125 11.9375,0.453125 C8.67708,0.453125 6.17448,-0.299479 4.42969,-1.80469 C2.6849,-3.3099 1.64063,-5.50521 1.29688,-8.39063 M37.3906,-5.9375 L42.3125,-5.10938 C41.6875,-3.30729 40.6901,-1.9349 39.3203,-0.992188 C37.9505,-0.0494792 36.2448,0.421875 34.2031,0.421875 C30.9531,0.421875 28.5469,-0.640625 26.9844,-2.76563 C25.7552,-4.46354 25.1406,-6.60417 25.1406,-9.1875 C25.1406,-12.2813 25.9505,-14.7057 27.5703,-16.4609 C29.1901,-18.2161 31.2344,-19.0938 33.7031,-19.0938 C36.4844,-19.0938 38.6771,-18.1771 40.2813,-16.3438 C41.8854,-14.5104 42.651,-11.6979 42.5781,-7.90625 L30.2031,-7.90625 C30.2448,-6.44792 30.6458,-5.3099 31.4063,-4.49219 C32.1667,-3.67448 33.1146,-3.26563 34.25,-3.26563 C35.0208,-3.26563 35.6693,-3.47656 36.1953,-3.89844 C36.7214,-4.32031 37.1198,-5 37.3906,-5.9375 M37.6719,-10.9375 C37.6406,-12.3646 37.2734,-13.4505 36.5703,-14.1953 C35.8672,-14.9401 35.0104,-15.3125 34,-15.3125 C32.9271,-15.3125 32.0365,-14.9219 31.3281,-14.1406 C30.6302,-13.349 30.2865,-12.2813 30.2969,-10.9375 L37.6719,-10.9375 M63.5625,0 L58.625,0 L58.625,-9.53125 C58.625,-11.5417 58.5208,-12.8438 58.3125,-13.4375 C58.1042,-14.0313 57.7604,-14.4922 57.2813,-14.8203 C56.8021,-15.1484 56.2292,-15.3125 55.5625,-15.3125 C54.7083,-15.3125 53.9427,-15.0781 53.2656,-14.6094 C52.5885,-14.1406 52.1224,-13.5182 51.8672,-12.7422 C51.612,-11.9661 51.4844,-10.5365 51.4844,-8.45313 L51.4844,0 L46.5469,0 L46.5469,-18.6719 L51.1406,-18.6719 L51.1406,-15.9219 C52.7656,-18.0365 54.8177,-19.0938 57.2969,-19.0938 C58.3802,-19.0938 59.3724,-18.8958 60.2734,-18.5 C61.1745,-18.1042 61.8568,-17.6016 62.3203,-16.9922 C62.7839,-16.3828 63.1068,-15.6927 63.2891,-14.9219 C63.4714,-14.151 63.5625,-13.0469 63.5625,-11.6094 L63.5625,0 M66.8438,-5.32813 L71.7969,-6.07813 C72.0156,-5.11979 72.4453,-4.39063 73.0859,-3.89063 C73.7266,-3.39063 74.6302,-3.14063 75.7969,-3.14063 C77.0677,-3.14063 78.026,-3.375 78.6719,-3.84375 C79.1094,-4.17708 79.3281,-4.61979 79.3281,-5.17188 C79.3281,-5.54688 79.2083,-5.85417 78.9688,-6.09375 C78.7292,-6.33333 78.1823,-6.55208 77.3281,-6.75 C73.3385,-7.625 70.8125,-8.42708 69.75,-9.15625 C68.2708,-10.1667 67.5313,-11.5677 67.5313,-13.3594 C67.5313,-14.974 68.1693,-16.3333 69.4453,-17.4375 C70.7214,-18.5417 72.7031,-19.0938 75.3906,-19.0938 C77.9427,-19.0938 79.8411,-18.6771 81.0859,-17.8438 C82.3307,-17.0104 83.1875,-15.7813 83.6563,-14.1563 L78.9844,-13.2969 C78.7865,-14.0156 78.4089,-14.5703 77.8516,-14.9609 C77.2943,-15.3516 76.5,-15.5469 75.4688,-15.5469 C74.1771,-15.5469 73.25,-15.3646 72.6875,-15 C72.3125,-14.7396 72.125,-14.4063 72.125,-14 C72.125,-13.6458 72.2865,-13.3438 72.6094,-13.0938 C73.0573,-12.7708 74.5964,-12.3099 77.2266,-11.7109 C79.8568,-11.112 81.6927,-10.3802 82.7344,-9.51563 C83.7656,-8.63021 84.2813,-7.40625 84.2813,-5.84375 C84.2813,-4.125 83.5677,-2.65104 82.1406,-1.42188 C80.7135,-0.192708 78.599,0.421875 75.7969,0.421875 C73.2552,0.421875 71.2422,-0.09375 69.7578,-1.125 C68.2734,-2.15625 67.3021,-3.55729 66.8438,-5.32813 M87.4375,-9.59375 C87.4375,-11.2396 87.8438,-12.8307 88.6563,-14.3672 C89.4688,-15.9036 90.6146,-17.0755 92.0938,-17.8828 C93.5729,-18.6901 95.2292,-19.0938 97.0625,-19.0938 C99.8854,-19.0938 102.198,-18.1771 104,-16.3438 C105.802,-14.5104 106.703,-12.1927 106.703,-9.39063 C106.703,-6.56771 105.792,-4.22656 103.969,-2.36719 C102.146,-0.507813 99.8542,0.421875 97.0938,0.421875 C95.3854,0.421875 93.7552,0.0338542 92.2031,-0.742188 C90.651,-1.51823 89.4688,-2.65104 88.6563,-4.14063 C87.8438,-5.63021 87.4375,-7.44792 87.4375,-9.59375 M92.5,-9.32813 C92.5,-7.48438 92.9401,-6.07031 93.8203,-5.08594 C94.7005,-4.10156 95.7865,-3.60938 97.0781,-3.60938 C98.3698,-3.60938 99.4505,-4.10156 100.32,-5.08594 C101.19,-6.07031 101.625,-7.5 101.625,-9.375 C101.625,-11.1979 101.19,-12.6016 100.32,-13.5859 C99.4505,-14.5703 98.3698,-15.0625 97.0781,-15.0625 C95.7865,-15.0625 94.7005,-14.5703 93.8203,-13.5859 C92.9401,-12.6016 92.5,-11.1823 92.5,-9.32813 M115.313,0 L110.375,0 L110.375,-18.6719 L114.969,-18.6719 L114.969,-16.0156 C115.75,-17.2656 116.453,-18.0911 117.078,-18.4922 C117.703,-18.8932 118.417,-19.0938 119.219,-19.0938 C120.344,-19.0938 121.427,-18.7813 122.469,-18.1563 L120.938,-13.8594 C120.104,-14.3906 119.333,-14.6563 118.625,-14.6563 C117.927,-14.6563 117.339,-14.4661 116.859,-14.0859 C116.38,-13.7057 116.003,-13.0182 115.727,-12.0234 C115.451,-11.0286 115.313,-8.94271 115.313,-5.76563 L115.313,0 M134.625,0 L134.625,-25.7656 L142.969,-25.7656 C146.135,-25.7656 148.198,-25.6406 149.156,-25.3906 C150.635,-24.9948 151.872,-24.151 152.867,-22.8594 C153.862,-21.5677 154.359,-19.8958 154.359,-17.8438 C154.359,-16.2604 154.073,-14.9297 153.5,-13.8516 C152.927,-12.7734 152.198,-11.9271 151.313,-11.3125 C150.427,-10.6979 149.526,-10.2917 148.609,-10.0938 C147.37,-9.84375 145.573,-9.71875 143.219,-9.71875 L139.828,-9.71875 L139.828,0 L134.625,0 M139.828,-21.4063 L139.828,-14.0938 L142.672,-14.0938 C144.724,-14.0938 146.096,-14.2292 146.789,-14.5 C147.482,-14.7708 148.023,-15.1927 148.414,-15.7656 C148.805,-16.3385 149,-17.0052 149,-17.7656 C149,-18.7031 148.724,-19.4766 148.172,-20.0859 C147.62,-20.6953 146.922,-21.0781 146.078,-21.2344 C145.464,-21.349 144.219,-21.4063 142.344,-21.4063 L139.828,-21.4063 M163.5,-25.7656 L163.5,-16.2969 C165.094,-18.1615 167,-19.0938 169.219,-19.0938 C170.354,-19.0938 171.38,-18.8828 172.297,-18.4609 C173.214,-18.0391 173.904,-17.5 174.367,-16.8438 C174.831,-16.1875 175.146,-15.4609 175.313,-14.6641 C175.479,-13.8672 175.563,-12.6302 175.563,-10.9531 L175.563,0 L170.625,0 L170.625,-9.85938 C170.625,-11.8177 170.531,-13.0599 170.344,-13.5859 C170.156,-14.112 169.826,-14.5313 169.352,-14.8438 C168.878,-15.1563 168.281,-15.3125 167.563,-15.3125 C166.75,-15.3125 166.021,-15.112 165.375,-14.7109 C164.729,-14.3099 164.255,-13.7083 163.953,-12.9063 C163.651,-12.1042 163.5,-10.9219 163.5,-9.35938 L163.5,0 L158.563,0 L158.563,-25.7656 L163.5,-25.7656 M184.281,-12.9688 L179.797,-13.7813 C180.297,-15.5833 181.161,-16.9193 182.391,-17.7891 C183.62,-18.6589 185.448,-19.0938 187.875,-19.0938 C190.083,-19.0938 191.727,-18.8333 192.805,-18.3125 C193.883,-17.7917 194.641,-17.1302 195.078,-16.3281 C195.516,-15.526 195.734,-14.0521 195.734,-11.9063 L195.688,-6.14063 C195.688,-4.49479 195.766,-3.28385 195.922,-2.50781 C196.078,-1.73177 196.375,-0.895833 196.813,0 L191.922,0 C191.797,-0.333333 191.641,-0.817708 191.453,-1.45313 C191.37,-1.75521 191.307,-1.95313 191.266,-2.04688 C190.422,-1.22396 189.521,-0.606771 188.563,-0.195313 C187.604,0.216146 186.578,0.421875 185.484,0.421875 C183.568,0.421875 182.055,-0.0989583 180.945,-1.14063 C179.836,-2.18229 179.281,-3.5 179.281,-5.09375 C179.281,-6.15625 179.534,-7.09896 180.039,-7.92188 C180.544,-8.74479 181.25,-9.3776 182.156,-9.82031 C183.063,-10.263 184.375,-10.6458 186.094,-10.9688 C188.396,-11.4063 189.995,-11.8125 190.891,-12.1875 L190.891,-12.6719 C190.891,-13.6198 190.656,-14.2969 190.188,-14.7031 C189.719,-15.1094 188.833,-15.3125 187.531,-15.3125 C186.646,-15.3125 185.958,-15.1406 185.469,-14.7969 C184.979,-14.4531 184.583,-13.8438 184.281,-12.9688 M190.891,-8.96875 C190.255,-8.76042 189.253,-8.50781 187.883,-8.21094 C186.513,-7.91406 185.615,-7.625 185.188,-7.34375 C184.542,-6.88542 184.219,-6.30729 184.219,-5.60938 C184.219,-4.92188 184.477,-4.32552 184.992,-3.82031 C185.508,-3.3151 186.167,-3.0625 186.969,-3.0625 C187.854,-3.0625 188.703,-3.35417 189.516,-3.9375 C190.109,-4.38542 190.5,-4.93229 190.688,-5.57813 C190.823,-5.99479 190.891,-6.79688 190.891,-7.98438 L190.891,-8.96875 M198.844,-5.32813 L203.797,-6.07813 C204.016,-5.11979 204.445,-4.39063 205.086,-3.89063 C205.727,-3.39063 206.63,-3.14063 207.797,-3.14063 C209.068,-3.14063 210.026,-3.375 210.672,-3.84375 C211.109,-4.17708 211.328,-4.61979 211.328,-5.17188 C211.328,-5.54688 211.208,-5.85417 210.969,-6.09375 C210.729,-6.33333 210.182,-6.55208 209.328,-6.75 C205.339,-7.625 202.813,-8.42708 201.75,-9.15625 C200.271,-10.1667 199.531,-11.5677 199.531,-13.3594 C199.531,-14.974 200.169,-16.3333 201.445,-17.4375 C202.721,-18.5417 204.703,-19.0938 207.391,-19.0938 C209.943,-19.0938 211.841,-18.6771 213.086,-17.8438 C214.331,-17.0104 215.188,-15.7813 215.656,-14.1563 L210.984,-13.2969 C210.786,-14.0156 210.409,-14.5703 209.852,-14.9609 C209.294,-15.3516 208.5,-15.5469 207.469,-15.5469 C206.177,-15.5469 205.25,-15.3646 204.688,-15 C204.313,-14.7396 204.125,-14.4063 204.125,-14 C204.125,-13.6458 204.286,-13.3438 204.609,-13.0938 C205.057,-12.7708 206.596,-12.3099 209.227,-11.7109 C211.857,-11.112 213.693,-10.3802 214.734,-9.51563 C215.766,-8.63021 216.281,-7.40625 216.281,-5.84375 C216.281,-4.125 215.568,-2.65104 214.141,-1.42188 C212.714,-0.192708 210.599,0.421875 207.797,0.421875 C205.255,0.421875 203.242,-0.09375 201.758,-1.125 C200.273,-2.15625 199.302,-3.55729 198.844,-5.32813 M231.391,-5.9375 L236.313,-5.10938 C235.688,-3.30729 234.69,-1.9349 233.32,-0.992188 C231.951,-0.0494792 230.245,0.421875 228.203,0.421875 C224.953,0.421875 222.547,-0.640625 220.984,-2.76563 C219.755,-4.46354 219.141,-6.60417 219.141,-9.1875 C219.141,-12.2813 219.951,-14.7057 221.57,-16.4609 C223.19,-18.2161 225.234,-19.0938 227.703,-19.0938 C230.484,-19.0938 232.677,-18.1771 234.281,-16.3438 C235.885,-14.5104 236.651,-11.6979 236.578,-7.90625 L224.203,-7.90625 C224.245,-6.44792 224.646,-5.3099 225.406,-4.49219 C226.167,-3.67448 227.115,-3.26563 228.25,-3.26563 C229.021,-3.26563 229.669,-3.47656 230.195,-3.89844 C230.721,-4.32031 231.12,-5 231.391,-5.9375 M231.672,-10.9375 C231.641,-12.3646 231.273,-13.4505 230.57,-14.1953 C229.867,-14.9401 229.01,-15.3125 228,-15.3125 C226.927,-15.3125 226.036,-14.9219 225.328,-14.1406 C224.63,-13.349 224.286,-12.2813 224.297,-10.9375 L231.672,-10.9375 M262.172,0 L257.234,0 L257.234,-18.6094 C255.422,-16.9219 253.292,-15.6771 250.844,-14.875 L250.844,-19.3594 C252.135,-19.776 253.536,-20.5729 255.047,-21.75 C256.557,-22.9271 257.594,-24.3021 258.156,-25.875 L262.172,-25.875 L262.172,0"/>
</g>

<g fill="none" stroke="#268cdd" stroke-opacity="1" stroke-width="2.66667" stroke-linecap="butt" stroke-linejoin="round" transform="matrix(0.75,0,0,0.75,0,0)"
font-family="MS Shell Dlg 2" font-size="8.25" font-weight="400" font-style="normal" 
>
<polyline fill="none" vector-effect="none" points="108,627 111.9,627 115.8,627 119.7,627 123.6,627 127.5,627 131.4,627 135.3,627 139.2,627 143.1,627 147,627 150.9,627 154.8,627 158.7,627 162.6,627 166.5,627 170.4,627 174.3,627 178.2,627 182.1,627 186,627 189.9,627 193.8,627 197.7,627 201.6,627 205.5,627 209.4,627 213.3,627 217.2,627 221.1,627 225,627 228.9,627 232.8,626.999 236.7,626.993 240.6,626.966 244.5,626.859 248.4,626.488 252.3,625.371 256.2,622.463 260.1,615.841 264,602.567 267.9,579.027 271.8,541.995 275.7,490.295 279.6,426.058 283.5,354.971 287.4,284.93 291.3,223.458 295.2,175.39 299.1,142.301 303,123.062 306.9,115.182 310.8,116.35 314.7,125.256 318.6,141.477 322.5,164.83 326.4,194.649 330.3,229.433 334.2,267.002 338.1,304.96 342,341.223 345.9,374.368 349.8,403.754 353.7,429.385 357.6,451.669 361.5,471.172 365.4,488.427 369.3,503.836 373.2,517.674 377.1,530.101 381,541.185 384.9,550.91 388.8,559.166 392.7,565.748 396.6,570.342 400.5,572.534 404.4,571.852 408.3,567.856 412.2,560.212 416.1,548.771 420,533.639 423.9,515.227 427.8,494.249 431.7,471.683 435.6,448.691 439.5,426.492 443.4,406.195 447.3,388.675 451.2,374.526 455.1,364.09 459,357.524 462.9,354.818 466.8,355.804 470.7,360.172 474.6,367.499 478.5,377.282 482.4,388.966 486.3,401.989 490.2,415.814 494.1,429.965 498,444.048 501.9,457.765 505.8,470.9 509.7,483.313 513.6,494.914 517.5,505.647 521.4,515.466 525.3,524.321 529.2,532.146 533.1,538.859 537,544.352 540.9,548.495 544.8,551.151 548.7,552.186 552.6,551.484 556.5,548.972 560.4,544.641 564.3,538.562 568.2,530.886 572.1,521.849 576,511.772 579.9,501.033 583.8,490.059 587.7,479.314 591.6,469.248 595.5,460.255 599.4,452.647 603.3,446.647 607.2,442.391 611.1,439.928 615,439.244 618.9,440.273 622.8,442.909 626.7,446.99 630.6,452.308 634.5,458.642 638.4,465.762 642.3,473.443 646.2,481.479 650.1,489.694 654,497.94 657.9,506.095 661.8,514.063 665.7,521.768 669.6,529.157 673.5,536.195 677.4,542.792 681.3,549 685.2,554.825 689.1,560.267 693,565.346 696.9,570.074 700.8,574.468 704.7,578.538 708.6,582.304 712.5,585.788 716.4,589.008 720.3,591.981 724.2,594.717 728.1,597.234 732,599.55 735.9,601.679 739.8,603.633 743.7,605.422 747.6,607.062 751.5,608.567 755.4,609.948 759.3,611.215 763.2,612.374 767.1,613.437 771,614.414 774.9,615.311 778.8,616.135 782.7,616.891 786.6,617.587 790.5,618.229 794.4,618.82 798.3,619.367 802.2,619.87 806.1,620.337 810,620.765 " />
</g>

<g fill="none" stroke="#ffffff" stroke-opacity="1" stroke-width="2.66667" stroke-linecap="butt" stroke-linejoin="miter" stroke-miterlimit="2" transform="matrix(0.75,0,0,0.75,0,0)"
font-family="MS Shell Dlg 2" font-size="8.25" font-weight="400" font-style="normal" 
>
<path vector-effect="none" fill-rule="evenodd" d="M313.567,115.182 C313.567,111.5 310.582,108.515 306.9,108.515 C303.218,108.515 300.233,111.5 300.233,115.182 C300.233,118.864 303.218,121.848 306.9,121.848 C310.582,121.848 313.567,118.864 313.567,115.182 "/>
<path vector-effect="none" fill-rule="evenodd" d="M469.567,354.818 C469.567,351.136 466.582,348.151 462.9,348.151 C459.218,348.151 456.233,351.136 456.233,354.818 C456.233,358.5 459.218,361.485 462.9,361.485 C466.582,361.485 469.567,358.5 469.567,354.818 "/>
<path vector-effect="none" fill-rule="evenodd" d="M621.667,439.244 C621.667,435.562 618.682,432.577 615,432.577 C611.318,432.577 608.333,435.562 608.333,439.244 C608.333,442.926 611.318,445.91 615,445.91 C618.682,445.91 621.667,442.926 621.667,439.244 "/>
</g>
</g>
</svg>
