  0
SECTION
  2
HEADER
  9
$ACADVER
  1
AC1032
  9
$ACADMAINTVER
 90
      329
  9
$DWGCODEPAGE
  3
ANSI_1254
  9
$LASTSAVEDBY
  1
EREN
  9
$REQUIREDVERSIONS
160
                 0
  9
$INSBASE
 10
0.0
 20
0.0
 30
0.0
  9
$EXTMIN
 10
7768471.054456621
 20
-8279414.409939523
 30
0.0
  9
$EXTMAX
 10
7817187.427698045
 20
-8249706.111372381
 30
0.0
  9
$LIMMIN
 10
0.0
 20
0.0
  9
$LIMMAX
 10
0.0
 20
0.0
  9
$ORTHOMODE
 70
     0
  9
$REGENMODE
 70
     1
  9
$FILLMODE
 70
     1
  9
$QTEXTMODE
 70
     0
  9
$MIRRTEXT
 70
     1
  9
$LTSCALE
 40
1.0
  9
$ATTMODE
 70
     1
  9
$TEXTSIZE
 40
2.5
  9
$TRACEWID
 40
0.05
  9
$TEXTSTYLE
  7
Standard
  9
$CLAYER
  8
0
  9
$CELTYPE
  6
CONTINUOUS
  9
$CECOLOR
 62
   256
  9
$CELTSCALE
 40
1.0
  9
$DISPSILH
 70
     0
  9
$DIMSCALE
 40
1.0
  9
$DIMASZ
 40
0.0
  9
$DIMEXO
 40
0.0
  9
$DIMDLI
 40
0.38
  9
$DIMRND
 40
0.0
  9
$DIMDLE
 40
0.0
  9
$DIMEXE
 40
0.18
  9
$DIMTP
 40
0.0
  9
$DIMTM
 40
0.0
  9
$DIMTXT
 40
2.5
  9
$DIMCEN
 40
0.09
  9
$DIMTSZ
 40
0.0
  9
$DIMTOL
 70
     0
  9
$DIMLIM
 70
     0
  9
$DIMTIH
 70
     1
  9
$DIMTOH
 70
     1
  9
$DIMSE1
 70
     0
  9
$DIMSE2
 70
     0
  9
$DIMTAD
 70
     1
  9
$DIMZIN
 70
     0
  9
$DIMBLK
  1

  9
$DIMASO
 70
     1
  9
$DIMSHO
 70
     1
  9
$DIMPOST
  1

  9
$DIMAPOST
  1

  9
$DIMALT
 70
     0
  9
$DIMALTD
 70
     2
  9
$DIMALTF
 40
0.0394
  9
$DIMLFAC
 40
1.0
  9
$DIMTOFL
 70
     0
  9
$DIMTVP
 40
0.0
  9
$DIMTIX
 70
     0
  9
$DIMSOXD
 70
     0
  9
$DIMSAH
 70
     0
  9
$DIMBLK1
  1

  9
$DIMBLK2
  1

  9
$DIMSTYLE
  2
Standard
  9
$DIMCLRD
 70
     0
  9
$DIMCLRE
 70
     0
  9
$DIMCLRT
 70
     0
  9
$DIMTFAC
 40
1.0
  9
$DIMGAP
 40
0.0
  9
$DIMJUST
 70
     0
  9
$DIMSD1
 70
     0
  9
$DIMSD2
 70
     0
  9
$DIMTOLJ
 70
     1
  9
$DIMTZIN
 70
     0
  9
$DIMALTZ
 70
     0
  9
$DIMALTTZ
 70
     0
  9
$DIMUPT
 70
     0
  9
$DIMDEC
 70
     4
  9
$DIMTDEC
 70
     4
  9
$DIMALTU
 70
     2
  9
$DIMALTTD
 70
     2
  9
$DIMTXSTY
  7
Standard
  9
$DIMAUNIT
 70
     0
  9
$DIMADEC
 70
     0
  9
$DIMALTRND
 40
0.0
  9
$DIMAZIN
 70
     0
  9
$DIMDSEP
 70
    46
  9
$DIMATFIT
 70
     3
  9
$DIMFRAC
 70
     0
  9
$DIMLDRBLK
  1

  9
$DIMLUNIT
 70
     2
  9
$DIMLWD
 70
    -2
  9
$DIMLWE
 70
    -2
  9
$DIMTMOVE
 70
     0
  9
$DIMFXL
 40
1.0
  9
$DIMFXLON
 70
     0
  9
$DIMJOGANG
 40
0.7853981633974483
  9
$DIMTFILL
 70
     0
  9
$DIMTFILLCLR
 70
     0
  9
$DIMARCSYM
 70
     0
  9
$DIMLTYPE
  6

  9
$DIMLTEX1
  6

  9
$DIMLTEX2
  6

  9
$DIMTXTDIRECTION
 70
     0
  9
$LUNITS
 70
     2
  9
$LUPREC
 70
     4
  9
$SKETCHINC
 40
0.1
  9
$FILLETRAD
 40
0.0
  9
$AUNITS
 70
     0
  9
$AUPREC
 70
     0
  9
$MENU
  1
.
  9
$ELEVATION
 40
0.0
  9
$PELEVATION
 40
0.0
  9
$THICKNESS
 40
0.0
  9
$LIMCHECK
 70
     0
  9
$CHAMFERA
 40
0.0
  9
$CHAMFERB
 40
0.0
  9
$CHAMFERC
 40
0.0
  9
$CHAMFERD
 40
0.0
  9
$SKPOLY
 70
     0
  9
$TDCREATE
 40
2460947.762280093
  9
$TDUCREATE
 40
2460947.678946759
  9
$TDUPDATE
 40
2460947.768576389
  9
$TDUUPDATE
 40
2460947.685243056
  9
$TDINDWG
 40
0.0062962963
  9
$TDUSRTIMER
 40
0.0062962963
  9
$USRTIMER
 70
     1
  9
$ANGBASE
 50
0.0
  9
$ANGDIR
 70
     0
  9
$PDMODE
 70
     0
  9
$PDSIZE
 40
-1.0
  9
$PLINEWID
 40
0.0
  9
$SPLFRAME
 70
     0
  9
$SPLINETYPE
 70
     6
  9
$SPLINESEGS
 70
     8
  9
$HANDSEED
  5
10369
  9
$SURFTAB1
 70
     6
  9
$SURFTAB2
 70
     6
  9
$SURFTYPE
 70
     6
  9
$SURFU
 70
     6
  9
$SURFV
 70
     6
  9
$UCSBASE
  2

  9
$UCSNAME
  2

  9
$UCSORG
 10
0.0
 20
0.0
 30
0.0
  9
$UCSXDIR
 10
1.0
 20
0.0
 30
0.0
  9
$UCSYDIR
 10
0.0
 20
1.0
 30
0.0
  9
$UCSORTHOREF
  2

  9
$UCSORTHOVIEW
 70
     0
  9
$UCSORGTOP
 10
0.0
 20
0.0
 30
0.0
  9
$UCSORGBOTTOM
 10
0.0
 20
0.0
 30
0.0
  9
$UCSORGLEFT
 10
0.0
 20
0.0
 30
0.0
  9
$UCSORGRIGHT
 10
0.0
 20
0.0
 30
0.0
  9
$UCSORGFRONT
 10
0.0
 20
0.0
 30
0.0
  9
$UCSORGBACK
 10
0.0
 20
0.0
 30
0.0
  9
$PUCSBASE
  2

  9
$PUCSNAME
  2

  9
$PUCSORG
 10
0.0
 20
0.0
 30
0.0
  9
$PUCSXDIR
 10
1.0
 20
0.0
 30
0.0
  9
$PUCSYDIR
 10
0.0
 20
1.0
 30
0.0
  9
$PUCSORTHOREF
  2

  9
$PUCSORTHOVIEW
 70
     0
  9
$PUCSORGTOP
 10
0.0
 20
0.0
 30
0.0
  9
$PUCSORGBOTTOM
 10
0.0
 20
0.0
 30
0.0
  9
$PUCSORGLEFT
 10
0.0
 20
0.0
 30
0.0
  9
$PUCSORGRIGHT
 10
0.0
 20
0.0
 30
0.0
  9
$PUCSORGFRONT
 10
0.0
 20
0.0
 30
0.0
  9
$PUCSORGBACK
 10
0.0
 20
0.0
 30
0.0
  9
$USERI1
 70
     0
  9
$USERI2
 70
     0
  9
$USERI3
 70
     0
  9
$USERI4
 70
     0
  9
$USERI5
 70
     0
  9
$USERR1
 40
0.0
  9
$USERR2
 40
0.0
  9
$USERR3
 40
0.0
  9
$USERR4
 40
0.0
  9
$USERR5
 40
0.0
  9
$WORLDVIEW
 70
     1
  9
$SHADEDGE
 70
     3
  9
$SHADEDIF
 70
    70
  9
$TILEMODE
 70
     1
  9
$MAXACTVP
 70
    16
  9
$PINSBASE
 10
0.0
 20
0.0
 30
0.0
  9
$PLIMCHECK
 70
     0
  9
$PEXTMIN
 10
1.000000000000000E+20
 20
1.000000000000000E+20
 30
1.000000000000000E+20
  9
$PEXTMAX
 10
-1.000000000000000E+20
 20
-1.000000000000000E+20
 30
-1.000000000000000E+20
  9
$PLIMMIN
 10
0.0
 20
0.0
  9
$PLIMMAX
 10
12.0
 20
9.0
  9
$UNITMODE
 70
     0
  9
$VISRETAIN
 70
     0
  9
$PLINEGEN
 70
     1
  9
$PSLTSCALE
 70
     1
  9
$TREEDEPTH
 70
  3020
  9
$CMLSTYLE
  2
Standard
  9
$CMLJUST
 70
     0
  9
$CMLSCALE
 40
1.0
  9
$PROXYGRAPHICS
 70
     1
  9
$MEASUREMENT
 70
     1
  9
$CELWEIGHT
370
    -1
  9
$ENDCAPS
280
     0
  9
$JOINSTYLE
280
     0
  9
$LWDISPLAY
290
     0
  9
$INSUNITS
 70
     4
  9
$HYPERLINKBASE
  1

  9
$STYLESHEET
  1

  9
$XEDIT
290
     1
  9
$CEPSNTYPE
380
     0
  9
$PSTYLEMODE
290
     1
  9
$FINGERPRINTGUID
  2
{05075D02-84BA-394E-BA7B-5488411EECC3}
  9
$VERSIONGUID
  2
{DB6EF8D0-A133-E143-B601-2A7A8A0CDE8C}
  9
$EXTNAMES
290
     1
  9
$PSVPSCALE
 40
0.0
  9
$OLESTARTUP
290
     0
  9
$SORTENTS
280
   127
  9
$INDEXCTL
280
     0
  9
$HIDETEXT
280
     0
  9
$XCLIPFRAME
280
     2
  9
$HALOGAP
280
     0
  9
$OBSCOLOR
 70
   257
  9
$OBSLTYPE
280
     0
  9
$INTERSECTIONDISPLAY
280
     0
  9
$INTERSECTIONCOLOR
 70
   257
  9
$DIMASSOC
280
     1
  9
$PROJECTNAME
  1

  9
$CAMERADISPLAY
290
     0
  9
$LENSLENGTH
 40
50.0
  9
$CAMERAHEIGHT
 40
0.0
  9
$STEPSPERSEC
 40
2.0
  9
$STEPSIZE
 40
6.0
  9
$3DDWFPREC
 40
2.0
  9
$PSOLWIDTH
 40
0.25
  9
$PSOLHEIGHT
 40
4.0
  9
$LOFTANG1
 40
1.570796326794896
  9
$LOFTANG2
 40
1.570796326794896
  9
$LOFTMAG1
 40
0.0
  9
$LOFTMAG2
 40
0.0
  9
$LOFTPARAM
 70
     7
  9
$LOFTNORMALS
280
     1
  9
$LATITUDE
 40
37.795
  9
$LONGITUDE
 40
-122.394
  9
$NORTHDIRECTION
 40
0.0
  9
$TIMEZONE
 70
 -8000
  9
$LIGHTGLYPHDISPLAY
280
     1
  9
$TILEMODELIGHTSYNCH
280
     1
  9
$CMATERIAL
347
10002
  9
$SOLIDHIST
280
     0
  9
$SHOWHIST
280
     1
  9
$DWFFRAME
280
     2
  9
$DGNFRAME
280
     0
  9
$REALWORLDSCALE
290
     1
  9
$INTERFERECOLOR
 62
     1
  9
$INTERFEREOBJVS
345
10024
  9
$INTERFEREVPVS
346
10021
  9
$CSHADOW
280
     0
  9
$SHADOWPLANELOCATION
 40
0.0
  0
ENDSEC
  0
SECTION
  2
CLASSES
  0
CLASS
  1
ACDBDICTIONARYWDFLT
  2
AcDbDictionaryWithDefault
  3
ObjectDBX Classes
 90
        0
 91
        1
280
     0
281
     0
  0
CLASS
  1
DICTIONARYVAR
  2
AcDbDictionaryVar
  3
ObjectDBX Classes
 90
        0
 91
       11
280
     0
281
     0
  0
CLASS
  1
MATERIAL
  2
AcDbMaterial
  3
ObjectDBX Classes
 90
     1153
 91
        3
280
     0
281
     0
  0
CLASS
  1
VISUALSTYLE
  2
AcDbVisualStyle
  3
ObjectDBX Classes
 90
     4095
 91
       24
280
     0
281
     0
  0
CLASS
  1
TABLESTYLE
  2
AcDbTableStyle
  3
ObjectDBX Classes
 90
     4095
 91
        1
280
     0
281
     0
  0
CLASS
  1
SCALE
  2
AcDbScale
  3
ObjectDBX Classes
 90
     1153
 91
       17
280
     0
281
     0
  0
CLASS
  1
MLEADERSTYLE
  2
AcDbMLeaderStyle
  3
ACDB_MLEADERSTYLE_CLASS
 90
     4095
 91
        1
280
     0
281
     0
  0
CLASS
  1
ACDBSECTIONVIEWSTYLE
  2
AcDbSectionViewStyle
  3
ObjectDBX Classes
 90
     1025
 91
        1
280
     0
281
     0
  0
CLASS
  1
ACDBDETAILVIEWSTYLE
  2
AcDbDetailViewStyle
  3
ObjectDBX Classes
 90
     1025
 91
        1
280
     0
281
     0
  0
CLASS
  1
SOLID_BACKGROUND
  2
AcDbSolidBackground
  3
SCENEOE
 90
     4095
 91
        1
280
     0
281
     0
  0
CLASS
  1
NPOCOLLECTION
  2
AcDbImpNonPersistentObjectsCollection
  3
ObjectDBX Classes
 90
     1153
 91
        1
280
     0
281
     0
  0
CLASS
  1
CELLSTYLEMAP
  2
AcDbCellStyleMap
  3
ObjectDBX Classes
 90
     1152
 91
        1
280
     0
281
     0
  0
ENDSEC
  0
SECTION
  2
TABLES
  0
TABLE
  2
VPORT
  5
8
330
0
100
AcDbSymbolTable
 70
     1
  0
VPORT
  5
30
330
8
100
AcDbSymbolTableRecord
100
AcDbViewportTableRecord
  2
*Active
 70
     0
 10
0.0
 20
0.0
 11
1.0
 21
1.0
 12
18219.76873305696
 22
-36510.85076724738
 13
0.0
 23
0.0
 14
10.0
 24
10.0
 15
10.0
 25
10.0
 16
0.0
 26
0.0
 36
162891.1042270688
 17
7792829.241077334
 27
-8264560.260655954
 37
0.0
 40
147599.0308406651
 41
2.138655462184873
 42
50.0
 43
0.0
 44
0.0
 50
0.0
 51
0.0
 71
     0
 72
   100
 73
     1
 74
     3
 75
     1
 76
     1
 77
     0
 78
     0
281
     0
 65
     1
110
0.0
120
0.0
130
0.0
111
1.0
121
0.0
131
0.0
112
0.0
122
1.0
132
0.0
 79
     0
146
0.0
348
10020
 60
     3
 61
     5
292
     1
282
     1
141
0.0
142
0.0
 63
   250
421
  3355443
1001
ACAD_NAV_VCDISPLAY
1070
     3
  0
ENDTAB
  0
TABLE
  2
LTYPE
  5
5
330
0
100
AcDbSymbolTable
 70
    41
  0
LTYPE
  5
14
330
5
100
AcDbSymbolTableRecord
100
AcDbLinetypeTableRecord
  2
BYBLOCK
 70
     0
  3

 72
    65
 73
     0
 40
0.0
  0
LTYPE
  5
15
330
5
100
AcDbSymbolTableRecord
100
AcDbLinetypeTableRecord
  2
BYLAYER
 70
     0
  3

 72
    65
 73
     0
 40
0.0
  0
LTYPE
  5
16
330
5
100
AcDbSymbolTableRecord
100
AcDbLinetypeTableRecord
  2
CONTINUOUS
 70
     0
  3
Solid line
 72
    65
 73
     0
 40
0.0
  0
LTYPE
  5
31
330
5
100
AcDbSymbolTableRecord
100
AcDbLinetypeTableRecord
  2
DOT2
 70
     0
  3
Dot (.5x) ........................................
 72
    65
 73
     2
 40
3.174999999999999
 49
0.1
 74
     0
 49
-3.075
 74
     0
  0
LTYPE
  5
32
330
5
100
AcDbSymbolTableRecord
100
AcDbLinetypeTableRecord
  2
CENTER
 70
     0
  3
Center ____ _ ____ _ ____ _ ____ _ ____ _ ____
 72
    65
 73
     4
 40
50.8
 49
31.75
 74
     0
 49
-6.349999999999999
 74
     0
 49
6.349999999999999
 74
     0
 49
-6.349999999999999
 74
     0
  0
LTYPE
  5
33
330
5
100
AcDbSymbolTableRecord
100
AcDbLinetypeTableRecord
  2
HIDDENX2
 70
     0
  3
Hidden (2x) ____ ____ ____ ____ ____ ____ ____ 
 72
    65
 73
     2
 40
19.05
 49
12.7
 74
     0
 49
-6.349999999999999
 74
     0
  0
LTYPE
  5
34
330
5
100
AcDbSymbolTableRecord
100
AcDbLinetypeTableRecord
  2
DIVIDEX2
 70
     0
  3
Divide (2x) ________  .  .  ________  .  .  _
 72
    65
 73
     6
 40
63.5
 49
25.4
 74
     0
 49
-12.65
 74
     0
 49
0.1
 74
     0
 49
-12.6
 74
     0
 49
0.1
 74
     0
 49
-12.65
 74
     0
  0
LTYPE
  5
35
330
5
100
AcDbSymbolTableRecord
100
AcDbLinetypeTableRecord
  2
CENTER2
 70
     0
  3
Center (.5x) ___ _ ___ _ ___ _ ___ _ ___ _ ___
 72
    65
 73
     4
 40
28.575
 49
19.05
 74
     0
 49
-3.174999999999999
 74
     0
 49
3.174999999999999
 74
     0
 49
-3.174999999999999
 74
     0
  0
LTYPE
  5
36
330
5
100
AcDbSymbolTableRecord
100
AcDbLinetypeTableRecord
  2
DIVIDE
 70
     0
  3
Divide ____ . . ____ . . ____ . . ____ . . ____
 72
    65
 73
     6
 40
31.75000000000001
 49
12.7
 74
     0
 49
-6.299999999999999
 74
     0
 49
0.1
 74
     0
 49
-6.25
 74
     0
 49
0.1
 74
     0
 49
-6.299999999999999
 74
     0
  0
LTYPE
  5
37
330
5
100
AcDbSymbolTableRecord
100
AcDbLinetypeTableRecord
  2
ACAD_ISO12W100
 70
     0
  3
ISO dash double-dot __ . . __ . . __ . . __ . . 
 72
    65
 73
     6
 40
21.0
 49
12.0
 74
     0
 49
-2.95
 74
     0
 49
0.1
 74
     0
 49
-2.9
 74
     0
 49
0.1
 74
     0
 49
-2.95
 74
     0
  0
LTYPE
  5
38
330
5
100
AcDbSymbolTableRecord
100
AcDbLinetypeTableRecord
  2
ACAD_ISO10W100
 70
     0
  3
ISO dash dot __ . __ . __ . __ . __ . __ . __ . 
 72
    65
 73
     4
 40
18.0
 49
12.0
 74
     0
 49
-2.95
 74
     0
 49
0.1
 74
     0
 49
-2.95
 74
     0
  0
LTYPE
  5
39
330
5
100
AcDbSymbolTableRecord
100
AcDbLinetypeTableRecord
  2
DASHDOTX2
 70
     0
  3
Dash dot (2x) ____  .  ____  .  ____  .  ___
 72
    65
 73
     4
 40
50.8
 49
25.4
 74
     0
 49
-12.65
 74
     0
 49
0.1
 74
     0
 49
-12.65
 74
     0
  0
LTYPE
  5
3A
330
5
100
AcDbSymbolTableRecord
100
AcDbLinetypeTableRecord
  2
ACAD_ISO09W100
 70
     0
  3
ISO long-dash double-short-dash ____ __ __ ____
 72
    65
 73
     6
 40
45.0
 49
24.0
 74
     0
 49
-3.0
 74
     0
 49
6.0
 74
     0
 49
-3.0
 74
     0
 49
6.0
 74
     0
 49
-3.0
 74
     0
  0
LTYPE
  5
3B
330
5
100
AcDbSymbolTableRecord
100
AcDbLinetypeTableRecord
  2
ACAD_ISO04W100
 70
     0
  3
ISO long-dash dot ____ . ____ . ____ . ____ . _
 72
    65
 73
     4
 40
30.0
 49
24.0
 74
     0
 49
-2.95
 74
     0
 49
0.1
 74
     0
 49
-2.95
 74
     0
  0
LTYPE
  5
3C
330
5
100
AcDbSymbolTableRecord
100
AcDbLinetypeTableRecord
  2
DASHED2
 70
     0
  3
Dashed (.5x) _ _ _ _ _ _ _ _ _ _ _ _ _ _ _ _ _ 
 72
    65
 73
     2
 40
9.524999999999998
 49
6.349999999999999
 74
     0
 49
-3.174999999999999
 74
     0
  0
LTYPE
  5
3D
330
5
100
AcDbSymbolTableRecord
100
AcDbLinetypeTableRecord
  2
DASHDOT
 70
     0
  3
Dash dot __ . __ . __ . __ . __ . __ . __ . __
 72
    65
 73
     4
 40
25.4
 49
12.7
 74
     0
 49
-6.299999999999999
 74
     0
 49
0.1
 74
     0
 49
-6.299999999999999
 74
     0
  0
LTYPE
  5
3E
330
5
100
AcDbSymbolTableRecord
100
AcDbLinetypeTableRecord
  2
ACAD_ISO06W100
 70
     0
  3
ISO long-dash triple-dot ____ ... ____ ... ____
 72
    65
 73
     8
 40
36.00000000000001
 49
24.0
 74
     0
 49
-2.95
 74
     0
 49
0.1
 74
     0
 49
-2.9
 74
     0
 49
0.1
 74
     0
 49
-2.9
 74
     0
 49
0.1
 74
     0
 49
-2.95
 74
     0
  0
LTYPE
  5
3F
330
5
100
AcDbSymbolTableRecord
100
AcDbLinetypeTableRecord
  2
DIVIDE2
 70
     0
  3
Divide (.5x) __..__..__..__..__..__..__..__.._
 72
    65
 73
     6
 40
15.87499999999999
 49
6.349999999999999
 74
     0
 49
-3.125
 74
     0
 49
0.1
 74
     0
 49
-3.075
 74
     0
 49
0.1
 74
     0
 49
-3.125
 74
     0
  0
LTYPE
  5
40
330
5
100
AcDbSymbolTableRecord
100
AcDbLinetypeTableRecord
  2
ACAD_ISO07W100
 70
     0
  3
ISO dot . . . . . . . . . . . . . . . . . . . . 
 72
    65
 73
     2
 40
3.0
 49
0.1
 74
     0
 49
-2.9
 74
     0
  0
LTYPE
  5
41
330
5
100
AcDbSymbolTableRecord
100
AcDbLinetypeTableRecord
  2
BORDER
 70
     0
  3
Border __ __ . __ __ . __ __ . __ __ . __ __ .
 72
    65
 73
     6
 40
44.45
 49
12.7
 74
     0
 49
-6.349999999999999
 74
     0
 49
12.7
 74
     0
 49
-6.299999999999999
 74
     0
 49
0.1
 74
     0
 49
-6.299999999999999
 74
     0
  0
LTYPE
  5
42
330
5
100
AcDbSymbolTableRecord
100
AcDbLinetypeTableRecord
  2
DOTX2
 70
     0
  3
Dot (2x) .  .  .  .  .  .  .  .  .  .  .  .  .  .
 72
    65
 73
     2
 40
12.7
 49
0.1
 74
     0
 49
-12.6
 74
     0
  0
LTYPE
  5
43
330
5
100
AcDbSymbolTableRecord
100
AcDbLinetypeTableRecord
  2
DASHDOT2
 70
     0
  3
Dash dot (.5x) _._._._._._._._._._._._._._._.
 72
    65
 73
     4
 40
12.7
 49
6.349999999999999
 74
     0
 49
-3.125
 74
     0
 49
0.1
 74
     0
 49
-3.125
 74
     0
  0
LTYPE
  5
44
330
5
100
AcDbSymbolTableRecord
100
AcDbLinetypeTableRecord
  2
PHANTOM
 70
     0
  3
Phantom ______  __  __  ______  __  __  ______ 
 72
    65
 73
     6
 40
63.50000000000001
 49
31.75
 74
     0
 49
-6.349999999999999
 74
     0
 49
6.349999999999999
 74
     0
 49
-6.349999999999999
 74
     0
 49
6.349999999999999
 74
     0
 49
-6.349999999999999
 74
     0
  0
LTYPE
  5
45
330
5
100
AcDbSymbolTableRecord
100
AcDbLinetypeTableRecord
  2
DOT
 70
     0
  3
Dot . . . . . . . . . . . . . . . . . . . . . . . .
 72
    65
 73
     2
 40
6.349999999999999
 49
0.1
 74
     0
 49
-6.25
 74
     0
  0
LTYPE
  5
46
330
5
100
AcDbSymbolTableRecord
100
AcDbLinetypeTableRecord
  2
ACAD_ISO03W100
 70
     0
  3
ISO dash space __    __    __    __    __    __
 72
    65
 73
     2
 40
30.0
 49
12.0
 74
     0
 49
-18.0
 74
     0
  0
LTYPE
  5
47
330
5
100
AcDbSymbolTableRecord
100
AcDbLinetypeTableRecord
  2
ACAD_ISO15W100
 70
     0
  3
ISO double-dash triple-dot __ __ . . . __ __ . .
 72
    65
 73
    10
 40
39.00000000000001
 49
12.0
 74
     0
 49
-3.0
 74
     0
 49
12.0
 74
     0
 49
-2.95
 74
     0
 49
0.1
 74
     0
 49
-2.9
 74
     0
 49
0.1
 74
     0
 49
-2.9
 74
     0
 49
0.1
 74
     0
 49
-2.95
 74
     0
  0
LTYPE
  5
48
330
5
100
AcDbSymbolTableRecord
100
AcDbLinetypeTableRecord
  2
BORDER2
 70
     0
  3
Border (.5x) __.__.__.__.__.__.__.__.__.__.__.
 72
    65
 73
     6
 40
22.225
 49
6.349999999999999
 74
     0
 49
-3.174999999999999
 74
     0
 49
6.349999999999999
 74
     0
 49
-3.125
 74
     0
 49
0.1
 74
     0
 49
-3.125
 74
     0
  0
LTYPE
  5
49
330
5
100
AcDbSymbolTableRecord
100
AcDbLinetypeTableRecord
  2
PHANTOM2
 70
     0
  3
Phantom (.5x) ___ _ _ ___ _ _ ___ _ _ ___ _ _
 72
    65
 73
     6
 40
31.75000000000001
 49
15.875
 74
     0
 49
-3.174999999999999
 74
     0
 49
3.174999999999999
 74
     0
 49
-3.174999999999999
 74
     0
 49
3.174999999999999
 74
     0
 49
-3.174999999999999
 74
     0
  0
LTYPE
  5
4A
330
5
100
AcDbSymbolTableRecord
100
AcDbLinetypeTableRecord
  2
ACAD_ISO08W100
 70
     0
  3
ISO long-dash short-dash ____ __ ____ __ ____ _
 72
    65
 73
     4
 40
36.0
 49
24.0
 74
     0
 49
-3.0
 74
     0
 49
6.0
 74
     0
 49
-3.0
 74
     0
  0
LTYPE
  5
4B
330
5
100
AcDbSymbolTableRecord
100
AcDbLinetypeTableRecord
  2
HIDDEN
 70
     0
  3
Hidden __ __ __ __ __ __ __ __ __ __ __ __ __ __
 72
    65
 73
     2
 40
9.524999999999998
 49
6.349999999999999
 74
     0
 49
-3.174999999999999
 74
     0
  0
LTYPE
  5
4C
330
5
100
AcDbSymbolTableRecord
100
AcDbLinetypeTableRecord
  2
ACAD_ISO02W100
 70
     0
  3
ISO dash __ __ __ __ __ __ __ __ __ __ __ __ __
 72
    65
 73
     2
 40
15.0
 49
12.0
 74
     0
 49
-3.0
 74
     0
  0
LTYPE
  5
4D
330
5
100
AcDbSymbolTableRecord
100
AcDbLinetypeTableRecord
  2
HIDDEN2
 70
     0
  3
Hidden (.5x) _ _ _ _ _ _ _ _ _ _ _ _ _ _ _ _ _ 
 72
    65
 73
     2
 40
4.762499999999999
 49
3.174999999999999
 74
     0
 49
-1.587499999999999
 74
     0
  0
LTYPE
  5
4E
330
5
100
AcDbSymbolTableRecord
100
AcDbLinetypeTableRecord
  2
CENTERX2
 70
     0
  3
Center (2x) ________  __  ________  __  _____
 72
    65
 73
     4
 40
101.6
 49
63.5
 74
     0
 49
-12.7
 74
     0
 49
12.7
 74
     0
 49
-12.7
 74
     0
  0
LTYPE
  5
4F
330
5
100
AcDbSymbolTableRecord
100
AcDbLinetypeTableRecord
  2
ACAD_ISO13W100
 70
     0
  3
ISO double-dash double-dot __ __ . . __ __ . . _
 72
    65
 73
     8
 40
36.00000000000001
 49
12.0
 74
     0
 49
-3.0
 74
     0
 49
12.0
 74
     0
 49
-2.95
 74
     0
 49
0.1
 74
     0
 49
-2.9
 74
     0
 49
0.1
 74
     0
 49
-2.95
 74
     0
  0
LTYPE
  5
50
330
5
100
AcDbSymbolTableRecord
100
AcDbLinetypeTableRecord
  2
ACAD_ISO14W100
 70
     0
  3
ISO dash triple-dot __ . . . __ . . . __ . . . _
 72
    65
 73
     8
 40
24.0
 49
12.0
 74
     0
 49
-2.95
 74
     0
 49
0.1
 74
     0
 49
-2.9
 74
     0
 49
0.1
 74
     0
 49
-2.9
 74
     0
 49
0.1
 74
     0
 49
-2.95
 74
     0
  0
LTYPE
  5
51
330
5
100
AcDbSymbolTableRecord
100
AcDbLinetypeTableRecord
  2
BORDERX2
 70
     0
  3
Border (2x) ____  ____  .  ____  ____  .  ___
 72
    65
 73
     6
 40
88.89999999999998
 49
25.4
 74
     0
 49
-12.7
 74
     0
 49
25.4
 74
     0
 49
-12.65
 74
     0
 49
0.1
 74
     0
 49
-12.65
 74
     0
  0
LTYPE
  5
52
330
5
100
AcDbSymbolTableRecord
100
AcDbLinetypeTableRecord
  2
DASHED
 70
     0
  3
Dashed __ __ __ __ __ __ __ __ __ __ __ __ __ _
 72
    65
 73
     2
 40
19.05
 49
12.7
 74
     0
 49
-6.349999999999999
 74
     0
  0
LTYPE
  5
53
330
5
100
AcDbSymbolTableRecord
100
AcDbLinetypeTableRecord
  2
DASHEDX2
 70
     0
  3
Dashed (2x) ____  ____  ____  ____  ____  ___
 72
    65
 73
     2
 40
38.1
 49
25.4
 74
     0
 49
-12.7
 74
     0
  0
LTYPE
  5
54
330
5
100
AcDbSymbolTableRecord
100
AcDbLinetypeTableRecord
  2
ACAD_ISO05W100
 70
     0
  3
ISO long-dash double-dot ____ .. ____ .. ____ . 
 72
    65
 73
     6
 40
33.00000000000001
 49
24.0
 74
     0
 49
-2.95
 74
     0
 49
0.1
 74
     0
 49
-2.9
 74
     0
 49
0.1
 74
     0
 49
-2.95
 74
     0
  0
LTYPE
  5
55
330
5
100
AcDbSymbolTableRecord
100
AcDbLinetypeTableRecord
  2
ACAD_ISO11W100
 70
     0
  3
ISO double-dash dot __ __ . __ __ . __ __ . __ _
 72
    65
 73
     6
 40
33.0
 49
12.0
 74
     0
 49
-3.0
 74
     0
 49
12.0
 74
     0
 49
-2.95
 74
     0
 49
0.1
 74
     0
 49
-2.95
 74
     0
  0
LTYPE
  5
56
330
5
100
AcDbSymbolTableRecord
100
AcDbLinetypeTableRecord
  2
PHANTOMX2
 70
     0
  3
Phantom (2x) ____________    ____    ____   _
 72
    65
 73
     6
 40
127.0
 49
63.5
 74
     0
 49
-12.7
 74
     0
 49
12.7
 74
     0
 49
-12.7
 74
     0
 49
12.7
 74
     0
 49
-12.7
 74
     0
  0
ENDTAB
  0
TABLE
  2
LAYER
  5
2
330
0
100
AcDbSymbolTable
 70
     3
  0
LAYER
  5
57
102
{ACAD_XDICTIONARY
360
10362
102
}
330
2
100
AcDbSymbolTableRecord
100
AcDbLayerTableRecord
  2
DEFPOINTS
 70
     0
 62
     7
420
 16777215
  6
CONTINUOUS
290
     0
370
    -3
390
F
347
10012
348
0
  0
LAYER
  5
58
102
{ACAD_XDICTIONARY
360
10364
102
}
330
2
100
AcDbSymbolTableRecord
100
AcDbLayerTableRecord
  2
CNN
 70
     0
 62
     5
420
      255
  6
CONTINUOUS
370
    25
390
F
347
10012
348
0
  0
LAYER
  5
10
330
2
100
AcDbSymbolTableRecord
100
AcDbLayerTableRecord
  2
0
 70
     0
 62
     7
420
 16777215
  6
CONTINUOUS
370
    -3
390
F
347
10012
348
0
  0
ENDTAB
  0
TABLE
  2
STYLE
  5
3
330
0
100
AcDbSymbolTable
 70
     1
  0
STYLE
  5
59
330
3
100
AcDbSymbolTableRecord
100
AcDbTextStyleTableRecord
  2
Standard
 70
     0
 40
0.0
 41
1.0
 50
0.0
 71
     0
 42
2.5
  3

  4

1001
ACAD
1000
txt
1071
        0
  0
ENDTAB
  0
TABLE
  2
VIEW
  5
6
330
0
100
AcDbSymbolTable
 70
     0
  0
ENDTAB
  0
TABLE
  2
UCS
  5
7
330
0
100
AcDbSymbolTable
 70
     0
  0
ENDTAB
  0
TABLE
  2
APPID
  5
9
330
0
100
AcDbSymbolTable
 70
     4
  0
APPID
  5
12
330
9
100
AcDbSymbolTableRecord
100
AcDbRegAppTableRecord
  2
ACAD
 70
     0
  0
APPID
  5
5A
330
9
100
AcDbSymbolTableRecord
100
AcDbRegAppTableRecord
  2
QCAD
 70
     0
  0
APPID
  5
10054
330
9
100
AcDbSymbolTableRecord
100
AcDbRegAppTableRecord
  2
ACAD_EXEMPT_FROM_CAD_STANDARDS
 70
     0
  0
APPID
  5
1005F
330
9
100
AcDbSymbolTableRecord
100
AcDbRegAppTableRecord
  2
ACAD_NAV_VCDISPLAY
 70
     0
  0
ENDTAB
  0
TABLE
  2
DIMSTYLE
  5
A
330
0
100
AcDbSymbolTable
 70
     3
100
AcDbDimStyleTable
 71
     1
340
27
  0
DIMSTYLE
105
27
330
A
100
AcDbSymbolTableRecord
100
AcDbDimStyleTableRecord
  2
Standard
 70
     0
 41
0.0
 42
0.0
 43
3.75
 74
     0
 77
     1
 78
     8
140
2.5
141
2.5
143
0.03937007874016
147
0.0
171
     3
172
     1
271
     2
272
     2
274
     3
278
    44
283
     0
284
     8
340
59
  0
ENDTAB
  0
TABLE
  2
BLOCK_RECORD
  5
1
330
0
100
AcDbSymbolTable
 70
    18
  0
BLOCK_RECORD
  5
1F
330
1
100
AcDbSymbolTableRecord
100
AcDbBlockTableRecord
  2
*Model_Space
340
22
 70
     0
280
     1
281
     0
  0
BLOCK_RECORD
  5
1B
330
1
100
AcDbSymbolTableRecord
100
AcDbBlockTableRecord
  2
*Paper_Space
340
1E
 70
     0
280
     1
281
     0
  0
BLOCK_RECORD
  5
23
330
1
100
AcDbSymbolTableRecord
100
AcDbBlockTableRecord
  2
*Paper_Space0
340
26
 70
     0
280
     1
281
     0
  0
BLOCK_RECORD
  5
5B
330
1
100
AcDbSymbolTableRecord
100
AcDbBlockTableRecord
  2
A$Ccc77d5d6
340
0
 70
     0
280
     1
281
     0
  0
BLOCK_RECORD
  5
5C
330
1
100
AcDbSymbolTableRecord
100
AcDbBlockTableRecord
  2
Outlet B
340
0
 70
     0
280
     1
281
     0
  0
ENDTAB
  0
ENDSEC
  0
SECTION
  2
BLOCKS
  0
BLOCK
  5
20
330
1F
100
AcDbEntity
  8
0
100
AcDbBlockBegin
  2
*Model_Space
 70
     0
 10
0.0
 20
0.0
 30
0.0
  3
*Model_Space
  1

  0
ENDBLK
  5
21
330
1F
100
AcDbEntity
  8
0
100
AcDbBlockEnd
  0
BLOCK
  5
1C
330
1B
100
AcDbEntity
 67
     1
  8
0
100
AcDbBlockBegin
  2
*Paper_Space
 70
     0
 10
0.0
 20
0.0
 30
0.0
  3
*Paper_Space
  1

  0
ENDBLK
  5
1D
330
1B
100
AcDbEntity
 67
     1
  8
0
100
AcDbBlockEnd
  0
BLOCK
  5
24
330
23
100
AcDbEntity
 67
     1
  8
0
100
AcDbBlockBegin
  2
*Paper_Space0
 70
     0
 10
0.0
 20
0.0
 30
0.0
  3
*Paper_Space0
  1

  0
ENDBLK
  5
25
330
23
100
AcDbEntity
 67
     1
  8
0
100
AcDbBlockEnd
  0
BLOCK
  5
5D
330
5B
100
AcDbEntity
  8
0
100
AcDbBlockBegin
  2
A$Ccc77d5d6
 70
     0
 10
0.0
 20
0.0
 30
0.0
  3
A$Ccc77d5d6
  1

  0
CIRCLE
  5
5E
330
5B
100
AcDbEntity
  8
0
100
AcDbCircle
 10
15.37133194267451
 20
30.4459009353955
 30
0.0
 40
0.8
  0
CIRCLE
  5
5F
330
5B
100
AcDbEntity
  8
0
100
AcDbCircle
 10
7.247331431721232
 20
22.32140113555566
 30
0.0
 40
0.8
  0
CIRCLE
  5
60
330
5B
100
AcDbEntity
  8
0
100
AcDbCircle
 10
15.37133194267451
 20
6.426060519149898
 30
0.0
 40
0.8
  0
CIRCLE
  5
61
330
5B
100
AcDbEntity
  8
0
100
AcDbCircle
 10
108.2666725590803
 20
22.32140113555567
 30
0.0
 40
0.8
  0
LWPOLYLINE
  5
62
330
5B
100
AcDbEntity
  8
0
100
AcDbPolyline
 90
        4
 70
     1
 43
0.0
 10
0.0
 20
39.03915635550593
 10
122.6952778607255
 20
39.03915635550593
 10
122.6952778607255
 20
0.0
 10
0.0
 20
0.0
  0
ENDBLK
  5
63
330
5B
100
AcDbEntity
  8
0
100
AcDbBlockEnd
  0
BLOCK
  5
64
330
5C
100
AcDbEntity
  8
0
100
AcDbBlockBegin
  2
Outlet B
 70
     0
 10
0.0
 20
0.0
 30
0.0
  3
Outlet B
  1

  0
LINE
  5
65
330
5C
100
AcDbEntity
  8
DEFPOINTS
  6
Continuous
100
AcDbLine
 10
-10.30337292368752
 20
2.345205758298244
 30
0.0
 11
-9.57855310044885
 21
1.922095977802271
 31
0.0
  0
LINE
  5
66
330
5C
100
AcDbEntity
  8
DEFPOINTS
  6
Continuous
100
AcDbLine
 10
-9.578553098472575
 20
2.92209597780226
 30
0.0
 11
-10.31406210715477
 21
2.442910652846692
 31
0.0
  0
LINE
  5
67
330
5C
100
AcDbEntity
  8
DEFPOINTS
  6
Continuous
100
AcDbLine
 10
-2.578553098472575
 20
2.922095977802258
 30
0.0
 11
-9.578553098472575
 21
2.92209597780226
 31
0.0
  0
LINE
  5
68
330
5C
100
AcDbEntity
  8
DEFPOINTS
  6
Continuous
100
AcDbLine
 10
-2.57855310044885
 20
1.922095977802273
 30
0.0
 11
-9.57855310044885
 21
1.922095977802271
 31
0.0
  0
ARC
  5
69
330
5C
100
AcDbEntity
  8
DEFPOINTS
  6
Continuous
100
AcDbCircle
 10
-1.954053298632736
 20
2.42209597780226
 30
0.0
 40
0.7999999999999985
100
AcDbArc
 50
218.6821874534894
 51
141.3178125465105
  0
ENDBLK
  5
6A
330
5C
100
AcDbEntity
  8
0
100
AcDbBlockEnd
  0
ENDSEC
  0
SECTION
  2
ENTITIES
  0
LINE
  5
6B
330
1F
100
AcDbEntity
  8
DEFPOINTS
  6
Continuous
100
AcDbLine
 10
7813026.789938045
 20
-8263966.203422381
 30
0.0
 11
7813658.627277596
 21
-8264337.011374577
 31
0.0
  0
LINE
  5
6C
330
1F
100
AcDbEntity
  8
DEFPOINTS
  6
Continuous
100
AcDbLine
 10
7813658.627279573
 20
-8263337.011374579
 30
0.0
 11
7813026.789938045
 21
-8263754.482622379
 31
0.0
  0
LINE
  5
6D
330
1F
100
AcDbEntity
  8
DEFPOINTS
  6
Continuous
100
AcDbLine
 10
7815762.927898205
 20
-8263337.011374579
 30
0.0
 11
7813658.627279573
 21
-8263337.011374579
 31
0.0
  0
LINE
  5
6E
330
1F
100
AcDbEntity
  8
DEFPOINTS
  6
Continuous
100
AcDbLine
 10
7815762.927898205
 20
-8264337.011374577
 30
0.0
 11
7813658.627277596
 21
-8264337.011374577
 31
0.0
  0
ARC
  5
6F
330
1F
100
AcDbEntity
  8
DEFPOINTS
  6
Continuous
100
AcDbCircle
 10
7816387.427698046
 20
-8263837.011374578
 30
0.0
 40
799.9999999999985
100
AcDbArc
 50
218.6822172138222
 51
141.3177827861778
  0
LINE
  5
70
330
1F
100
AcDbEntity
  8
DEFPOINTS
  6
Continuous
100
AcDbLine
 10
7779707.743250901
 20
-8263881.521950759
 30
0.0
 11
7779793.457528044
 21
-8263795.807673616
 31
0.0
  0
LINE
  5
71
330
1F
100
AcDbEntity
  8
DEFPOINTS
  6
Continuous
100
AcDbLine
 10
7779793.457528044
 20
-8263795.807673616
 30
0.0
 11
7779879.171805187
 21
-8263881.521950759
 31
0.0
  0
LINE
  5
72
330
1F
100
AcDbEntity
  8
DEFPOINTS
  6
Continuous
100
AcDbLine
 10
7779879.171805187
 20
-8263881.521950759
 30
0.0
 11
7779964.886082329
 21
-8263795.807673616
 31
0.0
  0
LINE
  5
73
330
1F
100
AcDbEntity
  8
DEFPOINTS
  6
Continuous
100
AcDbLine
 10
7779964.886082329
 20
-8263795.807673616
 30
0.0
 11
7780050.600359473
 21
-8263881.521950759
 31
0.0
  0
LINE
  5
74
330
1F
100
AcDbEntity
  8
DEFPOINTS
  6
Continuous
100
AcDbLine
 10
7780050.600359473
 20
-8263881.521950759
 30
0.0
 11
7780136.314636616
 21
-8263795.807673616
 31
0.0
  0
LINE
  5
75
330
1F
100
AcDbEntity
  8
DEFPOINTS
  6
Continuous
100
AcDbLine
 10
7780136.314636616
 20
-8263795.807673616
 30
0.0
 11
7780222.028913758
 21
-8263881.521950759
 31
0.0
  0
LINE
  5
76
330
1F
100
AcDbEntity
  8
DEFPOINTS
  6
Continuous
100
AcDbLine
 10
7780222.028913758
 20
-8263881.521950759
 30
0.0
 11
7780307.743190901
 21
-8263795.807673616
 31
0.0
  0
LINE
  5
77
330
1F
100
AcDbEntity
  8
DEFPOINTS
  6
Continuous
100
AcDbLine
 10
7780307.743190901
 20
-8263795.807673616
 30
0.0
 11
7780393.457468044
 21
-8263881.521950759
 31
0.0
  0
LINE
  5
78
330
1F
100
AcDbEntity
  8
DEFPOINTS
  6
Continuous
100
AcDbLine
 10
7780393.457468044
 20
-8263881.521950759
 30
0.0
 11
7780479.171745187
 21
-8263795.807673616
 31
0.0
  0
LINE
  5
79
330
1F
100
AcDbEntity
  8
DEFPOINTS
  6
Continuous
100
AcDbLine
 10
7780479.171745187
 20
-8263795.807673616
 30
0.0
 11
7780564.88602233
 21
-8263881.521950759
 31
0.0
  0
LINE
  5
7A
330
1F
100
AcDbEntity
  8
DEFPOINTS
  6
Continuous
100
AcDbLine
 10
7780564.88602233
 20
-8263881.521950759
 30
0.0
 11
7780650.600299472
 21
-8263795.807673616
 31
0.0
  0
LINE
  5
7B
330
1F
100
AcDbEntity
  8
DEFPOINTS
  6
Continuous
100
AcDbLine
 10
7780650.600299472
 20
-8263795.807673616
 30
0.0
 11
7780736.314576615
 21
-8263881.521950759
 31
0.0
  0
LINE
  5
7C
330
1F
100
AcDbEntity
  8
DEFPOINTS
  6
Continuous
100
AcDbLine
 10
7780736.314576615
 20
-8263881.521950759
 30
0.0
 11
7780822.028853759
 21
-8263795.807673616
 31
0.0
  0
LINE
  5
7D
330
1F
100
AcDbEntity
  8
DEFPOINTS
  6
Continuous
100
AcDbLine
 10
7780822.028853759
 20
-8263795.807673616
 30
0.0
 11
7780907.743130901
 21
-8263881.521950759
 31
0.0
  0
LINE
  5
7E
330
1F
100
AcDbEntity
  8
DEFPOINTS
  6
Continuous
100
AcDbLine
 10
7780907.743130901
 20
-8263881.521950759
 30
0.0
 11
7780993.457408044
 21
-8263795.807673616
 31
0.0
  0
LINE
  5
7F
330
1F
100
AcDbEntity
  8
DEFPOINTS
  6
Continuous
100
AcDbLine
 10
7780993.457408044
 20
-8263795.807673616
 30
0.0
 11
7781079.171685187
 21
-8263881.521950759
 31
0.0
  0
LINE
  5
80
330
1F
100
AcDbEntity
  8
DEFPOINTS
  6
Continuous
100
AcDbLine
 10
7781079.171685187
 20
-8263881.521950759
 30
0.0
 11
7781164.88596233
 21
-8263795.807673616
 31
0.0
  0
LINE
  5
81
330
1F
100
AcDbEntity
  8
DEFPOINTS
  6
Continuous
100
AcDbLine
 10
7781164.88596233
 20
-8263795.807673616
 30
0.0
 11
7781250.600239473
 21
-8263881.521950759
 31
0.0
  0
LINE
  5
82
330
1F
100
AcDbEntity
  8
DEFPOINTS
  6
Continuous
100
AcDbLine
 10
7781250.600239473
 20
-8263881.521950759
 30
0.0
 11
7781336.314516615
 21
-8263795.807673616
 31
0.0
  0
LINE
  5
83
330
1F
100
AcDbEntity
  8
DEFPOINTS
  6
Continuous
100
AcDbLine
 10
7781336.314516615
 20
-8263795.807673616
 30
0.0
 11
7781422.028793758
 21
-8263881.521950759
 31
0.0
  0
LINE
  5
84
330
1F
100
AcDbEntity
  8
DEFPOINTS
  6
Continuous
100
AcDbLine
 10
7781422.028793758
 20
-8263881.521950759
 30
0.0
 11
7781507.743070902
 21
-8263795.807673616
 31
0.0
  0
LINE
  5
85
330
1F
100
AcDbEntity
  8
DEFPOINTS
  6
Continuous
100
AcDbLine
 10
7781507.743070902
 20
-8263795.807673616
 30
0.0
 11
7781593.457348044
 21
-8263881.521950759
 31
0.0
  0
LINE
  5
86
330
1F
100
AcDbEntity
  8
DEFPOINTS
  6
Continuous
100
AcDbLine
 10
7781593.457348044
 20
-8263881.521950759
 30
0.0
 11
7781679.171625187
 21
-8263795.807673616
 31
0.0
  0
LINE
  5
87
330
1F
100
AcDbEntity
  8
DEFPOINTS
  6
Continuous
100
AcDbLine
 10
7781679.171625187
 20
-8263795.807673616
 30
0.0
 11
7781764.88590233
 21
-8263881.521950759
 31
0.0
  0
LINE
  5
88
330
1F
100
AcDbEntity
  8
DEFPOINTS
  6
Continuous
100
AcDbLine
 10
7781764.88590233
 20
-8263881.521950759
 30
0.0
 11
7781850.600179473
 21
-8263795.807673616
 31
0.0
  0
LINE
  5
89
330
1F
100
AcDbEntity
  8
DEFPOINTS
  6
Continuous
100
AcDbLine
 10
7781850.600179473
 20
-8263795.807673616
 30
0.0
 11
7781936.314456616
 21
-8263881.521950759
 31
0.0
  0
LINE
  5
8A
330
1F
100
AcDbEntity
  8
DEFPOINTS
  6
Continuous
100
AcDbLine
 10
7781936.314456616
 20
-8263881.521950759
 30
0.0
 11
7782022.028733758
 21
-8263795.807673616
 31
0.0
  0
LINE
  5
8B
330
1F
100
AcDbEntity
  8
DEFPOINTS
  6
Continuous
100
AcDbLine
 10
7782022.028733758
 20
-8263795.807673616
 30
0.0
 11
7782107.743010901
 21
-8263881.521950759
 31
0.0
  0
LINE
  5
8C
330
1F
100
AcDbEntity
  8
DEFPOINTS
  6
Continuous
100
AcDbLine
 10
7782107.743010901
 20
-8263881.521950759
 30
0.0
 11
7782193.457288045
 21
-8263795.807673616
 31
0.0
  0
LINE
  5
8D
330
1F
100
AcDbEntity
  8
DEFPOINTS
  6
Continuous
100
AcDbLine
 10
7782193.457288045
 20
-8263795.807673616
 30
0.0
 11
7782279.171565187
 21
-8263881.521950759
 31
0.0
  0
LINE
  5
8E
330
1F
100
AcDbEntity
  8
DEFPOINTS
  6
Continuous
100
AcDbLine
 10
7782279.171565187
 20
-8263881.521950759
 30
0.0
 11
7782364.88584233
 21
-8263795.807673616
 31
0.0
  0
LINE
  5
8F
330
1F
100
AcDbEntity
  8
DEFPOINTS
  6
Continuous
100
AcDbLine
 10
7782364.88584233
 20
-8263795.807673616
 30
0.0
 11
7782450.600119473
 21
-8263881.521950759
 31
0.0
  0
LINE
  5
90
330
1F
100
AcDbEntity
  8
DEFPOINTS
  6
Continuous
100
AcDbLine
 10
7782450.600119473
 20
-8263881.521950759
 30
0.0
 11
7782536.314396616
 21
-8263795.807673616
 31
0.0
  0
LINE
  5
91
330
1F
100
AcDbEntity
  8
DEFPOINTS
  6
Continuous
100
AcDbLine
 10
7782536.314396616
 20
-8263795.807673616
 30
0.0
 11
7782622.028673759
 21
-8263881.521950759
 31
0.0
  0
LINE
  5
92
330
1F
100
AcDbEntity
  8
DEFPOINTS
  6
Continuous
100
AcDbLine
 10
7782622.028673759
 20
-8263881.521950759
 30
0.0
 11
7782707.742950901
 21
-8263795.807673616
 31
0.0
  0
LINE
  5
93
330
1F
100
AcDbEntity
  8
DEFPOINTS
  6
Continuous
100
AcDbLine
 10
7782707.742950901
 20
-8263795.807673616
 30
0.0
 11
7782793.457228044
 21
-8263881.521950759
 31
0.0
  0
LINE
  5
94
330
1F
100
AcDbEntity
  8
DEFPOINTS
  6
Continuous
100
AcDbLine
 10
7782793.457228044
 20
-8263881.521950759
 30
0.0
 11
7782879.171505187
 21
-8263795.807673616
 31
0.0
  0
LINE
  5
95
330
1F
100
AcDbEntity
  8
DEFPOINTS
  6
Continuous
100
AcDbLine
 10
7782879.171505187
 20
-8263795.807673616
 30
0.0
 11
7782964.88578233
 21
-8263881.521950759
 31
0.0
  0
LINE
  5
96
330
1F
100
AcDbEntity
  8
DEFPOINTS
  6
Continuous
100
AcDbLine
 10
7782964.88578233
 20
-8263881.521950759
 30
0.0
 11
7783050.600059473
 21
-8263795.807673616
 31
0.0
  0
LINE
  5
97
330
1F
100
AcDbEntity
  8
DEFPOINTS
  6
Continuous
100
AcDbLine
 10
7783050.600059473
 20
-8263795.807673616
 30
0.0
 11
7783136.314336616
 21
-8263881.521950759
 31
0.0
  0
LINE
  5
98
330
1F
100
AcDbEntity
  8
DEFPOINTS
  6
Continuous
100
AcDbLine
 10
7783136.314336616
 20
-8263881.521950759
 30
0.0
 11
7783222.028613758
 21
-8263795.807673616
 31
0.0
  0
LINE
  5
99
330
1F
100
AcDbEntity
  8
DEFPOINTS
  6
Continuous
100
AcDbLine
 10
7783222.028613758
 20
-8263795.807673616
 30
0.0
 11
7783307.742890902
 21
-8263881.521950759
 31
0.0
  0
LINE
  5
9A
330
1F
100
AcDbEntity
  8
DEFPOINTS
  6
Continuous
100
AcDbLine
 10
7783307.742890902
 20
-8263881.521950759
 30
0.0
 11
7783393.457168044
 21
-8263795.807673616
 31
0.0
  0
LINE
  5
9B
330
1F
100
AcDbEntity
  8
DEFPOINTS
  6
Continuous
100
AcDbLine
 10
7783393.457168044
 20
-8263795.807673616
 30
0.0
 11
7783479.171445187
 21
-8263881.521950759
 31
0.0
  0
LINE
  5
9C
330
1F
100
AcDbEntity
  8
DEFPOINTS
  6
Continuous
100
AcDbLine
 10
7783479.171445187
 20
-8263881.521950759
 30
0.0
 11
7783564.88572233
 21
-8263795.807673616
 31
0.0
  0
LINE
  5
9D
330
1F
100
AcDbEntity
  8
DEFPOINTS
  6
Continuous
100
AcDbLine
 10
7783564.88572233
 20
-8263795.807673616
 30
0.0
 11
7783650.599999473
 21
-8263881.521950759
 31
0.0
  0
LINE
  5
9F
330
1F
100
AcDbEntity
  8
DEFPOINTS
  6
Continuous
100
AcDbLine
 10
7789026.789938045
 20
-8263966.203422381
 30
0.0
 11
7810026.789938044
 21
-8263966.203422381
 31
0.0
  0
LINE
  5
A0
330
1F
100
AcDbEntity
  8
DEFPOINTS
  6
Continuous
100
AcDbLine
 10
7789026.789938045
 20
-8263909.84052238
 30
0.0
 11
7789026.789938045
 21
-8263966.203422381
 31
0.0
  0
LINE
  5
A1
330
1F
100
AcDbEntity
  8
DEFPOINTS
  6
Continuous
100
AcDbLine
 10
7789026.789938045
 20
-8263754.482622379
 30
0.0
 11
7799526.789938044
 21
-8249706.111372381
 31
0.0
  0
LINE
  5
A2
330
1F
100
AcDbEntity
  8
DEFPOINTS
  6
Continuous
100
AcDbLine
 10
7799526.789938044
 20
-8249706.111372381
 30
0.0
 11
7810026.789938044
 21
-8263754.482622379
 31
0.0
  0
LINE
  5
A3
330
1F
100
AcDbEntity
  8
DEFPOINTS
  6
Continuous
100
AcDbLine
 10
7789275.824778045
 20
-8263754.482622379
 30
0.0
 11
7799526.789938044
 21
-8250039.30507238
 31
0.0
  0
LINE
  5
A4
330
1F
100
AcDbEntity
  8
DEFPOINTS
  6
Continuous
100
AcDbLine
 10
7799526.789938044
 20
-8250039.30507238
 30
0.0
 11
7809777.755098044
 21
-8263754.482622379
 31
0.0
  0
LINE
  5
A5
330
1F
100
AcDbEntity
  8
DEFPOINTS
  6
Continuous
100
AcDbLine
 10
7789519.873528044
 20
-8263754.482622379
 30
0.0
 11
7799526.789938044
 21
-8253798.435212381
 31
0.0
  0
LINE
  5
A6
330
1F
100
AcDbEntity
  8
DEFPOINTS
  6
Continuous
100
AcDbLine
 10
7789295.824778045
 20
-8263754.482622379
 30
0.0
 11
7799526.789938044
 21
-8253575.52538238
 31
0.0
  0
LINE
  5
A7
330
1F
100
AcDbEntity
  8
DEFPOINTS
  6
Continuous
100
AcDbLine
 10
7799526.789938044
 20
-8253798.435212381
 30
0.0
 11
7809533.706348045
 21
-8263754.482622379
 31
0.0
  0
LINE
  5
A8
330
1F
100
AcDbEntity
  8
DEFPOINTS
  6
Continuous
100
AcDbLine
 10
7799526.789938044
 20
-8253575.52538238
 30
0.0
 11
7809757.755098045
 21
-8263754.482622379
 31
0.0
  0
LINE
  5
A9
330
1F
100
AcDbEntity
  8
DEFPOINTS
  6
Continuous
100
AcDbLine
 10
7789026.789938045
 20
-8263810.845522382
 30
0.0
 11
7789026.789938045
 21
-8263754.482622379
 31
0.0
  0
LINE
  5
AB
330
1F
100
AcDbEntity
  8
DEFPOINTS
  6
Continuous
100
AcDbLine
 10
7789519.873528044
 20
-8263754.482622379
 30
0.0
 11
7809533.706348045
 21
-8263754.482622379
 31
0.0
  0
LINE
  5
AC
330
1F
100
AcDbEntity
  8
DEFPOINTS
  6
Continuous
100
AcDbLine
 10
7789275.824778045
 20
-8263754.482622379
 30
0.0
 11
7789295.824778045
 21
-8263754.482622379
 31
0.0
  0
LINE
  5
AD
330
1F
100
AcDbEntity
  8
DEFPOINTS
  6
Continuous
100
AcDbLine
 10
7809757.755098045
 20
-8263754.482622379
 30
0.0
 11
7809777.755098044
 21
-8263754.482622379
 31
0.0
  0
LINE
  5
AE
330
1F
100
AcDbEntity
  8
DEFPOINTS
  6
Continuous
100
AcDbLine
 10
7810026.789938044
 20
-8263966.203422381
 30
0.0
 11
7813026.789938045
 21
-8263966.203422381
 31
0.0
  0
LINE
  5
AF
330
1F
100
AcDbEntity
  8
DEFPOINTS
  6
Continuous
100
AcDbLine
 10
7810026.789938044
 20
-8263754.482622379
 30
0.0
 11
7813026.789938045
 21
-8263754.482622379
 31
0.0
  0
LINE
  5
B0
330
1F
100
AcDbEntity
  8
DEFPOINTS
  6
Continuous
100
AcDbLine
 10
7783650.599999473
 20
-8263839.095522186
 30
0.0
 11
7783564.88572233
 21
-8263753.381245043
 31
0.0
  0
LINE
  5
B1
330
1F
100
AcDbEntity
  8
DEFPOINTS
  6
Continuous
100
AcDbLine
 10
7783564.88572233
 20
-8263753.381245043
 30
0.0
 11
7783479.171445187
 21
-8263839.095522186
 31
0.0
  0
LINE
  5
B2
330
1F
100
AcDbEntity
  8
DEFPOINTS
  6
Continuous
100
AcDbLine
 10
7783479.171445187
 20
-8263839.095522186
 30
0.0
 11
7783393.457168044
 21
-8263753.381245043
 31
0.0
  0
LINE
  5
B3
330
1F
100
AcDbEntity
  8
DEFPOINTS
  6
Continuous
100
AcDbLine
 10
7783393.457168044
 20
-8263753.381245043
 30
0.0
 11
7783307.742890902
 21
-8263839.095522186
 31
0.0
  0
LINE
  5
B4
330
1F
100
AcDbEntity
  8
DEFPOINTS
  6
Continuous
100
AcDbLine
 10
7783307.742890902
 20
-8263839.095522186
 30
0.0
 11
7783222.028613758
 21
-8263753.381245043
 31
0.0
  0
LINE
  5
B5
330
1F
100
AcDbEntity
  8
DEFPOINTS
  6
Continuous
100
AcDbLine
 10
7783222.028613758
 20
-8263753.381245043
 30
0.0
 11
7783136.314336616
 21
-8263839.095522186
 31
0.0
  0
LINE
  5
B6
330
1F
100
AcDbEntity
  8
DEFPOINTS
  6
Continuous
100
AcDbLine
 10
7783136.314336616
 20
-8263839.095522186
 30
0.0
 11
7783050.600059473
 21
-8263753.381245043
 31
0.0
  0
LINE
  5
B7
330
1F
100
AcDbEntity
  8
DEFPOINTS
  6
Continuous
100
AcDbLine
 10
7783050.600059473
 20
-8263753.381245043
 30
0.0
 11
7782964.88578233
 21
-8263839.095522186
 31
0.0
  0
LINE
  5
B8
330
1F
100
AcDbEntity
  8
DEFPOINTS
  6
Continuous
100
AcDbLine
 10
7782964.88578233
 20
-8263839.095522186
 30
0.0
 11
7782879.171505187
 21
-8263753.381245043
 31
0.0
  0
LINE
  5
B9
330
1F
100
AcDbEntity
  8
DEFPOINTS
  6
Continuous
100
AcDbLine
 10
7782879.171505187
 20
-8263753.381245043
 30
0.0
 11
7782793.457228044
 21
-8263839.095522186
 31
0.0
  0
LINE
  5
BA
330
1F
100
AcDbEntity
  8
DEFPOINTS
  6
Continuous
100
AcDbLine
 10
7782793.457228044
 20
-8263839.095522186
 30
0.0
 11
7782707.742950901
 21
-8263753.381245043
 31
0.0
  0
LINE
  5
BB
330
1F
100
AcDbEntity
  8
DEFPOINTS
  6
Continuous
100
AcDbLine
 10
7782707.742950901
 20
-8263753.381245043
 30
0.0
 11
7782622.028673759
 21
-8263839.095522186
 31
0.0
  0
LINE
  5
BC
330
1F
100
AcDbEntity
  8
DEFPOINTS
  6
Continuous
100
AcDbLine
 10
7782622.028673759
 20
-8263839.095522186
 30
0.0
 11
7782536.314396616
 21
-8263753.381245043
 31
0.0
  0
LINE
  5
BD
330
1F
100
AcDbEntity
  8
DEFPOINTS
  6
Continuous
100
AcDbLine
 10
7782536.314396616
 20
-8263753.381245043
 30
0.0
 11
7782450.600119473
 21
-8263839.095522186
 31
0.0
  0
LINE
  5
BE
330
1F
100
AcDbEntity
  8
DEFPOINTS
  6
Continuous
100
AcDbLine
 10
7782450.600119473
 20
-8263839.095522186
 30
0.0
 11
7782364.88584233
 21
-8263753.381245043
 31
0.0
  0
LINE
  5
BF
330
1F
100
AcDbEntity
  8
DEFPOINTS
  6
Continuous
100
AcDbLine
 10
7782364.88584233
 20
-8263753.381245043
 30
0.0
 11
7782279.171565187
 21
-8263839.095522186
 31
0.0
  0
LINE
  5
C0
330
1F
100
AcDbEntity
  8
DEFPOINTS
  6
Continuous
100
AcDbLine
 10
7782279.171565187
 20
-8263839.095522186
 30
0.0
 11
7782193.457288045
 21
-8263753.381245043
 31
0.0
  0
LINE
  5
C1
330
1F
100
AcDbEntity
  8
DEFPOINTS
  6
Continuous
100
AcDbLine
 10
7782193.457288045
 20
-8263753.381245043
 30
0.0
 11
7782107.743010901
 21
-8263839.095522186
 31
0.0
  0
LINE
  5
C2
330
1F
100
AcDbEntity
  8
DEFPOINTS
  6
Continuous
100
AcDbLine
 10
7782107.743010901
 20
-8263839.095522186
 30
0.0
 11
7782022.028733758
 21
-8263753.381245043
 31
0.0
  0
LINE
  5
C3
330
1F
100
AcDbEntity
  8
DEFPOINTS
  6
Continuous
100
AcDbLine
 10
7782022.028733758
 20
-8263753.381245043
 30
0.0
 11
7781936.314456616
 21
-8263839.095522186
 31
0.0
  0
LINE
  5
C4
330
1F
100
AcDbEntity
  8
DEFPOINTS
  6
Continuous
100
AcDbLine
 10
7781936.314456616
 20
-8263839.095522186
 30
0.0
 11
7781850.600179473
 21
-8263753.381245043
 31
0.0
  0
LINE
  5
C5
330
1F
100
AcDbEntity
  8
DEFPOINTS
  6
Continuous
100
AcDbLine
 10
7781850.600179473
 20
-8263753.381245043
 30
0.0
 11
7781764.88590233
 21
-8263839.095522186
 31
0.0
  0
LINE
  5
C6
330
1F
100
AcDbEntity
  8
DEFPOINTS
  6
Continuous
100
AcDbLine
 10
7781764.88590233
 20
-8263839.095522186
 30
0.0
 11
7781679.171625187
 21
-8263753.381245043
 31
0.0
  0
LINE
  5
C7
330
1F
100
AcDbEntity
  8
DEFPOINTS
  6
Continuous
100
AcDbLine
 10
7781679.171625187
 20
-8263753.381245043
 30
0.0
 11
7781593.457348044
 21
-8263839.095522186
 31
0.0
  0
LINE
  5
C8
330
1F
100
AcDbEntity
  8
DEFPOINTS
  6
Continuous
100
AcDbLine
 10
7781593.457348044
 20
-8263839.095522186
 30
0.0
 11
7781507.743070902
 21
-8263753.381245043
 31
0.0
  0
LINE
  5
C9
330
1F
100
AcDbEntity
  8
DEFPOINTS
  6
Continuous
100
AcDbLine
 10
7781507.743070902
 20
-8263753.381245043
 30
0.0
 11
7781422.028793758
 21
-8263839.095522186
 31
0.0
  0
LINE
  5
CA
330
1F
100
AcDbEntity
  8
DEFPOINTS
  6
Continuous
100
AcDbLine
 10
7781422.028793758
 20
-8263839.095522186
 30
0.0
 11
7781336.314516615
 21
-8263753.381245043
 31
0.0
  0
LINE
  5
CB
330
1F
100
AcDbEntity
  8
DEFPOINTS
  6
Continuous
100
AcDbLine
 10
7781336.314516615
 20
-8263753.381245043
 30
0.0
 11
7781250.600239473
 21
-8263839.095522186
 31
0.0
  0
LINE
  5
CC
330
1F
100
AcDbEntity
  8
DEFPOINTS
  6
Continuous
100
AcDbLine
 10
7781250.600239473
 20
-8263839.095522186
 30
0.0
 11
7781164.88596233
 21
-8263753.381245043
 31
0.0
  0
LINE
  5
CD
330
1F
100
AcDbEntity
  8
DEFPOINTS
  6
Continuous
100
AcDbLine
 10
7781164.88596233
 20
-8263753.381245043
 30
0.0
 11
7781079.171685187
 21
-8263839.095522186
 31
0.0
  0
LINE
  5
CE
330
1F
100
AcDbEntity
  8
DEFPOINTS
  6
Continuous
100
AcDbLine
 10
7781079.171685187
 20
-8263839.095522186
 30
0.0
 11
7780993.457408044
 21
-8263753.381245043
 31
0.0
  0
LINE
  5
CF
330
1F
100
AcDbEntity
  8
DEFPOINTS
  6
Continuous
100
AcDbLine
 10
7780993.457408044
 20
-8263753.381245043
 30
0.0
 11
7780907.743130901
 21
-8263839.095522186
 31
0.0
  0
LINE
  5
D0
330
1F
100
AcDbEntity
  8
DEFPOINTS
  6
Continuous
100
AcDbLine
 10
7780907.743130901
 20
-8263839.095522186
 30
0.0
 11
7780822.028853759
 21
-8263753.381245043
 31
0.0
  0
LINE
  5
D1
330
1F
100
AcDbEntity
  8
DEFPOINTS
  6
Continuous
100
AcDbLine
 10
7780822.028853759
 20
-8263753.381245043
 30
0.0
 11
7780736.314576615
 21
-8263839.095522186
 31
0.0
  0
LINE
  5
D2
330
1F
100
AcDbEntity
  8
DEFPOINTS
  6
Continuous
100
AcDbLine
 10
7780736.314576615
 20
-8263839.095522186
 30
0.0
 11
7780650.600299472
 21
-8263753.381245043
 31
0.0
  0
LINE
  5
D3
330
1F
100
AcDbEntity
  8
DEFPOINTS
  6
Continuous
100
AcDbLine
 10
7780650.600299472
 20
-8263753.381245043
 30
0.0
 11
7780564.88602233
 21
-8263839.095522186
 31
0.0
  0
LINE
  5
D4
330
1F
100
AcDbEntity
  8
DEFPOINTS
  6
Continuous
100
AcDbLine
 10
7780564.88602233
 20
-8263839.095522186
 30
0.0
 11
7780479.171745187
 21
-8263753.381245043
 31
0.0
  0
LINE
  5
D5
330
1F
100
AcDbEntity
  8
DEFPOINTS
  6
Continuous
100
AcDbLine
 10
7780479.171745187
 20
-8263753.381245043
 30
0.0
 11
7780393.457468044
 21
-8263839.095522186
 31
0.0
  0
LINE
  5
D6
330
1F
100
AcDbEntity
  8
DEFPOINTS
  6
Continuous
100
AcDbLine
 10
7780393.457468044
 20
-8263839.095522186
 30
0.0
 11
7780307.743190901
 21
-8263753.381245043
 31
0.0
  0
LINE
  5
D7
330
1F
100
AcDbEntity
  8
DEFPOINTS
  6
Continuous
100
AcDbLine
 10
7780307.743190901
 20
-8263753.381245043
 30
0.0
 11
7780222.028913758
 21
-8263839.095522186
 31
0.0
  0
LINE
  5
D8
330
1F
100
AcDbEntity
  8
DEFPOINTS
  6
Continuous
100
AcDbLine
 10
7780222.028913758
 20
-8263839.095522186
 30
0.0
 11
7780136.314636616
 21
-8263753.381245043
 31
0.0
  0
LINE
  5
D9
330
1F
100
AcDbEntity
  8
DEFPOINTS
  6
Continuous
100
AcDbLine
 10
7780136.314636616
 20
-8263753.381245043
 30
0.0
 11
7780050.600359473
 21
-8263839.095522186
 31
0.0
  0
LINE
  5
DA
330
1F
100
AcDbEntity
  8
DEFPOINTS
  6
Continuous
100
AcDbLine
 10
7780050.600359473
 20
-8263839.095522186
 30
0.0
 11
7779964.886082329
 21
-8263753.381245043
 31
0.0
  0
LINE
  5
DB
330
1F
100
AcDbEntity
  8
DEFPOINTS
  6
Continuous
100
AcDbLine
 10
7779964.886082329
 20
-8263753.381245043
 30
0.0
 11
7779879.171805187
 21
-8263839.095522186
 31
0.0
  0
LINE
  5
DC
330
1F
100
AcDbEntity
  8
DEFPOINTS
  6
Continuous
100
AcDbLine
 10
7779879.171805187
 20
-8263839.095522186
 30
0.0
 11
7779793.457528044
 21
-8263753.381245043
 31
0.0
  0
LINE
  5
DD
330
1F
100
AcDbEntity
  8
DEFPOINTS
  6
Continuous
100
AcDbLine
 10
7779793.457528044
 20
-8263753.381245043
 30
0.0
 11
7779707.743250901
 21
-8263839.095522186
 31
0.0
  0
LINE
  5
DF
330
1F
100
AcDbEntity
  8
DEFPOINTS
  6
Continuous
100
AcDbLine
 10
7778895.054967574
 20
-8263332.950302682
 30
0.0
 11
7777895.054967575
 21
-8263332.950302682
 31
0.0
  0
LINE
  5
E0
330
1F
100
AcDbEntity
  8
DEFPOINTS
  6
Continuous
100
AcDbLine
 10
7777895.054967575
 20
-8263332.950302682
 30
0.0
 11
7777895.054967575
 21
-8256332.950302683
 31
0.0
  0
ARC
  5
E1
330
1F
100
AcDbEntity
  8
DEFPOINTS
  6
Continuous
100
AcDbCircle
 10
7777395.054967574
 20
-8255708.450502844
 30
0.0
 40
800.0000000000049
100
AcDbArc
 50
308.6822172138221
 51
231.3177827861778
  0
LINE
  5
E2
330
1F
100
AcDbEntity
  8
DEFPOINTS
  6
Continuous
100
AcDbLine
 10
7776895.054967575
 20
-8256332.950302683
 30
0.0
 11
7776895.054967575
 21
-8263332.950302682
 31
0.0
  0
LINE
  5
E3
330
1F
100
AcDbEntity
  8
DEFPOINTS
  6
Continuous
100
AcDbLine
 10
7776895.054967575
 20
-8263332.950302682
 30
0.0
 11
7769895.554256461
 21
-8263332.950302682
 31
0.0
  0
ARC
  5
E4
330
1F
100
AcDbEntity
  8
DEFPOINTS
  6
Continuous
100
AcDbCircle
 10
7769271.054456622
 20
-8263832.950302683
 30
0.0
 40
799.9999999999986
100
AcDbArc
 50
38.68221721382216
 51
321.3177827861779
  0
LINE
  5
E5
330
1F
100
AcDbEntity
  8
DEFPOINTS
  6
Continuous
100
AcDbLine
 10
7769895.554256461
 20
-8264332.950302684
 30
0.0
 11
7776895.054967575
 21
-8264332.950302684
 31
0.0
  0
LINE
  5
E6
330
1F
100
AcDbEntity
  8
DEFPOINTS
  6
Continuous
100
AcDbLine
 10
7776895.054967575
 20
-8264332.950302684
 30
0.0
 11
7776895.054967575
 21
-8265332.950302683
 31
0.0
  0
LINE
  5
118
330
1F
100
AcDbEntity
  8
DEFPOINTS
  6
Continuous
100
AcDbLine
 10
7776895.054967575
 20
-8276189.910136082
 30
0.0
 11
7776895.054967575
 21
-8277989.910139684
 31
0.0
  0
ARC
  5
119
330
1F
100
AcDbEntity
  8
DEFPOINTS
  6
Continuous
100
AcDbCircle
 10
7777395.054967574
 20
-8278614.409939525
 30
0.0
 40
799.9999999999946
100
AcDbArc
 50
128.6822172138222
 51
51.31778278617783
  0
LINE
  5
11A
330
1F
100
AcDbEntity
  8
DEFPOINTS
  6
Continuous
100
AcDbLine
 10
7777895.054967575
 20
-8277989.910139684
 30
0.0
 11
7777895.054967575
 21
-8276189.910136082
 31
0.0
  0
LINE
  5
14C
330
1F
100
AcDbEntity
  8
DEFPOINTS
  6
Continuous
100
AcDbLine
 10
7777895.054967575
 20
-8265332.950302683
 30
0.0
 11
7777895.054967575
 21
-8264332.950302684
 31
0.0
  0
LINE
  5
14D
330
1F
100
AcDbEntity
  8
DEFPOINTS
  6
Continuous
100
AcDbLine
 10
7777895.054967575
 20
-8264332.950302684
 30
0.0
 11
7778895.054967574
 21
-8264332.950302684
 31
0.0
  0
LINE
  5
14F
330
1F
100
AcDbEntity
  8
0
100
AcDbLine
 10
7793088.816492443
 20
-8265280.207727588
 30
0.0
 11
7793088.816492443
 21
-8265280.207727588
 31
0.0
  0
LINE
  5
1005D
330
1F
100
AcDbEntity
  8
0
  6
Continuous
100
AcDbLine
 10
7778895.054967574
 20
-8263332.950302682
 30
0.0
 11
7779707.743250901
 21
-8263839.095522186
 31
0.0
  0
LINE
  5
1005E
330
1F
100
AcDbEntity
  8
0
  6
Continuous
100
AcDbLine
 10
7778895.054967574
 20
-8264332.950302684
 30
0.0
 11
7779707.743250901
 21
-8263881.521950759
 31
0.0
  0
LINE
  5
10093
330
1F
100
AcDbEntity
  8
DEFPOINTS
  6
Continuous
100
AcDbLine
 10
7783650.599999473
 20
-8263881.521950759
 30
0.0
 11
7783736.314276616
 21
-8263795.807673616
 31
0.0
  0
LINE
  5
10094
330
1F
100
AcDbEntity
  8
DEFPOINTS
  6
Continuous
100
AcDbLine
 10
7783736.314276616
 20
-8263795.807673616
 30
0.0
 11
7783822.028553759
 21
-8263881.521950759
 31
0.0
  0
LINE
  5
10095
330
1F
100
AcDbEntity
  8
DEFPOINTS
  6
Continuous
100
AcDbLine
 10
7783822.028553759
 20
-8263881.521950759
 30
0.0
 11
7783907.742830901
 21
-8263795.807673616
 31
0.0
  0
LINE
  5
10096
330
1F
100
AcDbEntity
  8
DEFPOINTS
  6
Continuous
100
AcDbLine
 10
7783907.742830901
 20
-8263795.807673616
 30
0.0
 11
7783993.457108045
 21
-8263881.521950759
 31
0.0
  0
LINE
  5
10097
330
1F
100
AcDbEntity
  8
DEFPOINTS
  6
Continuous
100
AcDbLine
 10
7783993.457108045
 20
-8263881.521950759
 30
0.0
 11
7784079.171385188
 21
-8263795.807673616
 31
0.0
  0
LINE
  5
10098
330
1F
100
AcDbEntity
  8
DEFPOINTS
  6
Continuous
100
AcDbLine
 10
7784079.171385188
 20
-8263795.807673616
 30
0.0
 11
7784164.88566233
 21
-8263881.521950759
 31
0.0
  0
LINE
  5
10099
330
1F
100
AcDbEntity
  8
DEFPOINTS
  6
Continuous
100
AcDbLine
 10
7784164.88566233
 20
-8263839.095522186
 30
0.0
 11
7784079.171385188
 21
-8263753.381245043
 31
0.0
  0
LINE
  5
1009A
330
1F
100
AcDbEntity
  8
DEFPOINTS
  6
Continuous
100
AcDbLine
 10
7784079.171385188
 20
-8263753.381245043
 30
0.0
 11
7783993.457108045
 21
-8263839.095522186
 31
0.0
  0
LINE
  5
1009B
330
1F
100
AcDbEntity
  8
DEFPOINTS
  6
Continuous
100
AcDbLine
 10
7783993.457108045
 20
-8263839.095522186
 30
0.0
 11
7783907.742830901
 21
-8263753.381245043
 31
0.0
  0
LINE
  5
1009C
330
1F
100
AcDbEntity
  8
DEFPOINTS
  6
Continuous
100
AcDbLine
 10
7783907.742830901
 20
-8263753.381245043
 30
0.0
 11
7783822.028553759
 21
-8263839.095522186
 31
0.0
  0
LINE
  5
1009D
330
1F
100
AcDbEntity
  8
DEFPOINTS
  6
Continuous
100
AcDbLine
 10
7783822.028553759
 20
-8263839.095522186
 30
0.0
 11
7783736.314276616
 21
-8263753.381245043
 31
0.0
  0
LINE
  5
1009E
330
1F
100
AcDbEntity
  8
DEFPOINTS
  6
Continuous
100
AcDbLine
 10
7783736.314276616
 20
-8263753.381245043
 30
0.0
 11
7783650.599999473
 21
-8263839.095522186
 31
0.0
  0
LINE
  5
100AF
330
1F
100
AcDbEntity
  8
DEFPOINTS
  6
Continuous
100
AcDbLine
 10
7784164.88566233
 20
-8263881.521950759
 30
0.0
 11
7784250.599939473
 21
-8263795.807673616
 31
0.0
  0
LINE
  5
100B0
330
1F
100
AcDbEntity
  8
DEFPOINTS
  6
Continuous
100
AcDbLine
 10
7784250.599939473
 20
-8263795.807673616
 30
0.0
 11
7784336.314216616
 21
-8263881.521950759
 31
0.0
  0
LINE
  5
100B1
330
1F
100
AcDbEntity
  8
DEFPOINTS
  6
Continuous
100
AcDbLine
 10
7784336.314216616
 20
-8263881.521950759
 30
0.0
 11
7784422.028493759
 21
-8263795.807673616
 31
0.0
  0
LINE
  5
100B2
330
1F
100
AcDbEntity
  8
DEFPOINTS
  6
Continuous
100
AcDbLine
 10
7784422.028493759
 20
-8263795.807673616
 30
0.0
 11
7784507.742770902
 21
-8263881.521950759
 31
0.0
  0
LINE
  5
100B3
330
1F
100
AcDbEntity
  8
DEFPOINTS
  6
Continuous
100
AcDbLine
 10
7784507.742770902
 20
-8263881.521950759
 30
0.0
 11
7784593.457048044
 21
-8263795.807673616
 31
0.0
  0
LINE
  5
100B4
330
1F
100
AcDbEntity
  8
DEFPOINTS
  6
Continuous
100
AcDbLine
 10
7784593.457048044
 20
-8263795.807673616
 30
0.0
 11
7784679.171325188
 21
-8263881.521950759
 31
0.0
  0
LINE
  5
100B5
330
1F
100
AcDbEntity
  8
DEFPOINTS
  6
Continuous
100
AcDbLine
 10
7784679.171325188
 20
-8263839.095522186
 30
0.0
 11
7784593.457048044
 21
-8263753.381245043
 31
0.0
  0
LINE
  5
100B6
330
1F
100
AcDbEntity
  8
DEFPOINTS
  6
Continuous
100
AcDbLine
 10
7784593.457048044
 20
-8263753.381245043
 30
0.0
 11
7784507.742770902
 21
-8263839.095522186
 31
0.0
  0
LINE
  5
100B7
330
1F
100
AcDbEntity
  8
DEFPOINTS
  6
Continuous
100
AcDbLine
 10
7784507.742770902
 20
-8263839.095522186
 30
0.0
 11
7784422.028493759
 21
-8263753.381245043
 31
0.0
  0
LINE
  5
100B8
330
1F
100
AcDbEntity
  8
DEFPOINTS
  6
Continuous
100
AcDbLine
 10
7784422.028493759
 20
-8263753.381245043
 30
0.0
 11
7784336.314216616
 21
-8263839.095522186
 31
0.0
  0
LINE
  5
100B9
330
1F
100
AcDbEntity
  8
DEFPOINTS
  6
Continuous
100
AcDbLine
 10
7784336.314216616
 20
-8263839.095522186
 30
0.0
 11
7784250.599939473
 21
-8263753.381245043
 31
0.0
  0
LINE
  5
100BA
330
1F
100
AcDbEntity
  8
DEFPOINTS
  6
Continuous
100
AcDbLine
 10
7784250.599939473
 20
-8263753.381245043
 30
0.0
 11
7784164.88566233
 21
-8263839.095522186
 31
0.0
  0
LINE
  5
100CB
330
1F
100
AcDbEntity
  8
DEFPOINTS
  6
Continuous
100
AcDbLine
 10
7784679.171325188
 20
-8263881.521950759
 30
0.0
 11
7784764.885602331
 21
-8263795.807673616
 31
0.0
  0
LINE
  5
100CC
330
1F
100
AcDbEntity
  8
DEFPOINTS
  6
Continuous
100
AcDbLine
 10
7784764.885602331
 20
-8263795.807673616
 30
0.0
 11
7784850.599879473
 21
-8263881.521950759
 31
0.0
  0
LINE
  5
100CD
330
1F
100
AcDbEntity
  8
DEFPOINTS
  6
Continuous
100
AcDbLine
 10
7784850.599879473
 20
-8263881.521950759
 30
0.0
 11
7784936.314156616
 21
-8263795.807673616
 31
0.0
  0
LINE
  5
100CE
330
1F
100
AcDbEntity
  8
DEFPOINTS
  6
Continuous
100
AcDbLine
 10
7784936.314156616
 20
-8263795.807673616
 30
0.0
 11
7785022.028433759
 21
-8263881.521950759
 31
0.0
  0
LINE
  5
100CF
330
1F
100
AcDbEntity
  8
DEFPOINTS
  6
Continuous
100
AcDbLine
 10
7785022.028433759
 20
-8263881.521950759
 30
0.0
 11
7785107.742710902
 21
-8263795.807673616
 31
0.0
  0
LINE
  5
100D0
330
1F
100
AcDbEntity
  8
DEFPOINTS
  6
Continuous
100
AcDbLine
 10
7785107.742710902
 20
-8263795.807673616
 30
0.0
 11
7785193.456988045
 21
-8263881.521950759
 31
0.0
  0
LINE
  5
100D1
330
1F
100
AcDbEntity
  8
DEFPOINTS
  6
Continuous
100
AcDbLine
 10
7785193.456988045
 20
-8263839.095522186
 30
0.0
 11
7785107.742710902
 21
-8263753.381245043
 31
0.0
  0
LINE
  5
100D2
330
1F
100
AcDbEntity
  8
DEFPOINTS
  6
Continuous
100
AcDbLine
 10
7785107.742710902
 20
-8263753.381245043
 30
0.0
 11
7785022.028433759
 21
-8263839.095522186
 31
0.0
  0
LINE
  5
100D3
330
1F
100
AcDbEntity
  8
DEFPOINTS
  6
Continuous
100
AcDbLine
 10
7785022.028433759
 20
-8263839.095522186
 30
0.0
 11
7784936.314156616
 21
-8263753.381245043
 31
0.0
  0
LINE
  5
100D4
330
1F
100
AcDbEntity
  8
DEFPOINTS
  6
Continuous
100
AcDbLine
 10
7784936.314156616
 20
-8263753.381245043
 30
0.0
 11
7784850.599879473
 21
-8263839.095522186
 31
0.0
  0
LINE
  5
100D5
330
1F
100
AcDbEntity
  8
DEFPOINTS
  6
Continuous
100
AcDbLine
 10
7784850.599879473
 20
-8263839.095522186
 30
0.0
 11
7784764.885602331
 21
-8263753.381245043
 31
0.0
  0
LINE
  5
100D6
330
1F
100
AcDbEntity
  8
DEFPOINTS
  6
Continuous
100
AcDbLine
 10
7784764.885602331
 20
-8263753.381245043
 30
0.0
 11
7784679.171325188
 21
-8263839.095522186
 31
0.0
  0
LINE
  5
100E7
330
1F
100
AcDbEntity
  8
DEFPOINTS
  6
Continuous
100
AcDbLine
 10
7785193.456988045
 20
-8263881.521950759
 30
0.0
 11
7785279.171265187
 21
-8263795.807673616
 31
0.0
  0
LINE
  5
100E8
330
1F
100
AcDbEntity
  8
DEFPOINTS
  6
Continuous
100
AcDbLine
 10
7785279.171265187
 20
-8263795.807673616
 30
0.0
 11
7785364.88554233
 21
-8263881.521950759
 31
0.0
  0
LINE
  5
100E9
330
1F
100
AcDbEntity
  8
DEFPOINTS
  6
Continuous
100
AcDbLine
 10
7785364.88554233
 20
-8263881.521950759
 30
0.0
 11
7785450.599819474
 21
-8263795.807673616
 31
0.0
  0
LINE
  5
100EA
330
1F
100
AcDbEntity
  8
DEFPOINTS
  6
Continuous
100
AcDbLine
 10
7785450.599819474
 20
-8263795.807673616
 30
0.0
 11
7785536.314096616
 21
-8263881.521950759
 31
0.0
  0
LINE
  5
100EB
330
1F
100
AcDbEntity
  8
DEFPOINTS
  6
Continuous
100
AcDbLine
 10
7785536.314096616
 20
-8263881.521950759
 30
0.0
 11
7785622.028373759
 21
-8263795.807673616
 31
0.0
  0
LINE
  5
100EC
330
1F
100
AcDbEntity
  8
DEFPOINTS
  6
Continuous
100
AcDbLine
 10
7785622.028373759
 20
-8263795.807673616
 30
0.0
 11
7785707.742650902
 21
-8263881.521950759
 31
0.0
  0
LINE
  5
100ED
330
1F
100
AcDbEntity
  8
DEFPOINTS
  6
Continuous
100
AcDbLine
 10
7785707.742650902
 20
-8263839.095522186
 30
0.0
 11
7785622.028373759
 21
-8263753.381245043
 31
0.0
  0
LINE
  5
100EE
330
1F
100
AcDbEntity
  8
DEFPOINTS
  6
Continuous
100
AcDbLine
 10
7785622.028373759
 20
-8263753.381245043
 30
0.0
 11
7785536.314096616
 21
-8263839.095522186
 31
0.0
  0
LINE
  5
100EF
330
1F
100
AcDbEntity
  8
DEFPOINTS
  6
Continuous
100
AcDbLine
 10
7785536.314096616
 20
-8263839.095522186
 30
0.0
 11
7785450.599819474
 21
-8263753.381245043
 31
0.0
  0
LINE
  5
100F0
330
1F
100
AcDbEntity
  8
DEFPOINTS
  6
Continuous
100
AcDbLine
 10
7785450.599819474
 20
-8263753.381245043
 30
0.0
 11
7785364.88554233
 21
-8263839.095522186
 31
0.0
  0
LINE
  5
100F1
330
1F
100
AcDbEntity
  8
DEFPOINTS
  6
Continuous
100
AcDbLine
 10
7785364.88554233
 20
-8263839.095522186
 30
0.0
 11
7785279.171265187
 21
-8263753.381245043
 31
0.0
  0
LINE
  5
100F2
330
1F
100
AcDbEntity
  8
DEFPOINTS
  6
Continuous
100
AcDbLine
 10
7785279.171265187
 20
-8263753.381245043
 30
0.0
 11
7785193.456988045
 21
-8263839.095522186
 31
0.0
  0
LINE
  5
10103
330
1F
100
AcDbEntity
  8
DEFPOINTS
  6
Continuous
100
AcDbLine
 10
7785707.742650902
 20
-8263881.521950759
 30
0.0
 11
7785793.456928045
 21
-8263795.807673616
 31
0.0
  0
LINE
  5
10104
330
1F
100
AcDbEntity
  8
DEFPOINTS
  6
Continuous
100
AcDbLine
 10
7785793.456928045
 20
-8263795.807673616
 30
0.0
 11
7785879.171205188
 21
-8263881.521950759
 31
0.0
  0
LINE
  5
10105
330
1F
100
AcDbEntity
  8
DEFPOINTS
  6
Continuous
100
AcDbLine
 10
7785879.171205188
 20
-8263881.521950759
 30
0.0
 11
7785964.88548233
 21
-8263795.807673616
 31
0.0
  0
LINE
  5
10106
330
1F
100
AcDbEntity
  8
DEFPOINTS
  6
Continuous
100
AcDbLine
 10
7785964.88548233
 20
-8263795.807673616
 30
0.0
 11
7786050.599759473
 21
-8263881.521950759
 31
0.0
  0
LINE
  5
10107
330
1F
100
AcDbEntity
  8
DEFPOINTS
  6
Continuous
100
AcDbLine
 10
7786050.599759473
 20
-8263881.521950759
 30
0.0
 11
7786136.314036617
 21
-8263795.807673616
 31
0.0
  0
LINE
  5
10108
330
1F
100
AcDbEntity
  8
DEFPOINTS
  6
Continuous
100
AcDbLine
 10
7786136.314036617
 20
-8263795.807673616
 30
0.0
 11
7786222.028313759
 21
-8263881.521950759
 31
0.0
  0
LINE
  5
10109
330
1F
100
AcDbEntity
  8
DEFPOINTS
  6
Continuous
100
AcDbLine
 10
7786222.028313759
 20
-8263839.095522186
 30
0.0
 11
7786136.314036617
 21
-8263753.381245043
 31
0.0
  0
LINE
  5
1010A
330
1F
100
AcDbEntity
  8
DEFPOINTS
  6
Continuous
100
AcDbLine
 10
7786136.314036617
 20
-8263753.381245043
 30
0.0
 11
7786050.599759473
 21
-8263839.095522186
 31
0.0
  0
LINE
  5
1010B
330
1F
100
AcDbEntity
  8
DEFPOINTS
  6
Continuous
100
AcDbLine
 10
7786050.599759473
 20
-8263839.095522186
 30
0.0
 11
7785964.88548233
 21
-8263753.381245043
 31
0.0
  0
LINE
  5
1010C
330
1F
100
AcDbEntity
  8
DEFPOINTS
  6
Continuous
100
AcDbLine
 10
7785964.88548233
 20
-8263753.381245043
 30
0.0
 11
7785879.171205188
 21
-8263839.095522186
 31
0.0
  0
LINE
  5
1010D
330
1F
100
AcDbEntity
  8
DEFPOINTS
  6
Continuous
100
AcDbLine
 10
7785879.171205188
 20
-8263839.095522186
 30
0.0
 11
7785793.456928045
 21
-8263753.381245043
 31
0.0
  0
LINE
  5
1010E
330
1F
100
AcDbEntity
  8
DEFPOINTS
  6
Continuous
100
AcDbLine
 10
7785793.456928045
 20
-8263753.381245043
 30
0.0
 11
7785707.742650902
 21
-8263839.095522186
 31
0.0
  0
LINE
  5
1011F
330
1F
100
AcDbEntity
  8
DEFPOINTS
  6
Continuous
100
AcDbLine
 10
7786222.028313759
 20
-8263881.521950759
 30
0.0
 11
7786307.742590902
 21
-8263795.807673616
 31
0.0
  0
LINE
  5
10120
330
1F
100
AcDbEntity
  8
DEFPOINTS
  6
Continuous
100
AcDbLine
 10
7786307.742590902
 20
-8263795.807673616
 30
0.0
 11
7786393.456868045
 21
-8263881.521950759
 31
0.0
  0
LINE
  5
10121
330
1F
100
AcDbEntity
  8
DEFPOINTS
  6
Continuous
100
AcDbLine
 10
7786393.456868045
 20
-8263881.521950759
 30
0.0
 11
7786479.171145188
 21
-8263795.807673616
 31
0.0
  0
LINE
  5
10122
330
1F
100
AcDbEntity
  8
DEFPOINTS
  6
Continuous
100
AcDbLine
 10
7786479.171145188
 20
-8263795.807673616
 30
0.0
 11
7786564.885422331
 21
-8263881.521950759
 31
0.0
  0
LINE
  5
10123
330
1F
100
AcDbEntity
  8
DEFPOINTS
  6
Continuous
100
AcDbLine
 10
7786564.885422331
 20
-8263881.521950759
 30
0.0
 11
7786650.599699473
 21
-8263795.807673616
 31
0.0
  0
LINE
  5
10124
330
1F
100
AcDbEntity
  8
DEFPOINTS
  6
Continuous
100
AcDbLine
 10
7786650.599699473
 20
-8263795.807673616
 30
0.0
 11
7786736.313976616
 21
-8263881.521950759
 31
0.0
  0
LINE
  5
10125
330
1F
100
AcDbEntity
  8
DEFPOINTS
  6
Continuous
100
AcDbLine
 10
7786736.313976616
 20
-8263839.095522186
 30
0.0
 11
7786650.599699473
 21
-8263753.381245043
 31
0.0
  0
LINE
  5
10126
330
1F
100
AcDbEntity
  8
DEFPOINTS
  6
Continuous
100
AcDbLine
 10
7786650.599699473
 20
-8263753.381245043
 30
0.0
 11
7786564.885422331
 21
-8263839.095522186
 31
0.0
  0
LINE
  5
10127
330
1F
100
AcDbEntity
  8
DEFPOINTS
  6
Continuous
100
AcDbLine
 10
7786564.885422331
 20
-8263839.095522186
 30
0.0
 11
7786479.171145188
 21
-8263753.381245043
 31
0.0
  0
LINE
  5
10128
330
1F
100
AcDbEntity
  8
DEFPOINTS
  6
Continuous
100
AcDbLine
 10
7786479.171145188
 20
-8263753.381245043
 30
0.0
 11
7786393.456868045
 21
-8263839.095522186
 31
0.0
  0
LINE
  5
10129
330
1F
100
AcDbEntity
  8
DEFPOINTS
  6
Continuous
100
AcDbLine
 10
7786393.456868045
 20
-8263839.095522186
 30
0.0
 11
7786307.742590902
 21
-8263753.381245043
 31
0.0
  0
LINE
  5
1012A
330
1F
100
AcDbEntity
  8
DEFPOINTS
  6
Continuous
100
AcDbLine
 10
7786307.742590902
 20
-8263753.381245043
 30
0.0
 11
7786222.028313759
 21
-8263839.095522186
 31
0.0
  0
LINE
  5
1013D
330
1F
100
AcDbEntity
  8
DEFPOINTS
  6
Continuous
100
AcDbLine
 10
7786736.313976616
 20
-8263881.521950759
 30
0.0
 11
7786822.02825376
 21
-8263795.807673616
 31
0.0
  0
LINE
  5
1013E
330
1F
100
AcDbEntity
  8
DEFPOINTS
  6
Continuous
100
AcDbLine
 10
7786822.02825376
 20
-8263795.807673616
 30
0.0
 11
7786907.742530902
 21
-8263881.521950759
 31
0.0
  0
LINE
  5
1013F
330
1F
100
AcDbEntity
  8
DEFPOINTS
  6
Continuous
100
AcDbLine
 10
7786907.742530902
 20
-8263881.521950759
 30
0.0
 11
7786993.456808045
 21
-8263795.807673616
 31
0.0
  0
LINE
  5
10140
330
1F
100
AcDbEntity
  8
DEFPOINTS
  6
Continuous
100
AcDbLine
 10
7786993.456808045
 20
-8263795.807673616
 30
0.0
 11
7787079.171085188
 21
-8263881.521950759
 31
0.0
  0
LINE
  5
10141
330
1F
100
AcDbEntity
  8
DEFPOINTS
  6
Continuous
100
AcDbLine
 10
7787079.171085188
 20
-8263881.521950759
 30
0.0
 11
7787164.88536233
 21
-8263795.807673616
 31
0.0
  0
LINE
  5
10142
330
1F
100
AcDbEntity
  8
DEFPOINTS
  6
Continuous
100
AcDbLine
 10
7787164.88536233
 20
-8263795.807673616
 30
0.0
 11
7787250.599639474
 21
-8263881.521950759
 31
0.0
  0
LINE
  5
10143
330
1F
100
AcDbEntity
  8
DEFPOINTS
  6
Continuous
100
AcDbLine
 10
7787250.599639474
 20
-8263839.095522186
 30
0.0
 11
7787164.88536233
 21
-8263753.381245043
 31
0.0
  0
LINE
  5
10144
330
1F
100
AcDbEntity
  8
DEFPOINTS
  6
Continuous
100
AcDbLine
 10
7787164.88536233
 20
-8263753.381245043
 30
0.0
 11
7787079.171085188
 21
-8263839.095522186
 31
0.0
  0
LINE
  5
10145
330
1F
100
AcDbEntity
  8
DEFPOINTS
  6
Continuous
100
AcDbLine
 10
7787079.171085188
 20
-8263839.095522186
 30
0.0
 11
7786993.456808045
 21
-8263753.381245043
 31
0.0
  0
LINE
  5
10146
330
1F
100
AcDbEntity
  8
DEFPOINTS
  6
Continuous
100
AcDbLine
 10
7786993.456808045
 20
-8263753.381245043
 30
0.0
 11
7786907.742530902
 21
-8263839.095522186
 31
0.0
  0
LINE
  5
10147
330
1F
100
AcDbEntity
  8
DEFPOINTS
  6
Continuous
100
AcDbLine
 10
7786907.742530902
 20
-8263839.095522186
 30
0.0
 11
7786822.02825376
 21
-8263753.381245043
 31
0.0
  0
LINE
  5
10148
330
1F
100
AcDbEntity
  8
DEFPOINTS
  6
Continuous
100
AcDbLine
 10
7786822.02825376
 20
-8263753.381245043
 30
0.0
 11
7786736.313976616
 21
-8263839.095522186
 31
0.0
  0
LINE
  5
10159
330
1F
100
AcDbEntity
  8
DEFPOINTS
  6
Continuous
100
AcDbLine
 10
7787250.599639474
 20
-8263881.521950759
 30
0.0
 11
7787336.313916616
 21
-8263795.807673616
 31
0.0
  0
LINE
  5
1015A
330
1F
100
AcDbEntity
  8
DEFPOINTS
  6
Continuous
100
AcDbLine
 10
7787336.313916616
 20
-8263795.807673616
 30
0.0
 11
7787422.028193759
 21
-8263881.521950759
 31
0.0
  0
LINE
  5
1015B
330
1F
100
AcDbEntity
  8
DEFPOINTS
  6
Continuous
100
AcDbLine
 10
7787422.028193759
 20
-8263881.521950759
 30
0.0
 11
7787507.742470902
 21
-8263795.807673616
 31
0.0
  0
LINE
  5
1015C
330
1F
100
AcDbEntity
  8
DEFPOINTS
  6
Continuous
100
AcDbLine
 10
7787507.742470902
 20
-8263795.807673616
 30
0.0
 11
7787593.456748045
 21
-8263881.521950759
 31
0.0
  0
LINE
  5
1015D
330
1F
100
AcDbEntity
  8
DEFPOINTS
  6
Continuous
100
AcDbLine
 10
7787593.456748045
 20
-8263881.521950759
 30
0.0
 11
7787679.171025188
 21
-8263795.807673616
 31
0.0
  0
LINE
  5
1015E
330
1F
100
AcDbEntity
  8
DEFPOINTS
  6
Continuous
100
AcDbLine
 10
7787679.171025188
 20
-8263795.807673616
 30
0.0
 11
7787764.885302331
 21
-8263881.521950759
 31
0.0
  0
LINE
  5
1015F
330
1F
100
AcDbEntity
  8
DEFPOINTS
  6
Continuous
100
AcDbLine
 10
7787764.885302331
 20
-8263839.095522186
 30
0.0
 11
7787679.171025188
 21
-8263753.381245043
 31
0.0
  0
LINE
  5
10160
330
1F
100
AcDbEntity
  8
DEFPOINTS
  6
Continuous
100
AcDbLine
 10
7787679.171025188
 20
-8263753.381245043
 30
0.0
 11
7787593.456748045
 21
-8263839.095522186
 31
0.0
  0
LINE
  5
10161
330
1F
100
AcDbEntity
  8
DEFPOINTS
  6
Continuous
100
AcDbLine
 10
7787593.456748045
 20
-8263839.095522186
 30
0.0
 11
7787507.742470902
 21
-8263753.381245043
 31
0.0
  0
LINE
  5
10162
330
1F
100
AcDbEntity
  8
DEFPOINTS
  6
Continuous
100
AcDbLine
 10
7787507.742470902
 20
-8263753.381245043
 30
0.0
 11
7787422.028193759
 21
-8263839.095522186
 31
0.0
  0
LINE
  5
10163
330
1F
100
AcDbEntity
  8
DEFPOINTS
  6
Continuous
100
AcDbLine
 10
7787422.028193759
 20
-8263839.095522186
 30
0.0
 11
7787336.313916616
 21
-8263753.381245043
 31
0.0
  0
LINE
  5
10164
330
1F
100
AcDbEntity
  8
DEFPOINTS
  6
Continuous
100
AcDbLine
 10
7787336.313916616
 20
-8263753.381245043
 30
0.0
 11
7787250.599639474
 21
-8263839.095522186
 31
0.0
  0
LINE
  5
10175
330
1F
100
AcDbEntity
  8
DEFPOINTS
  6
Continuous
100
AcDbLine
 10
7787764.885302331
 20
-8263881.521950759
 30
0.0
 11
7787850.599579473
 21
-8263795.807673616
 31
0.0
  0
LINE
  5
10176
330
1F
100
AcDbEntity
  8
DEFPOINTS
  6
Continuous
100
AcDbLine
 10
7787850.599579473
 20
-8263795.807673616
 30
0.0
 11
7787936.313856617
 21
-8263881.521950759
 31
0.0
  0
LINE
  5
10177
330
1F
100
AcDbEntity
  8
DEFPOINTS
  6
Continuous
100
AcDbLine
 10
7787936.313856617
 20
-8263881.521950759
 30
0.0
 11
7788022.028133759
 21
-8263795.807673616
 31
0.0
  0
LINE
  5
10178
330
1F
100
AcDbEntity
  8
DEFPOINTS
  6
Continuous
100
AcDbLine
 10
7788022.028133759
 20
-8263795.807673616
 30
0.0
 11
7788107.742410902
 21
-8263881.521950759
 31
0.0
  0
LINE
  5
10179
330
1F
100
AcDbEntity
  8
DEFPOINTS
  6
Continuous
100
AcDbLine
 10
7788107.742410902
 20
-8263881.521950759
 30
0.0
 11
7788193.456688045
 21
-8263795.807673616
 31
0.0
  0
LINE
  5
1017A
330
1F
100
AcDbEntity
  8
DEFPOINTS
  6
Continuous
100
AcDbLine
 10
7788193.456688045
 20
-8263795.807673616
 30
0.0
 11
7788279.170965188
 21
-8263881.521950759
 31
0.0
  0
LINE
  5
1017B
330
1F
100
AcDbEntity
  8
DEFPOINTS
  6
Continuous
100
AcDbLine
 10
7788279.170965188
 20
-8263839.095522186
 30
0.0
 11
7788193.456688045
 21
-8263753.381245043
 31
0.0
  0
LINE
  5
1017C
330
1F
100
AcDbEntity
  8
DEFPOINTS
  6
Continuous
100
AcDbLine
 10
7788193.456688045
 20
-8263753.381245043
 30
0.0
 11
7788107.742410902
 21
-8263839.095522186
 31
0.0
  0
LINE
  5
1017D
330
1F
100
AcDbEntity
  8
DEFPOINTS
  6
Continuous
100
AcDbLine
 10
7788107.742410902
 20
-8263839.095522186
 30
0.0
 11
7788022.028133759
 21
-8263753.381245043
 31
0.0
  0
LINE
  5
1017E
330
1F
100
AcDbEntity
  8
DEFPOINTS
  6
Continuous
100
AcDbLine
 10
7788022.028133759
 20
-8263753.381245043
 30
0.0
 11
7787936.313856617
 21
-8263839.095522186
 31
0.0
  0
LINE
  5
1017F
330
1F
100
AcDbEntity
  8
DEFPOINTS
  6
Continuous
100
AcDbLine
 10
7787936.313856617
 20
-8263839.095522186
 30
0.0
 11
7787850.599579473
 21
-8263753.381245043
 31
0.0
  0
LINE
  5
10180
330
1F
100
AcDbEntity
  8
DEFPOINTS
  6
Continuous
100
AcDbLine
 10
7787850.599579473
 20
-8263753.381245043
 30
0.0
 11
7787764.885302331
 21
-8263839.095522186
 31
0.0
  0
LINE
  5
1018D
330
1F
100
AcDbEntity
  8
DEFPOINTS
  6
Continuous
100
AcDbLine
 10
7788279.170965188
 20
-8263881.521950759
 30
0.0
 11
7788364.885242331
 21
-8263795.807673616
 31
0.0
  0
LINE
  5
1018E
330
1F
100
AcDbEntity
  8
DEFPOINTS
  6
Continuous
100
AcDbLine
 10
7788364.885242331
 20
-8263795.807673616
 30
0.0
 11
7788450.599519474
 21
-8263881.521950759
 31
0.0
  0
LINE
  5
1018F
330
1F
100
AcDbEntity
  8
DEFPOINTS
  6
Continuous
100
AcDbLine
 10
7788450.599519474
 20
-8263881.521950759
 30
0.0
 11
7788536.313796616
 21
-8263795.807673616
 31
0.0
  0
LINE
  5
10190
330
1F
100
AcDbEntity
  8
DEFPOINTS
  6
Continuous
100
AcDbLine
 10
7788536.313796616
 20
-8263795.807673616
 30
0.0
 11
7788622.02807376
 21
-8263881.521950759
 31
0.0
  0
LINE
  5
10191
330
1F
100
AcDbEntity
  8
DEFPOINTS
  6
Continuous
100
AcDbLine
 10
7788622.02807376
 20
-8263839.095522186
 30
0.0
 11
7788536.313796616
 21
-8263753.381245043
 31
0.0
  0
LINE
  5
10192
330
1F
100
AcDbEntity
  8
DEFPOINTS
  6
Continuous
100
AcDbLine
 10
7788536.313796616
 20
-8263753.381245043
 30
0.0
 11
7788450.599519474
 21
-8263839.095522186
 31
0.0
  0
LINE
  5
10193
330
1F
100
AcDbEntity
  8
DEFPOINTS
  6
Continuous
100
AcDbLine
 10
7788450.599519474
 20
-8263839.095522186
 30
0.0
 11
7788364.885242331
 21
-8263753.381245043
 31
0.0
  0
LINE
  5
10194
330
1F
100
AcDbEntity
  8
DEFPOINTS
  6
Continuous
100
AcDbLine
 10
7788364.885242331
 20
-8263753.381245043
 30
0.0
 11
7788279.170965188
 21
-8263839.095522186
 31
0.0
  0
LINE
  5
1019D
330
1F
100
AcDbEntity
  8
DEFPOINTS
  6
Continuous
100
AcDbLine
 10
7788622.02807376
 20
-8263881.521950759
 30
0.0
 11
7788707.742350903
 21
-8263795.807673616
 31
0.0
  0
LINE
  5
1019E
330
1F
100
AcDbEntity
  8
DEFPOINTS
  6
Continuous
100
AcDbLine
 10
7788707.742350903
 20
-8263795.807673616
 30
0.0
 11
7788793.456628045
 21
-8263881.521950759
 31
0.0
  0
LINE
  5
1019F
330
1F
100
AcDbEntity
  8
DEFPOINTS
  6
Continuous
100
AcDbLine
 10
7788793.456628045
 20
-8263839.095522186
 30
0.0
 11
7788707.742350903
 21
-8263753.381245043
 31
0.0
  0
LINE
  5
101A0
330
1F
100
AcDbEntity
  8
DEFPOINTS
  6
Continuous
100
AcDbLine
 10
7788707.742350903
 20
-8263753.381245043
 30
0.0
 11
7788622.02807376
 21
-8263839.095522186
 31
0.0
  0
LINE
  5
101A1
330
1F
100
AcDbEntity
  8
0
  6
Continuous
100
AcDbLine
 10
7788793.456628045
 20
-8263839.095522186
 30
0.0
 11
7789026.789938045
 21
-8263839.095522186
 31
0.0
  0
LINE
  5
101A2
330
1F
100
AcDbEntity
  8
0
  6
Continuous
100
AcDbLine
 10
7789026.789938045
 20
-8263839.095522186
 30
0.0
 11
7789026.789938045
 21
-8263810.845522382
 31
0.0
  0
LINE
  5
101A3
330
1F
100
AcDbEntity
  8
0
  6
Continuous
100
AcDbLine
 10
7788793.456628045
 20
-8263881.521950759
 30
0.0
 11
7789026.789938045
 21
-8263881.521950759
 31
0.0
  0
LINE
  5
101A4
330
1F
100
AcDbEntity
  8
0
  6
Continuous
100
AcDbLine
 10
7789026.789938045
 20
-8263881.521950759
 30
0.0
 11
7789026.789938045
 21
-8263909.84052238
 31
0.0
  0
LINE
  5
1027F
330
1F
100
AcDbEntity
  8
DEFPOINTS
  6
Continuous
100
AcDbLine
 10
7777346.483319498
 20
-8266145.63858601
 30
0.0
 11
7777432.197596643
 21
-8266231.352863153
 31
0.0
  0
LINE
  5
10280
330
1F
100
AcDbEntity
  8
DEFPOINTS
  6
Continuous
100
AcDbLine
 10
7777432.197596643
 20
-8266231.352863153
 30
0.0
 11
7777346.483319498
 21
-8266317.067140295
 31
0.0
  0
LINE
  5
10281
330
1F
100
AcDbEntity
  8
DEFPOINTS
  6
Continuous
100
AcDbLine
 10
7777346.483319498
 20
-8266317.067140295
 30
0.0
 11
7777432.197596643
 21
-8266402.781417438
 31
0.0
  0
LINE
  5
10282
330
1F
100
AcDbEntity
  8
DEFPOINTS
  6
Continuous
100
AcDbLine
 10
7777432.197596643
 20
-8266402.781417438
 30
0.0
 11
7777346.483319498
 21
-8266488.495694582
 31
0.0
  0
LINE
  5
10283
330
1F
100
AcDbEntity
  8
DEFPOINTS
  6
Continuous
100
AcDbLine
 10
7777346.483319498
 20
-8266488.495694582
 30
0.0
 11
7777432.197596643
 21
-8266574.209971725
 31
0.0
  0
LINE
  5
10284
330
1F
100
AcDbEntity
  8
DEFPOINTS
  6
Continuous
100
AcDbLine
 10
7777432.197596643
 20
-8266574.209971725
 30
0.0
 11
7777346.483319498
 21
-8266659.924248866
 31
0.0
  0
LINE
  5
10285
330
1F
100
AcDbEntity
  8
DEFPOINTS
  6
Continuous
100
AcDbLine
 10
7777346.483319498
 20
-8266659.924248866
 30
0.0
 11
7777432.197596643
 21
-8266745.638526009
 31
0.0
  0
LINE
  5
10286
330
1F
100
AcDbEntity
  8
DEFPOINTS
  6
Continuous
100
AcDbLine
 10
7777432.197596643
 20
-8266745.638526009
 30
0.0
 11
7777346.483319498
 21
-8266831.352803153
 31
0.0
  0
LINE
  5
10287
330
1F
100
AcDbEntity
  8
DEFPOINTS
  6
Continuous
100
AcDbLine
 10
7777346.483319498
 20
-8266831.352803153
 30
0.0
 11
7777432.197596643
 21
-8266917.067080296
 31
0.0
  0
LINE
  5
10288
330
1F
100
AcDbEntity
  8
DEFPOINTS
  6
Continuous
100
AcDbLine
 10
7777432.197596643
 20
-8266917.067080296
 30
0.0
 11
7777346.483319498
 21
-8267002.781357438
 31
0.0
  0
LINE
  5
10289
330
1F
100
AcDbEntity
  8
DEFPOINTS
  6
Continuous
100
AcDbLine
 10
7777346.483319498
 20
-8267002.781357438
 30
0.0
 11
7777432.197596643
 21
-8267088.495634581
 31
0.0
  0
LINE
  5
1028A
330
1F
100
AcDbEntity
  8
DEFPOINTS
  6
Continuous
100
AcDbLine
 10
7777432.197596643
 20
-8267088.495634581
 30
0.0
 11
7777346.483319498
 21
-8267174.209911726
 31
0.0
  0
LINE
  5
1028B
330
1F
100
AcDbEntity
  8
DEFPOINTS
  6
Continuous
100
AcDbLine
 10
7777346.483319498
 20
-8267174.209911726
 30
0.0
 11
7777432.197596643
 21
-8267259.924188868
 31
0.0
  0
LINE
  5
1028C
330
1F
100
AcDbEntity
  8
DEFPOINTS
  6
Continuous
100
AcDbLine
 10
7777432.197596643
 20
-8267259.924188868
 30
0.0
 11
7777346.483319498
 21
-8267345.638466011
 31
0.0
  0
LINE
  5
1028D
330
1F
100
AcDbEntity
  8
DEFPOINTS
  6
Continuous
100
AcDbLine
 10
7777346.483319498
 20
-8267345.638466011
 30
0.0
 11
7777432.197596643
 21
-8267431.352743152
 31
0.0
  0
LINE
  5
1028E
330
1F
100
AcDbEntity
  8
DEFPOINTS
  6
Continuous
100
AcDbLine
 10
7777432.197596643
 20
-8267431.352743152
 30
0.0
 11
7777346.483319498
 21
-8267517.067020294
 31
0.0
  0
LINE
  5
1028F
330
1F
100
AcDbEntity
  8
DEFPOINTS
  6
Continuous
100
AcDbLine
 10
7777346.483319498
 20
-8267517.067020294
 30
0.0
 11
7777432.197596643
 21
-8267602.781297439
 31
0.0
  0
LINE
  5
10290
330
1F
100
AcDbEntity
  8
DEFPOINTS
  6
Continuous
100
AcDbLine
 10
7777432.197596643
 20
-8267602.781297439
 30
0.0
 11
7777346.483319498
 21
-8267688.495574581
 31
0.0
  0
LINE
  5
10291
330
1F
100
AcDbEntity
  8
DEFPOINTS
  6
Continuous
100
AcDbLine
 10
7777346.483319498
 20
-8267688.495574581
 30
0.0
 11
7777432.197596643
 21
-8267774.209851724
 31
0.0
  0
LINE
  5
10292
330
1F
100
AcDbEntity
  8
DEFPOINTS
  6
Continuous
100
AcDbLine
 10
7777432.197596643
 20
-8267774.209851724
 30
0.0
 11
7777346.483319498
 21
-8267859.924128867
 31
0.0
  0
LINE
  5
10293
330
1F
100
AcDbEntity
  8
DEFPOINTS
  6
Continuous
100
AcDbLine
 10
7777346.483319498
 20
-8267859.924128867
 30
0.0
 11
7777432.197596643
 21
-8267945.638406011
 31
0.0
  0
LINE
  5
10294
330
1F
100
AcDbEntity
  8
DEFPOINTS
  6
Continuous
100
AcDbLine
 10
7777432.197596643
 20
-8267945.638406011
 30
0.0
 11
7777346.483319498
 21
-8268031.352683154
 31
0.0
  0
LINE
  5
10295
330
1F
100
AcDbEntity
  8
DEFPOINTS
  6
Continuous
100
AcDbLine
 10
7777346.483319498
 20
-8268031.352683154
 30
0.0
 11
7777432.197596643
 21
-8268117.066960297
 31
0.0
  0
LINE
  5
10296
330
1F
100
AcDbEntity
  8
DEFPOINTS
  6
Continuous
100
AcDbLine
 10
7777432.197596643
 20
-8268117.066960297
 30
0.0
 11
7777346.483319498
 21
-8268202.781237437
 31
0.0
  0
LINE
  5
10297
330
1F
100
AcDbEntity
  8
DEFPOINTS
  6
Continuous
100
AcDbLine
 10
7777346.483319498
 20
-8268202.781237437
 30
0.0
 11
7777432.197596643
 21
-8268288.49551458
 31
0.0
  0
LINE
  5
10298
330
1F
100
AcDbEntity
  8
DEFPOINTS
  6
Continuous
100
AcDbLine
 10
7777432.197596643
 20
-8268288.49551458
 30
0.0
 11
7777346.483319498
 21
-8268374.209791724
 31
0.0
  0
LINE
  5
10299
330
1F
100
AcDbEntity
  8
DEFPOINTS
  6
Continuous
100
AcDbLine
 10
7777346.483319498
 20
-8268374.209791724
 30
0.0
 11
7777432.197596643
 21
-8268459.924068867
 31
0.0
  0
LINE
  5
1029A
330
1F
100
AcDbEntity
  8
DEFPOINTS
  6
Continuous
100
AcDbLine
 10
7777432.197596643
 20
-8268459.924068867
 30
0.0
 11
7777346.483319498
 21
-8268545.63834601
 31
0.0
  0
LINE
  5
1029B
330
1F
100
AcDbEntity
  8
DEFPOINTS
  6
Continuous
100
AcDbLine
 10
7777346.483319498
 20
-8268545.63834601
 30
0.0
 11
7777432.197596643
 21
-8268631.352623152
 31
0.0
  0
LINE
  5
1029C
330
1F
100
AcDbEntity
  8
DEFPOINTS
  6
Continuous
100
AcDbLine
 10
7777432.197596643
 20
-8268631.352623152
 30
0.0
 11
7777346.483319498
 21
-8268717.066900297
 31
0.0
  0
LINE
  5
1029D
330
1F
100
AcDbEntity
  8
DEFPOINTS
  6
Continuous
100
AcDbLine
 10
7777346.483319498
 20
-8268717.066900297
 30
0.0
 11
7777432.197596643
 21
-8268802.78117744
 31
0.0
  0
LINE
  5
1029E
330
1F
100
AcDbEntity
  8
DEFPOINTS
  6
Continuous
100
AcDbLine
 10
7777432.197596643
 20
-8268802.78117744
 30
0.0
 11
7777346.483319498
 21
-8268888.49545458
 31
0.0
  0
LINE
  5
1029F
330
1F
100
AcDbEntity
  8
DEFPOINTS
  6
Continuous
100
AcDbLine
 10
7777346.483319498
 20
-8268888.49545458
 30
0.0
 11
7777432.197596643
 21
-8268974.209731723
 31
0.0
  0
LINE
  5
102A0
330
1F
100
AcDbEntity
  8
DEFPOINTS
  6
Continuous
100
AcDbLine
 10
7777432.197596643
 20
-8268974.209731723
 30
0.0
 11
7777346.483319498
 21
-8269059.924008868
 31
0.0
  0
LINE
  5
102A1
330
1F
100
AcDbEntity
  8
DEFPOINTS
  6
Continuous
100
AcDbLine
 10
7777346.483319498
 20
-8269059.924008868
 30
0.0
 11
7777432.197596643
 21
-8269145.63828601
 31
0.0
  0
LINE
  5
102A2
330
1F
100
AcDbEntity
  8
DEFPOINTS
  6
Continuous
100
AcDbLine
 10
7777432.197596643
 20
-8269145.63828601
 30
0.0
 11
7777346.483319498
 21
-8269231.352563153
 31
0.0
  0
LINE
  5
102A3
330
1F
100
AcDbEntity
  8
DEFPOINTS
  6
Continuous
100
AcDbLine
 10
7777346.483319498
 20
-8269231.352563153
 30
0.0
 11
7777432.197596643
 21
-8269317.066840295
 31
0.0
  0
LINE
  5
102A4
330
1F
100
AcDbEntity
  8
DEFPOINTS
  6
Continuous
100
AcDbLine
 10
7777432.197596643
 20
-8269317.066840295
 30
0.0
 11
7777346.483319498
 21
-8269402.781117438
 31
0.0
  0
LINE
  5
102A5
330
1F
100
AcDbEntity
  8
DEFPOINTS
  6
Continuous
100
AcDbLine
 10
7777346.483319498
 20
-8269402.781117438
 30
0.0
 11
7777432.197596643
 21
-8269488.495394583
 31
0.0
  0
LINE
  5
102A6
330
1F
100
AcDbEntity
  8
DEFPOINTS
  6
Continuous
100
AcDbLine
 10
7777432.197596643
 20
-8269488.495394583
 30
0.0
 11
7777346.483319498
 21
-8269574.209671725
 31
0.0
  0
LINE
  5
102A7
330
1F
100
AcDbEntity
  8
DEFPOINTS
  6
Continuous
100
AcDbLine
 10
7777346.483319498
 20
-8269574.209671725
 30
0.0
 11
7777432.197596643
 21
-8269659.923948866
 31
0.0
  0
LINE
  5
102A8
330
1F
100
AcDbEntity
  8
DEFPOINTS
  6
Continuous
100
AcDbLine
 10
7777432.197596643
 20
-8269659.923948866
 30
0.0
 11
7777346.483319498
 21
-8269745.638226009
 31
0.0
  0
LINE
  5
102A9
330
1F
100
AcDbEntity
  8
DEFPOINTS
  6
Continuous
100
AcDbLine
 10
7777346.483319498
 20
-8269745.638226009
 30
0.0
 11
7777432.197596643
 21
-8269831.352503153
 31
0.0
  0
LINE
  5
102AA
330
1F
100
AcDbEntity
  8
DEFPOINTS
  6
Continuous
100
AcDbLine
 10
7777432.197596643
 20
-8269831.352503153
 30
0.0
 11
7777346.483319498
 21
-8269917.066780296
 31
0.0
  0
LINE
  5
102AB
330
1F
100
AcDbEntity
  8
DEFPOINTS
  6
Continuous
100
AcDbLine
 10
7777346.483319498
 20
-8269917.066780296
 30
0.0
 11
7777432.197596643
 21
-8270002.781057439
 31
0.0
  0
LINE
  5
102AC
330
1F
100
AcDbEntity
  8
DEFPOINTS
  6
Continuous
100
AcDbLine
 10
7777432.197596643
 20
-8270002.781057439
 30
0.0
 11
7777346.483319498
 21
-8270088.495334581
 31
0.0
  0
LINE
  5
102AD
330
1F
100
AcDbEntity
  8
DEFPOINTS
  6
Continuous
100
AcDbLine
 10
7777388.90974807
 20
-8270088.495334581
 30
0.0
 11
7777474.624025213
 21
-8270002.781057439
 31
0.0
  0
LINE
  5
102AE
330
1F
100
AcDbEntity
  8
DEFPOINTS
  6
Continuous
100
AcDbLine
 10
7777474.624025213
 20
-8270002.781057439
 30
0.0
 11
7777388.90974807
 21
-8269917.066780296
 31
0.0
  0
LINE
  5
102AF
330
1F
100
AcDbEntity
  8
DEFPOINTS
  6
Continuous
100
AcDbLine
 10
7777388.90974807
 20
-8269917.066780296
 30
0.0
 11
7777474.624025213
 21
-8269831.352503153
 31
0.0
  0
LINE
  5
102B0
330
1F
100
AcDbEntity
  8
DEFPOINTS
  6
Continuous
100
AcDbLine
 10
7777474.624025213
 20
-8269831.352503153
 30
0.0
 11
7777388.90974807
 21
-8269745.638226009
 31
0.0
  0
LINE
  5
102B1
330
1F
100
AcDbEntity
  8
DEFPOINTS
  6
Continuous
100
AcDbLine
 10
7777388.90974807
 20
-8269745.638226009
 30
0.0
 11
7777474.624025213
 21
-8269659.923948866
 31
0.0
  0
LINE
  5
102B2
330
1F
100
AcDbEntity
  8
DEFPOINTS
  6
Continuous
100
AcDbLine
 10
7777474.624025213
 20
-8269659.923948866
 30
0.0
 11
7777388.90974807
 21
-8269574.209671725
 31
0.0
  0
LINE
  5
102B3
330
1F
100
AcDbEntity
  8
DEFPOINTS
  6
Continuous
100
AcDbLine
 10
7777388.90974807
 20
-8269574.209671725
 30
0.0
 11
7777474.624025213
 21
-8269488.495394583
 31
0.0
  0
LINE
  5
102B4
330
1F
100
AcDbEntity
  8
DEFPOINTS
  6
Continuous
100
AcDbLine
 10
7777474.624025213
 20
-8269488.495394583
 30
0.0
 11
7777388.90974807
 21
-8269402.781117438
 31
0.0
  0
LINE
  5
102B5
330
1F
100
AcDbEntity
  8
DEFPOINTS
  6
Continuous
100
AcDbLine
 10
7777388.90974807
 20
-8269402.781117438
 30
0.0
 11
7777474.624025213
 21
-8269317.066840295
 31
0.0
  0
LINE
  5
102B6
330
1F
100
AcDbEntity
  8
DEFPOINTS
  6
Continuous
100
AcDbLine
 10
7777474.624025213
 20
-8269317.066840295
 30
0.0
 11
7777388.90974807
 21
-8269231.352563153
 31
0.0
  0
LINE
  5
102B7
330
1F
100
AcDbEntity
  8
DEFPOINTS
  6
Continuous
100
AcDbLine
 10
7777388.90974807
 20
-8269231.352563153
 30
0.0
 11
7777474.624025213
 21
-8269145.63828601
 31
0.0
  0
LINE
  5
102B8
330
1F
100
AcDbEntity
  8
DEFPOINTS
  6
Continuous
100
AcDbLine
 10
7777474.624025213
 20
-8269145.63828601
 30
0.0
 11
7777388.90974807
 21
-8269059.924008868
 31
0.0
  0
LINE
  5
102B9
330
1F
100
AcDbEntity
  8
DEFPOINTS
  6
Continuous
100
AcDbLine
 10
7777388.90974807
 20
-8269059.924008868
 30
0.0
 11
7777474.624025213
 21
-8268974.209731723
 31
0.0
  0
LINE
  5
102BA
330
1F
100
AcDbEntity
  8
DEFPOINTS
  6
Continuous
100
AcDbLine
 10
7777474.624025213
 20
-8268974.209731723
 30
0.0
 11
7777388.90974807
 21
-8268888.49545458
 31
0.0
  0
LINE
  5
102BB
330
1F
100
AcDbEntity
  8
DEFPOINTS
  6
Continuous
100
AcDbLine
 10
7777388.90974807
 20
-8268888.49545458
 30
0.0
 11
7777474.624025213
 21
-8268802.78117744
 31
0.0
  0
LINE
  5
102BC
330
1F
100
AcDbEntity
  8
DEFPOINTS
  6
Continuous
100
AcDbLine
 10
7777474.624025213
 20
-8268802.78117744
 30
0.0
 11
7777388.90974807
 21
-8268717.066900297
 31
0.0
  0
LINE
  5
102BD
330
1F
100
AcDbEntity
  8
DEFPOINTS
  6
Continuous
100
AcDbLine
 10
7777388.90974807
 20
-8268717.066900297
 30
0.0
 11
7777474.624025213
 21
-8268631.352623152
 31
0.0
  0
LINE
  5
102BE
330
1F
100
AcDbEntity
  8
DEFPOINTS
  6
Continuous
100
AcDbLine
 10
7777474.624025213
 20
-8268631.352623152
 30
0.0
 11
7777388.90974807
 21
-8268545.63834601
 31
0.0
  0
LINE
  5
102BF
330
1F
100
AcDbEntity
  8
DEFPOINTS
  6
Continuous
100
AcDbLine
 10
7777388.90974807
 20
-8268545.63834601
 30
0.0
 11
7777474.624025213
 21
-8268459.924068867
 31
0.0
  0
LINE
  5
102C0
330
1F
100
AcDbEntity
  8
DEFPOINTS
  6
Continuous
100
AcDbLine
 10
7777474.624025213
 20
-8268459.924068867
 30
0.0
 11
7777388.90974807
 21
-8268374.209791724
 31
0.0
  0
LINE
  5
102C1
330
1F
100
AcDbEntity
  8
DEFPOINTS
  6
Continuous
100
AcDbLine
 10
7777388.90974807
 20
-8268374.209791724
 30
0.0
 11
7777474.624025213
 21
-8268288.49551458
 31
0.0
  0
LINE
  5
102C2
330
1F
100
AcDbEntity
  8
DEFPOINTS
  6
Continuous
100
AcDbLine
 10
7777474.624025213
 20
-8268288.49551458
 30
0.0
 11
7777388.90974807
 21
-8268202.781237437
 31
0.0
  0
LINE
  5
102C3
330
1F
100
AcDbEntity
  8
DEFPOINTS
  6
Continuous
100
AcDbLine
 10
7777388.90974807
 20
-8268202.781237437
 30
0.0
 11
7777474.624025213
 21
-8268117.066960297
 31
0.0
  0
LINE
  5
102C4
330
1F
100
AcDbEntity
  8
DEFPOINTS
  6
Continuous
100
AcDbLine
 10
7777474.624025213
 20
-8268117.066960297
 30
0.0
 11
7777388.90974807
 21
-8268031.352683154
 31
0.0
  0
LINE
  5
102C5
330
1F
100
AcDbEntity
  8
DEFPOINTS
  6
Continuous
100
AcDbLine
 10
7777388.90974807
 20
-8268031.352683154
 30
0.0
 11
7777474.624025213
 21
-8267945.638406011
 31
0.0
  0
LINE
  5
102C6
330
1F
100
AcDbEntity
  8
DEFPOINTS
  6
Continuous
100
AcDbLine
 10
7777474.624025213
 20
-8267945.638406011
 30
0.0
 11
7777388.90974807
 21
-8267859.924128867
 31
0.0
  0
LINE
  5
102C7
330
1F
100
AcDbEntity
  8
DEFPOINTS
  6
Continuous
100
AcDbLine
 10
7777388.90974807
 20
-8267859.924128867
 30
0.0
 11
7777474.624025213
 21
-8267774.209851724
 31
0.0
  0
LINE
  5
102C8
330
1F
100
AcDbEntity
  8
DEFPOINTS
  6
Continuous
100
AcDbLine
 10
7777474.624025213
 20
-8267774.209851724
 30
0.0
 11
7777388.90974807
 21
-8267688.495574581
 31
0.0
  0
LINE
  5
102C9
330
1F
100
AcDbEntity
  8
DEFPOINTS
  6
Continuous
100
AcDbLine
 10
7777388.90974807
 20
-8267688.495574581
 30
0.0
 11
7777474.624025213
 21
-8267602.781297439
 31
0.0
  0
LINE
  5
102CA
330
1F
100
AcDbEntity
  8
DEFPOINTS
  6
Continuous
100
AcDbLine
 10
7777474.624025213
 20
-8267602.781297439
 30
0.0
 11
7777388.90974807
 21
-8267517.067020294
 31
0.0
  0
LINE
  5
102CB
330
1F
100
AcDbEntity
  8
DEFPOINTS
  6
Continuous
100
AcDbLine
 10
7777388.90974807
 20
-8267517.067020294
 30
0.0
 11
7777474.624025213
 21
-8267431.352743152
 31
0.0
  0
LINE
  5
102CC
330
1F
100
AcDbEntity
  8
DEFPOINTS
  6
Continuous
100
AcDbLine
 10
7777474.624025213
 20
-8267431.352743152
 30
0.0
 11
7777388.90974807
 21
-8267345.638466011
 31
0.0
  0
LINE
  5
102CD
330
1F
100
AcDbEntity
  8
DEFPOINTS
  6
Continuous
100
AcDbLine
 10
7777388.90974807
 20
-8267345.638466011
 30
0.0
 11
7777474.624025213
 21
-8267259.924188868
 31
0.0
  0
LINE
  5
102CE
330
1F
100
AcDbEntity
  8
DEFPOINTS
  6
Continuous
100
AcDbLine
 10
7777474.624025213
 20
-8267259.924188868
 30
0.0
 11
7777388.90974807
 21
-8267174.209911726
 31
0.0
  0
LINE
  5
102CF
330
1F
100
AcDbEntity
  8
DEFPOINTS
  6
Continuous
100
AcDbLine
 10
7777388.90974807
 20
-8267174.209911726
 30
0.0
 11
7777474.624025213
 21
-8267088.495634581
 31
0.0
  0
LINE
  5
102D0
330
1F
100
AcDbEntity
  8
DEFPOINTS
  6
Continuous
100
AcDbLine
 10
7777474.624025213
 20
-8267088.495634581
 30
0.0
 11
7777388.90974807
 21
-8267002.781357438
 31
0.0
  0
LINE
  5
102D1
330
1F
100
AcDbEntity
  8
DEFPOINTS
  6
Continuous
100
AcDbLine
 10
7777388.90974807
 20
-8267002.781357438
 30
0.0
 11
7777474.624025213
 21
-8266917.067080296
 31
0.0
  0
LINE
  5
102D2
330
1F
100
AcDbEntity
  8
DEFPOINTS
  6
Continuous
100
AcDbLine
 10
7777474.624025213
 20
-8266917.067080296
 30
0.0
 11
7777388.90974807
 21
-8266831.352803153
 31
0.0
  0
LINE
  5
102D3
330
1F
100
AcDbEntity
  8
DEFPOINTS
  6
Continuous
100
AcDbLine
 10
7777388.90974807
 20
-8266831.352803153
 30
0.0
 11
7777474.624025213
 21
-8266745.638526009
 31
0.0
  0
LINE
  5
102D4
330
1F
100
AcDbEntity
  8
DEFPOINTS
  6
Continuous
100
AcDbLine
 10
7777474.624025213
 20
-8266745.638526009
 30
0.0
 11
7777388.90974807
 21
-8266659.924248866
 31
0.0
  0
LINE
  5
102D5
330
1F
100
AcDbEntity
  8
DEFPOINTS
  6
Continuous
100
AcDbLine
 10
7777388.90974807
 20
-8266659.924248866
 30
0.0
 11
7777474.624025213
 21
-8266574.209971725
 31
0.0
  0
LINE
  5
102D6
330
1F
100
AcDbEntity
  8
DEFPOINTS
  6
Continuous
100
AcDbLine
 10
7777474.624025213
 20
-8266574.209971725
 30
0.0
 11
7777388.90974807
 21
-8266488.495694582
 31
0.0
  0
LINE
  5
102D7
330
1F
100
AcDbEntity
  8
DEFPOINTS
  6
Continuous
100
AcDbLine
 10
7777388.90974807
 20
-8266488.495694582
 30
0.0
 11
7777474.624025213
 21
-8266402.781417438
 31
0.0
  0
LINE
  5
102D8
330
1F
100
AcDbEntity
  8
DEFPOINTS
  6
Continuous
100
AcDbLine
 10
7777474.624025213
 20
-8266402.781417438
 30
0.0
 11
7777388.90974807
 21
-8266317.067140295
 31
0.0
  0
LINE
  5
102D9
330
1F
100
AcDbEntity
  8
DEFPOINTS
  6
Continuous
100
AcDbLine
 10
7777388.90974807
 20
-8266317.067140295
 30
0.0
 11
7777474.624025213
 21
-8266231.352863153
 31
0.0
  0
LINE
  5
102DA
330
1F
100
AcDbEntity
  8
DEFPOINTS
  6
Continuous
100
AcDbLine
 10
7777474.624025213
 20
-8266231.352863153
 30
0.0
 11
7777388.90974807
 21
-8266145.63858601
 31
0.0
  0
LINE
  5
102DB
330
1F
100
AcDbEntity
  8
DEFPOINTS
  6
Continuous
100
AcDbLine
 10
7777346.483319498
 20
-8270088.495334581
 30
0.0
 11
7777432.197596643
 21
-8270174.209611724
 31
0.0
  0
LINE
  5
102DC
330
1F
100
AcDbEntity
  8
DEFPOINTS
  6
Continuous
100
AcDbLine
 10
7777432.197596643
 20
-8270174.209611724
 30
0.0
 11
7777346.483319498
 21
-8270259.923888868
 31
0.0
  0
LINE
  5
102DD
330
1F
100
AcDbEntity
  8
DEFPOINTS
  6
Continuous
100
AcDbLine
 10
7777346.483319498
 20
-8270259.923888868
 30
0.0
 11
7777432.197596643
 21
-8270345.638166011
 31
0.0
  0
LINE
  5
102DE
330
1F
100
AcDbEntity
  8
DEFPOINTS
  6
Continuous
100
AcDbLine
 10
7777432.197596643
 20
-8270345.638166011
 30
0.0
 11
7777346.483319498
 21
-8270431.352443152
 31
0.0
  0
LINE
  5
102DF
330
1F
100
AcDbEntity
  8
DEFPOINTS
  6
Continuous
100
AcDbLine
 10
7777346.483319498
 20
-8270431.352443152
 30
0.0
 11
7777432.197596643
 21
-8270517.066720296
 31
0.0
  0
LINE
  5
102E0
330
1F
100
AcDbEntity
  8
DEFPOINTS
  6
Continuous
100
AcDbLine
 10
7777432.197596643
 20
-8270517.066720296
 30
0.0
 11
7777346.483319498
 21
-8270602.780997439
 31
0.0
  0
LINE
  5
102E1
330
1F
100
AcDbEntity
  8
DEFPOINTS
  6
Continuous
100
AcDbLine
 10
7777388.90974807
 20
-8270602.780997439
 30
0.0
 11
7777474.624025213
 21
-8270517.066720296
 31
0.0
  0
LINE
  5
102E2
330
1F
100
AcDbEntity
  8
DEFPOINTS
  6
Continuous
100
AcDbLine
 10
7777474.624025213
 20
-8270517.066720296
 30
0.0
 11
7777388.90974807
 21
-8270431.352443152
 31
0.0
  0
LINE
  5
102E3
330
1F
100
AcDbEntity
  8
DEFPOINTS
  6
Continuous
100
AcDbLine
 10
7777388.90974807
 20
-8270431.352443152
 30
0.0
 11
7777474.624025213
 21
-8270345.638166011
 31
0.0
  0
LINE
  5
102E4
330
1F
100
AcDbEntity
  8
DEFPOINTS
  6
Continuous
100
AcDbLine
 10
7777474.624025213
 20
-8270345.638166011
 30
0.0
 11
7777388.90974807
 21
-8270259.923888868
 31
0.0
  0
LINE
  5
102E5
330
1F
100
AcDbEntity
  8
DEFPOINTS
  6
Continuous
100
AcDbLine
 10
7777388.90974807
 20
-8270259.923888868
 30
0.0
 11
7777474.624025213
 21
-8270174.209611724
 31
0.0
  0
LINE
  5
102E6
330
1F
100
AcDbEntity
  8
DEFPOINTS
  6
Continuous
100
AcDbLine
 10
7777474.624025213
 20
-8270174.209611724
 30
0.0
 11
7777388.90974807
 21
-8270088.495334581
 31
0.0
  0
LINE
  5
102E7
330
1F
100
AcDbEntity
  8
DEFPOINTS
  6
Continuous
100
AcDbLine
 10
7777346.483319498
 20
-8270602.780997439
 30
0.0
 11
7777432.197596643
 21
-8270688.495274582
 31
0.0
  0
LINE
  5
102E8
330
1F
100
AcDbEntity
  8
DEFPOINTS
  6
Continuous
100
AcDbLine
 10
7777432.197596643
 20
-8270688.495274582
 30
0.0
 11
7777346.483319498
 21
-8270774.209551726
 31
0.0
  0
LINE
  5
102E9
330
1F
100
AcDbEntity
  8
DEFPOINTS
  6
Continuous
100
AcDbLine
 10
7777346.483319498
 20
-8270774.209551726
 30
0.0
 11
7777432.197596643
 21
-8270859.923828867
 31
0.0
  0
LINE
  5
102EA
330
1F
100
AcDbEntity
  8
DEFPOINTS
  6
Continuous
100
AcDbLine
 10
7777432.197596643
 20
-8270859.923828867
 30
0.0
 11
7777346.483319498
 21
-8270945.63810601
 31
0.0
  0
LINE
  5
102EB
330
1F
100
AcDbEntity
  8
DEFPOINTS
  6
Continuous
100
AcDbLine
 10
7777346.483319498
 20
-8270945.63810601
 30
0.0
 11
7777432.197596643
 21
-8271031.352383154
 31
0.0
  0
LINE
  5
102EC
330
1F
100
AcDbEntity
  8
DEFPOINTS
  6
Continuous
100
AcDbLine
 10
7777432.197596643
 20
-8271031.352383154
 30
0.0
 11
7777346.483319498
 21
-8271117.066660297
 31
0.0
  0
LINE
  5
102ED
330
1F
100
AcDbEntity
  8
DEFPOINTS
  6
Continuous
100
AcDbLine
 10
7777388.90974807
 20
-8271117.066660297
 30
0.0
 11
7777474.624025213
 21
-8271031.352383154
 31
0.0
  0
LINE
  5
102EE
330
1F
100
AcDbEntity
  8
DEFPOINTS
  6
Continuous
100
AcDbLine
 10
7777474.624025213
 20
-8271031.352383154
 30
0.0
 11
7777388.90974807
 21
-8270945.63810601
 31
0.0
  0
LINE
  5
102EF
330
1F
100
AcDbEntity
  8
DEFPOINTS
  6
Continuous
100
AcDbLine
 10
7777388.90974807
 20
-8270945.63810601
 30
0.0
 11
7777474.624025213
 21
-8270859.923828867
 31
0.0
  0
LINE
  5
102F0
330
1F
100
AcDbEntity
  8
DEFPOINTS
  6
Continuous
100
AcDbLine
 10
7777474.624025213
 20
-8270859.923828867
 30
0.0
 11
7777388.90974807
 21
-8270774.209551726
 31
0.0
  0
LINE
  5
102F1
330
1F
100
AcDbEntity
  8
DEFPOINTS
  6
Continuous
100
AcDbLine
 10
7777388.90974807
 20
-8270774.209551726
 30
0.0
 11
7777474.624025213
 21
-8270688.495274582
 31
0.0
  0
LINE
  5
102F2
330
1F
100
AcDbEntity
  8
DEFPOINTS
  6
Continuous
100
AcDbLine
 10
7777474.624025213
 20
-8270688.495274582
 30
0.0
 11
7777388.90974807
 21
-8270602.780997439
 31
0.0
  0
LINE
  5
102F3
330
1F
100
AcDbEntity
  8
DEFPOINTS
  6
Continuous
100
AcDbLine
 10
7777346.483319498
 20
-8271117.066660297
 30
0.0
 11
7777432.197596643
 21
-8271202.780937439
 31
0.0
  0
LINE
  5
102F4
330
1F
100
AcDbEntity
  8
DEFPOINTS
  6
Continuous
100
AcDbLine
 10
7777432.197596643
 20
-8271202.780937439
 30
0.0
 11
7777346.483319498
 21
-8271288.495214582
 31
0.0
  0
LINE
  5
102F5
330
1F
100
AcDbEntity
  8
DEFPOINTS
  6
Continuous
100
AcDbLine
 10
7777346.483319498
 20
-8271288.495214582
 30
0.0
 11
7777432.197596643
 21
-8271374.209491725
 31
0.0
  0
LINE
  5
102F6
330
1F
100
AcDbEntity
  8
DEFPOINTS
  6
Continuous
100
AcDbLine
 10
7777432.197596643
 20
-8271374.209491725
 30
0.0
 11
7777346.483319498
 21
-8271459.923768869
 31
0.0
  0
LINE
  5
102F7
330
1F
100
AcDbEntity
  8
DEFPOINTS
  6
Continuous
100
AcDbLine
 10
7777346.483319498
 20
-8271459.923768869
 30
0.0
 11
7777432.197596643
 21
-8271545.63804601
 31
0.0
  0
LINE
  5
102F8
330
1F
100
AcDbEntity
  8
DEFPOINTS
  6
Continuous
100
AcDbLine
 10
7777432.197596643
 20
-8271545.63804601
 30
0.0
 11
7777346.483319498
 21
-8271631.352323153
 31
0.0
  0
LINE
  5
102F9
330
1F
100
AcDbEntity
  8
DEFPOINTS
  6
Continuous
100
AcDbLine
 10
7777388.90974807
 20
-8271631.352323153
 30
0.0
 11
7777474.624025213
 21
-8271545.63804601
 31
0.0
  0
LINE
  5
102FA
330
1F
100
AcDbEntity
  8
DEFPOINTS
  6
Continuous
100
AcDbLine
 10
7777474.624025213
 20
-8271545.63804601
 30
0.0
 11
7777388.90974807
 21
-8271459.923768869
 31
0.0
  0
LINE
  5
102FB
330
1F
100
AcDbEntity
  8
DEFPOINTS
  6
Continuous
100
AcDbLine
 10
7777388.90974807
 20
-8271459.923768869
 30
0.0
 11
7777474.624025213
 21
-8271374.209491725
 31
0.0
  0
LINE
  5
102FC
330
1F
100
AcDbEntity
  8
DEFPOINTS
  6
Continuous
100
AcDbLine
 10
7777474.624025213
 20
-8271374.209491725
 30
0.0
 11
7777388.90974807
 21
-8271288.495214582
 31
0.0
  0
LINE
  5
102FD
330
1F
100
AcDbEntity
  8
DEFPOINTS
  6
Continuous
100
AcDbLine
 10
7777388.90974807
 20
-8271288.495214582
 30
0.0
 11
7777474.624025213
 21
-8271202.780937439
 31
0.0
  0
LINE
  5
102FE
330
1F
100
AcDbEntity
  8
DEFPOINTS
  6
Continuous
100
AcDbLine
 10
7777474.624025213
 20
-8271202.780937439
 30
0.0
 11
7777388.90974807
 21
-8271117.066660297
 31
0.0
  0
LINE
  5
102FF
330
1F
100
AcDbEntity
  8
DEFPOINTS
  6
Continuous
100
AcDbLine
 10
7777346.483319498
 20
-8271631.352323153
 30
0.0
 11
7777432.197596643
 21
-8271717.066600295
 31
0.0
  0
LINE
  5
10300
330
1F
100
AcDbEntity
  8
DEFPOINTS
  6
Continuous
100
AcDbLine
 10
7777432.197596643
 20
-8271717.066600295
 30
0.0
 11
7777346.483319498
 21
-8271802.78087744
 31
0.0
  0
LINE
  5
10301
330
1F
100
AcDbEntity
  8
DEFPOINTS
  6
Continuous
100
AcDbLine
 10
7777346.483319498
 20
-8271802.78087744
 30
0.0
 11
7777432.197596643
 21
-8271888.495154582
 31
0.0
  0
LINE
  5
10302
330
1F
100
AcDbEntity
  8
DEFPOINTS
  6
Continuous
100
AcDbLine
 10
7777432.197596643
 20
-8271888.495154582
 30
0.0
 11
7777346.483319498
 21
-8271974.209431725
 31
0.0
  0
LINE
  5
10303
330
1F
100
AcDbEntity
  8
DEFPOINTS
  6
Continuous
100
AcDbLine
 10
7777346.483319498
 20
-8271974.209431725
 30
0.0
 11
7777432.197596643
 21
-8272059.923708868
 31
0.0
  0
LINE
  5
10304
330
1F
100
AcDbEntity
  8
DEFPOINTS
  6
Continuous
100
AcDbLine
 10
7777432.197596643
 20
-8272059.923708868
 30
0.0
 11
7777346.483319498
 21
-8272145.63798601
 31
0.0
  0
LINE
  5
10305
330
1F
100
AcDbEntity
  8
DEFPOINTS
  6
Continuous
100
AcDbLine
 10
7777388.90974807
 20
-8272145.63798601
 30
0.0
 11
7777474.624025213
 21
-8272059.923708868
 31
0.0
  0
LINE
  5
10306
330
1F
100
AcDbEntity
  8
DEFPOINTS
  6
Continuous
100
AcDbLine
 10
7777474.624025213
 20
-8272059.923708868
 30
0.0
 11
7777388.90974807
 21
-8271974.209431725
 31
0.0
  0
LINE
  5
10307
330
1F
100
AcDbEntity
  8
DEFPOINTS
  6
Continuous
100
AcDbLine
 10
7777388.90974807
 20
-8271974.209431725
 30
0.0
 11
7777474.624025213
 21
-8271888.495154582
 31
0.0
  0
LINE
  5
10308
330
1F
100
AcDbEntity
  8
DEFPOINTS
  6
Continuous
100
AcDbLine
 10
7777474.624025213
 20
-8271888.495154582
 30
0.0
 11
7777388.90974807
 21
-8271802.78087744
 31
0.0
  0
LINE
  5
10309
330
1F
100
AcDbEntity
  8
DEFPOINTS
  6
Continuous
100
AcDbLine
 10
7777388.90974807
 20
-8271802.78087744
 30
0.0
 11
7777474.624025213
 21
-8271717.066600295
 31
0.0
  0
LINE
  5
1030A
330
1F
100
AcDbEntity
  8
DEFPOINTS
  6
Continuous
100
AcDbLine
 10
7777474.624025213
 20
-8271717.066600295
 30
0.0
 11
7777388.90974807
 21
-8271631.352323153
 31
0.0
  0
LINE
  5
1030B
330
1F
100
AcDbEntity
  8
DEFPOINTS
  6
Continuous
100
AcDbLine
 10
7777346.483319498
 20
-8272145.63798601
 30
0.0
 11
7777432.197596643
 21
-8272231.352263155
 31
0.0
  0
LINE
  5
1030C
330
1F
100
AcDbEntity
  8
DEFPOINTS
  6
Continuous
100
AcDbLine
 10
7777432.197596643
 20
-8272231.352263155
 30
0.0
 11
7777346.483319498
 21
-8272317.066540296
 31
0.0
  0
LINE
  5
1030D
330
1F
100
AcDbEntity
  8
DEFPOINTS
  6
Continuous
100
AcDbLine
 10
7777346.483319498
 20
-8272317.066540296
 30
0.0
 11
7777432.197596643
 21
-8272402.780817438
 31
0.0
  0
LINE
  5
1030E
330
1F
100
AcDbEntity
  8
DEFPOINTS
  6
Continuous
100
AcDbLine
 10
7777432.197596643
 20
-8272402.780817438
 30
0.0
 11
7777346.483319498
 21
-8272488.495094583
 31
0.0
  0
LINE
  5
1030F
330
1F
100
AcDbEntity
  8
DEFPOINTS
  6
Continuous
100
AcDbLine
 10
7777346.483319498
 20
-8272488.495094583
 30
0.0
 11
7777432.197596643
 21
-8272574.209371725
 31
0.0
  0
LINE
  5
10310
330
1F
100
AcDbEntity
  8
DEFPOINTS
  6
Continuous
100
AcDbLine
 10
7777432.197596643
 20
-8272574.209371725
 30
0.0
 11
7777346.483319498
 21
-8272659.923648868
 31
0.0
  0
LINE
  5
10311
330
1F
100
AcDbEntity
  8
DEFPOINTS
  6
Continuous
100
AcDbLine
 10
7777388.90974807
 20
-8272659.923648868
 30
0.0
 11
7777474.624025213
 21
-8272574.209371725
 31
0.0
  0
LINE
  5
10312
330
1F
100
AcDbEntity
  8
DEFPOINTS
  6
Continuous
100
AcDbLine
 10
7777474.624025213
 20
-8272574.209371725
 30
0.0
 11
7777388.90974807
 21
-8272488.495094583
 31
0.0
  0
LINE
  5
10313
330
1F
100
AcDbEntity
  8
DEFPOINTS
  6
Continuous
100
AcDbLine
 10
7777388.90974807
 20
-8272488.495094583
 30
0.0
 11
7777474.624025213
 21
-8272402.780817438
 31
0.0
  0
LINE
  5
10314
330
1F
100
AcDbEntity
  8
DEFPOINTS
  6
Continuous
100
AcDbLine
 10
7777474.624025213
 20
-8272402.780817438
 30
0.0
 11
7777388.90974807
 21
-8272317.066540296
 31
0.0
  0
LINE
  5
10315
330
1F
100
AcDbEntity
  8
DEFPOINTS
  6
Continuous
100
AcDbLine
 10
7777388.90974807
 20
-8272317.066540296
 30
0.0
 11
7777474.624025213
 21
-8272231.352263155
 31
0.0
  0
LINE
  5
10316
330
1F
100
AcDbEntity
  8
DEFPOINTS
  6
Continuous
100
AcDbLine
 10
7777474.624025213
 20
-8272231.352263155
 30
0.0
 11
7777388.90974807
 21
-8272145.63798601
 31
0.0
  0
LINE
  5
10317
330
1F
100
AcDbEntity
  8
DEFPOINTS
  6
Continuous
100
AcDbLine
 10
7777346.483319498
 20
-8272659.923648868
 30
0.0
 11
7777432.197596643
 21
-8272745.637926011
 31
0.0
  0
LINE
  5
10318
330
1F
100
AcDbEntity
  8
DEFPOINTS
  6
Continuous
100
AcDbLine
 10
7777432.197596643
 20
-8272745.637926011
 30
0.0
 11
7777346.483319498
 21
-8272831.352203153
 31
0.0
  0
LINE
  5
10319
330
1F
100
AcDbEntity
  8
DEFPOINTS
  6
Continuous
100
AcDbLine
 10
7777346.483319498
 20
-8272831.352203153
 30
0.0
 11
7777432.197596643
 21
-8272917.066480298
 31
0.0
  0
LINE
  5
1031A
330
1F
100
AcDbEntity
  8
DEFPOINTS
  6
Continuous
100
AcDbLine
 10
7777432.197596643
 20
-8272917.066480298
 30
0.0
 11
7777346.483319498
 21
-8273002.78075744
 31
0.0
  0
LINE
  5
1031B
330
1F
100
AcDbEntity
  8
DEFPOINTS
  6
Continuous
100
AcDbLine
 10
7777346.483319498
 20
-8273002.78075744
 30
0.0
 11
7777432.197596643
 21
-8273088.495034581
 31
0.0
  0
LINE
  5
1031C
330
1F
100
AcDbEntity
  8
DEFPOINTS
  6
Continuous
100
AcDbLine
 10
7777432.197596643
 20
-8273088.495034581
 30
0.0
 11
7777346.483319498
 21
-8273174.209311724
 31
0.0
  0
LINE
  5
1031D
330
1F
100
AcDbEntity
  8
DEFPOINTS
  6
Continuous
100
AcDbLine
 10
7777388.90974807
 20
-8273174.209311724
 30
0.0
 11
7777474.624025213
 21
-8273088.495034581
 31
0.0
  0
LINE
  5
1031E
330
1F
100
AcDbEntity
  8
DEFPOINTS
  6
Continuous
100
AcDbLine
 10
7777474.624025213
 20
-8273088.495034581
 30
0.0
 11
7777388.90974807
 21
-8273002.78075744
 31
0.0
  0
LINE
  5
1031F
330
1F
100
AcDbEntity
  8
DEFPOINTS
  6
Continuous
100
AcDbLine
 10
7777388.90974807
 20
-8273002.78075744
 30
0.0
 11
7777474.624025213
 21
-8272917.066480298
 31
0.0
  0
LINE
  5
10320
330
1F
100
AcDbEntity
  8
DEFPOINTS
  6
Continuous
100
AcDbLine
 10
7777474.624025213
 20
-8272917.066480298
 30
0.0
 11
7777388.90974807
 21
-8272831.352203153
 31
0.0
  0
LINE
  5
10321
330
1F
100
AcDbEntity
  8
DEFPOINTS
  6
Continuous
100
AcDbLine
 10
7777388.90974807
 20
-8272831.352203153
 30
0.0
 11
7777474.624025213
 21
-8272745.637926011
 31
0.0
  0
LINE
  5
10322
330
1F
100
AcDbEntity
  8
DEFPOINTS
  6
Continuous
100
AcDbLine
 10
7777474.624025213
 20
-8272745.637926011
 30
0.0
 11
7777388.90974807
 21
-8272659.923648868
 31
0.0
  0
LINE
  5
10323
330
1F
100
AcDbEntity
  8
DEFPOINTS
  6
Continuous
100
AcDbLine
 10
7777346.483319498
 20
-8273174.209311724
 30
0.0
 11
7777432.197596643
 21
-8273259.923588868
 31
0.0
  0
LINE
  5
10324
330
1F
100
AcDbEntity
  8
DEFPOINTS
  6
Continuous
100
AcDbLine
 10
7777432.197596643
 20
-8273259.923588868
 30
0.0
 11
7777346.483319498
 21
-8273345.637866011
 31
0.0
  0
LINE
  5
10325
330
1F
100
AcDbEntity
  8
DEFPOINTS
  6
Continuous
100
AcDbLine
 10
7777346.483319498
 20
-8273345.637866011
 30
0.0
 11
7777432.197596643
 21
-8273431.352143154
 31
0.0
  0
LINE
  5
10326
330
1F
100
AcDbEntity
  8
DEFPOINTS
  6
Continuous
100
AcDbLine
 10
7777432.197596643
 20
-8273431.352143154
 30
0.0
 11
7777346.483319498
 21
-8273517.066420296
 31
0.0
  0
LINE
  5
10327
330
1F
100
AcDbEntity
  8
DEFPOINTS
  6
Continuous
100
AcDbLine
 10
7777346.483319498
 20
-8273517.066420296
 30
0.0
 11
7777432.197596643
 21
-8273602.780697439
 31
0.0
  0
LINE
  5
10328
330
1F
100
AcDbEntity
  8
DEFPOINTS
  6
Continuous
100
AcDbLine
 10
7777432.197596643
 20
-8273602.780697439
 30
0.0
 11
7777346.483319498
 21
-8273688.494974583
 31
0.0
  0
LINE
  5
10329
330
1F
100
AcDbEntity
  8
DEFPOINTS
  6
Continuous
100
AcDbLine
 10
7777388.90974807
 20
-8273688.494974583
 30
0.0
 11
7777474.624025213
 21
-8273602.780697439
 31
0.0
  0
LINE
  5
1032A
330
1F
100
AcDbEntity
  8
DEFPOINTS
  6
Continuous
100
AcDbLine
 10
7777474.624025213
 20
-8273602.780697439
 30
0.0
 11
7777388.90974807
 21
-8273517.066420296
 31
0.0
  0
LINE
  5
1032B
330
1F
100
AcDbEntity
  8
DEFPOINTS
  6
Continuous
100
AcDbLine
 10
7777388.90974807
 20
-8273517.066420296
 30
0.0
 11
7777474.624025213
 21
-8273431.352143154
 31
0.0
  0
LINE
  5
1032C
330
1F
100
AcDbEntity
  8
DEFPOINTS
  6
Continuous
100
AcDbLine
 10
7777474.624025213
 20
-8273431.352143154
 30
0.0
 11
7777388.90974807
 21
-8273345.637866011
 31
0.0
  0
LINE
  5
1032D
330
1F
100
AcDbEntity
  8
DEFPOINTS
  6
Continuous
100
AcDbLine
 10
7777388.90974807
 20
-8273345.637866011
 30
0.0
 11
7777474.624025213
 21
-8273259.923588868
 31
0.0
  0
LINE
  5
1032E
330
1F
100
AcDbEntity
  8
DEFPOINTS
  6
Continuous
100
AcDbLine
 10
7777474.624025213
 20
-8273259.923588868
 30
0.0
 11
7777388.90974807
 21
-8273174.209311724
 31
0.0
  0
LINE
  5
1032F
330
1F
100
AcDbEntity
  8
DEFPOINTS
  6
Continuous
100
AcDbLine
 10
7777346.483319498
 20
-8273688.494974583
 30
0.0
 11
7777432.197596643
 21
-8273774.209251726
 31
0.0
  0
LINE
  5
10330
330
1F
100
AcDbEntity
  8
DEFPOINTS
  6
Continuous
100
AcDbLine
 10
7777432.197596643
 20
-8273774.209251726
 30
0.0
 11
7777346.483319498
 21
-8273859.923528867
 31
0.0
  0
LINE
  5
10331
330
1F
100
AcDbEntity
  8
DEFPOINTS
  6
Continuous
100
AcDbLine
 10
7777346.483319498
 20
-8273859.923528867
 30
0.0
 11
7777432.197596643
 21
-8273945.63780601
 31
0.0
  0
LINE
  5
10332
330
1F
100
AcDbEntity
  8
DEFPOINTS
  6
Continuous
100
AcDbLine
 10
7777432.197596643
 20
-8273945.63780601
 30
0.0
 11
7777346.483319498
 21
-8274031.352083154
 31
0.0
  0
LINE
  5
10333
330
1F
100
AcDbEntity
  8
DEFPOINTS
  6
Continuous
100
AcDbLine
 10
7777346.483319498
 20
-8274031.352083154
 30
0.0
 11
7777432.197596643
 21
-8274117.066360297
 31
0.0
  0
LINE
  5
10334
330
1F
100
AcDbEntity
  8
DEFPOINTS
  6
Continuous
100
AcDbLine
 10
7777432.197596643
 20
-8274117.066360297
 30
0.0
 11
7777346.483319498
 21
-8274202.780637439
 31
0.0
  0
LINE
  5
10335
330
1F
100
AcDbEntity
  8
DEFPOINTS
  6
Continuous
100
AcDbLine
 10
7777388.90974807
 20
-8274202.780637439
 30
0.0
 11
7777474.624025213
 21
-8274117.066360297
 31
0.0
  0
LINE
  5
10336
330
1F
100
AcDbEntity
  8
DEFPOINTS
  6
Continuous
100
AcDbLine
 10
7777474.624025213
 20
-8274117.066360297
 30
0.0
 11
7777388.90974807
 21
-8274031.352083154
 31
0.0
  0
LINE
  5
10337
330
1F
100
AcDbEntity
  8
DEFPOINTS
  6
Continuous
100
AcDbLine
 10
7777388.90974807
 20
-8274031.352083154
 30
0.0
 11
7777474.624025213
 21
-8273945.63780601
 31
0.0
  0
LINE
  5
10338
330
1F
100
AcDbEntity
  8
DEFPOINTS
  6
Continuous
100
AcDbLine
 10
7777474.624025213
 20
-8273945.63780601
 30
0.0
 11
7777388.90974807
 21
-8273859.923528867
 31
0.0
  0
LINE
  5
10339
330
1F
100
AcDbEntity
  8
DEFPOINTS
  6
Continuous
100
AcDbLine
 10
7777388.90974807
 20
-8273859.923528867
 30
0.0
 11
7777474.624025213
 21
-8273774.209251726
 31
0.0
  0
LINE
  5
1033A
330
1F
100
AcDbEntity
  8
DEFPOINTS
  6
Continuous
100
AcDbLine
 10
7777474.624025213
 20
-8273774.209251726
 30
0.0
 11
7777388.90974807
 21
-8273688.494974583
 31
0.0
  0
LINE
  5
1033B
330
1F
100
AcDbEntity
  8
DEFPOINTS
  6
Continuous
100
AcDbLine
 10
7777346.483319498
 20
-8274202.780637439
 30
0.0
 11
7777432.197596643
 21
-8274288.494914582
 31
0.0
  0
LINE
  5
1033C
330
1F
100
AcDbEntity
  8
DEFPOINTS
  6
Continuous
100
AcDbLine
 10
7777432.197596643
 20
-8274288.494914582
 30
0.0
 11
7777346.483319498
 21
-8274374.209191726
 31
0.0
  0
LINE
  5
1033D
330
1F
100
AcDbEntity
  8
DEFPOINTS
  6
Continuous
100
AcDbLine
 10
7777346.483319498
 20
-8274374.209191726
 30
0.0
 11
7777432.197596643
 21
-8274459.923468869
 31
0.0
  0
LINE
  5
1033E
330
1F
100
AcDbEntity
  8
DEFPOINTS
  6
Continuous
100
AcDbLine
 10
7777432.197596643
 20
-8274459.923468869
 30
0.0
 11
7777346.483319498
 21
-8274545.637746012
 31
0.0
  0
LINE
  5
1033F
330
1F
100
AcDbEntity
  8
DEFPOINTS
  6
Continuous
100
AcDbLine
 10
7777346.483319498
 20
-8274545.637746012
 30
0.0
 11
7777432.197596643
 21
-8274631.352023153
 31
0.0
  0
LINE
  5
10340
330
1F
100
AcDbEntity
  8
DEFPOINTS
  6
Continuous
100
AcDbLine
 10
7777432.197596643
 20
-8274631.352023153
 30
0.0
 11
7777346.483319498
 21
-8274717.066300295
 31
0.0
  0
LINE
  5
10341
330
1F
100
AcDbEntity
  8
DEFPOINTS
  6
Continuous
100
AcDbLine
 10
7777388.90974807
 20
-8274717.066300295
 30
0.0
 11
7777474.624025213
 21
-8274631.352023153
 31
0.0
  0
LINE
  5
10342
330
1F
100
AcDbEntity
  8
DEFPOINTS
  6
Continuous
100
AcDbLine
 10
7777474.624025213
 20
-8274631.352023153
 30
0.0
 11
7777388.90974807
 21
-8274545.637746012
 31
0.0
  0
LINE
  5
10343
330
1F
100
AcDbEntity
  8
DEFPOINTS
  6
Continuous
100
AcDbLine
 10
7777388.90974807
 20
-8274545.637746012
 30
0.0
 11
7777474.624025213
 21
-8274459.923468869
 31
0.0
  0
LINE
  5
10344
330
1F
100
AcDbEntity
  8
DEFPOINTS
  6
Continuous
100
AcDbLine
 10
7777474.624025213
 20
-8274459.923468869
 30
0.0
 11
7777388.90974807
 21
-8274374.209191726
 31
0.0
  0
LINE
  5
10345
330
1F
100
AcDbEntity
  8
DEFPOINTS
  6
Continuous
100
AcDbLine
 10
7777388.90974807
 20
-8274374.209191726
 30
0.0
 11
7777474.624025213
 21
-8274288.494914582
 31
0.0
  0
LINE
  5
10346
330
1F
100
AcDbEntity
  8
DEFPOINTS
  6
Continuous
100
AcDbLine
 10
7777474.624025213
 20
-8274288.494914582
 30
0.0
 11
7777388.90974807
 21
-8274202.780637439
 31
0.0
  0
LINE
  5
10347
330
1F
100
AcDbEntity
  8
DEFPOINTS
  6
Continuous
100
AcDbLine
 10
7777346.483319498
 20
-8274717.066300295
 30
0.0
 11
7777432.197596643
 21
-8274802.78057744
 31
0.0
  0
LINE
  5
10348
330
1F
100
AcDbEntity
  8
DEFPOINTS
  6
Continuous
100
AcDbLine
 10
7777432.197596643
 20
-8274802.78057744
 30
0.0
 11
7777346.483319498
 21
-8274888.494854582
 31
0.0
  0
LINE
  5
10349
330
1F
100
AcDbEntity
  8
DEFPOINTS
  6
Continuous
100
AcDbLine
 10
7777346.483319498
 20
-8274888.494854582
 30
0.0
 11
7777432.197596643
 21
-8274974.209131725
 31
0.0
  0
LINE
  5
1034A
330
1F
100
AcDbEntity
  8
DEFPOINTS
  6
Continuous
100
AcDbLine
 10
7777432.197596643
 20
-8274974.209131725
 30
0.0
 11
7777346.483319498
 21
-8275059.923408868
 31
0.0
  0
LINE
  5
1034B
330
1F
100
AcDbEntity
  8
DEFPOINTS
  6
Continuous
100
AcDbLine
 10
7777388.90974807
 20
-8275059.923408868
 30
0.0
 11
7777474.624025213
 21
-8274974.209131725
 31
0.0
  0
LINE
  5
1034C
330
1F
100
AcDbEntity
  8
DEFPOINTS
  6
Continuous
100
AcDbLine
 10
7777474.624025213
 20
-8274974.209131725
 30
0.0
 11
7777388.90974807
 21
-8274888.494854582
 31
0.0
  0
LINE
  5
1034D
330
1F
100
AcDbEntity
  8
DEFPOINTS
  6
Continuous
100
AcDbLine
 10
7777388.90974807
 20
-8274888.494854582
 30
0.0
 11
7777474.624025213
 21
-8274802.78057744
 31
0.0
  0
LINE
  5
1034E
330
1F
100
AcDbEntity
  8
DEFPOINTS
  6
Continuous
100
AcDbLine
 10
7777474.624025213
 20
-8274802.78057744
 30
0.0
 11
7777388.90974807
 21
-8274717.066300295
 31
0.0
  0
LINE
  5
1034F
330
1F
100
AcDbEntity
  8
DEFPOINTS
  6
Continuous
100
AcDbLine
 10
7777346.483319498
 20
-8275059.923408868
 30
0.0
 11
7777432.197596643
 21
-8275145.637686012
 31
0.0
  0
LINE
  5
10350
330
1F
100
AcDbEntity
  8
DEFPOINTS
  6
Continuous
100
AcDbLine
 10
7777432.197596643
 20
-8275145.637686012
 30
0.0
 11
7777346.483319498
 21
-8275231.351963155
 31
0.0
  0
LINE
  5
10351
330
1F
100
AcDbEntity
  8
DEFPOINTS
  6
Continuous
100
AcDbLine
 10
7777388.90974807
 20
-8275231.351963155
 30
0.0
 11
7777474.624025213
 21
-8275145.637686012
 31
0.0
  0
LINE
  5
10352
330
1F
100
AcDbEntity
  8
DEFPOINTS
  6
Continuous
100
AcDbLine
 10
7777474.624025213
 20
-8275145.637686012
 30
0.0
 11
7777388.90974807
 21
-8275059.923408868
 31
0.0
  0
LINE
  5
1035B
330
1F
100
AcDbEntity
  8
0
  6
Continuous
100
AcDbLine
 10
7777895.054967575
 20
-8265332.950302683
 30
0.0
 11
7777388.90974807
 21
-8266145.63858601
 31
0.0
  0
LINE
  5
1035C
330
1F
100
AcDbEntity
  8
0
  6
Continuous
100
AcDbLine
 10
7776895.054967575
 20
-8265332.950302683
 30
0.0
 11
7777346.483319498
 21
-8266145.63858601
 31
0.0
  0
LINE
  5
1035D
330
1F
100
AcDbEntity
  8
0
  6
Continuous
100
AcDbLine
 10
7777346.483319498
 20
-8275231.351963155
 30
0.0
 11
7777346.483319498
 21
-8275465.090312845
 31
0.0
  0
LINE
  5
1035E
330
1F
100
AcDbEntity
  8
0
  6
Continuous
100
AcDbLine
 10
7777388.90974807
 20
-8275231.351963155
 30
0.0
 11
7777388.90974807
 21
-8275465.090312845
 31
0.0
  0
LINE
  5
1035F
330
1F
100
AcDbEntity
  8
0
  6
Continuous
100
AcDbLine
 10
7777346.483319498
 20
-8275465.090312845
 30
0.0
 11
7776895.054967575
 21
-8276189.910136082
 31
0.0
  0
LINE
  5
10360
330
1F
100
AcDbEntity
  8
0
  6
Continuous
100
AcDbLine
 10
7777388.90974807
 20
-8275465.090312845
 30
0.0
 11
7777895.054967575
 21
-8276189.910136082
 31
0.0
  0
ENDSEC
  0
SECTION
  2
OBJECTS
  0
DICTIONARY
  5
C
330
0
100
AcDbDictionary
281
     1
  3
ACAD_BACKGROUND
350
10051
  3
ACAD_CIP_PREVIOUS_PRODUCT_INFO
350
10050
  3
ACAD_COLOR
350
10033
  3
ACAD_DETAILVIEWSTYLE
350
1004C
  3
ACAD_GROUP
350
D
  3
ACAD_LAST_SAVED_VERSION_INFO
350
10361
  3
ACAD_LAYOUT
350
1A
  3
ACAD_MATERIAL
350
10001
  3
ACAD_MLEADERSTYLE
350
10048
  3
ACAD_MLINESTYLE
350
17
  3
ACAD_PLOTSETTINGS
350
19
  3
ACAD_PLOTSTYLENAME
350
E
  3
ACAD_SCALELIST
350
10036
  3
ACAD_SECTIONVIEWSTYLE
350
1004A
  3
ACAD_TABLESTYLE
350
10034
  3
ACAD_VISUALSTYLE
350
1001A
  3
ACDB_RECOMPOSE_DATA
350
10368
  3
AcDbVariableDictionary
350
150
  3
QCAD_OBJECTS
350
151
  0
DICTIONARY
  5
10362
330
57
100
AcDbDictionary
280
     1
281
     1
  3
ADSK_XREC_LAYER_RECONCILED
360
10363
  0
DICTIONARY
  5
10364
330
58
100
AcDbDictionary
280
     1
281
     1
  3
ADSK_XREC_LAYER_RECONCILED
360
10365
  0
DICTIONARY
  5
10051
102
{ACAD_REACTORS
330
C
102
}
330
C
100
AcDbDictionary
281
     1
  0
XRECORD
  5
10050
102
{ACAD_REACTORS
330
C
102
}
330
C
100
AcDbXrecord
280
     1
300
ACD
300
2025
300

  0
DICTIONARY
  5
10033
102
{ACAD_REACTORS
330
C
102
}
330
C
100
AcDbDictionary
281
     1
  0
DICTIONARY
  5
1004C
102
{ACAD_REACTORS
330
C
102
}
330
C
100
AcDbDictionary
281
     1
  3
Metric50
350
1004D
  0
DICTIONARY
  5
D
330
C
100
AcDbDictionary
281
     1
  0
XRECORD
  5
10361
102
{ACAD_REACTORS
330
C
102
}
330
C
100
AcDbXrecord
280
     1
300
{DB6EF8D0-A133-E143-B601-2A7A8A0CDE8C}
301
{A57EFC9F-702C-DD43-81AA-631558E4DCBA}
302
{DB6EF8D0-A133-E143-B601-2A7A8A0CDE8C}
303
C:\Users\EREN\Desktop\Design_1_Transmitter_CNN30um.dxf
  0
DICTIONARY
  5
1A
330
C
100
AcDbDictionary
281
     1
  3
Layout1
350
1E
  3
Layout2
350
26
  3
Model
350
22
  0
DICTIONARY
  5
10001
102
{ACAD_REACTORS
330
C
102
}
330
C
100
AcDbDictionary
281
     1
  3
ByBlock
350
1000A
  3
ByLayer
350
10002
  3
Global
350
10012
  0
DICTIONARY
  5
10048
102
{ACAD_REACTORS
330
C
102
}
330
C
100
AcDbDictionary
281
     1
  3
Standard
350
10049
  0
DICTIONARY
  5
17
330
C
100
AcDbDictionary
281
     1
  3
Standard
350
18
  0
DICTIONARY
  5
19
330
C
100
AcDbDictionary
281
     1
  0
ACDBDICTIONARYWDFLT
  5
E
330
C
100
AcDbDictionary
281
     1
  3
Normal
350
F
100
AcDbDictionaryWithDefault
340
F
  0
DICTIONARY
  5
10036
102
{ACAD_REACTORS
330
C
102
}
330
C
100
AcDbDictionary
281
     1
  3
A0
350
10037
  3
A1
350
10038
  3
A2
350
10039
  3
A3
350
1003A
  3
A4
350
1003B
  3
A5
350
1003C
  3
A6
350
1003D
  3
A7
350
1003E
  3
A8
350
1003F
  3
A9
350
10040
  3
B0
350
10041
  3
B1
350
10042
  3
B2
350
10043
  3
B3
350
10044
  3
B4
350
10045
  3
B5
350
10046
  3
B6
350
10047
  0
DICTIONARY
  5
1004A
102
{ACAD_REACTORS
330
C
102
}
330
C
100
AcDbDictionary
281
     1
  3
Metric50
350
1004B
  0
DICTIONARY
  5
10034
102
{ACAD_REACTORS
330
C
102
}
330
C
100
AcDbDictionary
281
     1
  3
Standard
350
10035
  0
DICTIONARY
  5
1001A
102
{ACAD_REACTORS
330
C
102
}
330
C
100
AcDbDictionary
281
     1
  3
2dWireframe
350
10020
  3
Basic
350
1001F
  3
Brighten
350
10026
  3
ColorChange
350
1002A
  3
Conceptual
350
10023
  3
Dim
350
10025
  3
EdgeColorOff
350
10032
  3
Facepattern
350
10029
  3
Flat
350
1001B
  3
FlatWithEdges
350
1001C
  3
Gouraud
350
1001D
  3
GouraudWithEdges
350
1001E
  3
Hidden
350
10022
  3
JitterOff
350
10030
  3
Linepattern
350
10028
  3
OverhangOff
350
10031
  3
Realistic
350
10024
  3
Shaded
350
1002F
  3
Shaded with edges
350
1002E
  3
Shades of Gray
350
1002B
  3
Sketchy
350
1002C
  3
Thicken
350
10027
  3
Wireframe
350
10021
  3
X-Ray
350
1002D
  0
XRECORD
  5
10368
102
{ACAD_REACTORS
330
C
102
}
330
C
100
AcDbXrecord
280
     1
 90
        1
330
10035
  0
DICTIONARY
  5
150
330
C
100
AcDbDictionary
281
     1
  3
CANNOSCALE
350
10065
  3
CMLEADERSTYLE
350
10061
  3
CTABLESTYLE
350
10060
  3
CVIEWDETAILSTYLE
350
10062
  3
CVIEWSECTIONSTYLE
350
10063
  3
DIMASSOC
350
153
  3
HIDETEXT
350
152
  3
LAYEREVAL
350
10067
  3
LAYERNOTIFY
350
10068
  3
LIGHTINGUNITS
350
10066
  3
MSLTSCALE
350
10064
  0
DICTIONARY
  5
151
330
C
100
AcDbDictionary
281
     1
  3
ColorSettings/BackgroundColor
350
154
  3
ColorSettings/ColorMode
350
155
  3
Grid/DisplayGrid00
350
156
  3
Grid/DisplayGrid01
350
157
  3
Grid/DisplayGrid02
350
158
  3
Grid/DisplayGrid03
350
159
  3
Grid/GridSpacingX00
350
15A
  3
Grid/GridSpacingX01
350
15B
  3
Grid/GridSpacingX02
350
15C
  3
Grid/GridSpacingX03
350
15D
  3
Grid/GridSpacingY00
350
15E
  3
Grid/GridSpacingY01
350
15F
  3
Grid/GridSpacingY02
350
160
  3
Grid/GridSpacingY03
350
161
  3
Grid/IsometricGrid00
350
162
  3
Grid/IsometricGrid01
350
163
  3
Grid/IsometricGrid02
350
164
  3
Grid/IsometricGrid03
350
165
  3
Grid/IsometricProjection00
350
166
  3
Grid/IsometricProjection01
350
167
  3
Grid/IsometricProjection02
350
168
  3
Grid/IsometricProjection03
350
169
  3
Grid/MetaGridSpacingX00
350
16A
  3
Grid/MetaGridSpacingX01
350
16B
  3
Grid/MetaGridSpacingX02
350
16C
  3
Grid/MetaGridSpacingX03
350
16D
  3
Grid/MetaGridSpacingY00
350
16E
  3
Grid/MetaGridSpacingY01
350
16F
  3
Grid/MetaGridSpacingY02
350
170
  3
Grid/MetaGridSpacingY03
350
171
  3
MultiPageSettings/Columns
350
172
  3
MultiPageSettings/GlueMarginsBottom
350
173
  3
MultiPageSettings/GlueMarginsLeft
350
174
  3
MultiPageSettings/GlueMarginsRight
350
175
  3
MultiPageSettings/GlueMarginsTop
350
176
  3
MultiPageSettings/PrintCropMarks
350
177
  3
MultiPageSettings/Rows
350
178
  3
PageSettings/OffsetX
350
179
  3
PageSettings/OffsetY
350
17A
  3
PageSettings/PageOrientation
350
17B
  3
PageSettings/PaperHeight
350
17C
  3
PageSettings/PaperWidth
350
17D
  3
PageSettings/Scale
350
17E
  3
PageSettings/ShowPaperBorders
350
17F
  3
PageTagSettings/EnablePageTags
350
180
  3
PageTagSettings/TagAlignment
350
181
  3
PageTagSettings/TagFont
350
182
  3
PageTagSettings/TagPosition
350
183
  3
QCADVersion
350
184
  3
UnitSettings/Measurement
350
185
  3
UnitSettings/PaperUnit
350
186
  3
ViewportHeight
350
188
  3
ViewportWidth
350
189
  0
XRECORD
  5
10363
102
{ACAD_REACTORS
330
10362
102
}
330
10362
100
AcDbXrecord
280
     1
290
     1
  0
XRECORD
  5
10365
102
{ACAD_REACTORS
330
10364
102
}
330
10364
100
AcDbXrecord
280
     1
290
     1
  0
ACDBDETAILVIEWSTYLE
  5
1004D
102
{ACAD_REACTORS
330
1004C
102
}
330
1004C
100
AcDbModelDocViewStyle
 70
     0
  3
Metric50
290
     0
300
Metric50
 90
        0
100
AcDbDetailViewStyle
 70
     0
 71
     0
 90
        3
 71
     1
340
59
 62
   256
 40
5.0
340
0
 62
   256
 40
5.0
300

 40
0.0
280
     1
 71
     2
340
16
 90
       25
 62
   256
 71
     3
340
59
 62
   256
 40
5.0
 90
        0
 40
15.0
 90
        1
300
%<\AcVar ViewDetailId>% (%<\AcVar ViewScale \f "%sn">%)
 71
     4
340
16
 90
       25
 62
   256
340
16
 90
       25
 62
   256
280
     0
  0
LAYOUT
  5
1E
330
1A
100
AcDbPlotSettings
  1

  2
none_device
  4

  6

 40
0.0
 41
0.0
 42
0.0
 43
0.0
 44
0.0
 45
0.0
 46
0.0
 47
0.0
 48
0.0
 49
0.0
140
0.0
141
0.0
142
1.0
143
1.0
 70
   688
 72
     0
 73
     0
 74
     5
  7

 75
    16
147
1.0
 76
     0
 77
     2
 78
   300
148
0.0
149
0.0
100
AcDbLayout
  1
Layout1
 70
     1
 71
     1
 10
0.0
 20
0.0
 11
12.0
 21
9.0
 12
0.0
 22
0.0
 32
0.0
 14
1.000000000000000E+20
 24
1.000000000000000E+20
 34
1.000000000000000E+20
 15
-1.000000000000000E+20
 25
-1.000000000000000E+20
 35
-1.000000000000000E+20
146
0.0
 13
0.0
 23
0.0
 33
0.0
 16
1.0
 26
0.0
 36
0.0
 17
0.0
 27
1.0
 37
0.0
 76
     0
330
1B
  0
LAYOUT
  5
26
330
1A
100
AcDbPlotSettings
  1

  2
none_device
  4

  6

 40
0.0
 41
0.0
 42
0.0
 43
0.0
 44
0.0
 45
0.0
 46
0.0
 47
0.0
 48
0.0
 49
0.0
140
0.0
141
0.0
142
1.0
143
1.0
 70
   688
 72
     0
 73
     0
 74
     5
  7

 75
    16
147
1.0
 76
     0
 77
     2
 78
   300
148
0.0
149
0.0
100
AcDbLayout
  1
Layout2
 70
     1
 71
     2
 10
0.0
 20
0.0
 11
12.0
 21
9.0
 12
0.0
 22
0.0
 32
0.0
 14
0.0
 24
0.0
 34
0.0
 15
0.0
 25
0.0
 35
0.0
146
0.0
 13
0.0
 23
0.0
 33
0.0
 16
1.0
 26
0.0
 36
0.0
 17
0.0
 27
1.0
 37
0.0
 76
     0
330
23
  0
LAYOUT
  5
22
330
1A
100
AcDbPlotSettings
  1

  2
none_device
  4

  6

 40
0.0
 41
0.0
 42
0.0
 43
0.0
 44
0.0
 45
0.0
 46
0.0
 47
0.0
 48
0.0
 49
0.0
140
0.0
141
0.0
142
1.0
143
1.0
 70
  1712
 72
     0
 73
     0
 74
     0
  7

 75
     0
147
1.0
 76
     0
 77
     2
 78
   300
148
0.0
149
0.0
100
AcDbLayout
  1
Model
 70
     1
 71
     0
 10
0.0
 20
0.0
 11
12.0
 21
9.0
 12
0.0
 22
0.0
 32
0.0
 14
0.0
 24
0.0
 34
0.0
 15
0.0
 25
0.0
 35
0.0
146
0.0
 13
0.0
 23
0.0
 33
0.0
 16
1.0
 26
0.0
 36
0.0
 17
0.0
 27
1.0
 37
0.0
 76
     0
330
1F
331
30
  0
MATERIAL
  5
1000A
102
{ACAD_XDICTIONARY
360
1000B
102
}
102
{ACAD_REACTORS
330
10001
102
}
330
10001
100
AcDbMaterial
  1
ByBlock
 72
     0
 43
0.0008202099737533
 43
0.0
 43
0.0
 43
0.0
 43
0.0
 43
0.0008202099737533
 43
0.0
 43
0.0
 43
0.0
 43
0.0
 43
1.0
 43
0.0
 43
0.0
 43
0.0
 43
0.0
 43
1.0
 77
     0
 47
0.0008202099737533
 47
0.0
 47
0.0
 47
0.0
 47
0.0
 47
0.0008202099737533
 47
0.0
 47
0.0
 47
0.0
 47
0.0
 47
1.0
 47
0.0
 47
0.0
 47
0.0
 47
0.0
 47
1.0
171
     0
 49
0.0008202099737533
 49
0.0
 49
0.0
 49
0.0
 49
0.0
 49
0.0008202099737533
 49
0.0
 49
0.0
 49
0.0
 49
0.0
 49
1.0
 49
0.0
 49
0.0
 49
0.0
 49
0.0
 49
1.0
175
     0
142
0.0008202099737533
142
0.0
142
0.0
142
0.0
142
0.0
142
0.0008202099737533
142
0.0
142
0.0
142
0.0
142
0.0
142
1.0
142
0.0
142
0.0
142
0.0
142
0.0
142
1.0
179
     0
144
0.0008202099737533
144
0.0
144
0.0
144
0.0
144
0.0
144
0.0008202099737533
144
0.0
144
0.0
144
0.0
144
0.0
144
1.0
144
0.0
144
0.0
144
0.0
144
0.0
144
1.0
147
0.0008202099737533
147
0.0
147
0.0
147
0.0
147
0.0
147
0.0008202099737533
147
0.0
147
0.0
147
0.0
147
0.0
147
1.0
147
0.0
147
0.0
147
0.0
147
0.0
147
1.0
  0
MATERIAL
  5
10002
102
{ACAD_XDICTIONARY
360
10003
102
}
102
{ACAD_REACTORS
330
10001
102
}
330
10001
100
AcDbMaterial
  1
ByLayer
 72
     0
 43
0.0008202099737533
 43
0.0
 43
0.0
 43
0.0
 43
0.0
 43
0.0008202099737533
 43
0.0
 43
0.0
 43
0.0
 43
0.0
 43
1.0
 43
0.0
 43
0.0
 43
0.0
 43
0.0
 43
1.0
 77
     0
 47
0.0008202099737533
 47
0.0
 47
0.0
 47
0.0
 47
0.0
 47
0.0008202099737533
 47
0.0
 47
0.0
 47
0.0
 47
0.0
 47
1.0
 47
0.0
 47
0.0
 47
0.0
 47
0.0
 47
1.0
171
     0
 49
0.0008202099737533
 49
0.0
 49
0.0
 49
0.0
 49
0.0
 49
0.0008202099737533
 49
0.0
 49
0.0
 49
0.0
 49
0.0
 49
1.0
 49
0.0
 49
0.0
 49
0.0
 49
0.0
 49
1.0
175
     0
142
0.0008202099737533
142
0.0
142
0.0
142
0.0
142
0.0
142
0.0008202099737533
142
0.0
142
0.0
142
0.0
142
0.0
142
1.0
142
0.0
142
0.0
142
0.0
142
0.0
142
1.0
179
     0
144
0.0008202099737533
144
0.0
144
0.0
144
0.0
144
0.0
144
0.0008202099737533
144
0.0
144
0.0
144
0.0
144
0.0
144
1.0
144
0.0
144
0.0
144
0.0
144
0.0
144
1.0
147
0.0008202099737533
147
0.0
147
0.0
147
0.0
147
0.0
147
0.0008202099737533
147
0.0
147
0.0
147
0.0
147
0.0
147
1.0
147
0.0
147
0.0
147
0.0
147
0.0
147
1.0
  0
MATERIAL
  5
10012
102
{ACAD_XDICTIONARY
360
10013
102
}
102
{ACAD_REACTORS
330
10001
102
}
330
10001
100
AcDbMaterial
  1
Global
 72
     0
 43
0.0008202099737533
 43
0.0
 43
0.0
 43
0.0
 43
0.0
 43
0.0008202099737533
 43
0.0
 43
0.0
 43
0.0
 43
0.0
 43
1.0
 43
0.0
 43
0.0
 43
0.0
 43
0.0
 43
1.0
 77
     0
 47
0.0008202099737533
 47
0.0
 47
0.0
 47
0.0
 47
0.0
 47
0.0008202099737533
 47
0.0
 47
0.0
 47
0.0
 47
0.0
 47
1.0
 47
0.0
 47
0.0
 47
0.0
 47
0.0
 47
1.0
171
     0
 49
0.0008202099737533
 49
0.0
 49
0.0
 49
0.0
 49
0.0
 49
0.0008202099737533
 49
0.0
 49
0.0
 49
0.0
 49
0.0
 49
1.0
 49
0.0
 49
0.0
 49
0.0
 49
0.0
 49
1.0
175
     0
142
0.0008202099737533
142
0.0
142
0.0
142
0.0
142
0.0
142
0.0008202099737533
142
0.0
142
0.0
142
0.0
142
0.0
142
1.0
142
0.0
142
0.0
142
0.0
142
0.0
142
1.0
179
     0
144
0.0008202099737533
144
0.0
144
0.0
144
0.0
144
0.0
144
0.0008202099737533
144
0.0
144
0.0
144
0.0
144
0.0
144
1.0
144
0.0
144
0.0
144
0.0
144
0.0
144
1.0
147
0.0008202099737533
147
0.0
147
0.0
147
0.0
147
0.0
147
0.0008202099737533
147
0.0
147
0.0
147
0.0
147
0.0
147
1.0
147
0.0
147
0.0
147
0.0
147
0.0
147
1.0
  0
MLEADERSTYLE
  5
10049
102
{ACAD_REACTORS
330
10048
102
}
330
10048
100
AcDbMLeaderStyle
179
     2
170
     2
171
     1
172
     0
 90
        2
 40
0.0
 41
0.0
173
     1
 91
-1056964608
340
14
 92
       -2
290
     1
 42
2.0
291
     1
 43
0.36
  3
Standard
 44
4.0
300

342
59
174
     1
178
     6
175
     1
176
     0
 93
-1056964608
 45
4.0
292
     0
297
     0
 46
4.0
 94
-1056964608
 47
1.0
 49
1.0
140
1.0
293
     1
141
0.0
294
     1
177
     0
142
1.0
295
     0
296
     0
143
0.125
271
     0
272
     9
273
     9
298
     0
  0
MLINESTYLE
  5
18
330
17
100
AcDbMlineStyle
  2
STANDARD
 70
     0
  3

 62
   256
 51
90.0
 52
90.0
 71
     2
 49
0.5
 62
   256
  6
BYLAYER
 49
-0.5
 62
   256
  6
BYLAYER
  0
ACDBPLACEHOLDER
  5
F
330
E
  0
SCALE
  5
10037
102
{ACAD_REACTORS
330
10036
102
}
330
10036
100
AcDbScale
 70
     0
300
1:1
140
1.0
141
1.0
290
     1
  0
SCALE
  5
10038
102
{ACAD_REACTORS
330
10036
102
}
330
10036
100
AcDbScale
 70
     0
300
1:2
140
1.0
141
2.0
290
     0
  0
SCALE
  5
10039
102
{ACAD_REACTORS
330
10036
102
}
330
10036
100
AcDbScale
 70
     0
300
1:4
140
1.0
141
4.0
290
     0
  0
SCALE
  5
1003A
102
{ACAD_REACTORS
330
10036
102
}
330
10036
100
AcDbScale
 70
     0
300
1:5
140
1.0
141
5.0
290
     0
  0
SCALE
  5
1003B
102
{ACAD_REACTORS
330
10036
102
}
330
10036
100
AcDbScale
 70
     0
300
1:8
140
1.0
141
8.0
290
     0
  0
SCALE
  5
1003C
102
{ACAD_REACTORS
330
10036
102
}
330
10036
100
AcDbScale
 70
     0
300
1:10
140
1.0
141
10.0
290
     0
  0
SCALE
  5
1003D
102
{ACAD_REACTORS
330
10036
102
}
330
10036
100
AcDbScale
 70
     0
300
1:16
140
1.0
141
16.0
290
     0
  0
SCALE
  5
1003E
102
{ACAD_REACTORS
330
10036
102
}
330
10036
100
AcDbScale
 70
     0
300
1:20
140
1.0
141
20.0
290
     0
  0
SCALE
  5
1003F
102
{ACAD_REACTORS
330
10036
102
}
330
10036
100
AcDbScale
 70
     0
300
1:30
140
1.0
141
30.0
290
     0
  0
SCALE
  5
10040
102
{ACAD_REACTORS
330
10036
102
}
330
10036
100
AcDbScale
 70
     0
300
1:40
140
1.0
141
40.0
290
     0
  0
SCALE
  5
10041
102
{ACAD_REACTORS
330
10036
102
}
330
10036
100
AcDbScale
 70
     0
300
1:50
140
1.0
141
50.0
290
     0
  0
SCALE
  5
10042
102
{ACAD_REACTORS
330
10036
102
}
330
10036
100
AcDbScale
 70
     0
300
1:100
140
1.0
141
100.0
290
     0
  0
SCALE
  5
10043
102
{ACAD_REACTORS
330
10036
102
}
330
10036
100
AcDbScale
 70
     0
300
2:1
140
2.0
141
1.0
290
     0
  0
SCALE
  5
10044
102
{ACAD_REACTORS
330
10036
102
}
330
10036
100
AcDbScale
 70
     0
300
4:1
140
4.0
141
1.0
290
     0
  0
SCALE
  5
10045
102
{ACAD_REACTORS
330
10036
102
}
330
10036
100
AcDbScale
 70
     0
300
8:1
140
8.0
141
1.0
290
     0
  0
SCALE
  5
10046
102
{ACAD_REACTORS
330
10036
102
}
330
10036
100
AcDbScale
 70
     0
300
10:1
140
10.0
141
1.0
290
     0
  0
SCALE
  5
10047
102
{ACAD_REACTORS
330
10036
102
}
330
10036
100
AcDbScale
 70
     0
300
100:1
140
100.0
141
1.0
290
     0
  0
ACDBSECTIONVIEWSTYLE
  5
1004B
102
{ACAD_REACTORS
330
1004A
102
}
330
1004A
100
AcDbModelDocViewStyle
 70
     0
  3
Metric50
290
     0
300
Metric50
 90
        0
100
AcDbSectionViewStyle
 70
     0
 71
     0
 90
      102
 71
     1
340
59
 62
   256
 40
5.0
340
0
340
0
 62
   256
 40
5.0
300
I, O, Q, S, X, Z
 40
10.0
 90
        0
 40
2.5
 90
        0
 71
     2
340
16
 90
       25
 62
   256
340
16
 90
       50
 62
   256
 40
5.0
 40
2.5
 40
5.0
 71
     3
340
59
 62
   256
 40
5.0
 90
        0
 40
15.0
 90
        1
300
%<\AcVar ViewSectionStartId>%-%<\AcVar ViewSectionEndId>% (%<\AcVar ViewScale \f "%sn">%)
 71
     4
 62
   256
 62
   257
300
ANSI31
 40
1.0
 90
        0
290
     0
290
     0
 90
        6
 40
0.0
 40
1.570796326794896
 40
0.2617993877991494
 40
1.308996938995747
 40
-0.2617993877991494
 40
1.832595714594046
  0
TABLESTYLE
  5
10035
102
{ACAD_XDICTIONARY
360
10366
102
}
102
{ACAD_REACTORS
330
10034
102
}
330
10034
100
AcDbTableStyle
280
     0
  3
Standard
 70
     0
 71
     0
 40
1.5
 41
1.5
280
     0
281
     0
  7
Standard
140
4.5
170
     2
 62
     0
 63
     7
283
     0
 90
      512
 91
        0
  1

274
    -2
284
     1
 64
     0
275
    -2
285
     1
 65
     0
276
    -2
286
     1
 66
     0
277
    -2
287
     1
 67
     0
278
    -2
288
     1
 68
     0
279
    -2
289
     1
 69
     0
  7
Standard
140
6.0
170
     5
 62
     0
 63
     7
283
     0
 90
      512
 91
        0
  1

274
    -2
284
     1
 64
     0
275
    -2
285
     1
 65
     0
276
    -2
286
     1
 66
     0
277
    -2
287
     1
 67
     0
278
    -2
288
     1
 68
     0
279
    -2
289
     1
 69
     0
  7
Standard
140
4.5
170
     5
 62
     0
 63
     7
283
     0
 90
      512
 91
        0
  1

274
    -2
284
     1
 64
     0
275
    -2
285
     1
 65
     0
276
    -2
286
     1
 66
     0
277
    -2
287
     1
 67
     0
278
    -2
288
     1
 68
     0
279
    -2
289
     1
 69
     0
  0
VISUALSTYLE
  5
10020
102
{ACAD_REACTORS
330
1001A
102
}
330
1001A
100
AcDbVisualStyle
  2
2dWireframe
 70
     4
177
     3
291
     0
 70
    58
 90
        0
176
     1
 90
        2
176
     1
 90
        0
176
     1
 90
        0
176
     1
 40
0.6
176
     1
 40
30.0
176
     1
 62
     7
420
 16777215
176
     1
 90
        1
176
     1
 90
        4
176
     1
 62
     7
176
     1
 62
   257
176
     1
 90
        1
176
     1
 90
        1
176
     1
 40
1.0
176
     1
 90
        0
176
     1
 62
   257
176
     1
 40
1.0
176
     1
 90
        1
176
     1
 90
        6
176
     1
 90
        2
176
     1
 62
     7
176
     1
 90
        5
176
     1
 90
        0
176
     1
 90
        0
176
     1
290
     0
176
     1
 90
        1
176
     1
 40
0.0
176
     1
 90
        0
176
     1
290
     1
176
     1
290
     1
176
     1
290
     0
176
     1
290
     0
176
     1
290
     0
176
     1
290
     0
176
     1
290
     0
176
     1
290
     0
176
     1
290
     0
176
     1
 90
       50
176
     1
 40
0.0
176
     1
 40
1.0
176
     1
 90
        0
176
     1
 62
    18
420
        0
176
     1
 90
       50
176
     1
 90
        3
176
     1
 62
     5
420
      255
176
     1
290
     0
176
     1
 90
       50
176
     1
 90
       50
176
     1
 90
       50
176
     1
290
     0
176
     1
 90
       50
176
     1
 62
   256
176
     0
 40
1.0
176
     0
 90
        2
176
     1
  1
strokes_ogs.tif
176
     1
290
     0
176
     1
 40
1.0
176
     1
 40
1.0
176
     1
  0
VISUALSTYLE
  5
1001F
102
{ACAD_REACTORS
330
1001A
102
}
330
1001A
100
AcDbVisualStyle
  2
Basic
 70
     7
177
     3
291
     1
 70
    58
 90
        1
176
     1
 90
        0
176
     1
 90
        1
176
     1
 90
        0
176
     1
 40
0.6
176
     1
 40
30.0
176
     1
 62
     7
420
 16777215
176
     1
 90
        0
176
     1
 90
        4
176
     1
 62
     7
176
     1
 62
   257
176
     1
 90
        1
176
     1
 90
        1
176
     1
 40
1.0
176
     1
 90
        8
176
     1
 62
     7
176
     1
 40
1.0
176
     1
 90
        1
176
     1
 90
        6
176
     1
 90
        2
176
     1
 62
     7
176
     1
 90
        5
176
     1
 90
        0
176
     1
 90
        0
176
     1
290
     0
176
     1
 90
        1
176
     1
 40
0.0
176
     1
 90
        0
176
     1
290
     0
176
     1
290
     1
176
     1
290
     1
176
     1
290
     0
176
     1
290
     0
176
     1
290
     0
176
     1
290
     0
176
     1
290
     0
176
     1
290
     0
176
     1
 90
       50
176
     1
 40
0.0
176
     1
 40
1.0
176
     1
 90
        0
176
     1
 62
    18
420
        0
176
     1
 90
       50
176
     1
 90
        3
176
     1
 62
     5
420
      255
176
     1
290
     0
176
     1
 90
       50
176
     1
 90
       50
176
     1
 90
       50
176
     1
290
     0
176
     1
 90
       50
176
     1
 62
   256
176
     0
 40
1.0
176
     0
 90
        2
176
     1
  1
strokes_ogs.tif
176
     1
290
     0
176
     1
 40
1.0
176
     1
 40
1.0
176
     1
  0
VISUALSTYLE
  5
10026
102
{ACAD_REACTORS
330
1001A
102
}
330
1001A
100
AcDbVisualStyle
  2
Brighten
 70
    12
177
     3
291
     1
 70
    58
 90
        2
176
     1
 90
        2
176
     1
 90
        0
176
     1
 90
        0
176
     1
 40
0.6
176
     1
 40
30.0
176
     1
 62
     7
420
 16777215
176
     1
 90
        1
176
     1
 90
        4
176
     1
 62
     7
176
     1
 62
   257
176
     1
 90
        1
176
     1
 90
        1
176
     1
 40
1.0
176
     1
 90
        8
176
     1
 62
     7
176
     1
 40
1.0
176
     1
 90
        1
176
     1
 90
        6
176
     1
 90
        2
176
     1
 62
     7
176
     1
 90
        5
176
     1
 90
        0
176
     1
 90
        0
176
     1
290
     0
176
     1
 90
        1
176
     1
 40
50.0
176
     1
 90
        0
176
     1
290
     0
176
     1
290
     1
176
     1
290
     1
176
     1
290
     0
176
     1
290
     0
176
     1
290
     0
176
     1
290
     0
176
     1
290
     0
176
     1
290
     0
176
     1
 90
       50
176
     1
 40
0.0
176
     1
 40
1.0
176
     1
 90
        0
176
     1
 62
    18
420
        0
176
     1
 90
       50
176
     1
 90
        3
176
     1
 62
     5
420
      255
176
     1
290
     0
176
     1
 90
       50
176
     1
 90
       50
176
     1
 90
       50
176
     1
290
     0
176
     1
 90
       50
176
     1
 62
   256
176
     0
 40
1.0
176
     0
 90
        2
176
     1
  1
strokes_ogs.tif
176
     1
290
     0
176
     1
 40
1.0
176
     1
 40
1.0
176
     1
  0
VISUALSTYLE
  5
1002A
102
{ACAD_REACTORS
330
1001A
102
}
330
1001A
100
AcDbVisualStyle
  2
ColorChange
 70
    16
177
     3
291
     1
 70
    58
 90
        2
176
     1
 90
        2
176
     1
 90
        3
176
     1
 90
        0
176
     1
 40
0.6
176
     1
 40
30.0
176
     1
 62
     8
420
  8421504
176
     1
 90
        1
176
     1
 90
        4
176
     1
 62
     7
176
     1
 62
   257
176
     1
 90
        1
176
     1
 90
        1
176
     1
 40
1.0
176
     1
 90
        8
176
     1
 62
     8
420
  8421504
176
     1
 40
1.0
176
     1
 90
        1
176
     1
 90
        6
176
     1
 90
        2
176
     1
 62
     7
176
     1
 90
        5
176
     1
 90
        0
176
     1
 90
        0
176
     1
290
     0
176
     1
 90
        1
176
     1
 40
0.0
176
     1
 90
        0
176
     1
290
     0
176
     1
290
     1
176
     1
290
     1
176
     1
290
     0
176
     1
290
     0
176
     1
290
     0
176
     1
290
     0
176
     1
290
     0
176
     1
290
     0
176
     1
 90
       50
176
     1
 40
0.0
176
     1
 40
1.0
176
     1
 90
        0
176
     1
 62
    18
420
        0
176
     1
 90
       50
176
     1
 90
        3
176
     1
 62
     5
420
      255
176
     1
290
     0
176
     1
 90
       50
176
     1
 90
       50
176
     1
 90
       50
176
     1
290
     0
176
     1
 90
       50
176
     1
 62
   256
176
     0
 40
1.0
176
     0
 90
        2
176
     1
  1
strokes_ogs.tif
176
     1
290
     0
176
     1
 40
1.0
176
     1
 40
1.0
176
     1
  0
VISUALSTYLE
  5
10023
102
{ACAD_REACTORS
330
1001A
102
}
330
1001A
100
AcDbVisualStyle
  2
Conceptual
 70
     9
177
     3
291
     0
 70
    58
 90
        3
176
     1
 90
        2
176
     1
 90
        0
176
     1
 90
        0
176
     1
 40
0.6
176
     1
 40
30.0
176
     1
 62
     7
420
 16777215
176
     1
 90
        2
176
     1
 90
        2
176
     1
 62
     7
176
     1
 62
   257
176
     1
 90
        1
176
     1
 90
        1
176
     1
 40
179.0
176
     1
 90
        8
176
     1
 62
     7
176
     1
 40
1.0
176
     1
 90
        1
176
     1
 90
        6
176
     1
 90
        2
176
     1
 62
     7
176
     1
 90
        3
176
     1
 90
        0
176
     1
 90
        0
176
     1
290
     0
176
     1
 90
        1
176
     1
 40
0.0
176
     1
 90
        0
176
     1
290
     0
176
     1
290
     1
176
     1
290
     1
176
     1
290
     0
176
     1
290
     0
176
     1
290
     0
176
     1
290
     0
176
     1
290
     0
176
     1
290
     0
176
     1
 90
       50
176
     1
 40
0.0
176
     1
 40
1.0
176
     1
 90
        0
176
     1
 62
    18
420
        0
176
     1
 90
       50
176
     1
 90
        3
176
     1
 62
     5
420
      255
176
     1
290
     0
176
     1
 90
       50
176
     1
 90
       50
176
     1
 90
       50
176
     1
290
     0
176
     1
 90
       50
176
     1
 62
   256
176
     0
 40
1.0
176
     0
 90
        2
176
     1
  1
strokes_ogs.tif
176
     1
290
     0
176
     1
 40
1.0
176
     1
 40
1.0
176
     1
  0
VISUALSTYLE
  5
10025
102
{ACAD_REACTORS
330
1001A
102
}
330
1001A
100
AcDbVisualStyle
  2
Dim
 70
    11
177
     3
291
     1
 70
    58
 90
        2
176
     1
 90
        2
176
     1
 90
        0
176
     1
 90
        0
176
     1
 40
0.6
176
     1
 40
30.0
176
     1
 62
     7
420
 16777215
176
     1
 90
        1
176
     1
 90
        4
176
     1
 62
     7
176
     1
 62
   257
176
     1
 90
        1
176
     1
 90
        1
176
     1
 40
1.0
176
     1
 90
        8
176
     1
 62
     7
176
     1
 40
1.0
176
     1
 90
        1
176
     1
 90
        6
176
     1
 90
        2
176
     1
 62
     7
176
     1
 90
        5
176
     1
 90
        0
176
     1
 90
        0
176
     1
290
     0
176
     1
 90
        1
176
     1
 40
-50.0
176
     1
 90
        0
176
     1
290
     0
176
     1
290
     1
176
     1
290
     1
176
     1
290
     0
176
     1
290
     0
176
     1
290
     0
176
     1
290
     0
176
     1
290
     0
176
     1
290
     0
176
     1
 90
       50
176
     1
 40
0.0
176
     1
 40
1.0
176
     1
 90
        0
176
     1
 62
    18
420
        0
176
     1
 90
       50
176
     1
 90
        3
176
     1
 62
     5
420
      255
176
     1
290
     0
176
     1
 90
       50
176
     1
 90
       50
176
     1
 90
       50
176
     1
290
     0
176
     1
 90
       50
176
     1
 62
   256
176
     0
 40
1.0
176
     0
 90
        2
176
     1
  1
strokes_ogs.tif
176
     1
290
     0
176
     1
 40
1.0
176
     1
 40
1.0
176
     1
  0
VISUALSTYLE
  5
10032
102
{ACAD_REACTORS
330
1001A
102
}
330
1001A
100
AcDbVisualStyle
  2
EdgeColorOff
 70
    22
177
     3
291
     1
 70
    58
 90
        2
176
     0
 90
        2
176
     0
 90
        0
176
     0
 90
        0
176
     0
 40
0.6
176
     0
 40
30.0
176
     0
 62
     7
420
 16777215
176
     0
 90
        1
176
     0
 90
        4
176
     0
 62
     7
176
     0
 62
   257
176
     0
 90
        1
176
     0
 90
        1
176
     0
 40
1.0
176
     0
 90
        8
176
     2
 62
     7
176
     0
 40
1.0
176
     0
 90
        1
176
     0
 90
        6
176
     0
 90
        2
176
     0
 62
     7
176
     0
 90
        5
176
     0
 90
        0
176
     0
 90
        0
176
     0
290
     0
176
     0
 90
        1
176
     0
 40
0.0
176
     0
 90
        0
176
     0
290
     0
176
     1
290
     1
176
     1
290
     1
176
     1
290
     0
176
     1
290
     0
176
     1
290
     0
176
     1
290
     0
176
     1
290
     0
176
     1
290
     0
176
     1
 90
       50
176
     0
 40
0.0
176
     0
 40
1.0
176
     0
 90
        0
176
     0
 62
    18
420
        0
176
     0
 90
       50
176
     0
 90
        3
176
     0
 62
     5
420
      255
176
     0
290
     0
176
     1
 90
       50
176
     0
 90
       50
176
     0
 90
       50
176
     0
290
     0
176
     1
 90
       50
176
     0
 62
   256
176
     0
 40
1.0
176
     0
 90
        2
176
     0
  1
strokes_ogs.tif
176
     0
290
     0
176
     1
 40
1.0
176
     0
 40
1.0
176
     0
  0
VISUALSTYLE
  5
10029
102
{ACAD_REACTORS
330
1001A
102
}
330
1001A
100
AcDbVisualStyle
  2
Facepattern
 70
    15
177
     3
291
     1
 70
    58
 90
        2
176
     1
 90
        2
176
     1
 90
        0
176
     1
 90
        0
176
     1
 40
0.6
176
     1
 40
30.0
176
     1
 62
     7
420
 16777215
176
     1
 90
        1
176
     1
 90
        4
176
     1
 62
     7
176
     1
 62
   257
176
     1
 90
        1
176
     1
 90
        1
176
     1
 40
1.0
176
     1
 90
        8
176
     1
 62
     7
176
     1
 40
1.0
176
     1
 90
        1
176
     1
 90
        6
176
     1
 90
        2
176
     1
 62
     7
176
     1
 90
        5
176
     1
 90
        0
176
     1
 90
        0
176
     1
290
     0
176
     1
 90
        1
176
     1
 40
0.0
176
     1
 90
        0
176
     1
290
     0
176
     1
290
     1
176
     1
290
     1
176
     1
290
     0
176
     1
290
     0
176
     1
290
     0
176
     1
290
     0
176
     1
290
     0
176
     1
290
     0
176
     1
 90
       50
176
     1
 40
0.0
176
     1
 40
1.0
176
     1
 90
        0
176
     1
 62
    18
420
        0
176
     1
 90
       50
176
     1
 90
        3
176
     1
 62
     5
420
      255
176
     1
290
     0
176
     1
 90
       50
176
     1
 90
       50
176
     1
 90
       50
176
     1
290
     0
176
     1
 90
       50
176
     1
 62
   256
176
     0
 40
1.0
176
     0
 90
        2
176
     1
  1
strokes_ogs.tif
176
     1
290
     0
176
     1
 40
1.0
176
     1
 40
1.0
176
     1
  0
VISUALSTYLE
  5
1001B
102
{ACAD_REACTORS
330
1001A
102
}
330
1001A
100
AcDbVisualStyle
  2
Flat
 70
     0
177
     3
291
     1
 70
    58
 90
        2
176
     1
 90
        1
176
     1
 90
        1
176
     1
 90
        2
176
     1
 40
0.6
176
     1
 40
30.0
176
     1
 62
     7
420
 16777215
176
     1
 90
        0
176
     1
 90
        0
176
     1
 62
     7
176
     1
 62
   257
176
     1
 90
        1
176
     1
 90
        1
176
     1
 40
1.0
176
     1
 90
        8
176
     1
 62
     7
176
     1
 40
1.0
176
     1
 90
        1
176
     1
 90
        6
176
     1
 90
        2
176
     1
 62
     7
176
     1
 90
        5
176
     1
 90
        0
176
     1
 90
        0
176
     1
290
     0
176
     1
 90
       13
176
     1
 40
0.0
176
     1
 90
        0
176
     1
290
     0
176
     1
290
     1
176
     1
290
     1
176
     1
290
     0
176
     1
290
     0
176
     1
290
     0
176
     1
290
     0
176
     1
290
     0
176
     1
290
     0
176
     1
 90
       50
176
     1
 40
0.0
176
     1
 40
1.0
176
     1
 90
        0
176
     1
 62
    18
420
        0
176
     1
 90
       50
176
     1
 90
        3
176
     1
 62
     5
420
      255
176
     1
290
     0
176
     1
 90
       50
176
     1
 90
       50
176
     1
 90
       50
176
     1
290
     0
176
     1
 90
       50
176
     1
 62
   256
176
     0
 40
1.0
176
     0
 90
        2
176
     1
  1
strokes_ogs.tif
176
     1
290
     0
176
     1
 40
1.0
176
     1
 40
1.0
176
     1
  0
VISUALSTYLE
  5
1001C
102
{ACAD_REACTORS
330
1001A
102
}
330
1001A
100
AcDbVisualStyle
  2
FlatWithEdges
 70
     1
177
     3
291
     1
 70
    58
 90
        2
176
     1
 90
        1
176
     1
 90
        1
176
     1
 90
        2
176
     1
 40
0.6
176
     1
 40
30.0
176
     1
 62
     7
420
 16777215
176
     1
 90
        1
176
     1
 90
        0
176
     1
 62
     7
176
     1
 62
   257
176
     1
 90
        1
176
     1
 90
        1
176
     1
 40
1.0
176
     1
 90
        0
176
     1
 62
   257
176
     1
 40
1.0
176
     1
 90
        1
176
     1
 90
        6
176
     1
 90
        2
176
     1
 62
     7
176
     1
 90
        5
176
     1
 90
        0
176
     1
 90
        0
176
     1
290
     0
176
     1
 90
       13
176
     1
 40
0.0
176
     1
 90
        0
176
     1
290
     0
176
     1
290
     1
176
     1
290
     1
176
     1
290
     0
176
     1
290
     0
176
     1
290
     0
176
     1
290
     0
176
     1
290
     0
176
     1
290
     0
176
     1
 90
       50
176
     1
 40
0.0
176
     1
 40
1.0
176
     1
 90
        0
176
     1
 62
    18
420
        0
176
     1
 90
       50
176
     1
 90
        3
176
     1
 62
     5
420
      255
176
     1
290
     0
176
     1
 90
       50
176
     1
 90
       50
176
     1
 90
       50
176
     1
290
     0
176
     1
 90
       50
176
     1
 62
   256
176
     0
 40
1.0
176
     0
 90
        2
176
     1
  1
strokes_ogs.tif
176
     1
290
     0
176
     1
 40
1.0
176
     1
 40
1.0
176
     1
  0
VISUALSTYLE
  5
1001D
102
{ACAD_REACTORS
330
1001A
102
}
330
1001A
100
AcDbVisualStyle
  2
Gouraud
 70
     2
177
     3
291
     1
 70
    58
 90
        2
176
     1
 90
        2
176
     1
 90
        1
176
     1
 90
        2
176
     1
 40
0.6
176
     1
 40
30.0
176
     1
 62
     7
420
 16777215
176
     1
 90
        0
176
     1
 90
        0
176
     1
 62
     7
176
     1
 62
   257
176
     1
 90
        1
176
     1
 90
        1
176
     1
 40
1.0
176
     1
 90
        0
176
     1
 62
     7
176
     1
 40
1.0
176
     1
 90
        1
176
     1
 90
        6
176
     1
 90
        2
176
     1
 62
     7
176
     1
 90
        5
176
     1
 90
        0
176
     1
 90
        0
176
     1
290
     0
176
     1
 90
       13
176
     1
 40
0.0
176
     1
 90
        0
176
     1
290
     0
176
     1
290
     1
176
     1
290
     1
176
     1
290
     0
176
     1
290
     0
176
     1
290
     0
176
     1
290
     0
176
     1
290
     0
176
     1
290
     0
176
     1
 90
       50
176
     1
 40
0.0
176
     1
 40
1.0
176
     1
 90
        0
176
     1
 62
    18
420
        0
176
     1
 90
       50
176
     1
 90
        3
176
     1
 62
     5
420
      255
176
     1
290
     0
176
     1
 90
       50
176
     1
 90
       50
176
     1
 90
       50
176
     1
290
     0
176
     1
 90
       50
176
     1
 62
   256
176
     0
 40
1.0
176
     0
 90
        2
176
     1
  1
strokes_ogs.tif
176
     1
290
     0
176
     1
 40
1.0
176
     1
 40
1.0
176
     1
  0
VISUALSTYLE
  5
1001E
102
{ACAD_REACTORS
330
1001A
102
}
330
1001A
100
AcDbVisualStyle
  2
GouraudWithEdges
 70
     3
177
     3
291
     1
 70
    58
 90
        2
176
     1
 90
        2
176
     1
 90
        1
176
     1
 90
        2
176
     1
 40
0.6
176
     1
 40
30.0
176
     1
 62
     7
420
 16777215
176
     1
 90
        1
176
     1
 90
        0
176
     1
 62
     7
176
     1
 62
   257
176
     1
 90
        1
176
     1
 90
        1
176
     1
 40
1.0
176
     1
 90
        0
176
     1
 62
   257
176
     1
 40
1.0
176
     1
 90
        1
176
     1
 90
        6
176
     1
 90
        2
176
     1
 62
     7
176
     1
 90
        5
176
     1
 90
        0
176
     1
 90
        0
176
     1
290
     0
176
     1
 90
       13
176
     1
 40
0.0
176
     1
 90
        0
176
     1
290
     0
176
     1
290
     1
176
     1
290
     1
176
     1
290
     0
176
     1
290
     0
176
     1
290
     0
176
     1
290
     0
176
     1
290
     0
176
     1
290
     0
176
     1
 90
       50
176
     1
 40
0.0
176
     1
 40
1.0
176
     1
 90
        0
176
     1
 62
    18
420
        0
176
     1
 90
       50
176
     1
 90
        3
176
     1
 62
     5
420
      255
176
     1
290
     0
176
     1
 90
       50
176
     1
 90
       50
176
     1
 90
       50
176
     1
290
     0
176
     1
 90
       50
176
     1
 62
   256
176
     0
 40
1.0
176
     0
 90
        2
176
     1
  1
strokes_ogs.tif
176
     1
290
     0
176
     1
 40
1.0
176
     1
 40
1.0
176
     1
  0
VISUALSTYLE
  5
10022
102
{ACAD_REACTORS
330
1001A
102
}
330
1001A
100
AcDbVisualStyle
  2
Hidden
 70
     6
177
     3
291
     0
 70
    58
 90
        1
176
     1
 90
        2
176
     1
 90
        2
176
     1
 90
        0
176
     1
 40
0.6
176
     1
 40
30.0
176
     1
 62
     7
420
 16777215
176
     1
 90
        2
176
     1
 90
        2
176
     1
 62
     7
176
     1
 62
   257
176
     1
 90
        2
176
     1
 90
        1
176
     1
 40
40.0
176
     1
 90
        0
176
     1
 62
   257
176
     1
 40
1.0
176
     1
 90
        1
176
     1
 90
        6
176
     1
 90
        2
176
     1
 62
     7
176
     1
 90
        3
176
     1
 90
        0
176
     1
 90
        0
176
     1
290
     0
176
     1
 90
        1
176
     1
 40
0.0
176
     1
 90
        0
176
     1
290
     0
176
     1
290
     1
176
     1
290
     1
176
     1
290
     0
176
     1
290
     0
176
     1
290
     0
176
     1
290
     0
176
     1
290
     0
176
     1
290
     0
176
     1
 90
       50
176
     1
 40
0.0
176
     1
 40
1.0
176
     1
 90
        0
176
     1
 62
    18
420
        0
176
     1
 90
       50
176
     1
 90
        3
176
     1
 62
     5
420
      255
176
     1
290
     0
176
     1
 90
       50
176
     1
 90
       50
176
     1
 90
       50
176
     1
290
     0
176
     1
 90
       50
176
     1
 62
   256
176
     0
 40
1.0
176
     0
 90
        2
176
     1
  1
strokes_ogs.tif
176
     1
290
     0
176
     1
 40
1.0
176
     1
 40
1.0
176
     1
  0
VISUALSTYLE
  5
10030
102
{ACAD_REACTORS
330
1001A
102
}
330
1001A
100
AcDbVisualStyle
  2
JitterOff
 70
    20
177
     3
291
     1
 70
    58
 90
        2
176
     0
 90
        2
176
     0
 90
        0
176
     0
 90
        0
176
     0
 40
0.6
176
     0
 40
30.0
176
     0
 62
     7
420
 16777215
176
     0
 90
        1
176
     0
 90
        4
176
     0
 62
     7
176
     0
 62
   257
176
     0
 90
        1
176
     0
 90
        1
176
     0
 40
1.0
176
     0
 90
       10
176
     2
 62
     7
176
     0
 40
1.0
176
     0
 90
        1
176
     0
 90
        6
176
     0
 90
        2
176
     0
 62
     7
176
     0
 90
        5
176
     0
 90
        0
176
     0
 90
        0
176
     0
290
     0
176
     0
 90
        1
176
     0
 40
0.0
176
     0
 90
        0
176
     0
290
     0
176
     1
290
     1
176
     1
290
     1
176
     1
290
     0
176
     1
290
     0
176
     1
290
     0
176
     1
290
     0
176
     1
290
     0
176
     1
290
     0
176
     1
 90
       50
176
     0
 40
0.0
176
     0
 40
1.0
176
     0
 90
        0
176
     0
 62
    18
420
        0
176
     0
 90
       50
176
     0
 90
        3
176
     0
 62
     5
420
      255
176
     0
290
     0
176
     1
 90
       50
176
     0
 90
       50
176
     0
 90
       50
176
     0
290
     0
176
     1
 90
       50
176
     0
 62
   256
176
     0
 40
1.0
176
     0
 90
        2
176
     0
  1
strokes_ogs.tif
176
     0
290
     0
176
     1
 40
1.0
176
     0
 40
1.0
176
     0
  0
VISUALSTYLE
  5
10028
102
{ACAD_REACTORS
330
1001A
102
}
330
1001A
100
AcDbVisualStyle
  2
Linepattern
 70
    14
177
     3
291
     1
 70
    58
 90
        2
176
     1
 90
        2
176
     1
 90
        0
176
     1
 90
        0
176
     1
 40
0.6
176
     1
 40
30.0
176
     1
 62
     7
420
 16777215
176
     1
 90
        1
176
     1
 90
        4
176
     1
 62
     7
176
     1
 62
   257
176
     1
 90
        7
176
     1
 90
        7
176
     1
 40
1.0
176
     1
 90
        8
176
     1
 62
     7
176
     1
 40
1.0
176
     1
 90
        1
176
     1
 90
        6
176
     1
 90
        2
176
     1
 62
     7
176
     1
 90
        5
176
     1
 90
        0
176
     1
 90
        0
176
     1
290
     0
176
     1
 90
        1
176
     1
 40
0.0
176
     1
 90
        0
176
     1
290
     0
176
     1
290
     1
176
     1
290
     1
176
     1
290
     0
176
     1
290
     0
176
     1
290
     0
176
     1
290
     0
176
     1
290
     0
176
     1
290
     0
176
     1
 90
       50
176
     1
 40
0.0
176
     1
 40
1.0
176
     1
 90
        0
176
     1
 62
    18
420
        0
176
     1
 90
       50
176
     1
 90
        3
176
     1
 62
     5
420
      255
176
     1
290
     0
176
     1
 90
       50
176
     1
 90
       50
176
     1
 90
       50
176
     1
290
     0
176
     1
 90
       50
176
     1
 62
   256
176
     0
 40
1.0
176
     0
 90
        2
176
     1
  1
strokes_ogs.tif
176
     1
290
     0
176
     1
 40
1.0
176
     1
 40
1.0
176
     1
  0
VISUALSTYLE
  5
10031
102
{ACAD_REACTORS
330
1001A
102
}
330
1001A
100
AcDbVisualStyle
  2
OverhangOff
 70
    21
177
     3
291
     1
 70
    58
 90
        2
176
     0
 90
        2
176
     0
 90
        0
176
     0
 90
        0
176
     0
 40
0.6
176
     0
 40
30.0
176
     0
 62
     7
420
 16777215
176
     0
 90
        1
176
     0
 90
        4
176
     0
 62
     7
176
     0
 62
   257
176
     0
 90
        1
176
     0
 90
        1
176
     0
 40
1.0
176
     0
 90
        9
176
     2
 62
     7
176
     0
 40
1.0
176
     0
 90
        1
176
     0
 90
        6
176
     0
 90
        2
176
     0
 62
     7
176
     0
 90
        5
176
     0
 90
        0
176
     0
 90
        0
176
     0
290
     0
176
     0
 90
        1
176
     0
 40
0.0
176
     0
 90
        0
176
     0
290
     0
176
     1
290
     1
176
     1
290
     1
176
     1
290
     0
176
     1
290
     0
176
     1
290
     0
176
     1
290
     0
176
     1
290
     0
176
     1
290
     0
176
     1
 90
       50
176
     0
 40
0.0
176
     0
 40
1.0
176
     0
 90
        0
176
     0
 62
    18
420
        0
176
     0
 90
       50
176
     0
 90
        3
176
     0
 62
     5
420
      255
176
     0
290
     0
176
     1
 90
       50
176
     0
 90
       50
176
     0
 90
       50
176
     0
290
     0
176
     1
 90
       50
176
     0
 62
   256
176
     0
 40
1.0
176
     0
 90
        2
176
     0
  1
strokes_ogs.tif
176
     0
290
     0
176
     1
 40
1.0
176
     0
 40
1.0
176
     0
  0
VISUALSTYLE
  5
10024
102
{ACAD_REACTORS
330
1001A
102
}
330
1001A
100
AcDbVisualStyle
  2
Realistic
 70
     8
177
     3
291
     0
 70
    58
 90
        2
176
     1
 90
        3
176
     1
 90
        0
176
     1
 90
        2
176
     1
 40
0.6
176
     1
 40
30.0
176
     1
 62
     7
420
 16777215
176
     1
 90
        0
176
     1
 90
        0
176
     1
 62
     7
176
     1
 62
   257
176
     1
 90
        1
176
     1
 90
        1
176
     1
 40
1.0
176
     1
 90
        8
176
     1
 62
   257
176
     1
 40
1.0
176
     1
 90
        1
176
     1
 90
        6
176
     1
 90
        2
176
     1
 62
     7
176
     1
 90
        3
176
     1
 90
        0
176
     1
 90
        0
176
     1
290
     0
176
     1
 90
       13
176
     1
 40
0.0
176
     1
 90
        0
176
     1
290
     0
176
     1
290
     1
176
     1
290
     1
176
     1
290
     0
176
     1
290
     0
176
     1
290
     0
176
     1
290
     0
176
     1
290
     0
176
     1
290
     0
176
     1
 90
       50
176
     1
 40
0.0
176
     1
 40
1.0
176
     1
 90
        0
176
     1
 62
    18
420
        0
176
     1
 90
       50
176
     1
 90
        3
176
     1
 62
     5
420
      255
176
     1
290
     0
176
     1
 90
       50
176
     1
 90
       50
176
     1
 90
       50
176
     1
290
     0
176
     1
 90
       50
176
     1
 62
   256
176
     0
 40
1.0
176
     0
 90
        2
176
     1
  1
strokes_ogs.tif
176
     1
290
     0
176
     1
 40
1.0
176
     1
 40
1.0
176
     1
  0
VISUALSTYLE
  5
1002F
102
{ACAD_REACTORS
330
1001A
102
}
330
1001A
100
AcDbVisualStyle
  2
Shaded
 70
    27
177
     3
291
     0
 70
    58
 90
        2
176
     1
 90
        2
176
     1
 90
        1
176
     1
 90
        2
176
     1
 40
0.6
176
     1
 40
30.0
176
     1
 62
     7
420
 16777215
176
     1
 90
        0
176
     1
 90
        4
176
     1
 62
     7
176
     1
 62
   257
176
     1
 90
        1
176
     1
 90
        1
176
     1
 40
1.0
176
     1
 90
        8
176
     1
 62
   257
176
     1
 40
1.0
176
     1
 90
        1
176
     1
 90
        6
176
     1
 90
        2
176
     1
 62
     8
420
  7895160
176
     1
 90
        3
176
     1
 90
        0
176
     1
 90
        0
176
     1
290
     0
176
     1
 90
        5
176
     1
 40
0.0
176
     1
 90
        0
176
     1
290
     0
176
     1
290
     1
176
     1
290
     1
176
     1
290
     0
176
     1
290
     0
176
     1
290
     0
176
     1
290
     0
176
     1
290
     0
176
     1
290
     0
176
     1
 90
       50
176
     1
 40
0.0
176
     1
 40
1.0
176
     1
 90
        0
176
     1
 62
    18
420
        0
176
     1
 90
       50
176
     1
 90
        3
176
     1
 62
     5
420
      255
176
     1
290
     0
176
     1
 90
       50
176
     1
 90
       50
176
     1
 90
       50
176
     1
290
     0
176
     1
 90
       50
176
     1
 62
   256
176
     0
 40
1.0
176
     0
 90
        2
176
     1
  1
strokes_ogs.tif
176
     1
290
     0
176
     1
 40
1.0
176
     1
 40
1.0
176
     1
  0
VISUALSTYLE
  5
1002E
102
{ACAD_REACTORS
330
1001A
102
}
330
1001A
100
AcDbVisualStyle
  2
Shaded with edges
 70
    26
177
     3
291
     0
 70
    58
 90
        2
176
     1
 90
        2
176
     1
 90
        1
176
     1
 90
        2
176
     1
 40
0.6
176
     1
 40
30.0
176
     1
 62
     7
420
 16777215
176
     1
 90
        1
176
     1
 90
        2
176
     1
 62
     7
176
     1
 62
   257
176
     1
 90
        2
176
     1
 90
        1
176
     1
 40
1.0
176
     1
 90
        8
176
     1
 62
   257
176
     1
 40
1.0
176
     1
 90
        1
176
     1
 90
        6
176
     1
 90
        2
176
     1
 62
     7
176
     1
 90
        3
176
     1
 90
        0
176
     1
 90
        0
176
     1
290
     0
176
     1
 90
        5
176
     1
 40
0.0
176
     1
 90
        0
176
     1
290
     0
176
     1
290
     1
176
     1
290
     1
176
     1
290
     0
176
     1
290
     0
176
     1
290
     0
176
     1
290
     0
176
     1
290
     0
176
     1
290
     0
176
     1
 90
       50
176
     1
 40
0.0
176
     1
 40
1.0
176
     1
 90
        0
176
     1
 62
    18
420
        0
176
     1
 90
       50
176
     1
 90
        3
176
     1
 62
     5
420
      255
176
     1
290
     0
176
     1
 90
       50
176
     1
 90
       50
176
     1
 90
       50
176
     1
290
     0
176
     1
 90
       50
176
     1
 62
   256
176
     0
 40
1.0
176
     0
 90
        2
176
     1
  1
strokes_ogs.tif
176
     1
290
     0
176
     1
 40
1.0
176
     1
 40
1.0
176
     1
  0
VISUALSTYLE
  5
1002B
102
{ACAD_REACTORS
330
1001A
102
}
330
1001A
100
AcDbVisualStyle
  2
Shades of Gray
 70
    23
177
     3
291
     0
 70
    58
 90
        2
176
     1
 90
        2
176
     1
 90
        3
176
     1
 90
        0
176
     1
 40
0.6
176
     1
 40
30.0
176
     1
 62
     7
420
 16777215
176
     1
 90
        2
176
     1
 90
        2
176
     1
 62
     7
176
     1
 62
     7
176
     1
 90
        1
176
     1
 90
        1
176
     1
 40
40.0
176
     1
 90
        8
176
     1
 62
     7
176
     1
 40
1.0
176
     1
 90
        1
176
     1
 90
        6
176
     1
 90
        2
176
     1
 62
     7
176
     1
 90
        3
176
     1
 90
        0
176
     1
 90
        0
176
     1
290
     0
176
     1
 90
        1
176
     1
 40
0.0
176
     1
 90
        0
176
     1
290
     0
176
     1
290
     1
176
     1
290
     1
176
     1
290
     0
176
     1
290
     0
176
     1
290
     0
176
     1
290
     0
176
     1
290
     0
176
     1
290
     0
176
     1
 90
       50
176
     1
 40
0.0
176
     1
 40
1.0
176
     1
 90
        0
176
     1
 62
    18
420
        0
176
     1
 90
       50
176
     1
 90
        3
176
     1
 62
     5
420
      255
176
     1
290
     0
176
     1
 90
       50
176
     1
 90
       50
176
     1
 90
       50
176
     1
290
     0
176
     1
 90
       50
176
     1
 62
   256
176
     0
 40
1.0
176
     0
 90
        2
176
     1
  1
strokes_ogs.tif
176
     1
290
     0
176
     1
 40
1.0
176
     1
 40
1.0
176
     1
  0
VISUALSTYLE
  5
1002C
102
{ACAD_REACTORS
330
1001A
102
}
330
1001A
100
AcDbVisualStyle
  2
Sketchy
 70
    24
177
     3
291
     0
 70
    58
 90
        1
176
     1
 90
        2
176
     1
 90
        2
176
     1
 90
        0
176
     1
 40
0.6
176
     1
 40
30.0
176
     1
 62
     7
420
 16777215
176
     1
 90
        2
176
     1
 90
        2
176
     1
 62
     7
176
     1
 62
     7
176
     1
 90
        1
176
     1
 90
        1
176
     1
 40
40.0
176
     1
 90
       11
176
     1
 62
     7
176
     1
 40
1.0
176
     1
 90
        1
176
     1
 90
        6
176
     1
 90
        2
176
     1
 62
     7
176
     1
 90
        6
176
     1
 90
        0
176
     1
 90
        0
176
     1
290
     0
176
     1
 90
        1
176
     1
 40
0.0
176
     1
 90
        0
176
     1
290
     0
176
     1
290
     1
176
     1
290
     1
176
     1
290
     0
176
     1
290
     0
176
     1
290
     0
176
     1
290
     0
176
     1
290
     0
176
     1
290
     0
176
     1
 90
       50
176
     1
 40
0.0
176
     1
 40
1.0
176
     1
 90
        0
176
     1
 62
    18
420
        0
176
     1
 90
       50
176
     1
 90
        3
176
     1
 62
     5
420
      255
176
     1
290
     0
176
     1
 90
       50
176
     1
 90
       50
176
     1
 90
       50
176
     1
290
     0
176
     1
 90
       50
176
     1
 62
   256
176
     0
 40
1.0
176
     0
 90
        2
176
     1
  1
strokes_ogs.tif
176
     1
290
     0
176
     1
 40
1.0
176
     1
 40
1.0
176
     1
  0
VISUALSTYLE
  5
10027
102
{ACAD_REACTORS
330
1001A
102
}
330
1001A
100
AcDbVisualStyle
  2
Thicken
 70
    13
177
     3
291
     1
 70
    58
 90
        2
176
     1
 90
        2
176
     1
 90
        0
176
     1
 90
        0
176
     1
 40
0.6
176
     1
 40
30.0
176
     1
 62
     7
420
 16777215
176
     1
 90
        1
176
     1
 90
        4
176
     1
 62
     7
176
     1
 62
   257
176
     1
 90
        1
176
     1
 90
        1
176
     1
 40
1.0
176
     1
 90
       12
176
     1
 62
     7
176
     1
 40
1.0
176
     1
 90
        1
176
     1
 90
        6
176
     1
 90
        2
176
     1
 62
     7
176
     1
 90
        5
176
     1
 90
        0
176
     1
 90
        0
176
     1
290
     0
176
     1
 90
        1
176
     1
 40
0.0
176
     1
 90
        0
176
     1
290
     0
176
     1
290
     1
176
     1
290
     1
176
     1
290
     0
176
     1
290
     0
176
     1
290
     0
176
     1
290
     0
176
     1
290
     0
176
     1
290
     0
176
     1
 90
       50
176
     1
 40
0.0
176
     1
 40
1.0
176
     1
 90
        0
176
     1
 62
    18
420
        0
176
     1
 90
       50
176
     1
 90
        3
176
     1
 62
     5
420
      255
176
     1
290
     0
176
     1
 90
       50
176
     1
 90
       50
176
     1
 90
       50
176
     1
290
     0
176
     1
 90
       50
176
     1
 62
   256
176
     0
 40
1.0
176
     0
 90
        2
176
     1
  1
strokes_ogs.tif
176
     1
290
     0
176
     1
 40
1.0
176
     1
 40
1.0
176
     1
  0
VISUALSTYLE
  5
10021
102
{ACAD_REACTORS
330
1001A
102
}
330
1001A
100
AcDbVisualStyle
  2
Wireframe
 70
     5
177
     3
291
     0
 70
    58
 90
        0
176
     1
 90
        2
176
     1
 90
        0
176
     1
 90
        0
176
     1
 40
0.6
176
     1
 40
30.0
176
     1
 62
     7
420
 16777215
176
     1
 90
        1
176
     1
 90
        4
176
     1
 62
     7
176
     1
 62
   257
176
     1
 90
        1
176
     1
 90
        1
176
     1
 40
1.0
176
     1
 90
        0
176
     1
 62
   257
176
     1
 40
1.0
176
     1
 90
        1
176
     1
 90
        6
176
     1
 90
        2
176
     1
 62
     7
176
     1
 90
        3
176
     1
 90
        0
176
     1
 90
        0
176
     1
290
     0
176
     1
 90
        1
176
     1
 40
0.0
176
     1
 90
        0
176
     1
290
     0
176
     1
290
     1
176
     1
290
     1
176
     1
290
     0
176
     1
290
     0
176
     1
290
     0
176
     1
290
     0
176
     1
290
     0
176
     1
290
     0
176
     1
 90
       50
176
     1
 40
0.0
176
     1
 40
1.0
176
     1
 90
        0
176
     1
 62
    18
420
        0
176
     1
 90
       50
176
     1
 90
        3
176
     1
 62
     5
420
      255
176
     1
290
     0
176
     1
 90
       50
176
     1
 90
       50
176
     1
 90
       50
176
     1
290
     0
176
     1
 90
       50
176
     1
 62
   256
176
     0
 40
1.0
176
     0
 90
        2
176
     1
  1
strokes_ogs.tif
176
     1
290
     0
176
     1
 40
1.0
176
     1
 40
1.0
176
     1
  0
VISUALSTYLE
  5
1002D
102
{ACAD_REACTORS
330
1001A
102
}
330
1001A
100
AcDbVisualStyle
  2
X-Ray
 70
    25
177
     3
291
     0
 70
    58
 90
        2
176
     1
 90
        2
176
     1
 90
        1
176
     1
 90
        1
176
     1
 40
0.5
176
     1
 40
30.0
176
     1
 62
     7
420
 16777215
176
     1
 90
        1
176
     1
 90
        0
176
     1
 62
     7
176
     1
 62
   257
176
     1
 90
        1
176
     1
 90
        1
176
     1
 40
1.0
176
     1
 90
        8
176
     1
 62
     7
176
     1
 40
1.0
176
     1
 90
        1
176
     1
 90
        6
176
     1
 90
        2
176
     1
 62
     7
176
     1
 90
        3
176
     1
 90
        0
176
     1
 90
        0
176
     1
290
     0
176
     1
 90
       13
176
     1
 40
0.0
176
     1
 90
        0
176
     1
290
     0
176
     1
290
     1
176
     1
290
     1
176
     1
290
     0
176
     1
290
     0
176
     1
290
     0
176
     1
290
     0
176
     1
290
     0
176
     1
290
     0
176
     1
 90
       50
176
     1
 40
0.0
176
     1
 40
1.0
176
     1
 90
        0
176
     1
 62
    18
420
        0
176
     1
 90
       50
176
     1
 90
        3
176
     1
 62
     5
420
      255
176
     1
290
     0
176
     1
 90
       50
176
     1
 90
       50
176
     1
 90
       50
176
     1
290
     0
176
     1
 90
       50
176
     1
 62
   256
176
     0
 40
1.0
176
     0
 90
        2
176
     1
  1
strokes_ogs.tif
176
     1
290
     0
176
     1
 40
1.0
176
     1
 40
1.0
176
     1
  0
DICTIONARYVAR
  5
10065
102
{ACAD_REACTORS
330
150
102
}
330
150
100
DictionaryVariables
280
     0
  1
1:1
  0
DICTIONARYVAR
  5
10061
102
{ACAD_REACTORS
330
150
102
}
330
150
100
DictionaryVariables
280
     0
  1
STANDARD
  0
DICTIONARYVAR
  5
10060
102
{ACAD_REACTORS
330
150
102
}
330
150
100
DictionaryVariables
280
     0
  1
STANDARD
  0
DICTIONARYVAR
  5
10062
102
{ACAD_REACTORS
330
150
102
}
330
150
100
DictionaryVariables
280
     0
  1
Metric50
  0
DICTIONARYVAR
  5
10063
102
{ACAD_REACTORS
330
150
102
}
330
150
100
DictionaryVariables
280
     0
  1
Metric50
  0
DICTIONARYVAR
  5
153
330
150
100
DictionaryVariables
280
     0
  1
1
  0
DICTIONARYVAR
  5
152
330
150
100
DictionaryVariables
280
     0
  1
2
  0
DICTIONARYVAR
  5
10067
102
{ACAD_REACTORS
330
150
102
}
330
150
100
DictionaryVariables
280
     0
  1
1
  0
DICTIONARYVAR
  5
10068
102
{ACAD_REACTORS
330
150
102
}
330
150
100
DictionaryVariables
280
     0
  1
15
  0
DICTIONARYVAR
  5
10066
102
{ACAD_REACTORS
330
150
102
}
330
150
100
DictionaryVariables
280
     0
  1
0
  0
DICTIONARYVAR
  5
10064
102
{ACAD_REACTORS
330
150
102
}
330
150
100
DictionaryVariables
280
     0
  1
0
  0
XRECORD
  5
154
330
151
100
AcDbXrecord
280
     1
1000
White
  0
XRECORD
  5
155
330
151
100
AcDbXrecord
280
     1
1000
FullColor
  0
XRECORD
  5
156
330
151
100
AcDbXrecord
280
     1
290
     1
  0
XRECORD
  5
157
330
151
100
AcDbXrecord
280
     1
290
     1
  0
XRECORD
  5
158
330
151
100
AcDbXrecord
280
     1
290
     1
  0
XRECORD
  5
159
330
151
100
AcDbXrecord
280
     1
290
     1
  0
XRECORD
  5
15A
330
151
100
AcDbXrecord
280
     1
1000
auto
  0
XRECORD
  5
15B
330
151
100
AcDbXrecord
280
     1
1000
auto
  0
XRECORD
  5
15C
330
151
100
AcDbXrecord
280
     1
1000
auto
  0
XRECORD
  5
15D
330
151
100
AcDbXrecord
280
     1
1000
auto
  0
XRECORD
  5
15E
330
151
100
AcDbXrecord
280
     1
1000
auto
  0
XRECORD
  5
15F
330
151
100
AcDbXrecord
280
     1
1000
auto
  0
XRECORD
  5
160
330
151
100
AcDbXrecord
280
     1
1000
auto
  0
XRECORD
  5
161
330
151
100
AcDbXrecord
280
     1
1000
auto
  0
XRECORD
  5
162
330
151
100
AcDbXrecord
280
     1
290
     0
  0
XRECORD
  5
163
330
151
100
AcDbXrecord
280
     1
290
     0
  0
XRECORD
  5
164
330
151
100
AcDbXrecord
280
     1
290
     0
  0
XRECORD
  5
165
330
151
100
AcDbXrecord
280
     1
290
     0
  0
XRECORD
  5
166
330
151
100
AcDbXrecord
280
     1
 90
    65537
  0
XRECORD
  5
167
330
151
100
AcDbXrecord
280
     1
 90
    65537
  0
XRECORD
  5
168
330
151
100
AcDbXrecord
280
     1
 90
    65537
  0
XRECORD
  5
169
330
151
100
AcDbXrecord
280
     1
 90
    65537
  0
XRECORD
  5
16A
330
151
100
AcDbXrecord
280
     1
1000
auto
  0
XRECORD
  5
16B
330
151
100
AcDbXrecord
280
     1
1000
auto
  0
XRECORD
  5
16C
330
151
100
AcDbXrecord
280
     1
1000
auto
  0
XRECORD
  5
16D
330
151
100
AcDbXrecord
280
     1
1000
auto
  0
XRECORD
  5
16E
330
151
100
AcDbXrecord
280
     1
1000
auto
  0
XRECORD
  5
16F
330
151
100
AcDbXrecord
280
     1
1000
auto
  0
XRECORD
  5
170
330
151
100
AcDbXrecord
280
     1
1000
auto
  0
XRECORD
  5
171
330
151
100
AcDbXrecord
280
     1
1000
auto
  0
XRECORD
  5
172
330
151
100
AcDbXrecord
280
     1
 90
        1
  0
XRECORD
  5
173
330
151
100
AcDbXrecord
280
     1
 40
10.0
  0
XRECORD
  5
174
330
151
100
AcDbXrecord
280
     1
 40
10.0
  0
XRECORD
  5
175
330
151
100
AcDbXrecord
280
     1
 40
10.0
  0
XRECORD
  5
176
330
151
100
AcDbXrecord
280
     1
 40
10.0
  0
XRECORD
  5
177
330
151
100
AcDbXrecord
280
     1
290
     0
  0
XRECORD
  5
178
330
151
100
AcDbXrecord
280
     1
 90
        1
  0
XRECORD
  5
179
330
151
100
AcDbXrecord
280
     1
 40
0.0
  0
XRECORD
  5
17A
330
151
100
AcDbXrecord
280
     1
 40
0.0
  0
XRECORD
  5
17B
330
151
100
AcDbXrecord
280
     1
1000
Portrait
  0
XRECORD
  5
17C
330
151
100
AcDbXrecord
280
     1
 40
297.0
  0
XRECORD
  5
17D
330
151
100
AcDbXrecord
280
     1
 40
210.0
  0
XRECORD
  5
17E
330
151
100
AcDbXrecord
280
     1
1000
1:1
  0
XRECORD
  5
17F
330
151
100
AcDbXrecord
280
     1
290
     1
  0
XRECORD
  5
180
330
151
100
AcDbXrecord
280
     1
290
     0
  0
XRECORD
  5
181
330
151
100
AcDbXrecord
280
     1
1000
Inside
  0
XRECORD
  5
182
330
151
100
AcDbXrecord
280
     1
1000
Arial,10,-1,5,50,0,0,0,0,0
  0
XRECORD
  5
183
330
151
100
AcDbXrecord
280
     1
1000
TopLeft
  0
XRECORD
  5
184
330
151
100
AcDbXrecord
280
     1
1000
3.32.3
  0
XRECORD
  5
185
330
151
100
AcDbXrecord
280
     1
 90
        1
  0
XRECORD
  5
186
330
151
100
AcDbXrecord
280
     1
 90
        4
  0
XRECORD
  5
188
330
151
100
AcDbXrecord
280
     1
 40
7.616369740317705
  0
XRECORD
  5
189
330
151
100
AcDbXrecord
280
     1
 40
13.39585030797056
  0
DICTIONARY
  5
1000B
330
1000A
100
AcDbDictionary
280
     1
281
     1
  3
BUMPTILE
360
1000D
  3
DIFFUSETILE
360
1000C
  3
OPACITYTILE
360
10010
  3
REFLECTIONTILE
360
1000F
  3
REFRACTIONTILE
360
10011
  3
SPECULARTILE
360
1000E
  0
DICTIONARY
  5
10003
330
10002
100
AcDbDictionary
280
     1
281
     1
  3
BUMPTILE
360
10005
  3
DIFFUSETILE
360
10004
  3
OPACITYTILE
360
10008
  3
REFLECTIONTILE
360
10007
  3
REFRACTIONTILE
360
10009
  3
SPECULARTILE
360
10006
  0
DICTIONARY
  5
10013
330
10012
100
AcDbDictionary
280
     1
281
     1
  3
BUMPTILE
360
10015
  3
DIFFUSETILE
360
10014
  3
OPACITYTILE
360
10018
  3
REFLECTIONTILE
360
10017
  3
REFRACTIONTILE
360
10019
  3
SPECULARTILE
360
10016
  0
DICTIONARY
  5
10366
330
10035
100
AcDbDictionary
280
     1
281
     1
  3
ACAD_ROUNDTRIP_2008_TABLESTYLE_CELLSTYLEMAP
360
10367
  0
XRECORD
  5
1000D
102
{ACAD_REACTORS
330
1000B
102
}
330
1000B
100
AcDbXrecord
280
     1
270
     1
271
     1
  0
XRECORD
  5
1000C
102
{ACAD_REACTORS
330
1000B
102
}
330
1000B
100
AcDbXrecord
280
     1
270
     1
271
     1
  0
XRECORD
  5
10010
102
{ACAD_REACTORS
330
1000B
102
}
330
1000B
100
AcDbXrecord
280
     1
270
     1
271
     1
  0
XRECORD
  5
1000F
102
{ACAD_REACTORS
330
1000B
102
}
330
1000B
100
AcDbXrecord
280
     1
270
     1
271
     1
  0
XRECORD
  5
10011
102
{ACAD_REACTORS
330
1000B
102
}
330
1000B
100
AcDbXrecord
280
     1
270
     1
271
     1
  0
XRECORD
  5
1000E
102
{ACAD_REACTORS
330
1000B
102
}
330
1000B
100
AcDbXrecord
280
     1
270
     1
271
     1
  0
XRECORD
  5
10005
102
{ACAD_REACTORS
330
10003
102
}
330
10003
100
AcDbXrecord
280
     1
270
     1
271
     1
  0
XRECORD
  5
10004
102
{ACAD_REACTORS
330
10003
102
}
330
10003
100
AcDbXrecord
280
     1
270
     1
271
     1
  0
XRECORD
  5
10008
102
{ACAD_REACTORS
330
10003
102
}
330
10003
100
AcDbXrecord
280
     1
270
     1
271
     1
  0
XRECORD
  5
10007
102
{ACAD_REACTORS
330
10003
102
}
330
10003
100
AcDbXrecord
280
     1
270
     1
271
     1
  0
XRECORD
  5
10009
102
{ACAD_REACTORS
330
10003
102
}
330
10003
100
AcDbXrecord
280
     1
270
     1
271
     1
  0
XRECORD
  5
10006
102
{ACAD_REACTORS
330
10003
102
}
330
10003
100
AcDbXrecord
280
     1
270
     1
271
     1
  0
XRECORD
  5
10015
102
{ACAD_REACTORS
330
10013
102
}
330
10013
100
AcDbXrecord
280
     1
270
     1
271
     1
  0
XRECORD
  5
10014
102
{ACAD_REACTORS
330
10013
102
}
330
10013
100
AcDbXrecord
280
     1
270
     1
271
     1
  0
XRECORD
  5
10018
102
{ACAD_REACTORS
330
10013
102
}
330
10013
100
AcDbXrecord
280
     1
270
     1
271
     1
  0
XRECORD
  5
10017
102
{ACAD_REACTORS
330
10013
102
}
330
10013
100
AcDbXrecord
280
     1
270
     1
271
     1
  0
XRECORD
  5
10019
102
{ACAD_REACTORS
330
10013
102
}
330
10013
100
AcDbXrecord
280
     1
270
     1
271
     1
  0
XRECORD
  5
10016
102
{ACAD_REACTORS
330
10013
102
}
330
10013
100
AcDbXrecord
280
     1
270
     1
271
     1
  0
CELLSTYLEMAP
  5
10367
102
{ACAD_REACTORS
330
10366
102
}
330
10366
100
AcDbCellStyleMap
 90
        3
300
CELLSTYLE
  1
TABLEFORMAT_BEGIN
 90
        5
170
     1
 91
        0
 92
    32768
 62
   257
 93
        1
300
CONTENTFORMAT
  1
CONTENTFORMAT_BEGIN
 90
        0
 91
        0
 92
      512
 93
        0
300

 40
0.0
140
1.0
 94
        5
 62
     0
340
59
144
6.0
309
CONTENTFORMAT_END
171
     1
301
MARGIN
  1
CELLMARGIN_BEGIN
 40
1.5
 40
1.5
 40
1.5
 40
1.5
 40
4.5
 40
4.5
309
CELLMARGIN_END
 94
        6
 95
        1
302
GRIDFORMAT
  1
GRIDFORMAT_BEGIN
 90
        0
 91
        1
 62
     0
 92
       -2
340
0
 93
        0
 40
1.125
309
GRIDFORMAT_END
 95
        2
302
GRIDFORMAT
  1
GRIDFORMAT_BEGIN
 90
        0
 91
        1
 62
     0
 92
       -2
340
0
 93
        0
 40
1.125
309
GRIDFORMAT_END
 95
        4
302
GRIDFORMAT
  1
GRIDFORMAT_BEGIN
 90
        0
 91
        1
 62
     0
 92
       -2
340
0
 93
        0
 40
1.125
309
GRIDFORMAT_END
 95
        8
302
GRIDFORMAT
  1
GRIDFORMAT_BEGIN
 90
        0
 91
        1
 62
     0
 92
       -2
340
0
 93
        0
 40
1.125
309
GRIDFORMAT_END
 95
       16
302
GRIDFORMAT
  1
GRIDFORMAT_BEGIN
 90
        0
 91
        1
 62
     0
 92
       -2
340
0
 93
        0
 40
1.125
309
GRIDFORMAT_END
 95
       32
302
GRIDFORMAT
  1
GRIDFORMAT_BEGIN
 90
        0
 91
        1
 62
     0
 92
       -2
340
0
 93
        0
 40
1.125
309
GRIDFORMAT_END
309
TABLEFORMAT_END
  1
CELLSTYLE_BEGIN
 90
        1
 91
        1
300
_TITLE
309
CELLSTYLE_END
300
CELLSTYLE
  1
TABLEFORMAT_BEGIN
 90
        5
170
     1
 91
        0
 92
        0
 62
   257
 93
        1
300
CONTENTFORMAT
  1
CONTENTFORMAT_BEGIN
 90
        0
 91
        0
 92
      512
 93
        0
300

 40
0.0
140
1.0
 94
        5
 62
     0
340
59
144
4.5
309
CONTENTFORMAT_END
171
     1
301
MARGIN
  1
CELLMARGIN_BEGIN
 40
1.5
 40
1.5
 40
1.5
 40
1.5
 40
4.5
 40
4.5
309
CELLMARGIN_END
 94
        6
 95
        1
302
GRIDFORMAT
  1
GRIDFORMAT_BEGIN
 90
        0
 91
        1
 62
     0
 92
       -2
340
0
 93
        0
 40
1.125
309
GRIDFORMAT_END
 95
        2
302
GRIDFORMAT
  1
GRIDFORMAT_BEGIN
 90
        0
 91
        1
 62
     0
 92
       -2
340
0
 93
        0
 40
1.125
309
GRIDFORMAT_END
 95
        4
302
GRIDFORMAT
  1
GRIDFORMAT_BEGIN
 90
        0
 91
        1
 62
     0
 92
       -2
340
0
 93
        0
 40
1.125
309
GRIDFORMAT_END
 95
        8
302
GRIDFORMAT
  1
GRIDFORMAT_BEGIN
 90
        0
 91
        1
 62
     0
 92
       -2
340
0
 93
        0
 40
1.125
309
GRIDFORMAT_END
 95
       16
302
GRIDFORMAT
  1
GRIDFORMAT_BEGIN
 90
        0
 91
        1
 62
     0
 92
       -2
340
0
 93
        0
 40
1.125
309
GRIDFORMAT_END
 95
       32
302
GRIDFORMAT
  1
GRIDFORMAT_BEGIN
 90
        0
 91
        1
 62
     0
 92
       -2
340
0
 93
        0
 40
1.125
309
GRIDFORMAT_END
309
TABLEFORMAT_END
  1
CELLSTYLE_BEGIN
 90
        2
 91
        1
300
_HEADER
309
CELLSTYLE_END
300
CELLSTYLE
  1
TABLEFORMAT_BEGIN
 90
        5
170
     1
 91
        0
 92
        0
 62
   257
 93
        1
300
CONTENTFORMAT
  1
CONTENTFORMAT_BEGIN
 90
        0
 91
        0
 92
      512
 93
        0
300

 40
0.0
140
1.0
 94
        2
 62
     0
340
59
144
4.5
309
CONTENTFORMAT_END
171
     1
301
MARGIN
  1
CELLMARGIN_BEGIN
 40
1.5
 40
1.5
 40
1.5
 40
1.5
 40
4.5
 40
4.5
309
CELLMARGIN_END
 94
        6
 95
        1
302
GRIDFORMAT
  1
GRIDFORMAT_BEGIN
 90
        0
 91
        1
 62
     0
 92
       -2
340
0
 93
        0
 40
1.125
309
GRIDFORMAT_END
 95
        2
302
GRIDFORMAT
  1
GRIDFORMAT_BEGIN
 90
        0
 91
        1
 62
     0
 92
       -2
340
0
 93
        0
 40
1.125
309
GRIDFORMAT_END
 95
        4
302
GRIDFORMAT
  1
GRIDFORMAT_BEGIN
 90
        0
 91
        1
 62
     0
 92
       -2
340
0
 93
        0
 40
1.125
309
GRIDFORMAT_END
 95
        8
302
GRIDFORMAT
  1
GRIDFORMAT_BEGIN
 90
        0
 91
        1
 62
     0
 92
       -2
340
0
 93
        0
 40
1.125
309
GRIDFORMAT_END
 95
       16
302
GRIDFORMAT
  1
GRIDFORMAT_BEGIN
 90
        0
 91
        1
 62
     0
 92
       -2
340
0
 93
        0
 40
1.125
309
GRIDFORMAT_END
 95
       32
302
GRIDFORMAT
  1
GRIDFORMAT_BEGIN
 90
        0
 91
        1
 62
     0
 92
       -2
340
0
 93
        0
 40
1.125
309
GRIDFORMAT_END
309
TABLEFORMAT_END
  1
CELLSTYLE_BEGIN
 90
        3
 91
        2
300
_DATA
309
CELLSTYLE_END
  0
ENDSEC
  0
EOF
