  0
SECTION
  2
HEADER
  9
$ACADVER
  1
AC1012
  9
$DWGCODEPAGE
  3
ansi_1252
  9
$INSBASE
 10
0.0
 20
0.0
 30
0.0
  9
$EXTMIN
 10
-60.031
 20
-13.96
 30
0.0
  9
$EXTMAX
 10
2.2250738585072e-308
 20
7.661
 30
0.0
  9
$LIMMIN
 10
0.0
 20
0.0
  9
$LIMMAX
 10
0.0
 20
0.0
  9
$ORTHOMODE
 70
         0
  9
$REGENMODE
 70
         1
  9
$FILLMODE
 70
         1
  9
$QTEXTMODE
 70
         0
  9
$MIRRTEXT
 70
         1
  9
$DRAGMODE
 70
         2
  9
$LTSCALE
 40
1.0
  9
$OSMODE
 70
         0
  9
$ATTMODE
 70
         1
  9
$TEXTSIZE
 40
3.5
  9
$TRACEWID
 40
0.05
  9
$TEXTSTYLE
  7
STANDARD
  9
$CLAYER
  8
0
  9
$CELTYPE
  6
CONTINUOUS
  9
$CECOLOR
 62
       256
  9
$CELTSCALE
 40
1.0
  9
$DELOBJ
 70
         1
  9
$DISPSILH
 70
         0
  9
$DIMSCALE
 40
1.0
  9
$DIMASZ
 40
0.0
  9
$DIMEXO
 40
0.0
  9
$DIMDLI
 40
0.38
  9
$DIMRND
 40
0.0
  9
$DIMDLE
 40
0.0
  9
$DIMEXE
 40
0.18
  9
$DIMTP
 40
0.0
  9
$DIMTM
 40
0.0
  9
$DIMTXT
 40
2.5
  9
$DIMCEN
 40
0.09
  9
$DIMTSZ
 40
0.0
  9
$DIMTOL
 70
         0
  9
$DIMLIM
 70
         0
  9
$DIMTIH
 70
         1
  9
$DIMTOH
 70
         1
  9
$DIMSE1
 70
         0
  9
$DIMSE2
 70
         0
  9
$DIMTAD
 70
         1
  9
$DIMZIN
 70
         0
  9
$DIMBLK
  1

  9
$DIMASO
 70
         1
  9
$DIMSHO
 70
         1
  9
$DIMPOST
  1

  9
$DIMAPOST
  1

  9
$DIMALT
 70
         0
  9
$DIMALTD
 70
         2
  9
$DIMALTF
 40
0.0394
  9
$DIMLFAC
 40
1.0
  9
$DIMTOFL
 70
         0
  9
$DIMTVP
 40
0.0
  9
$DIMTIX
 70
         0
  9
$DIMSOXD
 70
         0
  9
$DIMSAH
 70
         0
  9
$DIMBLK1
  1

  9
$DIMBLK2
  1

  9
$DIMSTYLE
  2
STANDARD
  9
$DIMCLRD
 70
         0
  9
$DIMCLRE
 70
         0
  9
$DIMCLRT
 70
         0
  9
$DIMTFAC
 40
1.0
  9
$DIMGAP
 40
0.0
  9
$DIMJUST
 70
         0
  9
$DIMSD1
 70
         0
  9
$DIMSD2
 70
         0
  9
$DIMTOLJ
 70
         1
  9
$DIMTZIN
 70
         0
  9
$DIMALTZ
 70
         0
  9
$DIMALTTZ
 70
         0
  9
$DIMFIT
 70
         3
  9
$DIMUPT
 70
         0
  9
$DIMUNIT
 70
         2
  9
$DIMDEC
 70
         4
  9
$DIMTDEC
 70
         4
  9
$DIMALTU
 70
         2
  9
$DIMALTTD
 70
         2
  9
$DIMTXSTY
  7
STANDARD
  9
$DIMAUNIT
 70
         0
  9
$LUNITS
 70
         2
  9
$LUPREC
 70
         4
  9
$SKETCHINC
 40
0.1
  9
$FILLETRAD
 40
0.0
  9
$AUNITS
 70
         0
  9
$AUPREC
 70
         0
  9
$MENU
  1
acad
  9
$ELEVATION
 40
0.0
  9
$PELEVATION
 40
0.0
  9
$THICKNESS
 40
0.0
  9
$LIMCHECK
 70
         0
  9
$BLIPMODE
 70
         1
  9
$CHAMFERA
 40
0.0
  9
$CHAMFERB
 40
0.0
  9
$CHAMFERC
 40
0.0
  9
$CHAMFERD
 40
0.0
  9
$SKPOLY
 70
         0
  9
$TDCREATE
 40
0.000000000
  9
$TDUPDATE
 40
0.000000000
  9
$TDINDWG
 40
0.0000000000
  9
$TDUSRTIMER
 40
0.0000000000
  9
$USRTIMER
 70
         1
  9
$ANGBASE
 50
0.0
  9
$ANGDIR
 70
         0
  9
$PDMODE
 70
         0
  9
$PDSIZE
 40
-1.0
  9
$PLINEWID
 40
0.0
  9
$COORDS
 70
         0
  9
$SPLFRAME
 70
         0
  9
$SPLINETYPE
 70
         6
  9
$SPLINESEGS
 70
         8
  9
$ATTDIA
 70
         0
  9
$ATTREQ
 70
         1
  9
$HANDLING
 70
         1
  9
$HANDSEED
  5
31
  9
$SURFTAB1
 70
         6
  9
$SURFTAB2
 70
         6
  9
$SURFTYPE
 70
         6
  9
$SURFU
 70
         6
  9
$SURFV
 70
         6
  9
$UCSNAME
  2

  9
$UCSORG
 10
0.0
 20
0.0
 30
0.0
  9
$UCSXDIR
 10
1.0
 20
0.0
 30
0.0
  9
$UCSYDIR
 10
0.0
 20
1.0
 30
0.0
  9
$PUCSNAME
  2

  9
$PUCSORG
 10
0.0
 20
0.0
 30
0.0
  9
$PUCSXDIR
 10
1.0
 20
0.0
 30
0.0
  9
$PUCSYDIR
 10
0.0
 20
1.0
 30
0.0
  9
$USERI1
 70
         0
  9
$USERI2
 70
         0
  9
$USERI3
 70
         0
  9
$USERI4
 70
         0
  9
$USERI5
 70
         0
  9
$USERR1
 40
0.0
  9
$USERR2
 40
0.0
  9
$USERR3
 40
0.0
  9
$USERR4
 40
0.0
  9
$USERR5
 40
0.0
  9
$WORLDVIEW
 70
         1
  9
$SHADEDGE
 70
         3
  9
$SHADEDIF
 70
        70
  9
$TILEMODE
 70
         1
  9
$MAXACTVP
 70
        16
  9
$PINSBASE
 10
0.0
 20
0.0
 30
0.0
  9
$PLIMCHECK
 70
         0
  9
$PEXTMIN
 10
1.0000000000E+20
 20
1.0000000000E+20
 30
1.0000000000E+20
  9
$PEXTMAX
 10
-1.0000000000E+20
 20
-1.0000000000E+20
 30
-1.0000000000E+20
  9
$PLIMMIN
 10
0.0
 20
0.0
  9
$PLIMMAX
 10
12.0
 20
9.0
  9
$UNITMODE
 70
         0
  9
$VISRETAIN
 70
         0
  9
$PLINEGEN
 70
         1
  9
$PSLTSCALE
 70
         1
  9
$TREEDEPTH
 70
      3020
  9
$PICKSTYLE
 70
         1
  9
$CMLSTYLE
  2
STANDARD
  9
$CMLJUST
 70
         0
  9
$CMLSCALE
 40
1.0
  9
$SAVEIMAGES
 70
         0
  0
ENDSEC
  0
SECTION
  2
CLASSES
  0
CLASS
  1
LWPOLYLINE
  2
AcDbPolyline
  3
"AutoCAD"
 90
    32768
280
         0
281
         1
  0
CLASS
  1
DICTIONARYVAR
  2
AcDbDictionaryVar
  3
"AutoCAD"
 90
    32768
280
         0
281
         0
  0
CLASS
  1
LAYOUT
  2
AcDbLayout
  3
"AutoCAD 2000"
 90
    32768
280
         0
281
         0
  0
CLASS
  1
PLOTSETTINGS
  2
AcDbPlotSettings
  3
"AutoCAD 2000"
 90
    32768
280
         0
281
         0
  0
CLASS
  1
ACDBDICTIONARYWDFLT
  2
AcDbDictionaryWithDefault
  3
"AutoCAD 2000"
 90
    32768
280
         0
281
         0
  0
CLASS
  1
ACDBPLACEHOLDER
  2
AcDbPlaceHolder
  3
"AutoCAD 2000"
 90
    32768
280
         0
281
         0
  0
ENDSEC
  0
SECTION
  2
TABLES
  0
TABLE
  2
VPORT
  5
7
100
AcDbSymbolTable
 70
         1
  0
VPORT
  5
15
100
AcDbSymbolTableRecord
100
AcDbViewportTableRecord
  2
*ACTIVE
 70
         0
 10
0.0
 20
0.0
 11
1.0
 21
1.0
 12
-30.0155
 22
-3.1495
 13
0.0
 23
0.0
 14
1.0
 24
1.0
 15
0.0
 25
0.0
 16
0.0
 26
0.0
 36
1.0
 17
0.0
 27
0.0
 37
0.0
 40
21.621
 41
1.0
 42
50.0
 43
0.0
 44
0.0
 50
0.0
 51
0.0
 71
         0
 72
      2000
 73
         1
 74
         1
 75
         0
 76
         0
 77
         0
 78
         0
  0
ENDTAB
  0
TABLE
  2
LTYPE
  5
4
100
AcDbSymbolTable
 70
         8
  0
LTYPE
  5
11
100
AcDbSymbolTableRecord
100
AcDbLinetypeTableRecord
  2
BYBLOCK
 70
        64
  3

 72
        65
 73
         0
 40
0.0
  0
LTYPE
  5
12
100
AcDbSymbolTableRecord
100
AcDbLinetypeTableRecord
  2
BYLAYER
 70
        64
  3

 72
        65
 73
         0
 40
0.0
  0
LTYPE
  5
13
100
AcDbSymbolTableRecord
100
AcDbLinetypeTableRecord
  2
CONTINUOUS
 70
        64
  3
Solid line
 72
        65
 73
         0
 40
0.0
  0
ENDTAB
  0
TABLE
  2
LAYER
  5
2
100
AcDbSymbolTable
 70
         2
  0
LAYER
  5
14
100
AcDbSymbolTableRecord
100
AcDbLayerTableRecord
  2
0
 70
         0
 62
         7
  6
CONTINUOUS
  0
LAYER
  5
23
100
AcDbSymbolTableRecord
100
AcDbLayerTableRecord
  2
DEFPOINTS
 70
         0
 62
         7
  6
CONTINUOUS
  0
ENDTAB
  0
TABLE
  2
STYLE
  5
3
100
AcDbSymbolTable
 70
         1
  0
STYLE
  5
17
100
AcDbSymbolTableRecord
100
AcDbTextStyleTableRecord
  2
STANDARD
 70
         0
 40
0.0
 41
1.0
 50
0.0
 71
         0
 42
0.0
  3
txt
  4

  0
ENDTAB
  0
TABLE
  2
VIEW
  5
5
100
AcDbSymbolTable
 70
         0
  0
ENDTAB
  0
TABLE
  2
UCS
  5
6
100
AcDbSymbolTable
 70
         0
  0
ENDTAB
  0
TABLE
  2
APPID
  5
8
100
AcDbSymbolTable
 70
         1
  0
APPID
  5
16
100
AcDbSymbolTableRecord
100
AcDbRegAppTableRecord
  2
ACAD
 70
         0
  0
ENDTAB
  0
TABLE
  2
DIMSTYLE
  5
9
100
AcDbSymbolTable
 70
         1
  0
DIMSTYLE
105
18
100
AcDbSymbolTableRecord
100
AcDbDimStyleTableRecord
  2
STANDARD
 70
         0
  3

  4

  5

  6

  7

 40
1.0
 41
0.18
 42
0.0625
 43
0.38
 44
0.18
 45
0.0
 46
0.0
 47
0.0
 48
0.0
 71
         0
 72
         0
 73
         1
 74
         1
 75
         0
 76
         0
 77
         0
 78
         0
140
0.18
141
0.09
142
0.0
143
25.4
144
1.0
145
0.0
146
1.0
147
0.09
170
         0
171
         2
172
         0
173
         0
174
         0
175
         0
176
         0
177
         0
178
         0
270
         2
271
         4
272
         4
273
         2
274
         2
275
         0
280
         0
281
         0
282
         0
283
         1
284
         0
285
         0
286
         0
287
         3
288
         0
340
17
  0
ENDTAB
  0
TABLE
  2
BLOCK_RECORD
  5
1
100
AcDbSymbolTable
 70
         0
  0
BLOCK_RECORD
  5
A
100
AcDbSymbolTableRecord
100
AcDbBlockTableRecord
  2
*MODEL_SPACE
  0
BLOCK_RECORD
  5
B
100
AcDbSymbolTableRecord
100
AcDbBlockTableRecord
  2
*PAPER_SPACE
  0
ENDTAB
  0
ENDSEC
  0
SECTION
  2
BLOCKS
  0
BLOCK
  5
D
100
AcDbEntity
  8
0
100
AcDbBlockBegin
  2
*MODEL_SPACE
 70
         0
 10
0.0
 20
0.0
 30
0.0
  3
*MODEL_SPACE
  1

  0
ENDBLK
  5
E
100
AcDbEntity
  8
0
100
AcDbBlockEnd
  0
BLOCK
  5
F
100
AcDbEntity
 67
         1
  8
0
100
AcDbBlockBegin
  2
*PAPER_SPACE
 70
         0
 10
0.0
 20
0.0
 30
0.0
  3
*PAPER_SPACE
  1

  0
ENDBLK
  5
10
100
AcDbEntity
 67
         1
  8
0
100
AcDbBlockEnd
  0
ENDSEC
  0
SECTION
  2
ENTITIES
  0
LWPOLYLINE
  5
30
100
AcDbEntity
  8
1
100
AcDbPolyline
 90
462
 70
1
10
-60.031
20
1.736
10
-60.028
20
1.666
10
-60.019
20
1.597
10
-60.004
20
1.529
10
-59.983
20
1.462
10
-59.956
20
1.398
10
-59.923
20
1.336
10
-59.886
20
1.277
10
-59.843
20
1.221
10
-59.796
20
1.17
10
-59.745
20
1.123
10
-59.689
20
1.08
10
-59.63
20
1.043
10
-59.568
20
1.01
10
-59.504
20
0.984
10
-59.496
20
0.981
10
-59.429
20
0.961
10
-59.361
20
0.946
10
-59.291
20
0.938
10
-59.221
20
0.936
10
-59.152
20
0.94
10
-59.083
20
0.95
10
-59.014
20
0.966
10
-58.948
20
0.988
10
-58.884
20
1.015
10
-58.822
20
1.048
10
-58.764
20
1.086
10
-58.709
20
1.13
10
-58.658
20
1.177
10
-58.611
20
1.229
10
-58.606
20
1.236
10
-58.146
20
1.236
10
-54.8
20
1.236
10
-54.607
20
1.236
10
-54.607
20
0.236
10
-54.184
20
-0.577
10
-53.984
20
-0.777
10
-54.184
20
-0.977
10
-53.984
20
-1.177
10
-54.184
20
-1.377
10
-53.984
20
-1.577
10
-54.184
20
-1.777
10
-53.984
20
-1.977
10
-54.184
20
-2.177
10
-53.984
20
-2.377
10
-54.184
20
-2.577
10
-53.984
20
-2.777
10
-54.184
20
-2.977
10
-53.984
20
-3.177
10
-54.184
20
-3.377
10
-53.984
20
-3.577
10
-54.184
20
-3.777
10
-53.984
20
-3.977
10
-54.184
20
-4.177
10
-53.984
20
-4.377
10
-54.184
20
-4.577
10
-53.984
20
-4.777
10
-54.184
20
-4.977
10
-53.984
20
-5.177
10
-54.184
20
-5.377
10
-53.984
20
-5.577
10
-54.184
20
-5.777
10
-53.984
20
-5.977
10
-54.184
20
-6.177
10
-53.984
20
-6.377
10
-54.184
20
-6.577
10
-53.984
20
-6.777
10
-54.184
20
-6.977
10
-53.984
20
-7.177
10
-54.184
20
-7.377
10
-53.984
20
-7.577
10
-54.184
20
-7.777
10
-53.984
20
-7.977
10
-54.184
20
-8.177
10
-53.984
20
-8.377
10
-54.184
20
-8.577
10
-53.984
20
-8.777
10
-54.184
20
-8.977
10
-53.984
20
-9.177
10
-54.184
20
-9.377
10
-53.984
20
-9.577
10
-54.184
20
-9.777
10
-54.184
20
-10.01
10
-54.607
20
-10.735
10
-54.607
20
-12.535
10
-54.66
20
-12.581
10
-54.708
20
-12.631
10
-54.752
20
-12.686
10
-54.791
20
-12.744
10
-54.824
20
-12.805
10
-54.852
20
-12.869
10
-54.875
20
-12.935
10
-54.892
20
-13.003
10
-54.902
20
-13.072
10
-54.907
20
-13.142
10
-54.905
20
-13.212
10
-54.898
20
-13.281
10
-54.884
20
-13.35
10
-54.865
20
-13.417
10
-54.862
20
-13.425
10
-54.836
20
-13.49
10
-54.804
20
-13.552
10
-54.768
20
-13.611
10
-54.726
20
-13.667
10
-54.679
20
-13.719
10
-54.628
20
-13.767
10
-54.573
20
-13.81
10
-54.515
20
-13.848
10
-54.453
20
-13.881
10
-54.389
20
-13.909
10
-54.322
20
-13.93
10
-54.254
20
-13.946
10
-54.185
20
-13.956
10
-54.115
20
-13.96
10
-54.107
20
-13.96
10
-54.037
20
-13.957
10
-53.968
20
-13.948
10
-53.9
20
-13.933
10
-53.833
20
-13.912
10
-53.769
20
-13.885
10
-53.707
20
-13.853
10
-53.648
20
-13.815
10
-53.592
20
-13.773
10
-53.541
20
-13.725
10
-53.494
20
-13.674
10
-53.451
20
-13.619
10
-53.414
20
-13.56
10
-53.382
20
-13.498
10
-53.355
20
-13.433
10
-53.352
20
-13.425
10
-53.332
20
-13.358
10
-53.317
20
-13.29
10
-53.309
20
-13.221
10
-53.307
20
-13.151
10
-53.311
20
-13.081
10
-53.321
20
-13.012
10
-53.336
20
-12.944
10
-53.358
20
-12.878
10
-53.386
20
-12.813
10
-53.419
20
-12.752
10
-53.457
20
-12.693
10
-53.5
20
-12.639
10
-53.548
20
-12.588
10
-53.6
20
-12.541
10
-53.607
20
-12.535
10
-53.607
20
-10.735
10
-54.085
20
-10.01
10
-54.085
20
-9.777
10
-53.885
20
-9.577
10
-54.085
20
-9.377
10
-53.885
20
-9.177
10
-54.085
20
-8.977
10
-53.885
20
-8.777
10
-54.085
20
-8.577
10
-53.885
20
-8.377
10
-54.085
20
-8.177
10
-53.885
20
-7.977
10
-54.085
20
-7.777
10
-53.885
20
-7.577
10
-54.085
20
-7.377
10
-53.885
20
-7.177
10
-54.085
20
-6.977
10
-53.885
20
-6.777
10
-54.085
20
-6.577
10
-53.885
20
-6.377
10
-54.085
20
-6.177
10
-53.885
20
-5.977
10
-54.085
20
-5.777
10
-53.885
20
-5.577
10
-54.085
20
-5.377
10
-53.885
20
-5.177
10
-54.085
20
-4.977
10
-53.885
20
-4.777
10
-54.085
20
-4.577
10
-53.885
20
-4.377
10
-54.085
20
-4.177
10
-53.885
20
-3.977
10
-54.085
20
-3.777
10
-53.885
20
-3.577
10
-54.085
20
-3.377
10
-53.885
20
-3.177
10
-54.085
20
-2.977
10
-53.885
20
-2.777
10
-54.085
20
-2.577
10
-53.885
20
-2.377
10
-54.085
20
-2.177
10
-53.885
20
-1.977
10
-54.085
20
-1.777
10
-53.885
20
-1.577
10
-54.085
20
-1.377
10
-53.885
20
-1.177
10
-54.085
20
-0.977
10
-53.885
20
-0.777
10
-54.085
20
-0.577
10
-53.607
20
0.236
10
-53.607
20
1.236
10
-52.607
20
1.236
10
-51.794
20
1.659
10
-51.594
20
1.859
10
-51.394
20
1.659
10
-51.194
20
1.859
10
-50.994
20
1.659
10
-50.794
20
1.859
10
-50.594
20
1.659
10
-50.394
20
1.859
10
-50.194
20
1.659
10
-49.994
20
1.859
10
-49.794
20
1.659
10
-49.594
20
1.859
10
-49.394
20
1.659
10
-49.194
20
1.859
10
-48.994
20
1.659
10
-48.794
20
1.859
10
-48.594
20
1.659
10
-48.394
20
1.859
10
-48.194
20
1.659
10
-47.994
20
1.859
10
-47.794
20
1.659
10
-47.594
20
1.859
10
-47.394
20
1.659
10
-47.194
20
1.859
10
-46.994
20
1.659
10
-46.794
20
1.859
10
-46.594
20
1.659
10
-46.394
20
1.859
10
-46.194
20
1.659
10
-45.994
20
1.859
10
-45.794
20
1.659
10
-45.594
20
1.859
10
-45.394
20
1.659
10
-45.194
20
1.859
10
-44.994
20
1.659
10
-44.794
20
1.859
10
-44.594
20
1.659
10
-44.394
20
1.859
10
-44.194
20
1.659
10
-43.994
20
1.859
10
-43.794
20
1.659
10
-43.594
20
1.859
10
-43.394
20
1.659
10
-43.194
20
1.859
10
-42.994
20
1.659
10
-42.794
20
1.859
10
-42.594
20
1.659
10
-42.361
20
1.659
42
0.999999976527177
10
-39.251
20
1.659
10
-39.051
20
1.603
10
-36.251
20
1.603
10
-35.619
20
1.232
10
-33.514
20
1.232
10
-33.468
20
1.179
10
-33.418
20
1.131
10
-33.363
20
1.087
10
-33.305
20
1.049
10
-33.244
20
1.015
10
-33.18
20
0.986999999999998
10
-33.114
20
0.963999999999999
10
-33.046
20
0.948
10
-32.977
20
0.937000000000001
10
-32.908
20
0.931999999999999
10
-32.838
20
0.934000000000001
10
-32.769
20
0.940999999999999
10
-32.7
20
0.954999999999998
10
-32.633
20
0.974
10
-32.625
20
0.977
10
-32.56
20
1.003
10
-32.498
20
1.035
10
-32.439
20
1.071
10
-32.383
20
1.113
10
-32.331
20
1.16
10
-32.283
20
1.211
10
-32.24
20
1.266
10
-32.202
20
1.324
10
-32.169
20
1.386
10
-32.141
20
1.45
10
-32.12
20
1.516
10
-32.104
20
1.584
10
-32.094
20
1.653
10
-32.09
20
1.723
10
-32.09
20
1.732
10
-32.093
20
1.802
10
-32.102
20
1.871
10
-32.117
20
1.939
10
-32.138
20
2.006
10
-32.165
20
2.07
10
-32.197
20
2.132
10
-32.234
20
2.191
10
-32.277
20
2.246
10
-32.324
20
2.298
10
-32.375
20
2.345
10
-32.431
20
2.387
10
-32.489
20
2.425
10
-32.551
20
2.457
10
-32.616
20
2.484
10
-32.625
20
2.487
10
-32.692
20
2.507
10
-32.76
20
2.522
10
-32.829
20
2.53
10
-32.899
20
2.532
10
-32.968
20
2.528
10
-33.037
20
2.518
10
-33.105
20
2.502
10
-33.172
20
2.481
10
-33.236
20
2.453
10
-33.297
20
2.42
10
-33.356
20
2.382
10
-33.41
20
2.339
10
-33.461
20
2.291
10
-33.508
20
2.24
10
-33.514
20
2.232
10
-35.619
20
2.232
10
-36.251
20
1.815
10
-39.051
20
1.815
10
-39.251
20
1.758
42
0.999999976527177
10
-42.361
20
1.758
10
-42.594
20
1.758
10
-42.794
20
1.958
10
-42.994
20
1.758
10
-43.194
20
1.958
10
-43.394
20
1.758
10
-43.594
20
1.958
10
-43.794
20
1.758
10
-43.994
20
1.958
10
-44.194
20
1.758
10
-44.394
20
1.958
10
-44.594
20
1.758
10
-44.794
20
1.958
10
-44.994
20
1.758
10
-45.194
20
1.958
10
-45.394
20
1.758
10
-45.594
20
1.958
10
-45.794
20
1.758
10
-45.994
20
1.958
10
-46.194
20
1.758
10
-46.394
20
1.958
10
-46.594
20
1.758
10
-46.794
20
1.958
10
-46.994
20
1.758
10
-47.194
20
1.958
10
-47.394
20
1.758
10
-47.594
20
1.958
10
-47.794
20
1.758
10
-47.994
20
1.958
10
-48.194
20
1.758
10
-48.394
20
1.958
10
-48.594
20
1.758
10
-48.794
20
1.958
10
-48.994
20
1.758
10
-49.194
20
1.958
10
-49.394
20
1.758
10
-49.594
20
1.958
10
-49.794
20
1.758
10
-49.994
20
1.958
10
-50.194
20
1.758
10
-50.394
20
1.958
10
-50.594
20
1.758
10
-50.794
20
1.958
10
-50.994
20
1.758
10
-51.194
20
1.958
10
-51.394
20
1.758
10
-51.594
20
1.958
10
-51.794
20
1.758
10
-52.607
20
2.236
10
-53.607
20
2.236
10
-53.607
20
2.4
10
-53.607
20
6.1265
10
-53.607
20
6.236
10
-53.554
20
6.282
10
-53.506
20
6.332
10
-53.462
20
6.387
10
-53.423
20
6.445
10
-53.39
20
6.506
10
-53.362
20
6.57
10
-53.339
20
6.636
10
-53.322
20
6.704
10
-53.312
20
6.773
10
-53.307
20
6.842
10
-53.308
20
6.912
10
-53.316
20
6.981
10
-53.329
20
7.05
10
-53.349
20
7.117
10
-53.352
20
7.126
10
-53.378
20
7.191
10
-53.409
20
7.253
10
-53.446
20
7.312
10
-53.488
20
7.368
10
-53.534
20
7.42
10
-53.585
20
7.468
10
-53.64
20
7.511
10
-53.699
20
7.549
10
-53.76
20
7.582
10
-53.824
20
7.609
10
-53.89
20
7.631
10
-53.958
20
7.647
10
-54.027
20
7.657
10
-54.097
20
7.661
10
-54.107
20
7.661
10
-54.177
20
7.658
10
-54.246
20
7.649
10
-54.314
20
7.634
10
-54.381
20
7.613
10
-54.445
20
7.586
10
-54.507
20
7.554
10
-54.566
20
7.516
10
-54.621
20
7.474
10
-54.673
20
7.427
10
-54.72
20
7.375
10
-54.762
20
7.32
10
-54.8
20
7.261
10
-54.832
20
7.199
10
-54.859
20
7.135
10
-54.862
20
7.126
10
-54.882
20
7.059
10
-54.897
20
6.991
10
-54.905
20
6.921
10
-54.907
20
6.851
10
-54.903
20
6.782
10
-54.893
20
6.713
10
-54.877
20
6.644
10
-54.855
20
6.578
10
-54.828
20
6.514
10
-54.795
20
6.452
10
-54.757
20
6.394
10
-54.713
20
6.339
10
-54.666
20
6.288
10
-54.614
20
6.241
10
-54.607
20
6.236
10
-54.607
20
6.1265
10
-54.607
20
2.4
10
-54.607
20
2.236
10
-54.8
20
2.236
10
-58.146
20
2.236
10
-58.606
20
2.236
10
-58.652
20
2.289
10
-58.702
20
2.337
10
-58.757
20
2.381
10
-58.815
20
2.42
10
-58.876
20
2.453
10
-58.94
20
2.481
10
-59.006
20
2.504
10
-59.074
20
2.521
10
-59.143
20
2.531
10
-59.212
20
2.536
10
-59.282
20
2.535
10
-59.351
20
2.527
10
-59.42
20
2.514
10
-59.487
20
2.494
10
-59.496
20
2.491
10
-59.561
20
2.465
10
-59.623
20
2.434
10
-59.682
20
2.397
10
-59.738
20
2.355
10
-59.79
20
2.308
10
-59.838
20
2.257
10
-59.881
20
2.202
10
-59.919
20
2.144
10
-59.952
20
2.082
10
-59.98
20
2.018
10
-60.001
20
1.952
10
-60.017
20
1.884
10
-60.027
20
1.815
10
-60.031
20
1.745
  0
ENDSEC
  0
SECTION
  2
OBJECTS
  0
DICTIONARY
  5
19
100
AcDbDictionary
  3
ACAD_GROUP
350
1A
  3
ACAD_MLINESTYLE
350
1B
  0
DICTIONARY
  5
1A
102
{ACAD_REACTORS
330
19
102
}
100
AcDbDictionary
  0
DICTIONARY
  5
1B
102
{ACAD_REACTORS
330
19
102
}
100
AcDbDictionary
  3
STANDARD
350
1C
  0
MLINESTYLE
  5
1C
102
{ACAD_REACTORS
330
1B
102
}
100
AcDbMlineStyle
  2
STANDARD
 70
         0
  3

 62
         0
 51
90.0
 52
90.0
 71
         2
 49
0.5
 62
       256
  6
BYLAYER
 49
-0.5
 62
       256
  6
BYLAYER
  0
ENDSEC
  0
EOF
