<svg width="832" height="720" xmlns="http://www.w3.org/2000/svg" xmlns:xlink="http://www.w3.org/1999/xlink" overflow="hidden"><defs><clipPath id="clip0"><rect x="0" y="0" width="832" height="720"/></clipPath><linearGradient x1="513" y1="485.708" x2="93" y2="485.708" gradientUnits="userSpaceOnUse" spreadMethod="reflect" id="fill1"><stop offset="0" stop-color="#FBE3D6"/><stop offset="0.26" stop-color="#F6C6AD"/><stop offset="0.51" stop-color="#F2AA84"/><stop offset="1" stop-color="#C04F15"/></linearGradient></defs><g clip-path="url(#clip0)"><rect x="0" y="0" width="832" height="719.567" fill="#FFFFFF"/><path d="M355.5 270.837C343.074 270.837 333 260.993 333 248.85 333 236.707 343.074 226.864 355.5 226.864 367.926 226.864 378 236.707 378 248.85 378 260.993 367.926 270.837 355.5 270.837Z" stroke="#000000" stroke-width="2" stroke-miterlimit="8" fill="none" fill-rule="evenodd"/><text font-family="Cambria Math,Cambria Math_MSFontService,sans-serif" font-weight="400" font-size="24" transform="matrix(1 0 0 0.999399 347.447 255)">+</text><path d="M16.8326 232.328 16.8326 171.729 147.1 171.729 147.1 174.063 18 174.063 19.1673 172.896 19.1673 232.328ZM145.766 166.229 159.108 172.896 145.766 179.563Z" fill="#156082"/><path d="M12-1.33333 193.63-1.33323 193.63 1.33344 12 1.33334ZM13.3333 6.66667 0 0 13.3333-6.66666Z" fill="#156082" transform="matrix(-1.0006 0 0 1 572.246 249.35)"/><path d="M588.834 315.81C579.537 315.81 572 308.278 572 298.987L572 198.714C572 189.423 579.537 181.891 588.834 181.891L656.166 181.891C665.463 181.891 673 189.423 673 198.714L673 298.987C673 308.278 665.463 315.81 656.166 315.81Z" stroke="#042433" stroke-width="2" stroke-miterlimit="8" fill="none" fill-rule="evenodd"/><path d="M1.33335 12 1.33344 80.3312-1.33323 80.3312-1.33332 12ZM-6.66665 13.3333 0 0 6.66668 13.3333Z" fill="#156082" transform="matrix(-6.12692e-17 -1 -1.0006 6.12323e-17 658.879 248.351)"/><path d="M12-1.33332 107.183-1.33323 107.183 1.33344 12 1.33335ZM13.3333 6.66668 0 0 13.3333-6.66665Z" fill="#156082" transform="matrix(1.83807e-16 1 1.0006 -1.83697e-16 622.5 189.386)"/><path d="M581.5 277.282C590.088 277.428 598.675 277.575 605.747 272.899 612.82 268.223 618.449 256.607 623.933 249.228 629.417 241.849 631.727 232.936 638.655 228.626 645.582 224.315 655.541 223.84 665.5 223.366" stroke="#042433" stroke-width="3.0018" stroke-miterlimit="8" fill="none" fill-rule="evenodd"/><path d="M737.362 251.31 673.487 250.683 673.513 248.017 737.388 248.644ZM736.106 243.298 749.381 250.095 735.975 256.63Z" fill="#156082"/><text font-family="Cambria Math,Cambria Math_MSFontService,sans-serif" font-weight="400" font-size="26.6667" transform="matrix(1 0 0 0.999399 706.196 228)">𝑧</text><text font-family="Cambria Math,Cambria Math_MSFontService,sans-serif" font-weight="400" font-size="26.6667" transform="matrix(1 0 0 0.999399 726.902 228)">=</text><text font-family="Cambria Math,Cambria Math_MSFontService,sans-serif" font-weight="400" font-size="26.6667" transform="matrix(1 0 0 0.999399 754.325 228)">𝜎</text><text font-family="Cambria Math,Cambria Math_MSFontService,sans-serif" font-weight="400" font-size="26.6667" transform="matrix(1 0 0 0.999399 770.655 228)">(</text><text font-family="Cambria Math,Cambria Math_MSFontService,sans-serif" font-weight="400" font-size="26.6667" transform="matrix(1 0 0 0.999399 781.662 228)">𝑦</text><text font-family="Cambria Math,Cambria Math_MSFontService,sans-serif" font-weight="400" font-size="26.6667" transform="matrix(1 0 0 0.999399 797.124 228)">)</text><text font-family="Aptos,Aptos_MSFontService,sans-serif" font-weight="400" font-size="24" transform="matrix(1 0 0 0.999399 569.838 136)">Activation</text><text font-family="Aptos,Aptos_MSFontService,sans-serif" font-weight="400" font-size="24" transform="matrix(1 0 0 0.999399 575.842 165)">Function</text><text font-family="Cambria Math,Cambria Math_MSFontService,sans-serif" font-weight="400" font-size="24" transform="matrix(1 0 0 0.999399 373.709 195)">𝑦</text><text font-family="Cambria Math,Cambria Math_MSFontService,sans-serif" font-weight="400" font-size="24" transform="matrix(1 0 0 0.999399 394.302 195)">=</text><path d="M5.47266-28.2305 19.4531-9.24609 19.4531-7.82812 4.35938 12.6562 24.6914 12.6562C25.5898 12.6562 26.2773 12.3398 26.7539 11.707 27.2305 11.0742 27.6406 9.66016 27.9844 7.46484L29.7188 7.46484 29.1211 16.0547 0.304688 16.0547 0.304688 14.8945 16.7227-7.35938 0.785156-28.6523 0.785156-29.7656 29.0859-29.7656 29.0859-22.8281 27.5391-22.8281C27.3594-24.4922 26.9961-25.8086 26.4492-26.7773 25.9023-27.7461 25.0742-28.2305 23.9648-28.2305Z" transform="matrix(1 0 0 0.999399 418.983 195)"/><text fill="#000000" fill-opacity="0" font-family="Arial,Arial_MSFontService,sans-serif" font-size="45.8203" x="0.304688" y="10.3271">෍</text><text font-family="Cambria Math,Cambria Math_MSFontService,sans-serif" font-weight="400" font-size="24" transform="matrix(1 0 0 0.999399 454.818 195)">𝜔</text><text font-family="Cambria Math,Cambria Math_MSFontService,sans-serif" font-weight="400" font-size="17.52" transform="matrix(1 0 0 0.999399 472.162 200)">𝑖</text><text font-family="Cambria Math,Cambria Math_MSFontService,sans-serif" font-weight="400" font-size="24" transform="matrix(1 0 0 0.999399 479.927 195)">𝑥</text><text font-family="Cambria Math,Cambria Math_MSFontService,sans-serif" font-weight="400" font-size="17.52" transform="matrix(1 0 0 0.999399 492.534 200)">𝑛</text><text font-family="Cambria Math,Cambria Math_MSFontService,sans-serif" font-weight="400" font-size="17.52" transform="matrix(1 0 0 0.999399 503.874 200)">-</text><text font-family="Cambria Math,Cambria Math_MSFontService,sans-serif" font-weight="400" font-size="17.52" transform="matrix(1 0 0 0.999399 509.711 200)">𝑖</text><text font-family="Cambria Math,Cambria Math_MSFontService,sans-serif" font-weight="400" font-size="17.52" transform="matrix(1 0 0 0.999399 431.511 226)">𝑖</text><rect x="76" y="138.916" width="38" height="31.9808" fill="#FFFFFF"/><text font-family="Cambria Math,Cambria Math_MSFontService,sans-serif" font-weight="400" font-size="26.6667" transform="matrix(1 0 0 0.999399 78.8416 164)">𝜔</text><text font-family="Cambria Math,Cambria Math_MSFontService,sans-serif" font-weight="400" font-size="19.4667" transform="matrix(1 0 0 0.999399 98.1865 169)">2</text><rect x="83" y="215.87" width="37" height="31.9807" fill="#FFFFFF"/><text font-family="Cambria Math,Cambria Math_MSFontService,sans-serif" font-weight="400" font-size="26.6667" transform="matrix(1 0 0 0.999399 86.256 241)">𝜔</text><text font-family="Cambria Math,Cambria Math_MSFontService,sans-serif" font-weight="400" font-size="19.4667" transform="matrix(1 0 0 0.999399 104.981 246)">1</text><rect x="80" y="58.9645" width="38.0001" height="32.9802" fill="#FFFFFF"/><text font-family="Cambria Math,Cambria Math_MSFontService,sans-serif" font-weight="400" font-size="26.6667" transform="matrix(1 0 0 0.999399 83.2039 84)">𝜔</text><text font-family="Cambria Math,Cambria Math_MSFontService,sans-serif" font-weight="400" font-size="19.4667" transform="matrix(1 0 0 0.999399 102.549 90)">3</text><rect x="0.999971" y="232.86" width="34.0001" height="31.9808" fill="#FFFFFF"/><text font-family="Cambria Math,Cambria Math_MSFontService,sans-serif" font-weight="400" font-size="26.6667" transform="matrix(1 0 0 0.999399 3.55689 258)">𝑥</text><text font-family="Cambria Math,Cambria Math_MSFontService,sans-serif" font-weight="400" font-size="19.4667" transform="matrix(1 0 0 0.999399 17.4719 263)">𝑛</text><path d="M58.5 82.6796C58.5 66.5464 71.5864 53.4678 87.7293 53.4678L506.271 53.4678C522.414 53.4678 535.5 66.5464 535.5 82.6796L535.5 272.107C535.5 288.24 522.414 301.319 506.271 301.319L87.7293 301.319C71.5864 301.319 58.5 288.24 58.5 272.107Z" stroke="#000000" stroke-width="2.66827" stroke-miterlimit="8" stroke-dasharray="10.6731 8.00481" fill="none" fill-rule="evenodd"/><path d="M521.5 351.289C521.5 360.672 506.292 368.279 487.531 368.279L336.468 368.279C317.708 368.279 302.5 375.885 302.5 385.268 302.5 375.885 287.292 368.279 268.531 368.279L117.468 368.279C98.7082 368.279 83.5 360.672 83.5 351.289" stroke="#156082" stroke-width="3" stroke-miterlimit="8" fill="none" fill-rule="evenodd"/><g><g><g><path d="M78.1878 98.8156 64.7007 67.9839 64.7007 46.4492C64.6967 44.8885 65.3173 43.3911 66.4241 42.2907L69.0615 39.6521C69.5209 39.1926 69.5208 38.4478 69.0613 37.9885 68.8407 37.768 68.5416 37.6441 68.2298 37.644L44.7023 37.644C44.0526 37.6441 43.526 38.1709 43.5261 38.8206 43.5263 39.1325 43.6501 39.4315 43.8706 39.6521L46.508 42.2907C47.6147 43.3911 48.2354 44.8885 48.2314 46.4492L48.2314 67.9839 34.7443 98.8156C33.4448 101.793 34.8051 105.26 37.7824 106.559 38.5238 106.883 39.3241 107.05 40.1332 107.05L72.7988 107.05C76.0473 107.049 78.6799 104.415 78.6788 101.166 78.6786 100.357 78.5114 99.557 78.1878 98.8156ZM48.1714 40.6273 47.562 40.0168C47.5515 40.0062 47.555 39.9968 47.5703 39.9968L65.3618 39.9968C65.3771 39.9968 65.3806 40.0062 65.37 40.0168L64.7595 40.6273C63.2155 42.1714 62.348 44.2656 62.3479 46.4492L62.3479 52.9369 50.5842 52.9369 50.5842 46.4551C50.584 44.2695 49.7162 42.1733 48.1714 40.6273ZM75.7586 103.1C75.1125 104.106 73.9946 104.71 72.7988 104.697L40.1332 104.697C38.1841 104.697 36.6043 103.117 36.6047 101.168 36.6048 100.682 36.7052 100.202 36.8994 99.7567L50.4853 68.7003C50.5506 68.5521 50.5843 68.3918 50.5842 68.2298L50.5842 55.2897 62.3479 55.2897 62.3479 68.2298C62.3478 68.3918 62.3814 68.5521 62.4467 68.7003L76.0327 99.7567C76.5207 100.844 76.4173 102.106 75.7586 103.1Z" fill="#3B7D23" transform="matrix(1.00946 0 0 1 570 412.752)"/><path d="M58.8188 11.7638C60.7679 11.7638 62.3479 10.1837 62.3479 8.23463 62.3479 6.28555 60.7679 4.7055 58.8188 4.7055 56.8697 4.7055 55.2897 6.28555 55.2897 8.23463 55.2897 10.1837 56.8697 11.7638 58.8188 11.7638ZM58.8188 7.05825C59.4685 7.05825 59.9952 7.58494 59.9952 8.23463 59.9952 8.88432 59.4685 9.41101 58.8188 9.41101 58.1691 9.41101 57.6424 8.88432 57.6424 8.23463 57.6424 7.58494 58.1691 7.05825 58.8188 7.05825Z" fill="#3B7D23" transform="matrix(1.00946 0 0 1 570 412.752)"/><path d="M61.1715 18.822C61.1715 20.7711 62.7515 22.3511 64.7007 22.3511 66.6498 22.3511 68.2298 20.7711 68.2298 18.822 68.2298 16.8729 66.6498 15.2929 64.7007 15.2929 62.7515 15.2929 61.1715 16.8729 61.1715 18.822ZM64.7007 17.6456C65.3504 17.6456 65.877 18.1723 65.877 18.822 65.877 19.4717 65.3504 19.9984 64.7007 19.9984 64.051 19.9984 63.5243 19.4717 63.5243 18.822 63.5243 18.1723 64.051 17.6456 64.7007 17.6456Z" fill="#3B7D23" transform="matrix(1.00946 0 0 1 570 412.752)"/><path d="M51.7605 19.9984C53.7097 19.9984 55.2897 18.4184 55.2897 16.4693 55.2897 14.5201 53.7097 12.9401 51.7605 12.9401 49.8114 12.9401 48.2314 14.5201 48.2314 16.4693 48.2314 18.4184 49.8114 19.9984 51.7605 19.9984ZM51.7605 15.2929C52.4102 15.2929 52.9369 15.8195 52.9369 16.4693 52.9369 17.119 52.4102 17.6456 51.7605 17.6456 51.1108 17.6456 50.5842 17.119 50.5842 16.4693 50.5842 15.8195 51.1108 15.2929 51.7605 15.2929Z" fill="#3B7D23" transform="matrix(1.00946 0 0 1 570 412.752)"/><path d="M49.4078 29.4094C49.4078 32.0081 51.5146 34.1149 54.1133 34.1149 56.712 34.1149 58.8188 32.0081 58.8188 29.4094 58.8188 26.8107 56.712 24.7039 54.1133 24.7039 51.5146 24.7039 49.4078 26.8107 49.4078 29.4094ZM56.466 29.4094C56.466 30.7088 55.4127 31.7621 54.1133 31.7621 52.8139 31.7621 51.7605 30.7088 51.7605 29.4094 51.7605 28.11 52.8139 27.0566 54.1133 27.0566 55.4127 27.0566 56.466 28.11 56.466 29.4094Z" fill="#3B7D23" transform="matrix(1.00946 0 0 1 570 412.752)"/></g></g></g><path d="M703.5 352.288C703.5 360.016 690.975 366.28 675.526 366.28L653.974 366.28C638.525 366.28 626 372.544 626 380.272 626 372.544 613.475 366.28 598.026 366.28L576.474 366.28C561.025 366.28 548.5 360.016 548.5 352.288" stroke="#156082" stroke-width="3" stroke-miterlimit="8" fill="none" fill-rule="evenodd"/><text font-family="Aptos,Aptos_MSFontService,sans-serif" font-weight="400" font-size="26.6667" transform="matrix(1 0 0 0.999399 708.586 468)">Chemical</text><text font-family="Aptos,Aptos_MSFontService,sans-serif" font-weight="400" font-size="26.6667" transform="matrix(1 0 0 0.999399 712.848 500)">Reaction</text><text font-family="Aptos,Aptos_MSFontService,sans-serif" font-weight="400" font-size="32" transform="matrix(1 0 0 0.999399 229.169 35)">1D CNN</text><path d="M808.5 549.17C808.5 555.241 798.66 560.164 786.521 560.164L464.479 560.164C452.341 560.164 442.5 565.086 442.5 571.157 442.5 565.086 432.66 560.164 420.521 560.164L98.4793 560.164C86.3406 560.164 76.5001 555.241 76.5001 549.17" stroke="#156082" stroke-width="3" stroke-miterlimit="8" fill="none" fill-rule="evenodd"/><text font-family="Aptos,Aptos_MSFontService,sans-serif" font-weight="400" font-size="24" transform="matrix(1 0 0 0.999399 154.911 415)">Transport of Diluted Species</text><text font-family="Aptos,Aptos_MSFontService,sans-serif" font-weight="400" font-size="24" transform="matrix(1 0 0 0.999399 622.242 639)">Microfluidic Circuit</text><path d="M35 247.85 321.22 247.85 321.22 249.85 35 249.85ZM319.886 242.184 333.227 248.85 319.886 255.517Z" fill="#156082"/><path d="M159 158.405C159 154.265 162.358 150.909 166.5 150.909L226.5 150.909C230.642 150.909 234 154.265 234 158.405L234 188.387C234 192.526 230.642 195.882 226.5 195.882L166.5 195.882C162.358 195.882 159 192.526 159 188.387Z" stroke="#042433" stroke-width="2.0012" stroke-miterlimit="8" fill="none" fill-rule="evenodd"/><text font-family="Cambria Math,Cambria Math_MSFontService,sans-serif" font-weight="400" font-size="24" transform="matrix(1 0 0 0.999399 178.865 181)">𝑧</text><text font-family="Cambria Math,Cambria Math_MSFontService,sans-serif" font-weight="400" font-size="17.52" transform="matrix(1 0 0 0.999399 191.713 172)">-</text><text font-family="Cambria Math,Cambria Math_MSFontService,sans-serif" font-weight="400" font-size="17.52" transform="matrix(1 0 0 0.999399 197.55 172)">1</text><path d="M157 80.4518C157 76.312 160.358 72.9561 164.5 72.9561L224.5 72.9561C228.642 72.9561 232 76.312 232 80.4518L232 110.433C232 114.573 228.642 117.929 224.5 117.929L164.5 117.929C160.358 117.929 157 114.573 157 110.433Z" stroke="#042433" stroke-width="2.0012" stroke-miterlimit="8" fill="none" fill-rule="evenodd"/><text font-family="Cambria Math,Cambria Math_MSFontService,sans-serif" font-weight="400" font-size="24" transform="matrix(1 0 0 0.999399 177.248 103)">𝑧</text><text font-family="Cambria Math,Cambria Math_MSFontService,sans-serif" font-weight="400" font-size="17.52" transform="matrix(1 0 0 0.999399 190.096 94)">-</text><text font-family="Cambria Math,Cambria Math_MSFontService,sans-serif" font-weight="400" font-size="17.52" transform="matrix(1 0 0 0.999399 195.933 94)">2</text><path d="M234 171.729 330.229 171.729 331.151 227.415 328.816 227.453 327.913 172.915 329.081 174.063 234 174.063ZM333.991 221.94 338.11 236.268 324.17 230.964Z" fill="#156082"/><path d="M232 93.7762 356.396 93.7762 356.396 214.438 354.061 214.438 354.061 94.9429 355.229 96.1096 232 96.1096ZM361.899 213.105 355.229 226.438 348.558 213.105Z" fill="#156082"/><path d="M16.8326 232.394 16.8326 93.7762 145.483 93.7762 145.483 96.1096 18 96.1096 19.1674 94.9429 19.1674 232.394ZM144.149 88.2762 157.491 94.9429 144.149 101.61Z" fill="#156082"/><rect x="256" y="75.9543" width="51" height="31.9808" fill="#FFFFFF"/><text font-family="Cambria Math,Cambria Math_MSFontService,sans-serif" font-weight="400" font-size="26.6667" transform="matrix(1 0 0 0.999399 258.689 101)">𝑥</text><text font-family="Cambria Math,Cambria Math_MSFontService,sans-serif" font-weight="400" font-size="19.4667" transform="matrix(1 0 0 0.999399 272.604 106)">𝑛</text><text font-family="Cambria Math,Cambria Math_MSFontService,sans-serif" font-weight="400" font-size="19.4667" transform="matrix(1 0 0 0.999399 285.278 106)">-</text><text font-family="Cambria Math,Cambria Math_MSFontService,sans-serif" font-weight="400" font-size="19.4667" transform="matrix(1 0 0 0.999399 291.782 106)">2</text><rect x="253" y="155.906" width="51" height="32.9802" fill="#FFFFFF"/><text font-family="Cambria Math,Cambria Math_MSFontService,sans-serif" font-weight="400" font-size="26.6667" transform="matrix(1 0 0 0.999399 255.91 181)">𝑥</text><text font-family="Cambria Math,Cambria Math_MSFontService,sans-serif" font-weight="400" font-size="19.4667" transform="matrix(1 0 0 0.999399 269.825 187)">𝑛</text><text font-family="Cambria Math,Cambria Math_MSFontService,sans-serif" font-weight="400" font-size="19.4667" transform="matrix(1 0 0 0.999399 282.499 187)">-</text><text font-family="Cambria Math,Cambria Math_MSFontService,sans-serif" font-weight="400" font-size="19.4667" transform="matrix(1 0 0 0.999399 289.003 187)">1</text><rect x="0" y="76.507" width="254.18" height="3.4519" fill="#FBE3D6" fill-opacity="0.258824" transform="matrix(-0.973122 0.232607 0.232747 0.972537 577.848 577.596)"/><path d="M254.18 76.507 330.687 0 330.687 3.4519 254.18 79.9589Z" fill="#CAB6AC" fill-rule="evenodd" fill-opacity="0.258824" transform="matrix(-0.973122 0.232607 0.232747 0.972537 577.848 577.596)"/><path d="M0 76.507 76.5069 0 330.687 0 254.18 76.507Z" fill="#FCE8DE" fill-rule="evenodd" fill-opacity="0.258824" transform="matrix(-0.973122 0.232607 0.232747 0.972537 577.848 577.596)"/><path d="M0 76.507 76.5069 0 330.687 0 330.687 3.4519 254.18 79.9589 0 79.9589ZM0 76.507 254.18 76.507 330.687 0M254.18 76.507 254.18 79.9589" stroke="#C04F15" stroke-width="2.00007" stroke-miterlimit="8" fill="none" fill-rule="evenodd" transform="matrix(-0.973122 0.232607 0.232747 0.972537 577.848 577.596)"/><path d="M0 0 41.2997 9.08882" stroke="#000000" stroke-width="2" stroke-miterlimit="8" fill="none" fill-rule="evenodd" transform="matrix(1.0006 0 0 -1 462 651.702)"/><path d="M0 0 41.2997 9.08882" stroke="#000000" stroke-width="2" stroke-miterlimit="8" fill="none" fill-rule="evenodd" transform="matrix(1.0006 0 0 -1 460 647.705)"/><path d="M0 0 33.1033 8.44924" stroke="#000000" stroke-width="2" stroke-miterlimit="8" fill="none" fill-rule="evenodd" transform="matrix(1.0006 0 0 -1 368 673.05)"/><path d="M0 0 31.79 7.79758" stroke="#000000" stroke-width="2" stroke-miterlimit="8" fill="none" fill-rule="evenodd" transform="matrix(1.0006 0 0 -1 370 676.396)"/><path d="M0 0C1.96974 0 3.93948 9.35224 3.93948 18.7045 3.93948 28.0567 5.90922 37.409 7.87895 37.409" stroke="#000000" stroke-width="2.00009" stroke-miterlimit="8" fill="none" fill-rule="evenodd" transform="matrix(0.96166 -0.276097 -0.276263 -0.961082 402.038 668.589)"/><path d="M0 0C0.942792 0 1.88558 9.35224 1.88558 18.7045 1.88558 28.0567 4.88227 37.409 7.87895 37.409" stroke="#000000" stroke-width="2.00009" stroke-miterlimit="8" fill="none" fill-rule="evenodd" transform="matrix(0.96166 -0.276097 -0.276263 -0.961082 400.84 664.422)"/><path d="M417.125 664.313C415.231 664.856 410.753 656.412 408.169 647.424 405.586 638.435 401.108 629.991 399.214 630.535" stroke="#000000" stroke-width="2.00111" stroke-miterlimit="8" fill="none" fill-rule="evenodd"/><path d="M415.927 660.145C415.021 660.405 411.53 651.677 408.947 642.689 406.363 633.701 400.897 625.54 398.016 626.367" stroke="#000000" stroke-width="2.00111" stroke-miterlimit="8" fill="none" fill-rule="evenodd"/><path d="M0 0C1.96974 0 3.93948 9.35224 3.93948 18.7045 3.93948 28.0567 5.90922 37.409 7.87895 37.409" stroke="#000000" stroke-width="2.00009" stroke-miterlimit="8" fill="none" fill-rule="evenodd" transform="matrix(0.96166 -0.276097 -0.276263 -0.961082 417.111 664.262)"/><path d="M0 0C0.942792 0 1.88558 9.35224 1.88558 18.7045 1.88558 28.0567 4.88227 37.409 7.87895 37.409" stroke="#000000" stroke-width="2.00009" stroke-miterlimit="8" fill="none" fill-rule="evenodd" transform="matrix(0.96166 -0.276097 -0.276263 -0.961082 415.912 660.095)"/><path d="M432.197 659.985C430.303 660.529 425.825 652.085 423.242 643.096 420.658 634.108 416.18 625.664 414.286 626.208" stroke="#000000" stroke-width="2.00111" stroke-miterlimit="8" fill="none" fill-rule="evenodd"/><path d="M430.999 655.818C430.093 656.078 426.603 647.35 424.019 638.362 421.435 629.373 415.97 621.213 413.088 622.04" stroke="#000000" stroke-width="2.00111" stroke-miterlimit="8" fill="none" fill-rule="evenodd"/><path d="M0 0C1.96974 0 3.93948 9.35224 3.93948 18.7045 3.93948 28.0567 5.90922 37.409 7.87895 37.409" stroke="#000000" stroke-width="2.00009" stroke-miterlimit="8" fill="none" fill-rule="evenodd" transform="matrix(0.96166 -0.276097 -0.276263 -0.961082 432.183 659.935)"/><path d="M0 0C0.942792 0 1.88558 9.35224 1.88558 18.7045 1.88558 28.0567 4.88227 37.409 7.87895 37.409" stroke="#000000" stroke-width="2.00009" stroke-miterlimit="8" fill="none" fill-rule="evenodd" transform="matrix(0.96166 -0.276097 -0.276263 -0.961082 430.985 655.767)"/><path d="M447.27 655.658C445.375 656.202 440.897 647.757 438.314 638.769 435.73 629.781 431.252 621.336 429.358 621.88" stroke="#000000" stroke-width="2.00111" stroke-miterlimit="8" fill="none" fill-rule="evenodd"/><path d="M446.072 651.49C445.165 651.751 441.675 643.023 439.091 634.034 436.507 625.046 431.042 616.885 428.16 617.713" stroke="#000000" stroke-width="2.00111" stroke-miterlimit="8" fill="none" fill-rule="evenodd"/><path d="M0 0C1.96974 0 3.93948 9.35224 3.93948 18.7045 3.93948 28.0567 5.90922 37.409 7.87895 37.409" stroke="#000000" stroke-width="2.00009" stroke-miterlimit="8" fill="none" fill-rule="evenodd" transform="matrix(0.96166 -0.276097 -0.276263 -0.961082 447.159 655.581)"/><path d="M0 0C0.942792 0 1.88558 9.35224 1.88558 18.7045 1.88558 28.0567 4.88227 37.409 7.87895 37.409" stroke="#000000" stroke-width="2.00009" stroke-miterlimit="8" fill="none" fill-rule="evenodd" transform="matrix(0.96166 -0.276097 -0.276263 -0.961082 445.961 651.413)"/><path d="M461.894 651.404C460 651.948 455.522 643.504 452.939 634.516 450.355 625.527 445.877 617.083 443.983 617.627" stroke="#000000" stroke-width="2.00111" stroke-miterlimit="8" fill="none" fill-rule="evenodd"/><path d="M460.696 647.237C459.79 647.497 456.299 638.769 453.716 629.781 451.132 620.793 445.667 612.632 442.785 613.459" stroke="#000000" stroke-width="2.00111" stroke-miterlimit="8" fill="none" fill-rule="evenodd"/><path d="M330 676.093C330 672.506 339.178 669.597 350.5 669.597 361.822 669.597 371 672.506 371 676.093 371 679.681 361.822 682.589 350.5 682.589 339.178 682.589 330 679.681 330 676.093Z" stroke="#A6A6A6" stroke-width="2.0012" stroke-miterlimit="8" fill="none" fill-rule="evenodd"/><path d="M371 650.942C371 654.438 361.822 657.271 350.5 657.271 339.178 657.271 330 654.438 330 650.942" stroke="#042433" stroke-width="2.0012" stroke-miterlimit="8" fill="none" fill-rule="evenodd"/><path d="M330 650.942C330 647.446 339.178 644.612 350.5 644.612 361.822 644.612 371 647.446 371 650.942L371 676.26C371 679.756 361.822 682.589 350.5 682.589 339.178 682.589 330 679.756 330 676.26Z" stroke="#042433" stroke-width="2.0012" stroke-miterlimit="8" fill="none" fill-rule="evenodd"/><path d="M501 639.615C501 636.304 509.954 633.619 521 633.619 532.046 633.619 541 636.304 541 639.615 541 642.927 532.046 645.612 521 645.612 509.954 645.612 501 642.927 501 639.615Z" stroke="#A6A6A6" stroke-width="2.0012" stroke-miterlimit="8" fill="none" fill-rule="evenodd"/><path d="M541 615.63C541 618.941 532.046 621.626 521 621.626 509.954 621.626 501 618.941 501 615.63" stroke="#042433" stroke-width="2.0012" stroke-miterlimit="8" fill="none" fill-rule="evenodd"/><path d="M501 615.63C501 612.318 509.954 609.633 521 609.633 532.046 609.633 541 612.318 541 615.63L541 639.615C541 642.927 532.046 645.612 521 645.612 509.954 645.612 501 642.927 501 639.615Z" stroke="#042433" stroke-width="2.0012" stroke-miterlimit="8" fill="none" fill-rule="evenodd"/><path d="M0 0 0.336903 20.9217" stroke="#E97132" stroke-width="2" stroke-miterlimit="8" fill="none" fill-rule="evenodd" transform="matrix(1.0006 0 0 -1 503 595.576)"/><path d="M0 0 0.40147 18.717" stroke="#E97132" stroke-width="2" stroke-miterlimit="8" fill="none" fill-rule="evenodd" transform="matrix(1.0006 0 0 -1 596 653.335)"/><path d="M0 0 0.823937 19.482" stroke="#E97132" stroke-width="2" stroke-miterlimit="8" fill="none" fill-rule="evenodd" transform="matrix(1.0006 0 0 -1 348 711.066)"/><path d="M0 0 0.200735 21.5468" stroke="#E97132" stroke-width="2" stroke-miterlimit="8" fill="none" fill-rule="evenodd" transform="matrix(1.0006 0 0 -1 256 655.166)"/><path d="M0 0 248.081 57.4589" stroke="#E97132" stroke-width="2" stroke-miterlimit="8" fill="none" fill-rule="evenodd" transform="matrix(1.0006 0 0 -1 348 693.077)"/><path d="M596.577 634.962 503 574.654" stroke="#E97132" stroke-width="2.0012" stroke-miterlimit="8" fill="none" fill-rule="evenodd"/><path d="M0 0 246.908 59.6942" stroke="#E97132" stroke-width="2" stroke-miterlimit="8" fill="none" fill-rule="evenodd" transform="matrix(-1.0006 0 0 1 503.057 574.654)"/><path d="M256 634.618 348.158 691.743" stroke="#E97132" stroke-width="2.0012" stroke-miterlimit="8" fill="none" fill-rule="evenodd"/><rect x="93" y="441.734" width="420" height="87.9471" fill="url(#fill1)"/><path d="M128.808 441.833C156.085 443.456 176.716 464.415 174.889 488.647 173.217 510.818 153.19 528.396 128.215 529.615" stroke="#000000" stroke-width="2.0012" stroke-miterlimit="8" stroke-dasharray="8.00481 6.00361" fill="none" fill-rule="evenodd"/><path d="M176 485.707 208.356 485.707 208.356 487.707 176 487.707ZM207.021 482.707 215.026 486.707 207.021 490.707Z"/><path d="M169 502.697 188.802 502.697 188.802 504.697 169 504.697ZM187.468 499.697 195.473 503.697 187.468 507.697Z"/><path d="M171 469.717 190.802 469.717 190.802 471.717 171 471.717ZM189.468 466.717 197.473 470.717 189.468 474.717Z"/><path d="M158 452.727 170.238 452.727 170.238 454.727 158 454.727ZM168.904 449.727 176.909 453.727 168.904 457.727Z"/><path d="M156 519.687 168.238 519.687 168.238 521.687 156 521.687ZM166.904 516.687 174.909 520.687 166.904 524.687Z"/><path d="M281.771 442.829C309.049 444.415 329.698 465.123 327.892 489.08 326.237 511.023 306.186 528.425 281.184 529.618" stroke="#000000" stroke-width="2.0012" stroke-miterlimit="8" stroke-dasharray="8.00481 6.00361" fill="none" fill-rule="evenodd"/><path d="M329 486.707 361.356 486.707 361.356 488.707 329 488.707ZM360.021 483.707 368.026 487.707 360.021 491.707Z"/><path d="M322 503.696 341.802 503.697 341.802 505.697 322 505.696ZM340.468 500.697 348.473 504.697 340.468 508.697Z"/><path d="M324 469.717 343.802 469.717 343.802 471.717 324 471.717ZM342.468 466.717 350.473 470.717 342.468 474.717Z"/><path d="M311 452.727 323.238 452.727 323.238 454.727 311 454.727ZM321.904 449.727 329.909 453.727 321.904 457.727Z"/><path d="M309 520.686 321.238 520.686 321.238 522.686 309 522.686ZM319.904 517.686 327.909 521.686 319.904 525.686Z"/><path d="M422.808 441.833C450.085 443.456 470.716 464.415 468.889 488.647 467.217 510.818 447.19 528.396 422.215 529.615" stroke="#000000" stroke-width="2.0012" stroke-miterlimit="8" stroke-dasharray="8.00481 6.00361" fill="none" fill-rule="evenodd"/><path d="M470 486.707 502.356 486.707 502.356 488.707 470 488.707ZM501.021 483.707 509.026 487.707 501.021 491.707Z"/><path d="M463 503.696 482.802 503.697 482.802 505.697 463 505.696ZM481.468 500.697 489.473 504.697 481.468 508.697Z"/><path d="M465 469.717 484.802 469.717 484.802 471.717 465 471.717ZM483.468 466.717 491.473 470.717 483.468 474.717Z"/><path d="M452 452.727 464.238 452.727 464.238 454.727 452 454.727ZM462.904 449.727 470.909 453.727 462.904 457.727Z"/><path d="M450 519.687 462.238 519.687 462.238 521.687 450 521.687ZM460.904 516.687 468.909 520.687 460.904 524.687Z"/><path d="M93 441.734 512.621 441.734" stroke="#80350E" stroke-width="2.0012" stroke-miterlimit="8" fill="none" fill-rule="evenodd"/><path d="M93 529.681 512.621 529.682" stroke="#80350E" stroke-width="2.0012" stroke-miterlimit="8" fill="none" fill-rule="evenodd"/></g></svg>