<svg width="1445" height="1246" xmlns="http://www.w3.org/2000/svg" xmlns:xlink="http://www.w3.org/1999/xlink" xml:space="preserve" overflow="hidden"><defs><clipPath id="clip0"><rect x="2949" y="8" width="1445" height="1246"/></clipPath></defs><g clip-path="url(#clip0)" transform="translate(-2949 -8)"><path d="M0 0 1445 0 1445 1245.99 0 1245.99 0 0" fill-rule="evenodd" transform="matrix(1 0 0 1.00001 2949.29 7.9999)"/><path d="M3136.19 118.755 3136.19 1093.06 4351.03 1093.06 4351.03 118.755 3136.19 118.755" fill="#121212" fill-rule="evenodd"/><path d="M186.898 110.755 186.898 1085.05" stroke="#FFFFFF" stroke-width="1.15369" stroke-linejoin="round" stroke-opacity="0.25098" fill="none" fill-rule="evenodd" transform="matrix(1 0 0 1.00001 2949.29 7.9999)"/><path d="M456.862 110.755 456.862 1085.05" stroke="#FFFFFF" stroke-width="1.15369" stroke-linejoin="round" stroke-opacity="0.25098" fill="none" fill-rule="evenodd" transform="matrix(1 0 0 1.00001 2949.29 7.9999)"/><path d="M726.826 110.755 726.826 1085.05" stroke="#FFFFFF" stroke-width="1.15369" stroke-linejoin="round" stroke-opacity="0.25098" fill="none" fill-rule="evenodd" transform="matrix(1 0 0 1.00001 2949.29 7.9999)"/><path d="M996.791 110.755 996.791 1085.05" stroke="#FFFFFF" stroke-width="1.15369" stroke-linejoin="round" stroke-opacity="0.25098" fill="none" fill-rule="evenodd" transform="matrix(1 0 0 1.00001 2949.29 7.9999)"/><path d="M1266.75 110.755 1266.75 1085.05" stroke="#FFFFFF" stroke-width="1.15369" stroke-linejoin="round" stroke-opacity="0.25098" fill="none" fill-rule="evenodd" transform="matrix(1 0 0 1.00001 2949.29 7.9999)"/><path d="M186.898 1085.05 1401.74 1085.05" stroke="#FFFFFF" stroke-width="1.15369" stroke-linejoin="round" stroke-opacity="0.25098" fill="none" fill-rule="evenodd" transform="matrix(1 0 0 1.00001 2949.29 7.9999)"/><path d="M186.898 904.882 1401.74 904.882" stroke="#FFFFFF" stroke-width="1.15369" stroke-linejoin="round" stroke-opacity="0.25098" fill="none" fill-rule="evenodd" transform="matrix(1 0 0 1.00001 2949.29 7.9999)"/><path d="M186.898 724.713 1401.74 724.713" stroke="#FFFFFF" stroke-width="1.15369" stroke-linejoin="round" stroke-opacity="0.25098" fill="none" fill-rule="evenodd" transform="matrix(1 0 0 1.00001 2949.29 7.9999)"/><path d="M186.898 544.547 1401.74 544.547" stroke="#FFFFFF" stroke-width="1.15369" stroke-linejoin="round" stroke-opacity="0.25098" fill="none" fill-rule="evenodd" transform="matrix(1 0 0 1.00001 2949.29 7.9999)"/><path d="M186.898 364.381 1401.74 364.381" stroke="#FFFFFF" stroke-width="1.15369" stroke-linejoin="round" stroke-opacity="0.25098" fill="none" fill-rule="evenodd" transform="matrix(1 0 0 1.00001 2949.29 7.9999)"/><path d="M186.898 184.214 1401.74 184.214" stroke="#FFFFFF" stroke-width="1.15369" stroke-linejoin="round" stroke-opacity="0.25098" fill="none" fill-rule="evenodd" transform="matrix(1 0 0 1.00001 2949.29 7.9999)"/><path d="M10.5184 0 10.5184-2.19022C12.6095-2.19022 14.6375-2.30738 16.6024-2.54173 18.5673-2.77608 19.5497-3.31687 19.5497-4.16411L19.5497-38.3963C19.5497-39.2796 19.3017-39.8294 18.8061-40.0457 18.3103-40.262 17.5037-40.3702 16.386-40.3702L13.7902-40.3702C10.3652-40.3702 7.93163-39.6221 6.48952-38.126 5.73241-37.3689 5.19162-36.1655 4.86714-34.5161 4.54267-32.8667 4.27227-30.7892 4.05595-28.2836L2.2443-28.2836 3.43405-42.5605 41.5059-42.5605 42.6687-28.2836 40.857-28.2836C40.6045-30.9694 40.3342-33.0966 40.0457-34.6649 39.7574-36.2332 39.2256-37.3869 38.4505-38.126 36.9903-39.6221 34.5568-40.3702 31.1497-40.3702L28.5269-40.3702C27.7878-40.3702 27.211-40.3387 26.7964-40.2755 26.3817-40.2125 26.0392-40.0367 25.7688-39.7484 25.4985-39.4599 25.3633-39.0093 25.3633-38.3963L25.3633-4.16411C25.3633-3.31687 26.3502-2.77608 28.3241-2.54173 30.2979-2.30738 32.3125-2.19022 34.3675-2.19022L34.3675 0 10.5184 0" fill="#D9D9D9" fill-rule="evenodd" transform="matrix(1 0 0 1.00001 3630.62 1228.85)"/><path d="M1.91983 0 1.91983-2.19022C3.3439-2.19022 4.51112-2.30288 5.42145-2.52821 6.33178-2.75355 6.78697-3.29884 6.78697-4.16411L6.78697-21.1721C6.78697-22.7765 6.47601-23.7589 5.85408-24.1194 5.23218-24.4799 4.01089-24.6602 2.19022-24.6602L2.19022-26.8504 11.1674-27.5265 11.1674-4.16411C11.1674-3.29884 11.564-2.75355 12.3571-2.52821 13.1503-2.30288 14.2048-2.19022 15.5208-2.19022L15.5208 0 1.91983 0M4.56971-38.2342C4.56971-39.1534 4.9122-39.9556 5.59722-40.6407 6.28222-41.3256 7.07538-41.6681 7.97671-41.6681 8.55355-41.6681 9.11688-41.5194 9.66669-41.222 10.2165-40.9245 10.6446-40.5008 10.9511-39.951 11.2575-39.4013 11.4107-38.829 11.4107-38.2342 11.4107-37.3507 11.0637-36.5621 10.3697-35.8682 9.6757-35.1741 8.87803-34.8271 7.97671-34.8271 7.07538-34.8271 6.28222-35.1741 5.59722-35.8682 4.9122-36.5621 4.56971-37.3507 4.56971-38.2342" fill="#D9D9D9" fill-rule="evenodd" transform="matrix(1 0 0 1.00001 3676.45 1228.85)"/><path d="M1.86575 0 1.86575-2.19022C3.27181-2.19022 4.43451-2.30288 5.35386-2.52821 6.2732-2.75355 6.73289-3.29884 6.73289-4.16411L6.73289-21.1721C6.73289-22.2897 6.56613-23.0965 6.23264-23.5921 5.89915-24.0879 5.41695-24.3899 4.78603-24.498 4.15509-24.6062 3.18167-24.6602 1.86575-24.6602L1.86575-26.8504 10.897-27.5265 10.897-21.4424C11.7262-23.2271 12.9565-24.6872 14.5879-25.8229 16.2193-26.9585 17.9993-27.5265 19.9282-27.5265 24.7052-27.5265 27.5173-25.5796 28.3646-21.6859 29.1938-23.4344 30.4061-24.845 32.0015-25.9176 33.5969-26.9902 35.3499-27.5265 37.2608-27.5265 39.1534-27.5265 40.7443-27.2245 42.0332-26.6205 43.3221-26.0168 44.2911-25.0883 44.94-23.8354 45.589-22.5827 45.9135-21.0188 45.9135-19.1441L45.9135-4.16411C45.9135-3.29884 46.3731-2.75355 47.2923-2.52821 48.2118-2.30288 49.3745-2.19022 50.7806-2.19022L50.7806 0 36.5036 0 36.5036-2.19022C37.9277-2.19022 39.0948-2.30288 40.0052-2.52821 40.9155-2.75355 41.3708-3.29884 41.3708-4.16411L41.3708-18.9548C41.3708-21.046 41.0778-22.7313 40.4918-24.0112 39.9061-25.2911 38.7028-25.9311 36.8821-25.9311 34.4846-25.9311 32.5063-24.9667 30.9469-23.0378 29.3877-21.1089 28.6081-18.9188 28.6081-16.4672L28.6081-4.16411C28.6081-3.29884 29.0632-2.75355 29.9735-2.52821 30.8839-2.30288 32.051-2.19022 33.4752-2.19022L33.4752 0 19.1983 0 19.1983-2.19022C20.6223-2.19022 21.7894-2.30288 22.6998-2.52821 23.6101-2.75355 24.0654-3.29884 24.0654-4.16411L24.0654-18.9548C24.0654-20.9738 23.7724-22.6412 23.1865-23.9572 22.6007-25.2731 21.3884-25.9311 19.5497-25.9311 17.1522-25.9311 15.1738-24.9667 13.6145-23.0378 12.0552-21.1089 11.2756-18.9188 11.2756-16.4672L11.2756-4.16411C11.2756-3.29884 11.7352-2.75355 12.6546-2.52821 13.5739-2.30288 14.7276-2.19022 16.1156-2.19022L16.1156 0 1.86575 0" fill="#D9D9D9" fill-rule="evenodd" transform="matrix(1 0 0 1.00001 3694.08 1228.85)"/><path d="M15.5208 0.703031C12.979 0.703031 10.6491 0.0360528 8.53102-1.2979 6.41291-2.63186 4.74997-4.40748 3.54221-6.62473 2.33443-8.84198 1.73054-11.1854 1.73054-13.655 1.73054-16.0886 2.28485-18.4005 3.39348-20.5906 4.5021-22.781 6.04337-24.552 8.01726-25.9041 9.99116-27.256 12.1949-27.9319 14.6285-27.9319 16.5393-27.9319 18.1977-27.612 19.6037-26.972 21.0098-26.3321 22.1725-25.4443 23.092-24.3087 24.0112-23.173 24.7007-21.8346 25.1605-20.2933 25.6201-18.7519 25.8499-17.062 25.8499-15.2233 25.8499-14.6645 25.6426-14.3851 25.228-14.3851L7.19255-14.3851 7.19255-13.7091C7.19255-10.2841 7.88657-7.33676 9.27462-4.86714 10.6626-2.39752 12.925-1.16271 16.0616-1.16271 17.3414-1.16271 18.5221-1.44662 19.6037-2.01445 20.6853-2.58229 21.6272-3.37095 22.4293-4.38043 23.2316-5.3899 23.7769-6.47149 24.0654-7.62519 24.1014-7.76939 24.1781-7.89558 24.2952-8.00374 24.4124-8.1119 24.534-8.16598 24.6602-8.16598L25.228-8.16598C25.6426-8.16598 25.8499-7.9046 25.8499-7.38184 25.2731-5.02036 24.0112-3.08252 22.0644-1.5683 20.1175-0.0540793 17.9363 0.703031 15.5208 0.703031M7.24663-15.9534 21.4424-15.9534C21.4424-17.5037 21.2261-19.0764 20.7935-20.6718 20.3608-22.2672 19.6354-23.5966 18.6168-24.6602 17.5984-25.7238 16.2689-26.2556 14.6285-26.2556 12.285-26.2556 10.4689-25.156 9.17997-22.9566 7.89108-20.7575 7.24663-18.423 7.24663-15.9534" fill="#D9D9D9" fill-rule="evenodd" transform="matrix(1 0 0 1.00001 3746.95 1228.85)"/><path d="M7.35479 15.5749 7.35479-46.7246 15.8723-46.7246 15.8723-44.2369 9.86949-44.2369 9.86949 13.0872 15.8723 13.0872 15.8723 15.5749 7.35479 15.5749" fill="#D9D9D9" fill-rule="evenodd" transform="matrix(1 0 0 1.00001 3796.31 1228.85)"/><path d="M2.08206 0.189278 2.08206-10.0047C2.08206-10.3292 2.26232-10.4914 2.62286-10.4914L3.37997-10.4914C3.6143-10.4914 3.77654-10.3292 3.86668-10.0047 5.02036-3.98384 7.81447-0.973428 12.249-0.973428 14.2319-0.973428 15.8858-1.41958 17.2107-2.3119 18.5356-3.2042 19.1983-4.58773 19.1983-6.46249 19.1983-7.79644 18.68-8.93211 17.6434-9.86949 16.6069-10.8069 15.3766-11.4558 13.9525-11.8163L9.78836-12.6275C8.40033-12.934 7.13397-13.3982 5.98929-14.0201 4.84461-14.642 3.90723-15.4757 3.17717-16.5212 2.44709-17.5667 2.08206-18.7746 2.08206-20.1445 2.08206-21.9652 2.55976-23.4569 3.51516-24.6197 4.47055-25.7823 5.71889-26.625 7.26015-27.1478 8.80142-27.6706 10.4644-27.9319 12.249-27.9319 14.3941-27.9319 16.2509-27.3731 17.8192-26.2556L19.6309-27.7698C19.6309-27.8779 19.7299-27.9319 19.9282-27.9319L20.388-27.9319C20.5142-27.9319 20.6268-27.8734 20.726-27.7563 20.8251-27.6391 20.8746-27.5265 20.8746-27.4183L20.8746-19.2792C20.8746-18.9008 20.7125-18.7115 20.388-18.7115L19.6309-18.7115C19.2522-18.7115 19.0629-18.9008 19.0629-19.2792 19.0629-21.4604 18.4636-23.2091 17.2648-24.525 16.0661-25.8409 14.3761-26.4989 12.1949-26.4989 10.3382-26.4989 8.72481-26.1519 7.35479-25.4578 5.98478-24.7638 5.29978-23.5786 5.29978-21.9022 5.29978-20.7485 5.79099-19.802 6.77343-19.0629 7.75588-18.3238 8.90506-17.7922 10.221-17.4677L14.4392-16.6835C15.8633-16.341 17.1882-15.7867 18.414-15.0205 19.6399-14.2544 20.6133-13.281 21.3343-12.1003 22.0554-10.9195 22.4158-9.59008 22.4158-8.1119 22.4158-6.59768 22.159-5.29076 21.6452-4.19116 21.1314-3.09154 20.4105-2.17219 19.4821-1.4331 18.5538-0.694019 17.463-0.153225 16.2103 0.189278 14.9574 0.531781 13.637 0.703031 12.249 0.703031 9.65317 0.703031 7.43592-0.180265 5.59722-1.94686L3.32589 0.540793C3.32589 0.648952 3.20871 0.703031 2.97436 0.703031L2.62286 0.703031C2.26232 0.703031 2.08206 0.531781 2.08206 0.189278" fill="#D9D9D9" fill-rule="evenodd" transform="matrix(1 0 0 1.00001 3813.93 1228.85)"/><path d="M1.37902 15.5749 1.37902 13.0872 7.43592 13.0872 7.43592-44.2369 1.37902-44.2369 1.37902-46.7246 9.92357-46.7246 9.92357 15.5749 1.37902 15.5749" fill="#D9D9D9" fill-rule="evenodd" transform="matrix(1 0 0 1.00001 3838.96 1228.85)"/><path d="M186.898 1085.05 1401.74 1085.05" stroke="#D9D9D9" stroke-width="1.15369" stroke-linecap="square" stroke-linejoin="round" fill="none" fill-rule="evenodd" transform="matrix(1 0 0 1.00001 2949.29 7.9999)"/><path d="M186.898 110.755 1401.74 110.755" stroke="#D9D9D9" stroke-width="1.15369" stroke-linecap="square" stroke-linejoin="round" fill="none" fill-rule="evenodd" transform="matrix(1 0 0 1.00001 2949.29 7.9999)"/><path d="M186.898 1085.05 186.898 1072.9" stroke="#D9D9D9" stroke-width="1.15369" stroke-linecap="square" stroke-linejoin="round" fill="none" fill-rule="evenodd" transform="matrix(1 0 0 1.00001 2949.29 7.9999)"/><path d="M186.898 122.903 186.898 110.755" stroke="#D9D9D9" stroke-width="1.15369" stroke-linecap="square" stroke-linejoin="round" fill="none" fill-rule="evenodd" transform="matrix(1 0 0 1.00001 2949.29 7.9999)"/><path d="M456.862 1085.05 456.862 1072.9" stroke="#D9D9D9" stroke-width="1.15369" stroke-linecap="square" stroke-linejoin="round" fill="none" fill-rule="evenodd" transform="matrix(1 0 0 1.00001 2949.29 7.9999)"/><path d="M456.862 122.903 456.862 110.755" stroke="#D9D9D9" stroke-width="1.15369" stroke-linecap="square" stroke-linejoin="round" fill="none" fill-rule="evenodd" transform="matrix(1 0 0 1.00001 2949.29 7.9999)"/><path d="M726.826 1085.05 726.826 1072.9" stroke="#D9D9D9" stroke-width="1.15369" stroke-linecap="square" stroke-linejoin="round" fill="none" fill-rule="evenodd" transform="matrix(1 0 0 1.00001 2949.29 7.9999)"/><path d="M726.826 122.903 726.826 110.755" stroke="#D9D9D9" stroke-width="1.15369" stroke-linecap="square" stroke-linejoin="round" fill="none" fill-rule="evenodd" transform="matrix(1 0 0 1.00001 2949.29 7.9999)"/><path d="M996.791 1085.05 996.791 1072.9" stroke="#D9D9D9" stroke-width="1.15369" stroke-linecap="square" stroke-linejoin="round" fill="none" fill-rule="evenodd" transform="matrix(1 0 0 1.00001 2949.29 7.9999)"/><path d="M996.791 122.903 996.791 110.755" stroke="#D9D9D9" stroke-width="1.15369" stroke-linecap="square" stroke-linejoin="round" fill="none" fill-rule="evenodd" transform="matrix(1 0 0 1.00001 2949.29 7.9999)"/><path d="M1266.75 1085.05 1266.75 1072.9" stroke="#D9D9D9" stroke-width="1.15369" stroke-linecap="square" stroke-linejoin="round" fill="none" fill-rule="evenodd" transform="matrix(1 0 0 1.00001 2949.29 7.9999)"/><path d="M1266.75 122.903 1266.75 110.755" stroke="#D9D9D9" stroke-width="1.15369" stroke-linecap="square" stroke-linejoin="round" fill="none" fill-rule="evenodd" transform="matrix(1 0 0 1.00001 2949.29 7.9999)"/><path d="M2.37949-20.1717C2.37949-25.0027 2.87522-28.8919 3.86668-31.8391 4.85813-34.7866 6.3363-37.0579 8.30119-38.6531 10.2661-40.2485 12.7357-41.0463 15.7101-41.0463 17.8912-41.0463 19.811-40.6045 21.4696-39.7212 23.128-38.838 24.4934-37.5626 25.5659-35.8952 26.6385-34.2276 27.4858-32.1998 28.1078-29.8113 28.7297-27.4228 29.0407-24.2095 29.0407-20.1717 29.0407-15.3766 28.5449-11.5054 27.5535-8.55805 26.562-5.61074 25.0883-3.33039 23.1325-1.71702 21.1766-0.103652 18.7025 0.703031 15.7101 0.703031 11.7623 0.703031 8.66171-0.712044 6.40841-3.54221 3.72246-6.9492 2.37949-12.4923 2.37949-20.1717M7.51703-20.1717C7.51703-13.4477 8.30569-8.97717 9.88301-6.75992 11.4603-4.54267 13.4027-3.43405 15.7101-3.43405 17.9993-3.43405 19.9327-4.54716 21.5101-6.77343 23.0873-8.9997 23.8761-13.4658 23.8761-20.1717 23.8761-26.8955 23.0873-31.3615 21.5101-33.5697 19.9327-35.778 17.9813-36.8821 15.656-36.8821 13.3486-36.8821 11.5009-35.9087 10.1128-33.9618 8.3823-31.4742 7.51703-26.8775 7.51703-20.1717" fill="#D9D9D9" fill-rule="evenodd" transform="matrix(1 0 0 1.00001 3120.61 1161.13)"/><path d="M28.7432-4.81306 28.7432 0 1.73054 0C1.69449-1.20777 1.89278-2.37048 2.32541-3.48813 3.01041-5.32682 4.11003-7.13847 5.62425-8.92309 7.13847-10.7077 9.3287-12.7717 12.1949-15.1152 16.6294-18.7564 19.6262-21.6407 21.1856-23.7679 22.7448-25.8949 23.5246-27.9049 23.5246-29.7978 23.5246-31.7987 22.817-33.4797 21.4019-34.8406 19.9869-36.2017 18.1347-36.8821 15.8452-36.8821 13.4297-36.8821 11.4964-36.1565 10.0452-34.7054 8.59412-33.2542 7.85954-31.2489 7.84151-28.6891L2.67694-29.2298C3.03746-33.0696 4.36691-35.9988 6.66528-38.0179 8.96366-40.0367 12.0597-41.0463 15.9534-41.0463 19.8652-41.0463 22.9656-39.9601 25.2551-37.7879 27.5445-35.6157 28.6891-32.9162 28.6891-29.6896 28.6891-28.0673 28.3556-26.4629 27.6886-24.8765 27.0217-23.2901 25.9131-21.6227 24.3627-19.8742 22.8125-18.1257 20.2347-15.7281 16.6294-12.6816 13.619-10.1579 11.6856-8.44539 10.8294-7.54408 9.97313-6.64274 9.2656-5.73241 8.70677-4.81306L28.7432-4.81306M33.5292-20.1717C33.5292-25.0027 34.025-28.8919 35.0164-31.8391 36.0078-34.7866 37.4861-37.0579 39.4509-38.6531 41.4158-40.2485 43.8854-41.0463 46.8597-41.0463 49.0409-41.0463 50.9607-40.6045 52.6193-39.7212 54.2777-38.838 55.6431-37.5626 56.7156-35.8952 57.7882-34.2276 58.6355-32.1998 59.2575-29.8113 59.8794-27.4228 60.1904-24.2095 60.1904-20.1717 60.1904-15.3766 59.6946-11.5054 58.7032-8.55805 57.7117-5.61074 56.238-3.33039 54.2822-1.71702 52.3263-0.103652 49.8522 0.703031 46.8597 0.703031 42.912 0.703031 39.8114-0.712044 37.5581-3.54221 34.8721-6.9492 33.5292-12.4923 33.5292-20.1717M38.6668-20.1717C38.6668-13.4477 39.4554-8.97717 41.0326-6.75992 42.61-4.54267 44.5524-3.43405 46.8597-3.43405 49.149-3.43405 51.0824-4.54716 52.6598-6.77343 54.237-8.9997 55.0258-13.4658 55.0258-20.1717 55.0258-26.8955 54.237-31.3615 52.6598-33.5697 51.0824-35.778 49.131-36.8821 46.8057-36.8821 44.4982-36.8821 42.6505-35.9087 41.2626-33.9618 39.5321-31.4742 38.6668-26.8775 38.6668-20.1717" fill="#D9D9D9" fill-rule="evenodd" transform="matrix(1 0 0 1.00001 3375 1161.13)"/><path d="M18.4681 0 18.4681-9.78836 0.730071-9.78836 0.730071-14.3851 19.3874-40.884 23.4704-40.884 23.4704-14.3851 29.0135-14.3851 29.0135-9.78836 23.4704-9.78836 23.4704 0 18.4681 0M18.4681-14.3851 18.4681-32.8262 5.6513-14.3851 18.4681-14.3851M33.5292-20.1717C33.5292-25.0027 34.025-28.8919 35.0164-31.8391 36.0078-34.7866 37.4861-37.0579 39.4509-38.6531 41.4158-40.2485 43.8854-41.0463 46.8597-41.0463 49.0409-41.0463 50.9607-40.6045 52.6193-39.7212 54.2777-38.838 55.6431-37.5626 56.7156-35.8952 57.7882-34.2276 58.6355-32.1998 59.2575-29.8113 59.8794-27.4228 60.1904-24.2095 60.1904-20.1717 60.1904-15.3766 59.6946-11.5054 58.7032-8.55805 57.7117-5.61074 56.238-3.33039 54.2822-1.71702 52.3263-0.103652 49.8522 0.703031 46.8597 0.703031 42.912 0.703031 39.8114-0.712044 37.5581-3.54221 34.8721-6.9492 33.5292-12.4923 33.5292-20.1717M38.6668-20.1717C38.6668-13.4477 39.4554-8.97717 41.0326-6.75992 42.61-4.54267 44.5524-3.43405 46.8597-3.43405 49.149-3.43405 51.0824-4.54716 52.6598-6.77343 54.237-8.9997 55.0258-13.4658 55.0258-20.1717 55.0258-26.8955 54.237-31.3615 52.6598-33.5697 51.0824-35.778 49.131-36.8821 46.8057-36.8821 44.4982-36.8821 42.6505-35.9087 41.2626-33.9618 39.5321-31.4742 38.6668-26.8775 38.6668-20.1717" fill="#D9D9D9" fill-rule="evenodd" transform="matrix(1 0 0 1.00001 3644.97 1161.13)"/><path d="M28.4187-30.8794 23.4164-30.4738C22.9838-32.4386 22.3529-33.8717 21.5236-34.7731 20.1717-36.1972 18.5041-36.9091 16.5212-36.9091 14.9169-36.9091 13.5108-36.4675 12.3031-35.5842 10.7167-34.4305 9.46839-32.7496 8.55805-30.5412 7.64772-28.3331 7.17452-25.183 7.13847-21.0909 8.34625-22.9296 9.82441-24.2952 11.573-25.1875 13.3216-26.0797 15.1512-26.5259 17.062-26.5259 20.415-26.5259 23.2676-25.2911 25.6201-22.8215 27.9726-20.3518 29.1489-17.1702 29.1489-13.2765 29.1489-10.7167 28.5944-8.33272 27.4858-6.12448 26.3772-3.91624 24.854-2.22627 22.9161-1.05455 20.9783 0.117172 18.7836 0.703031 16.332 0.703031 12.1498 0.703031 8.73832-0.83823 6.09745-3.92076 3.45658-7.00328 2.13614-12.0687 2.13614-19.1171 2.13614-27.0307 3.59629-32.7811 6.51657-36.3683 9.07631-39.4869 12.5104-41.0463 16.8187-41.0463 20.0274-41.0463 22.6593-40.1449 24.7143-38.3423 26.7694-36.5396 28.0041-34.052 28.4187-30.8794M7.92263-13.2494C7.92263-11.5189 8.28766-9.86497 9.01774-8.28766 9.7478-6.71034 10.7753-5.50708 12.1003-4.67787 13.4252-3.84865 14.8087-3.43405 16.2509-3.43405 18.378-3.43405 20.2032-4.2903 21.7264-6.00281 23.2496-7.71531 24.0112-10.0407 24.0112-12.979 24.0112-15.7912 23.2586-18.013 21.7534-19.6444 20.2482-21.2758 18.351-22.0914 16.0616-22.0914 13.7902-22.0914 11.8659-21.2758 10.2886-19.6444 8.71127-18.013 7.92263-15.8813 7.92263-13.2494M33.5292-20.1717C33.5292-25.0027 34.025-28.8919 35.0164-31.8391 36.0078-34.7866 37.4861-37.0579 39.4509-38.6531 41.4158-40.2485 43.8854-41.0463 46.8597-41.0463 49.0409-41.0463 50.9607-40.6045 52.6193-39.7212 54.2777-38.838 55.6431-37.5626 56.7156-35.8952 57.7882-34.2276 58.6355-32.1998 59.2575-29.8113 59.8794-27.4228 60.1904-24.2095 60.1904-20.1717 60.1904-15.3766 59.6946-11.5054 58.7032-8.55805 57.7117-5.61074 56.238-3.33039 54.2822-1.71702 52.3263-0.103652 49.8522 0.703031 46.8597 0.703031 42.912 0.703031 39.8114-0.712044 37.5581-3.54221 34.8721-6.9492 33.5292-12.4923 33.5292-20.1717M38.6668-20.1717C38.6668-13.4477 39.4554-8.97717 41.0326-6.75992 42.61-4.54267 44.5524-3.43405 46.8597-3.43405 49.149-3.43405 51.0824-4.54716 52.6598-6.77343 54.237-8.9997 55.0258-13.4658 55.0258-20.1717 55.0258-26.8955 54.237-31.3615 52.6598-33.5697 51.0824-35.778 49.131-36.8821 46.8057-36.8821 44.4982-36.8821 42.6505-35.9087 41.2626-33.9618 39.5321-31.4742 38.6668-26.8775 38.6668-20.1717" fill="#D9D9D9" fill-rule="evenodd" transform="matrix(1 0 0 1.00001 3914.93 1161.13)"/><path d="M10.0858-22.1725C8.01276-22.9296 6.47149-24.0157 5.46201-25.4308 4.45254-26.8459 3.94779-28.5359 3.94779-30.5008 3.94779-33.4752 5.02036-35.9764 7.16552-38.0042 9.31066-40.0322 12.1588-41.0463 15.7101-41.0463 19.2792-41.0463 22.15-40.0097 24.3222-37.9367 26.4944-35.8637 27.5805-33.3399 27.5805-30.3656 27.5805-28.4727 27.0847-26.8234 26.0932-25.4173 25.1018-24.0112 23.5876-22.9296 21.5506-22.1725 24.0562-21.3433 25.9671-20.0184 27.283-18.1977 28.5989-16.377 29.257-14.2048 29.257-11.6811 29.257-8.18401 28.0176-5.2457 25.5389-2.86621 23.0603-0.486714 19.811 0.703031 15.7912 0.703031 11.7533 0.703031 8.49947-0.49122 6.02986-2.87972 3.56022-5.26823 2.32541-8.24711 2.32541-11.8163 2.32541-14.4842 2.9969-16.715 4.33986-18.5086 5.68283-20.3023 7.59816-21.5236 10.0858-22.1725M9.08533-30.6631C9.08533-28.7342 9.70725-27.1568 10.9511-25.9311 12.1949-24.7052 13.8173-24.0924 15.8182-24.0924 17.747-24.0924 19.3289-24.7007 20.5637-25.9176 21.7986-27.1343 22.4158-28.6261 22.4158-30.3926 22.4158-32.2313 21.7804-33.777 20.5097-35.0299 19.2387-36.2827 17.6569-36.9091 15.7641-36.9091 13.8353-36.9091 12.24-36.2963 10.9781-35.0704 9.71625-33.8447 9.08533-32.3754 9.08533-30.6631M7.46295-11.7893C7.46295-10.3652 7.80546-8.98167 8.49046-7.6387 9.17546-6.29574 10.1849-5.25921 11.5189-4.52915 12.8529-3.79907 14.295-3.43405 15.8452-3.43405 18.2428-3.43405 20.2212-4.20467 21.7804-5.74593 23.3398-7.2872 24.1194-9.24757 24.1194-11.6271 24.1194-14.0426 23.3173-16.039 21.7129-17.6164 20.1085-19.1936 18.0985-19.9824 15.683-19.9824 13.3216-19.9824 11.3612-19.2028 9.80188-17.6434 8.24259-16.0841 7.46295-14.1327 7.46295-11.7893M33.5292-20.1717C33.5292-25.0027 34.025-28.8919 35.0164-31.8391 36.0078-34.7866 37.4861-37.0579 39.4509-38.6531 41.4158-40.2485 43.8854-41.0463 46.8597-41.0463 49.0409-41.0463 50.9607-40.6045 52.6193-39.7212 54.2777-38.838 55.6431-37.5626 56.7156-35.8952 57.7882-34.2276 58.6355-32.1998 59.2575-29.8113 59.8794-27.4228 60.1904-24.2095 60.1904-20.1717 60.1904-15.3766 59.6946-11.5054 58.7032-8.55805 57.7117-5.61074 56.238-3.33039 54.2822-1.71702 52.3263-0.103652 49.8522 0.703031 46.8597 0.703031 42.912 0.703031 39.8114-0.712044 37.5581-3.54221 34.8721-6.9492 33.5292-12.4923 33.5292-20.1717M38.6668-20.1717C38.6668-13.4477 39.4554-8.97717 41.0326-6.75992 42.61-4.54267 44.5524-3.43405 46.8597-3.43405 49.149-3.43405 51.0824-4.54716 52.6598-6.77343 54.237-8.9997 55.0258-13.4658 55.0258-20.1717 55.0258-26.8955 54.237-31.3615 52.6598-33.5697 51.0824-35.778 49.131-36.8821 46.8057-36.8821 44.4982-36.8821 42.6505-35.9087 41.2626-33.9618 39.5321-31.4742 38.6668-26.8775 38.6668-20.1717" fill="#D9D9D9" fill-rule="evenodd" transform="matrix(1 0 0 1.00001 4184.89 1161.13)"/><path d="M186.898 1085.05 186.898 110.755" stroke="#D9D9D9" stroke-width="1.15369" stroke-linecap="square" stroke-linejoin="round" fill="none" fill-rule="evenodd" transform="matrix(1 0 0 1.00001 2949.29 7.9999)"/><path d="M1401.74 1085.05 1401.74 110.755" stroke="#D9D9D9" stroke-width="1.15369" stroke-linecap="square" stroke-linejoin="round" fill="none" fill-rule="evenodd" transform="matrix(1 0 0 1.00001 2949.29 7.9999)"/><path d="M186.898 1085.05 199.047 1085.05" stroke="#D9D9D9" stroke-width="1.15369" stroke-linecap="square" stroke-linejoin="round" fill="none" fill-rule="evenodd" transform="matrix(1 0 0 1.00001 2949.29 7.9999)"/><path d="M186.898 904.882 199.047 904.882" stroke="#D9D9D9" stroke-width="1.15369" stroke-linecap="square" stroke-linejoin="round" fill="none" fill-rule="evenodd" transform="matrix(1 0 0 1.00001 2949.29 7.9999)"/><path d="M186.898 724.713 199.047 724.713" stroke="#D9D9D9" stroke-width="1.15369" stroke-linecap="square" stroke-linejoin="round" fill="none" fill-rule="evenodd" transform="matrix(1 0 0 1.00001 2949.29 7.9999)"/><path d="M186.898 544.547 199.047 544.547" stroke="#D9D9D9" stroke-width="1.15369" stroke-linecap="square" stroke-linejoin="round" fill="none" fill-rule="evenodd" transform="matrix(1 0 0 1.00001 2949.29 7.9999)"/><path d="M186.898 364.381 199.047 364.381" stroke="#D9D9D9" stroke-width="1.15369" stroke-linecap="square" stroke-linejoin="round" fill="none" fill-rule="evenodd" transform="matrix(1 0 0 1.00001 2949.29 7.9999)"/><path d="M186.898 184.214 199.047 184.214" stroke="#D9D9D9" stroke-width="1.15369" stroke-linecap="square" stroke-linejoin="round" fill="none" fill-rule="evenodd" transform="matrix(1 0 0 1.00001 2949.29 7.9999)"/><path d="M1401.74 1085.05 1389.59 1085.05" stroke="#D9D9D9" stroke-width="1.15369" stroke-linecap="square" stroke-linejoin="round" fill="none" fill-rule="evenodd" transform="matrix(1 0 0 1.00001 2949.29 7.9999)"/><path d="M1401.74 904.882 1389.59 904.882" stroke="#D9D9D9" stroke-width="1.15369" stroke-linecap="square" stroke-linejoin="round" fill="none" fill-rule="evenodd" transform="matrix(1 0 0 1.00001 2949.29 7.9999)"/><path d="M1401.74 724.713 1389.59 724.713" stroke="#D9D9D9" stroke-width="1.15369" stroke-linecap="square" stroke-linejoin="round" fill="none" fill-rule="evenodd" transform="matrix(1 0 0 1.00001 2949.29 7.9999)"/><path d="M1401.74 544.547 1389.59 544.547" stroke="#D9D9D9" stroke-width="1.15369" stroke-linecap="square" stroke-linejoin="round" fill="none" fill-rule="evenodd" transform="matrix(1 0 0 1.00001 2949.29 7.9999)"/><path d="M1401.74 364.381 1389.59 364.381" stroke="#D9D9D9" stroke-width="1.15369" stroke-linecap="square" stroke-linejoin="round" fill="none" fill-rule="evenodd" transform="matrix(1 0 0 1.00001 2949.29 7.9999)"/><path d="M1401.74 184.214 1389.59 184.214" stroke="#D9D9D9" stroke-width="1.15369" stroke-linecap="square" stroke-linejoin="round" fill="none" fill-rule="evenodd" transform="matrix(1 0 0 1.00001 2949.29 7.9999)"/><path d="M2.37949-20.1717C2.37949-25.0027 2.87522-28.8919 3.86668-31.8391 4.85813-34.7866 6.3363-37.0579 8.30119-38.6531 10.2661-40.2485 12.7357-41.0463 15.7101-41.0463 17.8912-41.0463 19.811-40.6045 21.4696-39.7212 23.128-38.838 24.4934-37.5626 25.5659-35.8952 26.6385-34.2276 27.4858-32.1998 28.1078-29.8113 28.7297-27.4228 29.0407-24.2095 29.0407-20.1717 29.0407-15.3766 28.5449-11.5054 27.5535-8.55805 26.562-5.61074 25.0883-3.33039 23.1325-1.71702 21.1766-0.103652 18.7025 0.703031 15.7101 0.703031 11.7623 0.703031 8.66171-0.712044 6.40841-3.54221 3.72246-6.9492 2.37949-12.4923 2.37949-20.1717M7.51703-20.1717C7.51703-13.4477 8.30569-8.97717 9.88301-6.75992 11.4603-4.54267 13.4027-3.43405 15.7101-3.43405 17.9993-3.43405 19.9327-4.54716 21.5101-6.77343 23.0873-8.9997 23.8761-13.4658 23.8761-20.1717 23.8761-26.8955 23.0873-31.3615 21.5101-33.5697 19.9327-35.778 17.9813-36.8821 15.656-36.8821 13.3486-36.8821 11.5009-35.9087 10.1128-33.9618 8.3823-31.4742 7.51703-26.8775 7.51703-20.1717" fill="#D9D9D9" fill-rule="evenodd" transform="matrix(1 0 0 1.00001 3088.89 1112.96)"/><path d="M21.2803 0 16.2509 0 16.2509-31.988C15.0431-30.8342 13.4613-29.6805 11.5054-28.5269 9.54951-27.3731 7.78743-26.5079 6.21912-25.9311L6.21912-30.7982C9.03125-32.1141 11.4874-33.7095 13.5874-35.5842 15.6875-37.4589 17.1702-39.2796 18.0355-41.0463L21.2803-41.0463 21.2803 0" fill="#D9D9D9" fill-rule="evenodd" transform="matrix(1 0 0 1.00001 3088.89 932.79)"/><path d="M28.7432-4.81306 28.7432 0 1.73054 0C1.69449-1.20777 1.89278-2.37048 2.32541-3.48813 3.01041-5.32682 4.11003-7.13847 5.62425-8.92309 7.13847-10.7077 9.3287-12.7717 12.1949-15.1152 16.6294-18.7564 19.6262-21.6407 21.1856-23.7679 22.7448-25.8949 23.5246-27.9049 23.5246-29.7978 23.5246-31.7987 22.817-33.4797 21.4019-34.8406 19.9869-36.2017 18.1347-36.8821 15.8452-36.8821 13.4297-36.8821 11.4964-36.1565 10.0452-34.7054 8.59412-33.2542 7.85954-31.2489 7.84151-28.6891L2.67694-29.2298C3.03746-33.0696 4.36691-35.9988 6.66528-38.0179 8.96366-40.0367 12.0597-41.0463 15.9534-41.0463 19.8652-41.0463 22.9656-39.9601 25.2551-37.7879 27.5445-35.6157 28.6891-32.9162 28.6891-29.6896 28.6891-28.0673 28.3556-26.4629 27.6886-24.8765 27.0217-23.2901 25.9131-21.6227 24.3627-19.8742 22.8125-18.1257 20.2347-15.7281 16.6294-12.6816 13.619-10.1579 11.6856-8.44539 10.8294-7.54408 9.97313-6.64274 9.2656-5.73241 8.70677-4.81306L28.7432-4.81306" fill="#D9D9D9" fill-rule="evenodd" transform="matrix(1 0 0 1.00001 3088.89 752.623)"/><path d="M2.40654-10.7888 7.40887-11.4648C7.98571-8.61665 8.96816-6.56613 10.3562-5.31329 11.7442-4.06045 13.4297-3.43405 15.4126-3.43405 17.774-3.43405 19.7705-4.24974 21.4019-5.88113 23.0333-7.51253 23.8491-9.536 23.8491-11.9515 23.8491-14.2589 23.0965-16.1607 21.5912-17.6569 20.086-19.1531 18.1707-19.9012 15.8452-19.9012 14.8899-19.9012 13.7091-19.7209 12.3031-19.3604L12.8439-23.7679C13.1863-23.7317 13.4567-23.7138 13.655-23.7138 15.8002-23.7138 17.729-24.268 19.4416-25.3768 21.1541-26.4854 22.0104-28.2024 22.0104-30.5277 22.0104-32.3664 21.3839-33.8897 20.131-35.0976 18.8783-36.3053 17.2693-36.9091 15.3045-36.9091 13.3576-36.9091 11.7352-36.2963 10.4373-35.0704 9.13941-33.8447 8.30119-32.006 7.92263-29.5543L2.89325-30.4468C3.50614-33.8177 4.90319-36.427 7.08439-38.2747 9.2656-40.1224 11.9696-41.0463 15.1963-41.0463 17.4315-41.0463 19.4866-40.5685 21.3614-39.6131 23.2361-38.6576 24.6692-37.3507 25.6606-35.6924 26.652-34.034 27.1478-32.2763 27.1478-30.4196 27.1478-28.6531 26.6747-27.0442 25.7283-25.5931 24.7818-24.1419 23.3803-22.9928 21.5236-22.1455 23.9391-21.5867 25.8184-20.4285 27.1613-18.671 28.5044-16.9133 29.1758-14.7186 29.1758-12.0867 29.1758-8.51751 27.8734-5.48906 25.2686-3.00141 22.6638-0.513754 19.3694 0.730071 15.3856 0.730071 11.7983 0.730071 8.81943-0.337997 6.44896-2.47413 4.07848-4.61026 2.73102-7.38184 2.40654-10.7888" fill="#D9D9D9" fill-rule="evenodd" transform="matrix(1 0 0 1.00001 3088.89 572.454)"/><path d="M18.4681 0 18.4681-9.78836 0.730071-9.78836 0.730071-14.3851 19.3874-40.884 23.4704-40.884 23.4704-14.3851 29.0135-14.3851 29.0135-9.78836 23.4704-9.78836 23.4704 0 18.4681 0M18.4681-14.3851 18.4681-32.8262 5.6513-14.3851 18.4681-14.3851" fill="#D9D9D9" fill-rule="evenodd" transform="matrix(1 0 0 1.00001 3088.89 392.285)"/><path d="M2.37949-10.7077 7.65224-11.1674C8.03079-8.5896 8.93211-6.65626 10.3562-5.36737 11.7803-4.07848 13.4928-3.43405 15.4937-3.43405 17.9093-3.43405 19.9554-4.34438 21.6317-6.16505 23.3083-7.98571 24.1464-10.4013 24.1464-13.4117 24.1464-16.2779 23.3443-18.5356 21.7399-20.1852 20.1355-21.8346 18.0265-22.6593 15.4126-22.6593 13.8083-22.6593 12.3526-22.2942 11.0457-21.5641 9.73878-20.8341 8.71579-19.8832 7.97671-18.7115L3.27181-19.3334 7.2196-40.3162 27.5535-40.3162 27.5535-35.5302 11.2485-35.5302 9.03125-24.552C11.4829-26.2466 14.0606-27.0938 16.7646-27.0938 20.3338-27.0938 23.3443-25.8589 25.7959-23.3893 28.2474-20.9196 29.4733-17.747 29.4733-13.8714 29.4733-10.1579 28.3917-6.9582 26.2286-4.27227 23.6146-0.955401 20.0364 0.703031 15.4937 0.703031 11.7803 0.703031 8.74734-0.337997 6.39488-2.42006 4.04244-4.5021 2.70397-7.26466 2.37949-10.7077" fill="#D9D9D9" fill-rule="evenodd" transform="matrix(1 0 0 1.00001 3088.89 212.117)"/><path d="M14.1958-6.65176C15.6199-4.84911 17.3956-3.42503 19.5227-2.37949 21.6497-1.33396 23.8671-0.81119 26.1744-0.81119 28.0853-0.81119 29.8653-1.19425 31.5147-1.96037 33.1642-2.7265 34.6018-3.79005 35.8275-5.15105 37.0534-6.51205 37.9952-8.05332 38.6531-9.77485 39.3111-11.4964 39.6402-13.3125 39.6402-15.2233 39.6402-15.5478 39.8204-15.7101 40.181-15.7101L40.9382-15.7101C41.2626-15.7101 41.4248-15.5027 41.4248-15.0881 41.4248-12.925 41.0101-10.8339 40.181-8.81493 39.3518-6.79597 38.1755-5.02036 36.6523-3.48813 35.1291-1.95587 33.3805-0.761617 31.4065 0.0946389 29.4327 0.950895 27.3731 1.37902 25.228 1.37902 22.2357 1.37902 19.4054 0.775138 16.7376-0.432635 14.0696-1.64041 11.7487-3.29434 9.77485-5.39442 7.80094-7.4945 6.25969-9.92357 5.15105-12.6816 4.04244-15.4397 3.48813-18.3148 3.48813-21.3073 3.48813-24.2817 4.04244-27.1478 5.15105-29.906 6.25969-32.6639 7.80094-35.0976 9.77485-37.2066 11.7487-39.3158 14.0696-40.9651 16.7376-42.1549 19.4054-43.3446 22.2357-43.9394 25.228-43.9394 27.3552-43.9394 29.3922-43.4753 31.339-42.5469 33.2859-41.6186 34.9894-40.3162 36.4495-38.6396L40.0729-43.7503C40.3072-43.8764 40.4424-43.9394 40.4783-43.9394L40.9382-43.9394C41.0643-43.9394 41.177-43.8854 41.2761-43.7773 41.3753-43.6691 41.4248-43.543 41.4248-43.3986L41.4248-26.58C41.4248-26.2194 41.2626-26.0392 40.9382-26.0392L39.8294-26.0392C39.4329-26.0392 39.2346-26.2194 39.2346-26.58 39.2346-27.7878 38.9958-29.1307 38.518-30.6089 38.0404-32.0871 37.4319-33.4887 36.6928-34.8136 35.9537-36.1385 35.0976-37.3148 34.1242-38.3423 31.7987-40.6137 29.1217-41.7493 26.0932-41.7493 23.8039-41.7493 21.6092-41.231 19.5091-40.1945 17.409-39.1579 15.6379-37.7294 14.1958-35.9087 12.6816-33.9618 11.6316-31.7447 11.0457-29.257 10.4598-26.7694 10.1669-24.1194 10.1669-21.3073 10.1669-18.4771 10.4598-15.8137 11.0457-13.317 11.6316-10.8204 12.6816-8.59862 14.1958-6.65176" fill="#D9D9D9" fill-rule="evenodd" transform="matrix(0 -1.00001 1 0 3057.39 936.835)"/><path d="M15.5749 0.703031C13.0872 0.703031 10.7753 0.0675992 8.63918-1.20327 6.50304-2.47413 4.81756-4.17313 3.58275-6.30025 2.34794-8.42736 1.73054-10.7528 1.73054-13.2765 1.73054-15.1693 2.07305-16.9989 2.75805-18.7656 3.44305-20.5322 4.41647-22.1094 5.67833-23.4974 6.94019-24.8855 8.41385-25.9716 10.0993-26.7557 11.7848-27.54 13.61-27.9319 15.5749-27.9319 18.1347-27.9319 20.4645-27.256 22.5647-25.9041 24.6647-24.552 26.3231-22.7448 27.54-20.4825 28.7567-18.2202 29.3652-15.8182 29.3652-13.2765 29.3652-10.7708 28.7432-8.44989 27.4993-6.31377 26.2556-4.17763 24.5745-2.47413 22.4565-1.20327 20.3383 0.0675992 18.0445 0.703031 15.5749 0.703031M15.5749-1.16271C18.9098-1.16271 21.1314-2.36598 22.2402-4.7725 23.3488-7.17904 23.9031-10.239 23.9031-13.9525 23.9031-16.0435 23.7949-17.7695 23.5786-19.1306 23.3623-20.4915 22.8756-21.7309 22.1185-22.8485 21.6497-23.5336 21.055-24.1374 20.3338-24.6602 19.6127-25.183 18.8511-25.5796 18.049-25.8499 17.2468-26.1204 16.4221-26.2556 15.5749-26.2556 14.2769-26.2556 13.0466-25.9626 11.8839-25.3768 10.7212-24.7908 9.75231-23.9481 8.97717-22.8485 8.20203-21.6767 7.71081-20.388 7.50351-18.9819 7.29621-17.5759 7.19255-15.8993 7.19255-13.9525 7.19255-11.6271 7.39535-9.5405 7.80094-7.69278 8.20654-5.84507 9.02223-4.2948 10.248-3.04196 11.4738-1.78912 13.2494-1.16271 15.5749-1.16271" fill="#D9D9D9" fill-rule="evenodd" transform="matrix(0 -1.00001 1 0 3057.39 891.008)"/><path d="M1.86575 0 1.86575-2.19022C3.27181-2.19022 4.43451-2.30288 5.35386-2.52821 6.2732-2.75355 6.73289-3.29884 6.73289-4.16411L6.73289-21.1721C6.73289-22.2897 6.56613-23.0965 6.23264-23.5921 5.89915-24.0879 5.41695-24.3899 4.78603-24.498 4.15509-24.6062 3.18167-24.6602 1.86575-24.6602L1.86575-26.8504 10.897-27.5265 10.897-21.4424C11.7262-23.2271 12.9565-24.6872 14.5879-25.8229 16.2193-26.9585 17.9993-27.5265 19.9282-27.5265 22.8125-27.5265 24.9802-26.8369 26.4312-25.4578 27.8824-24.0789 28.6081-21.9742 28.6081-19.1441L28.6081-4.16411C28.6081-3.29884 29.0632-2.75355 29.9735-2.52821 30.8839-2.30288 32.051-2.19022 33.4752-2.19022L33.4752 0 19.1983 0 19.1983-2.19022C20.6223-2.19022 21.7894-2.30288 22.6998-2.52821 23.6101-2.75355 24.0654-3.29884 24.0654-4.16411L24.0654-18.9548C24.0654-20.9738 23.7724-22.6412 23.1865-23.9572 22.6007-25.2731 21.3884-25.9311 19.5497-25.9311 17.1522-25.9311 15.1738-24.9667 13.6145-23.0378 12.0552-21.1089 11.2756-18.9188 11.2756-16.4672L11.2756-4.16411C11.2756-3.29884 11.7352-2.75355 12.6546-2.52821 13.5739-2.30288 14.7276-2.19022 16.1156-2.19022L16.1156 0 1.86575 0" fill="#D9D9D9" fill-rule="evenodd" transform="matrix(0 -1.00001 1 0 3057.39 859.281)"/><path d="M15.5208 0.703031C12.9971 0.703031 10.7122 0.0495727 8.66621-1.25735 6.62021-2.56426 5.01135-4.30832 3.83963-6.48952 2.66792-8.67073 2.08206-10.9871 2.08206-13.4387 2.08206-15.8903 2.6634-18.2428 3.82612-20.4962 4.98882-22.7493 6.59768-24.552 8.6527-25.9041 10.7077-27.256 12.9971-27.9319 15.5208-27.9319 17.9543-27.9319 20.167-27.4543 22.159-26.4989 24.1509-25.5434 25.147-23.9752 25.147-21.7941 25.147-20.9828 24.8585-20.2798 24.2817-19.6849 23.7048-19.0901 23.0018-18.7926 22.1725-18.7926 21.3433-18.7926 20.6403-19.0901 20.0635-19.6849 19.4866-20.2798 19.1983-20.9828 19.1983-21.7941 19.1983-22.515 19.4326-23.146 19.9012-23.6868 20.3698-24.2275 20.9468-24.57 21.6317-24.7143 20.1897-25.6156 18.1707-26.0662 15.5749-26.0662 13.5919-26.0662 11.9921-25.4083 10.7753-24.0924 9.55853-22.7765 8.70677-21.1496 8.22006-19.2118 7.73335-17.2738 7.49-15.3495 7.49-13.4387 7.49-11.4378 7.78743-9.50445 8.3823-7.6387 8.97717-5.77297 9.94158-4.2272 11.2756-3.00141 12.6095-1.7756 14.2769-1.16271 16.2779-1.16271 18.2428-1.16271 19.9147-1.76209 21.2938-2.96085 22.6728-4.15961 23.6146-5.73241 24.1194-7.67927 24.1194-7.93163 24.2817-8.05782 24.6062-8.05782L25.3633-8.05782C25.4895-8.05782 25.6021-7.99924 25.7013-7.88207 25.8004-7.76489 25.8499-7.6342 25.8499-7.49L25.8499-7.32776C25.219-4.85813 23.9707-2.90225 22.1049-1.46014 20.2392-0.0180265 18.0445 0.703031 15.5208 0.703031" fill="#D9D9D9" fill-rule="evenodd" transform="matrix(0 -1.00001 1 0 3057.39 824.028)"/><path d="M15.5208 0.703031C12.979 0.703031 10.6491 0.0360528 8.53102-1.2979 6.41291-2.63186 4.74997-4.40748 3.54221-6.62473 2.33443-8.84198 1.73054-11.1854 1.73054-13.655 1.73054-16.0886 2.28485-18.4005 3.39348-20.5906 4.5021-22.781 6.04337-24.552 8.01726-25.9041 9.99116-27.256 12.1949-27.9319 14.6285-27.9319 16.5393-27.9319 18.1977-27.612 19.6037-26.972 21.0098-26.3321 22.1725-25.4443 23.092-24.3087 24.0112-23.173 24.7007-21.8346 25.1605-20.2933 25.6201-18.7519 25.8499-17.062 25.8499-15.2233 25.8499-14.6645 25.6426-14.3851 25.228-14.3851L7.19255-14.3851 7.19255-13.7091C7.19255-10.2841 7.88657-7.33676 9.27462-4.86714 10.6626-2.39752 12.925-1.16271 16.0616-1.16271 17.3414-1.16271 18.5221-1.44662 19.6037-2.01445 20.6853-2.58229 21.6272-3.37095 22.4293-4.38043 23.2316-5.3899 23.7769-6.47149 24.0654-7.62519 24.1014-7.76939 24.1781-7.89558 24.2952-8.00374 24.4124-8.1119 24.534-8.16598 24.6602-8.16598L25.228-8.16598C25.6426-8.16598 25.8499-7.9046 25.8499-7.38184 25.2731-5.02036 24.0112-3.08252 22.0644-1.5683 20.1175-0.0540793 17.9363 0.703031 15.5208 0.703031M7.24663-15.9534 21.4424-15.9534C21.4424-17.5037 21.2261-19.0764 20.7935-20.6718 20.3608-22.2672 19.6354-23.5966 18.6168-24.6602 17.5984-25.7238 16.2689-26.2556 14.6285-26.2556 12.285-26.2556 10.4689-25.156 9.17997-22.9566 7.89108-20.7575 7.24663-18.423 7.24663-15.9534" fill="#D9D9D9" fill-rule="evenodd" transform="matrix(0 -1.00001 1 0 3057.39 795.827)"/><path d="M1.86575 0 1.86575-2.19022C3.27181-2.19022 4.43451-2.30288 5.35386-2.52821 6.2732-2.75355 6.73289-3.29884 6.73289-4.16411L6.73289-21.1721C6.73289-22.2897 6.56613-23.0965 6.23264-23.5921 5.89915-24.0879 5.41695-24.3899 4.78603-24.498 4.15509-24.6062 3.18167-24.6602 1.86575-24.6602L1.86575-26.8504 10.897-27.5265 10.897-21.4424C11.7262-23.2271 12.9565-24.6872 14.5879-25.8229 16.2193-26.9585 17.9993-27.5265 19.9282-27.5265 22.8125-27.5265 24.9802-26.8369 26.4312-25.4578 27.8824-24.0789 28.6081-21.9742 28.6081-19.1441L28.6081-4.16411C28.6081-3.29884 29.0632-2.75355 29.9735-2.52821 30.8839-2.30288 32.051-2.19022 33.4752-2.19022L33.4752 0 19.1983 0 19.1983-2.19022C20.6223-2.19022 21.7894-2.30288 22.6998-2.52821 23.6101-2.75355 24.0654-3.29884 24.0654-4.16411L24.0654-18.9548C24.0654-20.9738 23.7724-22.6412 23.1865-23.9572 22.6007-25.2731 21.3884-25.9311 19.5497-25.9311 17.1522-25.9311 15.1738-24.9667 13.6145-23.0378 12.0552-21.1089 11.2756-18.9188 11.2756-16.4672L11.2756-4.16411C11.2756-3.29884 11.7352-2.75355 12.6546-2.52821 13.5739-2.30288 14.7276-2.19022 16.1156-2.19022L16.1156 0 1.86575 0" fill="#D9D9D9" fill-rule="evenodd" transform="matrix(0 -1.00001 1 0 3057.39 767.626)"/><path d="M6.35433-7.49 6.35433-24.6602 1.18975-24.6602 1.18975-26.2826C3.91175-26.2826 5.90816-27.549 7.17904-30.0816 8.44989-32.6144 9.08533-35.3679 9.08533-38.3423L10.897-38.3423 10.897-26.8504 19.6849-26.8504 19.6849-24.6602 10.897-24.6602 10.897-7.62519C10.897-5.91268 11.1854-4.40748 11.7623-3.10957 12.3391-1.81167 13.3756-1.16271 14.8718-1.16271 16.2959-1.16271 17.3234-1.8432 17.9543-3.2042 18.5853-4.5652 18.9008-6.03885 18.9008-7.62519L18.9008-11.3026 20.6853-11.3026 20.6853-7.49C20.6853-6.19209 20.4465-4.9077 19.9689-3.63683 19.4911-2.36598 18.7881-1.32494 17.8597-0.513754 16.9313 0.297436 15.7912 0.703031 14.4392 0.703031 11.9515 0.703031 9.98215-0.0450662 8.53102-1.54126 7.07989-3.03746 6.35433-5.02036 6.35433-7.49" fill="#D9D9D9" fill-rule="evenodd" transform="matrix(0 -1.00001 1 0 3057.39 734.136)"/><path d="M1.62238 0 1.62238-2.19022C3.02844-2.19022 4.19116-2.30288 5.11051-2.52821 6.02986-2.75355 6.48952-3.29884 6.48952-4.16411L6.48952-21.1721C6.48952-22.2897 6.32278-23.0965 5.98929-23.5921 5.6558-24.0879 5.17358-24.3899 4.54267-24.498 3.91175-24.6062 2.93832-24.6602 1.62238-24.6602L1.62238-26.8504 10.5184-27.5265 10.5184-21.4424C11.1854-23.2451 12.1408-24.7097 13.3846-25.8364 14.6285-26.963 16.1337-27.5265 17.9003-27.5265 19.1261-27.5265 20.2257-27.1613 21.1991-26.4312 22.1725-25.7013 22.6593-24.7413 22.6593-23.5516 22.6593-22.7945 22.3933-22.1365 21.8616-21.5777 21.3298-21.0188 20.6673-20.7395 19.8742-20.7395 19.0991-20.7395 18.4365-21.0143 17.8867-21.5641 17.3369-22.1139 17.062-22.7765 17.062-23.5516 17.062-24.6692 17.4585-25.4623 18.2518-25.9311L17.9003-25.9311C16.2058-25.9311 14.8268-25.3226 13.7632-24.1059 12.6996-22.8891 11.947-21.3749 11.5054-19.5632 11.0637-17.7515 10.8429-16.0255 10.8429-14.3851L10.8429-4.16411C10.8429-2.84817 12.8529-2.19022 16.8728-2.19022L16.8728 0 1.62238 0" fill="#D9D9D9" fill-rule="evenodd" transform="matrix(0 -1.00001 1 0 3057.39 709.461)"/><path d="M2.48765-6.11097C2.48765-8.58058 3.46108-10.5951 5.40793-12.1543 7.35479-13.7136 9.69372-14.8087 12.4247-15.4397 15.1557-16.0706 17.747-16.386 20.1987-16.386L20.1987-18.9548C20.1987-20.1445 19.9372-21.2983 19.4146-22.4158 18.8918-23.5336 18.1302-24.4529 17.1296-25.174 16.1292-25.8949 15.0341-26.2556 13.8443-26.2556 11.0863-26.2556 8.98619-25.6336 7.54408-24.3899 8.33724-24.3899 8.99069-24.0924 9.50445-23.4974 10.0182-22.9026 10.2751-22.2175 10.2751-21.4424 10.2751-20.6133 9.98215-19.9057 9.39629-19.3199 8.81043-18.7339 8.1119-18.4411 7.30071-18.4411 6.47149-18.4411 5.76396-18.7339 5.1781-19.3199 4.59225-19.9057 4.29932-20.6133 4.29932-21.4424 4.29932-23.6418 5.29076-25.2731 7.27368-26.3367 9.25658-27.4001 11.4468-27.9319 13.8443-27.9319 15.5208-27.9319 17.2107-27.5715 18.9143-26.8504 20.6178-26.1294 22.0149-25.1018 23.1055-23.7679 24.1961-22.4338 24.7413-20.8746 24.7413-19.0901L24.7413-5.08346C24.7413-4.27227 24.9125-3.52867 25.2551-2.85269 25.5976-2.17669 26.1294-1.8387 26.8504-1.8387 27.5535-1.8387 28.0718-2.17669 28.4052-2.85269 28.7387-3.52867 28.9054-4.26325 28.9054-5.05643L28.9054-9.00422 30.7171-9.00422 30.7171-5.02938C30.7171-4.11003 30.4738-3.22673 29.987-2.37949 29.5003-1.53225 28.8469-0.860763 28.0266-0.365036 27.2065 0.130692 26.3186 0.378555 25.3633 0.378555 24.1554 0.378555 23.11-0.0991455 22.2267-1.05455 21.3433-2.00995 20.8476-3.1366 20.7395-4.43451 19.9824-2.86621 18.8511-1.61787 17.3459-0.689513 15.8407 0.238851 14.2409 0.703031 12.5464 0.703031 10.9601 0.703031 9.40079 0.468687 7.86855 0 6.3363-0.468687 5.05643-1.20327 4.02892-2.20374 3.00141-3.2042 2.48765-4.50662 2.48765-6.11097M7.54408-6.11097C7.54408-4.66886 8.08035-3.45206 9.15293-2.46062 10.2255-1.46916 11.4919-0.973428 12.952-0.973428 14.304-0.973428 15.5253-1.30692 16.6159-1.9739 17.7065-2.64087 18.5763-3.5512 19.2253-4.7049 19.8742-5.8586 20.1987-7.06636 20.1987-8.32822L20.1987-14.7907C18.3058-14.7907 16.3725-14.4797 14.3986-13.8578 12.4247-13.2359 10.7888-12.2715 9.49093-10.9646 8.19303-9.65767 7.54408-8.03979 7.54408-6.11097" fill="#D9D9D9" fill-rule="evenodd" transform="matrix(0 -1.00001 1 0 3057.39 684.608)"/><path d="M6.35433-7.49 6.35433-24.6602 1.18975-24.6602 1.18975-26.2826C3.91175-26.2826 5.90816-27.549 7.17904-30.0816 8.44989-32.6144 9.08533-35.3679 9.08533-38.3423L10.897-38.3423 10.897-26.8504 19.6849-26.8504 19.6849-24.6602 10.897-24.6602 10.897-7.62519C10.897-5.91268 11.1854-4.40748 11.7623-3.10957 12.3391-1.81167 13.3756-1.16271 14.8718-1.16271 16.2959-1.16271 17.3234-1.8432 17.9543-3.2042 18.5853-4.5652 18.9008-6.03885 18.9008-7.62519L18.9008-11.3026 20.6853-11.3026 20.6853-7.49C20.6853-6.19209 20.4465-4.9077 19.9689-3.63683 19.4911-2.36598 18.7881-1.32494 17.8597-0.513754 16.9313 0.297436 15.7912 0.703031 14.4392 0.703031 11.9515 0.703031 9.98215-0.0450662 8.53102-1.54126 7.07989-3.03746 6.35433-5.02036 6.35433-7.49" fill="#D9D9D9" fill-rule="evenodd" transform="matrix(0 -1.00001 1 0 3057.39 652.881)"/><path d="M1.91983 0 1.91983-2.19022C3.3439-2.19022 4.51112-2.30288 5.42145-2.52821 6.33178-2.75355 6.78697-3.29884 6.78697-4.16411L6.78697-21.1721C6.78697-22.7765 6.47601-23.7589 5.85408-24.1194 5.23218-24.4799 4.01089-24.6602 2.19022-24.6602L2.19022-26.8504 11.1674-27.5265 11.1674-4.16411C11.1674-3.29884 11.564-2.75355 12.3571-2.52821 13.1503-2.30288 14.2048-2.19022 15.5208-2.19022L15.5208 0 1.91983 0M4.56971-38.2342C4.56971-39.1534 4.9122-39.9556 5.59722-40.6407 6.28222-41.3256 7.07538-41.6681 7.97671-41.6681 8.55355-41.6681 9.11688-41.5194 9.66669-41.222 10.2165-40.9245 10.6446-40.5008 10.9511-39.951 11.2575-39.4013 11.4107-38.829 11.4107-38.2342 11.4107-37.3507 11.0637-36.5621 10.3697-35.8682 9.6757-35.1741 8.87803-34.8271 7.97671-34.8271 7.07538-34.8271 6.28222-35.1741 5.59722-35.8682 4.9122-36.5621 4.56971-37.3507 4.56971-38.2342" fill="#D9D9D9" fill-rule="evenodd" transform="matrix(0 -1.00001 1 0 3057.39 628.203)"/><path d="M15.5749 0.703031C13.0872 0.703031 10.7753 0.0675992 8.63918-1.20327 6.50304-2.47413 4.81756-4.17313 3.58275-6.30025 2.34794-8.42736 1.73054-10.7528 1.73054-13.2765 1.73054-15.1693 2.07305-16.9989 2.75805-18.7656 3.44305-20.5322 4.41647-22.1094 5.67833-23.4974 6.94019-24.8855 8.41385-25.9716 10.0993-26.7557 11.7848-27.54 13.61-27.9319 15.5749-27.9319 18.1347-27.9319 20.4645-27.256 22.5647-25.9041 24.6647-24.552 26.3231-22.7448 27.54-20.4825 28.7567-18.2202 29.3652-15.8182 29.3652-13.2765 29.3652-10.7708 28.7432-8.44989 27.4993-6.31377 26.2556-4.17763 24.5745-2.47413 22.4565-1.20327 20.3383 0.0675992 18.0445 0.703031 15.5749 0.703031M15.5749-1.16271C18.9098-1.16271 21.1314-2.36598 22.2402-4.7725 23.3488-7.17904 23.9031-10.239 23.9031-13.9525 23.9031-16.0435 23.7949-17.7695 23.5786-19.1306 23.3623-20.4915 22.8756-21.7309 22.1185-22.8485 21.6497-23.5336 21.055-24.1374 20.3338-24.6602 19.6127-25.183 18.8511-25.5796 18.049-25.8499 17.2468-26.1204 16.4221-26.2556 15.5749-26.2556 14.2769-26.2556 13.0466-25.9626 11.8839-25.3768 10.7212-24.7908 9.75231-23.9481 8.97717-22.8485 8.20203-21.6767 7.71081-20.388 7.50351-18.9819 7.29621-17.5759 7.19255-15.8993 7.19255-13.9525 7.19255-11.6271 7.39535-9.5405 7.80094-7.69278 8.20654-5.84507 9.02223-4.2948 10.248-3.04196 11.4738-1.78912 13.2494-1.16271 15.5749-1.16271" fill="#D9D9D9" fill-rule="evenodd" transform="matrix(0 -1.00001 1 0 3057.39 610.577)"/><path d="M1.86575 0 1.86575-2.19022C3.27181-2.19022 4.43451-2.30288 5.35386-2.52821 6.2732-2.75355 6.73289-3.29884 6.73289-4.16411L6.73289-21.1721C6.73289-22.2897 6.56613-23.0965 6.23264-23.5921 5.89915-24.0879 5.41695-24.3899 4.78603-24.498 4.15509-24.6062 3.18167-24.6602 1.86575-24.6602L1.86575-26.8504 10.897-27.5265 10.897-21.4424C11.7262-23.2271 12.9565-24.6872 14.5879-25.8229 16.2193-26.9585 17.9993-27.5265 19.9282-27.5265 22.8125-27.5265 24.9802-26.8369 26.4312-25.4578 27.8824-24.0789 28.6081-21.9742 28.6081-19.1441L28.6081-4.16411C28.6081-3.29884 29.0632-2.75355 29.9735-2.52821 30.8839-2.30288 32.051-2.19022 33.4752-2.19022L33.4752 0 19.1983 0 19.1983-2.19022C20.6223-2.19022 21.7894-2.30288 22.6998-2.52821 23.6101-2.75355 24.0654-3.29884 24.0654-4.16411L24.0654-18.9548C24.0654-20.9738 23.7724-22.6412 23.1865-23.9572 22.6007-25.2731 21.3884-25.9311 19.5497-25.9311 17.1522-25.9311 15.1738-24.9667 13.6145-23.0378 12.0552-21.1089 11.2756-18.9188 11.2756-16.4672L11.2756-4.16411C11.2756-3.29884 11.7352-2.75355 12.6546-2.52821 13.5739-2.30288 14.7276-2.19022 16.1156-2.19022L16.1156 0 1.86575 0" fill="#D9D9D9" fill-rule="evenodd" transform="matrix(0 -1.00001 1 0 3057.39 578.85)"/><path d="M7.35479 15.5749 7.35479-46.7246 15.8723-46.7246 15.8723-44.2369 9.86949-44.2369 9.86949 13.0872 15.8723 13.0872 15.8723 15.5749 7.35479 15.5749" fill="#D9D9D9" fill-rule="evenodd" transform="matrix(0 -1.00001 1 0 3057.39 522.448)"/><path d="M1.86575 0 1.86575-2.19022C3.27181-2.19022 4.43451-2.30288 5.35386-2.52821 6.2732-2.75355 6.73289-3.29884 6.73289-4.16411L6.73289-21.1721C6.73289-22.2897 6.56613-23.0965 6.23264-23.5921 5.89915-24.0879 5.41695-24.3899 4.78603-24.498 4.15509-24.6062 3.18167-24.6602 1.86575-24.6602L1.86575-26.8504 10.897-27.5265 10.897-21.4424C11.7262-23.2271 12.9565-24.6872 14.5879-25.8229 16.2193-26.9585 17.9993-27.5265 19.9282-27.5265 24.7052-27.5265 27.5173-25.5796 28.3646-21.6859 29.1938-23.4344 30.4061-24.845 32.0015-25.9176 33.5969-26.9902 35.3499-27.5265 37.2608-27.5265 39.1534-27.5265 40.7443-27.2245 42.0332-26.6205 43.3221-26.0168 44.2911-25.0883 44.94-23.8354 45.589-22.5827 45.9135-21.0188 45.9135-19.1441L45.9135-4.16411C45.9135-3.29884 46.3731-2.75355 47.2923-2.52821 48.2118-2.30288 49.3745-2.19022 50.7806-2.19022L50.7806 0 36.5036 0 36.5036-2.19022C37.9277-2.19022 39.0948-2.30288 40.0052-2.52821 40.9155-2.75355 41.3708-3.29884 41.3708-4.16411L41.3708-18.9548C41.3708-21.046 41.0778-22.7313 40.4918-24.0112 39.9061-25.2911 38.7028-25.9311 36.8821-25.9311 34.4846-25.9311 32.5063-24.9667 30.9469-23.0378 29.3877-21.1089 28.6081-18.9188 28.6081-16.4672L28.6081-4.16411C28.6081-3.29884 29.0632-2.75355 29.9735-2.52821 30.8839-2.30288 32.051-2.19022 33.4752-2.19022L33.4752 0 19.1983 0 19.1983-2.19022C20.6223-2.19022 21.7894-2.30288 22.6998-2.52821 23.6101-2.75355 24.0654-3.29884 24.0654-4.16411L24.0654-18.9548C24.0654-20.9738 23.7724-22.6412 23.1865-23.9572 22.6007-25.2731 21.3884-25.9311 19.5497-25.9311 17.1522-25.9311 15.1738-24.9667 13.6145-23.0378 12.0552-21.1089 11.2756-18.9188 11.2756-16.4672L11.2756-4.16411C11.2756-3.29884 11.7352-2.75355 12.6546-2.52821 13.5739-2.30288 14.7276-2.19022 16.1156-2.19022L16.1156 0 1.86575 0" fill="#D9D9D9" fill-rule="evenodd" transform="matrix(0 -1.00001 1 0 3057.39 504.822)"/><path d="M15.5749 0.703031C13.0872 0.703031 10.7753 0.0675992 8.63918-1.20327 6.50304-2.47413 4.81756-4.17313 3.58275-6.30025 2.34794-8.42736 1.73054-10.7528 1.73054-13.2765 1.73054-15.1693 2.07305-16.9989 2.75805-18.7656 3.44305-20.5322 4.41647-22.1094 5.67833-23.4974 6.94019-24.8855 8.41385-25.9716 10.0993-26.7557 11.7848-27.54 13.61-27.9319 15.5749-27.9319 18.1347-27.9319 20.4645-27.256 22.5647-25.9041 24.6647-24.552 26.3231-22.7448 27.54-20.4825 28.7567-18.2202 29.3652-15.8182 29.3652-13.2765 29.3652-10.7708 28.7432-8.44989 27.4993-6.31377 26.2556-4.17763 24.5745-2.47413 22.4565-1.20327 20.3383 0.0675992 18.0445 0.703031 15.5749 0.703031M15.5749-1.16271C18.9098-1.16271 21.1314-2.36598 22.2402-4.7725 23.3488-7.17904 23.9031-10.239 23.9031-13.9525 23.9031-16.0435 23.7949-17.7695 23.5786-19.1306 23.3623-20.4915 22.8756-21.7309 22.1185-22.8485 21.6497-23.5336 21.055-24.1374 20.3338-24.6602 19.6127-25.183 18.8511-25.5796 18.049-25.8499 17.2468-26.1204 16.4221-26.2556 15.5749-26.2556 14.2769-26.2556 13.0466-25.9626 11.8839-25.3768 10.7212-24.7908 9.75231-23.9481 8.97717-22.8485 8.20203-21.6767 7.71081-20.388 7.50351-18.9819 7.29621-17.5759 7.19255-15.8993 7.19255-13.9525 7.19255-11.6271 7.39535-9.5405 7.80094-7.69278 8.20654-5.84507 9.02223-4.2948 10.248-3.04196 11.4738-1.78912 13.2494-1.16271 15.5749-1.16271" fill="#D9D9D9" fill-rule="evenodd" transform="matrix(0 -1.00001 1 0 3057.39 451.943)"/><path d="M1.91983 0 1.91983-2.19022C3.3439-2.19022 4.51112-2.30288 5.42145-2.52821 6.33178-2.75355 6.78697-3.29884 6.78697-4.16411L6.78697-36.8821C6.78697-37.9817 6.62021-38.784 6.28672-39.2886 5.95323-39.7934 5.47103-40.0999 4.84011-40.208 4.20917-40.3162 3.23574-40.3702 1.91983-40.3702L1.91983-42.5605 11.1674-43.2365 11.1674-4.16411C11.1674-3.29884 11.6226-2.75355 12.5329-2.52821 13.4432-2.30288 14.6014-2.19022 16.0075-2.19022L16.0075 0 1.91983 0" fill="#D9D9D9" fill-rule="evenodd" transform="matrix(0 -1.00001 1 0 3057.39 420.216)"/><path d="M3.48813 14.331C3.48813 14.2048 3.51516 14.1237 3.56924 14.0877L25.228-45.9674C25.3001-46.2018 25.4398-46.3866 25.6471-46.5217 25.8544-46.6569 26.0842-46.7246 26.3367-46.7246 26.7152-46.7246 27.0172-46.6119 27.2425-46.3866 27.4678-46.1613 27.5805-45.8593 27.5805-45.4808L27.5805-45.2373 5.9217 14.8177C5.68735 15.3225 5.29978 15.5749 4.75898 15.5749 4.39846 15.5749 4.09651 15.4532 3.85315 15.2098 3.6098 14.9665 3.48813 14.6735 3.48813 14.331" fill="#D9D9D9" fill-rule="evenodd" transform="matrix(0 -1.00001 1 0 3057.39 402.59)"/><path d="M1.86575 0 1.86575-2.19022C3.27181-2.19022 4.43451-2.30288 5.35386-2.52821 6.2732-2.75355 6.73289-3.29884 6.73289-4.16411L6.73289-21.1721C6.73289-22.2897 6.56613-23.0965 6.23264-23.5921 5.89915-24.0879 5.41695-24.3899 4.78603-24.498 4.15509-24.6062 3.18167-24.6602 1.86575-24.6602L1.86575-26.8504 10.897-27.5265 10.897-21.4424C11.7262-23.2271 12.9565-24.6872 14.5879-25.8229 16.2193-26.9585 17.9993-27.5265 19.9282-27.5265 24.7052-27.5265 27.5173-25.5796 28.3646-21.6859 29.1938-23.4344 30.4061-24.845 32.0015-25.9176 33.5969-26.9902 35.3499-27.5265 37.2608-27.5265 39.1534-27.5265 40.7443-27.2245 42.0332-26.6205 43.3221-26.0168 44.2911-25.0883 44.94-23.8354 45.589-22.5827 45.9135-21.0188 45.9135-19.1441L45.9135-4.16411C45.9135-3.29884 46.3731-2.75355 47.2923-2.52821 48.2118-2.30288 49.3745-2.19022 50.7806-2.19022L50.7806 0 36.5036 0 36.5036-2.19022C37.9277-2.19022 39.0948-2.30288 40.0052-2.52821 40.9155-2.75355 41.3708-3.29884 41.3708-4.16411L41.3708-18.9548C41.3708-21.046 41.0778-22.7313 40.4918-24.0112 39.9061-25.2911 38.7028-25.9311 36.8821-25.9311 34.4846-25.9311 32.5063-24.9667 30.9469-23.0378 29.3877-21.1089 28.6081-18.9188 28.6081-16.4672L28.6081-4.16411C28.6081-3.29884 29.0632-2.75355 29.9735-2.52821 30.8839-2.30288 32.051-2.19022 33.4752-2.19022L33.4752 0 19.1983 0 19.1983-2.19022C20.6223-2.19022 21.7894-2.30288 22.6998-2.52821 23.6101-2.75355 24.0654-3.29884 24.0654-4.16411L24.0654-18.9548C24.0654-20.9738 23.7724-22.6412 23.1865-23.9572 22.6007-25.2731 21.3884-25.9311 19.5497-25.9311 17.1522-25.9311 15.1738-24.9667 13.6145-23.0378 12.0552-21.1089 11.2756-18.9188 11.2756-16.4672L11.2756-4.16411C11.2756-3.29884 11.7352-2.75355 12.6546-2.52821 13.5739-2.30288 14.7276-2.19022 16.1156-2.19022L16.1156 0 1.86575 0" fill="#D9D9D9" fill-rule="evenodd" transform="matrix(0 -1.00001 1 0 3057.39 370.863)"/><path d="M4.11003-3.35292C4.79503-2.37949 5.70538-1.64942 6.84105-1.16271 7.97671-0.675992 9.20251-0.432635 10.5184-0.432635 12.1949-0.432635 13.3846-1.14919 14.0877-2.58229 14.7907-4.01539 15.1422-5.64228 15.1422-7.46295 15.1422-8.27414 15.0701-9.08983 14.9259-9.91004 14.7817-10.7302 14.5338-11.4919 14.1823-12.1949 13.8308-12.8979 13.3486-13.4613 12.7357-13.8849 12.1228-14.3085 11.3747-14.5203 10.4914-14.5203L7.59816-14.5203C7.34578-14.5203 7.2196-14.6465 7.2196-14.8989L7.2196-15.2774C7.2196-15.4937 7.34578-15.6019 7.59816-15.6019L10.0047-15.7912C11.0142-15.7912 11.8524-16.1742 12.5194-16.9403 13.1863-17.7065 13.6731-18.6348 13.9795-19.7254 14.286-20.816 14.4392-21.8571 14.4392-22.8485 14.4392-24.2185 14.1192-25.3496 13.4793-26.2421 12.8393-27.1343 11.8524-27.5805 10.5184-27.5805 9.41882-27.5805 8.36878-27.3686 7.36831-26.945 6.36785-26.5214 5.57017-25.8949 4.9753-25.0658 5.04741-25.0658 5.10149-25.0703 5.13754-25.0793 5.17358-25.0883 5.21867-25.0928 5.27275-25.0928 5.9217-25.0928 6.46699-24.8675 6.90864-24.4169 7.35029-23.9662 7.57111-23.4254 7.57111-22.7945 7.57111-22.1815 7.35029-21.6497 6.90864-21.1991 6.46699-20.7485 5.9217-20.5232 5.27275-20.5232 4.64181-20.5232 4.10101-20.7485 3.65036-21.1991 3.1997-21.6497 2.97436-22.1815 2.97436-22.7945 2.97436-24.0382 3.34842-25.1153 4.09651-26.0257 4.84461-26.936 5.80452-27.63 6.97624-28.1078 8.14795-28.5854 9.3287-28.8244 10.5184-28.8244 11.4017-28.8244 12.3256-28.6936 13.29-28.4322 14.2544-28.1708 15.1332-27.7968 15.9264-27.3102 16.7195-26.8234 17.3641-26.2014 17.8597-25.4443 18.3555-24.6872 18.6033-23.8219 18.6033-22.8485 18.6033-21.6407 18.333-20.5232 17.7922-19.4956 17.2513-18.4681 16.5077-17.5804 15.5613-16.8322 14.6149-16.0841 13.5829-15.5298 12.4653-15.1693 13.7091-14.9169 14.8944-14.4392 16.021-13.7362 17.1477-13.0331 18.0535-12.1318 18.7385-11.0322 19.4236-9.93257 19.766-8.75184 19.766-7.49 19.766-5.88563 19.3289-4.43901 18.4546-3.15012 17.5804-1.86123 16.4356-0.856257 15.0205-0.135198 13.6055 0.58586 12.1048 0.946389 10.5184 0.946389 9.16646 0.946389 7.80996 0.689513 6.44896 0.175759 5.08796-0.337997 3.97484-1.10863 3.10957-2.13614 2.2443-3.16365 1.81167-4.39846 1.81167-5.84057 1.81167-6.56163 2.05052-7.16101 2.52821-7.6387 3.00591-8.1164 3.60528-8.35527 4.32635-8.35527 4.79503-8.35527 5.22317-8.24711 5.61074-8.03079 5.99831-7.81447 6.30025-7.50801 6.51657-7.11144 6.73289-6.71485 6.84105-6.29124 6.84105-5.84057 6.84105-5.13754 6.59318-4.54716 6.09745-4.06947 5.60172-3.59177 5.01135-3.35292 4.32635-3.35292L4.11003-3.35292" fill="#D9D9D9" fill-rule="evenodd" transform="matrix(0 -1.00001 1 0 3034.36 317.984)"/><path d="M1.37902 15.5749 1.37902 13.0872 7.43592 13.0872 7.43592-44.2369 1.37902-44.2369 1.37902-46.7246 9.92357-46.7246 9.92357 15.5749 1.37902 15.5749" fill="#D9D9D9" fill-rule="evenodd" transform="matrix(0 -1.00001 1 0 3057.39 292.602)"/><path d="M8.3823-1.64942C8.3823-1.93784 8.48144-2.20824 8.67974-2.46062L20.5502-14.2769 8.67974-26.1474C8.48144-26.3457 8.3823-26.598 8.3823-26.9045 8.3823-27.1928 8.49496-27.4543 8.72029-27.6886 8.94562-27.9229 9.22054-28.0401 9.54501-28.0401 9.79738-28.0401 10.0858-27.9229 10.4103-27.6886L22.2267-15.8723 33.9888-27.6886C34.3133-27.9229 34.5928-28.0401 34.8271-28.0401 35.1516-28.0401 35.4221-27.9319 35.6384-27.7156 35.8547-27.4993 35.9629-27.229 35.9629-26.9045 35.9629-26.598 35.8727-26.3457 35.6924-26.1474L23.8219-14.2769 35.6924-2.46062C35.8727-2.20824 35.9629-1.93784 35.9629-1.64942 35.9629-1.32494 35.8547-1.05455 35.6384-0.83823 35.4221-0.621912 35.1516-0.513754 34.8271-0.513754 34.5568-0.513754 34.2773-0.648952 33.9888-0.919349L22.2267-12.6816 10.4103-0.919349C10.1219-0.648952 9.83343-0.513754 9.54501-0.513754 9.22054-0.513754 8.94562-0.630925 8.72029-0.86527 8.49496-1.09961 8.3823-1.361 8.3823-1.64942" fill="#D9D9D9" fill-rule="evenodd" transform="matrix(1 0 0 1.00001 3131 106.642)"/><path d="M21.2803 0 16.2509 0 16.2509-31.988C15.0431-30.8342 13.4613-29.6805 11.5054-28.5269 9.54951-27.3731 7.78743-26.5079 6.21912-25.9311L6.21912-30.7982C9.03125-32.1141 11.4874-33.7095 13.5874-35.5842 15.6875-37.4589 17.1702-39.2796 18.0355-41.0463L21.2803-41.0463 21.2803 0M33.5292-20.1717C33.5292-25.0027 34.025-28.8919 35.0164-31.8391 36.0078-34.7866 37.4861-37.0579 39.4509-38.6531 41.4158-40.2485 43.8854-41.0463 46.8597-41.0463 49.0409-41.0463 50.9607-40.6045 52.6193-39.7212 54.2777-38.838 55.6431-37.5626 56.7156-35.8952 57.7882-34.2276 58.6355-32.1998 59.2575-29.8113 59.8794-27.4228 60.1904-24.2095 60.1904-20.1717 60.1904-15.3766 59.6946-11.5054 58.7032-8.55805 57.7117-5.61074 56.238-3.33039 54.2822-1.71702 52.3263-0.103652 49.8522 0.703031 46.8597 0.703031 42.912 0.703031 39.8114-0.712044 37.5581-3.54221 34.8721-6.9492 33.5292-12.4923 33.5292-20.1717M38.6668-20.1717C38.6668-13.4477 39.4554-8.97717 41.0326-6.75992 42.61-4.54267 44.5524-3.43405 46.8597-3.43405 49.149-3.43405 51.0824-4.54716 52.6598-6.77343 54.237-8.9997 55.0258-13.4658 55.0258-20.1717 55.0258-26.8955 54.237-31.3615 52.6598-33.5697 51.0824-35.778 49.131-36.8821 46.8057-36.8821 44.4982-36.8821 42.6505-35.9087 41.2626-33.9618 39.5321-31.4742 38.6668-26.8775 38.6668-20.1717" fill="#D9D9D9" fill-rule="evenodd" transform="matrix(1 0 0 1.00001 3175.99 106.642)"/><path d="M1.4331-9.6802 1.4331-13.655 13.5739-13.655 13.5739-9.6802 1.4331-9.6802M17.4677-8.49046 21.4154-9.03125C21.8661-6.79597 22.6367-5.1826 23.7272-4.19116 24.8178-3.1997 26.1474-2.70397 27.7156-2.70397 29.5905-2.70397 31.1677-3.34842 32.4476-4.63731 33.7275-5.9262 34.3675-7.52605 34.3675-9.43685 34.3675-11.2395 33.7725-12.7312 32.5828-13.9119 31.393-15.0926 29.8878-15.683 28.0673-15.683 27.3102-15.683 26.3727-15.5388 25.2551-15.2504L25.7148-18.7115C25.9671-18.6935 26.1744-18.6845 26.3367-18.6845 28.0311-18.6845 29.5498-19.1216 30.8929-19.9959 32.2358-20.8701 32.9072-22.2267 32.9072-24.0654 32.9072-25.5075 32.4161-26.7062 31.4337-27.6616 30.4513-28.6171 29.1848-29.0947 27.6346-29.0947 26.1022-29.0947 24.8225-28.6126 23.7949-27.6481 22.7675-26.6837 22.1094-25.228 21.8211-23.2811L17.8732-23.9842C18.342-26.634 19.4326-28.6891 21.1451-30.1493 22.8575-31.6093 24.9937-32.3395 27.5535-32.3395 29.302-32.3395 30.9154-31.961 32.3936-31.2039 33.8717-30.4468 35.0029-29.4192 35.787-28.1213 36.5711-26.8234 36.9633-25.4353 36.9633-23.9572 36.9633-22.5692 36.5936-21.3073 35.8547-20.1717 35.1156-19.0359 34.0068-18.1257 32.5288-17.4405 34.4395-17.008 35.9222-16.0976 36.9768-14.7096 38.0314-13.3216 38.5587-11.591 38.5587-9.51797 38.5587-6.70584 37.5311-4.32185 35.4761-2.36598 33.421-0.410101 30.8342 0.567833 27.7156 0.567833 24.8855 0.567833 22.5375-0.274903 20.6718-1.96037 18.8061-3.64585 17.738-5.82254 17.4677-8.49046" fill="#D9D9D9" fill-rule="evenodd" transform="matrix(1 0 0 1.00001 3238.29 78.9527)"/><path d="M2.2443-14.5203 11.0052-15.3585C11.5459-12.4202 12.6185-10.2616 14.2229-8.88253 15.8272-7.50351 17.9993-6.814 20.7395-6.814 23.6418-6.814 25.8274-7.4269 27.2965-8.6527 28.7657-9.87849 29.5003-11.3116 29.5003-12.952 29.5003-14.0156 29.1938-14.9169 28.5809-15.656 27.9681-16.3951 26.8865-17.035 25.3361-17.5759 24.2907-17.9543 21.893-18.6033 18.1437-19.5227 13.3125-20.7305 9.92357-22.1995 7.97671-23.9301 5.23668-26.3997 3.86668-29.3922 3.86668-32.9072 3.86668-35.1786 4.51112-37.3058 5.80001-39.2886 7.08889-41.2716 8.94562-42.7768 11.3702-43.8043 13.7947-44.8319 16.7195-45.3455 20.1445-45.3455 25.7328-45.3455 29.942-44.1197 32.7721-41.6681 35.6022-39.2166 37.0894-35.9447 37.2336-31.8528L28.2294-31.4472C27.8509-33.7365 27.0262-35.3859 25.7553-36.3955 24.4844-37.4049 22.5782-37.9097 20.0364-37.9097 17.4225-37.9097 15.3766-37.3689 13.8984-36.2873 12.943-35.6022 12.4653-34.6829 12.4653-33.5292 12.4653-32.4656 12.9159-31.5643 13.8173-30.8252 14.9529-29.8698 17.711-28.8739 22.0914-27.8373 26.4719-26.8009 29.7121-25.7283 31.8122-24.6197 33.9123-23.5109 35.5527-22.0012 36.7335-20.0905 37.9142-18.1797 38.5045-15.8092 38.5045-12.979 38.5045-10.4373 37.7969-8.04881 36.3818-5.81354 34.9668-3.57825 32.9614-1.91983 30.3656-0.83823 27.7698 0.243357 24.534 0.784151 20.6583 0.784151 15.016 0.784151 10.6852-0.51826 7.66575-3.12309 4.64632-5.72791 2.83917-9.52698 2.2443-14.5203M64.7059-10.2751 73.2234-8.84198C72.1418-5.72339 70.4158-3.34842 68.0453-1.71702 65.6748-0.0856257 62.723 0.730071 59.1898 0.730071 53.5655 0.730071 49.4015-1.10863 46.6976-4.78603 44.5704-7.72433 43.5068-11.4288 43.5068-15.8993 43.5068-21.2533 44.9084-25.4488 47.7115-28.4862 50.5146-31.5237 54.0523-33.0426 58.3245-33.0426 63.1377-33.0426 66.9322-31.4562 69.7084-28.2836 72.4843-25.1108 73.8092-20.2437 73.6831-13.6821L52.2676-13.6821C52.3398-11.1584 53.0338-9.18899 54.3498-7.77391 55.6657-6.35883 57.3061-5.6513 59.271-5.6513 60.6049-5.6513 61.7271-6.01632 62.6374-6.7464 63.5478-7.47647 64.2373-8.6527 64.7059-10.2751M65.1927-18.9278C65.1385-21.3974 64.5031-23.2766 63.2863-24.5655 62.0696-25.8544 60.5869-26.4989 58.8383-26.4989 56.9816-26.4989 55.4404-25.8229 54.2145-24.4709 53.0068-23.101 52.412-21.2533 52.43-18.9278L65.1927-18.9278M109.997 0 101.453 0 101.453-16.4942C101.453-19.9734 101.273-22.2267 100.912-23.2541 100.552-24.2817 99.9566-25.0793 99.1275-25.6471 98.2983-26.2149 97.3068-26.4989 96.1531-26.4989 94.6749-26.4989 93.35-26.0932 92.1782-25.2821 91.0065-24.4709 90.1998-23.3938 89.7582-22.0509 89.3166-20.7078 89.0958-18.2338 89.0958-14.6285L89.0958 0 80.5512 0 80.5512-32.3125 88.5008-32.3125 88.5008-27.5535C91.3129-31.2129 94.8642-33.0426 99.1545-33.0426 101.029-33.0426 102.746-32.6999 104.305-32.015 105.865-31.33 107.046-30.4603 107.848-29.4057 108.65-28.3511 109.209-27.1568 109.524-25.8229 109.84-24.4889 109.997-22.5782 109.997-20.0905L109.997 0M115.676-9.22054 124.247-10.5184C124.626-8.86 125.369-7.59816 126.478-6.73289 127.587-5.86762 129.15-5.43498 131.169-5.43498 133.369-5.43498 135.027-5.84057 136.145-6.65176 136.902-7.2286 137.28-7.99473 137.28-8.95014 137.28-9.59909 137.073-10.1309 136.659-10.5455 136.244-10.9601 135.298-11.3386 133.819-11.6811 126.915-13.1954 122.544-14.5834 120.705-15.8452 118.145-17.5939 116.866-20.0184 116.866-23.119 116.866-25.9131 117.97-28.2654 120.178-30.1763 122.386-32.0871 125.816-33.0426 130.466-33.0426 134.883-33.0426 138.168-32.3214 140.322-30.8794 142.477-29.4372 143.959-27.3102 144.771-24.498L136.686-23.0108C136.343-24.2545 135.69-25.2145 134.725-25.8904 133.761-26.5665 132.386-26.9045 130.602-26.9045 128.366-26.9045 126.762-26.589 125.789-25.9581 125.14-25.5075 124.815-24.9307 124.815-24.2275 124.815-23.6146 125.095-23.092 125.653-22.6593 126.429-22.1004 129.092-21.3028 133.644-20.2662 138.195-19.2298 141.372-17.9633 143.175-16.4672 144.96-14.9349 145.852-12.8168 145.852-10.1128 145.852-7.13847 144.617-4.58773 142.148-2.46062 139.678-0.333489 136.019 0.730071 131.169 0.730071 126.771 0.730071 123.287-0.162238 120.719-1.94686 118.15-3.73147 116.469-6.15603 115.676-9.22054M151.314-16.6024C151.314-19.4506 152.017-22.204 153.423-24.863 154.829-27.5218 156.812-29.5498 159.372-30.9469 161.932-32.3439 164.798-33.0426 167.97-33.0426 172.856-33.0426 176.858-31.4562 179.976-28.2836 183.094-25.1108 184.654-21.0999 184.654-16.2509 184.654-11.3657 183.077-7.31423 179.922-4.09651 176.768-0.87879 172.802 0.730071 168.025 0.730071 165.068 0.730071 162.247 0.058586 159.561-1.28439 156.875-2.62736 154.829-4.58773 153.423-7.16552 152.017-9.7433 151.314-12.8889 151.314-16.6024M160.075-16.1427C160.075-12.952 160.836-10.5049 162.36-8.80142 163.883-7.09791 165.762-6.24617 167.997-6.24617 170.233-6.24617 172.103-7.09791 173.608-8.80142 175.113-10.5049 175.866-12.979 175.866-16.2238 175.866-19.3784 175.113-21.8076 173.608-23.5109 172.103-25.2145 170.233-26.0662 167.997-26.0662 165.762-26.0662 163.883-25.2145 162.36-23.5109 160.836-21.8076 160.075-19.3514 160.075-16.1427M199.554 0 191.008 0 191.008-32.3125 198.958-32.3125 198.958-27.7156C200.31-29.8788 201.526-31.3074 202.608-32.0015 203.69-32.6954 204.925-33.0426 206.313-33.0426 208.26-33.0426 210.134-32.5018 211.937-31.4202L209.288-23.9842C207.845-24.9035 206.51-25.3633 205.285-25.3633 204.077-25.3633 203.06-25.0342 202.229-24.3762 201.4-23.7183 200.748-22.5285 200.27-20.807 199.792-19.0854 199.554-15.4757 199.554-9.97765L199.554 0M232.974 0 232.974-44.5884 247.413-44.5884C252.892-44.5884 256.462-44.3721 258.12-43.9394 260.68-43.2545 262.82-41.7942 264.542-39.5591 266.264-37.3237 267.124-34.4305 267.124-30.8794 267.124-28.1393 266.629-25.8364 265.638-23.9707 264.646-22.1049 263.385-20.6403 261.853-19.5767 260.32-18.5131 258.761-17.8102 257.174-17.4677 255.03-17.035 251.92-16.8187 247.846-16.8187L241.978-16.8187 241.978 0 232.974 0M241.978-37.0444 241.978-24.3899 246.899-24.3899C250.451-24.3899 252.825-24.6242 254.024-25.0928 255.223-25.5614 256.16-26.2916 256.836-27.283 257.513-28.2744 257.85-29.4282 257.85-30.7441 257.85-32.3664 257.373-33.705 256.417-34.7594 255.462-35.814 254.254-36.4765 252.794-36.747 251.731-36.9453 249.577-37.0444 246.332-37.0444L241.978-37.0444M282.943-44.5884 282.943-28.2024C285.702-31.4292 289-33.0426 292.84-33.0426 294.804-33.0426 296.58-32.6774 298.167-31.9473 299.754-31.2174 300.948-30.2844 301.749-29.1489 302.552-28.0131 303.097-26.7557 303.386-25.3768 303.673-23.9977 303.819-21.8571 303.819-18.9548L303.819 0 295.273 0 295.273-17.062C295.273-20.451 295.111-22.6007 294.787-23.5109 294.462-24.4214 293.891-25.147 293.07-25.6878 292.25-26.2286 291.217-26.4989 289.974-26.4989 288.567-26.4989 287.306-26.1519 286.188-25.4578 285.07-24.7638 284.25-23.7227 283.727-22.3349 283.204-20.9468 282.943-18.9008 282.943-16.1968L282.943 0 274.399 0 274.399-44.5884 282.943-44.5884M318.905-22.443 311.146-23.8491C312.011-26.9675 313.506-29.2795 315.635-30.7847 317.762-32.29 320.925-33.0426 325.125-33.0426 328.946-33.0426 331.791-32.5918 333.657-31.6905 335.522-30.7892 336.834-29.6445 337.59-28.2564 338.348-26.8683 338.725-24.3177 338.725-20.6043L338.646-10.6266C338.646-7.77841 338.781-5.68283 339.051-4.33986 339.321-2.9969 339.835-1.55027 340.593 0L332.129 0C331.912-0.576846 331.642-1.41508 331.317-2.5147 331.173-3.03746 331.064-3.37997 330.993-3.54221 329.533-2.11811 327.973-1.05004 326.316-0.337997 324.656 0.374049 322.881 0.730071 320.987 0.730071 317.672 0.730071 315.053-0.171251 313.132-1.9739 311.213-3.77654 310.253-6.05689 310.253-8.81493 310.253-10.6536 310.691-12.285 311.565-13.7091 312.438-15.1332 313.66-16.2283 315.228-16.9944 316.798-17.7605 319.068-18.423 322.043-18.9819 326.027-19.739 328.794-20.442 330.344-21.0909L330.344-21.9292C330.344-23.5696 329.938-24.7413 329.128-25.4443 328.316-26.1474 326.783-26.4989 324.53-26.4989 322.998-26.4989 321.808-26.2014 320.961-25.6066 320.113-25.0117 319.428-23.9572 318.905-22.443M330.344-15.5208C329.244-15.1602 327.51-14.7231 325.139-14.2094 322.768-13.6956 321.214-13.1954 320.475-12.7086 319.357-11.9155 318.798-10.915 318.798-9.70725 318.798-8.51751 319.245-7.48548 320.136-6.6112 321.029-5.73691 322.169-5.29978 323.557-5.29978 325.089-5.29978 326.558-5.80452 327.965-6.814 328.991-7.58914 329.668-8.53552 329.993-9.65317 330.227-10.3742 330.344-11.7623 330.344-13.8173L330.344-15.5208M344.107-9.22054 352.679-10.5184C353.058-8.86 353.8-7.59816 354.909-6.73289 356.019-5.86762 357.581-5.43498 359.601-5.43498 361.8-5.43498 363.458-5.84057 364.576-6.65176 365.332-7.2286 365.711-7.99473 365.711-8.95014 365.711-9.59909 365.504-10.1309 365.09-10.5455 364.675-10.9601 363.728-11.3386 362.25-11.6811 355.347-13.1954 350.976-14.5834 349.136-15.8452 346.577-17.5939 345.296-20.0184 345.296-23.119 345.296-25.9131 346.4-28.2654 348.608-30.1763 350.817-32.0871 354.247-33.0426 358.898-33.0426 363.315-33.0426 366.599-32.3214 368.754-30.8794 370.908-29.4372 372.391-27.3102 373.201-24.498L365.116-23.0108C364.773-24.2545 364.121-25.2145 363.157-25.8904 362.191-26.5665 360.817-26.9045 359.033-26.9045 356.797-26.9045 355.193-26.589 354.221-25.9581 353.572-25.5075 353.246-24.9307 353.246-24.2275 353.246-23.6146 353.525-23.092 354.084-22.6593 354.859-22.1004 357.522-21.3028 362.076-20.2662 366.627-19.2298 369.804-17.9633 371.606-16.4672 373.392-14.9349 374.283-12.8168 374.283-10.1128 374.283-7.13847 373.049-4.58773 370.579-2.46062 368.11-0.333489 364.45 0.730071 359.601 0.730071 355.202 0.730071 351.718-0.162238 349.15-1.94686 346.58-3.73147 344.9-6.15603 344.107-9.22054M400.431-10.2751 408.949-8.84198C407.867-5.72339 406.14-3.34842 403.769-1.71702 401.4-0.0856257 398.448 0.730071 394.914 0.730071 389.29 0.730071 385.126-1.10863 382.421-4.78603 380.295-7.72433 379.232-11.4288 379.232-15.8993 379.232-21.2533 380.634-25.4488 383.436-28.4862 386.239-31.5237 389.776-33.0426 394.049-33.0426 398.862-33.0426 402.657-31.4562 405.432-28.2836 408.208-25.1108 409.534-20.2437 409.407-13.6821L387.992-13.6821C388.065-11.1584 388.759-9.18899 390.074-7.77391 391.391-6.35883 393.031-5.6513 394.996-5.6513 396.33-5.6513 397.451-6.01632 398.361-6.7464 399.272-7.47647 399.962-8.6527 400.431-10.2751M400.917-18.9278C400.864-21.3974 400.227-23.2766 399.01-24.5655 397.794-25.8544 396.311-26.4989 394.563-26.4989 392.706-26.4989 391.164-25.8229 389.939-24.4709 388.731-23.101 388.136-21.2533 388.155-18.9278L400.917-18.9278M453.699 0 445.154 0 445.154-32.2043C442.018-29.284 438.332-27.1298 434.095-25.7418L434.095-33.5022C436.329-34.2231 438.754-35.6022 441.369-37.6392 443.982-39.6762 445.776-42.0557 446.749-44.7777L453.699-44.7777 453.699 0" fill="#D9D9D9" fill-rule="evenodd" transform="matrix(1 0 0 1.00001 3511.71 93.0133)"/><path d="M186.898 1085.05 193.647 1085.05 200.396 1085.05 207.146 1085.05 213.895 1085.05 220.644 1085.05 227.393 1085.05 234.142 1085.05 240.891 1085.05 247.64 1085.05 254.389 1085.05 261.138 1085.05 267.887 1085.05 274.637 1085.05 281.386 1085.05 288.135 1085.05 294.884 1085.05 301.633 1085.05 308.382 1085.05 315.131 1085.05 321.88 1085.05 328.629 1085.05 335.378 1085.05 342.128 1085.05 348.877 1085.05 355.626 1085.05 362.375 1085.05 369.124 1085.05 375.873 1085.05 382.622 1085.05 389.371 1085.05 396.12 1085.05 402.87 1085.05 409.619 1085.04 416.368 1084.99 423.117 1084.8 429.866 1084.16 436.615 1082.23 443.364 1077.2 450.113 1065.74 456.862 1042.77 463.611 1002.03 470.361 937.944 477.11 848.475 483.859 737.31 490.608 614.291 497.357 493.082 504.106 386.703 510.855 303.519 517.604 246.257 524.353 212.964 531.102 199.327 537.852 201.348 544.601 216.76 551.35 244.831 558.099 285.245 564.848 336.848 571.597 397.043 578.346 462.057 585.095 527.745 591.844 590.5 598.593 647.858 605.343 698.712 612.092 743.068 618.841 781.631 625.59 815.382 632.339 845.242 639.088 871.908 645.837 895.855 652.586 917.361 659.335 936.542 666.084 953.371 672.834 967.659 679.583 979.049 686.332 986.999 693.081 990.792 699.83 989.612 706.579 982.697 713.328 969.469 720.077 949.67 726.826 923.483 733.576 891.62 740.325 855.317 747.074 816.266 753.823 776.477 760.572 738.061 767.321 702.936 774.07 672.617 780.819 648.132 787.568 630.072 794.317 618.709 801.067 614.026 807.816 615.733 814.565 623.292 821.314 635.971 828.063 652.901 834.812 673.121 841.561 695.658 848.31 719.582 855.059 744.071 861.808 768.442 868.558 792.18 875.307 814.911 882.056 836.392 888.805 856.468 895.554 875.042 902.303 892.034 909.052 907.358 915.801 920.899 922.55 932.517 929.299 942.022 936.049 949.192 942.798 953.788 949.547 955.579 956.296 954.365 963.045 950.017 969.794 942.523 976.543 932.003 983.292 918.719 990.041 903.08 996.791 885.641 1003.54 867.057 1010.29 848.066 1017.04 829.472 1023.79 812.052 1030.54 796.489 1037.29 783.323 1044.03 772.94 1050.78 765.575 1057.53 761.313 1064.28 760.129 1071.03 761.91 1077.78 766.471 1084.53 773.534 1091.28 782.737 1098.03 793.698 1104.78 806.019 1111.53 819.312 1118.27 833.218 1125.02 847.435 1131.77 861.705 1138.52 875.817 1145.27 889.606 1152.02 902.94 1158.77 915.727 1165.52 927.906 1172.27 939.323 1179.02 950.066 1185.77 960.146 1192.51 969.564 1199.26 978.353 1206.01 986.535 1212.76 994.139 1219.51 1001.18 1226.26 1007.7 1233.01 1013.73 1239.76 1019.3 1246.51 1024.45 1253.26 1029.18 1260.01 1033.54 1266.75 1037.54 1273.5 1041.23 1280.25 1044.61 1287 1047.71 1293.75 1050.54 1300.5 1053.15 1307.25 1055.54 1314 1057.73 1320.75 1059.74 1327.5 1061.58 1334.25 1063.27 1340.99 1064.82 1347.74 1066.25 1354.49 1067.55 1361.24 1068.76 1367.99 1069.87 1374.74 1070.89 1381.49 1071.84 1388.24 1072.71 1394.99 1073.52 1401.74 1074.26" stroke="#268CDD" stroke-width="4.61478" stroke-linejoin="round" fill="none" fill-rule="evenodd" transform="matrix(1 0 0 1.00001 2949.29 7.9999)"/><path d="M542.64 199.327C542.64 192.955 537.474 187.789 531.102 187.789 524.731 187.789 519.565 192.955 519.565 199.327 519.565 205.699 524.731 210.863 531.102 210.863 537.474 210.863 542.64 205.699 542.64 199.327" stroke="#FFFFFF" stroke-width="4.61478" stroke-miterlimit="2" fill="none" fill-rule="evenodd" transform="matrix(1 0 0 1.00001 2949.29 7.9999)"/><path d="M812.604 614.026C812.604 607.655 807.438 602.489 801.067 602.489 794.695 602.489 789.529 607.655 789.529 614.026 789.529 620.398 794.695 625.564 801.067 625.564 807.438 625.564 812.604 620.398 812.604 614.026" stroke="#FFFFFF" stroke-width="4.61478" stroke-miterlimit="2" fill="none" fill-rule="evenodd" transform="matrix(1 0 0 1.00001 2949.29 7.9999)"/><path d="M1075.82 760.129C1075.82 753.757 1070.65 748.591 1064.28 748.591 1057.91 748.591 1052.74 753.757 1052.74 760.129 1052.74 766.501 1057.91 771.665 1064.28 771.665 1070.65 771.665 1075.82 766.501 1075.82 760.129" stroke="#FFFFFF" stroke-width="4.61478" stroke-miterlimit="2" fill="none" fill-rule="evenodd" transform="matrix(1 0 0 1.00001 2949.29 7.9999)"/><text fill="#FFFFFF" font-family="Aptos,Aptos_MSFontService,sans-serif" font-weight="400" font-size="83" transform="matrix(1 0 0 1 3552 468)">20 s</text><path d="M3807.25 547.135 4031.76 547.136 4031.76 552.865 3807.25 552.865ZM3811.83 572.917 3766 550 3811.83 527.083ZM4027.18 527.084 4073.01 550 4027.18 572.917Z" fill="#FFFFFF"/><text fill="#FFFFFF" font-family="Aptos,Aptos_MSFontService,sans-serif" font-weight="400" font-size="83" transform="matrix(1 0 0 1 3814.71 473)">19.5 s</text><path d="M3526.29 542.855 3725.08 546.324 3724.98 552.053 3526.19 548.584ZM3530.43 568.713 3485 545 3531.23 522.886ZM3720.85 526.195 3766.27 549.908 3720.05 572.022Z" fill="#FFFFFF"/></g></svg>