<svg width="1392" height="1200" xmlns="http://www.w3.org/2000/svg" xmlns:xlink="http://www.w3.org/1999/xlink" xml:space="preserve" overflow="hidden"><defs><clipPath id="clip0"><rect x="3004" y="1264" width="1392" height="1200"/></clipPath></defs><g clip-path="url(#clip0)" transform="translate(-3004 -1264)"><path d="M0 0 1391.67 0 1391.67 1200 0 1200 0 0" fill-rule="evenodd" transform="matrix(1.00024 0 0 1 3004.28 1264)"/><path d="M3237.67 1349 3237.67 2309 4351.27 2309 4351.27 1349 3237.67 1349" fill="#121212" fill-rule="evenodd"/><path d="M233.333 85 233.333 1045" stroke="#FFFFFF" stroke-width="1.11111" stroke-linejoin="round" stroke-opacity="0.25098" fill="none" fill-rule="evenodd" transform="matrix(1.00024 0 0 1 3004.28 1264)"/><path d="M480.74 85 480.74 1045" stroke="#FFFFFF" stroke-width="1.11111" stroke-linejoin="round" stroke-opacity="0.25098" fill="none" fill-rule="evenodd" transform="matrix(1.00024 0 0 1 3004.28 1264)"/><path d="M728.148 85 728.148 1045" stroke="#FFFFFF" stroke-width="1.11111" stroke-linejoin="round" stroke-opacity="0.25098" fill="none" fill-rule="evenodd" transform="matrix(1.00024 0 0 1 3004.28 1264)"/><path d="M975.555 85 975.555 1045" stroke="#FFFFFF" stroke-width="1.11111" stroke-linejoin="round" stroke-opacity="0.25098" fill="none" fill-rule="evenodd" transform="matrix(1.00024 0 0 1 3004.28 1264)"/><path d="M1222.96 85 1222.96 1045" stroke="#FFFFFF" stroke-width="1.11111" stroke-linejoin="round" stroke-opacity="0.25098" fill="none" fill-rule="evenodd" transform="matrix(1.00024 0 0 1 3004.28 1264)"/><path d="M233.333 1045 1346.67 1045" stroke="#FFFFFF" stroke-width="1.11111" stroke-linejoin="round" stroke-opacity="0.25098" fill="none" fill-rule="evenodd" transform="matrix(1.00024 0 0 1 3004.28 1264)"/><path d="M233.333 900.96 1346.67 900.96" stroke="#FFFFFF" stroke-width="1.11111" stroke-linejoin="round" stroke-opacity="0.25098" fill="none" fill-rule="evenodd" transform="matrix(1.00024 0 0 1 3004.28 1264)"/><path d="M233.333 756.92 1346.67 756.92" stroke="#FFFFFF" stroke-width="1.11111" stroke-linejoin="round" stroke-opacity="0.25098" fill="none" fill-rule="evenodd" transform="matrix(1.00024 0 0 1 3004.28 1264)"/><path d="M233.333 612.88 1346.67 612.88" stroke="#FFFFFF" stroke-width="1.11111" stroke-linejoin="round" stroke-opacity="0.25098" fill="none" fill-rule="evenodd" transform="matrix(1.00024 0 0 1 3004.28 1264)"/><path d="M233.333 468.84 1346.67 468.84" stroke="#FFFFFF" stroke-width="1.11111" stroke-linejoin="round" stroke-opacity="0.25098" fill="none" fill-rule="evenodd" transform="matrix(1.00024 0 0 1 3004.28 1264)"/><path d="M233.333 324.8 1346.67 324.8" stroke="#FFFFFF" stroke-width="1.11111" stroke-linejoin="round" stroke-opacity="0.25098" fill="none" fill-rule="evenodd" transform="matrix(1.00024 0 0 1 3004.28 1264)"/><path d="M233.333 180.76 1346.67 180.76" stroke="#FFFFFF" stroke-width="1.11111" stroke-linejoin="round" stroke-opacity="0.25098" fill="none" fill-rule="evenodd" transform="matrix(1.00024 0 0 1 3004.28 1264)"/><path d="M10.1302 0 10.1302-2.10938C12.1441-2.10938 14.0972-2.22222 15.9896-2.44792 17.882-2.67362 18.8282-3.19445 18.8282-4.01042L18.8282-36.9792C18.8282-37.8298 18.5893-38.3593 18.112-38.5677 17.6345-38.776 16.8577-38.8802 15.7813-38.8802L13.2813-38.8802C9.98263-38.8802 7.63888-38.1597 6.25-36.7188 5.52083-35.9897 5-34.8307 4.6875-33.2422 4.375-31.6537 4.11458-29.6528 3.90625-27.2397L2.16147-27.2397 3.3073-40.9897 39.974-40.9897 41.0938-27.2397 39.349-27.2397C39.1058-29.8263 38.8455-31.875 38.5677-33.3855 38.29-34.8958 37.7778-36.007 37.0313-36.7188 35.625-38.1597 33.2813-38.8802 30-38.8802L27.474-38.8802C26.7622-38.8802 26.2067-38.8498 25.8073-38.789 25.408-38.7283 25.0782-38.559 24.8177-38.2813 24.5573-38.0035 24.4272-37.5695 24.4272-36.9792L24.4272-4.01042C24.4272-3.19445 25.3777-2.67362 27.2787-2.44792 29.1797-2.22222 31.1198-2.10938 33.099-2.10938L33.099 0 10.1302 0" fill="#D9D9D9" fill-rule="evenodd" transform="matrix(1.00024 0 0 1 3685.63 2439.78)"/><path d="M1.84897 0 1.84897-2.10938C3.22048-2.10938 4.34462-2.21788 5.22135-2.4349 6.09808-2.65192 6.53647-3.17708 6.53647-4.01042L6.53647-20.3907C6.53647-21.9358 6.23698-22.882 5.63802-23.2292 5.03907-23.5763 3.86285-23.75 2.10938-23.75L2.10938-25.8593 10.7552-26.5105 10.7552-4.01042C10.7552-3.17708 11.1372-2.65192 11.9011-2.4349 12.6649-2.21788 13.6806-2.10938 14.9479-2.10938L14.9479 0 1.84897 0M4.40105-36.823C4.40105-37.7083 4.7309-38.4808 5.39063-39.1407 6.05035-39.8003 6.81423-40.1302 7.6823-40.1302 8.23785-40.1302 8.78038-39.987 9.3099-39.7005 9.83942-39.414 10.2517-39.006 10.5469-38.4765 10.842-37.947 10.9896-37.3958 10.9896-36.823 10.9896-35.9722 10.6554-35.2127 9.98698-34.5443 9.31858-33.8758 8.55035-33.5417 7.6823-33.5417 6.81423-33.5417 6.05035-33.8758 5.39063-34.5443 4.7309-35.2127 4.40105-35.9722 4.40105-36.823" fill="#D9D9D9" fill-rule="evenodd" transform="matrix(1.00024 0 0 1 3729.78 2439.78)"/><path d="M1.79688 0 1.79688-2.10938C3.15105-2.10938 4.27083-2.21788 5.15625-2.4349 6.04167-2.65192 6.48438-3.17708 6.48438-4.01042L6.48438-20.3907C6.48438-21.467 6.32378-22.244 6.0026-22.7213 5.68142-23.1988 5.21702-23.4897 4.60938-23.5938 4.00173-23.698 3.06423-23.75 1.79688-23.75L1.79688-25.8593 10.4948-26.5105 10.4948-20.651C11.2934-22.3698 12.4783-23.776 14.0495-24.8698 15.6207-25.9635 17.335-26.5105 19.1927-26.5105 23.7933-26.5105 26.5017-24.6355 27.3177-20.8855 28.1163-22.5695 29.2838-23.928 30.8203-24.961 32.3568-25.994 34.0452-26.5105 35.8855-26.5105 37.7083-26.5105 39.2405-26.2197 40.4818-25.638 41.7232-25.0565 42.6563-24.1623 43.2813-22.9557 43.9063-21.7492 44.2188-20.243 44.2188-18.4375L44.2188-4.01042C44.2188-3.17708 44.6615-2.65192 45.5468-2.4349 46.4323-2.21788 47.5522-2.10938 48.9063-2.10938L48.9063 0 35.1563 0 35.1563-2.10938C36.5278-2.10938 37.6518-2.21788 38.5287-2.4349 39.4053-2.65192 39.8438-3.17708 39.8438-4.01042L39.8438-18.2552C39.8438-20.2692 39.5617-21.8923 38.9973-23.125 38.4332-24.3577 37.2743-24.974 35.5208-24.974 33.2118-24.974 31.3065-24.0452 29.8047-22.1875 28.303-20.3298 27.5522-18.2205 27.5522-15.8594L27.5522-4.01042C27.5522-3.17708 27.9905-2.65192 28.8672-2.4349 29.744-2.21788 30.868-2.10938 32.2397-2.10938L32.2397 0 18.4897 0 18.4897-2.10938C19.8612-2.10938 20.9852-2.21788 21.862-2.4349 22.7387-2.65192 23.1772-3.17708 23.1772-4.01042L23.1772-18.2552C23.1772-20.1997 22.895-21.8055 22.3307-23.073 21.7665-24.3403 20.599-24.974 18.8282-24.974 16.5191-24.974 14.6137-24.0452 13.112-22.1875 11.6103-20.3298 10.8594-18.2205 10.8594-15.8594L10.8594-4.01042C10.8594-3.17708 11.3021-2.65192 12.1875-2.4349 13.0729-2.21788 14.184-2.10938 15.5208-2.10938L15.5208 0 1.79688 0" fill="#D9D9D9" fill-rule="evenodd" transform="matrix(1.00024 0 0 1 3746.76 2439.78)"/><path d="M14.9479 0.677083C12.5 0.677083 10.2561 0.0347222 8.21615-1.25 6.17622-2.53472 4.57465-4.2448 3.41147-6.38022 2.24827-8.51563 1.66667-10.7726 1.66667-13.1511 1.66667-15.4948 2.20052-17.7213 3.26823-19.8307 4.33593-21.9402 5.82032-23.6458 7.72135-24.948 9.6224-26.25 11.7448-26.901 14.0886-26.901 15.9288-26.901 17.526-26.5928 18.8802-25.9765 20.2343-25.3602 21.3542-24.5052 22.2397-23.4115 23.125-22.3177 23.789-21.0287 24.2318-19.5443 24.6745-18.0598 24.8958-16.4323 24.8958-14.6615 24.8958-14.1233 24.6962-13.8542 24.2968-13.8542L6.92708-13.8542 6.92708-13.2031C6.92708-9.90452 7.59548-7.06597 8.9323-4.6875 10.2691-2.30903 12.4479-1.11979 15.4688-1.11979 16.7013-1.11979 17.8385-1.39323 18.8802-1.9401 19.9218-2.48698 20.829-3.24653 21.6015-4.21875 22.3742-5.19097 22.8993-6.23263 23.1772-7.34375 23.2118-7.48263 23.2857-7.60417 23.3985-7.70833 23.5113-7.8125 23.6285-7.86458 23.75-7.86458L24.2968-7.86458C24.6962-7.86458 24.8958-7.61285 24.8958-7.10938 24.3403-4.83507 23.125-2.96875 21.25-1.51042 19.375-0.0520833 17.2743 0.677083 14.9479 0.677083M6.97917-15.3646 20.651-15.3646C20.651-16.8577 20.4427-18.3723 20.026-19.9088 19.6093-21.4453 18.9107-22.7257 17.9297-23.75 16.9488-24.7743 15.6684-25.2865 14.0886-25.2865 11.8316-25.2865 10.0825-24.2275 8.84115-22.1093 7.59983-19.9913 6.97917-17.743 6.97917-15.3646" fill="#D9D9D9" fill-rule="evenodd" transform="matrix(1.00024 0 0 1 3797.69 2439.78)"/><path d="M7.08333 15 7.08333-45 15.2865-45 15.2865-42.6042 9.50522-42.6042 9.50522 12.6042 15.2865 12.6042 15.2865 15 7.08333 15" fill="#D9D9D9" fill-rule="evenodd" transform="matrix(1.00024 0 0 1 3845.23 2439.78)"/><path d="M2.00522 0.182292 2.00522-9.63542C2.00522-9.94792 2.17882-10.1042 2.52605-10.1042L3.25522-10.1042C3.4809-10.1042 3.63715-9.94792 3.72397-9.63542 4.83507-3.8368 7.52605-0.9375 11.7969-0.9375 13.7066-0.9375 15.2995-1.36719 16.5755-2.22657 17.8515-3.08593 18.4897-4.4184 18.4897-6.22397 18.4897-7.50868 17.9905-8.60243 16.9922-9.50522 15.9939-10.408 14.809-11.033 13.4375-11.3802L9.42708-12.1615C8.09028-12.4566 6.87067-12.9037 5.76823-13.5026 4.6658-14.1016 3.76302-14.9045 3.0599-15.9115 2.35677-16.9183 2.00522-18.0817 2.00522-19.401 2.00522-21.1545 2.46528-22.5912 3.38542-23.711 4.30555-24.8307 5.50782-25.6423 6.99218-26.1458 8.47657-26.6493 10.0781-26.901 11.7969-26.901 13.8629-26.901 15.6511-26.3628 17.1615-25.2865L18.9063-26.7448C18.9063-26.849 19.0017-26.901 19.1927-26.901L19.6355-26.901C19.757-26.901 19.8655-26.8447 19.961-26.7318 20.0565-26.619 20.1042-26.5105 20.1042-26.4063L20.1042-18.5677C20.1042-18.2032 19.948-18.0208 19.6355-18.0208L18.9063-18.0208C18.5417-18.0208 18.3593-18.2032 18.3593-18.5677 18.3593-20.6683 17.7822-22.3525 16.6276-23.6198 15.4731-24.8872 13.8455-25.5208 11.7448-25.5208 9.9566-25.5208 8.40278-25.1867 7.08333-24.5182 5.76388-23.8498 5.10417-22.7083 5.10417-21.0938 5.10417-19.9827 5.57725-19.0712 6.52343-18.3593 7.46962-17.6475 8.57638-17.1355 9.84375-16.823L13.9063-16.0677C15.2778-15.7379 16.5538-15.204 17.7343-14.4662 18.915-13.7283 19.8525-12.7908 20.5468-11.6537 21.2413-10.5165 21.5885-9.23612 21.5885-7.8125 21.5885-6.35417 21.3412-5.09548 20.8463-4.03647 20.3515-2.97743 19.6572-2.09202 18.763-1.38021 17.869-0.668403 16.8185-0.14757 15.612 0.182292 14.4054 0.512153 13.1337 0.677083 11.7969 0.677083 9.29688 0.677083 7.16147-0.173612 5.39063-1.875L3.20313 0.520833C3.20313 0.625 3.09028 0.677083 2.86458 0.677083L2.52605 0.677083C2.17882 0.677083 2.00522 0.512153 2.00522 0.182292" fill="#D9D9D9" fill-rule="evenodd" transform="matrix(1.00024 0 0 1 3862.21 2439.78)"/><path d="M1.32813 15 1.32813 12.6042 7.16147 12.6042 7.16147-42.6042 1.32813-42.6042 1.32813-45 9.5573-45 9.5573 15 1.32813 15" fill="#D9D9D9" fill-rule="evenodd" transform="matrix(1.00024 0 0 1 3886.32 2439.78)"/><path d="M233.333 1045 1346.67 1045" stroke="#D9D9D9" stroke-width="1.11111" stroke-linecap="square" stroke-linejoin="round" fill="none" fill-rule="evenodd" transform="matrix(1.00024 0 0 1 3004.28 1264)"/><path d="M233.333 85 1346.67 85" stroke="#D9D9D9" stroke-width="1.11111" stroke-linecap="square" stroke-linejoin="round" fill="none" fill-rule="evenodd" transform="matrix(1.00024 0 0 1 3004.28 1264)"/><path d="M233.333 1045 233.333 1033.87" stroke="#D9D9D9" stroke-width="1.11111" stroke-linecap="square" stroke-linejoin="round" fill="none" fill-rule="evenodd" transform="matrix(1.00024 0 0 1 3004.28 1264)"/><path d="M233.333 96.1333 233.333 85" stroke="#D9D9D9" stroke-width="1.11111" stroke-linecap="square" stroke-linejoin="round" fill="none" fill-rule="evenodd" transform="matrix(1.00024 0 0 1 3004.28 1264)"/><path d="M480.74 1045 480.74 1033.87" stroke="#D9D9D9" stroke-width="1.11111" stroke-linecap="square" stroke-linejoin="round" fill="none" fill-rule="evenodd" transform="matrix(1.00024 0 0 1 3004.28 1264)"/><path d="M480.74 96.1333 480.74 85" stroke="#D9D9D9" stroke-width="1.11111" stroke-linecap="square" stroke-linejoin="round" fill="none" fill-rule="evenodd" transform="matrix(1.00024 0 0 1 3004.28 1264)"/><path d="M728.148 1045 728.148 1033.87" stroke="#D9D9D9" stroke-width="1.11111" stroke-linecap="square" stroke-linejoin="round" fill="none" fill-rule="evenodd" transform="matrix(1.00024 0 0 1 3004.28 1264)"/><path d="M728.148 96.1333 728.148 85" stroke="#D9D9D9" stroke-width="1.11111" stroke-linecap="square" stroke-linejoin="round" fill="none" fill-rule="evenodd" transform="matrix(1.00024 0 0 1 3004.28 1264)"/><path d="M975.555 1045 975.555 1033.87" stroke="#D9D9D9" stroke-width="1.11111" stroke-linecap="square" stroke-linejoin="round" fill="none" fill-rule="evenodd" transform="matrix(1.00024 0 0 1 3004.28 1264)"/><path d="M975.555 96.1333 975.555 85" stroke="#D9D9D9" stroke-width="1.11111" stroke-linecap="square" stroke-linejoin="round" fill="none" fill-rule="evenodd" transform="matrix(1.00024 0 0 1 3004.28 1264)"/><path d="M1222.96 1045 1222.96 1033.87" stroke="#D9D9D9" stroke-width="1.11111" stroke-linecap="square" stroke-linejoin="round" fill="none" fill-rule="evenodd" transform="matrix(1.00024 0 0 1 3004.28 1264)"/><path d="M1222.96 96.1333 1222.96 85" stroke="#D9D9D9" stroke-width="1.11111" stroke-linecap="square" stroke-linejoin="round" fill="none" fill-rule="evenodd" transform="matrix(1.00024 0 0 1 3004.28 1264)"/><path d="M2.29167-19.4272C2.29167-24.0798 2.7691-27.8255 3.72397-30.664 4.67882-33.5027 6.10243-35.6902 7.9948-37.2265 9.88715-38.763 12.2656-39.5313 15.1302-39.5313 17.2308-39.5313 19.0798-39.1058 20.6772-38.2552 22.2743-37.4045 23.5893-36.1762 24.6223-34.5703 25.6553-32.9643 26.4713-31.0113 27.0703-28.711 27.6693-26.4107 27.9688-23.316 27.9688-19.4272 27.9688-14.809 27.4913-11.0807 26.5365-8.24218 25.5817-5.40365 24.1623-3.20747 22.2787-1.65365 20.395-0.0998263 18.0122 0.677083 15.1302 0.677083 11.3281 0.677083 8.34202-0.685763 6.17188-3.41147 3.58507-6.69272 2.29167-12.0313 2.29167-19.4272M7.23958-19.4272C7.23958-12.9514 7.99913-8.64583 9.51823-6.51042 11.0373-4.375 12.908-3.3073 15.1302-3.3073 17.335-3.3073 19.197-4.37933 20.7162-6.52343 22.2352-8.66753 22.9948-12.9688 22.9948-19.4272 22.9948-25.9028 22.2352-30.204 20.7162-32.3307 19.197-34.4575 17.3177-35.5208 15.0781-35.5208 12.8559-35.5208 11.0764-34.5833 9.73958-32.7083 8.07292-30.3125 7.23958-25.8855 7.23958-19.4272" fill="#D9D9D9" fill-rule="evenodd" transform="matrix(1.00024 0 0 1 3222.66 2374.56)"/><path d="M27.6823-4.63542 27.6823 0 1.66667 0C1.63195-1.1632 1.82292-2.28298 2.23958-3.35938 2.8993-5.13022 3.95833-6.875 5.41667-8.59375 6.875-10.3125 8.98438-12.3004 11.7448-14.5573 16.0156-18.0642 18.9018-20.842 20.4037-22.8907 21.9053-24.9392 22.6563-26.875 22.6563-28.698 22.6563-30.625 21.9748-32.244 20.612-33.5547 19.2492-34.8655 17.4653-35.5208 15.2604-35.5208 12.934-35.5208 11.0721-34.822 9.67448-33.4245 8.27692-32.0268 7.56945-30.0955 7.55208-27.6302L2.57813-28.151C2.92535-31.849 4.20573-34.6702 6.41927-36.6147 8.63282-38.559 11.6146-39.5313 15.3646-39.5313 19.132-39.5313 22.118-38.4852 24.323-36.3932 26.5278-34.3012 27.6302-31.7013 27.6302-28.5938 27.6302-27.0313 27.309-25.4862 26.6667-23.9583 26.0243-22.4305 24.9567-20.8247 23.4635-19.1407 21.9705-17.4567 19.4878-15.1476 16.0156-12.2136 13.1163-9.78298 11.2543-8.13368 10.4297-7.26563 9.60503-6.39757 8.92362-5.52083 8.38542-4.63542L27.6823-4.63542M32.2917-19.4272C32.2917-24.0798 32.7692-27.8255 33.724-30.664 34.6788-33.5027 36.1025-35.6902 37.9948-37.2265 39.8872-38.763 42.2657-39.5313 45.1302-39.5313 47.2308-39.5313 49.0798-39.1058 50.6772-38.2552 52.2743-37.4045 53.5893-36.1762 54.6223-34.5703 55.6553-32.9643 56.4713-31.0113 57.0703-28.711 57.6693-26.4107 57.9688-23.316 57.9688-19.4272 57.9688-14.809 57.4913-11.0807 56.5365-8.24218 55.5817-5.40365 54.1623-3.20747 52.2787-1.65365 50.395-0.0998263 48.0122 0.677083 45.1302 0.677083 41.3282 0.677083 38.342-0.685763 36.1718-3.41147 33.585-6.69272 32.2917-12.0313 32.2917-19.4272M37.2397-19.4272C37.2397-12.9514 37.9992-8.64583 39.5182-6.51042 41.0373-4.375 42.908-3.3073 45.1302-3.3073 47.335-3.3073 49.197-4.37933 50.7162-6.52343 52.2352-8.66753 52.9948-12.9688 52.9948-19.4272 52.9948-25.9028 52.2352-30.204 50.7162-32.3307 49.197-34.4575 47.3177-35.5208 45.0782-35.5208 42.8558-35.5208 41.0763-34.5833 39.7397-32.7083 38.073-30.3125 37.2397-25.8855 37.2397-19.4272" fill="#D9D9D9" fill-rule="evenodd" transform="matrix(1.00024 0 0 1 3455.13 2374.56)"/><path d="M17.7865 0 17.7865-9.42708 0.703125-9.42708 0.703125-13.8542 18.6718-39.375 22.6042-39.375 22.6042-13.8542 27.9427-13.8542 27.9427-9.42708 22.6042-9.42708 22.6042 0 17.7865 0M17.7865-13.8542 17.7865-31.6147 5.44272-13.8542 17.7865-13.8542M32.2917-19.4272C32.2917-24.0798 32.7692-27.8255 33.724-30.664 34.6788-33.5027 36.1025-35.6902 37.9948-37.2265 39.8872-38.763 42.2657-39.5313 45.1302-39.5313 47.2308-39.5313 49.0798-39.1058 50.6772-38.2552 52.2743-37.4045 53.5893-36.1762 54.6223-34.5703 55.6553-32.9643 56.4713-31.0113 57.0703-28.711 57.6693-26.4107 57.9688-23.316 57.9688-19.4272 57.9688-14.809 57.4913-11.0807 56.5365-8.24218 55.5817-5.40365 54.1623-3.20747 52.2787-1.65365 50.395-0.0998263 48.0122 0.677083 45.1302 0.677083 41.3282 0.677083 38.342-0.685763 36.1718-3.41147 33.585-6.69272 32.2917-12.0313 32.2917-19.4272M37.2397-19.4272C37.2397-12.9514 37.9992-8.64583 39.5182-6.51042 41.0373-4.375 42.908-3.3073 45.1302-3.3073 47.335-3.3073 49.197-4.37933 50.7162-6.52343 52.2352-8.66753 52.9948-12.9688 52.9948-19.4272 52.9948-25.9028 52.2352-30.204 50.7162-32.3307 49.197-34.4575 47.3177-35.5208 45.0782-35.5208 42.8558-35.5208 41.0763-34.5833 39.7397-32.7083 38.073-30.3125 37.2397-25.8855 37.2397-19.4272" fill="#D9D9D9" fill-rule="evenodd" transform="matrix(1.00024 0 0 1 3702.59 2374.56)"/><path d="M27.3698-29.7397 22.5522-29.349C22.1355-31.2413 21.5278-32.6215 20.7292-33.4897 19.4272-34.8612 17.8212-35.5468 15.9115-35.5468 14.3663-35.5468 13.0122-35.1215 11.849-34.2708 10.3212-33.1597 9.11892-31.5408 8.24218-29.414 7.36545-27.2873 6.90972-24.2535 6.875-20.3125 8.0382-22.0833 9.4618-23.3985 11.1458-24.2578 12.8299-25.1172 14.592-25.5468 16.4323-25.5468 19.6615-25.5468 22.4088-24.3577 24.6745-21.9792 26.9402-19.6007 28.073-16.5365 28.073-12.7865 28.073-10.3212 27.539-8.02517 26.4713-5.89843 25.4037-3.7717 23.9367-2.1441 22.0703-1.01562 20.204 0.112847 18.0903 0.677083 15.7292 0.677083 11.7014 0.677083 8.4158-0.807292 5.8724-3.77605 3.329-6.7448 2.0573-11.6233 2.0573-18.4115 2.0573-26.033 3.46355-31.5712 6.27605-35.026 8.74132-38.0295 12.0486-39.5313 16.1979-39.5313 19.2882-39.5313 21.823-38.6632 23.8022-36.9272 25.7813-35.191 26.9705-32.7952 27.3698-29.7397M7.63022-12.7604C7.63022-11.0938 7.98177-9.50087 8.6849-7.98177 9.38802-6.46267 10.3776-5.30382 11.6537-4.50522 12.9297-3.7066 14.2622-3.3073 15.6511-3.3073 17.6997-3.3073 19.4575-4.13195 20.9245-5.78125 22.3915-7.43055 23.125-9.67013 23.125-12.5 23.125-15.2083 22.4002-17.3482 20.9505-18.9193 19.5008-20.4905 17.6737-21.276 15.4688-21.276 13.2813-21.276 11.428-20.4905 9.90885-18.9193 8.38975-17.3482 7.63022-15.2951 7.63022-12.7604M32.2917-19.4272C32.2917-24.0798 32.7692-27.8255 33.724-30.664 34.6788-33.5027 36.1025-35.6902 37.9948-37.2265 39.8872-38.763 42.2657-39.5313 45.1302-39.5313 47.2308-39.5313 49.0798-39.1058 50.6772-38.2552 52.2743-37.4045 53.5893-36.1762 54.6223-34.5703 55.6553-32.9643 56.4713-31.0113 57.0703-28.711 57.6693-26.4107 57.9688-23.316 57.9688-19.4272 57.9688-14.809 57.4913-11.0807 56.5365-8.24218 55.5817-5.40365 54.1623-3.20747 52.2787-1.65365 50.395-0.0998263 48.0122 0.677083 45.1302 0.677083 41.3282 0.677083 38.342-0.685763 36.1718-3.41147 33.585-6.69272 32.2917-12.0313 32.2917-19.4272M37.2397-19.4272C37.2397-12.9514 37.9992-8.64583 39.5182-6.51042 41.0373-4.375 42.908-3.3073 45.1302-3.3073 47.335-3.3073 49.197-4.37933 50.7162-6.52343 52.2352-8.66753 52.9948-12.9688 52.9948-19.4272 52.9948-25.9028 52.2352-30.204 50.7162-32.3307 49.197-34.4575 47.3177-35.5208 45.0782-35.5208 42.8558-35.5208 41.0763-34.5833 39.7397-32.7083 38.073-30.3125 37.2397-25.8855 37.2397-19.4272" fill="#D9D9D9" fill-rule="evenodd" transform="matrix(1.00024 0 0 1 3950.06 2374.56)"/><path d="M9.71355-21.3542C7.71702-22.0833 6.23263-23.1293 5.26042-24.4922 4.2882-25.855 3.80208-27.4827 3.80208-29.375 3.80208-32.2397 4.83507-34.6485 6.90105-36.6015 8.96702-38.5547 11.7101-39.5313 15.1302-39.5313 18.5677-39.5313 21.3325-38.533 23.4245-36.5365 25.5165-34.54 26.5625-32.1093 26.5625-29.2448 26.5625-27.4218 26.085-25.8333 25.1302-24.4792 24.1753-23.125 22.717-22.0833 20.7552-21.3542 23.1683-20.5555 25.0087-19.2795 26.276-17.526 27.5433-15.7726 28.1772-13.6806 28.1772-11.25 28.1772-7.88195 26.9835-5.05208 24.5963-2.76042 22.2092-0.46875 19.0798 0.677083 15.2083 0.677083 11.3195 0.677083 8.18577-0.47309 5.8073-2.77343 3.42882-5.07378 2.23958-7.94272 2.23958-11.3802 2.23958-13.9497 2.88628-16.0981 4.17968-17.8255 5.47308-19.553 7.31772-20.7292 9.71355-21.3542M8.75-29.5313C8.75-27.6737 9.34897-26.1545 10.5469-24.974 11.7448-23.7933 13.3073-23.2032 15.2344-23.2032 17.092-23.2032 18.6155-23.789 19.8047-24.961 20.994-26.1328 21.5885-27.5695 21.5885-29.2708 21.5885-31.0417 20.9765-32.5303 19.7527-33.737 18.5287-34.9435 17.0052-35.5468 15.1823-35.5468 13.3247-35.5468 11.7882-34.9567 10.5729-33.776 9.35763-32.5955 8.75-31.1805 8.75-29.5313M7.1875-11.3542C7.1875-9.98263 7.51737-8.65017 8.17708-7.35677 8.8368-6.06337 9.80903-5.0651 11.0938-4.36198 12.3785-3.65885 13.7674-3.3073 15.2604-3.3073 17.5695-3.3073 19.4748-4.04948 20.9765-5.53385 22.4783-7.01823 23.2292-8.90625 23.2292-11.1979 23.2292-13.5243 22.4567-15.4471 20.9115-16.9662 19.3663-18.4852 17.4305-19.2448 15.1042-19.2448 12.8299-19.2448 10.9418-18.494 9.4401-16.9922 7.93837-15.4904 7.1875-13.6111 7.1875-11.3542M32.2917-19.4272C32.2917-24.0798 32.7692-27.8255 33.724-30.664 34.6788-33.5027 36.1025-35.6902 37.9948-37.2265 39.8872-38.763 42.2657-39.5313 45.1302-39.5313 47.2308-39.5313 49.0798-39.1058 50.6772-38.2552 52.2743-37.4045 53.5893-36.1762 54.6223-34.5703 55.6553-32.9643 56.4713-31.0113 57.0703-28.711 57.6693-26.4107 57.9688-23.316 57.9688-19.4272 57.9688-14.809 57.4913-11.0807 56.5365-8.24218 55.5817-5.40365 54.1623-3.20747 52.2787-1.65365 50.395-0.0998263 48.0122 0.677083 45.1302 0.677083 41.3282 0.677083 38.342-0.685763 36.1718-3.41147 33.585-6.69272 32.2917-12.0313 32.2917-19.4272M37.2397-19.4272C37.2397-12.9514 37.9992-8.64583 39.5182-6.51042 41.0373-4.375 42.908-3.3073 45.1302-3.3073 47.335-3.3073 49.197-4.37933 50.7162-6.52343 52.2352-8.66753 52.9948-12.9688 52.9948-19.4272 52.9948-25.9028 52.2352-30.204 50.7162-32.3307 49.197-34.4575 47.3177-35.5208 45.0782-35.5208 42.8558-35.5208 41.0763-34.5833 39.7397-32.7083 38.073-30.3125 37.2397-25.8855 37.2397-19.4272" fill="#D9D9D9" fill-rule="evenodd" transform="matrix(1.00024 0 0 1 4197.53 2374.56)"/><path d="M13.6719-6.40625C15.0434-4.67013 16.7535-3.29862 18.8022-2.29167 20.8507-1.28472 22.9862-0.78125 25.2083-0.78125 27.0487-0.78125 28.763-1.15017 30.3515-1.88802 31.9402-2.62587 33.3247-3.65017 34.5052-4.96093 35.6858-6.2717 36.5928-7.75608 37.2265-9.41407 37.8602-11.0721 38.1772-12.8212 38.1772-14.6615 38.1772-14.974 38.3507-15.1302 38.698-15.1302L39.4272-15.1302C39.7397-15.1302 39.8958-14.9306 39.8958-14.5313 39.8958-12.4479 39.4965-10.434 38.698-8.48958 37.8993-6.54513 36.7665-4.83507 35.2995-3.35938 33.8325-1.88368 32.1485-0.733507 30.2473 0.0911458 28.3463 0.915798 26.3628 1.32813 24.2968 1.32813 21.415 1.32813 18.6892 0.746528 16.1198-0.416667 13.5504-1.57986 11.3151-3.17275 9.41407-5.19532 7.51302-7.21788 6.02865-9.5573 4.96093-12.2136 3.89323-14.8698 3.35938-17.6388 3.35938-20.5208 3.35938-23.3855 3.89323-26.1458 4.96093-28.8022 6.02865-31.4583 7.51302-33.8022 9.41407-35.8333 11.3151-37.8647 13.5504-39.4532 16.1198-40.599 18.6892-41.7448 21.415-42.3177 24.2968-42.3177 26.3455-42.3177 28.3073-41.8707 30.1823-40.9765 32.0573-40.0825 33.698-38.8282 35.1042-37.2135L38.5938-42.1355C38.8195-42.257 38.9497-42.3177 38.9843-42.3177L39.4272-42.3177C39.5487-42.3177 39.6572-42.2657 39.7527-42.1615 39.8482-42.0573 39.8958-41.9358 39.8958-41.7968L39.8958-25.599C39.8958-25.2517 39.7397-25.0782 39.4272-25.0782L38.3593-25.0782C37.9775-25.0782 37.7865-25.2517 37.7865-25.599 37.7865-26.7622 37.5565-28.0555 37.0963-29.4792 36.6363-30.9028 36.0503-32.2527 35.3385-33.5287 34.6267-34.8047 33.8022-35.9375 32.8647-36.9272 30.625-39.1147 28.0468-40.2083 25.1302-40.2083 22.9253-40.2083 20.8117-39.7092 18.789-38.711 16.7665-37.7127 15.0608-36.3368 13.6719-34.5833 12.2136-32.7083 11.2023-30.573 10.638-28.1772 10.0738-25.7813 9.79167-23.2292 9.79167-20.5208 9.79167-17.7952 10.0738-15.23 10.638-12.8255 11.2023-10.421 12.2136-8.28125 13.6719-6.40625" fill="#D9D9D9" fill-rule="evenodd" transform="matrix(0 -1 1.00024 0 3076.74 2149.38)"/><path d="M15 0.677083C12.6042 0.677083 10.3776 0.0651042 8.32032-1.15885 6.26302-2.38282 4.63975-4.0191 3.45052-6.06772 2.26128-8.11632 1.66667-10.3559 1.66667-12.7865 1.66667-14.6094 1.99653-16.3715 2.65625-18.073 3.31597-19.7743 4.25347-21.2933 5.46875-22.6302 6.68403-23.967 8.1033-25.013 9.72657-25.7682 11.3498-26.5235 13.1076-26.901 15-26.901 17.4653-26.901 19.7092-26.25 21.7318-24.948 23.7543-23.6458 25.3515-21.9053 26.5235-19.7265 27.6953-17.5477 28.2813-15.2344 28.2813-12.7865 28.2813-10.3733 27.6823-8.13802 26.4843-6.08073 25.2865-4.02343 23.6675-2.38282 21.6277-1.15885 19.5877 0.0651042 17.3785 0.677083 15 0.677083M15-1.11979C18.2118-1.11979 20.3515-2.27865 21.4193-4.59635 22.487-6.91407 23.0208-9.86112 23.0208-13.4375 23.0208-15.4514 22.9167-17.1137 22.7083-18.4245 22.5-19.7352 22.0313-20.9288 21.3022-22.0052 20.8507-22.665 20.2778-23.2465 19.5833-23.75 18.8888-24.2535 18.1553-24.6355 17.3828-24.8958 16.6103-25.1563 15.816-25.2865 15-25.2865 13.75-25.2865 12.5651-25.0043 11.4453-24.4402 10.3255-23.8758 9.39237-23.0642 8.64583-22.0052 7.8993-20.8767 7.42622-19.6355 7.22657-18.2813 7.02692-16.9272 6.92708-15.3125 6.92708-13.4375 6.92708-11.1979 7.1224-9.18837 7.51302-7.40885 7.90365-5.62933 8.68923-4.13628 9.8698-2.92968 11.0504-1.72308 12.7604-1.11979 15-1.11979" fill="#D9D9D9" fill-rule="evenodd" transform="matrix(0 -1 1.00024 0 3076.74 2105.24)"/><path d="M1.79688 0 1.79688-2.10938C3.15105-2.10938 4.27083-2.21788 5.15625-2.4349 6.04167-2.65192 6.48438-3.17708 6.48438-4.01042L6.48438-20.3907C6.48438-21.467 6.32378-22.244 6.0026-22.7213 5.68142-23.1988 5.21702-23.4897 4.60938-23.5938 4.00173-23.698 3.06423-23.75 1.79688-23.75L1.79688-25.8593 10.4948-26.5105 10.4948-20.651C11.2934-22.3698 12.4783-23.776 14.0495-24.8698 15.6207-25.9635 17.335-26.5105 19.1927-26.5105 21.9705-26.5105 24.0582-25.8463 25.4557-24.5182 26.8533-23.1902 27.5522-21.1632 27.5522-18.4375L27.5522-4.01042C27.5522-3.17708 27.9905-2.65192 28.8672-2.4349 29.744-2.21788 30.868-2.10938 32.2397-2.10938L32.2397 0 18.4897 0 18.4897-2.10938C19.8612-2.10938 20.9852-2.21788 21.862-2.4349 22.7387-2.65192 23.1772-3.17708 23.1772-4.01042L23.1772-18.2552C23.1772-20.1997 22.895-21.8055 22.3307-23.073 21.7665-24.3403 20.599-24.974 18.8282-24.974 16.5191-24.974 14.6137-24.0452 13.112-22.1875 11.6103-20.3298 10.8594-18.2205 10.8594-15.8594L10.8594-4.01042C10.8594-3.17708 11.3021-2.65192 12.1875-2.4349 13.0729-2.21788 14.184-2.10938 15.5208-2.10938L15.5208 0 1.79688 0" fill="#D9D9D9" fill-rule="evenodd" transform="matrix(0 -1 1.00024 0 3076.74 2074.69)"/><path d="M14.9479 0.677083C12.5174 0.677083 10.3168 0.047743 8.34635-1.21094 6.37587-2.46962 4.82638-4.1493 3.69792-6.25 2.56945-8.3507 2.00522-10.5816 2.00522-12.9427 2.00522-15.3038 2.5651-17.5695 3.6849-19.7397 4.80468-21.9097 6.35417-23.6458 8.33333-24.948 10.3125-26.25 12.5174-26.901 14.9479-26.901 17.2917-26.901 19.4227-26.441 21.3412-25.5208 23.2595-24.6007 24.2188-23.0903 24.2188-20.9897 24.2188-20.2083 23.941-19.5313 23.3855-18.9583 22.8298-18.3855 22.1528-18.099 21.3542-18.099 20.5555-18.099 19.8785-18.3855 19.323-18.9583 18.7673-19.5313 18.4897-20.2083 18.4897-20.9897 18.4897-21.684 18.7153-22.2917 19.1667-22.8125 19.618-23.3333 20.1737-23.6632 20.8333-23.8022 19.4445-24.6702 17.5-25.1042 15-25.1042 13.0903-25.1042 11.5495-24.4705 10.3776-23.2032 9.20573-21.9358 8.38542-20.369 7.91667-18.5027 7.44792-16.6363 7.21355-14.783 7.21355-12.9427 7.21355-11.0156 7.5-9.15365 8.07292-7.35677 8.64583-5.5599 9.57465-4.07118 10.8594-2.89063 12.1441-1.71007 13.75-1.11979 15.6771-1.11979 17.5695-1.11979 19.1797-1.69705 20.5078-2.85157 21.836-4.00608 22.743-5.52083 23.2292-7.39583 23.2292-7.63888 23.3855-7.76042 23.698-7.76042L24.4272-7.76042C24.5487-7.76042 24.6572-7.704 24.7527-7.59115 24.8482-7.4783 24.8958-7.35243 24.8958-7.21355L24.8958-7.0573C24.2882-4.67882 23.086-2.79513 21.289-1.40625 19.4922-0.0173612 17.3785 0.677083 14.9479 0.677083" fill="#D9D9D9" fill-rule="evenodd" transform="matrix(0 -1 1.00024 0 3076.74 2040.74)"/><path d="M14.9479 0.677083C12.5 0.677083 10.2561 0.0347222 8.21615-1.25 6.17622-2.53472 4.57465-4.2448 3.41147-6.38022 2.24827-8.51563 1.66667-10.7726 1.66667-13.1511 1.66667-15.4948 2.20052-17.7213 3.26823-19.8307 4.33593-21.9402 5.82032-23.6458 7.72135-24.948 9.6224-26.25 11.7448-26.901 14.0886-26.901 15.9288-26.901 17.526-26.5928 18.8802-25.9765 20.2343-25.3602 21.3542-24.5052 22.2397-23.4115 23.125-22.3177 23.789-21.0287 24.2318-19.5443 24.6745-18.0598 24.8958-16.4323 24.8958-14.6615 24.8958-14.1233 24.6962-13.8542 24.2968-13.8542L6.92708-13.8542 6.92708-13.2031C6.92708-9.90452 7.59548-7.06597 8.9323-4.6875 10.2691-2.30903 12.4479-1.11979 15.4688-1.11979 16.7013-1.11979 17.8385-1.39323 18.8802-1.9401 19.9218-2.48698 20.829-3.24653 21.6015-4.21875 22.3742-5.19097 22.8993-6.23263 23.1772-7.34375 23.2118-7.48263 23.2857-7.60417 23.3985-7.70833 23.5113-7.8125 23.6285-7.86458 23.75-7.86458L24.2968-7.86458C24.6962-7.86458 24.8958-7.61285 24.8958-7.10938 24.3403-4.83507 23.125-2.96875 21.25-1.51042 19.375-0.0520833 17.2743 0.677083 14.9479 0.677083M6.97917-15.3646 20.651-15.3646C20.651-16.8577 20.4427-18.3723 20.026-19.9088 19.6093-21.4453 18.9107-22.7257 17.9297-23.75 16.9488-24.7743 15.6684-25.2865 14.0886-25.2865 11.8316-25.2865 10.0825-24.2275 8.84115-22.1093 7.59983-19.9913 6.97917-17.743 6.97917-15.3646" fill="#D9D9D9" fill-rule="evenodd" transform="matrix(0 -1 1.00024 0 3076.74 2013.58)"/><path d="M1.79688 0 1.79688-2.10938C3.15105-2.10938 4.27083-2.21788 5.15625-2.4349 6.04167-2.65192 6.48438-3.17708 6.48438-4.01042L6.48438-20.3907C6.48438-21.467 6.32378-22.244 6.0026-22.7213 5.68142-23.1988 5.21702-23.4897 4.60938-23.5938 4.00173-23.698 3.06423-23.75 1.79688-23.75L1.79688-25.8593 10.4948-26.5105 10.4948-20.651C11.2934-22.3698 12.4783-23.776 14.0495-24.8698 15.6207-25.9635 17.335-26.5105 19.1927-26.5105 21.9705-26.5105 24.0582-25.8463 25.4557-24.5182 26.8533-23.1902 27.5522-21.1632 27.5522-18.4375L27.5522-4.01042C27.5522-3.17708 27.9905-2.65192 28.8672-2.4349 29.744-2.21788 30.868-2.10938 32.2397-2.10938L32.2397 0 18.4897 0 18.4897-2.10938C19.8612-2.10938 20.9852-2.21788 21.862-2.4349 22.7387-2.65192 23.1772-3.17708 23.1772-4.01042L23.1772-18.2552C23.1772-20.1997 22.895-21.8055 22.3307-23.073 21.7665-24.3403 20.599-24.974 18.8282-24.974 16.5191-24.974 14.6137-24.0452 13.112-22.1875 11.6103-20.3298 10.8594-18.2205 10.8594-15.8594L10.8594-4.01042C10.8594-3.17708 11.3021-2.65192 12.1875-2.4349 13.0729-2.21788 14.184-2.10938 15.5208-2.10938L15.5208 0 1.79688 0" fill="#D9D9D9" fill-rule="evenodd" transform="matrix(0 -1 1.00024 0 3076.74 1986.42)"/><path d="M6.1198-7.21355 6.1198-23.75 1.14583-23.75 1.14583-25.3125C3.76737-25.3125 5.6901-26.5322 6.91407-28.9713 8.13802-31.4107 8.75-34.0625 8.75-36.9272L10.4948-36.9272 10.4948-25.8593 18.9583-25.8593 18.9583-23.75 10.4948-23.75 10.4948-7.34375C10.4948-5.69445 10.7726-4.2448 11.3281-2.9948 11.8837-1.7448 12.882-1.11979 14.3229-1.11979 15.6945-1.11979 16.684-1.77517 17.2917-3.08593 17.8993-4.3967 18.2032-5.81597 18.2032-7.34375L18.2032-10.8854 19.9218-10.8854 19.9218-7.21355C19.9218-5.96355 19.6918-4.72657 19.2318-3.5026 18.7717-2.27865 18.0947-1.27604 17.2005-0.494792 16.3064 0.286458 15.2083 0.677083 13.9063 0.677083 11.5104 0.677083 9.61372-0.0434028 8.21615-1.48438 6.81858-2.92535 6.1198-4.83507 6.1198-7.21355" fill="#D9D9D9" fill-rule="evenodd" transform="matrix(0 -1 1.00024 0 3076.74 1954.16)"/><path d="M1.5625 0 1.5625-2.10938C2.91667-2.10938 4.03647-2.21788 4.92188-2.4349 5.8073-2.65192 6.25-3.17708 6.25-4.01042L6.25-20.3907C6.25-21.467 6.08942-22.244 5.76823-22.7213 5.44705-23.1988 4.98263-23.4897 4.375-23.5938 3.76737-23.698 2.82987-23.75 1.5625-23.75L1.5625-25.8593 10.1302-26.5105 10.1302-20.651C10.7726-22.3872 11.6927-23.7977 12.8906-24.8828 14.0886-25.9678 15.5382-26.5105 17.2397-26.5105 18.4202-26.5105 19.4792-26.1588 20.4167-25.4557 21.3542-24.7527 21.823-23.8282 21.823-22.6823 21.823-21.9532 21.5668-21.3195 21.0547-20.7813 20.5425-20.243 19.9045-19.974 19.1407-19.974 18.3942-19.974 17.756-20.2387 17.2265-20.7682 16.697-21.2977 16.4323-21.9358 16.4323-22.6823 16.4323-23.7587 16.8142-24.5225 17.5782-24.974L17.2397-24.974C15.6076-24.974 14.2795-24.388 13.2552-23.2162 12.2309-22.0443 11.5061-20.586 11.0807-18.8412 10.6554-17.0963 10.4427-15.434 10.4427-13.8542L10.4427-4.01042C10.4427-2.74305 12.3785-2.10938 16.25-2.10938L16.25 0 1.5625 0" fill="#D9D9D9" fill-rule="evenodd" transform="matrix(0 -1 1.00024 0 3076.74 1930.4)"/><path d="M2.39583-5.88542C2.39583-8.26388 3.33333-10.204 5.20833-11.7057 7.08333-13.2075 9.33593-14.2622 11.9662-14.8698 14.5963-15.4774 17.092-15.7813 19.4532-15.7813L19.4532-18.2552C19.4532-19.401 19.2013-20.5122 18.698-21.5885 18.1945-22.665 17.461-23.5503 16.4974-24.2448 15.5338-24.9392 14.4792-25.2865 13.3333-25.2865 10.6771-25.2865 8.65452-24.6875 7.26563-23.4897 8.02952-23.4897 8.65885-23.2032 9.15365-22.6302 9.64843-22.0573 9.89583-21.3975 9.89583-20.651 9.89583-19.8525 9.61372-19.171 9.04948-18.6068 8.48525-18.0425 7.8125-17.7605 7.03125-17.7605 6.23263-17.7605 5.55122-18.0425 4.98698-18.6068 4.42275-19.171 4.14063-19.8525 4.14063-20.651 4.14063-22.7692 5.09548-24.3403 7.00522-25.3647 8.91493-26.3888 11.0243-26.901 13.3333-26.901 14.9479-26.901 16.5755-26.5538 18.2162-25.8593 19.8568-25.165 21.2023-24.1753 22.2527-22.8907 23.303-21.6058 23.8282-20.1042 23.8282-18.3855L23.8282-4.89583C23.8282-4.11458 23.993-3.39843 24.323-2.7474 24.6528-2.09635 25.165-1.77083 25.8593-1.77083 26.5365-1.77083 27.0357-2.09635 27.3568-2.7474 27.678-3.39843 27.8385-4.1059 27.8385-4.8698L27.8385-8.67188 29.5833-8.67188 29.5833-4.84375C29.5833-3.95833 29.349-3.10763 28.8802-2.29167 28.4115-1.4757 27.7822-0.828993 26.9922-0.351563 26.2023 0.125868 25.3472 0.364583 24.4272 0.364583 23.2638 0.364583 22.257-0.0954862 21.4063-1.01562 20.5555-1.93577 20.0782-3.02083 19.974-4.27083 19.2448-2.76042 18.1553-1.55816 16.7057-0.664063 15.2561 0.230035 13.7153 0.677083 12.0833 0.677083 10.5556 0.677083 9.05382 0.451388 7.57813 0 6.10243-0.451388 4.8698-1.15885 3.88022-2.1224 2.89063-3.08593 2.39583-4.34028 2.39583-5.88542M7.26563-5.88542C7.26563-4.49653 7.78212-3.32465 8.8151-2.3698 9.84808-1.41493 11.0677-0.9375 12.474-0.9375 13.7761-0.9375 14.9523-1.25868 16.0026-1.90105 17.053-2.5434 17.8907-3.42013 18.5157-4.53125 19.1407-5.64237 19.4532-6.80555 19.4532-8.02083L19.4532-14.2448C17.6302-14.2448 15.7682-13.9453 13.8672-13.3463 11.9662-12.7474 10.3906-11.8186 9.14063-10.5599 7.89063-9.30122 7.26563-7.74305 7.26563-5.88542" fill="#D9D9D9" fill-rule="evenodd" transform="matrix(0 -1 1.00024 0 3076.74 1906.46)"/><path d="M6.1198-7.21355 6.1198-23.75 1.14583-23.75 1.14583-25.3125C3.76737-25.3125 5.6901-26.5322 6.91407-28.9713 8.13802-31.4107 8.75-34.0625 8.75-36.9272L10.4948-36.9272 10.4948-25.8593 18.9583-25.8593 18.9583-23.75 10.4948-23.75 10.4948-7.34375C10.4948-5.69445 10.7726-4.2448 11.3281-2.9948 11.8837-1.7448 12.882-1.11979 14.3229-1.11979 15.6945-1.11979 16.684-1.77517 17.2917-3.08593 17.8993-4.3967 18.2032-5.81597 18.2032-7.34375L18.2032-10.8854 19.9218-10.8854 19.9218-7.21355C19.9218-5.96355 19.6918-4.72657 19.2318-3.5026 18.7717-2.27865 18.0947-1.27604 17.2005-0.494792 16.3064 0.286458 15.2083 0.677083 13.9063 0.677083 11.5104 0.677083 9.61372-0.0434028 8.21615-1.48438 6.81858-2.92535 6.1198-4.83507 6.1198-7.21355" fill="#D9D9D9" fill-rule="evenodd" transform="matrix(0 -1 1.00024 0 3076.74 1875.91)"/><path d="M1.84897 0 1.84897-2.10938C3.22048-2.10938 4.34462-2.21788 5.22135-2.4349 6.09808-2.65192 6.53647-3.17708 6.53647-4.01042L6.53647-20.3907C6.53647-21.9358 6.23698-22.882 5.63802-23.2292 5.03907-23.5763 3.86285-23.75 2.10938-23.75L2.10938-25.8593 10.7552-26.5105 10.7552-4.01042C10.7552-3.17708 11.1372-2.65192 11.9011-2.4349 12.6649-2.21788 13.6806-2.10938 14.9479-2.10938L14.9479 0 1.84897 0M4.40105-36.823C4.40105-37.7083 4.7309-38.4808 5.39063-39.1407 6.05035-39.8003 6.81423-40.1302 7.6823-40.1302 8.23785-40.1302 8.78038-39.987 9.3099-39.7005 9.83942-39.414 10.2517-39.006 10.5469-38.4765 10.842-37.947 10.9896-37.3958 10.9896-36.823 10.9896-35.9722 10.6554-35.2127 9.98698-34.5443 9.31858-33.8758 8.55035-33.5417 7.6823-33.5417 6.81423-33.5417 6.05035-33.8758 5.39063-34.5443 4.7309-35.2127 4.40105-35.9722 4.40105-36.823" fill="#D9D9D9" fill-rule="evenodd" transform="matrix(0 -1 1.00024 0 3076.74 1852.14)"/><path d="M15 0.677083C12.6042 0.677083 10.3776 0.0651042 8.32032-1.15885 6.26302-2.38282 4.63975-4.0191 3.45052-6.06772 2.26128-8.11632 1.66667-10.3559 1.66667-12.7865 1.66667-14.6094 1.99653-16.3715 2.65625-18.073 3.31597-19.7743 4.25347-21.2933 5.46875-22.6302 6.68403-23.967 8.1033-25.013 9.72657-25.7682 11.3498-26.5235 13.1076-26.901 15-26.901 17.4653-26.901 19.7092-26.25 21.7318-24.948 23.7543-23.6458 25.3515-21.9053 26.5235-19.7265 27.6953-17.5477 28.2813-15.2344 28.2813-12.7865 28.2813-10.3733 27.6823-8.13802 26.4843-6.08073 25.2865-4.02343 23.6675-2.38282 21.6277-1.15885 19.5877 0.0651042 17.3785 0.677083 15 0.677083M15-1.11979C18.2118-1.11979 20.3515-2.27865 21.4193-4.59635 22.487-6.91407 23.0208-9.86112 23.0208-13.4375 23.0208-15.4514 22.9167-17.1137 22.7083-18.4245 22.5-19.7352 22.0313-20.9288 21.3022-22.0052 20.8507-22.665 20.2778-23.2465 19.5833-23.75 18.8888-24.2535 18.1553-24.6355 17.3828-24.8958 16.6103-25.1563 15.816-25.2865 15-25.2865 13.75-25.2865 12.5651-25.0043 11.4453-24.4402 10.3255-23.8758 9.39237-23.0642 8.64583-22.0052 7.8993-20.8767 7.42622-19.6355 7.22657-18.2813 7.02692-16.9272 6.92708-15.3125 6.92708-13.4375 6.92708-11.1979 7.1224-9.18837 7.51302-7.40885 7.90365-5.62933 8.68923-4.13628 9.8698-2.92968 11.0504-1.72308 12.7604-1.11979 15-1.11979" fill="#D9D9D9" fill-rule="evenodd" transform="matrix(0 -1 1.00024 0 3076.74 1835.16)"/><path d="M1.79688 0 1.79688-2.10938C3.15105-2.10938 4.27083-2.21788 5.15625-2.4349 6.04167-2.65192 6.48438-3.17708 6.48438-4.01042L6.48438-20.3907C6.48438-21.467 6.32378-22.244 6.0026-22.7213 5.68142-23.1988 5.21702-23.4897 4.60938-23.5938 4.00173-23.698 3.06423-23.75 1.79688-23.75L1.79688-25.8593 10.4948-26.5105 10.4948-20.651C11.2934-22.3698 12.4783-23.776 14.0495-24.8698 15.6207-25.9635 17.335-26.5105 19.1927-26.5105 21.9705-26.5105 24.0582-25.8463 25.4557-24.5182 26.8533-23.1902 27.5522-21.1632 27.5522-18.4375L27.5522-4.01042C27.5522-3.17708 27.9905-2.65192 28.8672-2.4349 29.744-2.21788 30.868-2.10938 32.2397-2.10938L32.2397 0 18.4897 0 18.4897-2.10938C19.8612-2.10938 20.9852-2.21788 21.862-2.4349 22.7387-2.65192 23.1772-3.17708 23.1772-4.01042L23.1772-18.2552C23.1772-20.1997 22.895-21.8055 22.3307-23.073 21.7665-24.3403 20.599-24.974 18.8282-24.974 16.5191-24.974 14.6137-24.0452 13.112-22.1875 11.6103-20.3298 10.8594-18.2205 10.8594-15.8594L10.8594-4.01042C10.8594-3.17708 11.3021-2.65192 12.1875-2.4349 13.0729-2.21788 14.184-2.10938 15.5208-2.10938L15.5208 0 1.79688 0" fill="#D9D9D9" fill-rule="evenodd" transform="matrix(0 -1 1.00024 0 3076.74 1804.61)"/><path d="M7.08333 15 7.08333-45 15.2865-45 15.2865-42.6042 9.50522-42.6042 9.50522 12.6042 15.2865 12.6042 15.2865 15 7.08333 15" fill="#D9D9D9" fill-rule="evenodd" transform="matrix(0 -1 1.00024 0 3076.74 1750.29)"/><path d="M1.79688 0 1.79688-2.10938C3.15105-2.10938 4.27083-2.21788 5.15625-2.4349 6.04167-2.65192 6.48438-3.17708 6.48438-4.01042L6.48438-20.3907C6.48438-21.467 6.32378-22.244 6.0026-22.7213 5.68142-23.1988 5.21702-23.4897 4.60938-23.5938 4.00173-23.698 3.06423-23.75 1.79688-23.75L1.79688-25.8593 10.4948-26.5105 10.4948-20.651C11.2934-22.3698 12.4783-23.776 14.0495-24.8698 15.6207-25.9635 17.335-26.5105 19.1927-26.5105 23.7933-26.5105 26.5017-24.6355 27.3177-20.8855 28.1163-22.5695 29.2838-23.928 30.8203-24.961 32.3568-25.994 34.0452-26.5105 35.8855-26.5105 37.7083-26.5105 39.2405-26.2197 40.4818-25.638 41.7232-25.0565 42.6563-24.1623 43.2813-22.9557 43.9063-21.7492 44.2188-20.243 44.2188-18.4375L44.2188-4.01042C44.2188-3.17708 44.6615-2.65192 45.5468-2.4349 46.4323-2.21788 47.5522-2.10938 48.9063-2.10938L48.9063 0 35.1563 0 35.1563-2.10938C36.5278-2.10938 37.6518-2.21788 38.5287-2.4349 39.4053-2.65192 39.8438-3.17708 39.8438-4.01042L39.8438-18.2552C39.8438-20.2692 39.5617-21.8923 38.9973-23.125 38.4332-24.3577 37.2743-24.974 35.5208-24.974 33.2118-24.974 31.3065-24.0452 29.8047-22.1875 28.303-20.3298 27.5522-18.2205 27.5522-15.8594L27.5522-4.01042C27.5522-3.17708 27.9905-2.65192 28.8672-2.4349 29.744-2.21788 30.868-2.10938 32.2397-2.10938L32.2397 0 18.4897 0 18.4897-2.10938C19.8612-2.10938 20.9852-2.21788 21.862-2.4349 22.7387-2.65192 23.1772-3.17708 23.1772-4.01042L23.1772-18.2552C23.1772-20.1997 22.895-21.8055 22.3307-23.073 21.7665-24.3403 20.599-24.974 18.8282-24.974 16.5191-24.974 14.6137-24.0452 13.112-22.1875 11.6103-20.3298 10.8594-18.2205 10.8594-15.8594L10.8594-4.01042C10.8594-3.17708 11.3021-2.65192 12.1875-2.4349 13.0729-2.21788 14.184-2.10938 15.5208-2.10938L15.5208 0 1.79688 0" fill="#D9D9D9" fill-rule="evenodd" transform="matrix(0 -1 1.00024 0 3076.74 1733.31)"/><path d="M15 0.677083C12.6042 0.677083 10.3776 0.0651042 8.32032-1.15885 6.26302-2.38282 4.63975-4.0191 3.45052-6.06772 2.26128-8.11632 1.66667-10.3559 1.66667-12.7865 1.66667-14.6094 1.99653-16.3715 2.65625-18.073 3.31597-19.7743 4.25347-21.2933 5.46875-22.6302 6.68403-23.967 8.1033-25.013 9.72657-25.7682 11.3498-26.5235 13.1076-26.901 15-26.901 17.4653-26.901 19.7092-26.25 21.7318-24.948 23.7543-23.6458 25.3515-21.9053 26.5235-19.7265 27.6953-17.5477 28.2813-15.2344 28.2813-12.7865 28.2813-10.3733 27.6823-8.13802 26.4843-6.08073 25.2865-4.02343 23.6675-2.38282 21.6277-1.15885 19.5877 0.0651042 17.3785 0.677083 15 0.677083M15-1.11979C18.2118-1.11979 20.3515-2.27865 21.4193-4.59635 22.487-6.91407 23.0208-9.86112 23.0208-13.4375 23.0208-15.4514 22.9167-17.1137 22.7083-18.4245 22.5-19.7352 22.0313-20.9288 21.3022-22.0052 20.8507-22.665 20.2778-23.2465 19.5833-23.75 18.8888-24.2535 18.1553-24.6355 17.3828-24.8958 16.6103-25.1563 15.816-25.2865 15-25.2865 13.75-25.2865 12.5651-25.0043 11.4453-24.4402 10.3255-23.8758 9.39237-23.0642 8.64583-22.0052 7.8993-20.8767 7.42622-19.6355 7.22657-18.2813 7.02692-16.9272 6.92708-15.3125 6.92708-13.4375 6.92708-11.1979 7.1224-9.18837 7.51302-7.40885 7.90365-5.62933 8.68923-4.13628 9.8698-2.92968 11.0504-1.72308 12.7604-1.11979 15-1.11979" fill="#D9D9D9" fill-rule="evenodd" transform="matrix(0 -1 1.00024 0 3076.74 1682.39)"/><path d="M1.84897 0 1.84897-2.10938C3.22048-2.10938 4.34462-2.21788 5.22135-2.4349 6.09808-2.65192 6.53647-3.17708 6.53647-4.01042L6.53647-35.5208C6.53647-36.5798 6.37587-37.3525 6.05468-37.8385 5.7335-38.3247 5.2691-38.6198 4.66147-38.724 4.05382-38.8282 3.11632-38.8802 1.84897-38.8802L1.84897-40.9897 10.7552-41.6407 10.7552-4.01042C10.7552-3.17708 11.1936-2.65192 12.0703-2.4349 12.9471-2.21788 14.0625-2.10938 15.4167-2.10938L15.4167 0 1.84897 0" fill="#D9D9D9" fill-rule="evenodd" transform="matrix(0 -1 1.00024 0 3076.74 1651.83)"/><path d="M3.35938 13.8021C3.35938 13.6806 3.38542 13.6024 3.4375 13.5677L24.2968-44.2708C24.3663-44.4965 24.5008-44.6745 24.7005-44.8047 24.9002-44.9348 25.1215-45 25.3647-45 25.7292-45 26.02-44.8915 26.237-44.6745 26.454-44.4575 26.5625-44.1667 26.5625-43.8022L26.5625-43.5677 5.70313 14.2708C5.47743 14.757 5.10417 15 4.58333 15 4.23612 15 3.94532 14.8828 3.71093 14.6484 3.47657 14.4141 3.35938 14.132 3.35938 13.8021" fill="#D9D9D9" fill-rule="evenodd" transform="matrix(0 -1 1.00024 0 3076.74 1634.86)"/><path d="M1.79688 0 1.79688-2.10938C3.15105-2.10938 4.27083-2.21788 5.15625-2.4349 6.04167-2.65192 6.48438-3.17708 6.48438-4.01042L6.48438-20.3907C6.48438-21.467 6.32378-22.244 6.0026-22.7213 5.68142-23.1988 5.21702-23.4897 4.60938-23.5938 4.00173-23.698 3.06423-23.75 1.79688-23.75L1.79688-25.8593 10.4948-26.5105 10.4948-20.651C11.2934-22.3698 12.4783-23.776 14.0495-24.8698 15.6207-25.9635 17.335-26.5105 19.1927-26.5105 23.7933-26.5105 26.5017-24.6355 27.3177-20.8855 28.1163-22.5695 29.2838-23.928 30.8203-24.961 32.3568-25.994 34.0452-26.5105 35.8855-26.5105 37.7083-26.5105 39.2405-26.2197 40.4818-25.638 41.7232-25.0565 42.6563-24.1623 43.2813-22.9557 43.9063-21.7492 44.2188-20.243 44.2188-18.4375L44.2188-4.01042C44.2188-3.17708 44.6615-2.65192 45.5468-2.4349 46.4323-2.21788 47.5522-2.10938 48.9063-2.10938L48.9063 0 35.1563 0 35.1563-2.10938C36.5278-2.10938 37.6518-2.21788 38.5287-2.4349 39.4053-2.65192 39.8438-3.17708 39.8438-4.01042L39.8438-18.2552C39.8438-20.2692 39.5617-21.8923 38.9973-23.125 38.4332-24.3577 37.2743-24.974 35.5208-24.974 33.2118-24.974 31.3065-24.0452 29.8047-22.1875 28.303-20.3298 27.5522-18.2205 27.5522-15.8594L27.5522-4.01042C27.5522-3.17708 27.9905-2.65192 28.8672-2.4349 29.744-2.21788 30.868-2.10938 32.2397-2.10938L32.2397 0 18.4897 0 18.4897-2.10938C19.8612-2.10938 20.9852-2.21788 21.862-2.4349 22.7387-2.65192 23.1772-3.17708 23.1772-4.01042L23.1772-18.2552C23.1772-20.1997 22.895-21.8055 22.3307-23.073 21.7665-24.3403 20.599-24.974 18.8282-24.974 16.5191-24.974 14.6137-24.0452 13.112-22.1875 11.6103-20.3298 10.8594-18.2205 10.8594-15.8594L10.8594-4.01042C10.8594-3.17708 11.3021-2.65192 12.1875-2.4349 13.0729-2.21788 14.184-2.10938 15.5208-2.10938L15.5208 0 1.79688 0" fill="#D9D9D9" fill-rule="evenodd" transform="matrix(0 -1 1.00024 0 3076.74 1604.3)"/><path d="M3.95833-3.22917C4.61805-2.29167 5.4948-1.58854 6.58855-1.11979 7.6823-0.651042 8.86285-0.416667 10.1302-0.416667 11.7448-0.416667 12.8906-1.10677 13.5677-2.48698 14.2448-3.86718 14.5833-5.43403 14.5833-7.1875 14.5833-7.96875 14.5139-8.75433 14.375-9.54427 14.2361-10.3342 13.9974-11.0677 13.6588-11.7448 13.3203-12.4219 12.8559-12.9644 12.2656-13.3724 11.6754-13.7804 10.9549-13.9844 10.1042-13.9844L7.31772-13.9844C7.07465-13.9844 6.95313-14.1059 6.95313-14.349L6.95313-14.7136C6.95313-14.9219 7.07465-15.0261 7.31772-15.0261L9.63542-15.2083C10.6076-15.2083 11.4149-15.5773 12.0573-16.3151 12.6997-17.053 13.1684-17.947 13.4636-18.9973 13.7587-20.0477 13.9063-21.0503 13.9063-22.0052 13.9063-23.3247 13.5981-24.414 12.9818-25.2735 12.3655-26.1328 11.4149-26.5625 10.1302-26.5625 9.07118-26.5625 8.0599-26.3585 7.09635-25.9505 6.13282-25.5425 5.36458-24.9392 4.79167-24.1407 4.86112-24.1407 4.9132-24.145 4.94792-24.1537 4.98263-24.1623 5.02605-24.1667 5.07813-24.1667 5.70313-24.1667 6.2283-23.9497 6.65365-23.5157 7.079-23.0817 7.29167-22.5608 7.29167-21.9532 7.29167-21.3628 7.079-20.8507 6.65365-20.4167 6.2283-19.9827 5.70313-19.7657 5.07813-19.7657 4.47048-19.7657 3.94965-19.9827 3.51563-20.4167 3.0816-20.8507 2.86458-21.3628 2.86458-21.9532 2.86458-23.151 3.22483-24.1883 3.94532-25.0652 4.6658-25.9418 5.59028-26.6102 6.71875-27.0703 7.84722-27.5303 8.98438-27.7605 10.1302-27.7605 10.9809-27.7605 11.8707-27.6345 12.7995-27.3828 13.7283-27.131 14.5747-26.7708 15.3386-26.3022 16.1024-25.8333 16.7232-25.2343 17.2005-24.5052 17.678-23.776 17.9167-22.9427 17.9167-22.0052 17.9167-20.842 17.6563-19.7657 17.1355-18.776 16.6146-17.7865 15.8984-16.9315 14.987-16.2109 14.0755-15.4904 13.0816-14.9566 12.0052-14.6094 13.2031-14.3663 14.3446-13.9063 15.4297-13.2292 16.5147-12.5521 17.3872-11.684 18.0468-10.625 18.7067-9.56597 19.0365-8.42882 19.0365-7.21355 19.0365-5.6684 18.6155-4.27517 17.7735-3.03385 16.9315-1.79253 15.829-0.824653 14.4662-0.130208 13.1033 0.564237 11.658 0.911458 10.1302 0.911458 8.82813 0.911458 7.5217 0.664063 6.21093 0.169272 4.90017-0.325522 3.82813-1.06771 2.9948-2.0573 2.16147-3.04688 1.7448-4.23612 1.7448-5.625 1.7448-6.31945 1.97483-6.8967 2.4349-7.35677 2.89497-7.81683 3.47222-8.04688 4.16667-8.04688 4.61805-8.04688 5.03038-7.94272 5.40365-7.73438 5.77692-7.52605 6.06772-7.2309 6.27605-6.84897 6.48438-6.46702 6.58855-6.05903 6.58855-5.625 6.58855-4.94792 6.34983-4.37933 5.8724-3.91927 5.39497-3.4592 4.82638-3.22917 4.16667-3.22917L3.95833-3.22917" fill="#D9D9D9" fill-rule="evenodd" transform="matrix(0 -1 1.00024 0 3054.56 1553.37)"/><path d="M1.32813 15 1.32813 12.6042 7.16147 12.6042 7.16147-42.6042 1.32813-42.6042 1.32813-45 9.5573-45 9.5573 15 1.32813 15" fill="#D9D9D9" fill-rule="evenodd" transform="matrix(0 -1 1.00024 0 3076.74 1528.93)"/><path d="M233.333 1045 233.333 85" stroke="#D9D9D9" stroke-width="1.11111" stroke-linecap="square" stroke-linejoin="round" fill="none" fill-rule="evenodd" transform="matrix(1.00024 0 0 1 3004.28 1264)"/><path d="M1346.67 1045 1346.67 85" stroke="#D9D9D9" stroke-width="1.11111" stroke-linecap="square" stroke-linejoin="round" fill="none" fill-rule="evenodd" transform="matrix(1.00024 0 0 1 3004.28 1264)"/><path d="M233.333 1045 244.467 1045" stroke="#D9D9D9" stroke-width="1.11111" stroke-linecap="square" stroke-linejoin="round" fill="none" fill-rule="evenodd" transform="matrix(1.00024 0 0 1 3004.28 1264)"/><path d="M1335.53 1045 1346.67 1045" stroke="#D9D9D9" stroke-width="1.11111" stroke-linecap="square" stroke-linejoin="round" fill="none" fill-rule="evenodd" transform="matrix(1.00024 0 0 1 3004.28 1264)"/><path d="M233.333 900.96 244.467 900.96" stroke="#D9D9D9" stroke-width="1.11111" stroke-linecap="square" stroke-linejoin="round" fill="none" fill-rule="evenodd" transform="matrix(1.00024 0 0 1 3004.28 1264)"/><path d="M1335.53 900.96 1346.67 900.96" stroke="#D9D9D9" stroke-width="1.11111" stroke-linecap="square" stroke-linejoin="round" fill="none" fill-rule="evenodd" transform="matrix(1.00024 0 0 1 3004.28 1264)"/><path d="M233.333 756.92 244.467 756.92" stroke="#D9D9D9" stroke-width="1.11111" stroke-linecap="square" stroke-linejoin="round" fill="none" fill-rule="evenodd" transform="matrix(1.00024 0 0 1 3004.28 1264)"/><path d="M1335.53 756.92 1346.67 756.92" stroke="#D9D9D9" stroke-width="1.11111" stroke-linecap="square" stroke-linejoin="round" fill="none" fill-rule="evenodd" transform="matrix(1.00024 0 0 1 3004.28 1264)"/><path d="M233.333 612.88 244.467 612.88" stroke="#D9D9D9" stroke-width="1.11111" stroke-linecap="square" stroke-linejoin="round" fill="none" fill-rule="evenodd" transform="matrix(1.00024 0 0 1 3004.28 1264)"/><path d="M1335.53 612.88 1346.67 612.88" stroke="#D9D9D9" stroke-width="1.11111" stroke-linecap="square" stroke-linejoin="round" fill="none" fill-rule="evenodd" transform="matrix(1.00024 0 0 1 3004.28 1264)"/><path d="M233.333 468.84 244.467 468.84" stroke="#D9D9D9" stroke-width="1.11111" stroke-linecap="square" stroke-linejoin="round" fill="none" fill-rule="evenodd" transform="matrix(1.00024 0 0 1 3004.28 1264)"/><path d="M1335.53 468.84 1346.67 468.84" stroke="#D9D9D9" stroke-width="1.11111" stroke-linecap="square" stroke-linejoin="round" fill="none" fill-rule="evenodd" transform="matrix(1.00024 0 0 1 3004.28 1264)"/><path d="M233.333 324.8 244.467 324.8" stroke="#D9D9D9" stroke-width="1.11111" stroke-linecap="square" stroke-linejoin="round" fill="none" fill-rule="evenodd" transform="matrix(1.00024 0 0 1 3004.28 1264)"/><path d="M1335.53 324.8 1346.67 324.8" stroke="#D9D9D9" stroke-width="1.11111" stroke-linecap="square" stroke-linejoin="round" fill="none" fill-rule="evenodd" transform="matrix(1.00024 0 0 1 3004.28 1264)"/><path d="M233.333 180.76 244.467 180.76" stroke="#D9D9D9" stroke-width="1.11111" stroke-linecap="square" stroke-linejoin="round" fill="none" fill-rule="evenodd" transform="matrix(1.00024 0 0 1 3004.28 1264)"/><path d="M1335.53 180.76 1346.67 180.76" stroke="#D9D9D9" stroke-width="1.11111" stroke-linecap="square" stroke-linejoin="round" fill="none" fill-rule="evenodd" transform="matrix(1.00024 0 0 1 3004.28 1264)"/><path d="M2.29167-19.4272C2.29167-24.0798 2.7691-27.8255 3.72397-30.664 4.67882-33.5027 6.10243-35.6902 7.9948-37.2265 9.88715-38.763 12.2656-39.5313 15.1302-39.5313 17.2308-39.5313 19.0798-39.1058 20.6772-38.2552 22.2743-37.4045 23.5893-36.1762 24.6223-34.5703 25.6553-32.9643 26.4713-31.0113 27.0703-28.711 27.6693-26.4107 27.9688-23.316 27.9688-19.4272 27.9688-14.809 27.4913-11.0807 26.5365-8.24218 25.5817-5.40365 24.1623-3.20747 22.2787-1.65365 20.395-0.0998263 18.0122 0.677083 15.1302 0.677083 11.3281 0.677083 8.34202-0.685763 6.17188-3.41147 3.58507-6.69272 2.29167-12.0313 2.29167-19.4272M7.23958-19.4272C7.23958-12.9514 7.99913-8.64583 9.51823-6.51042 11.0373-4.375 12.908-3.3073 15.1302-3.3073 17.335-3.3073 19.197-4.37933 20.7162-6.52343 22.2352-8.66753 22.9948-12.9688 22.9948-19.4272 22.9948-25.9028 22.2352-30.204 20.7162-32.3307 19.197-34.4575 17.3177-35.5208 15.0781-35.5208 12.8559-35.5208 11.0764-34.5833 9.73958-32.7083 8.07292-30.3125 7.23958-25.8855 7.23958-19.4272" fill="#D9D9D9" fill-rule="evenodd" transform="matrix(1.00024 0 0 1 3192.1 2328.17)"/><path d="M2.29167-19.4272C2.29167-24.0798 2.7691-27.8255 3.72397-30.664 4.67882-33.5027 6.10243-35.6902 7.9948-37.2265 9.88715-38.763 12.2656-39.5313 15.1302-39.5313 17.2308-39.5313 19.0798-39.1058 20.6772-38.2552 22.2743-37.4045 23.5893-36.1762 24.6223-34.5703 25.6553-32.9643 26.4713-31.0113 27.0703-28.711 27.6693-26.4107 27.9688-23.316 27.9688-19.4272 27.9688-14.809 27.4913-11.0807 26.5365-8.24218 25.5817-5.40365 24.1623-3.20747 22.2787-1.65365 20.395-0.0998263 18.0122 0.677083 15.1302 0.677083 11.3281 0.677083 8.34202-0.685763 6.17188-3.41147 3.58507-6.69272 2.29167-12.0313 2.29167-19.4272M7.23958-19.4272C7.23958-12.9514 7.99913-8.64583 9.51823-6.51042 11.0373-4.375 12.908-3.3073 15.1302-3.3073 17.335-3.3073 19.197-4.37933 20.7162-6.52343 22.2352-8.66753 22.9948-12.9688 22.9948-19.4272 22.9948-25.9028 22.2352-30.204 20.7162-32.3307 19.197-34.4575 17.3177-35.5208 15.0781-35.5208 12.8559-35.5208 11.0764-34.5833 9.73958-32.7083 8.07292-30.3125 7.23958-25.8855 7.23958-19.4272M35 0 35-5.4948 40.4948-5.4948 40.4948 0 35 0M47.2917-19.4272C47.2917-24.0798 47.7692-27.8255 48.724-30.664 49.6788-33.5027 51.1025-35.6902 52.9948-37.2265 54.8872-38.763 57.2657-39.5313 60.1302-39.5313 62.2308-39.5313 64.0798-39.1058 65.6772-38.2552 67.2743-37.4045 68.5893-36.1762 69.6223-34.5703 70.6553-32.9643 71.4713-31.0113 72.0703-28.711 72.6693-26.4107 72.9688-23.316 72.9688-19.4272 72.9688-14.809 72.4913-11.0807 71.5365-8.24218 70.5817-5.40365 69.1623-3.20747 67.2787-1.65365 65.395-0.0998263 63.0122 0.677083 60.1302 0.677083 56.3282 0.677083 53.342-0.685763 51.1718-3.41147 48.585-6.69272 47.2917-12.0313 47.2917-19.4272M52.2397-19.4272C52.2397-12.9514 52.9992-8.64583 54.5182-6.51042 56.0373-4.375 57.908-3.3073 60.1302-3.3073 62.335-3.3073 64.197-4.37933 65.7162-6.52343 67.2352-8.66753 67.9948-12.9688 67.9948-19.4272 67.9948-25.9028 67.2352-30.204 65.7162-32.3307 64.197-34.4575 62.3177-35.5208 60.0782-35.5208 57.8558-35.5208 56.0763-34.5833 54.7397-32.7083 53.073-30.3125 52.2397-25.8855 52.2397-19.4272M95.4948 0 90.651 0 90.651-30.8073C89.4878-29.6962 87.9643-28.585 86.0807-27.474 84.197-26.3628 82.5-25.5295 80.9897-24.974L80.9897-29.6615C83.698-30.9288 86.0633-32.4653 88.086-34.2708 90.1085-36.0763 91.5365-37.8298 92.3698-39.5313L95.4948-39.5313 95.4948 0" fill="#D9D9D9" fill-rule="evenodd" transform="matrix(1.00024 0 0 1 3117.08 2184.13)"/><path d="M2.29167-19.4272C2.29167-24.0798 2.7691-27.8255 3.72397-30.664 4.67882-33.5027 6.10243-35.6902 7.9948-37.2265 9.88715-38.763 12.2656-39.5313 15.1302-39.5313 17.2308-39.5313 19.0798-39.1058 20.6772-38.2552 22.2743-37.4045 23.5893-36.1762 24.6223-34.5703 25.6553-32.9643 26.4713-31.0113 27.0703-28.711 27.6693-26.4107 27.9688-23.316 27.9688-19.4272 27.9688-14.809 27.4913-11.0807 26.5365-8.24218 25.5817-5.40365 24.1623-3.20747 22.2787-1.65365 20.395-0.0998263 18.0122 0.677083 15.1302 0.677083 11.3281 0.677083 8.34202-0.685763 6.17188-3.41147 3.58507-6.69272 2.29167-12.0313 2.29167-19.4272M7.23958-19.4272C7.23958-12.9514 7.99913-8.64583 9.51823-6.51042 11.0373-4.375 12.908-3.3073 15.1302-3.3073 17.335-3.3073 19.197-4.37933 20.7162-6.52343 22.2352-8.66753 22.9948-12.9688 22.9948-19.4272 22.9948-25.9028 22.2352-30.204 20.7162-32.3307 19.197-34.4575 17.3177-35.5208 15.0781-35.5208 12.8559-35.5208 11.0764-34.5833 9.73958-32.7083 8.07292-30.3125 7.23958-25.8855 7.23958-19.4272M35 0 35-5.4948 40.4948-5.4948 40.4948 0 35 0M47.2917-19.4272C47.2917-24.0798 47.7692-27.8255 48.724-30.664 49.6788-33.5027 51.1025-35.6902 52.9948-37.2265 54.8872-38.763 57.2657-39.5313 60.1302-39.5313 62.2308-39.5313 64.0798-39.1058 65.6772-38.2552 67.2743-37.4045 68.5893-36.1762 69.6223-34.5703 70.6553-32.9643 71.4713-31.0113 72.0703-28.711 72.6693-26.4107 72.9688-23.316 72.9688-19.4272 72.9688-14.809 72.4913-11.0807 71.5365-8.24218 70.5817-5.40365 69.1623-3.20747 67.2787-1.65365 65.395-0.0998263 63.0122 0.677083 60.1302 0.677083 56.3282 0.677083 53.342-0.685763 51.1718-3.41147 48.585-6.69272 47.2917-12.0313 47.2917-19.4272M52.2397-19.4272C52.2397-12.9514 52.9992-8.64583 54.5182-6.51042 56.0373-4.375 57.908-3.3073 60.1302-3.3073 62.335-3.3073 64.197-4.37933 65.7162-6.52343 67.2352-8.66753 67.9948-12.9688 67.9948-19.4272 67.9948-25.9028 67.2352-30.204 65.7162-32.3307 64.197-34.4575 62.3177-35.5208 60.0782-35.5208 57.8558-35.5208 56.0763-34.5833 54.7397-32.7083 53.073-30.3125 52.2397-25.8855 52.2397-19.4272M102.682-4.63542 102.682 0 76.6667 0C76.632-1.1632 76.823-2.28298 77.2397-3.35938 77.8993-5.13022 78.9583-6.875 80.4167-8.59375 81.875-10.3125 83.9843-12.3004 86.7448-14.5573 91.0157-18.0642 93.9018-20.842 95.4037-22.8907 96.9053-24.9392 97.6563-26.875 97.6563-28.698 97.6563-30.625 96.9748-32.244 95.612-33.5547 94.2492-34.8655 92.4653-35.5208 90.2605-35.5208 87.934-35.5208 86.072-34.822 84.6745-33.4245 83.2768-32.0268 82.5695-30.0955 82.5522-27.6302L77.5782-28.151C77.9253-31.849 79.2057-34.6702 81.4193-36.6147 83.6328-38.559 86.6147-39.5313 90.3647-39.5313 94.132-39.5313 97.118-38.4852 99.323-36.3932 101.528-34.3012 102.63-31.7013 102.63-28.5938 102.63-27.0313 102.309-25.4862 101.667-23.9583 101.024-22.4305 99.9567-20.8247 98.4635-19.1407 96.9705-17.4567 94.4878-15.1476 91.0157-12.2136 88.1163-9.78298 86.2543-8.13368 85.4297-7.26563 84.605-6.39757 83.9237-5.52083 83.3855-4.63542L102.682-4.63542" fill="#D9D9D9" fill-rule="evenodd" transform="matrix(1.00024 0 0 1 3117.08 2040.09)"/><path d="M2.29167-19.4272C2.29167-24.0798 2.7691-27.8255 3.72397-30.664 4.67882-33.5027 6.10243-35.6902 7.9948-37.2265 9.88715-38.763 12.2656-39.5313 15.1302-39.5313 17.2308-39.5313 19.0798-39.1058 20.6772-38.2552 22.2743-37.4045 23.5893-36.1762 24.6223-34.5703 25.6553-32.9643 26.4713-31.0113 27.0703-28.711 27.6693-26.4107 27.9688-23.316 27.9688-19.4272 27.9688-14.809 27.4913-11.0807 26.5365-8.24218 25.5817-5.40365 24.1623-3.20747 22.2787-1.65365 20.395-0.0998263 18.0122 0.677083 15.1302 0.677083 11.3281 0.677083 8.34202-0.685763 6.17188-3.41147 3.58507-6.69272 2.29167-12.0313 2.29167-19.4272M7.23958-19.4272C7.23958-12.9514 7.99913-8.64583 9.51823-6.51042 11.0373-4.375 12.908-3.3073 15.1302-3.3073 17.335-3.3073 19.197-4.37933 20.7162-6.52343 22.2352-8.66753 22.9948-12.9688 22.9948-19.4272 22.9948-25.9028 22.2352-30.204 20.7162-32.3307 19.197-34.4575 17.3177-35.5208 15.0781-35.5208 12.8559-35.5208 11.0764-34.5833 9.73958-32.7083 8.07292-30.3125 7.23958-25.8855 7.23958-19.4272M35 0 35-5.4948 40.4948-5.4948 40.4948 0 35 0M47.2917-19.4272C47.2917-24.0798 47.7692-27.8255 48.724-30.664 49.6788-33.5027 51.1025-35.6902 52.9948-37.2265 54.8872-38.763 57.2657-39.5313 60.1302-39.5313 62.2308-39.5313 64.0798-39.1058 65.6772-38.2552 67.2743-37.4045 68.5893-36.1762 69.6223-34.5703 70.6553-32.9643 71.4713-31.0113 72.0703-28.711 72.6693-26.4107 72.9688-23.316 72.9688-19.4272 72.9688-14.809 72.4913-11.0807 71.5365-8.24218 70.5817-5.40365 69.1623-3.20747 67.2787-1.65365 65.395-0.0998263 63.0122 0.677083 60.1302 0.677083 56.3282 0.677083 53.342-0.685763 51.1718-3.41147 48.585-6.69272 47.2917-12.0313 47.2917-19.4272M52.2397-19.4272C52.2397-12.9514 52.9992-8.64583 54.5182-6.51042 56.0373-4.375 57.908-3.3073 60.1302-3.3073 62.335-3.3073 64.197-4.37933 65.7162-6.52343 67.2352-8.66753 67.9948-12.9688 67.9948-19.4272 67.9948-25.9028 67.2352-30.204 65.7162-32.3307 64.197-34.4575 62.3177-35.5208 60.0782-35.5208 57.8558-35.5208 56.0763-34.5833 54.7397-32.7083 53.073-30.3125 52.2397-25.8855 52.2397-19.4272M77.3177-10.3906 82.1355-11.0417C82.691-8.29862 83.6372-6.32378 84.974-5.11718 86.3108-3.91058 87.934-3.3073 89.8438-3.3073 92.118-3.3073 94.0408-4.09288 95.612-5.66407 97.1832-7.23525 97.9688-9.18403 97.9688-11.5104 97.9688-13.7326 97.244-15.5642 95.7943-17.0052 94.3447-18.4462 92.5-19.1667 90.2605-19.1667 89.3403-19.1667 88.2032-18.993 86.849-18.6458L87.3698-22.8907C87.6997-22.8558 87.96-22.8385 88.151-22.8385 90.217-22.8385 92.0747-23.3723 93.724-24.4402 95.3733-25.5078 96.198-27.1615 96.198-29.401 96.198-31.1718 95.5947-32.6388 94.388-33.8022 93.1815-34.9653 91.632-35.5468 89.7397-35.5468 87.8647-35.5468 86.3022-34.9567 85.0522-33.776 83.8022-32.5955 82.9948-30.8247 82.6302-28.4635L77.7865-29.323C78.3767-32.5695 79.7222-35.0825 81.823-36.862 83.9237-38.6415 86.5278-39.5313 89.6355-39.5313 91.7882-39.5313 93.7673-39.0712 95.573-38.151 97.3785-37.2308 98.7587-35.9722 99.7135-34.375 100.668-32.7778 101.146-31.085 101.146-29.2968 101.146-27.5955 100.69-26.046 99.7787-24.6485 98.8672-23.2508 97.5173-22.1442 95.7292-21.3282 98.0555-20.79 99.8655-19.6745 101.159-17.9818 102.452-16.2891 103.099-14.1754 103.099-11.6406 103.099-8.20313 101.845-5.28647 99.336-2.89063 96.8273-0.494792 93.6545 0.703125 89.8177 0.703125 86.3628 0.703125 83.494-0.325522 81.211-2.38282 78.928-4.4401 77.6302-7.10938 77.3177-10.3906" fill="#D9D9D9" fill-rule="evenodd" transform="matrix(1.00024 0 0 1 3117.08 1896.05)"/><path d="M2.29167-19.4272C2.29167-24.0798 2.7691-27.8255 3.72397-30.664 4.67882-33.5027 6.10243-35.6902 7.9948-37.2265 9.88715-38.763 12.2656-39.5313 15.1302-39.5313 17.2308-39.5313 19.0798-39.1058 20.6772-38.2552 22.2743-37.4045 23.5893-36.1762 24.6223-34.5703 25.6553-32.9643 26.4713-31.0113 27.0703-28.711 27.6693-26.4107 27.9688-23.316 27.9688-19.4272 27.9688-14.809 27.4913-11.0807 26.5365-8.24218 25.5817-5.40365 24.1623-3.20747 22.2787-1.65365 20.395-0.0998263 18.0122 0.677083 15.1302 0.677083 11.3281 0.677083 8.34202-0.685763 6.17188-3.41147 3.58507-6.69272 2.29167-12.0313 2.29167-19.4272M7.23958-19.4272C7.23958-12.9514 7.99913-8.64583 9.51823-6.51042 11.0373-4.375 12.908-3.3073 15.1302-3.3073 17.335-3.3073 19.197-4.37933 20.7162-6.52343 22.2352-8.66753 22.9948-12.9688 22.9948-19.4272 22.9948-25.9028 22.2352-30.204 20.7162-32.3307 19.197-34.4575 17.3177-35.5208 15.0781-35.5208 12.8559-35.5208 11.0764-34.5833 9.73958-32.7083 8.07292-30.3125 7.23958-25.8855 7.23958-19.4272M35 0 35-5.4948 40.4948-5.4948 40.4948 0 35 0M47.2917-19.4272C47.2917-24.0798 47.7692-27.8255 48.724-30.664 49.6788-33.5027 51.1025-35.6902 52.9948-37.2265 54.8872-38.763 57.2657-39.5313 60.1302-39.5313 62.2308-39.5313 64.0798-39.1058 65.6772-38.2552 67.2743-37.4045 68.5893-36.1762 69.6223-34.5703 70.6553-32.9643 71.4713-31.0113 72.0703-28.711 72.6693-26.4107 72.9688-23.316 72.9688-19.4272 72.9688-14.809 72.4913-11.0807 71.5365-8.24218 70.5817-5.40365 69.1623-3.20747 67.2787-1.65365 65.395-0.0998263 63.0122 0.677083 60.1302 0.677083 56.3282 0.677083 53.342-0.685763 51.1718-3.41147 48.585-6.69272 47.2917-12.0313 47.2917-19.4272M52.2397-19.4272C52.2397-12.9514 52.9992-8.64583 54.5182-6.51042 56.0373-4.375 57.908-3.3073 60.1302-3.3073 62.335-3.3073 64.197-4.37933 65.7162-6.52343 67.2352-8.66753 67.9948-12.9688 67.9948-19.4272 67.9948-25.9028 67.2352-30.204 65.7162-32.3307 64.197-34.4575 62.3177-35.5208 60.0782-35.5208 57.8558-35.5208 56.0763-34.5833 54.7397-32.7083 53.073-30.3125 52.2397-25.8855 52.2397-19.4272M92.7865 0 92.7865-9.42708 75.7032-9.42708 75.7032-13.8542 93.6718-39.375 97.6042-39.375 97.6042-13.8542 102.943-13.8542 102.943-9.42708 97.6042-9.42708 97.6042 0 92.7865 0M92.7865-13.8542 92.7865-31.6147 80.4427-13.8542 92.7865-13.8542" fill="#D9D9D9" fill-rule="evenodd" transform="matrix(1.00024 0 0 1 3117.08 1752.01)"/><path d="M2.29167-19.4272C2.29167-24.0798 2.7691-27.8255 3.72397-30.664 4.67882-33.5027 6.10243-35.6902 7.9948-37.2265 9.88715-38.763 12.2656-39.5313 15.1302-39.5313 17.2308-39.5313 19.0798-39.1058 20.6772-38.2552 22.2743-37.4045 23.5893-36.1762 24.6223-34.5703 25.6553-32.9643 26.4713-31.0113 27.0703-28.711 27.6693-26.4107 27.9688-23.316 27.9688-19.4272 27.9688-14.809 27.4913-11.0807 26.5365-8.24218 25.5817-5.40365 24.1623-3.20747 22.2787-1.65365 20.395-0.0998263 18.0122 0.677083 15.1302 0.677083 11.3281 0.677083 8.34202-0.685763 6.17188-3.41147 3.58507-6.69272 2.29167-12.0313 2.29167-19.4272M7.23958-19.4272C7.23958-12.9514 7.99913-8.64583 9.51823-6.51042 11.0373-4.375 12.908-3.3073 15.1302-3.3073 17.335-3.3073 19.197-4.37933 20.7162-6.52343 22.2352-8.66753 22.9948-12.9688 22.9948-19.4272 22.9948-25.9028 22.2352-30.204 20.7162-32.3307 19.197-34.4575 17.3177-35.5208 15.0781-35.5208 12.8559-35.5208 11.0764-34.5833 9.73958-32.7083 8.07292-30.3125 7.23958-25.8855 7.23958-19.4272M35 0 35-5.4948 40.4948-5.4948 40.4948 0 35 0M47.2917-19.4272C47.2917-24.0798 47.7692-27.8255 48.724-30.664 49.6788-33.5027 51.1025-35.6902 52.9948-37.2265 54.8872-38.763 57.2657-39.5313 60.1302-39.5313 62.2308-39.5313 64.0798-39.1058 65.6772-38.2552 67.2743-37.4045 68.5893-36.1762 69.6223-34.5703 70.6553-32.9643 71.4713-31.0113 72.0703-28.711 72.6693-26.4107 72.9688-23.316 72.9688-19.4272 72.9688-14.809 72.4913-11.0807 71.5365-8.24218 70.5817-5.40365 69.1623-3.20747 67.2787-1.65365 65.395-0.0998263 63.0122 0.677083 60.1302 0.677083 56.3282 0.677083 53.342-0.685763 51.1718-3.41147 48.585-6.69272 47.2917-12.0313 47.2917-19.4272M52.2397-19.4272C52.2397-12.9514 52.9992-8.64583 54.5182-6.51042 56.0373-4.375 57.908-3.3073 60.1302-3.3073 62.335-3.3073 64.197-4.37933 65.7162-6.52343 67.2352-8.66753 67.9948-12.9688 67.9948-19.4272 67.9948-25.9028 67.2352-30.204 65.7162-32.3307 64.197-34.4575 62.3177-35.5208 60.0782-35.5208 57.8558-35.5208 56.0763-34.5833 54.7397-32.7083 53.073-30.3125 52.2397-25.8855 52.2397-19.4272M77.2917-10.3125 82.3698-10.7552C82.7343-8.27257 83.6025-6.41058 84.974-5.16927 86.3455-3.92795 87.9948-3.3073 89.9218-3.3073 92.2483-3.3073 94.2188-4.18403 95.8333-5.9375 97.448-7.69097 98.2552-10.0174 98.2552-12.9167 98.2552-15.6771 97.4827-17.8515 95.9375-19.4402 94.3923-21.0287 92.3612-21.823 89.8438-21.823 88.2987-21.823 86.8967-21.4713 85.638-20.7682 84.3793-20.0652 83.3942-19.1493 82.6823-18.0208L78.151-18.6198 81.9532-38.8282 101.537-38.8282 101.537-34.2188 85.8333-34.2188 83.698-23.6458C86.059-25.2778 88.5417-26.0938 91.1458-26.0938 94.5833-26.0938 97.4827-24.9045 99.8438-22.526 102.205-20.1475 103.386-17.092 103.386-13.3594 103.386-9.78298 102.344-6.70138 100.261-4.11458 97.743-0.920138 94.2968 0.677083 89.9218 0.677083 86.3455 0.677083 83.4245-0.325522 81.1588-2.33073 78.8932-4.33593 77.6042-6.99653 77.2917-10.3125" fill="#D9D9D9" fill-rule="evenodd" transform="matrix(1.00024 0 0 1 3117.08 1607.97)"/><path d="M2.29167-19.4272C2.29167-24.0798 2.7691-27.8255 3.72397-30.664 4.67882-33.5027 6.10243-35.6902 7.9948-37.2265 9.88715-38.763 12.2656-39.5313 15.1302-39.5313 17.2308-39.5313 19.0798-39.1058 20.6772-38.2552 22.2743-37.4045 23.5893-36.1762 24.6223-34.5703 25.6553-32.9643 26.4713-31.0113 27.0703-28.711 27.6693-26.4107 27.9688-23.316 27.9688-19.4272 27.9688-14.809 27.4913-11.0807 26.5365-8.24218 25.5817-5.40365 24.1623-3.20747 22.2787-1.65365 20.395-0.0998263 18.0122 0.677083 15.1302 0.677083 11.3281 0.677083 8.34202-0.685763 6.17188-3.41147 3.58507-6.69272 2.29167-12.0313 2.29167-19.4272M7.23958-19.4272C7.23958-12.9514 7.99913-8.64583 9.51823-6.51042 11.0373-4.375 12.908-3.3073 15.1302-3.3073 17.335-3.3073 19.197-4.37933 20.7162-6.52343 22.2352-8.66753 22.9948-12.9688 22.9948-19.4272 22.9948-25.9028 22.2352-30.204 20.7162-32.3307 19.197-34.4575 17.3177-35.5208 15.0781-35.5208 12.8559-35.5208 11.0764-34.5833 9.73958-32.7083 8.07292-30.3125 7.23958-25.8855 7.23958-19.4272M35 0 35-5.4948 40.4948-5.4948 40.4948 0 35 0M47.2917-19.4272C47.2917-24.0798 47.7692-27.8255 48.724-30.664 49.6788-33.5027 51.1025-35.6902 52.9948-37.2265 54.8872-38.763 57.2657-39.5313 60.1302-39.5313 62.2308-39.5313 64.0798-39.1058 65.6772-38.2552 67.2743-37.4045 68.5893-36.1762 69.6223-34.5703 70.6553-32.9643 71.4713-31.0113 72.0703-28.711 72.6693-26.4107 72.9688-23.316 72.9688-19.4272 72.9688-14.809 72.4913-11.0807 71.5365-8.24218 70.5817-5.40365 69.1623-3.20747 67.2787-1.65365 65.395-0.0998263 63.0122 0.677083 60.1302 0.677083 56.3282 0.677083 53.342-0.685763 51.1718-3.41147 48.585-6.69272 47.2917-12.0313 47.2917-19.4272M52.2397-19.4272C52.2397-12.9514 52.9992-8.64583 54.5182-6.51042 56.0373-4.375 57.908-3.3073 60.1302-3.3073 62.335-3.3073 64.197-4.37933 65.7162-6.52343 67.2352-8.66753 67.9948-12.9688 67.9948-19.4272 67.9948-25.9028 67.2352-30.204 65.7162-32.3307 64.197-34.4575 62.3177-35.5208 60.0782-35.5208 57.8558-35.5208 56.0763-34.5833 54.7397-32.7083 53.073-30.3125 52.2397-25.8855 52.2397-19.4272M102.37-29.7397 97.5522-29.349C97.1355-31.2413 96.5278-32.6215 95.7292-33.4897 94.4272-34.8612 92.8212-35.5468 90.9115-35.5468 89.3663-35.5468 88.0122-35.1215 86.849-34.2708 85.3212-33.1597 84.119-31.5408 83.2422-29.414 82.3655-27.2873 81.9097-24.2535 81.875-20.3125 83.0382-22.0833 84.4618-23.3985 86.1458-24.2578 87.8298-25.1172 89.592-25.5468 91.4323-25.5468 94.6615-25.5468 97.4088-24.3577 99.6745-21.9792 101.94-19.6007 103.073-16.5365 103.073-12.7865 103.073-10.3212 102.539-8.02517 101.471-5.89843 100.404-3.7717 98.9367-2.1441 97.0703-1.01562 95.204 0.112847 93.0903 0.677083 90.7292 0.677083 86.7013 0.677083 83.4158-0.807292 80.8723-3.77605 78.329-6.7448 77.0573-11.6233 77.0573-18.4115 77.0573-26.033 78.4635-31.5712 81.276-35.026 83.7413-38.0295 87.0487-39.5313 91.198-39.5313 94.2882-39.5313 96.823-38.6632 98.8022-36.9272 100.781-35.191 101.971-32.7952 102.37-29.7397M82.6302-12.7604C82.6302-11.0938 82.9818-9.50087 83.6848-7.98177 84.388-6.46267 85.3777-5.30382 86.6537-4.50522 87.9297-3.7066 89.2622-3.3073 90.651-3.3073 92.6997-3.3073 94.4575-4.13195 95.9245-5.78125 97.3915-7.43055 98.125-9.67013 98.125-12.5 98.125-15.2083 97.4002-17.3482 95.9505-18.9193 94.5008-20.4905 92.6737-21.276 90.4688-21.276 88.2813-21.276 86.428-20.4905 84.9088-18.9193 83.3898-17.3482 82.6302-15.2951 82.6302-12.7604" fill="#D9D9D9" fill-rule="evenodd" transform="matrix(1.00024 0 0 1 3117.08 1463.93)"/><path d="M2.16147-13.9844 10.599-14.7917C11.1198-11.9618 12.1528-9.88282 13.6979-8.55468 15.2431-7.22657 17.335-6.5625 19.974-6.5625 22.7692-6.5625 24.8742-7.15278 26.289-8.33333 27.704-9.51388 28.4115-10.8941 28.4115-12.474 28.4115-13.4983 28.1163-14.3663 27.526-15.0781 26.9358-15.7899 25.8942-16.4062 24.401-16.9272 23.3942-17.2917 21.085-17.9167 17.474-18.8022 12.8212-19.9653 9.5573-21.3802 7.6823-23.0468 5.0434-25.4253 3.72397-28.3073 3.72397-31.6927 3.72397-33.8802 4.34462-35.9288 5.58593-37.8385 6.82725-39.7483 8.61545-41.198 10.9505-42.1875 13.2856-43.1772 16.1024-43.6718 19.401-43.6718 24.783-43.6718 28.8368-42.4913 31.5625-40.1302 34.2882-37.7692 35.7205-34.618 35.8593-30.6772L27.1875-30.2865C26.823-32.4913 26.0287-34.0798 24.8047-35.0522 23.5807-36.0243 21.7448-36.5105 19.2968-36.5105 16.7795-36.5105 14.809-35.9897 13.3854-34.948 12.4653-34.2882 12.0052-33.4028 12.0052-32.2917 12.0052-31.2673 12.4392-30.3993 13.3073-29.6875 14.4011-28.7673 17.0573-27.8082 21.276-26.8098 25.4948-25.8117 28.6155-24.7787 30.638-23.711 32.6607-22.6432 34.2405-21.1892 35.3777-19.349 36.5148-17.5087 37.0833-15.2257 37.0833-12.5 37.0833-10.0521 36.4018-7.75173 35.039-5.59897 33.6762-3.44618 31.7448-1.84897 29.2448-0.807292 26.7448 0.234375 23.6285 0.755208 19.8958 0.755208 14.4618 0.755208 10.2908-0.499132 7.38282-3.00782 4.47483-5.5165 2.73438-9.17535 2.16147-13.9844M62.3177-9.89583 70.5208-8.51563C69.4792-5.51215 67.8168-3.22483 65.5338-1.65365 63.2508-0.0824653 60.408 0.703125 57.0052 0.703125 51.5885 0.703125 47.5782-1.06771 44.974-4.60938 42.9253-7.43923 41.901-11.007 41.901-15.3125 41.901-20.4688 43.2508-24.5095 45.9505-27.4348 48.6502-30.3602 52.0573-31.823 56.1718-31.823 60.8073-31.823 64.4618-30.2952 67.1355-27.2397 69.809-24.184 71.085-19.4965 70.9635-13.1771L50.3385-13.1771C50.408-10.7465 51.0763-8.84983 52.3438-7.48698 53.6112-6.12413 55.191-5.44272 57.0833-5.44272 58.368-5.44272 59.4488-5.79427 60.3255-6.4974 61.2023-7.20052 61.8663-8.33333 62.3177-9.89583M62.7865-18.2292C62.7343-20.6077 62.1223-22.4175 60.9505-23.6588 59.7787-24.9002 58.3507-25.5208 56.6667-25.5208 54.8785-25.5208 53.3942-24.8698 52.2135-23.5677 51.0503-22.2483 50.4775-20.4688 50.4948-18.2292L62.7865-18.2292M105.938 0 97.7083 0 97.7083-15.8854C97.7083-19.2362 97.5347-21.4063 97.1875-22.3958 96.8403-23.3855 96.2673-24.1537 95.4688-24.7005 94.6702-25.2473 93.7153-25.5208 92.6042-25.5208 91.1805-25.5208 89.9045-25.1302 88.776-24.349 87.6475-23.5677 86.8707-22.5303 86.4453-21.237 86.02-19.9435 85.8073-17.5608 85.8073-14.0886L85.8073 0 77.5782 0 77.5782-31.1198 85.2343-31.1198 85.2343-26.5365C87.9427-30.0608 91.3628-31.823 95.4948-31.823 97.3003-31.823 98.954-31.493 100.456-30.8333 101.958-30.1737 103.095-29.336 103.867-28.3203 104.64-27.3047 105.178-26.1545 105.482-24.8698 105.786-23.585 105.938-21.7448 105.938-19.349L105.938 0M111.406-8.88022 119.661-10.1302C120.026-8.53298 120.742-7.31772 121.81-6.48438 122.878-5.65105 124.384-5.23438 126.328-5.23438 128.446-5.23438 130.043-5.625 131.12-6.40625 131.849-6.9618 132.214-7.69965 132.214-8.6198 132.214-9.2448 132.014-9.75695 131.615-10.1563 131.215-10.5556 130.304-10.9201 128.88-11.25 122.231-12.7083 118.021-14.0451 116.25-15.2604 113.785-16.9445 112.552-19.2795 112.552-22.2657 112.552-24.9567 113.616-27.2222 115.742-29.0625 117.869-30.9028 121.172-31.823 125.651-31.823 129.905-31.823 133.069-31.1285 135.143-29.7397 137.218-28.3507 138.646-26.3022 139.427-23.5938L131.641-22.1615C131.311-23.3593 130.682-24.2838 129.753-24.9348 128.824-25.586 127.5-25.9115 125.781-25.9115 123.629-25.9115 122.083-25.6077 121.146-25 120.521-24.566 120.208-24.0105 120.208-23.3333 120.208-22.743 120.478-22.2397 121.016-21.823 121.762-21.2847 124.327-20.5165 128.711-19.5182 133.095-18.52 136.155-17.3003 137.891-15.8594 139.609-14.3837 140.469-12.3438 140.469-9.73958 140.469-6.875 139.28-4.4184 136.901-2.3698 134.523-0.32118 130.998 0.703125 126.328 0.703125 122.092 0.703125 118.737-0.15625 116.263-1.875 113.789-3.59375 112.17-5.92882 111.406-8.88022M145.729-15.9896C145.729-18.7327 146.406-21.3845 147.761-23.9453 149.115-26.506 151.024-28.4592 153.49-29.8047 155.955-31.1502 158.715-31.823 161.771-31.823 166.476-31.823 170.33-30.2952 173.333-27.2397 176.337-24.184 177.838-20.3212 177.838-15.6511 177.838-10.9462 176.32-7.04427 173.282-3.94532 170.243-0.846355 166.424 0.703125 161.823 0.703125 158.976 0.703125 156.259 0.0564237 153.672-1.23698 151.085-2.53038 149.115-4.4184 147.761-6.90105 146.406-9.38368 145.729-12.4132 145.729-15.9896M154.167-15.5469C154.167-12.474 154.9-10.1172 156.367-8.47657 157.834-6.83593 159.644-6.01563 161.797-6.01563 163.95-6.01563 165.751-6.83593 167.2-8.47657 168.65-10.1172 169.375-12.5 169.375-15.625 169.375-18.6632 168.65-21.0027 167.2-22.6432 165.751-24.2838 163.95-25.1042 161.797-25.1042 159.644-25.1042 157.834-24.2838 156.367-22.6432 154.9-21.0027 154.167-18.6372 154.167-15.5469M192.188 0 183.958 0 183.958-31.1198 191.615-31.1198 191.615-26.6927C192.917-28.776 194.088-30.1518 195.13-30.8203 196.172-31.4887 197.362-31.823 198.698-31.823 200.573-31.823 202.378-31.3022 204.115-30.2605L201.563-23.099C200.173-23.9843 198.888-24.4272 197.708-24.4272 196.545-24.4272 195.565-24.1102 194.765-23.4765 193.967-22.8428 193.338-21.697 192.878-20.039 192.418-18.381 192.188-14.9045 192.188-9.60938L192.188 0M224.375 0 224.375-42.9427 238.282-42.9427C243.558-42.9427 246.997-42.7343 248.593-42.3177 251.058-41.658 253.12-40.2517 254.778-38.099 256.437-35.9462 257.265-33.1597 257.265-29.7397 257.265-27.1007 256.788-24.8828 255.833-23.086 254.878-21.289 253.663-19.8785 252.188-18.8542 250.712-17.8298 249.21-17.1528 247.682-16.823 245.617-16.4062 242.622-16.1979 238.698-16.1979L233.047-16.1979 233.047 0 224.375 0M233.047-35.6772 233.047-23.4897 237.787-23.4897C241.207-23.4897 243.493-23.7153 244.648-24.1667 245.803-24.618 246.705-25.3212 247.357-26.276 248.008-27.2308 248.333-28.342 248.333-29.6093 248.333-31.1718 247.873-32.461 246.953-33.4765 246.033-34.4922 244.87-35.1302 243.463-35.3907 242.44-35.5817 240.365-35.6772 237.24-35.6772L233.047-35.6772M272.5-42.9427 272.5-27.1615C275.157-30.2692 278.333-31.823 282.032-31.823 283.923-31.823 285.633-31.4713 287.162-30.7682 288.69-30.0652 289.84-29.1667 290.612-28.073 291.385-26.9792 291.91-25.7682 292.188-24.4402 292.465-23.112 292.605-21.0503 292.605-18.2552L292.605 0 284.375 0 284.375-16.4323C284.375-19.6962 284.218-21.7665 283.907-22.6432 283.593-23.52 283.043-24.2188 282.253-24.7397 281.463-25.2605 280.468-25.5208 279.272-25.5208 277.917-25.5208 276.702-25.1867 275.625-24.5182 274.548-23.8498 273.758-22.8472 273.255-21.5105 272.752-20.1737 272.5-18.2032 272.5-15.599L272.5 0 264.272 0 264.272-42.9427 272.5-42.9427M307.135-21.6147 299.662-22.9688C300.495-25.9722 301.935-28.1988 303.985-29.6485 306.033-31.0982 309.08-31.823 313.125-31.823 316.805-31.823 319.545-31.3888 321.342-30.5208 323.138-29.6528 324.402-28.5503 325.13-27.2135 325.86-25.8767 326.223-23.4202 326.223-19.8438L326.147-10.2344C326.147-7.49132 326.277-5.47308 326.537-4.17968 326.797-2.88628 327.292-1.49306 328.022 0L319.87 0C319.662-0.555555 319.402-1.36285 319.088-2.42188 318.95-2.92535 318.845-3.25522 318.777-3.41147 317.37-2.03993 315.868-1.01129 314.272-0.325522 312.673 0.360243 310.963 0.703125 309.14 0.703125 305.947 0.703125 303.425-0.164931 301.575-1.90105 299.727-3.63715 298.802-5.83333 298.802-8.48958 298.802-10.2604 299.223-11.8316 300.065-13.2031 300.907-14.5747 302.083-15.6293 303.593-16.3672 305.105-17.105 307.292-17.743 310.157-18.2813 313.993-19.0105 316.658-19.6875 318.152-20.3125L318.152-21.1198C318.152-22.6997 317.76-23.8282 316.98-24.5052 316.198-25.1823 314.722-25.5208 312.552-25.5208 311.077-25.5208 309.93-25.2343 309.115-24.6615 308.298-24.0885 307.638-23.073 307.135-21.6147M318.152-14.9479C317.092-14.6007 315.422-14.1797 313.138-13.6849 310.855-13.1901 309.358-12.7083 308.647-12.2396 307.57-11.4757 307.032-10.5122 307.032-9.34897 307.032-8.20313 307.462-7.2092 308.32-6.36718 309.18-5.52517 310.278-5.10417 311.615-5.10417 313.09-5.10417 314.505-5.59028 315.86-6.5625 316.848-7.30903 317.5-8.22048 317.813-9.29688 318.038-9.99132 318.152-11.3281 318.152-13.3073L318.152-14.9479M331.407-8.88022 339.662-10.1302C340.027-8.53298 340.742-7.31772 341.81-6.48438 342.878-5.65105 344.383-5.23438 346.328-5.23438 348.447-5.23438 350.043-5.625 351.12-6.40625 351.848-6.9618 352.213-7.69965 352.213-8.6198 352.213-9.2448 352.013-9.75695 351.615-10.1563 351.215-10.5556 350.303-10.9201 348.88-11.25 342.232-12.7083 338.022-14.0451 336.25-15.2604 333.785-16.9445 332.552-19.2795 332.552-22.2657 332.552-24.9567 333.615-27.2222 335.742-29.0625 337.868-30.9028 341.172-31.823 345.652-31.823 349.905-31.823 353.068-31.1285 355.143-29.7397 357.218-28.3507 358.647-26.3022 359.427-23.5938L351.64-22.1615C351.31-23.3593 350.682-24.2838 349.753-24.9348 348.823-25.586 347.5-25.9115 345.782-25.9115 343.628-25.9115 342.083-25.6077 341.147-25 340.522-24.566 340.208-24.0105 340.208-23.3333 340.208-22.743 340.477-22.2397 341.015-21.823 341.762-21.2847 344.327-20.5165 348.712-19.5182 353.095-18.52 356.155-17.3003 357.89-15.8594 359.61-14.3837 360.468-12.3438 360.468-9.73958 360.468-6.875 359.28-4.4184 356.902-2.3698 354.523-0.32118 350.998 0.703125 346.328 0.703125 342.092 0.703125 338.737-0.15625 336.263-1.875 333.788-3.59375 332.17-5.92882 331.407-8.88022M385.652-9.89583 393.855-8.51563C392.813-5.51215 391.15-3.22483 388.867-1.65365 386.585-0.0824653 383.742 0.703125 380.338 0.703125 374.922 0.703125 370.912-1.06771 368.307-4.60938 366.258-7.43923 365.235-11.007 365.235-15.3125 365.235-20.4688 366.585-24.5095 369.283-27.4348 371.983-30.3602 375.39-31.823 379.505-31.823 384.14-31.823 387.795-30.2952 390.468-27.2397 393.142-24.184 394.418-19.4965 394.297-13.1771L373.672-13.1771C373.742-10.7465 374.41-8.84983 375.677-7.48698 376.945-6.12413 378.525-5.44272 380.417-5.44272 381.702-5.44272 382.782-5.79427 383.658-6.4974 384.535-7.20052 385.2-8.33333 385.652-9.89583M386.12-18.2292C386.068-20.6077 385.455-22.4175 384.283-23.6588 383.112-24.9002 381.683-25.5208 380-25.5208 378.212-25.5208 376.727-24.8698 375.547-23.5677 374.383-22.2483 373.81-20.4688 373.828-18.2292L386.12-18.2292M443.698-7.65625 443.698 0 414.818 0C415.13-2.8993 416.068-5.64237 417.63-8.22917 419.193-10.816 422.283-14.2448 426.902-18.5157 430.617-21.9705 432.89-24.3142 433.723-25.5468 434.852-27.2483 435.417-28.9323 435.417-30.599 435.417-32.4218 434.927-33.8282 433.945-34.8177 432.965-35.8073 431.607-36.3022 429.87-36.3022 428.152-36.3022 426.783-35.7857 425.768-34.7527 424.753-33.7197 424.167-31.9965 424.01-29.5833L415.807-30.4167C416.293-34.948 417.825-38.1988 420.403-40.1693 422.982-42.1398 426.198-43.125 430.052-43.125 434.305-43.125 437.643-41.9835 440.065-39.7005 442.487-37.4175 443.698-34.5747 443.698-31.1718 443.698-29.2448 443.35-27.4045 442.657-25.651 441.962-23.8975 440.86-22.066 439.348-20.1563 438.36-18.8888 436.563-17.0617 433.958-14.6745 431.355-12.2873 429.71-10.7031 429.023-9.92188 428.338-9.14063 427.778-8.38542 427.343-7.65625L443.698-7.65625" fill="#D9D9D9" fill-rule="evenodd" transform="matrix(1.00024 0 0 1 3571.08 1324.21)"/><path d="M233.333 1045 239.518 1045 245.703 1045 251.888 1045 258.073 1045 264.26 1045 270.445 1045 276.63 1045 282.815 1045 289 1045 295.185 1045 301.37 1045 307.555 1045 313.74 1045 319.927 1045 326.112 1045 332.297 1045 338.482 1045 344.667 1045 350.852 1045 357.037 1045 363.222 1045 369.407 1045 375.593 1045 381.778 1045 387.963 1045 394.148 1045 400.333 1045 406.518 1045 412.703 1045 418.888 1045 425.073 1045 431.26 1045 437.445 1045 443.63 1045 449.815 1044.99 456 1044.96 462.185 1044.86 468.37 1044.58 474.555 1043.89 480.74 1042.27 486.927 1038.7 493.112 1031.56 499.297 1018.44 505.482 995.002 511.667 957.563 517.852 906.538 524.037 842.84 530.222 769.013 536.407 692.708 542.593 623.16 548.778 569.07 554.963 538.218 561.148 535.848 567.333 562.915 573.518 615.465 579.703 685.6 585.888 763.012 592.073 838.202 598.26 904.793 604.445 958.642 610.63 997.937 616.815 1023.55 623 1037.88 629.185 1044.32 631.347 1045" stroke="#268CDD" stroke-width="4.44445" stroke-linejoin="round" fill="none" fill-rule="evenodd" transform="matrix(1.00024 0 0 1 3004.28 1264)"/><path d="M646.2 1045 647.74 1044.7 653.927 1043.08 660.112 1040.29 666.297 1036.8 672.482 1030.96 678.667 1022.15 684.852 1010.43 691.037 992.863 697.222 968.7 703.407 937.553 709.593 897.018 715.778 846.365 721.963 786.132 728.148 714.733 734.333 634.822 740.518 550.332 746.703 463.478 752.888 379.227 759.073 302.827 765.26 239.088 771.445 193.933 777.63 172.273 783.815 175.332 790 202.317 796.185 251.89 802.37 321.303 808.555 405.902 814.74 499.298 820.927 594.59 827.112 686.362 833.297 769.052 839.482 840.15 845.667 898.3 851.852 940.768 858.037 969.648 864.222 989.963 870.407 998.687 876.593 999.485 882.778 999.785 888.963 996.692 895.148 991.688 901.333 988.095 907.518 983.573 913.703 978.175 919.888 973.42 926.073 964.492 932.26 950.643 938.445 936.55 944.63 920.7 950.815 898.195 957 871.525 963.185 843.393 969.37 811.132 975.555 775.742 981.74 739.615 987.927 702.627 994.112 666.652 1000.3 634.187 1006.48 604.65 1012.67 580.373 1018.85 567.71 1025.04 561.238 1031.22 561.718 1037.41 568.427 1043.59 579.142 1049.78 599.172 1055.96 622.615 1062.15 652.795 1068.33 686.615 1074.52 721.213 1080.7 758.222 1086.89 793.365 1093.07 828.213 1099.26 861.543 1105.45 891.303 1111.63 919.295 1117.82 941.905 1124 961.29 1130.19 974.843 1136.37 981.71 1142.56 990.945 1148.74 1000.93 1154.93 1009.06 1161.11 1011.34 1167.3 1013 1173.48 1018 1179.67 1023.01 1185.85 1024.28 1192.04 1022.52 1198.22 1022.57 1204.41 1023.72 1210.59 1024.74 1216.78 1024.72 1222.96 1024.45 1229.15 1024.81 1235.33 1025.17 1241.52 1025.8 1247.7 1026.78 1253.89 1027.67 1260.07 1028.4 1266.26 1029.13 1272.45 1029.86 1278.63 1030.59 1284.82 1031.32 1291 1032.05 1297.19 1032.77 1303.37 1033.47 1309.56 1034.18 1315.74 1034.9 1321.93 1035.62 1328.11 1036.33 1334.3 1037.05 1340.48 1037.77 1346.67 1038.13" stroke="#268CDD" stroke-width="4.44445" stroke-linejoin="round" fill="none" fill-rule="evenodd" transform="matrix(1.00024 0 0 1 3004.28 1264)"/><path d="M572.26 535.848C572.26 529.712 567.285 524.737 561.148 524.737 555.012 524.737 550.037 529.712 550.037 535.848 550.037 541.985 555.012 546.96 561.148 546.96 567.285 546.96 572.26 541.985 572.26 535.848" stroke="#FFFFFF" stroke-width="4.44445" stroke-miterlimit="2" fill="none" fill-rule="evenodd" transform="matrix(1.00024 0 0 1 3004.28 1264)"/><path d="M788.74 172.273C788.74 166.136 783.767 161.162 777.63 161.162 771.493 161.162 766.518 166.136 766.518 172.273 766.518 178.41 771.493 183.383 777.63 183.383 783.767 183.383 788.74 178.41 788.74 172.273" stroke="#FFFFFF" stroke-width="4.44445" stroke-miterlimit="2" fill="none" fill-rule="evenodd" transform="matrix(1.00024 0 0 1 3004.28 1264)"/><path d="M1036.15 567.71C1036.15 561.573 1031.17 556.6 1025.04 556.6 1018.9 556.6 1013.93 561.573 1013.93 567.71 1013.93 573.847 1018.9 578.822 1025.04 578.822 1031.17 578.822 1036.15 573.847 1036.15 567.71" stroke="#FFFFFF" stroke-width="4.44445" stroke-miterlimit="2" fill="none" fill-rule="evenodd" transform="matrix(1.00024 0 0 1 3004.28 1264)"/><path d="M3598.25 1761.14 3759.01 1761.14 3759.01 1766.86 3598.25 1766.86ZM3602.83 1786.92 3557 1764 3602.83 1741.08ZM3754.42 1741.08 3800.26 1764 3754.42 1786.92Z" fill="#FFFFFF"/><text fill="#FFFFFF" font-family="Aptos,Aptos_MSFontService,sans-serif" font-weight="400" font-size="83" transform="matrix(1 0 0 1 3517.86 1696)">1</text><text fill="#FFFFFF" font-family="Aptos,Aptos_MSFontService,sans-serif" font-weight="400" font-size="83" transform="matrix(1 0 0 1 3561.98 1696)">7.5</text><text fill="#FFFFFF" font-family="Aptos,Aptos_MSFontService,sans-serif" font-weight="400" font-size="83" transform="matrix(1 0 0 1 3690.31 1696)">s</text><path d="M3847.25 1764.14 4003.49 1764.14 4003.49 1769.86 3847.25 1769.86ZM3851.83 1789.92 3806 1767 3851.83 1744.08ZM3998.91 1744.08 4044.74 1767 3998.91 1789.92Z" fill="#FFFFFF"/><text fill="#FFFFFF" font-family="Aptos,Aptos_MSFontService,sans-serif" font-weight="400" font-size="83" transform="matrix(1 0 0 1 3852.13 1699)">1</text><text fill="#FFFFFF" font-family="Aptos,Aptos_MSFontService,sans-serif" font-weight="400" font-size="83" transform="matrix(1 0 0 1 3896.24 1699)">9</text><text fill="#FFFFFF" font-family="Aptos,Aptos_MSFontService,sans-serif" font-weight="400" font-size="83" transform="matrix(1 0 0 1 3940.36 1699)">.</text><text fill="#FFFFFF" font-family="Aptos,Aptos_MSFontService,sans-serif" font-weight="400" font-size="83" transform="matrix(1 0 0 1 3963.85 1699)">5</text><text fill="#FFFFFF" font-family="Aptos,Aptos_MSFontService,sans-serif" font-weight="400" font-size="83" transform="matrix(1 0 0 1 4024.58 1699)">s</text></g></svg>