<svg width="1410" height="1216" xmlns="http://www.w3.org/2000/svg" xmlns:xlink="http://www.w3.org/1999/xlink" xml:space="preserve" overflow="hidden"><defs><clipPath id="clip0"><rect x="2990" y="1259" width="1410" height="1216"/></clipPath></defs><g clip-path="url(#clip0)" transform="translate(-2990 -1259)"><path d="M0 0 1410 0 1410 1215.81 0 1215.81 0 0" fill-rule="evenodd" transform="matrix(1 0 0 1.00016 2990.28 1259)"/><path d="M3263.84 1350.2 3263.84 2317.93 4344.56 2317.93 4344.56 1350.2 3263.84 1350.2" fill="#121212" fill-rule="evenodd"/><path d="M273.557 91.1856 273.557 1058.77" stroke="#FFFFFF" stroke-width="1.12575" stroke-linejoin="round" stroke-opacity="0.25098" fill="none" fill-rule="evenodd" transform="matrix(1 0 0 1.00016 2990.28 1259)"/><path d="M513.716 91.1856 513.716 1058.77" stroke="#FFFFFF" stroke-width="1.12575" stroke-linejoin="round" stroke-opacity="0.25098" fill="none" fill-rule="evenodd" transform="matrix(1 0 0 1.00016 2990.28 1259)"/><path d="M753.876 91.1856 753.876 1058.77" stroke="#FFFFFF" stroke-width="1.12575" stroke-linejoin="round" stroke-opacity="0.25098" fill="none" fill-rule="evenodd" transform="matrix(1 0 0 1.00016 2990.28 1259)"/><path d="M994.036 91.1856 994.036 1058.77" stroke="#FFFFFF" stroke-width="1.12575" stroke-linejoin="round" stroke-opacity="0.25098" fill="none" fill-rule="evenodd" transform="matrix(1 0 0 1.00016 2990.28 1259)"/><path d="M1234.2 91.1856 1234.2 1058.77" stroke="#FFFFFF" stroke-width="1.12575" stroke-linejoin="round" stroke-opacity="0.25098" fill="none" fill-rule="evenodd" transform="matrix(1 0 0 1.00016 2990.28 1259)"/><path d="M273.557 1058.77 1354.28 1058.77" stroke="#FFFFFF" stroke-width="1.12575" stroke-linejoin="round" stroke-opacity="0.25098" fill="none" fill-rule="evenodd" transform="matrix(1 0 0 1.00016 2990.28 1259)"/><path d="M273.557 913.341 1354.28 913.341" stroke="#FFFFFF" stroke-width="1.12575" stroke-linejoin="round" stroke-opacity="0.25098" fill="none" fill-rule="evenodd" transform="matrix(1 0 0 1.00016 2990.28 1259)"/><path d="M273.557 767.913 1354.28 767.913" stroke="#FFFFFF" stroke-width="1.12575" stroke-linejoin="round" stroke-opacity="0.25098" fill="none" fill-rule="evenodd" transform="matrix(1 0 0 1.00016 2990.28 1259)"/><path d="M273.557 622.487 1354.28 622.487" stroke="#FFFFFF" stroke-width="1.12575" stroke-linejoin="round" stroke-opacity="0.25098" fill="none" fill-rule="evenodd" transform="matrix(1 0 0 1.00016 2990.28 1259)"/><path d="M273.557 477.06 1354.28 477.06" stroke="#FFFFFF" stroke-width="1.12575" stroke-linejoin="round" stroke-opacity="0.25098" fill="none" fill-rule="evenodd" transform="matrix(1 0 0 1.00016 2990.28 1259)"/><path d="M273.557 331.634 1354.28 331.634" stroke="#FFFFFF" stroke-width="1.12575" stroke-linejoin="round" stroke-opacity="0.25098" fill="none" fill-rule="evenodd" transform="matrix(1 0 0 1.00016 2990.28 1259)"/><path d="M273.557 186.208 1354.28 186.208" stroke="#FFFFFF" stroke-width="1.12575" stroke-linejoin="round" stroke-opacity="0.25098" fill="none" fill-rule="evenodd" transform="matrix(1 0 0 1.00016 2990.28 1259)"/><path d="M10.2637 0 10.2637-2.13717C12.3041-2.13717 14.2829-2.25149 16.2002-2.48016 18.1176-2.70884 19.0762-3.23653 19.0762-4.06325L19.0762-37.4663C19.0762-38.3282 18.8342-38.8647 18.3506-39.0757 17.8668-39.2868 17.0797-39.3924 15.9891-39.3924L13.4562-39.3924C10.1141-39.3924 7.73952-38.6624 6.33234-37.2026 5.59356-36.4638 5.06587-35.2895 4.74925-33.6801 4.43263-32.0707 4.16879-30.0435 3.95771-27.5985L2.18994-27.5985 3.35087-41.5297 40.5006-41.5297 41.6352-27.5985 39.8674-27.5985C39.621-30.2193 39.3572-32.2949 39.0757-33.8253 38.7944-35.3555 38.2755-36.4813 37.5192-37.2026 36.0943-38.6624 33.7198-39.3924 30.3952-39.3924L27.8359-39.3924C27.1147-39.3924 26.5519-39.3616 26.1473-39.3 25.7427-39.2385 25.4085-39.067 25.1446-38.7856 24.8808-38.5041 24.749-38.0644 24.749-37.4663L24.749-4.06325C24.749-3.23653 25.712-2.70884 27.638-2.48016 29.5641-2.25149 31.5298-2.13717 33.535-2.13717L33.535 0 10.2637 0" fill="#D9D9D9" fill-rule="evenodd" transform="matrix(1 0 0 1.00016 3693.95 2450.45)"/><path d="M1.87332 0 1.87332-2.13717C3.26291-2.13717 4.40185-2.2471 5.29013-2.46698 6.17842-2.68685 6.62258-3.21894 6.62258-4.06325L6.62258-20.6593C6.62258-22.2248 6.31915-23.1834 5.71229-23.5352 5.10545-23.8869 3.91374-24.0629 2.13717-24.0629L2.13717-26.2 10.8969-26.8597 10.8969-4.06325C10.8969-3.21894 11.2839-2.68685 12.0578-2.46698 12.8318-2.2471 13.8608-2.13717 15.1448-2.13717L15.1448 0 1.87332 0M4.45903-37.3081C4.45903-38.2051 4.79322-38.9878 5.46165-39.6563 6.13006-40.3246 6.904-40.6588 7.7835-40.6588 8.34637-40.6588 8.89605-40.5138 9.43255-40.2235 9.96904-39.9332 10.3868-39.5199 10.6858-38.9834 10.9848-38.4469 11.1344-37.8885 11.1344-37.3081 11.1344-36.4461 10.7958-35.6765 10.1185-34.9994 9.44134-34.3221 8.66299-33.9835 7.7835-33.9835 6.904-33.9835 6.13006-34.3221 5.46165-34.9994 4.79322-35.6765 4.45903-36.4461 4.45903-37.3081" fill="#D9D9D9" fill-rule="evenodd" transform="matrix(1 0 0 1.00016 3738.67 2450.45)"/><path d="M1.82055 0 1.82055-2.13717C3.19256-2.13717 4.3271-2.2471 5.22418-2.46698 6.12126-2.68685 6.56981-3.21894 6.56981-4.06325L6.56981-20.6593C6.56981-21.7498 6.40709-22.537 6.08168-23.0207 5.75626-23.5044 5.28574-23.7991 4.67011-23.9047 4.05445-24.0102 3.1046-24.0629 1.82055-24.0629L1.82055-26.2 10.6331-26.8597 10.6331-20.923C11.4422-22.6645 12.6427-24.0892 14.2346-25.1975 15.8264-26.3055 17.5634-26.8597 19.4455-26.8597 24.1068-26.8597 26.8508-24.96 27.6775-21.1606 28.4867-22.8668 29.6696-24.2432 31.2264-25.2898 32.7831-26.3364 34.4937-26.8597 36.3582-26.8597 38.2051-26.8597 39.7574-26.5651 41.0151-25.9757 42.2728-25.3866 43.2183-24.4806 43.8515-23.2581 44.4847-22.0357 44.8014-20.5097 44.8014-18.6804L44.8014-4.06325C44.8014-3.21894 45.2499-2.68685 46.1469-2.46698 47.044-2.2471 48.1786-2.13717 49.5506-2.13717L49.5506 0 35.6195 0 35.6195-2.13717C37.009-2.13717 38.1479-2.2471 39.0362-2.46698 39.9244-2.68685 40.3687-3.21894 40.3687-4.06325L40.3687-18.4957C40.3687-20.5362 40.0828-22.1807 39.5111-23.4296 38.9395-24.6785 37.7654-25.303 35.9888-25.303 33.6494-25.303 31.7189-24.3619 30.1973-22.4798 28.6759-20.5977 27.9151-18.4605 27.9151-16.0683L27.9151-4.06325C27.9151-3.21894 28.3592-2.68685 29.2475-2.46698 30.1358-2.2471 31.2746-2.13717 32.6644-2.13717L32.6644 0 18.7332 0 18.7332-2.13717C20.1228-2.13717 21.2616-2.2471 22.15-2.46698 23.0382-2.68685 23.4825-3.21894 23.4825-4.06325L23.4825-18.4957C23.4825-20.4658 23.1966-22.0928 22.6248-23.377 22.0532-24.661 20.8704-25.303 19.0762-25.303 16.7367-25.303 14.8062-24.3619 13.2847-22.4798 11.7632-20.5977 11.0024-18.4605 11.0024-16.0683L11.0024-4.06325C11.0024-3.21894 11.451-2.68685 12.3481-2.46698 13.2451-2.2471 14.3709-2.13717 15.7253-2.13717L15.7253 0 1.82055 0" fill="#D9D9D9" fill-rule="evenodd" transform="matrix(1 0 0 1.00016 3755.87 2450.45)"/><path d="M15.1448 0.686003C12.6647 0.686003 10.3912 0.0351796 8.32439-1.26647 6.25758-2.56811 4.63492-4.30072 3.45641-6.46427 2.27788-8.62782 1.68862-10.9145 1.68862-13.3243 1.68862-15.6989 2.22951-17.9548 3.31129-20.0919 4.39305-22.2292 5.89699-23.9573 7.82307-25.2767 9.74916-26.5958 11.8995-27.2554 14.2741-27.2554 16.1387-27.2554 17.7569-26.9432 19.1289-26.3187 20.5009-25.6943 21.6355-24.828 22.5326-23.7199 23.4296-22.6117 24.1024-21.3057 24.5511-19.8018 24.9996-18.2977 25.2238-16.6488 25.2238-14.8546 25.2238-14.3093 25.0215-14.0367 24.6169-14.0367L7.01834-14.0367 7.01834-13.3771C7.01834-10.035 7.69554-7.15905 9.04997-4.74925 10.4044-2.33945 12.6119-1.13454 15.6725-1.13454 16.9214-1.13454 18.0735-1.41158 19.1289-1.96566 20.1843-2.51975 21.1034-3.2893 21.8861-4.27433 22.6689-5.25935 23.201-6.31474 23.4825-7.44049 23.5176-7.58121 23.5924-7.70434 23.7067-7.80988 23.8211-7.91542 23.9398-7.96819 24.0629-7.96819L24.6169-7.96819C25.0215-7.96819 25.2238-7.71314 25.2238-7.20304 24.661-4.89876 23.4296-3.00786 21.5299-1.53031 19.6302-0.0527695 17.5019 0.686003 15.1448 0.686003M7.07111-15.567 20.923-15.567C20.923-17.0797 20.712-18.6144 20.2898-20.1711 19.8677-21.7278 19.1598-23.025 18.1659-24.0629 17.1721-25.1007 15.8748-25.6196 14.2741-25.6196 11.9875-25.6196 10.2153-24.5467 8.95762-22.4006 7.69995-20.2547 7.07111-17.9767 7.07111-15.567" fill="#D9D9D9" fill-rule="evenodd" transform="matrix(1 0 0 1.00016 3807.46 2450.45)"/><path d="M7.17665 15.1976 7.17665-45.5928 15.4878-45.5928 15.4878-43.1654 9.63043-43.1654 9.63043 12.7702 15.4878 12.7702 15.4878 15.1976 7.17665 15.1976" fill="#D9D9D9" fill-rule="evenodd" transform="matrix(1 0 0 1.00016 3855.62 2450.45)"/><path d="M2.03163 0.184693 2.03163-9.76235C2.03163-10.079 2.20752-10.2373 2.55933-10.2373L3.2981-10.2373C3.52676-10.2373 3.68506-10.079 3.77303-9.76235 4.89876-3.88734 7.6252-0.94985 11.9523-0.94985 13.8872-0.94985 15.501-1.3852 16.7939-2.2559 18.0867-3.12659 18.7332-4.47661 18.7332-6.30596 18.7332-7.6076 18.2275-8.71576 17.216-9.63043 16.2046-10.5451 15.0041-11.1783 13.6145-11.5301L9.55127-12.3217C8.19686-12.6207 6.96118-13.0736 5.84422-13.6805 4.72727-14.2873 3.81259-15.1009 3.10021-16.1211 2.38781-17.1412 2.03163-18.3199 2.03163-19.6566 2.03163-21.4332 2.49776-22.8888 3.43002-24.0234 4.36227-25.1578 5.58037-25.9801 7.0843-26.4903 8.58823-27.0004 10.2109-27.2554 11.9523-27.2554 14.0455-27.2554 15.8572-26.7101 17.3876-25.6196L19.1554-27.0972C19.1554-27.2027 19.252-27.2554 19.4455-27.2554L19.8942-27.2554C20.0173-27.2554 20.1272-27.1983 20.224-27.084 20.3207-26.9697 20.369-26.8597 20.369-26.7542L20.369-18.8123C20.369-18.443 20.2108-18.2582 19.8942-18.2582L19.1554-18.2582C18.7859-18.2582 18.6012-18.443 18.6012-18.8123 18.6012-20.9406 18.0164-22.647 16.8466-23.931 15.6769-25.215 14.0279-25.857 11.8995-25.857 10.0878-25.857 8.51348-25.5185 7.17665-24.8412 5.83981-24.164 5.17141-23.0075 5.17141-21.3717 5.17141-20.2459 5.65072-19.3224 6.60937-18.6012 7.56802-17.88 8.68937-17.3612 9.97343-17.0446L14.0894-16.2794C15.479-15.9452 16.7719-15.4043 17.968-14.6567 19.1642-13.9092 20.114-12.9593 20.8175-11.8072 21.5212-10.655 21.8729-9.35779 21.8729-7.91542 21.8729-6.43787 21.6223-5.16261 21.121-4.08964 20.6196-3.01666 19.9161-2.11958 19.0102-1.39839 18.1044-0.677209 17.0401-0.149514 15.8177 0.184693 14.5952 0.5189 13.3067 0.686003 11.9523 0.686003 9.41936 0.686003 7.25581-0.175899 5.46165-1.8997L3.24533 0.527695C3.24533 0.633234 3.13099 0.686003 2.90232 0.686003L2.55933 0.686003C2.20752 0.686003 2.03163 0.5189 2.03163 0.184693" fill="#D9D9D9" fill-rule="evenodd" transform="matrix(1 0 0 1.00016 3872.82 2450.45)"/><path d="M1.34562 15.1976 1.34562 12.7702 7.25581 12.7702 7.25581-43.1654 1.34562-43.1654 1.34562-45.5928 9.6832-45.5928 9.6832 15.1976 1.34562 15.1976" fill="#D9D9D9" fill-rule="evenodd" transform="matrix(1 0 0 1.00016 3897.24 2450.45)"/><path d="M273.557 1058.77 1354.28 1058.77" stroke="#D9D9D9" stroke-width="1.12575" stroke-linecap="square" stroke-linejoin="round" fill="none" fill-rule="evenodd" transform="matrix(1 0 0 1.00016 2990.28 1259)"/><path d="M273.557 91.1856 1354.28 91.1856" stroke="#D9D9D9" stroke-width="1.12575" stroke-linecap="square" stroke-linejoin="round" fill="none" fill-rule="evenodd" transform="matrix(1 0 0 1.00016 2990.28 1259)"/><path d="M273.557 1058.77 273.557 1047.96" stroke="#D9D9D9" stroke-width="1.12575" stroke-linecap="square" stroke-linejoin="round" fill="none" fill-rule="evenodd" transform="matrix(1 0 0 1.00016 2990.28 1259)"/><path d="M273.557 101.993 273.557 91.1856" stroke="#D9D9D9" stroke-width="1.12575" stroke-linecap="square" stroke-linejoin="round" fill="none" fill-rule="evenodd" transform="matrix(1 0 0 1.00016 2990.28 1259)"/><path d="M513.716 1058.77 513.716 1047.96" stroke="#D9D9D9" stroke-width="1.12575" stroke-linecap="square" stroke-linejoin="round" fill="none" fill-rule="evenodd" transform="matrix(1 0 0 1.00016 2990.28 1259)"/><path d="M513.716 101.993 513.716 91.1856" stroke="#D9D9D9" stroke-width="1.12575" stroke-linecap="square" stroke-linejoin="round" fill="none" fill-rule="evenodd" transform="matrix(1 0 0 1.00016 2990.28 1259)"/><path d="M753.876 1058.77 753.876 1047.96" stroke="#D9D9D9" stroke-width="1.12575" stroke-linecap="square" stroke-linejoin="round" fill="none" fill-rule="evenodd" transform="matrix(1 0 0 1.00016 2990.28 1259)"/><path d="M753.876 101.993 753.876 91.1856" stroke="#D9D9D9" stroke-width="1.12575" stroke-linecap="square" stroke-linejoin="round" fill="none" fill-rule="evenodd" transform="matrix(1 0 0 1.00016 2990.28 1259)"/><path d="M994.036 1058.77 994.036 1047.96" stroke="#D9D9D9" stroke-width="1.12575" stroke-linecap="square" stroke-linejoin="round" fill="none" fill-rule="evenodd" transform="matrix(1 0 0 1.00016 2990.28 1259)"/><path d="M994.036 101.993 994.036 91.1856" stroke="#D9D9D9" stroke-width="1.12575" stroke-linecap="square" stroke-linejoin="round" fill="none" fill-rule="evenodd" transform="matrix(1 0 0 1.00016 2990.28 1259)"/><path d="M1234.2 1058.77 1234.2 1047.96" stroke="#D9D9D9" stroke-width="1.12575" stroke-linecap="square" stroke-linejoin="round" fill="none" fill-rule="evenodd" transform="matrix(1 0 0 1.00016 2990.28 1259)"/><path d="M1234.2 101.993 1234.2 91.1856" stroke="#D9D9D9" stroke-width="1.12575" stroke-linecap="square" stroke-linejoin="round" fill="none" fill-rule="evenodd" transform="matrix(1 0 0 1.00016 2990.28 1259)"/><path d="M2.32186-19.6831C2.32186-24.3971 2.80558-28.1921 3.77303-31.068 4.74045-33.944 6.18282-36.1603 8.10012-37.7169 10.0174-39.2737 12.4272-40.0521 15.3295-40.0521 17.4578-40.0521 19.3312-39.621 20.9496-38.7591 22.5678-37.8973 23.9001-36.6527 24.9467-35.0258 25.9933-33.3986 26.8201-31.4199 27.427-29.0892 28.0338-26.7586 28.3373-23.6232 28.3373-19.6831 28.3373-15.0041 27.8535-11.2267 26.8861-8.35076 25.9187-5.47484 24.4806-3.24972 22.5722-1.67543 20.6637-0.101141 18.2495 0.686003 15.3295 0.686003 11.4774 0.686003 8.45191-0.694797 6.25319-3.45641 3.6323-6.78088 2.32186-12.1897 2.32186-19.6831M7.33496-19.6831C7.33496-13.122 8.10451-8.75973 9.64362-6.59618 11.1827-4.43263 13.078-3.35087 15.3295-3.35087 17.5634-3.35087 19.4499-4.43703 20.9891-6.60937 22.5281-8.78172 23.2978-13.1396 23.2978-19.6831 23.2978-26.2441 22.5281-30.6019 20.9891-32.7566 19.4499-34.9114 17.5458-35.9888 15.2768-35.9888 13.0253-35.9888 11.2223-35.0389 9.86789-33.1392 8.17927-30.7118 7.33496-26.2265 7.33496-19.6831" fill="#D9D9D9" fill-rule="evenodd" transform="matrix(1 0 0 1.00016 3248.64 2384.36)"/><path d="M28.047-4.69648 28.047 0 1.68862 0C1.65344-1.17852 1.84693-2.31306 2.26909-3.40364 2.93749-5.1978 4.01048-6.96557 5.48802-8.70696 6.96557-10.4484 9.10274-12.4624 11.8995-14.7491 16.2266-18.3021 19.1508-21.1166 20.6725-23.1922 22.1939-25.2677 22.9548-27.229 22.9548-29.0761 22.9548-31.0284 22.2643-32.6688 20.8835-33.9967 19.5028-35.3248 17.6954-35.9888 15.4615-35.9888 13.1044-35.9888 11.2179-35.2807 9.80193-33.8648 8.38595-32.4487 7.66917-30.492 7.65157-27.9942L2.6121-28.5219C2.96389-32.2686 4.26114-35.1269 6.50383-37.097 8.74654-39.067 11.7676-40.0521 15.567-40.0521 19.384-40.0521 22.4094-38.9922 24.6434-36.8726 26.8773-34.753 27.9942-32.119 27.9942-28.9705 27.9942-27.3874 27.6688-25.8219 27.018-24.274 26.3672-22.726 25.2854-21.099 23.7726-19.3928 22.2599-17.6866 19.7446-15.3471 16.2266-12.3744 13.2891-9.91186 11.4026-8.24083 10.5671-7.36135 9.73157-6.48185 9.04117-5.59356 8.49588-4.69648L28.047-4.69648M32.7171-19.6831C32.7171-24.3971 33.2009-28.1921 34.1683-31.068 35.1357-33.944 36.5781-36.1603 38.4954-37.7169 40.4126-39.2737 42.8225-40.0521 45.7247-40.0521 47.853-40.0521 49.7264-39.621 51.3448-38.7591 52.963-37.8973 54.2953-36.6527 55.3419-35.0258 56.3885-33.3986 57.2153-31.4199 57.8222-29.0892 58.4291-26.7586 58.7325-23.6232 58.7325-19.6831 58.7325-15.0041 58.2487-11.2267 57.2813-8.35076 56.3139-5.47484 54.8759-3.24972 52.9674-1.67543 51.0589-0.101141 48.6447 0.686003 45.7247 0.686003 41.8726 0.686003 38.8471-0.694797 36.6483-3.45641 34.0274-6.78088 32.7171-12.1897 32.7171-19.6831M37.7303-19.6831C37.7303-13.122 38.4998-8.75973 40.0388-6.59618 41.5779-4.43263 43.4733-3.35087 45.7247-3.35087 47.9586-3.35087 49.8451-4.43703 51.3843-6.60937 52.9233-8.78172 53.693-13.1396 53.693-19.6831 53.693-26.2441 52.9233-30.6019 51.3843-32.7566 49.8451-34.9114 47.941-35.9888 45.672-35.9888 43.4204-35.9888 41.6175-35.0389 40.2632-33.1392 38.5746-30.7118 37.7303-26.2265 37.7303-19.6831" fill="#D9D9D9" fill-rule="evenodd" transform="matrix(1 0 0 1.00016 3473.6 2384.36)"/><path d="M18.0208 0 18.0208-9.55127 0.712388-9.55127 0.712388-14.0367 18.9178-39.8937 22.9019-39.8937 22.9019-14.0367 28.3108-14.0367 28.3108-9.55127 22.9019-9.55127 22.9019 0 18.0208 0M18.0208-14.0367 18.0208-32.0311 5.51442-14.0367 18.0208-14.0367M32.7171-19.6831C32.7171-24.3971 33.2009-28.1921 34.1683-31.068 35.1357-33.944 36.5781-36.1603 38.4954-37.7169 40.4126-39.2737 42.8225-40.0521 45.7247-40.0521 47.853-40.0521 49.7264-39.621 51.3448-38.7591 52.963-37.8973 54.2953-36.6527 55.3419-35.0258 56.3885-33.3986 57.2153-31.4199 57.8222-29.0892 58.4291-26.7586 58.7325-23.6232 58.7325-19.6831 58.7325-15.0041 58.2487-11.2267 57.2813-8.35076 56.3139-5.47484 54.8759-3.24972 52.9674-1.67543 51.0589-0.101141 48.6447 0.686003 45.7247 0.686003 41.8726 0.686003 38.8471-0.694797 36.6483-3.45641 34.0274-6.78088 32.7171-12.1897 32.7171-19.6831M37.7303-19.6831C37.7303-13.122 38.4998-8.75973 40.0388-6.59618 41.5779-4.43263 43.4733-3.35087 45.7247-3.35087 47.9586-3.35087 49.8451-4.43703 51.3843-6.60937 52.9233-8.78172 53.693-13.1396 53.693-19.6831 53.693-26.2441 52.9233-30.6019 51.3843-32.7566 49.8451-34.9114 47.941-35.9888 45.672-35.9888 43.4204-35.9888 41.6175-35.0389 40.2632-33.1392 38.5746-30.7118 37.7303-26.2265 37.7303-19.6831" fill="#D9D9D9" fill-rule="evenodd" transform="matrix(1 0 0 1.00016 3713.76 2384.36)"/><path d="M27.7304-30.1314 22.8493-29.7356C22.4271-31.6529 21.8114-33.0512 21.0022-33.9308 19.6831-35.3204 18.0559-36.0151 16.1211-36.0151 14.5556-36.0151 13.1836-35.5842 12.0051-34.7223 10.4572-33.5965 9.23905-31.9563 8.35076-29.8015 7.46248-27.6468 7.00074-24.573 6.96557-20.5801 8.14409-22.3743 9.58645-23.7067 11.2927-24.5774 12.9989-25.4481 14.7842-25.8834 16.6488-25.8834 19.9205-25.8834 22.704-24.6785 24.9996-22.2687 27.2951-19.8589 28.4428-16.7543 28.4428-12.9549 28.4428-10.4572 27.9018-8.13089 26.8201-5.97614 25.7383-3.82139 24.252-2.17235 22.3611-1.029 20.4702 0.114334 18.3287 0.686003 15.9364 0.686003 11.8555 0.686003 8.52667-0.817927 5.94976-3.82579 3.37286-6.83365 2.0844-11.7764 2.0844-18.654 2.0844-26.3759 3.50918-31.9871 6.35873-35.4874 8.85647-38.5305 12.2073-40.0521 16.4113-40.0521 19.5423-40.0521 22.1105-39.1725 24.1157-37.4136 26.121-35.6546 27.3258-33.2272 27.7304-30.1314M7.73073-12.9285C7.73073-11.2399 8.08692-9.62603 8.79931-8.08692 9.51169-6.5478 10.5143-5.37369 11.8072-4.56457 13.1-3.75543 14.45-3.35087 15.8572-3.35087 17.9328-3.35087 19.7138-4.18638 21.2002-5.85741 22.6865-7.52844 23.4296-9.79753 23.4296-12.6647 23.4296-15.4087 22.6953-17.5767 21.2265-19.1686 19.7577-20.7604 17.9065-21.5563 15.6725-21.5563 13.4562-21.5563 11.5785-20.7604 10.0394-19.1686 8.50027-17.5767 7.73073-15.4966 7.73073-12.9285M32.7171-19.6831C32.7171-24.3971 33.2009-28.1921 34.1683-31.068 35.1357-33.944 36.5781-36.1603 38.4954-37.7169 40.4126-39.2737 42.8225-40.0521 45.7247-40.0521 47.853-40.0521 49.7264-39.621 51.3448-38.7591 52.963-37.8973 54.2953-36.6527 55.3419-35.0258 56.3885-33.3986 57.2153-31.4199 57.8222-29.0892 58.4291-26.7586 58.7325-23.6232 58.7325-19.6831 58.7325-15.0041 58.2487-11.2267 57.2813-8.35076 56.3139-5.47484 54.8759-3.24972 52.9674-1.67543 51.0589-0.101141 48.6447 0.686003 45.7247 0.686003 41.8726 0.686003 38.8471-0.694797 36.6483-3.45641 34.0274-6.78088 32.7171-12.1897 32.7171-19.6831M37.7303-19.6831C37.7303-13.122 38.4998-8.75973 40.0388-6.59618 41.5779-4.43263 43.4733-3.35087 45.7247-3.35087 47.9586-3.35087 49.8451-4.43703 51.3843-6.60937 52.9233-8.78172 53.693-13.1396 53.693-19.6831 53.693-26.2441 52.9233-30.6019 51.3843-32.7566 49.8451-34.9114 47.941-35.9888 45.672-35.9888 43.4204-35.9888 41.6175-35.0389 40.2632-33.1392 38.5746-30.7118 37.7303-26.2265 37.7303-19.6831" fill="#D9D9D9" fill-rule="evenodd" transform="matrix(1 0 0 1.00016 3953.92 2384.36)"/><path d="M9.84151-21.6355C7.81868-22.3743 6.31474-23.434 5.32972-24.8148 4.34469-26.1956 3.85217-27.8447 3.85217-29.762 3.85217-32.6644 4.89876-35.1049 6.99196-37.0837 9.08514-39.0626 11.8643-40.0521 15.3295-40.0521 18.8123-40.0521 21.6135-39.0406 23.7331-37.0178 25.8526-34.995 26.9124-32.5323 26.9124-29.6301 26.9124-27.7831 26.4286-26.1737 25.4612-24.8016 24.4938-23.4296 23.0163-22.3743 21.0286-21.6355 23.4735-20.8263 25.3381-19.5335 26.6222-17.7569 27.9062-15.9803 28.5484-13.8608 28.5484-11.3982 28.5484-7.98578 27.339-5.11864 24.9204-2.79678 22.5017-0.474925 19.3312 0.686003 15.4087 0.686003 11.4686 0.686003 8.2936-0.479322 5.8838-2.80997 3.47399-5.14062 2.26909-8.04735 2.26909-11.5301 2.26909-14.1334 2.92431-16.3102 4.23475-18.0603 5.54518-19.8106 7.41412-21.0022 9.84151-21.6355M8.86527-29.9204C8.86527-28.0382 9.47213-26.4991 10.6858-25.303 11.8995-24.1068 13.4826-23.5088 15.4351-23.5088 17.3172-23.5088 18.8607-24.1024 20.0656-25.2898 21.2706-26.4771 21.8729-27.9327 21.8729-29.6564 21.8729-31.4506 21.2528-32.9589 20.0129-34.1814 18.7728-35.4038 17.2292-36.0151 15.3823-36.0151 13.5002-36.0151 11.9435-35.4172 10.7122-34.221 9.48091-33.0249 8.86527-31.5913 8.86527-29.9204M7.28219-11.5037C7.28219-10.1141 7.6164-8.76412 8.28481-7.45368 8.95321-6.14324 9.93825-5.13183 11.2399-4.41945 12.5415-3.70705 13.9487-3.35087 15.4615-3.35087 17.801-3.35087 19.7314-4.10283 21.2528-5.60675 22.7745-7.11069 23.5352-9.02358 23.5352-11.3454 23.5352-13.7025 22.7525-15.6505 21.187-17.1897 19.6215-18.7287 17.6601-19.4984 15.3031-19.4984 12.9989-19.4984 11.086-18.7376 9.56446-17.216 8.04294-15.6945 7.28219-13.7904 7.28219-11.5037M32.7171-19.6831C32.7171-24.3971 33.2009-28.1921 34.1683-31.068 35.1357-33.944 36.5781-36.1603 38.4954-37.7169 40.4126-39.2737 42.8225-40.0521 45.7247-40.0521 47.853-40.0521 49.7264-39.621 51.3448-38.7591 52.963-37.8973 54.2953-36.6527 55.3419-35.0258 56.3885-33.3986 57.2153-31.4199 57.8222-29.0892 58.4291-26.7586 58.7325-23.6232 58.7325-19.6831 58.7325-15.0041 58.2487-11.2267 57.2813-8.35076 56.3139-5.47484 54.8759-3.24972 52.9674-1.67543 51.0589-0.101141 48.6447 0.686003 45.7247 0.686003 41.8726 0.686003 38.8471-0.694797 36.6483-3.45641 34.0274-6.78088 32.7171-12.1897 32.7171-19.6831M37.7303-19.6831C37.7303-13.122 38.4998-8.75973 40.0388-6.59618 41.5779-4.43263 43.4733-3.35087 45.7247-3.35087 47.9586-3.35087 49.8451-4.43703 51.3843-6.60937 52.9233-8.78172 53.693-13.1396 53.693-19.6831 53.693-26.2441 52.9233-30.6019 51.3843-32.7566 49.8451-34.9114 47.941-35.9888 45.672-35.9888 43.4204-35.9888 41.6175-35.0389 40.2632-33.1392 38.5746-30.7118 37.7303-26.2265 37.7303-19.6831" fill="#D9D9D9" fill-rule="evenodd" transform="matrix(1 0 0 1.00016 4194.08 2384.36)"/><path d="M13.852-6.49064C15.2416-4.73166 16.9742-3.34207 19.0499-2.32186 21.1253-1.30165 23.289-0.791542 25.5404-0.791542 27.405-0.791542 29.1419-1.16533 30.7513-1.91289 32.3609-2.66046 33.7637-3.69825 34.9597-5.02629 36.1559-6.35432 37.0749-7.85826 37.7169-9.53808 38.3589-11.2179 38.6801-12.9901 38.6801-14.8546 38.6801-15.1712 38.8559-15.3295 39.2078-15.3295L39.9466-15.3295C40.2632-15.3295 40.4214-15.1272 40.4214-14.7227 40.4214-12.6119 40.0168-10.5715 39.2078-8.60142 38.3986-6.63136 37.2509-4.89876 35.7645-3.40364 34.2782-1.9085 32.572-0.74317 30.6458 0.0923466 28.7198 0.927863 26.7101 1.34562 24.6169 1.34562 21.6971 1.34562 18.9354 0.756363 16.3322-0.422156 13.7289-1.60067 11.4642-3.21455 9.53808-5.26376 7.61199-7.31297 6.10807-9.6832 5.02629-12.3744 3.94452-15.0657 3.40364-17.8712 3.40364-20.7912 3.40364-23.6936 3.94452-26.4903 5.02629-29.1816 6.10807-31.8728 7.61199-34.2475 9.53808-36.3054 11.4642-38.3635 13.7289-39.9729 16.3322-41.1338 18.9354-42.2948 21.6971-42.8751 24.6169-42.8751 26.6926-42.8751 28.6802-42.4223 30.5799-41.5163 32.4796-40.6105 34.1419-39.3397 35.5666-37.7037L39.1023-42.6906C39.3309-42.8137 39.4628-42.8751 39.4979-42.8751L39.9466-42.8751C40.0697-42.8751 40.1796-42.8225 40.2764-42.7169 40.3731-42.6114 40.4214-42.4883 40.4214-42.3475L40.4214-25.9362C40.4214-25.5843 40.2632-25.4085 39.9466-25.4085L38.8647-25.4085C38.4778-25.4085 38.2843-25.5843 38.2843-25.9362 38.2843-27.1147 38.0513-28.4251 37.585-29.8675 37.119-31.3099 36.5252-32.6776 35.804-33.9704 35.0828-35.2632 34.2475-36.4109 33.2976-37.4136 31.0284-39.63 28.4163-40.738 25.4612-40.738 23.2273-40.738 21.0858-40.2323 19.0365-39.221 16.9874-38.2095 15.2592-36.8155 13.852-35.0389 12.3744-33.1392 11.3498-30.9758 10.7782-28.5484 10.2065-26.121 9.92066-23.5352 9.92066-20.7912 9.92066-18.0296 10.2065-15.4307 10.7782-12.9945 11.3498-10.5583 12.3744-8.39034 13.852-6.49064" fill="#D9D9D9" fill-rule="evenodd" transform="matrix(0 -1.00016 1 0 3067.06 2153.65)"/><path d="M15.1976 0.686003C12.7702 0.686003 10.5143 0.0659618 8.42993-1.17412 6.34552-2.41421 4.70087-4.07205 3.49597-6.14765 2.29107-8.22324 1.68862-10.4923 1.68862-12.9549 1.68862-14.8018 2.02284-16.5872 2.69124-18.3111 3.35965-20.0348 4.3095-21.5738 5.54079-22.9283 6.77209-24.2827 8.21005-25.3425 9.8547-26.1076 11.4994-26.8729 13.2803-27.2554 15.1976-27.2554 17.6954-27.2554 19.9688-26.5958 22.0181-25.2767 24.0673-23.9573 25.6855-22.1939 26.8729-19.9864 28.0602-17.7788 28.6539-15.4351 28.6539-12.9549 28.6539-10.5099 28.047-8.24522 26.8332-6.16084 25.6196-4.07644 23.9793-2.41421 21.9126-1.17412 19.8457 0.0659618 17.6074 0.686003 15.1976 0.686003M15.1976-1.13454C18.4518-1.13454 20.6196-2.30867 21.7015-4.6569 22.7832-7.00515 23.3241-9.99102 23.3241-13.6145 23.3241-15.6549 23.2186-17.3391 23.0075-18.6672 22.7964-19.9952 22.3216-21.2045 21.5828-22.2951 21.1253-22.9636 20.545-23.5527 19.8413-24.0629 19.1377-24.573 18.3945-24.96 17.6118-25.2238 16.8291-25.4877 16.0243-25.6196 15.1976-25.6196 13.9311-25.6196 12.7306-25.3337 11.5961-24.7621 10.4615-24.1904 9.5161-23.368 8.75973-22.2951 8.00336-21.1517 7.52405-19.8942 7.32177-18.5222 7.11949-17.1502 7.01834-15.5142 7.01834-13.6145 7.01834-11.3454 7.21623-9.30941 7.61199-7.50645 8.00777-5.70349 8.8037-4.19077 9.99982-2.96828 11.1959-1.74578 12.9285-1.13454 15.1976-1.13454" fill="#D9D9D9" fill-rule="evenodd" transform="matrix(0 -1.00016 1 0 3067.06 2108.93)"/><path d="M1.82055 0 1.82055-2.13717C3.19256-2.13717 4.3271-2.2471 5.22418-2.46698 6.12126-2.68685 6.56981-3.21894 6.56981-4.06325L6.56981-20.6593C6.56981-21.7498 6.40709-22.537 6.08168-23.0207 5.75626-23.5044 5.28574-23.7991 4.67011-23.9047 4.05445-24.0102 3.1046-24.0629 1.82055-24.0629L1.82055-26.2 10.6331-26.8597 10.6331-20.923C11.4422-22.6645 12.6427-24.0892 14.2346-25.1975 15.8264-26.3055 17.5634-26.8597 19.4455-26.8597 22.2599-26.8597 24.3751-26.1868 25.791-24.8412 27.2071-23.4957 27.9151-21.442 27.9151-18.6804L27.9151-4.06325C27.9151-3.21894 28.3592-2.68685 29.2475-2.46698 30.1358-2.2471 31.2746-2.13717 32.6644-2.13717L32.6644 0 18.7332 0 18.7332-2.13717C20.1228-2.13717 21.2616-2.2471 22.15-2.46698 23.0382-2.68685 23.4825-3.21894 23.4825-4.06325L23.4825-18.4957C23.4825-20.4658 23.1966-22.0928 22.6248-23.377 22.0532-24.661 20.8704-25.303 19.0762-25.303 16.7367-25.303 14.8062-24.3619 13.2847-22.4798 11.7632-20.5977 11.0024-18.4605 11.0024-16.0683L11.0024-4.06325C11.0024-3.21894 11.451-2.68685 12.3481-2.46698 13.2451-2.2471 14.3709-2.13717 15.7253-2.13717L15.7253 0 1.82055 0" fill="#D9D9D9" fill-rule="evenodd" transform="matrix(0 -1.00016 1 0 3067.06 2077.96)"/><path d="M15.1448 0.686003C12.6823 0.686003 10.4527 0.048372 8.4563-1.22689 6.45986-2.50215 4.88996-4.20396 3.74663-6.33234 2.6033-8.46071 2.03163-10.721 2.03163-13.1132 2.03163-15.5054 2.59889-17.801 3.73344-19.9997 4.86798-22.1983 6.43787-23.9573 8.44311-25.2767 10.4484-26.5958 12.6823-27.2554 15.1448-27.2554 17.5195-27.2554 19.6785-26.7893 21.6223-25.857 23.5659-24.9247 24.5379-23.3945 24.5379-21.2662 24.5379-20.4746 24.2564-19.7886 23.6936-19.2081 23.1306-18.6277 22.4447-18.3374 21.6355-18.3374 20.8263-18.3374 20.1404-18.6277 19.5776-19.2081 19.0146-19.7886 18.7332-20.4746 18.7332-21.2662 18.7332-21.9697 18.9619-22.5853 19.4192-23.113 19.8764-23.6407 20.4394-23.9749 21.1078-24.1157 19.7007-24.9952 17.7305-25.4349 15.1976-25.4349 13.2627-25.4349 11.7016-24.7929 10.5143-23.5088 9.32701-22.2248 8.49588-20.6373 8.02096-18.7464 7.54603-16.8554 7.30858-14.9777 7.30858-13.1132 7.30858-11.1607 7.5988-9.27424 8.17927-7.45368 8.75973-5.63314 9.70078-4.12482 11.0024-2.92871 12.3041-1.73259 13.9311-1.13454 15.8836-1.13454 17.801-1.13454 19.4323-1.71941 20.778-2.88913 22.1237-4.05886 23.0426-5.59356 23.5352-7.49326 23.5352-7.73952 23.6936-7.86265 24.0102-7.86265L24.749-7.86265C24.8721-7.86265 24.982-7.80549 25.0788-7.69115 25.1755-7.57682 25.2238-7.44929 25.2238-7.30858L25.2238-7.15027C24.6081-4.74045 23.3901-2.83196 21.5695-1.42478 19.749-0.0175899 17.6074 0.686003 15.1448 0.686003" fill="#D9D9D9" fill-rule="evenodd" transform="matrix(0 -1.00016 1 0 3067.06 2043.56)"/><path d="M15.1448 0.686003C12.6647 0.686003 10.3912 0.0351796 8.32439-1.26647 6.25758-2.56811 4.63492-4.30072 3.45641-6.46427 2.27788-8.62782 1.68862-10.9145 1.68862-13.3243 1.68862-15.6989 2.22951-17.9548 3.31129-20.0919 4.39305-22.2292 5.89699-23.9573 7.82307-25.2767 9.74916-26.5958 11.8995-27.2554 14.2741-27.2554 16.1387-27.2554 17.7569-26.9432 19.1289-26.3187 20.5009-25.6943 21.6355-24.828 22.5326-23.7199 23.4296-22.6117 24.1024-21.3057 24.5511-19.8018 24.9996-18.2977 25.2238-16.6488 25.2238-14.8546 25.2238-14.3093 25.0215-14.0367 24.6169-14.0367L7.01834-14.0367 7.01834-13.3771C7.01834-10.035 7.69554-7.15905 9.04997-4.74925 10.4044-2.33945 12.6119-1.13454 15.6725-1.13454 16.9214-1.13454 18.0735-1.41158 19.1289-1.96566 20.1843-2.51975 21.1034-3.2893 21.8861-4.27433 22.6689-5.25935 23.201-6.31474 23.4825-7.44049 23.5176-7.58121 23.5924-7.70434 23.7067-7.80988 23.8211-7.91542 23.9398-7.96819 24.0629-7.96819L24.6169-7.96819C25.0215-7.96819 25.2238-7.71314 25.2238-7.20304 24.661-4.89876 23.4296-3.00786 21.5299-1.53031 19.6302-0.0527695 17.5019 0.686003 15.1448 0.686003M7.07111-15.567 20.923-15.567C20.923-17.0797 20.712-18.6144 20.2898-20.1711 19.8677-21.7278 19.1598-23.025 18.1659-24.0629 17.1721-25.1007 15.8748-25.6196 14.2741-25.6196 11.9875-25.6196 10.2153-24.5467 8.95762-22.4006 7.69995-20.2547 7.07111-17.9767 7.07111-15.567" fill="#D9D9D9" fill-rule="evenodd" transform="matrix(0 -1.00016 1 0 3067.06 2016.04)"/><path d="M1.82055 0 1.82055-2.13717C3.19256-2.13717 4.3271-2.2471 5.22418-2.46698 6.12126-2.68685 6.56981-3.21894 6.56981-4.06325L6.56981-20.6593C6.56981-21.7498 6.40709-22.537 6.08168-23.0207 5.75626-23.5044 5.28574-23.7991 4.67011-23.9047 4.05445-24.0102 3.1046-24.0629 1.82055-24.0629L1.82055-26.2 10.6331-26.8597 10.6331-20.923C11.4422-22.6645 12.6427-24.0892 14.2346-25.1975 15.8264-26.3055 17.5634-26.8597 19.4455-26.8597 22.2599-26.8597 24.3751-26.1868 25.791-24.8412 27.2071-23.4957 27.9151-21.442 27.9151-18.6804L27.9151-4.06325C27.9151-3.21894 28.3592-2.68685 29.2475-2.46698 30.1358-2.2471 31.2746-2.13717 32.6644-2.13717L32.6644 0 18.7332 0 18.7332-2.13717C20.1228-2.13717 21.2616-2.2471 22.15-2.46698 23.0382-2.68685 23.4825-3.21894 23.4825-4.06325L23.4825-18.4957C23.4825-20.4658 23.1966-22.0928 22.6248-23.377 22.0532-24.661 20.8704-25.303 19.0762-25.303 16.7367-25.303 14.8062-24.3619 13.2847-22.4798 11.7632-20.5977 11.0024-18.4605 11.0024-16.0683L11.0024-4.06325C11.0024-3.21894 11.451-2.68685 12.3481-2.46698 13.2451-2.2471 14.3709-2.13717 15.7253-2.13717L15.7253 0 1.82055 0" fill="#D9D9D9" fill-rule="evenodd" transform="matrix(0 -1.00016 1 0 3067.06 1988.51)"/><path d="M6.20042-7.30858 6.20042-24.0629 1.16093-24.0629 1.16093-25.646C3.817-25.646 5.76506-26.8817 7.00515-29.353 8.24522-31.8245 8.86527-34.5112 8.86527-37.4136L10.6331-37.4136 10.6331-26.2 19.2081-26.2 19.2081-24.0629 10.6331-24.0629 10.6331-7.44049C10.6331-5.76947 10.9145-4.30072 11.4774-3.03425 12.0402-1.76779 13.0517-1.13454 14.5116-1.13454 15.9012-1.13454 16.9038-1.79855 17.5195-3.12659 18.1351-4.45462 18.443-5.89258 18.443-7.44049L18.443-11.0288 20.1843-11.0288 20.1843-7.30858C20.1843-6.04211 19.9512-4.78883 19.4852-3.54874 19.019-2.30867 18.333-1.29285 17.4271-0.50131 16.5212 0.290232 15.4087 0.686003 14.0894 0.686003 11.6621 0.686003 9.74037-0.0439746 8.32439-1.50393 6.90841-2.96389 6.20042-4.89876 6.20042-7.30858" fill="#D9D9D9" fill-rule="evenodd" transform="matrix(0 -1.00016 1 0 3067.06 1955.83)"/><path d="M1.58308 0 1.58308-2.13717C2.95509-2.13717 4.08964-2.2471 4.98672-2.46698 5.8838-2.68685 6.33234-3.21894 6.33234-4.06325L6.33234-20.6593C6.33234-21.7498 6.16964-22.537 5.84422-23.0207 5.51881-23.5044 5.04827-23.7991 4.43263-23.9047 3.817-24.0102 2.86715-24.0629 1.58308-24.0629L1.58308-26.2 10.2637-26.8597 10.2637-20.923C10.9145-22.6821 11.8468-24.1112 13.0605-25.2106 14.2741-26.3099 15.7429-26.8597 17.4668-26.8597 18.6628-26.8597 19.7358-26.5034 20.6856-25.791 21.6355-25.0788 22.1105-24.1421 22.1105-22.9811 22.1105-22.2424 21.8509-21.6004 21.332-21.0551 20.8131-20.5097 20.1667-20.2371 19.3928-20.2371 18.6365-20.2371 17.9899-20.5053 17.4534-21.0418 16.917-21.5782 16.6488-22.2248 16.6488-22.9811 16.6488-24.0717 17.0357-24.8456 17.8097-25.303L17.4668-25.303C15.8132-25.303 14.4676-24.7093 13.4298-23.522 12.392-22.3347 11.6577-20.8572 11.2267-19.0894 10.7958-17.3216 10.5803-15.6374 10.5803-14.0367L10.5803-4.06325C10.5803-2.77919 12.5415-2.13717 16.4641-2.13717L16.4641 0 1.58308 0" fill="#D9D9D9" fill-rule="evenodd" transform="matrix(0 -1.00016 1 0 3067.06 1931.75)"/><path d="M2.4274-5.96295C2.4274-8.37275 3.37725-10.3384 5.27695-11.8599 7.17665-13.3815 9.45892-14.45 12.1238-15.0657 14.7886-15.6813 17.3172-15.9891 19.7094-15.9891L19.7094-18.4957C19.7094-19.6566 19.4543-20.7824 18.9443-21.8729 18.4342-22.9636 17.691-23.8606 16.7147-24.5642 15.7385-25.2677 14.6699-25.6196 13.509-25.6196 10.8177-25.6196 8.76853-25.0127 7.36135-23.7991 8.13529-23.7991 8.77292-23.5088 9.27424-22.9283 9.77554-22.3479 10.0262-21.6794 10.0262-20.923 10.0262-20.114 9.74037-19.4236 9.1687-18.852 8.59703-18.2802 7.91542-17.9945 7.12388-17.9945 6.31474-17.9945 5.62435-18.2802 5.05268-18.852 4.48101-19.4236 4.19518-20.114 4.19518-20.923 4.19518-23.0691 5.16261-24.661 7.0975-25.6988 9.03238-26.7365 11.1695-27.2554 13.509-27.2554 15.1448-27.2554 16.7939-26.9036 18.4561-26.2 20.1184-25.4965 21.4816-24.4938 22.5458-23.1922 23.61-21.8905 24.1421-20.369 24.1421-18.6277L24.1421-4.96033C24.1421-4.16879 24.3091-3.4432 24.6434-2.78359 24.9776-2.12397 25.4965-1.79416 26.2-1.79416 26.8861-1.79416 27.3918-2.12397 27.7172-2.78359 28.0426-3.4432 28.2052-4.15999 28.2052-4.93395L28.2052-8.78612 29.9731-8.78612 29.9731-4.90756C29.9731-4.01048 29.7356-3.14857 29.2606-2.32186 28.7858-1.49514 28.1482-0.839914 27.3478-0.356195 26.5475 0.127526 25.6811 0.369386 24.749 0.369386 23.5703 0.369386 22.5502-0.0967441 21.6883-1.029 20.8263-1.96127 20.3427-3.06063 20.2371-4.3271 19.4984-2.79678 18.3945-1.57869 16.9257-0.672812 15.4571 0.233065 13.896 0.686003 12.2425 0.686003 10.6946 0.686003 9.17309 0.457335 7.67797 0 6.18282-0.457335 4.93395-1.17412 3.93133-2.15036 2.92871-3.12659 2.4274-4.39746 2.4274-5.96295M7.36135-5.96295C7.36135-4.55577 7.88464-3.36845 8.93123-2.40102 9.97782-1.43357 11.2135-0.94985 12.6383-0.94985 13.9575-0.94985 15.1492-1.27526 16.2134-1.92609 17.2777-2.57691 18.1264-3.46519 18.7596-4.59094 19.3928-5.7167 19.7094-6.8952 19.7094-8.1265L19.7094-14.4325C17.8624-14.4325 15.976-14.129 14.0499-13.5222 12.1238-12.9153 10.5275-11.9743 9.26105-10.699 7.99458-9.42375 7.36135-7.84506 7.36135-5.96295" fill="#D9D9D9" fill-rule="evenodd" transform="matrix(0 -1.00016 1 0 3067.06 1907.5)"/><path d="M6.20042-7.30858 6.20042-24.0629 1.16093-24.0629 1.16093-25.646C3.817-25.646 5.76506-26.8817 7.00515-29.353 8.24522-31.8245 8.86527-34.5112 8.86527-37.4136L10.6331-37.4136 10.6331-26.2 19.2081-26.2 19.2081-24.0629 10.6331-24.0629 10.6331-7.44049C10.6331-5.76947 10.9145-4.30072 11.4774-3.03425 12.0402-1.76779 13.0517-1.13454 14.5116-1.13454 15.9012-1.13454 16.9038-1.79855 17.5195-3.12659 18.1351-4.45462 18.443-5.89258 18.443-7.44049L18.443-11.0288 20.1843-11.0288 20.1843-7.30858C20.1843-6.04211 19.9512-4.78883 19.4852-3.54874 19.019-2.30867 18.333-1.29285 17.4271-0.50131 16.5212 0.290232 15.4087 0.686003 14.0894 0.686003 11.6621 0.686003 9.74037-0.0439746 8.32439-1.50393 6.90841-2.96389 6.20042-4.89876 6.20042-7.30858" fill="#D9D9D9" fill-rule="evenodd" transform="matrix(0 -1.00016 1 0 3067.06 1876.53)"/><path d="M1.87332 0 1.87332-2.13717C3.26291-2.13717 4.40185-2.2471 5.29013-2.46698 6.17842-2.68685 6.62258-3.21894 6.62258-4.06325L6.62258-20.6593C6.62258-22.2248 6.31915-23.1834 5.71229-23.5352 5.10545-23.8869 3.91374-24.0629 2.13717-24.0629L2.13717-26.2 10.8969-26.8597 10.8969-4.06325C10.8969-3.21894 11.2839-2.68685 12.0578-2.46698 12.8318-2.2471 13.8608-2.13717 15.1448-2.13717L15.1448 0 1.87332 0M4.45903-37.3081C4.45903-38.2051 4.79322-38.9878 5.46165-39.6563 6.13006-40.3246 6.904-40.6588 7.7835-40.6588 8.34637-40.6588 8.89605-40.5138 9.43255-40.2235 9.96904-39.9332 10.3868-39.5199 10.6858-38.9834 10.9848-38.4469 11.1344-37.8885 11.1344-37.3081 11.1344-36.4461 10.7958-35.6765 10.1185-34.9994 9.44134-34.3221 8.66299-33.9835 7.7835-33.9835 6.904-33.9835 6.13006-34.3221 5.46165-34.9994 4.79322-35.6765 4.45903-36.4461 4.45903-37.3081" fill="#D9D9D9" fill-rule="evenodd" transform="matrix(0 -1.00016 1 0 3067.06 1852.45)"/><path d="M15.1976 0.686003C12.7702 0.686003 10.5143 0.0659618 8.42993-1.17412 6.34552-2.41421 4.70087-4.07205 3.49597-6.14765 2.29107-8.22324 1.68862-10.4923 1.68862-12.9549 1.68862-14.8018 2.02284-16.5872 2.69124-18.3111 3.35965-20.0348 4.3095-21.5738 5.54079-22.9283 6.77209-24.2827 8.21005-25.3425 9.8547-26.1076 11.4994-26.8729 13.2803-27.2554 15.1976-27.2554 17.6954-27.2554 19.9688-26.5958 22.0181-25.2767 24.0673-23.9573 25.6855-22.1939 26.8729-19.9864 28.0602-17.7788 28.6539-15.4351 28.6539-12.9549 28.6539-10.5099 28.047-8.24522 26.8332-6.16084 25.6196-4.07644 23.9793-2.41421 21.9126-1.17412 19.8457 0.0659618 17.6074 0.686003 15.1976 0.686003M15.1976-1.13454C18.4518-1.13454 20.6196-2.30867 21.7015-4.6569 22.7832-7.00515 23.3241-9.99102 23.3241-13.6145 23.3241-15.6549 23.2186-17.3391 23.0075-18.6672 22.7964-19.9952 22.3216-21.2045 21.5828-22.2951 21.1253-22.9636 20.545-23.5527 19.8413-24.0629 19.1377-24.573 18.3945-24.96 17.6118-25.2238 16.8291-25.4877 16.0243-25.6196 15.1976-25.6196 13.9311-25.6196 12.7306-25.3337 11.5961-24.7621 10.4615-24.1904 9.5161-23.368 8.75973-22.2951 8.00336-21.1517 7.52405-19.8942 7.32177-18.5222 7.11949-17.1502 7.01834-15.5142 7.01834-13.6145 7.01834-11.3454 7.21623-9.30941 7.61199-7.50645 8.00777-5.70349 8.8037-4.19077 9.99982-2.96828 11.1959-1.74578 12.9285-1.13454 15.1976-1.13454" fill="#D9D9D9" fill-rule="evenodd" transform="matrix(0 -1.00016 1 0 3067.06 1835.25)"/><path d="M1.82055 0 1.82055-2.13717C3.19256-2.13717 4.3271-2.2471 5.22418-2.46698 6.12126-2.68685 6.56981-3.21894 6.56981-4.06325L6.56981-20.6593C6.56981-21.7498 6.40709-22.537 6.08168-23.0207 5.75626-23.5044 5.28574-23.7991 4.67011-23.9047 4.05445-24.0102 3.1046-24.0629 1.82055-24.0629L1.82055-26.2 10.6331-26.8597 10.6331-20.923C11.4422-22.6645 12.6427-24.0892 14.2346-25.1975 15.8264-26.3055 17.5634-26.8597 19.4455-26.8597 22.2599-26.8597 24.3751-26.1868 25.791-24.8412 27.2071-23.4957 27.9151-21.442 27.9151-18.6804L27.9151-4.06325C27.9151-3.21894 28.3592-2.68685 29.2475-2.46698 30.1358-2.2471 31.2746-2.13717 32.6644-2.13717L32.6644 0 18.7332 0 18.7332-2.13717C20.1228-2.13717 21.2616-2.2471 22.15-2.46698 23.0382-2.68685 23.4825-3.21894 23.4825-4.06325L23.4825-18.4957C23.4825-20.4658 23.1966-22.0928 22.6248-23.377 22.0532-24.661 20.8704-25.303 19.0762-25.303 16.7367-25.303 14.8062-24.3619 13.2847-22.4798 11.7632-20.5977 11.0024-18.4605 11.0024-16.0683L11.0024-4.06325C11.0024-3.21894 11.451-2.68685 12.3481-2.46698 13.2451-2.2471 14.3709-2.13717 15.7253-2.13717L15.7253 0 1.82055 0" fill="#D9D9D9" fill-rule="evenodd" transform="matrix(0 -1.00016 1 0 3067.06 1804.28)"/><path d="M7.17665 15.1976 7.17665-45.5928 15.4878-45.5928 15.4878-43.1654 9.63043-43.1654 9.63043 12.7702 15.4878 12.7702 15.4878 15.1976 7.17665 15.1976" fill="#D9D9D9" fill-rule="evenodd" transform="matrix(0 -1.00016 1 0 3067.06 1749.24)"/><path d="M1.82055 0 1.82055-2.13717C3.19256-2.13717 4.3271-2.2471 5.22418-2.46698 6.12126-2.68685 6.56981-3.21894 6.56981-4.06325L6.56981-20.6593C6.56981-21.7498 6.40709-22.537 6.08168-23.0207 5.75626-23.5044 5.28574-23.7991 4.67011-23.9047 4.05445-24.0102 3.1046-24.0629 1.82055-24.0629L1.82055-26.2 10.6331-26.8597 10.6331-20.923C11.4422-22.6645 12.6427-24.0892 14.2346-25.1975 15.8264-26.3055 17.5634-26.8597 19.4455-26.8597 24.1068-26.8597 26.8508-24.96 27.6775-21.1606 28.4867-22.8668 29.6696-24.2432 31.2264-25.2898 32.7831-26.3364 34.4937-26.8597 36.3582-26.8597 38.2051-26.8597 39.7574-26.5651 41.0151-25.9757 42.2728-25.3866 43.2183-24.4806 43.8515-23.2581 44.4847-22.0357 44.8014-20.5097 44.8014-18.6804L44.8014-4.06325C44.8014-3.21894 45.2499-2.68685 46.1469-2.46698 47.044-2.2471 48.1786-2.13717 49.5506-2.13717L49.5506 0 35.6195 0 35.6195-2.13717C37.009-2.13717 38.1479-2.2471 39.0362-2.46698 39.9244-2.68685 40.3687-3.21894 40.3687-4.06325L40.3687-18.4957C40.3687-20.5362 40.0828-22.1807 39.5111-23.4296 38.9395-24.6785 37.7654-25.303 35.9888-25.303 33.6494-25.303 31.7189-24.3619 30.1973-22.4798 28.6759-20.5977 27.9151-18.4605 27.9151-16.0683L27.9151-4.06325C27.9151-3.21894 28.3592-2.68685 29.2475-2.46698 30.1358-2.2471 31.2746-2.13717 32.6644-2.13717L32.6644 0 18.7332 0 18.7332-2.13717C20.1228-2.13717 21.2616-2.2471 22.15-2.46698 23.0382-2.68685 23.4825-3.21894 23.4825-4.06325L23.4825-18.4957C23.4825-20.4658 23.1966-22.0928 22.6248-23.377 22.0532-24.661 20.8704-25.303 19.0762-25.303 16.7367-25.303 14.8062-24.3619 13.2847-22.4798 11.7632-20.5977 11.0024-18.4605 11.0024-16.0683L11.0024-4.06325C11.0024-3.21894 11.451-2.68685 12.3481-2.46698 13.2451-2.2471 14.3709-2.13717 15.7253-2.13717L15.7253 0 1.82055 0" fill="#D9D9D9" fill-rule="evenodd" transform="matrix(0 -1.00016 1 0 3067.06 1732.04)"/><path d="M15.1976 0.686003C12.7702 0.686003 10.5143 0.0659618 8.42993-1.17412 6.34552-2.41421 4.70087-4.07205 3.49597-6.14765 2.29107-8.22324 1.68862-10.4923 1.68862-12.9549 1.68862-14.8018 2.02284-16.5872 2.69124-18.3111 3.35965-20.0348 4.3095-21.5738 5.54079-22.9283 6.77209-24.2827 8.21005-25.3425 9.8547-26.1076 11.4994-26.8729 13.2803-27.2554 15.1976-27.2554 17.6954-27.2554 19.9688-26.5958 22.0181-25.2767 24.0673-23.9573 25.6855-22.1939 26.8729-19.9864 28.0602-17.7788 28.6539-15.4351 28.6539-12.9549 28.6539-10.5099 28.047-8.24522 26.8332-6.16084 25.6196-4.07644 23.9793-2.41421 21.9126-1.17412 19.8457 0.0659618 17.6074 0.686003 15.1976 0.686003M15.1976-1.13454C18.4518-1.13454 20.6196-2.30867 21.7015-4.6569 22.7832-7.00515 23.3241-9.99102 23.3241-13.6145 23.3241-15.6549 23.2186-17.3391 23.0075-18.6672 22.7964-19.9952 22.3216-21.2045 21.5828-22.2951 21.1253-22.9636 20.545-23.5527 19.8413-24.0629 19.1377-24.573 18.3945-24.96 17.6118-25.2238 16.8291-25.4877 16.0243-25.6196 15.1976-25.6196 13.9311-25.6196 12.7306-25.3337 11.5961-24.7621 10.4615-24.1904 9.5161-23.368 8.75973-22.2951 8.00336-21.1517 7.52405-19.8942 7.32177-18.5222 7.11949-17.1502 7.01834-15.5142 7.01834-13.6145 7.01834-11.3454 7.21623-9.30941 7.61199-7.50645 8.00777-5.70349 8.8037-4.19077 9.99982-2.96828 11.1959-1.74578 12.9285-1.13454 15.1976-1.13454" fill="#D9D9D9" fill-rule="evenodd" transform="matrix(0 -1.00016 1 0 3067.06 1680.43)"/><path d="M1.87332 0 1.87332-2.13717C3.26291-2.13717 4.40185-2.2471 5.29013-2.46698 6.17842-2.68685 6.62258-3.21894 6.62258-4.06325L6.62258-35.9888C6.62258-37.0617 6.45986-37.8446 6.13445-38.337 5.80903-38.8295 5.33851-39.1286 4.72288-39.2341 4.10722-39.3397 3.15737-39.3924 1.87332-39.3924L1.87332-41.5297 10.8969-42.1892 10.8969-4.06325C10.8969-3.21894 11.341-2.68685 12.2293-2.46698 13.1176-2.2471 14.2478-2.13717 15.6198-2.13717L15.6198 0 1.87332 0" fill="#D9D9D9" fill-rule="evenodd" transform="matrix(0 -1.00016 1 0 3067.06 1649.47)"/><path d="M3.40364 13.9839C3.40364 13.8608 3.43002 13.7816 3.48278 13.7465L24.6169-44.854C24.6873-45.0827 24.8236-45.263 25.0259-45.3949 25.2282-45.5268 25.4524-45.5928 25.6988-45.5928 26.0681-45.5928 26.3628-45.4829 26.5826-45.263 26.8025-45.0432 26.9124-44.7485 26.9124-44.3792L26.9124-44.1416 5.77826 14.4588C5.54959 14.9514 5.17141 15.1976 4.64371 15.1976 4.29192 15.1976 3.99729 15.0789 3.75982 14.8414 3.52237 14.604 3.40364 14.3181 3.40364 13.9839" fill="#D9D9D9" fill-rule="evenodd" transform="matrix(0 -1.00016 1 0 3067.06 1632.27)"/><path d="M1.82055 0 1.82055-2.13717C3.19256-2.13717 4.3271-2.2471 5.22418-2.46698 6.12126-2.68685 6.56981-3.21894 6.56981-4.06325L6.56981-20.6593C6.56981-21.7498 6.40709-22.537 6.08168-23.0207 5.75626-23.5044 5.28574-23.7991 4.67011-23.9047 4.05445-24.0102 3.1046-24.0629 1.82055-24.0629L1.82055-26.2 10.6331-26.8597 10.6331-20.923C11.4422-22.6645 12.6427-24.0892 14.2346-25.1975 15.8264-26.3055 17.5634-26.8597 19.4455-26.8597 24.1068-26.8597 26.8508-24.96 27.6775-21.1606 28.4867-22.8668 29.6696-24.2432 31.2264-25.2898 32.7831-26.3364 34.4937-26.8597 36.3582-26.8597 38.2051-26.8597 39.7574-26.5651 41.0151-25.9757 42.2728-25.3866 43.2183-24.4806 43.8515-23.2581 44.4847-22.0357 44.8014-20.5097 44.8014-18.6804L44.8014-4.06325C44.8014-3.21894 45.2499-2.68685 46.1469-2.46698 47.044-2.2471 48.1786-2.13717 49.5506-2.13717L49.5506 0 35.6195 0 35.6195-2.13717C37.009-2.13717 38.1479-2.2471 39.0362-2.46698 39.9244-2.68685 40.3687-3.21894 40.3687-4.06325L40.3687-18.4957C40.3687-20.5362 40.0828-22.1807 39.5111-23.4296 38.9395-24.6785 37.7654-25.303 35.9888-25.303 33.6494-25.303 31.7189-24.3619 30.1973-22.4798 28.6759-20.5977 27.9151-18.4605 27.9151-16.0683L27.9151-4.06325C27.9151-3.21894 28.3592-2.68685 29.2475-2.46698 30.1358-2.2471 31.2746-2.13717 32.6644-2.13717L32.6644 0 18.7332 0 18.7332-2.13717C20.1228-2.13717 21.2616-2.2471 22.15-2.46698 23.0382-2.68685 23.4825-3.21894 23.4825-4.06325L23.4825-18.4957C23.4825-20.4658 23.1966-22.0928 22.6248-23.377 22.0532-24.661 20.8704-25.303 19.0762-25.303 16.7367-25.303 14.8062-24.3619 13.2847-22.4798 11.7632-20.5977 11.0024-18.4605 11.0024-16.0683L11.0024-4.06325C11.0024-3.21894 11.451-2.68685 12.3481-2.46698 13.2451-2.2471 14.3709-2.13717 15.7253-2.13717L15.7253 0 1.82055 0" fill="#D9D9D9" fill-rule="evenodd" transform="matrix(0 -1.00016 1 0 3067.06 1601.3)"/><path d="M4.01048-3.27171C4.67889-2.32186 5.56719-1.60947 6.67535-1.13454 7.7835-0.659618 8.97961-0.422156 10.2637-0.422156 11.8995-0.422156 13.0605-1.12135 13.7465-2.51975 14.4325-3.91813 14.7754-5.50562 14.7754-7.28219 14.7754-8.07373 14.7051-8.86966 14.5644-9.67 14.4237-10.4703 14.1818-11.2135 13.8388-11.8995 13.4958-12.5855 13.0253-13.1352 12.4272-13.5486 11.8292-13.9619 11.0992-14.1686 10.2373-14.1686L7.41412-14.1686C7.16785-14.1686 7.04473-14.2917 7.04473-14.538L7.04473-14.9074C7.04473-15.1185 7.16785-15.224 7.41412-15.224L9.76235-15.4087C10.7474-15.4087 11.5653-15.7825 12.2161-16.53 12.867-17.2777 13.3419-18.1834 13.6409-19.2476 13.9399-20.3118 14.0894-21.3276 14.0894-22.2951 14.0894-23.6319 13.7772-24.7356 13.1528-25.6064 12.5283-26.4771 11.5653-26.9124 10.2637-26.9124 9.19068-26.9124 8.16608-26.7057 7.18984-26.2924 6.21361-25.879 5.43525-25.2677 4.85479-24.4587 4.92516-24.4587 4.97793-24.4631 5.0131-24.4719 5.04827-24.4806 5.09226-24.485 5.14503-24.485 5.77826-24.485 6.31035-24.2652 6.7413-23.8255 7.17226-23.3857 7.38772-22.858 7.38772-22.2424 7.38772-21.6443 7.17226-21.1253 6.7413-20.6856 6.31035-20.2459 5.77826-20.0261 5.14503-20.0261 4.52938-20.0261 4.00168-20.2459 3.56195-20.6856 3.1222-21.1253 2.90232-21.6443 2.90232-22.2424 2.90232-23.456 3.26732-24.507 3.99729-25.3954 4.72727-26.2836 5.66393-26.9607 6.80726-27.427 7.95059-27.893 9.10274-28.1262 10.2637-28.1262 11.1256-28.1262 12.027-27.9985 12.9681-27.7436 13.9092-27.4884 14.7667-27.1235 15.5406-26.6487 16.3146-26.1737 16.9435-25.5668 17.4271-24.828 17.9109-24.0892 18.1527-23.2449 18.1527-22.2951 18.1527-21.1166 17.8889-20.0261 17.3612-19.0233 16.8335-18.0208 16.1079-17.1546 15.1844-16.4245 14.2609-15.6945 13.2539-15.1536 12.1634-14.8018 13.3771-14.5556 14.5336-14.0894 15.6329-13.4034 16.7323-12.7174 17.6162-11.838 18.2846-10.765 18.9531-9.69199 19.2873-8.53986 19.2873-7.30858 19.2873-5.74307 18.8607-4.33149 18.0076-3.07382 17.1546-1.81615 16.0375-0.835517 14.6567-0.131924 13.2759 0.57167 11.8116 0.923466 10.2637 0.923466 8.94443 0.923466 7.62079 0.672812 6.29275 0.171502 4.96472-0.32981 3.87856-1.08177 3.03425-2.0844 2.18994-3.08702 1.76779-4.29192 1.76779-5.6991 1.76779-6.4027 2.00085-6.98756 2.46698-7.45368 2.9331-7.91981 3.51796-8.15289 4.22156-8.15289 4.67889-8.15289 5.09665-8.04735 5.47484-7.83627 5.85302-7.6252 6.14765-7.32616 6.35873-6.93919 6.56981-6.55221 6.67535-6.13885 6.67535-5.6991 6.67535-5.0131 6.43348-4.43703 5.94976-3.9709 5.46604-3.50477 4.88996-3.27171 4.22156-3.27171L4.01048-3.27171" fill="#D9D9D9" fill-rule="evenodd" transform="matrix(0 -1.00016 1 0 3044.59 1549.7)"/><path d="M1.34562 15.1976 1.34562 12.7702 7.25581 12.7702 7.25581-43.1654 1.34562-43.1654 1.34562-45.5928 9.6832-45.5928 9.6832 15.1976 1.34562 15.1976" fill="#D9D9D9" fill-rule="evenodd" transform="matrix(0 -1.00016 1 0 3067.06 1524.93)"/><path d="M273.557 1058.77 273.557 91.1856" stroke="#D9D9D9" stroke-width="1.12575" stroke-linecap="square" stroke-linejoin="round" fill="none" fill-rule="evenodd" transform="matrix(1 0 0 1.00016 2990.28 1259)"/><path d="M1354.28 1058.77 1354.28 91.1856" stroke="#D9D9D9" stroke-width="1.12575" stroke-linecap="square" stroke-linejoin="round" fill="none" fill-rule="evenodd" transform="matrix(1 0 0 1.00016 2990.28 1259)"/><path d="M273.557 1058.77 284.364 1058.77" stroke="#D9D9D9" stroke-width="1.12575" stroke-linecap="square" stroke-linejoin="round" fill="none" fill-rule="evenodd" transform="matrix(1 0 0 1.00016 2990.28 1259)"/><path d="M1343.47 1058.77 1354.28 1058.77" stroke="#D9D9D9" stroke-width="1.12575" stroke-linecap="square" stroke-linejoin="round" fill="none" fill-rule="evenodd" transform="matrix(1 0 0 1.00016 2990.28 1259)"/><path d="M273.557 913.341 284.364 913.341" stroke="#D9D9D9" stroke-width="1.12575" stroke-linecap="square" stroke-linejoin="round" fill="none" fill-rule="evenodd" transform="matrix(1 0 0 1.00016 2990.28 1259)"/><path d="M1343.47 913.341 1354.28 913.341" stroke="#D9D9D9" stroke-width="1.12575" stroke-linecap="square" stroke-linejoin="round" fill="none" fill-rule="evenodd" transform="matrix(1 0 0 1.00016 2990.28 1259)"/><path d="M273.557 767.913 284.364 767.913" stroke="#D9D9D9" stroke-width="1.12575" stroke-linecap="square" stroke-linejoin="round" fill="none" fill-rule="evenodd" transform="matrix(1 0 0 1.00016 2990.28 1259)"/><path d="M1343.47 767.913 1354.28 767.913" stroke="#D9D9D9" stroke-width="1.12575" stroke-linecap="square" stroke-linejoin="round" fill="none" fill-rule="evenodd" transform="matrix(1 0 0 1.00016 2990.28 1259)"/><path d="M273.557 622.487 284.364 622.487" stroke="#D9D9D9" stroke-width="1.12575" stroke-linecap="square" stroke-linejoin="round" fill="none" fill-rule="evenodd" transform="matrix(1 0 0 1.00016 2990.28 1259)"/><path d="M1343.47 622.487 1354.28 622.487" stroke="#D9D9D9" stroke-width="1.12575" stroke-linecap="square" stroke-linejoin="round" fill="none" fill-rule="evenodd" transform="matrix(1 0 0 1.00016 2990.28 1259)"/><path d="M273.557 477.06 284.364 477.06" stroke="#D9D9D9" stroke-width="1.12575" stroke-linecap="square" stroke-linejoin="round" fill="none" fill-rule="evenodd" transform="matrix(1 0 0 1.00016 2990.28 1259)"/><path d="M1343.47 477.06 1354.28 477.06" stroke="#D9D9D9" stroke-width="1.12575" stroke-linecap="square" stroke-linejoin="round" fill="none" fill-rule="evenodd" transform="matrix(1 0 0 1.00016 2990.28 1259)"/><path d="M273.557 331.634 284.364 331.634" stroke="#D9D9D9" stroke-width="1.12575" stroke-linecap="square" stroke-linejoin="round" fill="none" fill-rule="evenodd" transform="matrix(1 0 0 1.00016 2990.28 1259)"/><path d="M1343.47 331.634 1354.28 331.634" stroke="#D9D9D9" stroke-width="1.12575" stroke-linecap="square" stroke-linejoin="round" fill="none" fill-rule="evenodd" transform="matrix(1 0 0 1.00016 2990.28 1259)"/><path d="M273.557 186.208 284.364 186.208" stroke="#D9D9D9" stroke-width="1.12575" stroke-linecap="square" stroke-linejoin="round" fill="none" fill-rule="evenodd" transform="matrix(1 0 0 1.00016 2990.28 1259)"/><path d="M1343.47 186.208 1354.28 186.208" stroke="#D9D9D9" stroke-width="1.12575" stroke-linecap="square" stroke-linejoin="round" fill="none" fill-rule="evenodd" transform="matrix(1 0 0 1.00016 2990.28 1259)"/><path d="M2.32186-19.6831C2.32186-24.3971 2.80558-28.1921 3.77303-31.068 4.74045-33.944 6.18282-36.1603 8.10012-37.7169 10.0174-39.2737 12.4272-40.0521 15.3295-40.0521 17.4578-40.0521 19.3312-39.621 20.9496-38.7591 22.5678-37.8973 23.9001-36.6527 24.9467-35.0258 25.9933-33.3986 26.8201-31.4199 27.427-29.0892 28.0338-26.7586 28.3373-23.6232 28.3373-19.6831 28.3373-15.0041 27.8535-11.2267 26.8861-8.35076 25.9187-5.47484 24.4806-3.24972 22.5722-1.67543 20.6637-0.101141 18.2495 0.686003 15.3295 0.686003 11.4774 0.686003 8.45191-0.694797 6.25319-3.45641 3.6323-6.78088 2.32186-12.1897 2.32186-19.6831M7.33496-19.6831C7.33496-13.122 8.10451-8.75973 9.64362-6.59618 11.1827-4.43263 13.078-3.35087 15.3295-3.35087 17.5634-3.35087 19.4499-4.43703 20.9891-6.60937 22.5281-8.78172 23.2978-13.1396 23.2978-19.6831 23.2978-26.2441 22.5281-30.6019 20.9891-32.7566 19.4499-34.9114 17.5458-35.9888 15.2768-35.9888 13.0253-35.9888 11.2223-35.0389 9.86789-33.1392 8.17927-30.7118 7.33496-26.2265 7.33496-19.6831" fill="#D9D9D9" fill-rule="evenodd" transform="matrix(1 0 0 1.00016 3217.68 2337.36)"/><path d="M2.32186-19.6831C2.32186-24.3971 2.80558-28.1921 3.77303-31.068 4.74045-33.944 6.18282-36.1603 8.10012-37.7169 10.0174-39.2737 12.4272-40.0521 15.3295-40.0521 17.4578-40.0521 19.3312-39.621 20.9496-38.7591 22.5678-37.8973 23.9001-36.6527 24.9467-35.0258 25.9933-33.3986 26.8201-31.4199 27.427-29.0892 28.0338-26.7586 28.3373-23.6232 28.3373-19.6831 28.3373-15.0041 27.8535-11.2267 26.8861-8.35076 25.9187-5.47484 24.4806-3.24972 22.5722-1.67543 20.6637-0.101141 18.2495 0.686003 15.3295 0.686003 11.4774 0.686003 8.45191-0.694797 6.25319-3.45641 3.6323-6.78088 2.32186-12.1897 2.32186-19.6831M7.33496-19.6831C7.33496-13.122 8.10451-8.75973 9.64362-6.59618 11.1827-4.43263 13.078-3.35087 15.3295-3.35087 17.5634-3.35087 19.4499-4.43703 20.9891-6.60937 22.5281-8.78172 23.2978-13.1396 23.2978-19.6831 23.2978-26.2441 22.5281-30.6019 20.9891-32.7566 19.4499-34.9114 17.5458-35.9888 15.2768-35.9888 13.0253-35.9888 11.2223-35.0389 9.86789-33.1392 8.17927-30.7118 7.33496-26.2265 7.33496-19.6831M35.4611 0 35.4611-5.56719 41.0283-5.56719 41.0283 0 35.4611 0M47.9147-19.6831C47.9147-24.3971 48.3985-28.1921 49.3659-31.068 50.3333-33.944 51.7757-36.1603 53.693-37.7169 55.6102-39.2737 58.0201-40.0521 60.9223-40.0521 63.0506-40.0521 64.924-39.621 66.5424-38.7591 68.1606-37.8973 69.4929-36.6527 70.5395-35.0258 71.5861-33.3986 72.4129-31.4199 73.0198-29.0892 73.6267-26.7586 73.9301-23.6232 73.9301-19.6831 73.9301-15.0041 73.4463-11.2267 72.4789-8.35076 71.5115-5.47484 70.0735-3.24972 68.165-1.67543 66.2565-0.101141 63.8423 0.686003 60.9223 0.686003 57.0702 0.686003 54.0447-0.694797 51.846-3.45641 49.225-6.78088 47.9147-12.1897 47.9147-19.6831M52.9279-19.6831C52.9279-13.122 53.6974-8.75973 55.2364-6.59618 56.7756-4.43263 58.6709-3.35087 60.9223-3.35087 63.1562-3.35087 65.0427-4.43703 66.5819-6.60937 68.1209-8.78172 68.8906-13.1396 68.8906-19.6831 68.8906-26.2441 68.1209-30.6019 66.5819-32.7566 65.0427-34.9114 63.1386-35.9888 60.8696-35.9888 58.618-35.9888 56.8151-35.0389 55.4608-33.1392 53.7722-30.7118 52.9279-26.2265 52.9279-19.6831M78.3099-19.6831C78.3099-24.3971 78.7937-28.1921 79.7611-31.068 80.7285-33.944 82.1709-36.1603 84.0882-37.7169 86.0054-39.2737 88.4153-40.0521 91.3175-40.0521 93.4459-40.0521 95.3192-39.621 96.9376-38.7591 98.5558-37.8973 99.8881-36.6527 100.935-35.0258 101.981-33.3986 102.808-31.4199 103.415-29.0892 104.022-26.7586 104.325-23.6232 104.325-19.6831 104.325-15.0041 103.842-11.2267 102.874-8.35076 101.907-5.47484 100.469-3.24972 98.5602-1.67543 96.6517-0.101141 94.2375 0.686003 91.3175 0.686003 87.4654 0.686003 84.4399-0.694797 82.2412-3.45641 79.6203-6.78088 78.3099-12.1897 78.3099-19.6831M83.3231-19.6831C83.3231-13.122 84.0926-8.75973 85.6316-6.59618 87.1708-4.43263 89.0661-3.35087 91.3175-3.35087 93.5514-3.35087 95.4379-4.43703 96.9771-6.60937 98.5161-8.78172 99.2858-13.1396 99.2858-19.6831 99.2858-26.2441 98.5161-30.6019 96.9771-32.7566 95.4379-34.9114 93.5338-35.9888 91.2648-35.9888 89.0132-35.9888 87.2103-35.0389 85.856-33.1392 84.1674-30.7118 83.3231-26.2265 83.3231-19.6831M108.705-10.4484 113.85-10.8969C114.219-8.38155 115.099-6.49503 116.489-5.23737 117.878-3.9797 119.549-3.35087 121.502-3.35087 123.859-3.35087 125.855-4.23915 127.491-6.01572 129.127-7.79229 129.945-10.1493 129.945-13.0868 129.945-15.8836 129.162-18.0867 127.597-19.6963 126.031-21.3057 123.973-22.1105 121.423-22.1105 119.857-22.1105 118.437-21.7542 117.161-21.0418 115.886-20.3295 114.888-19.4016 114.167-18.2582L109.576-18.8651 113.428-39.3397 133.269-39.3397 133.269-34.6696 117.359-34.6696 115.196-23.9573C117.588-25.6108 120.103-26.4376 122.742-26.4376 126.225-26.4376 129.162-25.2326 131.554-22.8228 133.946-20.4129 135.143-17.3172 135.143-13.5354 135.143-9.91186 134.087-6.78967 131.977-4.16879 129.426-0.93226 125.934 0.686003 121.502 0.686003 117.878 0.686003 114.919-0.32981 112.623-2.36144 110.328-4.39305 109.022-7.0887 108.705-10.4484" fill="#D9D9D9" fill-rule="evenodd" transform="matrix(1 0 0 1.00016 3111.3 2191.91)"/><path d="M2.32186-19.6831C2.32186-24.3971 2.80558-28.1921 3.77303-31.068 4.74045-33.944 6.18282-36.1603 8.10012-37.7169 10.0174-39.2737 12.4272-40.0521 15.3295-40.0521 17.4578-40.0521 19.3312-39.621 20.9496-38.7591 22.5678-37.8973 23.9001-36.6527 24.9467-35.0258 25.9933-33.3986 26.8201-31.4199 27.427-29.0892 28.0338-26.7586 28.3373-23.6232 28.3373-19.6831 28.3373-15.0041 27.8535-11.2267 26.8861-8.35076 25.9187-5.47484 24.4806-3.24972 22.5722-1.67543 20.6637-0.101141 18.2495 0.686003 15.3295 0.686003 11.4774 0.686003 8.45191-0.694797 6.25319-3.45641 3.6323-6.78088 2.32186-12.1897 2.32186-19.6831M7.33496-19.6831C7.33496-13.122 8.10451-8.75973 9.64362-6.59618 11.1827-4.43263 13.078-3.35087 15.3295-3.35087 17.5634-3.35087 19.4499-4.43703 20.9891-6.60937 22.5281-8.78172 23.2978-13.1396 23.2978-19.6831 23.2978-26.2441 22.5281-30.6019 20.9891-32.7566 19.4499-34.9114 17.5458-35.9888 15.2768-35.9888 13.0253-35.9888 11.2223-35.0389 9.86789-33.1392 8.17927-30.7118 7.33496-26.2265 7.33496-19.6831M35.4611 0 35.4611-5.56719 41.0283-5.56719 41.0283 0 35.4611 0M47.9147-19.6831C47.9147-24.3971 48.3985-28.1921 49.3659-31.068 50.3333-33.944 51.7757-36.1603 53.693-37.7169 55.6102-39.2737 58.0201-40.0521 60.9223-40.0521 63.0506-40.0521 64.924-39.621 66.5424-38.7591 68.1606-37.8973 69.4929-36.6527 70.5395-35.0258 71.5861-33.3986 72.4129-31.4199 73.0198-29.0892 73.6267-26.7586 73.9301-23.6232 73.9301-19.6831 73.9301-15.0041 73.4463-11.2267 72.4789-8.35076 71.5115-5.47484 70.0735-3.24972 68.165-1.67543 66.2565-0.101141 63.8423 0.686003 60.9223 0.686003 57.0702 0.686003 54.0447-0.694797 51.846-3.45641 49.225-6.78088 47.9147-12.1897 47.9147-19.6831M52.9279-19.6831C52.9279-13.122 53.6974-8.75973 55.2364-6.59618 56.7756-4.43263 58.6709-3.35087 60.9223-3.35087 63.1562-3.35087 65.0427-4.43703 66.5819-6.60937 68.1209-8.78172 68.8906-13.1396 68.8906-19.6831 68.8906-26.2441 68.1209-30.6019 66.5819-32.7566 65.0427-34.9114 63.1386-35.9888 60.8696-35.9888 58.618-35.9888 56.8151-35.0389 55.4608-33.1392 53.7722-30.7118 52.9279-26.2265 52.9279-19.6831M96.7529 0 91.8452 0 91.8452-31.2132C90.6667-30.0874 89.1231-28.9616 87.2147-27.8359 85.3062-26.7101 83.5868-25.8658 82.0566-25.303L82.0566-30.0523C84.8006-31.3363 87.1971-32.893 89.2464-34.7223 91.2956-36.5516 92.7424-38.3282 93.5867-40.0521L96.7529-40.0521 96.7529 0" fill="#D9D9D9" fill-rule="evenodd" transform="matrix(1 0 0 1.00016 3141.69 2046.46)"/><path d="M2.32186-19.6831C2.32186-24.3971 2.80558-28.1921 3.77303-31.068 4.74045-33.944 6.18282-36.1603 8.10012-37.7169 10.0174-39.2737 12.4272-40.0521 15.3295-40.0521 17.4578-40.0521 19.3312-39.621 20.9496-38.7591 22.5678-37.8973 23.9001-36.6527 24.9467-35.0258 25.9933-33.3986 26.8201-31.4199 27.427-29.0892 28.0338-26.7586 28.3373-23.6232 28.3373-19.6831 28.3373-15.0041 27.8535-11.2267 26.8861-8.35076 25.9187-5.47484 24.4806-3.24972 22.5722-1.67543 20.6637-0.101141 18.2495 0.686003 15.3295 0.686003 11.4774 0.686003 8.45191-0.694797 6.25319-3.45641 3.6323-6.78088 2.32186-12.1897 2.32186-19.6831M7.33496-19.6831C7.33496-13.122 8.10451-8.75973 9.64362-6.59618 11.1827-4.43263 13.078-3.35087 15.3295-3.35087 17.5634-3.35087 19.4499-4.43703 20.9891-6.60937 22.5281-8.78172 23.2978-13.1396 23.2978-19.6831 23.2978-26.2441 22.5281-30.6019 20.9891-32.7566 19.4499-34.9114 17.5458-35.9888 15.2768-35.9888 13.0253-35.9888 11.2223-35.0389 9.86789-33.1392 8.17927-30.7118 7.33496-26.2265 7.33496-19.6831M35.4611 0 35.4611-5.56719 41.0283-5.56719 41.0283 0 35.4611 0M47.9147-19.6831C47.9147-24.3971 48.3985-28.1921 49.3659-31.068 50.3333-33.944 51.7757-36.1603 53.693-37.7169 55.6102-39.2737 58.0201-40.0521 60.9223-40.0521 63.0506-40.0521 64.924-39.621 66.5424-38.7591 68.1606-37.8973 69.4929-36.6527 70.5395-35.0258 71.5861-33.3986 72.4129-31.4199 73.0198-29.0892 73.6267-26.7586 73.9301-23.6232 73.9301-19.6831 73.9301-15.0041 73.4463-11.2267 72.4789-8.35076 71.5115-5.47484 70.0735-3.24972 68.165-1.67543 66.2565-0.101141 63.8423 0.686003 60.9223 0.686003 57.0702 0.686003 54.0447-0.694797 51.846-3.45641 49.225-6.78088 47.9147-12.1897 47.9147-19.6831M52.9279-19.6831C52.9279-13.122 53.6974-8.75973 55.2364-6.59618 56.7756-4.43263 58.6709-3.35087 60.9223-3.35087 63.1562-3.35087 65.0427-4.43703 66.5819-6.60937 68.1209-8.78172 68.8906-13.1396 68.8906-19.6831 68.8906-26.2441 68.1209-30.6019 66.5819-32.7566 65.0427-34.9114 63.1386-35.9888 60.8696-35.9888 58.618-35.9888 56.8151-35.0389 55.4608-33.1392 53.7722-30.7118 52.9279-26.2265 52.9279-19.6831M96.7529 0 91.8452 0 91.8452-31.2132C90.6667-30.0874 89.1231-28.9616 87.2147-27.8359 85.3062-26.7101 83.5868-25.8658 82.0566-25.303L82.0566-30.0523C84.8006-31.3363 87.1971-32.893 89.2464-34.7223 91.2956-36.5516 92.7424-38.3282 93.5867-40.0521L96.7529-40.0521 96.7529 0M108.705-10.4484 113.85-10.8969C114.219-8.38155 115.099-6.49503 116.489-5.23737 117.878-3.9797 119.549-3.35087 121.502-3.35087 123.859-3.35087 125.855-4.23915 127.491-6.01572 129.127-7.79229 129.945-10.1493 129.945-13.0868 129.945-15.8836 129.162-18.0867 127.597-19.6963 126.031-21.3057 123.973-22.1105 121.423-22.1105 119.857-22.1105 118.437-21.7542 117.161-21.0418 115.886-20.3295 114.888-19.4016 114.167-18.2582L109.576-18.8651 113.428-39.3397 133.269-39.3397 133.269-34.6696 117.359-34.6696 115.196-23.9573C117.588-25.6108 120.103-26.4376 122.742-26.4376 126.225-26.4376 129.162-25.2326 131.554-22.8228 133.946-20.4129 135.143-17.3172 135.143-13.5354 135.143-9.91186 134.087-6.78967 131.977-4.16879 129.426-0.93226 125.934 0.686003 121.502 0.686003 117.878 0.686003 114.919-0.32981 112.623-2.36144 110.328-4.39305 109.022-7.0887 108.705-10.4484" fill="#D9D9D9" fill-rule="evenodd" transform="matrix(1 0 0 1.00016 3111.3 1901.01)"/><path d="M2.32186-19.6831C2.32186-24.3971 2.80558-28.1921 3.77303-31.068 4.74045-33.944 6.18282-36.1603 8.10012-37.7169 10.0174-39.2737 12.4272-40.0521 15.3295-40.0521 17.4578-40.0521 19.3312-39.621 20.9496-38.7591 22.5678-37.8973 23.9001-36.6527 24.9467-35.0258 25.9933-33.3986 26.8201-31.4199 27.427-29.0892 28.0338-26.7586 28.3373-23.6232 28.3373-19.6831 28.3373-15.0041 27.8535-11.2267 26.8861-8.35076 25.9187-5.47484 24.4806-3.24972 22.5722-1.67543 20.6637-0.101141 18.2495 0.686003 15.3295 0.686003 11.4774 0.686003 8.45191-0.694797 6.25319-3.45641 3.6323-6.78088 2.32186-12.1897 2.32186-19.6831M7.33496-19.6831C7.33496-13.122 8.10451-8.75973 9.64362-6.59618 11.1827-4.43263 13.078-3.35087 15.3295-3.35087 17.5634-3.35087 19.4499-4.43703 20.9891-6.60937 22.5281-8.78172 23.2978-13.1396 23.2978-19.6831 23.2978-26.2441 22.5281-30.6019 20.9891-32.7566 19.4499-34.9114 17.5458-35.9888 15.2768-35.9888 13.0253-35.9888 11.2223-35.0389 9.86789-33.1392 8.17927-30.7118 7.33496-26.2265 7.33496-19.6831M35.4611 0 35.4611-5.56719 41.0283-5.56719 41.0283 0 35.4611 0M47.9147-19.6831C47.9147-24.3971 48.3985-28.1921 49.3659-31.068 50.3333-33.944 51.7757-36.1603 53.693-37.7169 55.6102-39.2737 58.0201-40.0521 60.9223-40.0521 63.0506-40.0521 64.924-39.621 66.5424-38.7591 68.1606-37.8973 69.4929-36.6527 70.5395-35.0258 71.5861-33.3986 72.4129-31.4199 73.0198-29.0892 73.6267-26.7586 73.9301-23.6232 73.9301-19.6831 73.9301-15.0041 73.4463-11.2267 72.4789-8.35076 71.5115-5.47484 70.0735-3.24972 68.165-1.67543 66.2565-0.101141 63.8423 0.686003 60.9223 0.686003 57.0702 0.686003 54.0447-0.694797 51.846-3.45641 49.225-6.78088 47.9147-12.1897 47.9147-19.6831M52.9279-19.6831C52.9279-13.122 53.6974-8.75973 55.2364-6.59618 56.7756-4.43263 58.6709-3.35087 60.9223-3.35087 63.1562-3.35087 65.0427-4.43703 66.5819-6.60937 68.1209-8.78172 68.8906-13.1396 68.8906-19.6831 68.8906-26.2441 68.1209-30.6019 66.5819-32.7566 65.0427-34.9114 63.1386-35.9888 60.8696-35.9888 58.618-35.9888 56.8151-35.0389 55.4608-33.1392 53.7722-30.7118 52.9279-26.2265 52.9279-19.6831M104.035-4.69648 104.035 0 77.6767 0C77.6415-1.17852 77.835-2.31306 78.2572-3.40364 78.9256-5.1978 79.9985-6.96557 81.4761-8.70696 82.9536-10.4484 85.0907-12.4624 87.8876-14.7491 92.2147-18.3021 95.1389-21.1166 96.6605-23.1922 98.1819-25.2677 98.9428-27.229 98.9428-29.0761 98.9428-31.0284 98.2523-32.6688 96.8716-33.9967 95.4908-35.3248 93.6834-35.9888 91.4496-35.9888 89.0924-35.9888 87.2059-35.2807 85.79-33.8648 84.3739-32.4487 83.6572-30.492 83.6397-27.9942L78.6002-28.5219C78.9519-32.2686 80.2491-35.1269 82.4919-37.097 84.7346-39.067 87.7557-40.0521 91.5551-40.0521 95.3721-40.0521 98.3974-38.9922 100.631-36.8726 102.865-34.753 103.982-32.119 103.982-28.9705 103.982-27.3874 103.657-25.8219 103.006-24.274 102.355-22.726 101.273-21.099 99.7606-19.3928 98.248-17.6866 95.7326-15.3471 92.2147-12.3744 89.2772-9.91186 87.3906-8.24083 86.5551-7.36135 85.7196-6.48185 85.0293-5.59356 84.484-4.69648L104.035-4.69648" fill="#D9D9D9" fill-rule="evenodd" transform="matrix(1 0 0 1.00016 3141.69 1755.56)"/><path d="M2.32186-19.6831C2.32186-24.3971 2.80558-28.1921 3.77303-31.068 4.74045-33.944 6.18282-36.1603 8.10012-37.7169 10.0174-39.2737 12.4272-40.0521 15.3295-40.0521 17.4578-40.0521 19.3312-39.621 20.9496-38.7591 22.5678-37.8973 23.9001-36.6527 24.9467-35.0258 25.9933-33.3986 26.8201-31.4199 27.427-29.0892 28.0338-26.7586 28.3373-23.6232 28.3373-19.6831 28.3373-15.0041 27.8535-11.2267 26.8861-8.35076 25.9187-5.47484 24.4806-3.24972 22.5722-1.67543 20.6637-0.101141 18.2495 0.686003 15.3295 0.686003 11.4774 0.686003 8.45191-0.694797 6.25319-3.45641 3.6323-6.78088 2.32186-12.1897 2.32186-19.6831M7.33496-19.6831C7.33496-13.122 8.10451-8.75973 9.64362-6.59618 11.1827-4.43263 13.078-3.35087 15.3295-3.35087 17.5634-3.35087 19.4499-4.43703 20.9891-6.60937 22.5281-8.78172 23.2978-13.1396 23.2978-19.6831 23.2978-26.2441 22.5281-30.6019 20.9891-32.7566 19.4499-34.9114 17.5458-35.9888 15.2768-35.9888 13.0253-35.9888 11.2223-35.0389 9.86789-33.1392 8.17927-30.7118 7.33496-26.2265 7.33496-19.6831M35.4611 0 35.4611-5.56719 41.0283-5.56719 41.0283 0 35.4611 0M47.9147-19.6831C47.9147-24.3971 48.3985-28.1921 49.3659-31.068 50.3333-33.944 51.7757-36.1603 53.693-37.7169 55.6102-39.2737 58.0201-40.0521 60.9223-40.0521 63.0506-40.0521 64.924-39.621 66.5424-38.7591 68.1606-37.8973 69.4929-36.6527 70.5395-35.0258 71.5861-33.3986 72.4129-31.4199 73.0198-29.0892 73.6267-26.7586 73.9301-23.6232 73.9301-19.6831 73.9301-15.0041 73.4463-11.2267 72.4789-8.35076 71.5115-5.47484 70.0735-3.24972 68.165-1.67543 66.2565-0.101141 63.8423 0.686003 60.9223 0.686003 57.0702 0.686003 54.0447-0.694797 51.846-3.45641 49.225-6.78088 47.9147-12.1897 47.9147-19.6831M52.9279-19.6831C52.9279-13.122 53.6974-8.75973 55.2364-6.59618 56.7756-4.43263 58.6709-3.35087 60.9223-3.35087 63.1562-3.35087 65.0427-4.43703 66.5819-6.60937 68.1209-8.78172 68.8906-13.1396 68.8906-19.6831 68.8906-26.2441 68.1209-30.6019 66.5819-32.7566 65.0427-34.9114 63.1386-35.9888 60.8696-35.9888 58.618-35.9888 56.8151-35.0389 55.4608-33.1392 53.7722-30.7118 52.9279-26.2265 52.9279-19.6831M104.035-4.69648 104.035 0 77.6767 0C77.6415-1.17852 77.835-2.31306 78.2572-3.40364 78.9256-5.1978 79.9985-6.96557 81.4761-8.70696 82.9536-10.4484 85.0907-12.4624 87.8876-14.7491 92.2147-18.3021 95.1389-21.1166 96.6605-23.1922 98.1819-25.2677 98.9428-27.229 98.9428-29.0761 98.9428-31.0284 98.2523-32.6688 96.8716-33.9967 95.4908-35.3248 93.6834-35.9888 91.4496-35.9888 89.0924-35.9888 87.2059-35.2807 85.79-33.8648 84.3739-32.4487 83.6572-30.492 83.6397-27.9942L78.6002-28.5219C78.9519-32.2686 80.2491-35.1269 82.4919-37.097 84.7346-39.067 87.7557-40.0521 91.5551-40.0521 95.3721-40.0521 98.3974-38.9922 100.631-36.8726 102.865-34.753 103.982-32.119 103.982-28.9705 103.982-27.3874 103.657-25.8219 103.006-24.274 102.355-22.726 101.273-21.099 99.7606-19.3928 98.248-17.6866 95.7326-15.3471 92.2147-12.3744 89.2772-9.91186 87.3906-8.24083 86.5551-7.36135 85.7196-6.48185 85.0293-5.59356 84.484-4.69648L104.035-4.69648M108.705-10.4484 113.85-10.8969C114.219-8.38155 115.099-6.49503 116.489-5.23737 117.878-3.9797 119.549-3.35087 121.502-3.35087 123.859-3.35087 125.855-4.23915 127.491-6.01572 129.127-7.79229 129.945-10.1493 129.945-13.0868 129.945-15.8836 129.162-18.0867 127.597-19.6963 126.031-21.3057 123.973-22.1105 121.423-22.1105 119.857-22.1105 118.437-21.7542 117.161-21.0418 115.886-20.3295 114.888-19.4016 114.167-18.2582L109.576-18.8651 113.428-39.3397 133.269-39.3397 133.269-34.6696 117.359-34.6696 115.196-23.9573C117.588-25.6108 120.103-26.4376 122.742-26.4376 126.225-26.4376 129.162-25.2326 131.554-22.8228 133.946-20.4129 135.143-17.3172 135.143-13.5354 135.143-9.91186 134.087-6.78967 131.977-4.16879 129.426-0.93226 125.934 0.686003 121.502 0.686003 117.878 0.686003 114.919-0.32981 112.623-2.36144 110.328-4.39305 109.022-7.0887 108.705-10.4484" fill="#D9D9D9" fill-rule="evenodd" transform="matrix(1 0 0 1.00016 3111.3 1610.11)"/><path d="M2.32186-19.6831C2.32186-24.3971 2.80558-28.1921 3.77303-31.068 4.74045-33.944 6.18282-36.1603 8.10012-37.7169 10.0174-39.2737 12.4272-40.0521 15.3295-40.0521 17.4578-40.0521 19.3312-39.621 20.9496-38.7591 22.5678-37.8973 23.9001-36.6527 24.9467-35.0258 25.9933-33.3986 26.8201-31.4199 27.427-29.0892 28.0338-26.7586 28.3373-23.6232 28.3373-19.6831 28.3373-15.0041 27.8535-11.2267 26.8861-8.35076 25.9187-5.47484 24.4806-3.24972 22.5722-1.67543 20.6637-0.101141 18.2495 0.686003 15.3295 0.686003 11.4774 0.686003 8.45191-0.694797 6.25319-3.45641 3.6323-6.78088 2.32186-12.1897 2.32186-19.6831M7.33496-19.6831C7.33496-13.122 8.10451-8.75973 9.64362-6.59618 11.1827-4.43263 13.078-3.35087 15.3295-3.35087 17.5634-3.35087 19.4499-4.43703 20.9891-6.60937 22.5281-8.78172 23.2978-13.1396 23.2978-19.6831 23.2978-26.2441 22.5281-30.6019 20.9891-32.7566 19.4499-34.9114 17.5458-35.9888 15.2768-35.9888 13.0253-35.9888 11.2223-35.0389 9.86789-33.1392 8.17927-30.7118 7.33496-26.2265 7.33496-19.6831M35.4611 0 35.4611-5.56719 41.0283-5.56719 41.0283 0 35.4611 0M47.9147-19.6831C47.9147-24.3971 48.3985-28.1921 49.3659-31.068 50.3333-33.944 51.7757-36.1603 53.693-37.7169 55.6102-39.2737 58.0201-40.0521 60.9223-40.0521 63.0506-40.0521 64.924-39.621 66.5424-38.7591 68.1606-37.8973 69.4929-36.6527 70.5395-35.0258 71.5861-33.3986 72.4129-31.4199 73.0198-29.0892 73.6267-26.7586 73.9301-23.6232 73.9301-19.6831 73.9301-15.0041 73.4463-11.2267 72.4789-8.35076 71.5115-5.47484 70.0735-3.24972 68.165-1.67543 66.2565-0.101141 63.8423 0.686003 60.9223 0.686003 57.0702 0.686003 54.0447-0.694797 51.846-3.45641 49.225-6.78088 47.9147-12.1897 47.9147-19.6831M52.9279-19.6831C52.9279-13.122 53.6974-8.75973 55.2364-6.59618 56.7756-4.43263 58.6709-3.35087 60.9223-3.35087 63.1562-3.35087 65.0427-4.43703 66.5819-6.60937 68.1209-8.78172 68.8906-13.1396 68.8906-19.6831 68.8906-26.2441 68.1209-30.6019 66.5819-32.7566 65.0427-34.9114 63.1386-35.9888 60.8696-35.9888 58.618-35.9888 56.8151-35.0389 55.4608-33.1392 53.7722-30.7118 52.9279-26.2265 52.9279-19.6831M78.3362-10.5275 83.2175-11.1871C83.7803-8.40794 84.739-6.40709 86.0934-5.1846 87.4479-3.9621 89.0924-3.35087 91.0274-3.35087 93.3315-3.35087 95.2797-4.1468 96.8716-5.73868 98.4634-7.33056 99.2594-9.30502 99.2594-11.6621 99.2594-13.9135 98.5251-15.7693 97.0563-17.2292 95.5875-18.6892 93.7186-19.4192 91.4496-19.4192 90.5173-19.4192 89.3651-19.2432 87.9931-18.8915L88.5208-23.1922C88.855-23.1569 89.1188-23.1394 89.3123-23.1394 91.4055-23.1394 93.2876-23.6802 94.9587-24.7621 96.6298-25.8439 97.4653-27.5193 97.4653-29.7883 97.4653-31.5825 96.854-33.0688 95.6314-34.2475 94.409-35.426 92.8391-36.0151 90.9219-36.0151 89.0222-36.0151 87.4391-35.4172 86.1726-34.221 84.9062-33.0249 84.0882-31.2307 83.7187-28.8385L78.8112-29.7093C79.4092-32.9986 80.7724-35.5447 82.9009-37.3476 85.0293-39.1506 87.6677-40.0521 90.8163-40.0521 92.9974-40.0521 95.0026-39.5859 96.832-38.6536 98.6613-37.7213 100.06-36.4461 101.027-34.8278 101.995-33.2096 102.478-31.4945 102.478-29.6828 102.478-27.959 102.017-26.3891 101.093-24.9732 100.17-23.5571 98.802-22.4359 96.9903-21.6091 99.3473-21.0639 101.181-19.9337 102.491-18.2187 103.802-16.5037 104.457-14.3621 104.457-11.794 104.457-8.3112 103.186-5.35611 100.645-2.92871 98.1029-0.50131 94.8883 0.712388 91.0009 0.712388 87.5005 0.712388 84.5939-0.32981 82.2809-2.41421 79.9678-4.49859 78.6528-7.20304 78.3362-10.5275" fill="#D9D9D9" fill-rule="evenodd" transform="matrix(1 0 0 1.00016 3141.69 1464.66)"/><path d="M2.18994-14.1686 10.7386-14.9865C11.2663-12.1194 12.3129-10.013 13.8784-8.66738 15.4439-7.32177 17.5634-6.64895 20.2371-6.64895 23.0691-6.64895 25.2019-7.24701 26.6353-8.44311 28.069-9.63922 28.7858-11.0376 28.7858-12.6383 28.7858-13.6761 28.4867-14.5556 27.8886-15.2768 27.2907-15.9979 26.2353-16.6224 24.7225-17.1502 23.7024-17.5195 21.3628-18.1527 17.7042-19.0499 12.9901-20.2284 9.6832-21.6618 7.7835-23.3504 5.10984-25.7603 3.77303-28.6802 3.77303-32.1102 3.77303-34.3265 4.40185-36.4021 5.65952-38.337 6.91719-40.272 8.72895-41.7407 11.0948-42.7433 13.4606-43.746 16.3146-44.2472 19.6566-44.2472 25.1095-44.2472 29.2167-43.0511 31.9783-40.6588 34.7399-38.2667 36.1911-35.074 36.3317-31.0813L27.5457-30.6855C27.1764-32.9194 26.3716-34.5288 25.1314-35.5139 23.8913-36.4989 22.0313-36.9915 19.551-36.9915 17.0005-36.9915 15.0041-36.4638 13.5618-35.4084 12.6295-34.7399 12.1634-33.8429 12.1634-32.7171 12.1634-31.6792 12.6031-30.7998 13.4826-30.0786 14.5908-29.1463 17.282-28.1745 21.5563-27.163 25.8307-26.1517 28.9925-25.1051 31.0416-24.0234 33.0909-22.9415 34.6916-21.4683 35.8437-19.6039 36.9959-17.7393 37.5719-15.4263 37.5719-12.6647 37.5719-10.1845 36.8814-7.85385 35.5006-5.67273 34.1198-3.49158 32.163-1.87332 29.6301-0.817927 27.0972 0.237463 23.9398 0.765157 20.1579 0.765157 14.6523 0.765157 10.4264-0.505707 7.48008-3.04744 4.53378-5.58917 2.77041-9.29622 2.18994-14.1686M63.1386-10.0262 71.4499-8.62782C70.3945-5.58477 68.7102-3.26732 66.3972-1.67543 64.0841-0.0835517 61.2038 0.712388 57.7561 0.712388 52.2681 0.712388 48.2049-1.08177 45.5665-4.67011 43.4908-7.53724 42.453-11.152 42.453-15.5142 42.453-20.7385 43.8206-24.8324 46.5558-27.7963 49.2911-30.7601 52.7431-32.2422 56.9118-32.2422 61.6084-32.2422 65.311-30.6943 68.0199-27.5985 70.7286-24.5026 72.0215-19.7533 71.8983-13.3507L51.0016-13.3507C51.0721-10.8881 51.7492-8.96642 53.0334-7.58561 54.3174-6.20481 55.9181-5.51442 57.8353-5.51442 59.1369-5.51442 60.232-5.8706 61.1202-6.58299 62.0086-7.29537 62.6813-8.44311 63.1386-10.0262M63.6136-18.4693C63.5608-20.8791 62.9407-22.7128 61.7534-23.9705 60.5662-25.2282 59.1194-25.857 57.4132-25.857 55.6015-25.857 54.0976-25.1975 52.9013-23.8781 51.7229-22.5414 51.1425-20.7385 51.16-18.4693L63.6136-18.4693M107.333 0 98.9955 0 98.9955-16.0947C98.9955-19.4896 98.8196-21.6883 98.4678-22.6909 98.1161-23.6936 97.5355-24.4719 96.7265-25.0259 95.9173-25.5799 94.9499-25.857 93.8241-25.857 92.3817-25.857 91.0889-25.4612 89.9455-24.6698 88.8021-23.8781 88.0151-22.8271 87.5841-21.5168 87.1532-20.2062 86.9377-17.7922 86.9377-14.2741L86.9377 0 78.6002 0 78.6002-31.5298 86.3572-31.5298 86.3572-26.8861C89.1012-30.4568 92.5664-32.2422 96.7529-32.2422 98.5821-32.2422 100.258-31.9079 101.779-31.2395 103.301-30.5712 104.453-29.7225 105.235-28.6934 106.018-27.6644 106.564-26.4991 106.871-25.1975 107.179-23.8957 107.333-22.0313 107.333-19.6039L107.333 0M112.874-8.9972 121.238-10.2637C121.607-8.64539 122.333-7.41412 123.415-6.56981 124.496-5.7255 126.022-5.30334 127.992-5.30334 130.138-5.30334 131.756-5.6991 132.847-6.49064 133.586-7.05351 133.955-7.80108 133.955-8.73335 133.955-9.36659 133.753-9.88548 133.349-10.29 132.944-10.6946 132.02-11.064 130.578-11.3982 123.841-12.8757 119.576-14.2302 117.781-15.4615 115.284-17.1677 114.035-19.5335 114.035-22.559 114.035-25.2854 115.112-27.5808 117.267-29.4454 119.422-31.3099 122.768-32.2422 127.306-32.2422 131.616-32.2422 134.822-31.5386 136.924-30.1314 139.026-28.7242 140.472-26.6487 141.264-23.9047L133.375-22.4534C133.041-23.6671 132.403-24.6037 131.462-25.2633 130.521-25.9231 129.18-26.2528 127.438-26.2528 125.257-26.2528 123.692-25.945 122.742-25.3293 122.109-24.8896 121.792-24.3268 121.792-23.6407 121.792-23.0426 122.065-22.5326 122.61-22.1105 123.366-21.5651 125.965-20.7868 130.407-19.7753 134.848-18.764 137.948-17.5282 139.707-16.0683 141.449-14.5732 142.319-12.5064 142.319-9.86789 142.319-6.96557 141.114-4.47661 138.704-2.40102 136.295-0.325411 132.724 0.712388 127.992 0.712388 123.7 0.712388 120.301-0.158308 117.795-1.8997 115.288-3.64109 113.648-6.00692 112.874-8.9972M147.649-16.2002C147.649-18.9794 148.335-21.6662 149.707-24.2608 151.079-26.8552 153.014-28.8341 155.512-30.1973 158.009-31.5605 160.806-32.2422 163.902-32.2422 168.669-32.2422 172.574-30.6943 175.617-27.5985 178.66-24.5026 180.181-20.5889 180.181-15.8572 180.181-11.0904 178.643-7.13707 175.564-3.99729 172.486-0.857505 168.616 0.712388 163.955 0.712388 161.07 0.712388 158.317 0.057167 155.696-1.25328 153.075-2.56372 151.079-4.47661 149.707-6.99196 148.335-9.5073 147.649-12.5767 147.649-16.2002M156.198-15.7517C156.198-12.6383 156.941-10.2505 158.427-8.58823 159.913-6.92599 161.747-6.09488 163.928-6.09488 166.109-6.09488 167.934-6.92599 169.403-8.58823 170.872-10.2505 171.606-12.6647 171.606-15.8308 171.606-18.909 170.872-21.2793 169.403-22.9415 167.934-24.6037 166.109-25.4349 163.928-25.4349 161.747-25.4349 159.913-24.6037 158.427-22.9415 156.941-21.2793 156.198-18.8827 156.198-15.7517M194.72 0 186.382 0 186.382-31.5298 194.139-31.5298 194.139-27.0443C195.458-29.1551 196.645-30.549 197.701-31.2264 198.756-31.9035 199.962-32.2422 201.316-32.2422 203.216-32.2422 205.044-31.7145 206.804-30.6591L204.219-23.4033C202.81-24.3003 201.508-24.749 200.313-24.749 199.134-24.749 198.141-24.4278 197.331-23.7858 196.522-23.1438 195.885-21.9828 195.419-20.303 194.953-18.6231 194.72-15.1009 194.72-9.73597L194.72 0M227.331 0 227.331-43.5084 241.421-43.5084C246.767-43.5084 250.251-43.2973 251.868-42.8751 254.366-42.2068 256.455-40.7819 258.135-38.6009 259.815-36.4197 260.654-33.5965 260.654-30.1314 260.654-27.4577 260.171-25.2106 259.204-23.3901 258.236-21.5695 257.005-20.1404 255.511-19.1025 254.014-18.0647 252.493-17.3788 250.945-17.0446 248.852-16.6224 245.818-16.4113 241.843-16.4113L236.117-16.4113 236.117 0 227.331 0M236.117-36.1472 236.117-23.7991 240.919-23.7991C244.384-23.7991 246.701-24.0278 247.871-24.485 249.041-24.9423 249.955-25.6547 250.615-26.6222 251.276-27.5896 251.605-28.7154 251.605-29.9994 251.605-31.5825 251.139-32.8886 250.207-33.9175 249.274-34.9466 248.096-35.593 246.671-35.8569 245.634-36.0504 243.531-36.1472 240.365-36.1472L236.117-36.1472M276.09-43.5084 276.09-27.5193C278.781-30.6679 282-32.2422 285.747-32.2422 287.664-32.2422 289.396-31.8859 290.945-31.1735 292.493-30.4612 293.658-29.5509 294.44-28.4428 295.224-27.3346 295.756-26.1076 296.038-24.7621 296.318-23.4165 296.46-21.3276 296.46-18.4957L296.46 0 288.121 0 288.121-16.6488C288.121-19.9556 287.963-22.0532 287.647-22.9415 287.329-23.8298 286.772-24.5379 285.972-25.0656 285.171-25.5933 284.163-25.857 282.951-25.857 281.578-25.857 280.347-25.5185 279.256-24.8412 278.165-24.164 277.365-23.1481 276.855-21.7939 276.345-20.4394 276.09-18.443 276.09-15.8045L276.09 0 267.753 0 267.753-43.5084 276.09-43.5084M311.181-21.8994 303.609-23.2714C304.454-26.3143 305.913-28.5703 307.99-30.0391 310.065-31.5078 313.152-32.2422 317.25-32.2422 320.978-32.2422 323.755-31.8023 325.575-30.9229 327.395-30.0435 328.675-28.9264 329.413-27.572 330.153-26.2176 330.521-23.7287 330.521-20.1052L330.443-10.3692C330.443-7.59 330.575-5.54518 330.838-4.23475 331.102-2.92431 331.603-1.51272 332.343 0L324.084 0C323.873-0.562874 323.609-1.3808 323.292-2.45379 323.152-2.96389 323.045-3.2981 322.976-3.45641 321.551-2.06681 320.029-1.02461 318.412-0.32981 316.792 0.364989 315.06 0.712388 313.212 0.712388 309.977 0.712388 307.422-0.167103 305.548-1.92609 303.675-3.68506 302.738-5.91018 302.738-8.60142 302.738-10.3956 303.165-11.9875 304.018-13.3771 304.871-14.7667 306.063-15.8352 307.593-16.5828 309.124-17.3303 311.34-17.9767 314.243-18.5222 318.13-19.2609 320.83-19.9469 322.343-20.5801L322.343-21.3981C322.343-22.9987 321.946-24.1421 321.156-24.828 320.364-25.5141 318.868-25.857 316.669-25.857 315.175-25.857 314.013-25.5668 313.187-24.9864 312.36-24.4058 311.691-23.377 311.181-21.8994M322.343-15.1448C321.269-14.793 319.577-14.3665 317.264-13.8652 314.95-13.3639 313.434-12.8757 312.713-12.4008 311.622-11.6269 311.076-10.6506 311.076-9.47213 311.076-8.3112 311.512-7.30417 312.382-6.45106 313.253-5.59795 314.366-5.17141 315.72-5.17141 317.215-5.17141 318.648-5.66393 320.021-6.64895 321.022-7.40532 321.683-8.32878 322-9.41936 322.228-10.1229 322.343-11.4774 322.343-13.4826L322.343-15.1448M335.773-8.9972 344.136-10.2637C344.506-8.64539 345.23-7.41412 346.313-6.56981 347.395-5.7255 348.92-5.30334 350.891-5.30334 353.037-5.30334 354.655-5.6991 355.746-6.49064 356.483-7.05351 356.853-7.80108 356.853-8.73335 356.853-9.36659 356.651-9.88548 356.247-10.29 355.842-10.6946 354.918-11.064 353.476-11.3982 346.74-12.8757 342.475-14.2302 340.68-15.4615 338.182-17.1677 336.933-19.5335 336.933-22.559 336.933-25.2854 338.01-27.5808 340.165-29.4454 342.319-31.3099 345.666-32.2422 350.205-32.2422 354.515-32.2422 357.72-31.5386 359.822-30.1314 361.924-28.7242 363.371-26.6487 364.162-23.9047L356.272-22.4534C355.938-23.6671 355.301-24.6037 354.361-25.2633 353.419-25.9231 352.078-26.2528 350.337-26.2528 348.155-26.2528 346.59-25.945 345.641-25.3293 345.008-24.8896 344.69-24.3268 344.69-23.6407 344.69-23.0426 344.962-22.5326 345.507-22.1105 346.264-21.5651 348.863-20.7868 353.306-19.7753 357.747-18.764 360.847-17.5282 362.605-16.0683 364.347-14.5732 365.217-12.5064 365.217-9.86789 365.217-6.96557 364.013-4.47661 361.603-2.40102 359.194-0.325411 355.622 0.712388 350.891 0.712388 346.598 0.712388 343.199-0.158308 340.693-1.8997 338.186-3.64109 336.546-6.00692 335.773-8.9972M390.732-10.0262 399.044-8.62782C397.988-5.58477 396.303-3.26732 393.99-1.67543 391.678-0.0835517 388.797 0.712388 385.349 0.712388 379.861 0.712388 375.798-1.08177 373.159-4.67011 371.083-7.53724 370.047-11.152 370.047-15.5142 370.047-20.7385 371.414-24.8324 374.148-27.7963 376.884-30.7601 380.335-32.2422 384.504-32.2422 389.201-32.2422 392.904-30.6943 395.612-27.5985 398.321-24.5026 399.614-19.7533 399.491-13.3507L378.594-13.3507C378.665-10.8881 379.342-8.96642 380.626-7.58561 381.911-6.20481 383.512-5.51442 385.428-5.51442 386.73-5.51442 387.824-5.8706 388.713-6.58299 389.601-7.29537 390.275-8.44311 390.732-10.0262M391.207-18.4693C391.154-20.8791 390.533-22.7128 389.346-23.9705 388.159-25.2282 386.712-25.857 385.006-25.857 383.194-25.857 381.69-25.1975 380.494-23.8781 379.315-22.5414 378.734-20.7385 378.753-18.4693L391.207-18.4693M421.073-11.5565 429.148-12.5328C429.393-10.4747 430.084-8.90044 431.219-7.80988 432.353-6.71932 433.721-6.17403 435.322-6.17403 437.046-6.17403 438.491-6.82925 439.662-8.13969 440.832-9.45012 441.416-11.2135 441.416-13.4298 441.416-15.523 440.854-17.1809 439.728-18.4033 438.603-19.6259 437.23-20.2371 435.612-20.2371 434.538-20.2371 433.263-20.0348 431.786-19.6302L432.71-26.4111C434.961-26.3584 436.681-26.8508 437.868-27.8886 439.055-28.9264 439.648-30.3072 439.648-32.0311 439.648-33.491 439.214-34.6563 438.343-35.5271 437.472-36.3978 436.315-36.8331 434.873-36.8331 433.449-36.8331 432.23-36.3405 431.219-35.3555 430.207-34.3706 429.596-32.9281 429.385-31.0284L421.681-32.3213C422.227-34.9597 423.035-37.0661 424.108-38.6404 425.182-40.2147 426.685-41.4505 428.62-42.3475 430.555-43.2446 432.718-43.6931 435.111-43.6931 439.209-43.6931 442.49-42.3915 444.952-39.7882 446.992-37.6423 448.014-35.2237 448.014-32.5323 448.014-28.7154 445.928-25.6723 441.759-23.4033 444.258-22.858 446.249-21.6574 447.735-19.8018 449.223-17.946 449.966-15.6989 449.966-13.0605 449.966-9.24345 448.571-5.98934 445.783-3.2981 442.995-0.606849 439.525 0.738773 435.374 0.738773 431.435 0.738773 428.167-0.395771 425.572-2.66487 422.978-4.93395 421.479-7.89782 421.073-11.5565" fill="#D9D9D9" fill-rule="evenodd" transform="matrix(1 0 0 1.00016 3577.92 1325.08)"/><path d="M273.557 1058.77 279.562 1058.77 285.565 1058.77 291.569 1058.77 297.572 1058.77 303.577 1058.77 309.58 1058.77 315.585 1058.77 321.588 1058.77 327.593 1058.77 333.598 1058.77 339.601 1058.77 345.605 1058.77 351.608 1058.77 357.613 1058.77 363.616 1058.77 369.621 1058.77 375.624 1058.77 381.629 1058.77 387.634 1058.77 393.637 1058.77 399.641 1058.77 405.644 1058.77 411.649 1058.77 417.652 1058.77 423.657 1058.77 429.66 1058.77 435.665 1058.77 441.669 1058.77 447.672 1058.77 453.677 1058.77 459.68 1058.77 465.685 1058.76 471.688 1058.75 477.693 1058.72 483.696 1058.63 489.701 1058.4 495.705 1057.85 501.708 1056.65 507.713 1054.23 513.716 1049.69 519.721 1041.74 525.724 1028.7 531.729 1008.68 537.732 979.778 543.737 940.56 549.741 890.509 555.744 830.449 561.749 762.754 567.752 691.226 573.757 620.599 579.76 555.783 585.765 501.048 591.768 459.172 597.772 431.137 603.777 416.124 609.78 412.036 615.785 416.328 621.788 426.582 627.793 440.989 633.796 458.606 639.801 479.199 645.804 502.912 651.808 529.993 657.813 560.434 663.816 593.818 669.821 629.294 675.824 665.667 681.829 701.581 687.832 735.694 693.837 766.846 699.84 794.151 705.844 817.03 711.849 835.135 717.852 848.337 723.857 856.557 729.86 859.631 735.865 857.287 741.868 849.11 747.872 834.565 753.876 813.08 759.88 784.272 765.885 748.031 771.888 704.644 777.893 654.86 783.896 599.814 789.901 541.08 795.904 480.666 801.908 420.874 807.911 364.06 813.916 312.365 819.921 267.659 825.924 231.343 831.929 204.303 837.932 186.961 843.937 179.148 849.94 180.345 855.944 189.725 861.947 206.274 867.952 229.003 873.957 256.829 879.96 288.733 885.965 323.763 891.968 361.065 897.972 399.842 903.976 439.31 909.98 478.757 915.983 517.431 921.988 554.53 927.993 589.388 933.996 621.43 940.001 650.181 946.004 675.333 952.008 696.643 958.011 713.892 964.016 726.974 970.019 735.851 976.024 740.544 982.029 740.991 988.032 737.187 994.036 729.237 1000.04 717.244 1006.04 701.462 1012.05 682.146 1018.05 659.686 1024.06 634.674 1030.06 607.762 1036.06 579.834 1042.07 551.781 1048.07 524.495 1054.08 498.843 1060.08 475.565 1066.08 455.411 1072.09 438.985 1078.09 426.703 1084.1 418.876 1090.1 415.67 1096.1 417.044 1102.11 422.779 1108.11 432.576 1114.12 446.062 1120.12 462.845 1126.12 482.429 1132.13 504.251 1138.13 527.776 1144.14 552.502 1150.14 578.021 1156.14 603.904 1162.15 629.736 1168.15 654.931 1174.16 683.193 1180.16 720.211 1186.16 745.569 1192.17 764.443 1198.17 783.553 1204.18 800.213 1210.18 820.682 1216.18 847.111 1222.19 865.222 1228.19 865.222 1234.2 873.766 1240.2 894.967 1246.2 907.623 1252.21 907.623 1258.21 915.921 1264.22 932.807 1270.22 941.395 1276.22 941.395 1282.23 949.136 1288.23 962.488 1294.23 968.098 1300.24 968.098 1306.24 975.09 1312.25 985.556 1318.25 989.03 1324.26 989.03 1330.26 995.178 1336.26 1003.31 1342.27 1005.29 1348.27 1005.29 1354.28 1005.29" stroke="#268CDD" stroke-width="4.503" stroke-linejoin="round" fill="none" fill-rule="evenodd" transform="matrix(1 0 0 1.00016 2990.28 1259)"/><path d="M621.038 412.036C621.038 405.818 615.998 400.778 609.78 400.778 603.563 400.778 598.522 405.818 598.522 412.036 598.522 418.252 603.563 423.292 609.78 423.292 615.998 423.292 621.038 418.252 621.038 412.036" stroke="#FFFFFF" stroke-width="4.503" stroke-miterlimit="2" fill="none" fill-rule="evenodd" transform="matrix(1 0 0 1.00016 2990.28 1259)"/><path d="M855.193 179.148C855.193 172.93 850.154 167.89 843.937 167.89 837.719 167.89 832.678 172.93 832.678 179.148 832.678 185.365 837.719 190.406 843.937 190.406 850.154 190.406 855.193 185.365 855.193 179.148" stroke="#FFFFFF" stroke-width="4.503" stroke-miterlimit="2" fill="none" fill-rule="evenodd" transform="matrix(1 0 0 1.00016 2990.28 1259)"/><path d="M1101.36 418.876C1101.36 412.659 1096.32 407.618 1090.1 407.618 1083.88 407.618 1078.84 412.659 1078.84 418.876 1078.84 425.094 1083.88 430.134 1090.1 430.134 1096.32 430.134 1101.36 425.094 1101.36 418.876" stroke="#FFFFFF" stroke-width="4.503" stroke-miterlimit="2" fill="none" fill-rule="evenodd" transform="matrix(1 0 0 1.00016 2990.28 1259)"/><path d="M3628.25 1641.14 3789.01 1641.14 3789.01 1646.86 3628.25 1646.86ZM3632.83 1666.92 3587 1644 3632.83 1621.08ZM3784.42 1621.08 3830.26 1644 3784.42 1666.92Z" fill="#FFFFFF"/><text fill="#FFFFFF" font-family="Aptos,Aptos_MSFontService,sans-serif" font-weight="400" font-size="83" transform="matrix(1 0 0 1 3601.7 1583)">20</text><text fill="#FFFFFF" font-family="Aptos,Aptos_MSFontService,sans-serif" font-weight="400" font-size="83" transform="matrix(1 0 0 1 3706.55 1583)">s</text><path d="M3871.25 1641.14 4070.02 1641.14 4070.02 1646.86 3871.25 1646.86ZM3875.83 1666.92 3830 1644 3875.83 1621.08ZM4065.44 1621.08 4111.27 1644 4065.44 1666.92Z" fill="#FFFFFF"/><text fill="#FFFFFF" font-family="Aptos,Aptos_MSFontService,sans-serif" font-weight="400" font-size="83" transform="matrix(1 0 0 1 3887.08 1586)">1</text><text fill="#FFFFFF" font-family="Aptos,Aptos_MSFontService,sans-serif" font-weight="400" font-size="83" transform="matrix(1 0 0 1 3931.19 1586)">9</text><text fill="#FFFFFF" font-family="Aptos,Aptos_MSFontService,sans-serif" font-weight="400" font-size="83" transform="matrix(1 0 0 1 3975.31 1586)">.</text><text fill="#FFFFFF" font-family="Aptos,Aptos_MSFontService,sans-serif" font-weight="400" font-size="83" transform="matrix(1 0 0 1 3998.8 1586)">5</text><text fill="#FFFFFF" font-family="Aptos,Aptos_MSFontService,sans-serif" font-weight="400" font-size="83" transform="matrix(1 0 0 1 4059.53 1586)">s</text></g></svg>