  0
SECTION
  2
HEADER
  9
$EXTMIN
 10
-10.697
 20
-7.608
  9
$EXTMAX
 10
24.95
 20
11.692
  9
$INSUNITS
 70
13
  0
ENDSEC
  0
SECTION
  2
TABLES
  0
TABLE
  2
LAYER
 70
   1
  0
LAYER
  2
1
 70
    0
 62
    91
  6
CONTINUOUS
  0
ENDTAB
  0
ENDSEC
  0
SECTION
  2
BLOCKS
  0
ENDSEC
  0
SECTION
  2
ENTITIES
  0
TEXT
100
AcDbText
  8
1
 10
-10.697
 20
11.692
 11
-10.697
 21
11.692
 30
   0
 40
-0.016
  1
Generated with the LayoutEditor (This message will NOT be added by any commercial version of the LayoutEditor.)
 50
0
 72
0
 73
3
  0
POLYLINE
100
AcDb2dPolyline
  8
1
 66
   1
 70
   1
 40
0.0
 41
0.0
  0
VERTEX
100
AcDbVertex
100
AcDb2dVertex
  8
1
 10
7.57
 20
9.962
  0
VERTEX
100
AcDbVertex
100
AcDb2dVertex
  8
1
 10
13.916
 20
0.8
  0
VERTEX
100
AcDbVertex
100
AcDb2dVertex
  8
1
 10
13.124
 20
0.8
  0
VERTEX
100
AcDbVertex
100
AcDb2dVertex
  8
1
 10
13.124
 20
1.136
  0
VERTEX
100
AcDbVertex
100
AcDb2dVertex
  8
1
 10
9.593
 20
1.136
  0
VERTEX
100
AcDbVertex
100
AcDb2dVertex
  8
1
 10
9.593
 20
1.263
  0
VERTEX
100
AcDbVertex
100
AcDb2dVertex
  8
1
 10
11.358
 20
1.263
  0
VERTEX
100
AcDbVertex
100
AcDb2dVertex
  8
1
 10
11.358
 20
1.516
  0
VERTEX
100
AcDbVertex
100
AcDb2dVertex
  8
1
 10
9.973
 20
1.516
  0
VERTEX
100
AcDbVertex
100
AcDb2dVertex
  8
1
 10
9.973
 20
5.085
  0
VERTEX
100
AcDbVertex
100
AcDb2dVertex
  8
1
 10
8.208
 20
5.085
  0
VERTEX
100
AcDbVertex
100
AcDb2dVertex
  8
1
 10
8.446
 20
5.792
  0
VERTEX
100
AcDbVertex
100
AcDb2dVertex
  8
1
 10
8.237
 20
6.824
  0
VERTEX
100
AcDbVertex
100
AcDb2dVertex
  8
1
 10
8.28
 20
6.88
  0
VERTEX
100
AcDbVertex
100
AcDb2dVertex
  8
1
 10
8.317
 20
6.938
  0
VERTEX
100
AcDbVertex
100
AcDb2dVertex
  8
1
 10
8.349
 20
7.001
  0
VERTEX
100
AcDbVertex
100
AcDb2dVertex
  8
1
 10
8.375
 20
7.065
  0
VERTEX
100
AcDbVertex
100
AcDb2dVertex
  8
1
 10
8.396
 20
7.132
  0
VERTEX
100
AcDbVertex
100
AcDb2dVertex
  8
1
 10
8.411
 20
7.2
  0
VERTEX
100
AcDbVertex
100
AcDb2dVertex
  8
1
 10
8.421
 20
7.269
  0
VERTEX
100
AcDbVertex
100
AcDb2dVertex
  8
1
 10
8.423
 20
7.339
  0
VERTEX
100
AcDbVertex
100
AcDb2dVertex
  8
1
 10
8.42
 20
7.409
  0
VERTEX
100
AcDbVertex
100
AcDb2dVertex
  8
1
 10
8.411
 20
7.477
  0
VERTEX
100
AcDbVertex
100
AcDb2dVertex
  8
1
 10
8.395
 20
7.546
  0
VERTEX
100
AcDbVertex
100
AcDb2dVertex
  8
1
 10
8.375
 20
7.612
  0
VERTEX
100
AcDbVertex
100
AcDb2dVertex
  8
1
 10
8.348
 20
7.677
  0
VERTEX
100
AcDbVertex
100
AcDb2dVertex
  8
1
 10
8.316
 20
7.739
  0
VERTEX
100
AcDbVertex
100
AcDb2dVertex
  8
1
 10
8.311
 20
7.746
  0
VERTEX
100
AcDbVertex
100
AcDb2dVertex
  8
1
 10
8.273
 20
7.804
  0
VERTEX
100
AcDbVertex
100
AcDb2dVertex
  8
1
 10
8.229
 20
7.859
  0
VERTEX
100
AcDbVertex
100
AcDb2dVertex
  8
1
 10
8.182
 20
7.91
  0
VERTEX
100
AcDbVertex
100
AcDb2dVertex
  8
1
 10
8.13
 20
7.956
  0
VERTEX
100
AcDbVertex
100
AcDb2dVertex
  8
1
 10
8.074
 20
7.998
  0
VERTEX
100
AcDbVertex
100
AcDb2dVertex
  8
1
 10
8.014
 20
8.035
  0
VERTEX
100
AcDbVertex
100
AcDb2dVertex
  8
1
 10
7.952
 20
8.066
  0
VERTEX
100
AcDbVertex
100
AcDb2dVertex
  8
1
 10
7.887
 20
8.092
  0
VERTEX
100
AcDbVertex
100
AcDb2dVertex
  8
1
 10
7.82
 20
8.112
  0
VERTEX
100
AcDbVertex
100
AcDb2dVertex
  8
1
 10
7.752
 20
8.127
  0
VERTEX
100
AcDbVertex
100
AcDb2dVertex
  8
1
 10
7.683
 20
8.134
  0
VERTEX
100
AcDbVertex
100
AcDb2dVertex
  8
1
 10
7.613
 20
8.136
  0
VERTEX
100
AcDbVertex
100
AcDb2dVertex
  8
1
 10
7.543
 20
8.132
  0
VERTEX
100
AcDbVertex
100
AcDb2dVertex
  8
1
 10
7.474
 20
8.123
  0
VERTEX
100
AcDbVertex
100
AcDb2dVertex
  8
1
 10
7.465
 20
8.121
  0
VERTEX
100
AcDbVertex
100
AcDb2dVertex
  8
1
 10
7.397
 20
8.104
  0
VERTEX
100
AcDbVertex
100
AcDb2dVertex
  8
1
 10
7.331
 20
8.081
  0
VERTEX
100
AcDbVertex
100
AcDb2dVertex
  8
1
 10
7.268
 20
8.053
  0
VERTEX
100
AcDbVertex
100
AcDb2dVertex
  8
1
 10
7.206
 20
8.019
  0
VERTEX
100
AcDbVertex
100
AcDb2dVertex
  8
1
 10
7.149
 20
7.98
  0
VERTEX
100
AcDbVertex
100
AcDb2dVertex
  8
1
 10
7.094
 20
7.937
  0
VERTEX
100
AcDbVertex
100
AcDb2dVertex
  8
1
 10
7.044
 20
7.889
  0
VERTEX
100
AcDbVertex
100
AcDb2dVertex
  8
1
 10
6.998
 20
7.836
  0
VERTEX
100
AcDbVertex
100
AcDb2dVertex
  8
1
 10
6.957
 20
7.779
  0
VERTEX
100
AcDbVertex
100
AcDb2dVertex
  8
1
 10
6.921
 20
7.72
  0
VERTEX
100
AcDbVertex
100
AcDb2dVertex
  8
1
 10
6.891
 20
7.657
  0
VERTEX
100
AcDbVertex
100
AcDb2dVertex
  8
1
 10
6.865
 20
7.592
  0
VERTEX
100
AcDbVertex
100
AcDb2dVertex
  8
1
 10
6.846
 20
7.525
  0
VERTEX
100
AcDbVertex
100
AcDb2dVertex
  8
1
 10
6.832
 20
7.456
  0
VERTEX
100
AcDbVertex
100
AcDb2dVertex
  8
1
 10
6.831
 20
7.447
  0
VERTEX
100
AcDbVertex
100
AcDb2dVertex
  8
1
 10
6.825
 20
7.377
  0
VERTEX
100
AcDbVertex
100
AcDb2dVertex
  8
1
 10
6.823
 20
7.308
  0
VERTEX
100
AcDbVertex
100
AcDb2dVertex
  8
1
 10
6.829
 20
7.238
  0
VERTEX
100
AcDbVertex
100
AcDb2dVertex
  8
1
 10
6.841
 20
7.169
  0
VERTEX
100
AcDbVertex
100
AcDb2dVertex
  8
1
 10
6.859
 20
7.103
  0
VERTEX
100
AcDbVertex
100
AcDb2dVertex
  8
1
 10
6.882
 20
7.037
  0
VERTEX
100
AcDbVertex
100
AcDb2dVertex
  8
1
 10
6.911
 20
6.973
  0
VERTEX
100
AcDbVertex
100
AcDb2dVertex
  8
1
 10
6.945
 20
6.912
  0
VERTEX
100
AcDbVertex
100
AcDb2dVertex
  8
1
 10
6.985
 20
6.855
  0
VERTEX
100
AcDbVertex
100
AcDb2dVertex
  8
1
 10
7.03
 20
6.801
  0
VERTEX
100
AcDbVertex
100
AcDb2dVertex
  8
1
 10
7.079
 20
6.751
  0
VERTEX
100
AcDbVertex
100
AcDb2dVertex
  8
1
 10
7.132
 20
6.707
  0
VERTEX
100
AcDbVertex
100
AcDb2dVertex
  8
1
 10
7.189
 20
6.666
  0
VERTEX
100
AcDbVertex
100
AcDb2dVertex
  8
1
 10
7.248
 20
6.63
  0
VERTEX
100
AcDbVertex
100
AcDb2dVertex
  8
1
 10
7.257
 20
6.626
  0
VERTEX
100
AcDbVertex
100
AcDb2dVertex
  8
1
 10
7.466
 20
5.594
  0
VERTEX
100
AcDbVertex
100
AcDb2dVertex
  8
1
 10
8.138
 20
5.085
  0
VERTEX
100
AcDbVertex
100
AcDb2dVertex
  8
1
 10
6.373
 20
5.085
  0
VERTEX
100
AcDbVertex
100
AcDb2dVertex
  8
1
 10
6.373
 20
1.485
  0
VERTEX
100
AcDbVertex
100
AcDb2dVertex
  8
1
 10
9.973
 20
1.453
  0
VERTEX
100
AcDbVertex
100
AcDb2dVertex
  8
1
 10
11.295
 20
1.453
  0
VERTEX
100
AcDbVertex
100
AcDb2dVertex
  8
1
 10
11.295
 20
1.326
  0
VERTEX
100
AcDbVertex
100
AcDb2dVertex
  8
1
 10
9.529
 20
1.326
  0
VERTEX
100
AcDbVertex
100
AcDb2dVertex
  8
1
 10
9.529
 20
1.073
  0
VERTEX
100
AcDbVertex
100
AcDb2dVertex
  8
1
 10
12.924
 20
1.073
  0
VERTEX
100
AcDbVertex
100
AcDb2dVertex
  8
1
 10
12.924
 20
1
  0
VERTEX
100
AcDbVertex
100
AcDb2dVertex
  8
1
 10
1.467
 20
1
  0
VERTEX
100
AcDbVertex
100
AcDb2dVertex
  8
1
 10
1.467
 20
-0.001
  0
VERTEX
100
AcDbVertex
100
AcDb2dVertex
  8
1
 10
13.674
 20
-0.001
  0
VERTEX
100
AcDbVertex
100
AcDb2dVertex
  8
1
 10
7.57
 20
-6.096
  0
VERTEX
100
AcDbVertex
100
AcDb2dVertex
  8
1
 10
1.467
 20
-0.001
  0
VERTEX
100
AcDbVertex
100
AcDb2dVertex
  8
1
 10
1.467
 20
1
  0
VERTEX
100
AcDbVertex
100
AcDb2dVertex
  8
1
 10
1.225
 20
1
  0
VERTEX
100
AcDbVertex
100
AcDb2dVertex
  8
1
 10
7.57
 20
9.962
  0
VERTEX
100
AcDbVertex
100
AcDb2dVertex
  8
1
 10
7.57
 20
11.692
  0
VERTEX
100
AcDbVertex
100
AcDb2dVertex
  8
1
 10
0
 20
1
  0
VERTEX
100
AcDbVertex
100
AcDb2dVertex
  8
1
 10
-1.063
 20
0.567
  0
VERTEX
100
AcDbVertex
100
AcDb2dVertex
  8
1
 10
-1.296
 20
0.567
  0
VERTEX
100
AcDbVertex
100
AcDb2dVertex
  8
1
 10
-1.496
 20
0.767
  0
VERTEX
100
AcDbVertex
100
AcDb2dVertex
  8
1
 10
-1.696
 20
0.567
  0
VERTEX
100
AcDbVertex
100
AcDb2dVertex
  8
1
 10
-1.896
 20
0.767
  0
VERTEX
100
AcDbVertex
100
AcDb2dVertex
  8
1
 10
-2.096
 20
0.567
  0
VERTEX
100
AcDbVertex
100
AcDb2dVertex
  8
1
 10
-2.296
 20
0.767
  0
VERTEX
100
AcDbVertex
100
AcDb2dVertex
  8
1
 10
-2.496
 20
0.567
  0
VERTEX
100
AcDbVertex
100
AcDb2dVertex
  8
1
 10
-2.696
 20
0.767
  0
VERTEX
100
AcDbVertex
100
AcDb2dVertex
  8
1
 10
-2.896
 20
0.567
  0
VERTEX
100
AcDbVertex
100
AcDb2dVertex
  8
1
 10
-3.096
 20
0.767
  0
VERTEX
100
AcDbVertex
100
AcDb2dVertex
  8
1
 10
-3.296
 20
0.567
  0
VERTEX
100
AcDbVertex
100
AcDb2dVertex
  8
1
 10
-3.496
 20
0.767
  0
VERTEX
100
AcDbVertex
100
AcDb2dVertex
  8
1
 10
-3.696
 20
0.567
  0
VERTEX
100
AcDbVertex
100
AcDb2dVertex
  8
1
 10
-3.974
 20
0.846
  0
VERTEX
100
AcDbVertex
100
AcDb2dVertex
  8
1
 10
-3.72
 20
1.1
  0
VERTEX
100
AcDbVertex
100
AcDb2dVertex
  8
1
 10
-3.52
 20
0.9
  0
VERTEX
100
AcDbVertex
100
AcDb2dVertex
  8
1
 10
-3.32
 20
1.1
  0
VERTEX
100
AcDbVertex
100
AcDb2dVertex
  8
1
 10
-3.12
 20
0.9
  0
VERTEX
100
AcDbVertex
100
AcDb2dVertex
  8
1
 10
-2.92
 20
1.1
  0
VERTEX
100
AcDbVertex
100
AcDb2dVertex
  8
1
 10
-2.72
 20
0.9
  0
VERTEX
100
AcDbVertex
100
AcDb2dVertex
  8
1
 10
-2.52
 20
1.1
  0
VERTEX
100
AcDbVertex
100
AcDb2dVertex
  8
1
 10
-2.32
 20
0.9
  0
VERTEX
100
AcDbVertex
100
AcDb2dVertex
  8
1
 10
-2.12
 20
1.1
  0
VERTEX
100
AcDbVertex
100
AcDb2dVertex
  8
1
 10
-1.92
 20
0.9
  0
VERTEX
100
AcDbVertex
100
AcDb2dVertex
  8
1
 10
-1.72
 20
1.1
  0
VERTEX
100
AcDbVertex
100
AcDb2dVertex
  8
1
 10
-1.52
 20
0.9
  0
VERTEX
100
AcDbVertex
100
AcDb2dVertex
  8
1
 10
-1.32
 20
1.1
  0
VERTEX
100
AcDbVertex
100
AcDb2dVertex
  8
1
 10
-1.12
 20
0.9
  0
VERTEX
100
AcDbVertex
100
AcDb2dVertex
  8
1
 10
-0.82
 20
1.218
  0
VERTEX
100
AcDbVertex
100
AcDb2dVertex
  8
1
 10
-1.26
 20
1.675
  0
VERTEX
100
AcDbVertex
100
AcDb2dVertex
  8
1
 10
-1.46
 20
1.475
  0
VERTEX
100
AcDbVertex
100
AcDb2dVertex
  8
1
 10
-1.66
 20
1.675
  0
VERTEX
100
AcDbVertex
100
AcDb2dVertex
  8
1
 10
-1.86
 20
1.475
  0
VERTEX
100
AcDbVertex
100
AcDb2dVertex
  8
1
 10
-2.06
 20
1.675
  0
VERTEX
100
AcDbVertex
100
AcDb2dVertex
  8
1
 10
-2.26
 20
1.475
  0
VERTEX
100
AcDbVertex
100
AcDb2dVertex
  8
1
 10
-2.46
 20
1.675
  0
VERTEX
100
AcDbVertex
100
AcDb2dVertex
  8
1
 10
-2.66
 20
1.475
  0
VERTEX
100
AcDbVertex
100
AcDb2dVertex
  8
1
 10
-2.86
 20
1.675
  0
VERTEX
100
AcDbVertex
100
AcDb2dVertex
  8
1
 10
-3.06
 20
1.475
  0
VERTEX
100
AcDbVertex
100
AcDb2dVertex
  8
1
 10
-3.26
 20
1.675
  0
VERTEX
100
AcDbVertex
100
AcDb2dVertex
  8
1
 10
-3.46
 20
1.475
  0
VERTEX
100
AcDbVertex
100
AcDb2dVertex
  8
1
 10
-3.66
 20
1.675
  0
VERTEX
100
AcDbVertex
100
AcDb2dVertex
  8
1
 10
-3.86
 20
1.475
  0
VERTEX
100
AcDbVertex
100
AcDb2dVertex
  8
1
 10
-4.673
 20
1.952
  0
VERTEX
100
AcDbVertex
100
AcDb2dVertex
  8
1
 10
-5.673
 20
1.952
  0
VERTEX
100
AcDbVertex
100
AcDb2dVertex
  8
1
 10
-5.653
 20
4.415
  0
VERTEX
100
AcDbVertex
100
AcDb2dVertex
  8
1
 10
-5.6
 20
4.461
  0
VERTEX
100
AcDbVertex
100
AcDb2dVertex
  8
1
 10
-5.552
 20
4.511
  0
VERTEX
100
AcDbVertex
100
AcDb2dVertex
  8
1
 10
-5.508
 20
4.566
  0
VERTEX
100
AcDbVertex
100
AcDb2dVertex
  8
1
 10
-5.469
 20
4.624
  0
VERTEX
100
AcDbVertex
100
AcDb2dVertex
  8
1
 10
-5.436
 20
4.685
  0
VERTEX
100
AcDbVertex
100
AcDb2dVertex
  8
1
 10
-5.408
 20
4.749
  0
VERTEX
100
AcDbVertex
100
AcDb2dVertex
  8
1
 10
-5.385
 20
4.815
  0
VERTEX
100
AcDbVertex
100
AcDb2dVertex
  8
1
 10
-5.368
 20
4.883
  0
VERTEX
100
AcDbVertex
100
AcDb2dVertex
  8
1
 10
-5.358
 20
4.952
  0
VERTEX
100
AcDbVertex
100
AcDb2dVertex
  8
1
 10
-5.353
 20
5.021
  0
VERTEX
100
AcDbVertex
100
AcDb2dVertex
  8
1
 10
-5.354
 20
5.09
  0
VERTEX
100
AcDbVertex
100
AcDb2dVertex
  8
1
 10
-5.362
 20
5.16
  0
VERTEX
100
AcDbVertex
100
AcDb2dVertex
  8
1
 10
-5.375
 20
5.229
  0
VERTEX
100
AcDbVertex
100
AcDb2dVertex
  8
1
 10
-5.398
 20
5.305
  0
VERTEX
100
AcDbVertex
100
AcDb2dVertex
  8
1
 10
-5.424
 20
5.37
  0
VERTEX
100
AcDbVertex
100
AcDb2dVertex
  8
1
 10
-5.455
 20
5.432
  0
VERTEX
100
AcDbVertex
100
AcDb2dVertex
  8
1
 10
-5.492
 20
5.491
  0
VERTEX
100
AcDbVertex
100
AcDb2dVertex
  8
1
 10
-5.534
 20
5.547
  0
VERTEX
100
AcDbVertex
100
AcDb2dVertex
  8
1
 10
-5.58
 20
5.598
  0
VERTEX
100
AcDbVertex
100
AcDb2dVertex
  8
1
 10
-5.631
 20
5.646
  0
VERTEX
100
AcDbVertex
100
AcDb2dVertex
  8
1
 10
-5.686
 20
5.69
  0
VERTEX
100
AcDbVertex
100
AcDb2dVertex
  8
1
 10
-5.745
 20
5.728
  0
VERTEX
100
AcDbVertex
100
AcDb2dVertex
  8
1
 10
-5.806
 20
5.761
  0
VERTEX
100
AcDbVertex
100
AcDb2dVertex
  8
1
 10
-5.87
 20
5.787
  0
VERTEX
100
AcDbVertex
100
AcDb2dVertex
  8
1
 10
-5.936
 20
5.81
  0
VERTEX
100
AcDbVertex
100
AcDb2dVertex
  8
1
 10
-6.004
 20
5.826
  0
VERTEX
100
AcDbVertex
100
AcDb2dVertex
  8
1
 10
-6.073
 20
5.836
  0
VERTEX
100
AcDbVertex
100
AcDb2dVertex
  8
1
 10
-6.143
 20
5.84
  0
VERTEX
100
AcDbVertex
100
AcDb2dVertex
  8
1
 10
-6.153
 20
5.84
  0
VERTEX
100
AcDbVertex
100
AcDb2dVertex
  8
1
 10
-6.223
 20
5.837
  0
VERTEX
100
AcDbVertex
100
AcDb2dVertex
  8
1
 10
-6.292
 20
5.828
  0
VERTEX
100
AcDbVertex
100
AcDb2dVertex
  8
1
 10
-6.36
 20
5.813
  0
VERTEX
100
AcDbVertex
100
AcDb2dVertex
  8
1
 10
-6.427
 20
5.792
  0
VERTEX
100
AcDbVertex
100
AcDb2dVertex
  8
1
 10
-6.491
 20
5.765
  0
VERTEX
100
AcDbVertex
100
AcDb2dVertex
  8
1
 10
-6.553
 20
5.733
  0
VERTEX
100
AcDbVertex
100
AcDb2dVertex
  8
1
 10
-6.612
 20
5.695
  0
VERTEX
100
AcDbVertex
100
AcDb2dVertex
  8
1
 10
-6.667
 20
5.653
  0
VERTEX
100
AcDbVertex
100
AcDb2dVertex
  8
1
 10
-6.719
 20
5.606
  0
VERTEX
100
AcDbVertex
100
AcDb2dVertex
  8
1
 10
-6.766
 20
5.553
  0
VERTEX
100
AcDbVertex
100
AcDb2dVertex
  8
1
 10
-6.808
 20
5.499
  0
VERTEX
100
AcDbVertex
100
AcDb2dVertex
  8
1
 10
-6.846
 20
5.44
  0
VERTEX
100
AcDbVertex
100
AcDb2dVertex
  8
1
 10
-6.878
 20
5.378
  0
VERTEX
100
AcDbVertex
100
AcDb2dVertex
  8
1
 10
-6.905
 20
5.314
  0
VERTEX
100
AcDbVertex
100
AcDb2dVertex
  8
1
 10
-6.908
 20
5.305
  0
VERTEX
100
AcDbVertex
100
AcDb2dVertex
  8
1
 10
-6.928
 20
5.238
  0
VERTEX
100
AcDbVertex
100
AcDb2dVertex
  8
1
 10
-6.943
 20
5.17
  0
VERTEX
100
AcDbVertex
100
AcDb2dVertex
  8
1
 10
-6.951
 20
5.1
  0
VERTEX
100
AcDbVertex
100
AcDb2dVertex
  8
1
 10
-6.953
 20
5.029
  0
VERTEX
100
AcDbVertex
100
AcDb2dVertex
  8
1
 10
-6.949
 20
4.961
  0
VERTEX
100
AcDbVertex
100
AcDb2dVertex
  8
1
 10
-6.939
 20
4.892
  0
VERTEX
100
AcDbVertex
100
AcDb2dVertex
  8
1
 10
-6.923
 20
4.823
  0
VERTEX
100
AcDbVertex
100
AcDb2dVertex
  8
1
 10
-6.901
 20
4.757
  0
VERTEX
100
AcDbVertex
100
AcDb2dVertex
  8
1
 10
-6.874
 20
4.693
  0
VERTEX
100
AcDbVertex
100
AcDb2dVertex
  8
1
 10
-6.841
 20
4.63
  0
VERTEX
100
AcDbVertex
100
AcDb2dVertex
  8
1
 10
-6.803
 20
4.573
  0
VERTEX
100
AcDbVertex
100
AcDb2dVertex
  8
1
 10
-6.759
 20
4.518
  0
VERTEX
100
AcDbVertex
100
AcDb2dVertex
  8
1
 10
-6.712
 20
4.467
  0
VERTEX
100
AcDbVertex
100
AcDb2dVertex
  8
1
 10
-6.66
 20
4.42
  0
VERTEX
100
AcDbVertex
100
AcDb2dVertex
  8
1
 10
-6.653
 20
4.415
  0
VERTEX
100
AcDbVertex
100
AcDb2dVertex
  8
1
 10
-6.673
 20
1.952
  0
VERTEX
100
AcDbVertex
100
AcDb2dVertex
  8
1
 10
-9.272
 20
1.928
  0
VERTEX
100
AcDbVertex
100
AcDb2dVertex
  8
1
 10
-9.318
 20
1.98
  0
VERTEX
100
AcDbVertex
100
AcDb2dVertex
  8
1
 10
-9.368
 20
2.029
  0
VERTEX
100
AcDbVertex
100
AcDb2dVertex
  8
1
 10
-9.423
 20
2.072
  0
VERTEX
100
AcDbVertex
100
AcDb2dVertex
  8
1
 10
-9.481
 20
2.112
  0
VERTEX
100
AcDbVertex
100
AcDb2dVertex
  8
1
 10
-9.542
 20
2.145
  0
VERTEX
100
AcDbVertex
100
AcDb2dVertex
  8
1
 10
-9.606
 20
2.173
  0
VERTEX
100
AcDbVertex
100
AcDb2dVertex
  8
1
 10
-9.672
 20
2.196
  0
VERTEX
100
AcDbVertex
100
AcDb2dVertex
  8
1
 10
-9.74
 20
2.213
  0
VERTEX
100
AcDbVertex
100
AcDb2dVertex
  8
1
 10
-9.809
 20
2.223
  0
VERTEX
100
AcDbVertex
100
AcDb2dVertex
  8
1
 10
-9.878
 20
2.228
  0
VERTEX
100
AcDbVertex
100
AcDb2dVertex
  8
1
 10
-9.948
 20
2.227
  0
VERTEX
100
AcDbVertex
100
AcDb2dVertex
  8
1
 10
-10.017
 20
2.219
  0
VERTEX
100
AcDbVertex
100
AcDb2dVertex
  8
1
 10
-10.086
 20
2.205
  0
VERTEX
100
AcDbVertex
100
AcDb2dVertex
  8
1
 10
-10.153
 20
2.186
  0
VERTEX
100
AcDbVertex
100
AcDb2dVertex
  8
1
 10
-10.162
 20
2.183
  0
VERTEX
100
AcDbVertex
100
AcDb2dVertex
  8
1
 10
-10.227
 20
2.157
  0
VERTEX
100
AcDbVertex
100
AcDb2dVertex
  8
1
 10
-10.289
 20
2.126
  0
VERTEX
100
AcDbVertex
100
AcDb2dVertex
  8
1
 10
-10.348
 20
2.088
  0
VERTEX
100
AcDbVertex
100
AcDb2dVertex
  8
1
 10
-10.404
 20
2.047
  0
VERTEX
100
AcDbVertex
100
AcDb2dVertex
  8
1
 10
-10.456
 20
2
  0
VERTEX
100
AcDbVertex
100
AcDb2dVertex
  8
1
 10
-10.504
 20
1.948
  0
VERTEX
100
AcDbVertex
100
AcDb2dVertex
  8
1
 10
-10.547
 20
1.894
  0
VERTEX
100
AcDbVertex
100
AcDb2dVertex
  8
1
 10
-10.585
 20
1.835
  0
VERTEX
100
AcDbVertex
100
AcDb2dVertex
  8
1
 10
-10.618
 20
1.774
  0
VERTEX
100
AcDbVertex
100
AcDb2dVertex
  8
1
 10
-10.646
 20
1.71
  0
VERTEX
100
AcDbVertex
100
AcDb2dVertex
  8
1
 10
-10.667
 20
1.644
  0
VERTEX
100
AcDbVertex
100
AcDb2dVertex
  8
1
 10
-10.683
 20
1.575
  0
VERTEX
100
AcDbVertex
100
AcDb2dVertex
  8
1
 10
-10.693
 20
1.507
  0
VERTEX
100
AcDbVertex
100
AcDb2dVertex
  8
1
 10
-10.697
 20
1.437
  0
VERTEX
100
AcDbVertex
100
AcDb2dVertex
  8
1
 10
-10.697
 20
1.428
  0
VERTEX
100
AcDbVertex
100
AcDb2dVertex
  8
1
 10
-10.694
 20
1.358
  0
VERTEX
100
AcDbVertex
100
AcDb2dVertex
  8
1
 10
-10.685
 20
1.289
  0
VERTEX
100
AcDbVertex
100
AcDb2dVertex
  8
1
 10
-10.67
 20
1.221
  0
VERTEX
100
AcDbVertex
100
AcDb2dVertex
  8
1
 10
-10.649
 20
1.154
  0
VERTEX
100
AcDbVertex
100
AcDb2dVertex
  8
1
 10
-10.622
 20
1.09
  0
VERTEX
100
AcDbVertex
100
AcDb2dVertex
  8
1
 10
-10.589
 20
1.028
  0
VERTEX
100
AcDbVertex
100
AcDb2dVertex
  8
1
 10
-10.552
 20
0.968
  0
VERTEX
100
AcDbVertex
100
AcDb2dVertex
  8
1
 10
-10.509
 20
0.913
  0
VERTEX
100
AcDbVertex
100
AcDb2dVertex
  8
1
 10
-10.462
 20
0.862
  0
VERTEX
100
AcDbVertex
100
AcDb2dVertex
  8
1
 10
-10.411
 20
0.815
  0
VERTEX
100
AcDbVertex
100
AcDb2dVertex
  8
1
 10
-10.355
 20
0.772
  0
VERTEX
100
AcDbVertex
100
AcDb2dVertex
  8
1
 10
-10.296
 20
0.735
  0
VERTEX
100
AcDbVertex
100
AcDb2dVertex
  8
1
 10
-10.234
 20
0.702
  0
VERTEX
100
AcDbVertex
100
AcDb2dVertex
  8
1
 10
-10.17
 20
0.676
  0
VERTEX
100
AcDbVertex
100
AcDb2dVertex
  8
1
 10
-10.162
 20
0.673
  0
VERTEX
100
AcDbVertex
100
AcDb2dVertex
  8
1
 10
-10.095
 20
0.653
  0
VERTEX
100
AcDbVertex
100
AcDb2dVertex
  8
1
 10
-10.027
 20
0.637
  0
VERTEX
100
AcDbVertex
100
AcDb2dVertex
  8
1
 10
-9.957
 20
0.63
  0
VERTEX
100
AcDbVertex
100
AcDb2dVertex
  8
1
 10
-9.887
 20
0.627
  0
VERTEX
100
AcDbVertex
100
AcDb2dVertex
  8
1
 10
-9.818
 20
0.631
  0
VERTEX
100
AcDbVertex
100
AcDb2dVertex
  8
1
 10
-9.749
 20
0.642
  0
VERTEX
100
AcDbVertex
100
AcDb2dVertex
  8
1
 10
-9.68
 20
0.658
  0
VERTEX
100
AcDbVertex
100
AcDb2dVertex
  8
1
 10
-9.614
 20
0.68
  0
VERTEX
100
AcDbVertex
100
AcDb2dVertex
  8
1
 10
-9.55
 20
0.707
  0
VERTEX
100
AcDbVertex
100
AcDb2dVertex
  8
1
 10
-9.488
 20
0.74
  0
VERTEX
100
AcDbVertex
100
AcDb2dVertex
  8
1
 10
-9.43
 20
0.778
  0
VERTEX
100
AcDbVertex
100
AcDb2dVertex
  8
1
 10
-9.375
 20
0.821
  0
VERTEX
100
AcDbVertex
100
AcDb2dVertex
  8
1
 10
-9.324
 20
0.869
  0
VERTEX
100
AcDbVertex
100
AcDb2dVertex
  8
1
 10
-9.277
 20
0.92
  0
VERTEX
100
AcDbVertex
100
AcDb2dVertex
  8
1
 10
-9.272
 20
0.928
  0
VERTEX
100
AcDbVertex
100
AcDb2dVertex
  8
1
 10
-6.673
 20
0.953
  0
VERTEX
100
AcDbVertex
100
AcDb2dVertex
  8
1
 10
-6.673
 20
-0.047
  0
VERTEX
100
AcDbVertex
100
AcDb2dVertex
  8
1
 10
-6.195
 20
-0.86
  0
VERTEX
100
AcDbVertex
100
AcDb2dVertex
  8
1
 10
-6.395
 20
-1.061
  0
VERTEX
100
AcDbVertex
100
AcDb2dVertex
  8
1
 10
-6.195
 20
-1.261
  0
VERTEX
100
AcDbVertex
100
AcDb2dVertex
  8
1
 10
-6.395
 20
-1.46
  0
VERTEX
100
AcDbVertex
100
AcDb2dVertex
  8
1
 10
-6.195
 20
-1.661
  0
VERTEX
100
AcDbVertex
100
AcDb2dVertex
  8
1
 10
-6.395
 20
-1.861
  0
VERTEX
100
AcDbVertex
100
AcDb2dVertex
  8
1
 10
-6.195
 20
-2.061
  0
VERTEX
100
AcDbVertex
100
AcDb2dVertex
  8
1
 10
-6.395
 20
-2.261
  0
VERTEX
100
AcDbVertex
100
AcDb2dVertex
  8
1
 10
-6.195
 20
-2.461
  0
VERTEX
100
AcDbVertex
100
AcDb2dVertex
  8
1
 10
-6.395
 20
-2.661
  0
VERTEX
100
AcDbVertex
100
AcDb2dVertex
  8
1
 10
-6.195
 20
-2.861
  0
VERTEX
100
AcDbVertex
100
AcDb2dVertex
  8
1
 10
-6.395
 20
-3.061
  0
VERTEX
100
AcDbVertex
100
AcDb2dVertex
  8
1
 10
-6.195
 20
-3.261
  0
VERTEX
100
AcDbVertex
100
AcDb2dVertex
  8
1
 10
-6.395
 20
-3.461
  0
VERTEX
100
AcDbVertex
100
AcDb2dVertex
  8
1
 10
-5.937
 20
-3.901
  0
VERTEX
100
AcDbVertex
100
AcDb2dVertex
  8
1
 10
-5.619
 20
-3.6
  0
VERTEX
100
AcDbVertex
100
AcDb2dVertex
  8
1
 10
-5.819
 20
-3.401
  0
VERTEX
100
AcDbVertex
100
AcDb2dVertex
  8
1
 10
-5.619
 20
-3.201
  0
VERTEX
100
AcDbVertex
100
AcDb2dVertex
  8
1
 10
-5.819
 20
-3.001
  0
VERTEX
100
AcDbVertex
100
AcDb2dVertex
  8
1
 10
-5.619
 20
-2.801
  0
VERTEX
100
AcDbVertex
100
AcDb2dVertex
  8
1
 10
-5.819
 20
-2.6
  0
VERTEX
100
AcDbVertex
100
AcDb2dVertex
  8
1
 10
-5.619
 20
-2.401
  0
VERTEX
100
AcDbVertex
100
AcDb2dVertex
  8
1
 10
-5.819
 20
-2.201
  0
VERTEX
100
AcDbVertex
100
AcDb2dVertex
  8
1
 10
-5.619
 20
-2.001
  0
VERTEX
100
AcDbVertex
100
AcDb2dVertex
  8
1
 10
-5.819
 20
-1.801
  0
VERTEX
100
AcDbVertex
100
AcDb2dVertex
  8
1
 10
-5.619
 20
-1.601
  0
VERTEX
100
AcDbVertex
100
AcDb2dVertex
  8
1
 10
-5.819
 20
-1.401
  0
VERTEX
100
AcDbVertex
100
AcDb2dVertex
  8
1
 10
-5.619
 20
-1.2
  0
VERTEX
100
AcDbVertex
100
AcDb2dVertex
  8
1
 10
-5.819
 20
-1
  0
VERTEX
100
AcDbVertex
100
AcDb2dVertex
  8
1
 10
-5.565
 20
-0.746
  0
VERTEX
100
AcDbVertex
100
AcDb2dVertex
  8
1
 10
-5.286
 20
-1.025
  0
VERTEX
100
AcDbVertex
100
AcDb2dVertex
  8
1
 10
-5.486
 20
-1.225
  0
VERTEX
100
AcDbVertex
100
AcDb2dVertex
  8
1
 10
-5.286
 20
-1.425
  0
VERTEX
100
AcDbVertex
100
AcDb2dVertex
  8
1
 10
-5.486
 20
-1.625
  0
VERTEX
100
AcDbVertex
100
AcDb2dVertex
  8
1
 10
-5.286
 20
-1.825
  0
VERTEX
100
AcDbVertex
100
AcDb2dVertex
  8
1
 10
-5.486
 20
-2.025
  0
VERTEX
100
AcDbVertex
100
AcDb2dVertex
  8
1
 10
-5.286
 20
-2.225
  0
VERTEX
100
AcDbVertex
100
AcDb2dVertex
  8
1
 10
-5.486
 20
-2.425
  0
VERTEX
100
AcDbVertex
100
AcDb2dVertex
  8
1
 10
-5.286
 20
-2.625
  0
VERTEX
100
AcDbVertex
100
AcDb2dVertex
  8
1
 10
-5.486
 20
-2.825
  0
VERTEX
100
AcDbVertex
100
AcDb2dVertex
  8
1
 10
-5.286
 20
-3.025
  0
VERTEX
100
AcDbVertex
100
AcDb2dVertex
  8
1
 10
-5.486
 20
-3.225
  0
VERTEX
100
AcDbVertex
100
AcDb2dVertex
  8
1
 10
-5.286
 20
-3.425
  0
VERTEX
100
AcDbVertex
100
AcDb2dVertex
  8
1
 10
-5.286
 20
-3.658
  0
VERTEX
100
AcDbVertex
100
AcDb2dVertex
  8
1
 10
-5.709
 20
-4.383
  0
VERTEX
100
AcDbVertex
100
AcDb2dVertex
  8
1
 10
-5.709
 20
-6.183
  0
VERTEX
100
AcDbVertex
100
AcDb2dVertex
  8
1
 10
-5.762
 20
-6.229
  0
VERTEX
100
AcDbVertex
100
AcDb2dVertex
  8
1
 10
-5.81
 20
-6.279
  0
VERTEX
100
AcDbVertex
100
AcDb2dVertex
  8
1
 10
-5.854
 20
-6.334
  0
VERTEX
100
AcDbVertex
100
AcDb2dVertex
  8
1
 10
-5.893
 20
-6.392
  0
VERTEX
100
AcDbVertex
100
AcDb2dVertex
  8
1
 10
-5.926
 20
-6.453
  0
VERTEX
100
AcDbVertex
100
AcDb2dVertex
  8
1
 10
-5.954
 20
-6.517
  0
VERTEX
100
AcDbVertex
100
AcDb2dVertex
  8
1
 10
-5.977
 20
-6.582
  0
VERTEX
100
AcDbVertex
100
AcDb2dVertex
  8
1
 10
-5.994
 20
-6.651
  0
VERTEX
100
AcDbVertex
100
AcDb2dVertex
  8
1
 10
-6.004
 20
-6.72
  0
VERTEX
100
AcDbVertex
100
AcDb2dVertex
  8
1
 10
-6.009
 20
-6.79
  0
VERTEX
100
AcDbVertex
100
AcDb2dVertex
  8
1
 10
-6.007
 20
-6.86
  0
VERTEX
100
AcDbVertex
100
AcDb2dVertex
  8
1
 10
-6
 20
-6.928
  0
VERTEX
100
AcDbVertex
100
AcDb2dVertex
  8
1
 10
-5.986
 20
-6.997
  0
VERTEX
100
AcDbVertex
100
AcDb2dVertex
  8
1
 10
-5.967
 20
-7.065
  0
VERTEX
100
AcDbVertex
100
AcDb2dVertex
  8
1
 10
-5.964
 20
-7.073
  0
VERTEX
100
AcDbVertex
100
AcDb2dVertex
  8
1
 10
-5.938
 20
-7.138
  0
VERTEX
100
AcDbVertex
100
AcDb2dVertex
  8
1
 10
-5.906
 20
-7.199
  0
VERTEX
100
AcDbVertex
100
AcDb2dVertex
  8
1
 10
-5.87
 20
-7.259
  0
VERTEX
100
AcDbVertex
100
AcDb2dVertex
  8
1
 10
-5.828
 20
-7.315
  0
VERTEX
100
AcDbVertex
100
AcDb2dVertex
  8
1
 10
-5.781
 20
-7.367
  0
VERTEX
100
AcDbVertex
100
AcDb2dVertex
  8
1
 10
-5.73
 20
-7.415
  0
VERTEX
100
AcDbVertex
100
AcDb2dVertex
  8
1
 10
-5.675
 20
-7.457
  0
VERTEX
100
AcDbVertex
100
AcDb2dVertex
  8
1
 10
-5.617
 20
-7.496
  0
VERTEX
100
AcDbVertex
100
AcDb2dVertex
  8
1
 10
-5.555
 20
-7.529
  0
VERTEX
100
AcDbVertex
100
AcDb2dVertex
  8
1
 10
-5.491
 20
-7.557
  0
VERTEX
100
AcDbVertex
100
AcDb2dVertex
  8
1
 10
-5.424
 20
-7.577
  0
VERTEX
100
AcDbVertex
100
AcDb2dVertex
  8
1
 10
-5.356
 20
-7.593
  0
VERTEX
100
AcDbVertex
100
AcDb2dVertex
  8
1
 10
-5.287
 20
-7.604
  0
VERTEX
100
AcDbVertex
100
AcDb2dVertex
  8
1
 10
-5.217
 20
-7.608
  0
VERTEX
100
AcDbVertex
100
AcDb2dVertex
  8
1
 10
-5.209
 20
-7.608
  0
VERTEX
100
AcDbVertex
100
AcDb2dVertex
  8
1
 10
-5.139
 20
-7.605
  0
VERTEX
100
AcDbVertex
100
AcDb2dVertex
  8
1
 10
-5.07
 20
-7.596
  0
VERTEX
100
AcDbVertex
100
AcDb2dVertex
  8
1
 10
-5.002
 20
-7.581
  0
VERTEX
100
AcDbVertex
100
AcDb2dVertex
  8
1
 10
-4.935
 20
-7.56
  0
VERTEX
100
AcDbVertex
100
AcDb2dVertex
  8
1
 10
-4.871
 20
-7.533
  0
VERTEX
100
AcDbVertex
100
AcDb2dVertex
  8
1
 10
-4.809
 20
-7.501
  0
VERTEX
100
AcDbVertex
100
AcDb2dVertex
  8
1
 10
-4.75
 20
-7.463
  0
VERTEX
100
AcDbVertex
100
AcDb2dVertex
  8
1
 10
-4.694
 20
-7.42
  0
VERTEX
100
AcDbVertex
100
AcDb2dVertex
  8
1
 10
-4.643
 20
-7.372
  0
VERTEX
100
AcDbVertex
100
AcDb2dVertex
  8
1
 10
-4.596
 20
-7.322
  0
VERTEX
100
AcDbVertex
100
AcDb2dVertex
  8
1
 10
-4.553
 20
-7.267
  0
VERTEX
100
AcDbVertex
100
AcDb2dVertex
  8
1
 10
-4.516
 20
-7.207
  0
VERTEX
100
AcDbVertex
100
AcDb2dVertex
  8
1
 10
-4.484
 20
-7.146
  0
VERTEX
100
AcDbVertex
100
AcDb2dVertex
  8
1
 10
-4.457
 20
-7.081
  0
VERTEX
100
AcDbVertex
100
AcDb2dVertex
  8
1
 10
-4.454
 20
-7.073
  0
VERTEX
100
AcDbVertex
100
AcDb2dVertex
  8
1
 10
-4.434
 20
-7.005
  0
VERTEX
100
AcDbVertex
100
AcDb2dVertex
  8
1
 10
-4.419
 20
-6.938
  0
VERTEX
100
AcDbVertex
100
AcDb2dVertex
  8
1
 10
-4.411
 20
-6.869
  0
VERTEX
100
AcDbVertex
100
AcDb2dVertex
  8
1
 10
-4.409
 20
-6.799
  0
VERTEX
100
AcDbVertex
100
AcDb2dVertex
  8
1
 10
-4.413
 20
-6.729
  0
VERTEX
100
AcDbVertex
100
AcDb2dVertex
  8
1
 10
-4.423
 20
-6.66
  0
VERTEX
100
AcDbVertex
100
AcDb2dVertex
  8
1
 10
-4.438
 20
-6.592
  0
VERTEX
100
AcDbVertex
100
AcDb2dVertex
  8
1
 10
-4.46
 20
-6.526
  0
VERTEX
100
AcDbVertex
100
AcDb2dVertex
  8
1
 10
-4.488
 20
-6.461
  0
VERTEX
100
AcDbVertex
100
AcDb2dVertex
  8
1
 10
-4.521
 20
-6.4
  0
VERTEX
100
AcDbVertex
100
AcDb2dVertex
  8
1
 10
-4.559
 20
-6.34
  0
VERTEX
100
AcDbVertex
100
AcDb2dVertex
  8
1
 10
-4.602
 20
-6.287
  0
VERTEX
100
AcDbVertex
100
AcDb2dVertex
  8
1
 10
-4.65
 20
-6.236
  0
VERTEX
100
AcDbVertex
100
AcDb2dVertex
  8
1
 10
-4.702
 20
-6.189
  0
VERTEX
100
AcDbVertex
100
AcDb2dVertex
  8
1
 10
-4.709
 20
-6.183
  0
VERTEX
100
AcDbVertex
100
AcDb2dVertex
  8
1
 10
-4.709
 20
-4.383
  0
VERTEX
100
AcDbVertex
100
AcDb2dVertex
  8
1
 10
-5.187
 20
-3.658
  0
VERTEX
100
AcDbVertex
100
AcDb2dVertex
  8
1
 10
-5.187
 20
-3.425
  0
VERTEX
100
AcDbVertex
100
AcDb2dVertex
  8
1
 10
-5.387
 20
-3.225
  0
VERTEX
100
AcDbVertex
100
AcDb2dVertex
  8
1
 10
-5.187
 20
-3.025
  0
VERTEX
100
AcDbVertex
100
AcDb2dVertex
  8
1
 10
-5.387
 20
-2.825
  0
VERTEX
100
AcDbVertex
100
AcDb2dVertex
  8
1
 10
-5.187
 20
-2.625
  0
VERTEX
100
AcDbVertex
100
AcDb2dVertex
  8
1
 10
-5.387
 20
-2.425
  0
VERTEX
100
AcDbVertex
100
AcDb2dVertex
  8
1
 10
-5.187
 20
-2.225
  0
VERTEX
100
AcDbVertex
100
AcDb2dVertex
  8
1
 10
-5.387
 20
-2.025
  0
VERTEX
100
AcDbVertex
100
AcDb2dVertex
  8
1
 10
-5.187
 20
-1.825
  0
VERTEX
100
AcDbVertex
100
AcDb2dVertex
  8
1
 10
-5.387
 20
-1.625
  0
VERTEX
100
AcDbVertex
100
AcDb2dVertex
  8
1
 10
-5.187
 20
-1.425
  0
VERTEX
100
AcDbVertex
100
AcDb2dVertex
  8
1
 10
-5.387
 20
-1.225
  0
VERTEX
100
AcDbVertex
100
AcDb2dVertex
  8
1
 10
-5.187
 20
-1.025
  0
VERTEX
100
AcDbVertex
100
AcDb2dVertex
  8
1
 10
-5.565
 20
-0.658
  0
VERTEX
100
AcDbVertex
100
AcDb2dVertex
  8
1
 10
-5.918
 20
-1
  0
VERTEX
100
AcDbVertex
100
AcDb2dVertex
  8
1
 10
-5.718
 20
-1.2
  0
VERTEX
100
AcDbVertex
100
AcDb2dVertex
  8
1
 10
-5.918
 20
-1.401
  0
VERTEX
100
AcDbVertex
100
AcDb2dVertex
  8
1
 10
-5.718
 20
-1.601
  0
VERTEX
100
AcDbVertex
100
AcDb2dVertex
  8
1
 10
-5.918
 20
-1.801
  0
VERTEX
100
AcDbVertex
100
AcDb2dVertex
  8
1
 10
-5.718
 20
-2.001
  0
VERTEX
100
AcDbVertex
100
AcDb2dVertex
  8
1
 10
-5.918
 20
-2.201
  0
VERTEX
100
AcDbVertex
100
AcDb2dVertex
  8
1
 10
-5.718
 20
-2.401
  0
VERTEX
100
AcDbVertex
100
AcDb2dVertex
  8
1
 10
-5.918
 20
-2.6
  0
VERTEX
100
AcDbVertex
100
AcDb2dVertex
  8
1
 10
-5.718
 20
-2.801
  0
VERTEX
100
AcDbVertex
100
AcDb2dVertex
  8
1
 10
-5.918
 20
-3.001
  0
VERTEX
100
AcDbVertex
100
AcDb2dVertex
  8
1
 10
-5.718
 20
-3.201
  0
VERTEX
100
AcDbVertex
100
AcDb2dVertex
  8
1
 10
-5.918
 20
-3.401
  0
VERTEX
100
AcDbVertex
100
AcDb2dVertex
  8
1
 10
-5.718
 20
-3.6
  0
VERTEX
100
AcDbVertex
100
AcDb2dVertex
  8
1
 10
-5.937
 20
-3.82
  0
VERTEX
100
AcDbVertex
100
AcDb2dVertex
  8
1
 10
-6.296
 20
-3.461
  0
VERTEX
100
AcDbVertex
100
AcDb2dVertex
  8
1
 10
-6.096
 20
-3.261
  0
VERTEX
100
AcDbVertex
100
AcDb2dVertex
  8
1
 10
-6.296
 20
-3.061
  0
VERTEX
100
AcDbVertex
100
AcDb2dVertex
  8
1
 10
-6.096
 20
-2.861
  0
VERTEX
100
AcDbVertex
100
AcDb2dVertex
  8
1
 10
-6.296
 20
-2.661
  0
VERTEX
100
AcDbVertex
100
AcDb2dVertex
  8
1
 10
-6.096
 20
-2.461
  0
VERTEX
100
AcDbVertex
100
AcDb2dVertex
  8
1
 10
-6.296
 20
-2.261
  0
VERTEX
100
AcDbVertex
100
AcDb2dVertex
  8
1
 10
-6.096
 20
-2.061
  0
VERTEX
100
AcDbVertex
100
AcDb2dVertex
  8
1
 10
-6.296
 20
-1.861
  0
VERTEX
100
AcDbVertex
100
AcDb2dVertex
  8
1
 10
-6.096
 20
-1.661
  0
VERTEX
100
AcDbVertex
100
AcDb2dVertex
  8
1
 10
-6.296
 20
-1.46
  0
VERTEX
100
AcDbVertex
100
AcDb2dVertex
  8
1
 10
-6.096
 20
-1.261
  0
VERTEX
100
AcDbVertex
100
AcDb2dVertex
  8
1
 10
-6.296
 20
-1.061
  0
VERTEX
100
AcDbVertex
100
AcDb2dVertex
  8
1
 10
-6.096
 20
-0.86
  0
VERTEX
100
AcDbVertex
100
AcDb2dVertex
  8
1
 10
-5.673
 20
-0.047
  0
VERTEX
100
AcDbVertex
100
AcDb2dVertex
  8
1
 10
-5.673
 20
0.953
  0
VERTEX
100
AcDbVertex
100
AcDb2dVertex
  8
1
 10
-4.673
 20
0.953
  0
VERTEX
100
AcDbVertex
100
AcDb2dVertex
  8
1
 10
-3.86
 20
1.376
  0
VERTEX
100
AcDbVertex
100
AcDb2dVertex
  8
1
 10
-3.66
 20
1.575
  0
VERTEX
100
AcDbVertex
100
AcDb2dVertex
  8
1
 10
-3.46
 20
1.376
  0
VERTEX
100
AcDbVertex
100
AcDb2dVertex
  8
1
 10
-3.26
 20
1.575
  0
VERTEX
100
AcDbVertex
100
AcDb2dVertex
  8
1
 10
-3.06
 20
1.376
  0
VERTEX
100
AcDbVertex
100
AcDb2dVertex
  8
1
 10
-2.86
 20
1.575
  0
VERTEX
100
AcDbVertex
100
AcDb2dVertex
  8
1
 10
-2.66
 20
1.376
  0
VERTEX
100
AcDbVertex
100
AcDb2dVertex
  8
1
 10
-2.46
 20
1.575
  0
VERTEX
100
AcDbVertex
100
AcDb2dVertex
  8
1
 10
-2.26
 20
1.376
  0
VERTEX
100
AcDbVertex
100
AcDb2dVertex
  8
1
 10
-2.06
 20
1.575
  0
VERTEX
100
AcDbVertex
100
AcDb2dVertex
  8
1
 10
-1.86
 20
1.376
  0
VERTEX
100
AcDbVertex
100
AcDb2dVertex
  8
1
 10
-1.66
 20
1.575
  0
VERTEX
100
AcDbVertex
100
AcDb2dVertex
  8
1
 10
-1.46
 20
1.376
  0
VERTEX
100
AcDbVertex
100
AcDb2dVertex
  8
1
 10
-1.26
 20
1.575
  0
VERTEX
100
AcDbVertex
100
AcDb2dVertex
  8
1
 10
-0.9
 20
1.218
  0
VERTEX
100
AcDbVertex
100
AcDb2dVertex
  8
1
 10
-1.12
 20
0.999
  0
VERTEX
100
AcDbVertex
100
AcDb2dVertex
  8
1
 10
-1.32
 20
1.198
  0
VERTEX
100
AcDbVertex
100
AcDb2dVertex
  8
1
 10
-1.52
 20
0.999
  0
VERTEX
100
AcDbVertex
100
AcDb2dVertex
  8
1
 10
-1.72
 20
1.198
  0
VERTEX
100
AcDbVertex
100
AcDb2dVertex
  8
1
 10
-1.92
 20
0.999
  0
VERTEX
100
AcDbVertex
100
AcDb2dVertex
  8
1
 10
-2.12
 20
1.198
  0
VERTEX
100
AcDbVertex
100
AcDb2dVertex
  8
1
 10
-2.32
 20
0.999
  0
VERTEX
100
AcDbVertex
100
AcDb2dVertex
  8
1
 10
-2.52
 20
1.198
  0
VERTEX
100
AcDbVertex
100
AcDb2dVertex
  8
1
 10
-2.72
 20
0.999
  0
VERTEX
100
AcDbVertex
100
AcDb2dVertex
  8
1
 10
-2.92
 20
1.198
  0
VERTEX
100
AcDbVertex
100
AcDb2dVertex
  8
1
 10
-3.12
 20
0.999
  0
VERTEX
100
AcDbVertex
100
AcDb2dVertex
  8
1
 10
-3.32
 20
1.198
  0
VERTEX
100
AcDbVertex
100
AcDb2dVertex
  8
1
 10
-3.52
 20
0.999
  0
VERTEX
100
AcDbVertex
100
AcDb2dVertex
  8
1
 10
-3.72
 20
1.198
  0
VERTEX
100
AcDbVertex
100
AcDb2dVertex
  8
1
 10
-4.061
 20
0.846
  0
VERTEX
100
AcDbVertex
100
AcDb2dVertex
  8
1
 10
-3.696
 20
0.468
  0
VERTEX
100
AcDbVertex
100
AcDb2dVertex
  8
1
 10
-3.496
 20
0.667
  0
VERTEX
100
AcDbVertex
100
AcDb2dVertex
  8
1
 10
-3.296
 20
0.468
  0
VERTEX
100
AcDbVertex
100
AcDb2dVertex
  8
1
 10
-3.096
 20
0.667
  0
VERTEX
100
AcDbVertex
100
AcDb2dVertex
  8
1
 10
-2.896
 20
0.468
  0
VERTEX
100
AcDbVertex
100
AcDb2dVertex
  8
1
 10
-2.696
 20
0.667
  0
VERTEX
100
AcDbVertex
100
AcDb2dVertex
  8
1
 10
-2.496
 20
0.468
  0
VERTEX
100
AcDbVertex
100
AcDb2dVertex
  8
1
 10
-2.296
 20
0.667
  0
VERTEX
100
AcDbVertex
100
AcDb2dVertex
  8
1
 10
-2.096
 20
0.468
  0
VERTEX
100
AcDbVertex
100
AcDb2dVertex
  8
1
 10
-1.896
 20
0.667
  0
VERTEX
100
AcDbVertex
100
AcDb2dVertex
  8
1
 10
-1.696
 20
0.468
  0
VERTEX
100
AcDbVertex
100
AcDb2dVertex
  8
1
 10
-1.496
 20
0.667
  0
VERTEX
100
AcDbVertex
100
AcDb2dVertex
  8
1
 10
-1.296
 20
0.468
  0
VERTEX
100
AcDbVertex
100
AcDb2dVertex
  8
1
 10
-1.063
 20
0.468
  0
VERTEX
100
AcDbVertex
100
AcDb2dVertex
  8
1
 10
0
 20
-0.001
  0
VERTEX
100
AcDbVertex
100
AcDb2dVertex
  8
1
 10
7.57
 20
-7.51
  0
VERTEX
100
AcDbVertex
100
AcDb2dVertex
  8
1
 10
15.141
 20
-0.001
  0
VERTEX
100
AcDbVertex
100
AcDb2dVertex
  8
1
 10
15.541
 20
0.45
  0
VERTEX
100
AcDbVertex
100
AcDb2dVertex
  8
1
 10
15.681
 20
0.45
  0
VERTEX
100
AcDbVertex
100
AcDb2dVertex
  8
1
 10
15.881
 20
0.25
  0
VERTEX
100
AcDbVertex
100
AcDb2dVertex
  8
1
 10
16.081
 20
0.45
  0
VERTEX
100
AcDbVertex
100
AcDb2dVertex
  8
1
 10
16.281
 20
0.25
  0
VERTEX
100
AcDbVertex
100
AcDb2dVertex
  8
1
 10
16.481
 20
0.45
  0
VERTEX
100
AcDbVertex
100
AcDb2dVertex
  8
1
 10
16.681
 20
0.25
  0
VERTEX
100
AcDbVertex
100
AcDb2dVertex
  8
1
 10
16.881
 20
0.45
  0
VERTEX
100
AcDbVertex
100
AcDb2dVertex
  8
1
 10
17.081
 20
0.25
  0
VERTEX
100
AcDbVertex
100
AcDb2dVertex
  8
1
 10
17.281
 20
0.45
  0
VERTEX
100
AcDbVertex
100
AcDb2dVertex
  8
1
 10
17.481
 20
0.25
  0
VERTEX
100
AcDbVertex
100
AcDb2dVertex
  8
1
 10
17.681
 20
0.45
  0
VERTEX
100
AcDbVertex
100
AcDb2dVertex
  8
1
 10
17.841
 20
0.45
  0
VERTEX
100
AcDbVertex
100
AcDb2dVertex
  8
1
 10
17.849
 20
0.276
  0
VERTEX
100
AcDbVertex
100
AcDb2dVertex
  8
1
 10
17.871
 20
0.103
  0
VERTEX
100
AcDbVertex
100
AcDb2dVertex
  8
1
 10
17.909
 20
-0.068
  0
VERTEX
100
AcDbVertex
100
AcDb2dVertex
  8
1
 10
17.962
 20
-0.234
  0
VERTEX
100
AcDbVertex
100
AcDb2dVertex
  8
1
 10
18.028
 20
-0.395
  0
VERTEX
100
AcDbVertex
100
AcDb2dVertex
  8
1
 10
18.109
 20
-0.55
  0
VERTEX
100
AcDbVertex
100
AcDb2dVertex
  8
1
 10
18.203
 20
-0.697
  0
VERTEX
100
AcDbVertex
100
AcDb2dVertex
  8
1
 10
18.309
 20
-0.836
  0
VERTEX
100
AcDbVertex
100
AcDb2dVertex
  8
1
 10
18.427
 20
-0.964
  0
VERTEX
100
AcDbVertex
100
AcDb2dVertex
  8
1
 10
18.555
 20
-1.082
  0
VERTEX
100
AcDbVertex
100
AcDb2dVertex
  8
1
 10
18.694
 20
-1.188
  0
VERTEX
100
AcDbVertex
100
AcDb2dVertex
  8
1
 10
18.841
 20
-1.282
  0
VERTEX
100
AcDbVertex
100
AcDb2dVertex
  8
1
 10
18.996
 20
-1.363
  0
VERTEX
100
AcDbVertex
100
AcDb2dVertex
  8
1
 10
19.157
 20
-1.429
  0
VERTEX
100
AcDbVertex
100
AcDb2dVertex
  8
1
 10
19.323
 20
-1.482
  0
VERTEX
100
AcDbVertex
100
AcDb2dVertex
  8
1
 10
19.494
 20
-1.52
  0
VERTEX
100
AcDbVertex
100
AcDb2dVertex
  8
1
 10
19.667
 20
-1.542
  0
VERTEX
100
AcDbVertex
100
AcDb2dVertex
  8
1
 10
19.841
 20
-1.55
  0
VERTEX
100
AcDbVertex
100
AcDb2dVertex
  8
1
 10
20.015
 20
-1.542
  0
VERTEX
100
AcDbVertex
100
AcDb2dVertex
  8
1
 10
20.188
 20
-1.52
  0
VERTEX
100
AcDbVertex
100
AcDb2dVertex
  8
1
 10
20.359
 20
-1.482
  0
VERTEX
100
AcDbVertex
100
AcDb2dVertex
  8
1
 10
20.525
 20
-1.429
  0
VERTEX
100
AcDbVertex
100
AcDb2dVertex
  8
1
 10
20.686
 20
-1.363
  0
VERTEX
100
AcDbVertex
100
AcDb2dVertex
  8
1
 10
20.841
 20
-1.282
  0
VERTEX
100
AcDbVertex
100
AcDb2dVertex
  8
1
 10
20.988
 20
-1.188
  0
VERTEX
100
AcDbVertex
100
AcDb2dVertex
  8
1
 10
21.127
 20
-1.082
  0
VERTEX
100
AcDbVertex
100
AcDb2dVertex
  8
1
 10
21.255
 20
-0.964
  0
VERTEX
100
AcDbVertex
100
AcDb2dVertex
  8
1
 10
21.373
 20
-0.836
  0
VERTEX
100
AcDbVertex
100
AcDb2dVertex
  8
1
 10
21.479
 20
-0.697
  0
VERTEX
100
AcDbVertex
100
AcDb2dVertex
  8
1
 10
21.573
 20
-0.55
  0
VERTEX
100
AcDbVertex
100
AcDb2dVertex
  8
1
 10
21.654
 20
-0.395
  0
VERTEX
100
AcDbVertex
100
AcDb2dVertex
  8
1
 10
21.72
 20
-0.234
  0
VERTEX
100
AcDbVertex
100
AcDb2dVertex
  8
1
 10
21.773
 20
-0.068
  0
VERTEX
100
AcDbVertex
100
AcDb2dVertex
  8
1
 10
21.811
 20
0.103
  0
VERTEX
100
AcDbVertex
100
AcDb2dVertex
  8
1
 10
21.833
 20
0.276
  0
VERTEX
100
AcDbVertex
100
AcDb2dVertex
  8
1
 10
21.841
 20
0.45
  0
VERTEX
100
AcDbVertex
100
AcDb2dVertex
  8
1
 10
22.473
 20
0.078
  0
VERTEX
100
AcDbVertex
100
AcDb2dVertex
  8
1
 10
23.526
 20
0.078
  0
VERTEX
100
AcDbVertex
100
AcDb2dVertex
  8
1
 10
23.572
 20
0.025
  0
VERTEX
100
AcDbVertex
100
AcDb2dVertex
  8
1
 10
23.622
 20
-0.023
  0
VERTEX
100
AcDbVertex
100
AcDb2dVertex
  8
1
 10
23.677
 20
-0.067
  0
VERTEX
100
AcDbVertex
100
AcDb2dVertex
  8
1
 10
23.735
 20
-0.105
  0
VERTEX
100
AcDbVertex
100
AcDb2dVertex
  8
1
 10
23.796
 20
-0.139
  0
VERTEX
100
AcDbVertex
100
AcDb2dVertex
  8
1
 10
23.86
 20
-0.167
  0
VERTEX
100
AcDbVertex
100
AcDb2dVertex
  8
1
 10
23.926
 20
-0.19
  0
VERTEX
100
AcDbVertex
100
AcDb2dVertex
  8
1
 10
23.994
 20
-0.206
  0
VERTEX
100
AcDbVertex
100
AcDb2dVertex
  8
1
 10
24.063
 20
-0.217
  0
VERTEX
100
AcDbVertex
100
AcDb2dVertex
  8
1
 10
24.132
 20
-0.222
  0
VERTEX
100
AcDbVertex
100
AcDb2dVertex
  8
1
 10
24.202
 20
-0.22
  0
VERTEX
100
AcDbVertex
100
AcDb2dVertex
  8
1
 10
24.271
 20
-0.213
  0
VERTEX
100
AcDbVertex
100
AcDb2dVertex
  8
1
 10
24.34
 20
-0.199
  0
VERTEX
100
AcDbVertex
100
AcDb2dVertex
  8
1
 10
24.407
 20
-0.18
  0
VERTEX
100
AcDbVertex
100
AcDb2dVertex
  8
1
 10
24.415
 20
-0.177
  0
VERTEX
100
AcDbVertex
100
AcDb2dVertex
  8
1
 10
24.48
 20
-0.151
  0
VERTEX
100
AcDbVertex
100
AcDb2dVertex
  8
1
 10
24.542
 20
-0.119
  0
VERTEX
100
AcDbVertex
100
AcDb2dVertex
  8
1
 10
24.601
 20
-0.083
  0
VERTEX
100
AcDbVertex
100
AcDb2dVertex
  8
1
 10
24.657
 20
-0.041
  0
VERTEX
100
AcDbVertex
100
AcDb2dVertex
  8
1
 10
24.709
 20
0.006
  0
VERTEX
100
AcDbVertex
100
AcDb2dVertex
  8
1
 10
24.757
 20
0.057
  0
VERTEX
100
AcDbVertex
100
AcDb2dVertex
  8
1
 10
24.8
 20
0.112
  0
VERTEX
100
AcDbVertex
100
AcDb2dVertex
  8
1
 10
24.838
 20
0.17
  0
VERTEX
100
AcDbVertex
100
AcDb2dVertex
  8
1
 10
24.871
 20
0.232
  0
VERTEX
100
AcDbVertex
100
AcDb2dVertex
  8
1
 10
24.899
 20
0.296
  0
VERTEX
100
AcDbVertex
100
AcDb2dVertex
  8
1
 10
24.92
 20
0.362
  0
VERTEX
100
AcDbVertex
100
AcDb2dVertex
  8
1
 10
24.936
 20
0.43
  0
VERTEX
100
AcDbVertex
100
AcDb2dVertex
  8
1
 10
24.946
 20
0.499
  0
VERTEX
100
AcDbVertex
100
AcDb2dVertex
  8
1
 10
24.95
 20
0.569
  0
VERTEX
100
AcDbVertex
100
AcDb2dVertex
  8
1
 10
24.95
 20
0.578
  0
VERTEX
100
AcDbVertex
100
AcDb2dVertex
  8
1
 10
24.947
 20
0.648
  0
VERTEX
100
AcDbVertex
100
AcDb2dVertex
  8
1
 10
24.938
 20
0.717
  0
VERTEX
100
AcDbVertex
100
AcDb2dVertex
  8
1
 10
24.923
 20
0.785
  0
VERTEX
100
AcDbVertex
100
AcDb2dVertex
  8
1
 10
24.902
 20
0.852
  0
VERTEX
100
AcDbVertex
100
AcDb2dVertex
  8
1
 10
24.875
 20
0.916
  0
VERTEX
100
AcDbVertex
100
AcDb2dVertex
  8
1
 10
24.843
 20
0.978
  0
VERTEX
100
AcDbVertex
100
AcDb2dVertex
  8
1
 10
24.806
 20
1.037
  0
VERTEX
100
AcDbVertex
100
AcDb2dVertex
  8
1
 10
24.763
 20
1.092
  0
VERTEX
100
AcDbVertex
100
AcDb2dVertex
  8
1
 10
24.716
 20
1.144
  0
VERTEX
100
AcDbVertex
100
AcDb2dVertex
  8
1
 10
24.665
 20
1.191
  0
VERTEX
100
AcDbVertex
100
AcDb2dVertex
  8
1
 10
24.609
 20
1.233
  0
VERTEX
100
AcDbVertex
100
AcDb2dVertex
  8
1
 10
24.551
 20
1.271
  0
VERTEX
100
AcDbVertex
100
AcDb2dVertex
  8
1
 10
24.489
 20
1.303
  0
VERTEX
100
AcDbVertex
100
AcDb2dVertex
  8
1
 10
24.424
 20
1.33
  0
VERTEX
100
AcDbVertex
100
AcDb2dVertex
  8
1
 10
24.415
 20
1.333
  0
VERTEX
100
AcDbVertex
100
AcDb2dVertex
  8
1
 10
24.348
 20
1.353
  0
VERTEX
100
AcDbVertex
100
AcDb2dVertex
  8
1
 10
24.28
 20
1.368
  0
VERTEX
100
AcDbVertex
100
AcDb2dVertex
  8
1
 10
24.211
 20
1.376
  0
VERTEX
100
AcDbVertex
100
AcDb2dVertex
  8
1
 10
24.141
 20
1.378
  0
VERTEX
100
AcDbVertex
100
AcDb2dVertex
  8
1
 10
24.072
 20
1.374
  0
VERTEX
100
AcDbVertex
100
AcDb2dVertex
  8
1
 10
24.003
 20
1.364
  0
VERTEX
100
AcDbVertex
100
AcDb2dVertex
  8
1
 10
23.935
 20
1.348
  0
VERTEX
100
AcDbVertex
100
AcDb2dVertex
  8
1
 10
23.868
 20
1.327
  0
VERTEX
100
AcDbVertex
100
AcDb2dVertex
  8
1
 10
23.804
 20
1.299
  0
VERTEX
100
AcDbVertex
100
AcDb2dVertex
  8
1
 10
23.743
 20
1.266
  0
VERTEX
100
AcDbVertex
100
AcDb2dVertex
  8
1
 10
23.684
 20
1.228
  0
VERTEX
100
AcDbVertex
100
AcDb2dVertex
  8
1
 10
23.63
 20
1.185
  0
VERTEX
100
AcDbVertex
100
AcDb2dVertex
  8
1
 10
23.579
 20
1.137
  0
VERTEX
100
AcDbVertex
100
AcDb2dVertex
  8
1
 10
23.532
 20
1.086
  0
VERTEX
100
AcDbVertex
100
AcDb2dVertex
  8
1
 10
23.526
 20
1.078
  0
VERTEX
100
AcDbVertex
100
AcDb2dVertex
  8
1
 10
22.473
 20
1.078
  0
VERTEX
100
AcDbVertex
100
AcDb2dVertex
  8
1
 10
21.841
 20
0.549
  0
VERTEX
100
AcDbVertex
100
AcDb2dVertex
  8
1
 10
21.833
 20
0.723
  0
VERTEX
100
AcDbVertex
100
AcDb2dVertex
  8
1
 10
21.811
 20
0.896
  0
VERTEX
100
AcDbVertex
100
AcDb2dVertex
  8
1
 10
21.773
 20
1.067
  0
VERTEX
100
AcDbVertex
100
AcDb2dVertex
  8
1
 10
21.72
 20
1.233
  0
VERTEX
100
AcDbVertex
100
AcDb2dVertex
  8
1
 10
21.654
 20
1.394
  0
VERTEX
100
AcDbVertex
100
AcDb2dVertex
  8
1
 10
21.573
 20
1.549
  0
VERTEX
100
AcDbVertex
100
AcDb2dVertex
  8
1
 10
21.479
 20
1.696
  0
VERTEX
100
AcDbVertex
100
AcDb2dVertex
  8
1
 10
21.373
 20
1.835
  0
VERTEX
100
AcDbVertex
100
AcDb2dVertex
  8
1
 10
21.255
 20
1.963
  0
VERTEX
100
AcDbVertex
100
AcDb2dVertex
  8
1
 10
21.127
 20
2.081
  0
VERTEX
100
AcDbVertex
100
AcDb2dVertex
  8
1
 10
20.988
 20
2.187
  0
VERTEX
100
AcDbVertex
100
AcDb2dVertex
  8
1
 10
20.841
 20
2.281
  0
VERTEX
100
AcDbVertex
100
AcDb2dVertex
  8
1
 10
20.686
 20
2.362
  0
VERTEX
100
AcDbVertex
100
AcDb2dVertex
  8
1
 10
20.525
 20
2.428
  0
VERTEX
100
AcDbVertex
100
AcDb2dVertex
  8
1
 10
20.359
 20
2.481
  0
VERTEX
100
AcDbVertex
100
AcDb2dVertex
  8
1
 10
20.188
 20
2.519
  0
VERTEX
100
AcDbVertex
100
AcDb2dVertex
  8
1
 10
20.015
 20
2.541
  0
VERTEX
100
AcDbVertex
100
AcDb2dVertex
  8
1
 10
19.841
 20
2.549
  0
VERTEX
100
AcDbVertex
100
AcDb2dVertex
  8
1
 10
19.667
 20
2.541
  0
VERTEX
100
AcDbVertex
100
AcDb2dVertex
  8
1
 10
19.494
 20
2.519
  0
VERTEX
100
AcDbVertex
100
AcDb2dVertex
  8
1
 10
19.323
 20
2.481
  0
VERTEX
100
AcDbVertex
100
AcDb2dVertex
  8
1
 10
19.157
 20
2.428
  0
VERTEX
100
AcDbVertex
100
AcDb2dVertex
  8
1
 10
18.996
 20
2.362
  0
VERTEX
100
AcDbVertex
100
AcDb2dVertex
  8
1
 10
18.841
 20
2.281
  0
VERTEX
100
AcDbVertex
100
AcDb2dVertex
  8
1
 10
18.694
 20
2.187
  0
VERTEX
100
AcDbVertex
100
AcDb2dVertex
  8
1
 10
18.555
 20
2.081
  0
VERTEX
100
AcDbVertex
100
AcDb2dVertex
  8
1
 10
18.427
 20
1.963
  0
VERTEX
100
AcDbVertex
100
AcDb2dVertex
  8
1
 10
18.309
 20
1.835
  0
VERTEX
100
AcDbVertex
100
AcDb2dVertex
  8
1
 10
18.203
 20
1.696
  0
VERTEX
100
AcDbVertex
100
AcDb2dVertex
  8
1
 10
18.109
 20
1.549
  0
VERTEX
100
AcDbVertex
100
AcDb2dVertex
  8
1
 10
18.028
 20
1.394
  0
VERTEX
100
AcDbVertex
100
AcDb2dVertex
  8
1
 10
17.962
 20
1.233
  0
VERTEX
100
AcDbVertex
100
AcDb2dVertex
  8
1
 10
17.909
 20
1.067
  0
VERTEX
100
AcDbVertex
100
AcDb2dVertex
  8
1
 10
17.871
 20
0.896
  0
VERTEX
100
AcDbVertex
100
AcDb2dVertex
  8
1
 10
17.849
 20
0.723
  0
VERTEX
100
AcDbVertex
100
AcDb2dVertex
  8
1
 10
17.841
 20
0.549
  0
VERTEX
100
AcDbVertex
100
AcDb2dVertex
  8
1
 10
17.681
 20
0.549
  0
VERTEX
100
AcDbVertex
100
AcDb2dVertex
  8
1
 10
17.481
 20
0.349
  0
VERTEX
100
AcDbVertex
100
AcDb2dVertex
  8
1
 10
17.281
 20
0.549
  0
VERTEX
100
AcDbVertex
100
AcDb2dVertex
  8
1
 10
17.081
 20
0.349
  0
VERTEX
100
AcDbVertex
100
AcDb2dVertex
  8
1
 10
16.881
 20
0.549
  0
VERTEX
100
AcDbVertex
100
AcDb2dVertex
  8
1
 10
16.681
 20
0.349
  0
VERTEX
100
AcDbVertex
100
AcDb2dVertex
  8
1
 10
16.481
 20
0.549
  0
VERTEX
100
AcDbVertex
100
AcDb2dVertex
  8
1
 10
16.431
 20
0.5
  0
VERTEX
100
AcDbVertex
100
AcDb2dVertex
  8
1
 10
16.281
 20
0.349
  0
VERTEX
100
AcDbVertex
100
AcDb2dVertex
  8
1
 10
16.081
 20
0.549
  0
VERTEX
100
AcDbVertex
100
AcDb2dVertex
  8
1
 10
15.881
 20
0.349
  0
VERTEX
100
AcDbVertex
100
AcDb2dVertex
  8
1
 10
15.681
 20
0.549
  0
VERTEX
100
AcDbVertex
100
AcDb2dVertex
  8
1
 10
15.541
 20
0.549
  0
VERTEX
100
AcDbVertex
100
AcDb2dVertex
  8
1
 10
15.141
 20
1
  0
VERTEX
100
AcDbVertex
100
AcDb2dVertex
  8
1
 10
7.57
 20
11.692
  0
VERTEX
100
AcDbVertex
100
AcDb2dVertex
  8
1
 10
7.57
 20
9.962
  0
SEQEND
  0
ENDSEC
  0
EOF
