<?xml version="1.0" encoding="UTF-8" standalone="no"?>
<svg width="189.442mm" height="113.594mm"
 viewBox="0 0 537 322"
 xmlns="http://www.w3.org/2000/svg" xmlns:xlink="http://www.w3.org/1999/xlink"  version="1.2" baseProfile="tiny">
<title>Qt SVG Document</title>
<desc>MATLAB, The MathWorks, Inc. Version 25.1.0.2943329 R2025a</desc>
<defs>
</defs>
<g fill="none" stroke="black" stroke-width="1" fill-rule="evenodd" stroke-linecap="square" stroke-linejoin="bevel" >

<g fill="#ffffff" fill-opacity="1" stroke="none" transform="matrix(0.5,0,0,0.5,0,0)"
font-family="MS Shell Dlg 2" font-size="8" font-weight="400" font-style="normal" 
>
<path vector-effect="none" fill-rule="evenodd" d="M0,0 L1074,0 L1074,645 L0,645 L0,0"/>
</g>

<g fill="#ffffff" fill-opacity="1" stroke="none" transform="matrix(5e-05,0,0,5e-05,0,0)"
font-family="MS Shell Dlg 2" font-size="8" font-weight="400" font-style="normal" 
>
<path vector-effect="none" fill-rule="evenodd" d="M1.39e+06,270000 L1.39e+06,5.33e+06 L1.031e+07,5.33e+06 L1.031e+07,270000 L1.39e+06,270000"/>
</g>

<g fill="#212121" fill-opacity="0.14902" stroke="#212121" stroke-opacity="0.14902" stroke-width="1" stroke-linecap="butt" stroke-linejoin="round" transform="matrix(0.5,0,0,0.5,0,0)"
font-family="MS Shell Dlg 2" font-size="8" font-weight="400" font-style="normal" 
>
<polyline fill="none" vector-effect="none" points="139,27 139,533 " />
<polyline fill="none" vector-effect="none" points="585,27 585,533 " />
<polyline fill="none" vector-effect="none" points="1031,27 1031,533 " />
<polyline fill="none" vector-effect="none" points="139,533 1031,533 " />
<polyline fill="none" vector-effect="none" points="139,448.667 1031,448.667 " />
<polyline fill="none" vector-effect="none" points="139,364.333 1031,364.333 " />
<polyline fill="none" vector-effect="none" points="139,280 1031,280 " />
<polyline fill="none" vector-effect="none" points="139,195.667 1031,195.667 " />
<polyline fill="none" vector-effect="none" points="139,111.333 1031,111.333 " />
<polyline fill="none" vector-effect="none" points="139,27 1031,27 " />
</g>

<g fill="#212121" fill-opacity="1" stroke="none" transform="matrix(0.5,0,0,0.5,253.328,313.98)"
font-family="MS Shell Dlg 2" font-size="8" font-weight="400" font-style="normal" 
>
<path vector-effect="none" fill-rule="evenodd" d="M7.4375,0 L7.4375,-1.54688 C8.90625,-1.54688 10.3359,-1.63021 11.7266,-1.79688 C13.1172,-1.96354 13.8125,-2.34375 13.8125,-2.9375 L13.8125,-27.1094 C13.8125,-27.7448 13.638,-28.138 13.2891,-28.2891 C12.9401,-28.4401 12.3698,-28.5156 11.5781,-28.5156 L9.73438,-28.5156 C7.31771,-28.5156 5.59896,-27.9844 4.57813,-26.9219 C4.04688,-26.3906 3.66667,-25.5417 3.4375,-24.375 C3.20833,-23.2083 3.01563,-21.7448 2.85938,-19.9844 L1.59375,-19.9844 L2.42188,-30.0625 L29.3125,-30.0625 L30.1406,-19.9844 L28.8594,-19.9844 C28.6823,-21.8698 28.4896,-23.3672 28.2813,-24.4766 C28.0729,-25.5859 27.6979,-26.401 27.1563,-26.9219 C26.125,-27.9844 24.4063,-28.5156 22,-28.5156 L20.1563,-28.5156 C19.625,-28.5156 19.2135,-28.4922 18.9219,-28.4453 C18.6302,-28.3984 18.3906,-28.2734 18.2031,-28.0703 C18.0156,-27.8672 17.9219,-27.5469 17.9219,-27.1094 L17.9219,-2.9375 C17.9219,-2.34375 18.6172,-1.96354 20.0078,-1.79688 C21.3984,-1.63021 22.8229,-1.54688 24.2813,-1.54688 L24.2813,0 L7.4375,0"/>
</g>

<g fill="#212121" fill-opacity="1" stroke="none" transform="matrix(0.5,0,0,0.5,269.217,313.98)"
font-family="MS Shell Dlg 2" font-size="8" font-weight="400" font-style="normal" 
>
<path vector-effect="none" fill-rule="evenodd" d="M1.35938,0 L1.35938,-1.54688 C2.35938,-1.54688 3.18229,-1.625 3.82813,-1.78125 C4.47396,-1.9375 4.79688,-2.32292 4.79688,-2.9375 L4.79688,-14.9531 C4.79688,-16.0885 4.57813,-16.7839 4.14063,-17.0391 C3.70313,-17.2943 2.83854,-17.4219 1.54688,-17.4219 L1.54688,-18.9688 L7.89063,-19.4375 L7.89063,-2.9375 C7.89063,-2.32292 8.16927,-1.9375 8.72656,-1.78125 C9.28385,-1.625 10.026,-1.54688 10.9531,-1.54688 L10.9531,0 L1.35938,0 M3.21875,-27 C3.21875,-27.6458 3.46354,-28.2135 3.95313,-28.7031 C4.44271,-29.1927 5,-29.4375 5.625,-29.4375 C6.04167,-29.4375 6.44271,-29.3307 6.82813,-29.1172 C7.21354,-28.9036 7.51563,-28.6016 7.73438,-28.2109 C7.95313,-27.8203 8.0625,-27.4167 8.0625,-27 C8.0625,-26.375 7.81771,-25.8177 7.32813,-25.3281 C6.83854,-24.8385 6.27083,-24.5938 5.625,-24.5938 C5,-24.5938 4.44271,-24.8385 3.95313,-25.3281 C3.46354,-25.8177 3.21875,-26.375 3.21875,-27 "/>
</g>

<g fill="#212121" fill-opacity="1" stroke="none" transform="matrix(0.5,0,0,0.5,275.328,313.98)"
font-family="MS Shell Dlg 2" font-size="8" font-weight="400" font-style="normal" 
>
<path vector-effect="none" fill-rule="evenodd" d="M1.3125,0 L1.3125,-1.54688 C2.3125,-1.54688 3.13542,-1.625 3.78125,-1.78125 C4.42708,-1.9375 4.75,-2.32292 4.75,-2.9375 L4.75,-14.9531 C4.75,-15.7448 4.63281,-16.3151 4.39844,-16.6641 C4.16406,-17.013 3.82292,-17.2266 3.375,-17.3047 C2.92708,-17.3828 2.23958,-17.4219 1.3125,-17.4219 L1.3125,-18.9688 L7.6875,-19.4375 L7.6875,-15.1406 C8.28125,-16.401 9.15365,-17.4323 10.3047,-18.2344 C11.4557,-19.0365 12.7135,-19.4375 14.0781,-19.4375 C17.4531,-19.4375 19.4375,-18.0625 20.0313,-15.3125 C20.6146,-16.5521 21.4714,-17.5495 22.6016,-18.3047 C23.7318,-19.0599 24.9688,-19.4375 26.3125,-19.4375 C27.6458,-19.4375 28.7682,-19.224 29.6797,-18.7969 C30.5911,-18.3698 31.276,-17.7161 31.7344,-16.8359 C32.1927,-15.9557 32.4219,-14.849 32.4219,-13.5156 L32.4219,-2.9375 C32.4219,-2.32292 32.7474,-1.9375 33.3984,-1.78125 C34.0495,-1.625 34.8698,-1.54688 35.8594,-1.54688 L35.8594,0 L25.7813,0 L25.7813,-1.54688 C26.7813,-1.54688 27.6042,-1.625 28.25,-1.78125 C28.8958,-1.9375 29.2188,-2.32292 29.2188,-2.9375 L29.2188,-13.3906 C29.2188,-14.8594 29.0104,-16.0469 28.5938,-16.9531 C28.1771,-17.8594 27.3281,-18.3125 26.0469,-18.3125 C24.349,-18.3125 22.9505,-17.6302 21.8516,-16.2656 C20.7526,-14.901 20.2031,-13.3542 20.2031,-11.625 L20.2031,-2.9375 C20.2031,-2.32292 20.5234,-1.9375 21.1641,-1.78125 C21.8047,-1.625 22.6302,-1.54688 23.6406,-1.54688 L23.6406,0 L13.5625,0 L13.5625,-1.54688 C14.5625,-1.54688 15.3854,-1.625 16.0313,-1.78125 C16.6771,-1.9375 17,-2.32292 17,-2.9375 L17,-13.3906 C17,-14.8177 16.7917,-15.9948 16.375,-16.9219 C15.9583,-17.849 15.1042,-18.3125 13.8125,-18.3125 C12.1146,-18.3125 10.7161,-17.6302 9.61719,-16.2656 C8.51823,-14.901 7.96875,-13.3542 7.96875,-11.625 L7.96875,-2.9375 C7.96875,-2.32292 8.29167,-1.9375 8.9375,-1.78125 C9.58333,-1.625 10.401,-1.54688 11.3906,-1.54688 L11.3906,0 L1.3125,0"/>
</g>

<g fill="#212121" fill-opacity="1" stroke="none" transform="matrix(0.5,0,0,0.5,293.661,313.98)"
font-family="MS Shell Dlg 2" font-size="8" font-weight="400" font-style="normal" 
>
<path vector-effect="none" fill-rule="evenodd" d="M10.9531,0.5 C9.16146,0.5 7.51823,0.0286458 6.02344,-0.914063 C4.52865,-1.85677 3.35417,-3.11198 2.5,-4.67969 C1.64583,-6.2474 1.21875,-7.90104 1.21875,-9.64063 C1.21875,-11.3594 1.60938,-12.9922 2.39063,-14.5391 C3.17188,-16.0859 4.26042,-17.3359 5.65625,-18.2891 C7.05208,-19.2422 8.60938,-19.7188 10.3281,-19.7188 C11.6823,-19.7188 12.8568,-19.4948 13.8516,-19.0469 C14.8464,-18.599 15.6667,-17.974 16.3125,-17.1719 C16.9583,-16.3698 17.4453,-15.4245 17.7734,-14.3359 C18.1016,-13.2474 18.2656,-12.0521 18.2656,-10.75 C18.2656,-10.3542 18.1146,-10.1563 17.8125,-10.1563 L5.07813,-10.1563 L5.07813,-9.6875 C5.07813,-7.26042 5.56771,-5.17448 6.54688,-3.42969 C7.52604,-1.6849 9.125,-0.8125 11.3438,-0.8125 C12.25,-0.8125 13.0859,-1.01302 13.8516,-1.41406 C14.6172,-1.8151 15.2813,-2.3724 15.8438,-3.08594 C16.4063,-3.79948 16.7917,-4.5625 17,-5.375 C17.0208,-5.47917 17.0729,-5.57031 17.1563,-5.64844 C17.2396,-5.72656 17.3281,-5.76563 17.4219,-5.76563 L17.8125,-5.76563 C18.1146,-5.76563 18.2656,-5.57813 18.2656,-5.20313 C17.849,-3.54688 16.9531,-2.18229 15.5781,-1.10938 C14.2031,-0.0364583 12.6615,0.5 10.9531,0.5 M5.10938,-11.2656 L15.1406,-11.2656 C15.1406,-12.3594 14.987,-13.4714 14.6797,-14.6016 C14.3724,-15.7318 13.862,-16.6719 13.1484,-17.4219 C12.4349,-18.1719 11.4948,-18.5469 10.3281,-18.5469 C8.67188,-18.5469 7.38802,-17.7708 6.47656,-16.2188 C5.5651,-14.6667 5.10938,-13.0156 5.10938,-11.2656 "/>
</g>

<g fill="#212121" fill-opacity="1" stroke="none" transform="matrix(0.5,0,0,0.5,310.772,313.98)"
font-family="MS Shell Dlg 2" font-size="8" font-weight="400" font-style="normal" 
>
<path vector-effect="none" fill-rule="evenodd" d="M5.20313,11 L5.20313,-33 L11.2188,-33 L11.2188,-31.2344 L6.96875,-31.2344 L6.96875,9.23438 L11.2188,9.23438 L11.2188,11 L5.20313,11"/>
</g>

<g fill="#212121" fill-opacity="1" stroke="none" transform="matrix(0.5,0,0,0.5,316.883,313.98)"
font-family="MS Shell Dlg 2" font-size="8" font-weight="400" font-style="normal" 
>
<path vector-effect="none" fill-rule="evenodd" d="M1.46875,0.125 L1.46875,-7.0625 C1.46875,-7.29167 1.59375,-7.40625 1.84375,-7.40625 L2.39063,-7.40625 C2.55729,-7.40625 2.67188,-7.29167 2.73438,-7.0625 C3.54688,-2.8125 5.52083,-0.6875 8.65625,-0.6875 C10.0521,-0.6875 11.2188,-1.0026 12.1563,-1.63281 C13.0938,-2.26302 13.5625,-3.23958 13.5625,-4.5625 C13.5625,-5.5 13.1953,-6.30208 12.4609,-6.96875 C11.7266,-7.63542 10.8594,-8.09375 9.85938,-8.34375 L6.92188,-8.92188 C5.93229,-9.13021 5.03385,-9.45573 4.22656,-9.89844 C3.41927,-10.3411 2.75781,-10.9323 2.24219,-11.6719 C1.72656,-12.4115 1.46875,-13.2656 1.46875,-14.2344 C1.46875,-15.5156 1.80729,-16.5677 2.48438,-17.3906 C3.16146,-18.2135 4.04427,-18.8073 5.13281,-19.1719 C6.22135,-19.5365 7.39583,-19.7188 8.65625,-19.7188 C10.1667,-19.7188 11.4792,-19.3281 12.5938,-18.5469 L13.8594,-19.6094 C13.8594,-19.6823 13.9323,-19.7188 14.0781,-19.7188 L14.3906,-19.7188 C14.4844,-19.7188 14.5651,-19.6797 14.6328,-19.6016 C14.7005,-19.5234 14.7344,-19.4427 14.7344,-19.3594 L14.7344,-13.625 C14.7344,-13.3542 14.6198,-13.2188 14.3906,-13.2188 L13.8594,-13.2188 C13.599,-13.2188 13.4688,-13.3542 13.4688,-13.625 C13.4688,-15.1563 13.0443,-16.388 12.1953,-17.3203 C11.3464,-18.2526 10.151,-18.7188 8.60938,-18.7188 C7.29688,-18.7188 6.15625,-18.474 5.1875,-17.9844 C4.21875,-17.4948 3.73438,-16.6563 3.73438,-15.4688 C3.73438,-14.6563 4.08333,-13.987 4.78125,-13.4609 C5.47917,-12.9349 6.29167,-12.5573 7.21875,-12.3281 L10.2031,-11.7813 C11.2031,-11.5417 12.138,-11.151 13.0078,-10.6094 C13.8776,-10.0677 14.5651,-9.38021 15.0703,-8.54688 C15.5755,-7.71354 15.8281,-6.77083 15.8281,-5.71875 C15.8281,-4.66667 15.6458,-3.7474 15.2813,-2.96094 C14.9167,-2.17448 14.4089,-1.52344 13.7578,-1.00781 C13.1068,-0.492188 12.3385,-0.111979 11.4531,0.132813 C10.5677,0.377604 9.63542,0.5 8.65625,0.5 C6.82292,0.5 5.25521,-0.125 3.95313,-1.375 L2.34375,0.390625 C2.34375,0.463542 2.26563,0.5 2.10938,0.5 L1.84375,0.5 C1.59375,0.5 1.46875,0.375 1.46875,0.125 "/>
</g>

<g fill="#212121" fill-opacity="1" stroke="none" transform="matrix(0.5,0,0,0.5,325.561,313.98)"
font-family="MS Shell Dlg 2" font-size="8" font-weight="400" font-style="normal" 
>
<path vector-effect="none" fill-rule="evenodd" d="M0.96875,11 L0.96875,9.23438 L5.25,9.23438 L5.25,-31.2344 L0.96875,-31.2344 L0.96875,-33 L7,-33 L7,11 L0.96875,11"/>
</g>

<g fill="#212121" fill-opacity="1" stroke="#212121" stroke-opacity="1" stroke-width="1" stroke-linecap="square" stroke-linejoin="round" transform="matrix(0.5,0,0,0.5,0,0)"
font-family="MS Shell Dlg 2" font-size="8" font-weight="400" font-style="normal" 
>
<polyline fill="none" vector-effect="none" points="139,533 1031,533 " />
<polyline fill="none" vector-effect="none" points="139,27 1031,27 " />
<polyline fill="none" vector-effect="none" points="139,533 139,524.08 " />
<polyline fill="none" vector-effect="none" points="139,35.92 139,27 " />
<polyline fill="none" vector-effect="none" points="585,533 585,524.08 " />
<polyline fill="none" vector-effect="none" points="585,35.92 585,27 " />
<polyline fill="none" vector-effect="none" points="1031,533 1031,524.08 " />
<polyline fill="none" vector-effect="none" points="1031,35.92 1031,27 " />
</g>

<g fill="#212121" fill-opacity="1" stroke="none" transform="matrix(0.5,0,0,0.5,64,291)"
font-family="MS Shell Dlg 2" font-size="8" font-weight="400" font-style="normal" 
>
<path vector-effect="none" fill-rule="evenodd" d="M1.65625,-7.5 L5.35938,-7.8125 C5.63021,-6.02083 6.26302,-4.67188 7.25781,-3.76563 C8.2526,-2.85938 9.45313,-2.40625 10.8594,-2.40625 C12.5573,-2.40625 13.9922,-3.04427 15.1641,-4.32031 C16.3359,-5.59635 16.9219,-7.28646 16.9219,-9.39063 C16.9219,-11.401 16.3568,-12.9844 15.2266,-14.1406 C14.0964,-15.2969 12.6198,-15.875 10.7969,-15.875 C9.67188,-15.875 8.65365,-15.6198 7.74219,-15.1094 C6.83073,-14.599 6.11458,-13.9323 5.59375,-13.1094 L2.28125,-13.5313 L5.0625,-28.25 L19.2969,-28.25 L19.2969,-24.8906 L7.875,-24.8906 L6.32813,-17.1875 C8.04688,-18.3854 9.84896,-18.9844 11.7344,-18.9844 C14.2344,-18.9844 16.3438,-18.1198 18.0625,-16.3906 C19.7813,-14.6615 20.6406,-12.4323 20.6406,-9.70313 C20.6406,-7.11979 19.8854,-4.88021 18.375,-2.98438 C16.5417,-0.671875 14.0365,0.484375 10.8594,0.484375 C8.25521,0.484375 6.13021,-0.244792 4.48438,-1.70313 C2.83854,-3.16146 1.89583,-5.09375 1.65625,-7.5 "/>
</g>

<g fill="#212121" fill-opacity="1" stroke="none" transform="matrix(0.5,0,0,0.5,281.5,291)"
font-family="MS Shell Dlg 2" font-size="8" font-weight="400" font-style="normal" 
>
<path vector-effect="none" fill-rule="evenodd" d="M14.9063,0 L11.3906,0 L11.3906,-22.4063 C10.5469,-21.5938 9.4375,-20.7839 8.0625,-19.9766 C6.6875,-19.1693 5.45313,-18.5677 4.35938,-18.1719 L4.35938,-21.5625 C6.32813,-22.4896 8.04688,-23.6094 9.51563,-24.9219 C10.9844,-26.2344 12.026,-27.5104 12.6406,-28.75 L14.9063,-28.75 L14.9063,0 M23.6563,-14.125 C23.6563,-17.5104 24.0052,-20.2344 24.7031,-22.2969 C25.401,-24.3594 26.4375,-25.9505 27.8125,-27.0703 C29.1875,-28.1901 30.9167,-28.75 33,-28.75 C34.5313,-28.75 35.8776,-28.4401 37.0391,-27.8203 C38.2005,-27.2005 39.1589,-26.3099 39.9141,-25.1484 C40.6693,-23.987 41.2604,-22.5677 41.6875,-20.8906 C42.1146,-19.2135 42.3281,-16.9583 42.3281,-14.125 C42.3281,-10.7604 41.9844,-8.04688 41.2969,-5.98438 C40.6094,-3.92188 39.5781,-2.32813 38.2031,-1.20313 C36.8281,-0.078125 35.0938,0.484375 33,0.484375 C30.2396,0.484375 28.0729,-0.505208 26.5,-2.48438 C24.6042,-4.86979 23.6563,-8.75 23.6563,-14.125 M27.2813,-14.125 C27.2813,-9.42708 27.8307,-6.29948 28.9297,-4.74219 C30.0286,-3.1849 31.3854,-2.40625 33,-2.40625 C34.6146,-2.40625 35.9714,-3.1875 37.0703,-4.75 C38.1693,-6.3125 38.7188,-9.4375 38.7188,-14.125 C38.7188,-18.8333 38.1693,-21.9635 37.0703,-23.5156 C35.9714,-25.0677 34.599,-25.8438 32.9531,-25.8438 C31.3385,-25.8438 30.0521,-25.1615 29.0938,-23.7969 C27.8854,-22.0469 27.2813,-18.8229 27.2813,-14.125 "/>
</g>

<g fill="#212121" fill-opacity="1" stroke="none" transform="matrix(0.5,0,0,0.5,504.5,291)"
font-family="MS Shell Dlg 2" font-size="8" font-weight="400" font-style="normal" 
>
<path vector-effect="none" fill-rule="evenodd" d="M14.9063,0 L11.3906,0 L11.3906,-22.4063 C10.5469,-21.5938 9.4375,-20.7839 8.0625,-19.9766 C6.6875,-19.1693 5.45313,-18.5677 4.35938,-18.1719 L4.35938,-21.5625 C6.32813,-22.4896 8.04688,-23.6094 9.51563,-24.9219 C10.9844,-26.2344 12.026,-27.5104 12.6406,-28.75 L14.9063,-28.75 L14.9063,0 M23.6563,-7.5 L27.3594,-7.8125 C27.6302,-6.02083 28.263,-4.67188 29.2578,-3.76563 C30.2526,-2.85938 31.4531,-2.40625 32.8594,-2.40625 C34.5573,-2.40625 35.9922,-3.04427 37.1641,-4.32031 C38.3359,-5.59635 38.9219,-7.28646 38.9219,-9.39063 C38.9219,-11.401 38.3568,-12.9844 37.2266,-14.1406 C36.0964,-15.2969 34.6198,-15.875 32.7969,-15.875 C31.6719,-15.875 30.6536,-15.6198 29.7422,-15.1094 C28.8307,-14.599 28.1146,-13.9323 27.5938,-13.1094 L24.2813,-13.5313 L27.0625,-28.25 L41.2969,-28.25 L41.2969,-24.8906 L29.875,-24.8906 L28.3281,-17.1875 C30.0469,-18.3854 31.849,-18.9844 33.7344,-18.9844 C36.2344,-18.9844 38.3438,-18.1198 40.0625,-16.3906 C41.7813,-14.6615 42.6406,-12.4323 42.6406,-9.70313 C42.6406,-7.11979 41.8854,-4.88021 40.375,-2.98438 C38.5417,-0.671875 36.0365,0.484375 32.8594,0.484375 C30.2552,0.484375 28.1302,-0.244792 26.4844,-1.70313 C24.8385,-3.16146 23.8958,-5.09375 23.6563,-7.5 "/>
</g>

<g fill="#212121" fill-opacity="1" stroke="none" transform="matrix(0,-0.5,0.5,0,30.0799,224.731)"
font-family="MS Shell Dlg 2" font-size="8" font-weight="400" font-style="normal" 
>
<path vector-effect="none" fill-rule="evenodd" d="M1.42188,0 L1.42188,-1.54688 C4.03646,-1.54688 5.64583,-2.41146 6.25,-4.14063 L15.4844,-31.0313 C15.5781,-31.3438 15.8177,-31.5 16.2031,-31.5 L16.7656,-31.5 C17.151,-31.5 17.3854,-31.3438 17.4688,-31.0313 L27.1094,-2.9375 C27.3802,-2.32292 27.901,-1.9375 28.6719,-1.78125 C29.4427,-1.625 30.401,-1.54688 31.5469,-1.54688 L31.5469,0 L19.2656,0 L19.2656,-1.54688 C21.7031,-1.54688 22.9219,-1.9375 22.9219,-2.71875 L22.9219,-2.9375 L20.5469,-9.79688 L9.85938,-9.79688 L7.89063,-4.14063 C7.85938,-4.03646 7.84375,-3.88542 7.84375,-3.6875 C7.84375,-2.95833 8.1901,-2.41927 8.88281,-2.07031 C9.57552,-1.72135 10.3229,-1.54688 11.125,-1.54688 L11.125,0 L1.42188,0 M10.375,-11.3438 L20.0313,-11.3438 L15.1875,-25.3906 L10.375,-11.3438"/>
</g>

<g fill="#212121" fill-opacity="1" stroke="none" transform="matrix(0,-0.5,0.5,0,30.0799,208.231)"
font-family="MS Shell Dlg 2" font-size="8" font-weight="400" font-style="normal" 
>
<path vector-effect="none" fill-rule="evenodd" d="M10.75,0 L4.3125,-16.1563 C4.04167,-16.6979 3.625,-17.0443 3.0625,-17.1953 C2.5,-17.3464 1.76042,-17.4219 0.84375,-17.4219 L0.84375,-18.9688 L10.0781,-18.9688 L10.0781,-17.4219 C8.43229,-17.4219 7.60938,-17.0729 7.60938,-16.375 C7.60938,-16.2604 7.625,-16.1719 7.65625,-16.1094 L12.5938,-3.70313 L17.0313,-14.9063 C17.125,-15.1354 17.1719,-15.375 17.1719,-15.625 C17.1719,-16.1771 16.9609,-16.6146 16.5391,-16.9375 C16.1172,-17.2604 15.6198,-17.4219 15.0469,-17.4219 L15.0469,-18.9688 L22.3438,-18.9688 L22.3438,-17.4219 C21.4375,-17.4219 20.6458,-17.2135 19.9688,-16.7969 C19.2917,-16.3802 18.7656,-15.7656 18.3906,-14.9531 L12.4688,0 C12.3542,0.333333 12.1146,0.5 11.75,0.5 L11.4375,0.5 C11.0729,0.5 10.8438,0.333333 10.75,0 "/>
</g>

<g fill="#212121" fill-opacity="1" stroke="none" transform="matrix(0,-0.5,0.5,0,30.0799,197.231)"
font-family="MS Shell Dlg 2" font-size="8" font-weight="400" font-style="normal" 
>
<path vector-effect="none" fill-rule="evenodd" d="M10.9531,0.5 C9.16146,0.5 7.51823,0.0286458 6.02344,-0.914063 C4.52865,-1.85677 3.35417,-3.11198 2.5,-4.67969 C1.64583,-6.2474 1.21875,-7.90104 1.21875,-9.64063 C1.21875,-11.3594 1.60938,-12.9922 2.39063,-14.5391 C3.17188,-16.0859 4.26042,-17.3359 5.65625,-18.2891 C7.05208,-19.2422 8.60938,-19.7188 10.3281,-19.7188 C11.6823,-19.7188 12.8568,-19.4948 13.8516,-19.0469 C14.8464,-18.599 15.6667,-17.974 16.3125,-17.1719 C16.9583,-16.3698 17.4453,-15.4245 17.7734,-14.3359 C18.1016,-13.2474 18.2656,-12.0521 18.2656,-10.75 C18.2656,-10.3542 18.1146,-10.1563 17.8125,-10.1563 L5.07813,-10.1563 L5.07813,-9.6875 C5.07813,-7.26042 5.56771,-5.17448 6.54688,-3.42969 C7.52604,-1.6849 9.125,-0.8125 11.3438,-0.8125 C12.25,-0.8125 13.0859,-1.01302 13.8516,-1.41406 C14.6172,-1.8151 15.2813,-2.3724 15.8438,-3.08594 C16.4063,-3.79948 16.7917,-4.5625 17,-5.375 C17.0208,-5.47917 17.0729,-5.57031 17.1563,-5.64844 C17.2396,-5.72656 17.3281,-5.76563 17.4219,-5.76563 L17.8125,-5.76563 C18.1146,-5.76563 18.2656,-5.57813 18.2656,-5.20313 C17.849,-3.54688 16.9531,-2.18229 15.5781,-1.10938 C14.2031,-0.0364583 12.6615,0.5 10.9531,0.5 M5.10938,-11.2656 L15.1406,-11.2656 C15.1406,-12.3594 14.987,-13.4714 14.6797,-14.6016 C14.3724,-15.7318 13.862,-16.6719 13.1484,-17.4219 C12.4349,-18.1719 11.4948,-18.5469 10.3281,-18.5469 C8.67188,-18.5469 7.38802,-17.7708 6.47656,-16.2188 C5.5651,-14.6667 5.10938,-13.0156 5.10938,-11.2656 "/>
</g>

<g fill="#212121" fill-opacity="1" stroke="none" transform="matrix(0,-0.5,0.5,0,30.0799,187.453)"
font-family="MS Shell Dlg 2" font-size="8" font-weight="400" font-style="normal" 
>
<path vector-effect="none" fill-rule="evenodd" d="M1.14063,0 L1.14063,-1.54688 C2.14063,-1.54688 2.96354,-1.625 3.60938,-1.78125 C4.25521,-1.9375 4.57813,-2.32292 4.57813,-2.9375 L4.57813,-14.9531 C4.57813,-15.7448 4.46094,-16.3151 4.22656,-16.6641 C3.99219,-17.013 3.65104,-17.2266 3.20313,-17.3047 C2.75521,-17.3828 2.06771,-17.4219 1.14063,-17.4219 L1.14063,-18.9688 L7.4375,-19.4375 L7.4375,-15.1406 C7.90625,-16.4219 8.57813,-17.4583 9.45313,-18.25 C10.3281,-19.0417 11.3906,-19.4375 12.6406,-19.4375 C13.5052,-19.4375 14.2813,-19.1797 14.9688,-18.6641 C15.6563,-18.1484 16,-17.4688 16,-16.625 C16,-16.0938 15.8125,-15.6328 15.4375,-15.2422 C15.0625,-14.8516 14.5938,-14.6563 14.0313,-14.6563 C13.4896,-14.6563 13.0234,-14.849 12.6328,-15.2344 C12.2422,-15.6198 12.0469,-16.0833 12.0469,-16.625 C12.0469,-17.4167 12.3281,-17.9792 12.8906,-18.3125 L12.6406,-18.3125 C11.4427,-18.3125 10.4688,-17.8828 9.71875,-17.0234 C8.96875,-16.1641 8.4375,-15.0964 8.125,-13.8203 C7.8125,-12.5443 7.65625,-11.3229 7.65625,-10.1563 L7.65625,-2.9375 C7.65625,-2.01042 9.07813,-1.54688 11.9219,-1.54688 L11.9219,0 L1.14063,0"/>
</g>

<g fill="#212121" fill-opacity="1" stroke="none" transform="matrix(0,-0.5,0.5,0,30.0799,178.836)"
font-family="MS Shell Dlg 2" font-size="8" font-weight="400" font-style="normal" 
>
<path vector-effect="none" fill-rule="evenodd" d="M1.76563,-4.3125 C1.76563,-6.0625 2.45313,-7.48698 3.82813,-8.58594 C5.20313,-9.6849 6.85417,-10.4583 8.78125,-10.9063 C10.7083,-11.3542 12.5365,-11.5781 14.2656,-11.5781 L14.2656,-13.375 C14.2656,-14.2188 14.0807,-15.0365 13.7109,-15.8281 C13.3411,-16.6198 12.8047,-17.2708 12.1016,-17.7813 C11.3984,-18.2917 10.625,-18.5469 9.78125,-18.5469 C7.83333,-18.5469 6.34896,-18.1094 5.32813,-17.2344 C5.89063,-17.2344 6.35417,-17.0234 6.71875,-16.6016 C7.08333,-16.1797 7.26563,-15.6927 7.26563,-15.1406 C7.26563,-14.5573 7.05729,-14.0573 6.64063,-13.6406 C6.22396,-13.224 5.72917,-13.0156 5.15625,-13.0156 C4.57292,-13.0156 4.07292,-13.224 3.65625,-13.6406 C3.23958,-14.0573 3.03125,-14.5573 3.03125,-15.1406 C3.03125,-16.6927 3.73177,-17.8438 5.13281,-18.5938 C6.53385,-19.3438 8.08333,-19.7188 9.78125,-19.7188 C10.9688,-19.7188 12.1641,-19.4661 13.3672,-18.9609 C14.5703,-18.4557 15.5547,-17.7292 16.3203,-16.7813 C17.0859,-15.8333 17.4688,-14.7344 17.4688,-13.4844 L17.4688,-3.57813 C17.4688,-3.01563 17.5911,-2.49479 17.8359,-2.01563 C18.0807,-1.53646 18.4583,-1.29688 18.9688,-1.29688 C19.4583,-1.29688 19.8203,-1.53646 20.0547,-2.01563 C20.2891,-2.49479 20.4063,-3.01042 20.4063,-3.5625 L20.4063,-6.35938 L21.7031,-6.35938 L21.7031,-3.54688 C21.7031,-2.89063 21.5313,-2.26823 21.1875,-1.67969 C20.8438,-1.09115 20.3802,-0.619792 19.7969,-0.265625 C19.2135,0.0885417 18.5885,0.265625 17.9219,0.265625 C17.0573,0.265625 16.3151,-0.0703125 15.6953,-0.742188 C15.0755,-1.41406 14.7292,-2.21354 14.6563,-3.14063 C14.1146,-2.02604 13.3125,-1.14063 12.25,-0.484375 C11.1875,0.171875 10.0573,0.5 8.85938,0.5 C7.73438,0.5 6.63281,0.333333 5.55469,0 C4.47656,-0.333333 3.57552,-0.854167 2.85156,-1.5625 C2.1276,-2.27083 1.76563,-3.1875 1.76563,-4.3125 M5.32813,-4.32813 C5.32813,-3.29688 5.70833,-2.43229 6.46875,-1.73438 C7.22917,-1.03646 8.125,-0.6875 9.15625,-0.6875 C10.1042,-0.6875 10.9635,-0.921875 11.7344,-1.39063 C12.5052,-1.85938 13.1198,-2.5 13.5781,-3.3125 C14.0365,-4.125 14.2656,-4.98438 14.2656,-5.89063 L14.2656,-10.4375 C12.9323,-10.4375 11.5677,-10.2214 10.1719,-9.78906 C8.77604,-9.35677 7.61979,-8.67708 6.70313,-7.75 C5.78646,-6.82292 5.32813,-5.68229 5.32813,-4.32813 "/>
</g>

<g fill="#212121" fill-opacity="1" stroke="none" transform="matrix(0,-0.5,0.5,0,30.0799,167.836)"
font-family="MS Shell Dlg 2" font-size="8" font-weight="400" font-style="normal" 
>
<path vector-effect="none" fill-rule="evenodd" d="M1.21875,3.4375 C1.21875,2.39583 1.59896,1.48438 2.35938,0.703125 C3.11979,-0.078125 4.02604,-0.635417 5.07813,-0.96875 C4.48438,-1.41667 4.03385,-1.97656 3.72656,-2.64844 C3.41927,-3.32031 3.26563,-4.03646 3.26563,-4.79688 C3.26563,-6.17188 3.70313,-7.38542 4.57813,-8.4375 C3.23438,-9.76042 2.5625,-11.276 2.5625,-12.9844 C2.5625,-13.901 2.75781,-14.7604 3.14844,-15.5625 C3.53906,-16.3646 4.08594,-17.0573 4.78906,-17.6406 C5.49219,-18.224 6.27344,-18.6693 7.13281,-18.9766 C7.99219,-19.2839 8.875,-19.4375 9.78125,-19.4375 C11.5208,-19.4375 13.0885,-18.9323 14.4844,-17.9219 C15.0885,-18.5677 15.8021,-19.0651 16.625,-19.4141 C17.4479,-19.763 18.3021,-19.9375 19.1875,-19.9375 C19.8125,-19.9375 20.3255,-19.7109 20.7266,-19.2578 C21.1276,-18.8047 21.3281,-18.2656 21.3281,-17.6406 C21.3281,-17.2865 21.1927,-16.9714 20.9219,-16.6953 C20.651,-16.4193 20.3385,-16.2813 19.9844,-16.2813 C19.6094,-16.2813 19.2865,-16.4193 19.0156,-16.6953 C18.7448,-16.9714 18.6094,-17.2865 18.6094,-17.6406 C18.6094,-18.1823 18.7865,-18.5625 19.1406,-18.7813 C17.6198,-18.7813 16.3177,-18.2552 15.2344,-17.2031 C15.7656,-16.6823 16.1927,-16.0365 16.5156,-15.2656 C16.8385,-14.4948 17,-13.7344 17,-12.9844 C17,-11.7344 16.6563,-10.612 15.9688,-9.61719 C15.2813,-8.6224 14.375,-7.84896 13.25,-7.29688 C12.125,-6.74479 10.9688,-6.46875 9.78125,-6.46875 C8.17708,-6.46875 6.70833,-6.90625 5.375,-7.78125 C4.95833,-7.20833 4.75,-6.5625 4.75,-5.84375 C4.75,-5.07292 5.00521,-4.39583 5.51563,-3.8125 C6.02604,-3.22917 6.66667,-2.9375 7.4375,-2.9375 L11.0469,-2.9375 C12.7969,-2.9375 14.3724,-2.78125 15.7734,-2.46875 C17.1745,-2.15625 18.3516,-1.52604 19.3047,-0.578125 C20.2578,0.369792 20.7344,1.70833 20.7344,3.4375 C20.7344,4.72917 20.1901,5.79948 19.1016,6.64844 C18.013,7.4974 16.7135,8.11198 15.2031,8.49219 C13.6927,8.8724 12.2917,9.0625 11,9.0625 C9.69792,9.0625 8.28646,8.8724 6.76563,8.49219 C5.24479,8.11198 3.9401,7.4974 2.85156,6.64844 C1.76302,5.79948 1.21875,4.72917 1.21875,3.4375 M3.70313,3.4375 C3.70313,4.42708 4.10417,5.25521 4.90625,5.92188 C5.70833,6.58854 6.67448,7.08333 7.80469,7.40625 C8.9349,7.72917 10,7.89063 11,7.89063 C11.9896,7.89063 13.0495,7.72917 14.1797,7.40625 C15.3099,7.08333 16.2734,6.58854 17.0703,5.92188 C17.8672,5.25521 18.2656,4.42708 18.2656,3.4375 C18.2656,1.90625 17.5625,0.914063 16.1563,0.460938 C14.75,0.0078125 13.0469,-0.21875 11.0469,-0.21875 L7.4375,-0.21875 C6.76042,-0.21875 6.14063,-0.0572917 5.57813,0.265625 C5.01563,0.588542 4.5625,1.04167 4.21875,1.625 C3.875,2.20833 3.70313,2.8125 3.70313,3.4375 M9.78125,-7.65625 C12.2708,-7.65625 13.5156,-9.43229 13.5156,-12.9844 C13.5156,-14.5156 13.25,-15.7786 12.7188,-16.7734 C12.1875,-17.7682 11.2083,-18.2656 9.78125,-18.2656 C8.34375,-18.2656 7.35938,-17.7682 6.82813,-16.7734 C6.29688,-15.7786 6.03125,-14.5156 6.03125,-12.9844 C6.03125,-12.0052 6.13281,-11.1224 6.33594,-10.3359 C6.53906,-9.54948 6.91146,-8.90625 7.45313,-8.40625 C7.99479,-7.90625 8.77083,-7.65625 9.78125,-7.65625 "/>
</g>

<g fill="#212121" fill-opacity="1" stroke="none" transform="matrix(0,-0.5,0.5,0,30.0799,156.836)"
font-family="MS Shell Dlg 2" font-size="8" font-weight="400" font-style="normal" 
>
<path vector-effect="none" fill-rule="evenodd" d="M10.9531,0.5 C9.16146,0.5 7.51823,0.0286458 6.02344,-0.914063 C4.52865,-1.85677 3.35417,-3.11198 2.5,-4.67969 C1.64583,-6.2474 1.21875,-7.90104 1.21875,-9.64063 C1.21875,-11.3594 1.60938,-12.9922 2.39063,-14.5391 C3.17188,-16.0859 4.26042,-17.3359 5.65625,-18.2891 C7.05208,-19.2422 8.60938,-19.7188 10.3281,-19.7188 C11.6823,-19.7188 12.8568,-19.4948 13.8516,-19.0469 C14.8464,-18.599 15.6667,-17.974 16.3125,-17.1719 C16.9583,-16.3698 17.4453,-15.4245 17.7734,-14.3359 C18.1016,-13.2474 18.2656,-12.0521 18.2656,-10.75 C18.2656,-10.3542 18.1146,-10.1563 17.8125,-10.1563 L5.07813,-10.1563 L5.07813,-9.6875 C5.07813,-7.26042 5.56771,-5.17448 6.54688,-3.42969 C7.52604,-1.6849 9.125,-0.8125 11.3438,-0.8125 C12.25,-0.8125 13.0859,-1.01302 13.8516,-1.41406 C14.6172,-1.8151 15.2813,-2.3724 15.8438,-3.08594 C16.4063,-3.79948 16.7917,-4.5625 17,-5.375 C17.0208,-5.47917 17.0729,-5.57031 17.1563,-5.64844 C17.2396,-5.72656 17.3281,-5.76563 17.4219,-5.76563 L17.8125,-5.76563 C18.1146,-5.76563 18.2656,-5.57813 18.2656,-5.20313 C17.849,-3.54688 16.9531,-2.18229 15.5781,-1.10938 C14.2031,-0.0364583 12.6615,0.5 10.9531,0.5 M5.10938,-11.2656 L15.1406,-11.2656 C15.1406,-12.3594 14.987,-13.4714 14.6797,-14.6016 C14.3724,-15.7318 13.862,-16.6719 13.1484,-17.4219 C12.4349,-18.1719 11.4948,-18.5469 10.3281,-18.5469 C8.67188,-18.5469 7.38802,-17.7708 6.47656,-16.2188 C5.5651,-14.6667 5.10938,-13.0156 5.10938,-11.2656 "/>
</g>

<g fill="#212121" fill-opacity="1" stroke="none" transform="matrix(0,-0.5,0.5,0,30.0799,139.725)"
font-family="MS Shell Dlg 2" font-size="8" font-weight="400" font-style="normal" 
>
<path vector-effect="none" fill-rule="evenodd" d="M1.14063,0 L1.14063,-1.54688 C4.30729,-1.54688 5.89063,-2.01042 5.89063,-2.9375 L5.89063,-27.1094 C5.89063,-28.0469 4.30729,-28.5156 1.14063,-28.5156 L1.14063,-30.0625 L14.7344,-30.0625 L14.7344,-28.5156 C11.5677,-28.5156 9.98438,-28.0469 9.98438,-27.1094 L9.98438,-2.9375 C9.98438,-2.01042 11.5677,-1.54688 14.7344,-1.54688 L14.7344,0 L1.14063,0"/>
</g>

<g fill="#212121" fill-opacity="1" stroke="none" transform="matrix(0,-0.5,0.5,0,30.0799,131.781)"
font-family="MS Shell Dlg 2" font-size="8" font-weight="400" font-style="normal" 
>
<path vector-effect="none" fill-rule="evenodd" d="M1.3125,0 L1.3125,-1.54688 C2.3125,-1.54688 3.13542,-1.625 3.78125,-1.78125 C4.42708,-1.9375 4.75,-2.32292 4.75,-2.9375 L4.75,-14.9531 C4.75,-15.7448 4.63281,-16.3151 4.39844,-16.6641 C4.16406,-17.013 3.82292,-17.2266 3.375,-17.3047 C2.92708,-17.3828 2.23958,-17.4219 1.3125,-17.4219 L1.3125,-18.9688 L7.6875,-19.4375 L7.6875,-15.1406 C8.28125,-16.401 9.15365,-17.4323 10.3047,-18.2344 C11.4557,-19.0365 12.7135,-19.4375 14.0781,-19.4375 C16.1094,-19.4375 17.638,-18.9505 18.6641,-17.9766 C19.6901,-17.0026 20.2031,-15.5156 20.2031,-13.5156 L20.2031,-2.9375 C20.2031,-2.32292 20.5234,-1.9375 21.1641,-1.78125 C21.8047,-1.625 22.6302,-1.54688 23.6406,-1.54688 L23.6406,0 L13.5625,0 L13.5625,-1.54688 C14.5625,-1.54688 15.3854,-1.625 16.0313,-1.78125 C16.6771,-1.9375 17,-2.32292 17,-2.9375 L17,-13.3906 C17,-14.8177 16.7917,-15.9948 16.375,-16.9219 C15.9583,-17.849 15.1042,-18.3125 13.8125,-18.3125 C12.1146,-18.3125 10.7161,-17.6302 9.61719,-16.2656 C8.51823,-14.901 7.96875,-13.3542 7.96875,-11.625 L7.96875,-2.9375 C7.96875,-2.32292 8.29167,-1.9375 8.9375,-1.78125 C9.58333,-1.625 10.401,-1.54688 11.3906,-1.54688 L11.3906,0 L1.3125,0"/>
</g>

<g fill="#212121" fill-opacity="1" stroke="none" transform="matrix(0,-0.5,0.5,0,30.0799,120.169)"
font-family="MS Shell Dlg 2" font-size="8" font-weight="400" font-style="normal" 
>
<path vector-effect="none" fill-rule="evenodd" d="M4.48438,-5.28125 L4.48438,-17.4219 L0.84375,-17.4219 L0.84375,-18.5625 C2.76042,-18.5625 4.16927,-19.4583 5.07031,-21.25 C5.97135,-23.0417 6.42188,-24.9844 6.42188,-27.0781 L7.6875,-27.0781 L7.6875,-18.9688 L13.9063,-18.9688 L13.9063,-17.4219 L7.6875,-17.4219 L7.6875,-5.39063 C7.6875,-4.17188 7.89323,-3.10417 8.30469,-2.1875 C8.71615,-1.27083 9.44792,-0.8125 10.5,-0.8125 C11.5104,-0.8125 12.237,-1.29688 12.6797,-2.26563 C13.1224,-3.23438 13.3438,-4.27604 13.3438,-5.39063 L13.3438,-7.98438 L14.6094,-7.98438 L14.6094,-5.29688 C14.6094,-4.38021 14.4401,-3.47396 14.1016,-2.57813 C13.763,-1.68229 13.2656,-0.945313 12.6094,-0.367188 C11.9531,0.210938 11.151,0.5 10.2031,0.5 C8.44271,0.5 7.04948,-0.0286458 6.02344,-1.08594 C4.9974,-2.14323 4.48438,-3.54167 4.48438,-5.28125 "/>
</g>

<g fill="#212121" fill-opacity="1" stroke="none" transform="matrix(0,-0.5,0.5,0,30.0799,111.614)"
font-family="MS Shell Dlg 2" font-size="8" font-weight="400" font-style="normal" 
>
<path vector-effect="none" fill-rule="evenodd" d="M10.9531,0.5 C9.16146,0.5 7.51823,0.0286458 6.02344,-0.914063 C4.52865,-1.85677 3.35417,-3.11198 2.5,-4.67969 C1.64583,-6.2474 1.21875,-7.90104 1.21875,-9.64063 C1.21875,-11.3594 1.60938,-12.9922 2.39063,-14.5391 C3.17188,-16.0859 4.26042,-17.3359 5.65625,-18.2891 C7.05208,-19.2422 8.60938,-19.7188 10.3281,-19.7188 C11.6823,-19.7188 12.8568,-19.4948 13.8516,-19.0469 C14.8464,-18.599 15.6667,-17.974 16.3125,-17.1719 C16.9583,-16.3698 17.4453,-15.4245 17.7734,-14.3359 C18.1016,-13.2474 18.2656,-12.0521 18.2656,-10.75 C18.2656,-10.3542 18.1146,-10.1563 17.8125,-10.1563 L5.07813,-10.1563 L5.07813,-9.6875 C5.07813,-7.26042 5.56771,-5.17448 6.54688,-3.42969 C7.52604,-1.6849 9.125,-0.8125 11.3438,-0.8125 C12.25,-0.8125 13.0859,-1.01302 13.8516,-1.41406 C14.6172,-1.8151 15.2813,-2.3724 15.8438,-3.08594 C16.4063,-3.79948 16.7917,-4.5625 17,-5.375 C17.0208,-5.47917 17.0729,-5.57031 17.1563,-5.64844 C17.2396,-5.72656 17.3281,-5.76563 17.4219,-5.76563 L17.8125,-5.76563 C18.1146,-5.76563 18.2656,-5.57813 18.2656,-5.20313 C17.849,-3.54688 16.9531,-2.18229 15.5781,-1.10938 C14.2031,-0.0364583 12.6615,0.5 10.9531,0.5 M5.10938,-11.2656 L15.1406,-11.2656 C15.1406,-12.3594 14.987,-13.4714 14.6797,-14.6016 C14.3724,-15.7318 13.862,-16.6719 13.1484,-17.4219 C12.4349,-18.1719 11.4948,-18.5469 10.3281,-18.5469 C8.67188,-18.5469 7.38802,-17.7708 6.47656,-16.2188 C5.5651,-14.6667 5.10938,-13.0156 5.10938,-11.2656 "/>
</g>

<g fill="#212121" fill-opacity="1" stroke="none" transform="matrix(0,-0.5,0.5,0,30.0799,101.836)"
font-family="MS Shell Dlg 2" font-size="8" font-weight="400" font-style="normal" 
>
<path vector-effect="none" fill-rule="evenodd" d="M1.3125,0 L1.3125,-1.54688 C2.3125,-1.54688 3.13542,-1.625 3.78125,-1.78125 C4.42708,-1.9375 4.75,-2.32292 4.75,-2.9375 L4.75,-14.9531 C4.75,-15.7448 4.63281,-16.3151 4.39844,-16.6641 C4.16406,-17.013 3.82292,-17.2266 3.375,-17.3047 C2.92708,-17.3828 2.23958,-17.4219 1.3125,-17.4219 L1.3125,-18.9688 L7.6875,-19.4375 L7.6875,-15.1406 C8.28125,-16.401 9.15365,-17.4323 10.3047,-18.2344 C11.4557,-19.0365 12.7135,-19.4375 14.0781,-19.4375 C16.1094,-19.4375 17.638,-18.9505 18.6641,-17.9766 C19.6901,-17.0026 20.2031,-15.5156 20.2031,-13.5156 L20.2031,-2.9375 C20.2031,-2.32292 20.5234,-1.9375 21.1641,-1.78125 C21.8047,-1.625 22.6302,-1.54688 23.6406,-1.54688 L23.6406,0 L13.5625,0 L13.5625,-1.54688 C14.5625,-1.54688 15.3854,-1.625 16.0313,-1.78125 C16.6771,-1.9375 17,-2.32292 17,-2.9375 L17,-13.3906 C17,-14.8177 16.7917,-15.9948 16.375,-16.9219 C15.9583,-17.849 15.1042,-18.3125 13.8125,-18.3125 C12.1146,-18.3125 10.7161,-17.6302 9.61719,-16.2656 C8.51823,-14.901 7.96875,-13.3542 7.96875,-11.625 L7.96875,-2.9375 C7.96875,-2.32292 8.29167,-1.9375 8.9375,-1.78125 C9.58333,-1.625 10.401,-1.54688 11.3906,-1.54688 L11.3906,0 L1.3125,0"/>
</g>

<g fill="#212121" fill-opacity="1" stroke="none" transform="matrix(0,-0.5,0.5,0,30.0799,89.6138)"
font-family="MS Shell Dlg 2" font-size="8" font-weight="400" font-style="normal" 
>
<path vector-effect="none" fill-rule="evenodd" d="M1.46875,0.125 L1.46875,-7.0625 C1.46875,-7.29167 1.59375,-7.40625 1.84375,-7.40625 L2.39063,-7.40625 C2.55729,-7.40625 2.67188,-7.29167 2.73438,-7.0625 C3.54688,-2.8125 5.52083,-0.6875 8.65625,-0.6875 C10.0521,-0.6875 11.2188,-1.0026 12.1563,-1.63281 C13.0938,-2.26302 13.5625,-3.23958 13.5625,-4.5625 C13.5625,-5.5 13.1953,-6.30208 12.4609,-6.96875 C11.7266,-7.63542 10.8594,-8.09375 9.85938,-8.34375 L6.92188,-8.92188 C5.93229,-9.13021 5.03385,-9.45573 4.22656,-9.89844 C3.41927,-10.3411 2.75781,-10.9323 2.24219,-11.6719 C1.72656,-12.4115 1.46875,-13.2656 1.46875,-14.2344 C1.46875,-15.5156 1.80729,-16.5677 2.48438,-17.3906 C3.16146,-18.2135 4.04427,-18.8073 5.13281,-19.1719 C6.22135,-19.5365 7.39583,-19.7188 8.65625,-19.7188 C10.1667,-19.7188 11.4792,-19.3281 12.5938,-18.5469 L13.8594,-19.6094 C13.8594,-19.6823 13.9323,-19.7188 14.0781,-19.7188 L14.3906,-19.7188 C14.4844,-19.7188 14.5651,-19.6797 14.6328,-19.6016 C14.7005,-19.5234 14.7344,-19.4427 14.7344,-19.3594 L14.7344,-13.625 C14.7344,-13.3542 14.6198,-13.2188 14.3906,-13.2188 L13.8594,-13.2188 C13.599,-13.2188 13.4688,-13.3542 13.4688,-13.625 C13.4688,-15.1563 13.0443,-16.388 12.1953,-17.3203 C11.3464,-18.2526 10.151,-18.7188 8.60938,-18.7188 C7.29688,-18.7188 6.15625,-18.474 5.1875,-17.9844 C4.21875,-17.4948 3.73438,-16.6563 3.73438,-15.4688 C3.73438,-14.6563 4.08333,-13.987 4.78125,-13.4609 C5.47917,-12.9349 6.29167,-12.5573 7.21875,-12.3281 L10.2031,-11.7813 C11.2031,-11.5417 12.138,-11.151 13.0078,-10.6094 C13.8776,-10.0677 14.5651,-9.38021 15.0703,-8.54688 C15.5755,-7.71354 15.8281,-6.77083 15.8281,-5.71875 C15.8281,-4.66667 15.6458,-3.7474 15.2813,-2.96094 C14.9167,-2.17448 14.4089,-1.52344 13.7578,-1.00781 C13.1068,-0.492188 12.3385,-0.111979 11.4531,0.132813 C10.5677,0.377604 9.63542,0.5 8.65625,0.5 C6.82292,0.5 5.25521,-0.125 3.95313,-1.375 L2.34375,0.390625 C2.34375,0.463542 2.26563,0.5 2.10938,0.5 L1.84375,0.5 C1.59375,0.5 1.46875,0.375 1.46875,0.125 "/>
</g>

<g fill="#212121" fill-opacity="1" stroke="none" transform="matrix(0,-0.5,0.5,0,30.0799,80.936)"
font-family="MS Shell Dlg 2" font-size="8" font-weight="400" font-style="normal" 
>
<path vector-effect="none" fill-rule="evenodd" d="M1.35938,0 L1.35938,-1.54688 C2.35938,-1.54688 3.18229,-1.625 3.82813,-1.78125 C4.47396,-1.9375 4.79688,-2.32292 4.79688,-2.9375 L4.79688,-14.9531 C4.79688,-16.0885 4.57813,-16.7839 4.14063,-17.0391 C3.70313,-17.2943 2.83854,-17.4219 1.54688,-17.4219 L1.54688,-18.9688 L7.89063,-19.4375 L7.89063,-2.9375 C7.89063,-2.32292 8.16927,-1.9375 8.72656,-1.78125 C9.28385,-1.625 10.026,-1.54688 10.9531,-1.54688 L10.9531,0 L1.35938,0 M3.21875,-27 C3.21875,-27.6458 3.46354,-28.2135 3.95313,-28.7031 C4.44271,-29.1927 5,-29.4375 5.625,-29.4375 C6.04167,-29.4375 6.44271,-29.3307 6.82813,-29.1172 C7.21354,-28.9036 7.51563,-28.6016 7.73438,-28.2109 C7.95313,-27.8203 8.0625,-27.4167 8.0625,-27 C8.0625,-26.375 7.81771,-25.8177 7.32813,-25.3281 C6.83854,-24.8385 6.27083,-24.5938 5.625,-24.5938 C5,-24.5938 4.44271,-24.8385 3.95313,-25.3281 C3.46354,-25.8177 3.21875,-26.375 3.21875,-27 "/>
</g>

<g fill="#212121" fill-opacity="1" stroke="none" transform="matrix(0,-0.5,0.5,0,30.0799,74.8249)"
font-family="MS Shell Dlg 2" font-size="8" font-weight="400" font-style="normal" 
>
<path vector-effect="none" fill-rule="evenodd" d="M4.48438,-5.28125 L4.48438,-17.4219 L0.84375,-17.4219 L0.84375,-18.5625 C2.76042,-18.5625 4.16927,-19.4583 5.07031,-21.25 C5.97135,-23.0417 6.42188,-24.9844 6.42188,-27.0781 L7.6875,-27.0781 L7.6875,-18.9688 L13.9063,-18.9688 L13.9063,-17.4219 L7.6875,-17.4219 L7.6875,-5.39063 C7.6875,-4.17188 7.89323,-3.10417 8.30469,-2.1875 C8.71615,-1.27083 9.44792,-0.8125 10.5,-0.8125 C11.5104,-0.8125 12.237,-1.29688 12.6797,-2.26563 C13.1224,-3.23438 13.3438,-4.27604 13.3438,-5.39063 L13.3438,-7.98438 L14.6094,-7.98438 L14.6094,-5.29688 C14.6094,-4.38021 14.4401,-3.47396 14.1016,-2.57813 C13.763,-1.68229 13.2656,-0.945313 12.6094,-0.367188 C11.9531,0.210938 11.151,0.5 10.2031,0.5 C8.44271,0.5 7.04948,-0.0286458 6.02344,-1.08594 C4.9974,-2.14323 4.48438,-3.54167 4.48438,-5.28125 "/>
</g>

<g fill="#212121" fill-opacity="1" stroke="none" transform="matrix(0,-0.5,0.5,0,30.0799,66.8804)"
font-family="MS Shell Dlg 2" font-size="8" font-weight="400" font-style="normal" 
>
<path vector-effect="none" fill-rule="evenodd" d="M3.03125,7.21875 C3.59375,7.66667 4.20833,7.89063 4.875,7.89063 C6.72917,7.89063 8.23958,6.49479 9.40625,3.70313 L10.9219,0 L4.3125,-16.1563 C4.04167,-16.6979 3.6276,-17.0443 3.07031,-17.1953 C2.51302,-17.3464 1.77083,-17.4219 0.84375,-17.4219 L0.84375,-18.9688 L10.0781,-18.9688 L10.0781,-17.4219 C8.46354,-17.4219 7.65625,-17.0729 7.65625,-16.375 C7.65625,-16.2604 7.66667,-16.1719 7.6875,-16.1094 L12.5938,-4.07813 L17,-14.9063 C17.0833,-15.1354 17.125,-15.3854 17.125,-15.6563 C17.125,-16.0208 17.0286,-16.3359 16.8359,-16.6016 C16.6432,-16.8672 16.3932,-17.0703 16.0859,-17.2109 C15.7786,-17.3516 15.4323,-17.4219 15.0469,-17.4219 L15.0469,-18.9688 L22.3438,-18.9688 L22.3438,-17.4219 C21.4375,-17.4219 20.6458,-17.2135 19.9688,-16.7969 C19.2917,-16.3802 18.7656,-15.7656 18.3906,-14.9531 L10.7813,3.70313 C10.3854,4.64063 9.91927,5.50781 9.38281,6.30469 C8.84635,7.10156 8.1901,7.75521 7.41406,8.26563 C6.63802,8.77604 5.79167,9.03125 4.875,9.03125 C3.80208,9.03125 2.86198,8.67448 2.05469,7.96094 C1.2474,7.2474 0.84375,6.36979 0.84375,5.32813 C0.84375,4.78646 1.02865,4.32813 1.39844,3.95313 C1.76823,3.57813 2.22396,3.39063 2.76563,3.39063 C3.14063,3.39063 3.47656,3.47396 3.77344,3.64063 C4.07031,3.80729 4.29948,4.03385 4.46094,4.32031 C4.6224,4.60677 4.70313,4.94271 4.70313,5.32813 C4.70313,5.79688 4.54688,6.21875 4.23438,6.59375 C3.92188,6.96875 3.52083,7.17708 3.03125,7.21875 "/>
</g>

<g fill="#212121" fill-opacity="1" stroke="#212121" stroke-opacity="1" stroke-width="1" stroke-linecap="square" stroke-linejoin="round" transform="matrix(0.5,0,0,0.5,0,0)"
font-family="MS Shell Dlg 2" font-size="8" font-weight="400" font-style="normal" 
>
<polyline fill="none" vector-effect="none" points="139,533 139,27 " />
<polyline fill="none" vector-effect="none" points="1031,533 1031,27 " />
<polyline fill="none" vector-effect="none" points="139,533 147.92,533 " />
<polyline fill="none" vector-effect="none" points="1022.08,533 1031,533 " />
<polyline fill="none" vector-effect="none" points="139,448.667 147.92,448.667 " />
<polyline fill="none" vector-effect="none" points="1022.08,448.667 1031,448.667 " />
<polyline fill="none" vector-effect="none" points="139,364.333 147.92,364.333 " />
<polyline fill="none" vector-effect="none" points="1022.08,364.333 1031,364.333 " />
<polyline fill="none" vector-effect="none" points="139,280 147.92,280 " />
<polyline fill="none" vector-effect="none" points="1022.08,280 1031,280 " />
<polyline fill="none" vector-effect="none" points="139,195.667 147.92,195.667 " />
<polyline fill="none" vector-effect="none" points="1022.08,195.667 1031,195.667 " />
<polyline fill="none" vector-effect="none" points="139,111.333 147.92,111.333 " />
<polyline fill="none" vector-effect="none" points="1022.08,111.333 1031,111.333 " />
<polyline fill="none" vector-effect="none" points="139,27 147.92,27 " />
<polyline fill="none" vector-effect="none" points="1022.08,27 1031,27 " />
</g>

<g fill="#212121" fill-opacity="1" stroke="none" transform="matrix(0.5,0,0,0.5,52.5,273.5)"
font-family="MS Shell Dlg 2" font-size="8" font-weight="400" font-style="normal" 
>
<path vector-effect="none" fill-rule="evenodd" d="M1.65625,-14.125 C1.65625,-17.5104 2.00521,-20.2344 2.70313,-22.2969 C3.40104,-24.3594 4.4375,-25.9505 5.8125,-27.0703 C7.1875,-28.1901 8.91667,-28.75 11,-28.75 C12.5313,-28.75 13.8776,-28.4401 15.0391,-27.8203 C16.2005,-27.2005 17.1589,-26.3099 17.9141,-25.1484 C18.6693,-23.987 19.2604,-22.5677 19.6875,-20.8906 C20.1146,-19.2135 20.3281,-16.9583 20.3281,-14.125 C20.3281,-10.7604 19.9844,-8.04688 19.2969,-5.98438 C18.6094,-3.92188 17.5781,-2.32813 16.2031,-1.20313 C14.8281,-0.078125 13.0938,0.484375 11,0.484375 C8.23958,0.484375 6.07292,-0.505208 4.5,-2.48438 C2.60417,-4.86979 1.65625,-8.75 1.65625,-14.125 M5.28125,-14.125 C5.28125,-9.42708 5.83073,-6.29948 6.92969,-4.74219 C8.02865,-3.1849 9.38542,-2.40625 11,-2.40625 C12.6146,-2.40625 13.9714,-3.1875 15.0703,-4.75 C16.1693,-6.3125 16.7188,-9.4375 16.7188,-14.125 C16.7188,-18.8333 16.1693,-21.9635 15.0703,-23.5156 C13.9714,-25.0677 12.599,-25.8438 10.9531,-25.8438 C9.33854,-25.8438 8.05208,-25.1615 7.09375,-23.7969 C5.88542,-22.0469 5.28125,-18.8229 5.28125,-14.125 "/>
</g>

<g fill="#212121" fill-opacity="1" stroke="none" transform="matrix(0.5,0,0,0.5,52.5,231.333)"
font-family="MS Shell Dlg 2" font-size="8" font-weight="400" font-style="normal" 
>
<path vector-effect="none" fill-rule="evenodd" d="M1.65625,-7.5 L5.35938,-7.8125 C5.63021,-6.02083 6.26302,-4.67188 7.25781,-3.76563 C8.2526,-2.85938 9.45313,-2.40625 10.8594,-2.40625 C12.5573,-2.40625 13.9922,-3.04427 15.1641,-4.32031 C16.3359,-5.59635 16.9219,-7.28646 16.9219,-9.39063 C16.9219,-11.401 16.3568,-12.9844 15.2266,-14.1406 C14.0964,-15.2969 12.6198,-15.875 10.7969,-15.875 C9.67188,-15.875 8.65365,-15.6198 7.74219,-15.1094 C6.83073,-14.599 6.11458,-13.9323 5.59375,-13.1094 L2.28125,-13.5313 L5.0625,-28.25 L19.2969,-28.25 L19.2969,-24.8906 L7.875,-24.8906 L6.32813,-17.1875 C8.04688,-18.3854 9.84896,-18.9844 11.7344,-18.9844 C14.2344,-18.9844 16.3438,-18.1198 18.0625,-16.3906 C19.7813,-14.6615 20.6406,-12.4323 20.6406,-9.70313 C20.6406,-7.11979 19.8854,-4.88021 18.375,-2.98438 C16.5417,-0.671875 14.0365,0.484375 10.8594,0.484375 C8.25521,0.484375 6.13021,-0.244792 4.48438,-1.70313 C2.83854,-3.16146 1.89583,-5.09375 1.65625,-7.5 "/>
</g>

<g fill="#212121" fill-opacity="1" stroke="none" transform="matrix(0.5,0,0,0.5,41.5,189.167)"
font-family="MS Shell Dlg 2" font-size="8" font-weight="400" font-style="normal" 
>
<path vector-effect="none" fill-rule="evenodd" d="M14.9063,0 L11.3906,0 L11.3906,-22.4063 C10.5469,-21.5938 9.4375,-20.7839 8.0625,-19.9766 C6.6875,-19.1693 5.45313,-18.5677 4.35938,-18.1719 L4.35938,-21.5625 C6.32813,-22.4896 8.04688,-23.6094 9.51563,-24.9219 C10.9844,-26.2344 12.026,-27.5104 12.6406,-28.75 L14.9063,-28.75 L14.9063,0 M23.6563,-14.125 C23.6563,-17.5104 24.0052,-20.2344 24.7031,-22.2969 C25.401,-24.3594 26.4375,-25.9505 27.8125,-27.0703 C29.1875,-28.1901 30.9167,-28.75 33,-28.75 C34.5313,-28.75 35.8776,-28.4401 37.0391,-27.8203 C38.2005,-27.2005 39.1589,-26.3099 39.9141,-25.1484 C40.6693,-23.987 41.2604,-22.5677 41.6875,-20.8906 C42.1146,-19.2135 42.3281,-16.9583 42.3281,-14.125 C42.3281,-10.7604 41.9844,-8.04688 41.2969,-5.98438 C40.6094,-3.92188 39.5781,-2.32813 38.2031,-1.20313 C36.8281,-0.078125 35.0938,0.484375 33,0.484375 C30.2396,0.484375 28.0729,-0.505208 26.5,-2.48438 C24.6042,-4.86979 23.6563,-8.75 23.6563,-14.125 M27.2813,-14.125 C27.2813,-9.42708 27.8307,-6.29948 28.9297,-4.74219 C30.0286,-3.1849 31.3854,-2.40625 33,-2.40625 C34.6146,-2.40625 35.9714,-3.1875 37.0703,-4.75 C38.1693,-6.3125 38.7188,-9.4375 38.7188,-14.125 C38.7188,-18.8333 38.1693,-21.9635 37.0703,-23.5156 C35.9714,-25.0677 34.599,-25.8438 32.9531,-25.8438 C31.3385,-25.8438 30.0521,-25.1615 29.0938,-23.7969 C27.8854,-22.0469 27.2813,-18.8229 27.2813,-14.125 "/>
</g>

<g fill="#212121" fill-opacity="1" stroke="none" transform="matrix(0.5,0,0,0.5,41.5,147)"
font-family="MS Shell Dlg 2" font-size="8" font-weight="400" font-style="normal" 
>
<path vector-effect="none" fill-rule="evenodd" d="M14.9063,0 L11.3906,0 L11.3906,-22.4063 C10.5469,-21.5938 9.4375,-20.7839 8.0625,-19.9766 C6.6875,-19.1693 5.45313,-18.5677 4.35938,-18.1719 L4.35938,-21.5625 C6.32813,-22.4896 8.04688,-23.6094 9.51563,-24.9219 C10.9844,-26.2344 12.026,-27.5104 12.6406,-28.75 L14.9063,-28.75 L14.9063,0 M23.6563,-7.5 L27.3594,-7.8125 C27.6302,-6.02083 28.263,-4.67188 29.2578,-3.76563 C30.2526,-2.85938 31.4531,-2.40625 32.8594,-2.40625 C34.5573,-2.40625 35.9922,-3.04427 37.1641,-4.32031 C38.3359,-5.59635 38.9219,-7.28646 38.9219,-9.39063 C38.9219,-11.401 38.3568,-12.9844 37.2266,-14.1406 C36.0964,-15.2969 34.6198,-15.875 32.7969,-15.875 C31.6719,-15.875 30.6536,-15.6198 29.7422,-15.1094 C28.8307,-14.599 28.1146,-13.9323 27.5938,-13.1094 L24.2813,-13.5313 L27.0625,-28.25 L41.2969,-28.25 L41.2969,-24.8906 L29.875,-24.8906 L28.3281,-17.1875 C30.0469,-18.3854 31.849,-18.9844 33.7344,-18.9844 C36.2344,-18.9844 38.3438,-18.1198 40.0625,-16.3906 C41.7813,-14.6615 42.6406,-12.4323 42.6406,-9.70313 C42.6406,-7.11979 41.8854,-4.88021 40.375,-2.98438 C38.5417,-0.671875 36.0365,0.484375 32.8594,0.484375 C30.2552,0.484375 28.1302,-0.244792 26.4844,-1.70313 C24.8385,-3.16146 23.8958,-5.09375 23.6563,-7.5 "/>
</g>

<g fill="#212121" fill-opacity="1" stroke="none" transform="matrix(0.5,0,0,0.5,41.5,104.833)"
font-family="MS Shell Dlg 2" font-size="8" font-weight="400" font-style="normal" 
>
<path vector-effect="none" fill-rule="evenodd" d="M20.1406,-3.375 L20.1406,0 L1.21875,0 C1.1875,-0.84375 1.32292,-1.65625 1.625,-2.4375 C2.10417,-3.72917 2.875,-5 3.9375,-6.25 C5,-7.5 6.53125,-8.94792 8.53125,-10.5938 C11.6458,-13.1458 13.75,-15.1667 14.8438,-16.6563 C15.9375,-18.1458 16.4844,-19.5521 16.4844,-20.875 C16.4844,-22.2708 15.987,-23.4479 14.9922,-24.4063 C13.9974,-25.3646 12.6979,-25.8438 11.0938,-25.8438 C9.40625,-25.8438 8.05469,-25.3359 7.03906,-24.3203 C6.02344,-23.3047 5.50521,-21.8958 5.48438,-20.0938 L1.875,-20.4688 C2.125,-23.1667 3.05729,-25.2214 4.67188,-26.6328 C6.28646,-28.0443 8.45313,-28.75 11.1719,-28.75 C13.9219,-28.75 16.0964,-27.9896 17.6953,-26.4688 C19.2943,-24.9479 20.0938,-23.0573 20.0938,-20.7969 C20.0938,-19.651 19.8594,-18.526 19.3906,-17.4219 C18.9219,-16.3177 18.1458,-15.1536 17.0625,-13.9297 C15.9792,-12.7057 14.1719,-11.026 11.6406,-8.89063 C9.53646,-7.11979 8.1849,-5.91927 7.58594,-5.28906 C6.98698,-4.65885 6.48958,-4.02083 6.09375,-3.375 L20.1406,-3.375 M23.6563,-14.125 C23.6563,-17.5104 24.0052,-20.2344 24.7031,-22.2969 C25.401,-24.3594 26.4375,-25.9505 27.8125,-27.0703 C29.1875,-28.1901 30.9167,-28.75 33,-28.75 C34.5313,-28.75 35.8776,-28.4401 37.0391,-27.8203 C38.2005,-27.2005 39.1589,-26.3099 39.9141,-25.1484 C40.6693,-23.987 41.2604,-22.5677 41.6875,-20.8906 C42.1146,-19.2135 42.3281,-16.9583 42.3281,-14.125 C42.3281,-10.7604 41.9844,-8.04688 41.2969,-5.98438 C40.6094,-3.92188 39.5781,-2.32813 38.2031,-1.20313 C36.8281,-0.078125 35.0938,0.484375 33,0.484375 C30.2396,0.484375 28.0729,-0.505208 26.5,-2.48438 C24.6042,-4.86979 23.6563,-8.75 23.6563,-14.125 M27.2813,-14.125 C27.2813,-9.42708 27.8307,-6.29948 28.9297,-4.74219 C30.0286,-3.1849 31.3854,-2.40625 33,-2.40625 C34.6146,-2.40625 35.9714,-3.1875 37.0703,-4.75 C38.1693,-6.3125 38.7188,-9.4375 38.7188,-14.125 C38.7188,-18.8333 38.1693,-21.9635 37.0703,-23.5156 C35.9714,-25.0677 34.599,-25.8438 32.9531,-25.8438 C31.3385,-25.8438 30.0521,-25.1615 29.0938,-23.7969 C27.8854,-22.0469 27.2813,-18.8229 27.2813,-14.125 "/>
</g>

<g fill="#212121" fill-opacity="1" stroke="none" transform="matrix(0.5,0,0,0.5,41.5,62.6667)"
font-family="MS Shell Dlg 2" font-size="8" font-weight="400" font-style="normal" 
>
<path vector-effect="none" fill-rule="evenodd" d="M20.1406,-3.375 L20.1406,0 L1.21875,0 C1.1875,-0.84375 1.32292,-1.65625 1.625,-2.4375 C2.10417,-3.72917 2.875,-5 3.9375,-6.25 C5,-7.5 6.53125,-8.94792 8.53125,-10.5938 C11.6458,-13.1458 13.75,-15.1667 14.8438,-16.6563 C15.9375,-18.1458 16.4844,-19.5521 16.4844,-20.875 C16.4844,-22.2708 15.987,-23.4479 14.9922,-24.4063 C13.9974,-25.3646 12.6979,-25.8438 11.0938,-25.8438 C9.40625,-25.8438 8.05469,-25.3359 7.03906,-24.3203 C6.02344,-23.3047 5.50521,-21.8958 5.48438,-20.0938 L1.875,-20.4688 C2.125,-23.1667 3.05729,-25.2214 4.67188,-26.6328 C6.28646,-28.0443 8.45313,-28.75 11.1719,-28.75 C13.9219,-28.75 16.0964,-27.9896 17.6953,-26.4688 C19.2943,-24.9479 20.0938,-23.0573 20.0938,-20.7969 C20.0938,-19.651 19.8594,-18.526 19.3906,-17.4219 C18.9219,-16.3177 18.1458,-15.1536 17.0625,-13.9297 C15.9792,-12.7057 14.1719,-11.026 11.6406,-8.89063 C9.53646,-7.11979 8.1849,-5.91927 7.58594,-5.28906 C6.98698,-4.65885 6.48958,-4.02083 6.09375,-3.375 L20.1406,-3.375 M23.6563,-7.5 L27.3594,-7.8125 C27.6302,-6.02083 28.263,-4.67188 29.2578,-3.76563 C30.2526,-2.85938 31.4531,-2.40625 32.8594,-2.40625 C34.5573,-2.40625 35.9922,-3.04427 37.1641,-4.32031 C38.3359,-5.59635 38.9219,-7.28646 38.9219,-9.39063 C38.9219,-11.401 38.3568,-12.9844 37.2266,-14.1406 C36.0964,-15.2969 34.6198,-15.875 32.7969,-15.875 C31.6719,-15.875 30.6536,-15.6198 29.7422,-15.1094 C28.8307,-14.599 28.1146,-13.9323 27.5938,-13.1094 L24.2813,-13.5313 L27.0625,-28.25 L41.2969,-28.25 L41.2969,-24.8906 L29.875,-24.8906 L28.3281,-17.1875 C30.0469,-18.3854 31.849,-18.9844 33.7344,-18.9844 C36.2344,-18.9844 38.3438,-18.1198 40.0625,-16.3906 C41.7813,-14.6615 42.6406,-12.4323 42.6406,-9.70313 C42.6406,-7.11979 41.8854,-4.88021 40.375,-2.98438 C38.5417,-0.671875 36.0365,0.484375 32.8594,0.484375 C30.2552,0.484375 28.1302,-0.244792 26.4844,-1.70313 C24.8385,-3.16146 23.8958,-5.09375 23.6563,-7.5 "/>
</g>

<g fill="#212121" fill-opacity="1" stroke="none" transform="matrix(0.5,0,0,0.5,41.5,20.5)"
font-family="MS Shell Dlg 2" font-size="8" font-weight="400" font-style="normal" 
>
<path vector-effect="none" fill-rule="evenodd" d="M1.6875,-7.5625 L5.20313,-8.03125 C5.59896,-6.04167 6.28385,-4.60677 7.25781,-3.72656 C8.23177,-2.84635 9.41146,-2.40625 10.7969,-2.40625 C12.4531,-2.40625 13.8516,-2.97917 14.9922,-4.125 C16.1328,-5.27083 16.7031,-6.6875 16.7031,-8.375 C16.7031,-9.98958 16.1745,-11.3229 15.1172,-12.375 C14.0599,-13.4271 12.7188,-13.9531 11.0938,-13.9531 C10.4271,-13.9531 9.59896,-13.8229 8.60938,-13.5625 L9,-16.6406 C9.23958,-16.6198 9.43229,-16.6094 9.57813,-16.6094 C11.0677,-16.6094 12.4115,-17 13.6094,-17.7813 C14.8073,-18.5625 15.4063,-19.7656 15.4063,-21.3906 C15.4063,-22.6823 14.9714,-23.75 14.1016,-24.5938 C13.2318,-25.4375 12.1042,-25.8594 10.7188,-25.8594 C9.35417,-25.8594 8.21615,-25.4297 7.30469,-24.5703 C6.39323,-23.7109 5.80729,-22.4219 5.54688,-20.7031 L2.03125,-21.3281 C2.45833,-23.6823 3.4349,-25.5078 4.96094,-26.8047 C6.48698,-28.1016 8.38021,-28.75 10.6406,-28.75 C12.2031,-28.75 13.6432,-28.4141 14.9609,-27.7422 C16.2786,-27.0703 17.2865,-26.1563 17.9844,-25 C18.6823,-23.8438 19.0313,-22.6146 19.0313,-21.3125 C19.0313,-20.0729 18.6979,-18.9453 18.0313,-17.9297 C17.3646,-16.9141 16.3802,-16.1094 15.0781,-15.5156 C16.776,-15.1198 18.0938,-14.3073 19.0313,-13.0781 C19.9688,-11.849 20.4375,-10.3073 20.4375,-8.45313 C20.4375,-5.95313 19.526,-3.83333 17.7031,-2.09375 C15.8802,-0.354167 13.5729,0.515625 10.7813,0.515625 C8.27083,0.515625 6.1849,-0.234375 4.52344,-1.73438 C2.86198,-3.23438 1.91667,-5.17708 1.6875,-7.5625 M23.6563,-14.125 C23.6563,-17.5104 24.0052,-20.2344 24.7031,-22.2969 C25.401,-24.3594 26.4375,-25.9505 27.8125,-27.0703 C29.1875,-28.1901 30.9167,-28.75 33,-28.75 C34.5313,-28.75 35.8776,-28.4401 37.0391,-27.8203 C38.2005,-27.2005 39.1589,-26.3099 39.9141,-25.1484 C40.6693,-23.987 41.2604,-22.5677 41.6875,-20.8906 C42.1146,-19.2135 42.3281,-16.9583 42.3281,-14.125 C42.3281,-10.7604 41.9844,-8.04688 41.2969,-5.98438 C40.6094,-3.92188 39.5781,-2.32813 38.2031,-1.20313 C36.8281,-0.078125 35.0938,0.484375 33,0.484375 C30.2396,0.484375 28.0729,-0.505208 26.5,-2.48438 C24.6042,-4.86979 23.6563,-8.75 23.6563,-14.125 M27.2813,-14.125 C27.2813,-9.42708 27.8307,-6.29948 28.9297,-4.74219 C30.0286,-3.1849 31.3854,-2.40625 33,-2.40625 C34.6146,-2.40625 35.9714,-3.1875 37.0703,-4.75 C38.1693,-6.3125 38.7188,-9.4375 38.7188,-14.125 C38.7188,-18.8333 38.1693,-21.9635 37.0703,-23.5156 C35.9714,-25.0677 34.599,-25.8438 32.9531,-25.8438 C31.3385,-25.8438 30.0521,-25.1615 29.0938,-23.7969 C27.8854,-22.0469 27.2813,-18.8229 27.2813,-14.125 "/>
</g>

<g fill="none" stroke="#1171be" stroke-opacity="1" stroke-width="4" stroke-linecap="butt" stroke-linejoin="round" transform="matrix(0.5,0,0,0.5,0,0)"
font-family="MS Shell Dlg 2" font-size="8" font-weight="400" font-style="normal" 
>
<polyline fill="none" vector-effect="none" points="139,529.087 183.6,527.575 228.2,533 272.8,523.367 317.4,510.939 362,185.737 406.6,53.796 451.2,59.2538 495.8,132.113 540.4,251.297 585,355.555 629.6,433.74 674.2,478.027 718.8,505.251 763.4,525.898 808,522.709 852.6,522.413 897.2,526.49 941.8,528.2 986.4,520.177 1031,525.767 " />
</g>
</g>
</svg>
