  0
SECTION
  2
HEADER
  9
$EXTMIN
 10
-63.031
 20
-13.96
  9
$EXTMAX
 10
-14.2
 20
12.205
  9
$INSUNITS
 70
13
  0
ENDSEC
  0
SECTION
  2
TABLES
  0
TABLE
  2
LAYER
 70
   1
  0
LAYER
  2
1
 70
    0
 62
    7
  6
CONTINUOUS
  0
ENDTAB
  0
ENDSEC
  0
SECTION
  2
BLOCKS
  0
ENDSEC
  0
SECTION
  2
ENTITIES
  0
TEXT
100
AcDbText
  8
1
 10
-63.031
 20
12.205
 11
-63.031
 21
12.205
 30
   0
 40
-0.016
  1
Generated with the LayoutEditor (This message will NOT be added by any commercial version of the LayoutEditor.)
 50
0
 72
0
 73
3
  0
POLYLINE
100
AcDb2dPolyline
  8
1
 66
   1
 70
   1
 40
0.0
 41
0.0
  0
VERTEX
100
AcDbVertex
100
AcDb2dVertex
  8
1
 10
-31.861
 20
11.982
  0
VERTEX
100
AcDbVertex
100
AcDb2dVertex
  8
1
 10
-21.641
 20
1.815
  0
VERTEX
100
AcDbVertex
100
AcDb2dVertex
  8
1
 10
-42.069
 20
1.815
  0
VERTEX
100
AcDbVertex
100
AcDb2dVertex
  8
1
 10
-42.069
 20
1.603
  0
VERTEX
100
AcDbVertex
100
AcDb2dVertex
  8
1
 10
-21.652
 20
1.603
  0
VERTEX
100
AcDbVertex
100
AcDb2dVertex
  8
1
 10
-31.861
 20
-12.056
  0
VERTEX
100
AcDbVertex
100
AcDb2dVertex
  8
1
 10
-42.069
 20
1.603
  0
VERTEX
100
AcDbVertex
100
AcDb2dVertex
  8
1
 10
-42.069
 20
1.815
  0
VERTEX
100
AcDbVertex
100
AcDb2dVertex
  8
1
 10
-42.08
 20
1.815
  0
VERTEX
100
AcDbVertex
100
AcDb2dVertex
  8
1
 10
-31.861
 20
11.982
  0
VERTEX
100
AcDbVertex
100
AcDb2dVertex
  8
1
 10
-31.861
 20
12.205
  0
VERTEX
100
AcDbVertex
100
AcDb2dVertex
  8
1
 10
-42.361
 20
1.758
  0
VERTEX
100
AcDbVertex
100
AcDb2dVertex
  8
1
 10
-42.594
 20
1.758
  0
VERTEX
100
AcDbVertex
100
AcDb2dVertex
  8
1
 10
-42.794
 20
1.958
  0
VERTEX
100
AcDbVertex
100
AcDb2dVertex
  8
1
 10
-42.994
 20
1.758
  0
VERTEX
100
AcDbVertex
100
AcDb2dVertex
  8
1
 10
-43.194
 20
1.958
  0
VERTEX
100
AcDbVertex
100
AcDb2dVertex
  8
1
 10
-43.394
 20
1.758
  0
VERTEX
100
AcDbVertex
100
AcDb2dVertex
  8
1
 10
-43.594
 20
1.958
  0
VERTEX
100
AcDbVertex
100
AcDb2dVertex
  8
1
 10
-43.794
 20
1.758
  0
VERTEX
100
AcDbVertex
100
AcDb2dVertex
  8
1
 10
-43.994
 20
1.958
  0
VERTEX
100
AcDbVertex
100
AcDb2dVertex
  8
1
 10
-44.194
 20
1.758
  0
VERTEX
100
AcDbVertex
100
AcDb2dVertex
  8
1
 10
-44.394
 20
1.958
  0
VERTEX
100
AcDbVertex
100
AcDb2dVertex
  8
1
 10
-44.594
 20
1.758
  0
VERTEX
100
AcDbVertex
100
AcDb2dVertex
  8
1
 10
-44.794
 20
1.958
  0
VERTEX
100
AcDbVertex
100
AcDb2dVertex
  8
1
 10
-44.994
 20
1.758
  0
VERTEX
100
AcDbVertex
100
AcDb2dVertex
  8
1
 10
-45.194
 20
1.958
  0
VERTEX
100
AcDbVertex
100
AcDb2dVertex
  8
1
 10
-45.394
 20
1.758
  0
VERTEX
100
AcDbVertex
100
AcDb2dVertex
  8
1
 10
-45.594
 20
1.958
  0
VERTEX
100
AcDbVertex
100
AcDb2dVertex
  8
1
 10
-45.794
 20
1.758
  0
VERTEX
100
AcDbVertex
100
AcDb2dVertex
  8
1
 10
-45.994
 20
1.958
  0
VERTEX
100
AcDbVertex
100
AcDb2dVertex
  8
1
 10
-46.194
 20
1.758
  0
VERTEX
100
AcDbVertex
100
AcDb2dVertex
  8
1
 10
-46.394
 20
1.958
  0
VERTEX
100
AcDbVertex
100
AcDb2dVertex
  8
1
 10
-46.594
 20
1.758
  0
VERTEX
100
AcDbVertex
100
AcDb2dVertex
  8
1
 10
-46.794
 20
1.958
  0
VERTEX
100
AcDbVertex
100
AcDb2dVertex
  8
1
 10
-46.994
 20
1.758
  0
VERTEX
100
AcDbVertex
100
AcDb2dVertex
  8
1
 10
-47.194
 20
1.958
  0
VERTEX
100
AcDbVertex
100
AcDb2dVertex
  8
1
 10
-47.394
 20
1.758
  0
VERTEX
100
AcDbVertex
100
AcDb2dVertex
  8
1
 10
-47.594
 20
1.958
  0
VERTEX
100
AcDbVertex
100
AcDb2dVertex
  8
1
 10
-47.794
 20
1.758
  0
VERTEX
100
AcDbVertex
100
AcDb2dVertex
  8
1
 10
-47.994
 20
1.958
  0
VERTEX
100
AcDbVertex
100
AcDb2dVertex
  8
1
 10
-48.194
 20
1.758
  0
VERTEX
100
AcDbVertex
100
AcDb2dVertex
  8
1
 10
-48.394
 20
1.958
  0
VERTEX
100
AcDbVertex
100
AcDb2dVertex
  8
1
 10
-48.594
 20
1.758
  0
VERTEX
100
AcDbVertex
100
AcDb2dVertex
  8
1
 10
-48.794
 20
1.958
  0
VERTEX
100
AcDbVertex
100
AcDb2dVertex
  8
1
 10
-48.994
 20
1.758
  0
VERTEX
100
AcDbVertex
100
AcDb2dVertex
  8
1
 10
-49.194
 20
1.958
  0
VERTEX
100
AcDbVertex
100
AcDb2dVertex
  8
1
 10
-49.394
 20
1.758
  0
VERTEX
100
AcDbVertex
100
AcDb2dVertex
  8
1
 10
-49.594
 20
1.958
  0
VERTEX
100
AcDbVertex
100
AcDb2dVertex
  8
1
 10
-49.794
 20
1.758
  0
VERTEX
100
AcDbVertex
100
AcDb2dVertex
  8
1
 10
-49.994
 20
1.958
  0
VERTEX
100
AcDbVertex
100
AcDb2dVertex
  8
1
 10
-50.194
 20
1.758
  0
VERTEX
100
AcDbVertex
100
AcDb2dVertex
  8
1
 10
-50.394
 20
1.958
  0
VERTEX
100
AcDbVertex
100
AcDb2dVertex
  8
1
 10
-50.594
 20
1.758
  0
VERTEX
100
AcDbVertex
100
AcDb2dVertex
  8
1
 10
-50.794
 20
1.958
  0
VERTEX
100
AcDbVertex
100
AcDb2dVertex
  8
1
 10
-50.994
 20
1.758
  0
VERTEX
100
AcDbVertex
100
AcDb2dVertex
  8
1
 10
-51.194
 20
1.958
  0
VERTEX
100
AcDbVertex
100
AcDb2dVertex
  8
1
 10
-51.394
 20
1.758
  0
VERTEX
100
AcDbVertex
100
AcDb2dVertex
  8
1
 10
-51.594
 20
1.958
  0
VERTEX
100
AcDbVertex
100
AcDb2dVertex
  8
1
 10
-51.794
 20
1.758
  0
VERTEX
100
AcDbVertex
100
AcDb2dVertex
  8
1
 10
-52.607
 20
2.236
  0
VERTEX
100
AcDbVertex
100
AcDb2dVertex
  8
1
 10
-53.607
 20
2.236
  0
VERTEX
100
AcDbVertex
100
AcDb2dVertex
  8
1
 10
-53.607
 20
9.236
  0
VERTEX
100
AcDbVertex
100
AcDb2dVertex
  8
1
 10
-53.554
 20
9.282
  0
VERTEX
100
AcDbVertex
100
AcDb2dVertex
  8
1
 10
-53.506
 20
9.332
  0
VERTEX
100
AcDbVertex
100
AcDb2dVertex
  8
1
 10
-53.462
 20
9.387
  0
VERTEX
100
AcDbVertex
100
AcDb2dVertex
  8
1
 10
-53.423
 20
9.445
  0
VERTEX
100
AcDbVertex
100
AcDb2dVertex
  8
1
 10
-53.39
 20
9.506
  0
VERTEX
100
AcDbVertex
100
AcDb2dVertex
  8
1
 10
-53.362
 20
9.57
  0
VERTEX
100
AcDbVertex
100
AcDb2dVertex
  8
1
 10
-53.339
 20
9.636
  0
VERTEX
100
AcDbVertex
100
AcDb2dVertex
  8
1
 10
-53.322
 20
9.704
  0
VERTEX
100
AcDbVertex
100
AcDb2dVertex
  8
1
 10
-53.312
 20
9.773
  0
VERTEX
100
AcDbVertex
100
AcDb2dVertex
  8
1
 10
-53.307
 20
9.842
  0
VERTEX
100
AcDbVertex
100
AcDb2dVertex
  8
1
 10
-53.308
 20
9.912
  0
VERTEX
100
AcDbVertex
100
AcDb2dVertex
  8
1
 10
-53.316
 20
9.981
  0
VERTEX
100
AcDbVertex
100
AcDb2dVertex
  8
1
 10
-53.329
 20
10.05
  0
VERTEX
100
AcDbVertex
100
AcDb2dVertex
  8
1
 10
-53.349
 20
10.117
  0
VERTEX
100
AcDbVertex
100
AcDb2dVertex
  8
1
 10
-53.352
 20
10.126
  0
VERTEX
100
AcDbVertex
100
AcDb2dVertex
  8
1
 10
-53.378
 20
10.191
  0
VERTEX
100
AcDbVertex
100
AcDb2dVertex
  8
1
 10
-53.409
 20
10.253
  0
VERTEX
100
AcDbVertex
100
AcDb2dVertex
  8
1
 10
-53.446
 20
10.312
  0
VERTEX
100
AcDbVertex
100
AcDb2dVertex
  8
1
 10
-53.488
 20
10.368
  0
VERTEX
100
AcDbVertex
100
AcDb2dVertex
  8
1
 10
-53.534
 20
10.42
  0
VERTEX
100
AcDbVertex
100
AcDb2dVertex
  8
1
 10
-53.585
 20
10.468
  0
VERTEX
100
AcDbVertex
100
AcDb2dVertex
  8
1
 10
-53.64
 20
10.511
  0
VERTEX
100
AcDbVertex
100
AcDb2dVertex
  8
1
 10
-53.699
 20
10.549
  0
VERTEX
100
AcDbVertex
100
AcDb2dVertex
  8
1
 10
-53.76
 20
10.582
  0
VERTEX
100
AcDbVertex
100
AcDb2dVertex
  8
1
 10
-53.824
 20
10.609
  0
VERTEX
100
AcDbVertex
100
AcDb2dVertex
  8
1
 10
-53.89
 20
10.631
  0
VERTEX
100
AcDbVertex
100
AcDb2dVertex
  8
1
 10
-53.958
 20
10.647
  0
VERTEX
100
AcDbVertex
100
AcDb2dVertex
  8
1
 10
-54.027
 20
10.657
  0
VERTEX
100
AcDbVertex
100
AcDb2dVertex
  8
1
 10
-54.097
 20
10.661
  0
VERTEX
100
AcDbVertex
100
AcDb2dVertex
  8
1
 10
-54.107
 20
10.661
  0
VERTEX
100
AcDbVertex
100
AcDb2dVertex
  8
1
 10
-54.177
 20
10.658
  0
VERTEX
100
AcDbVertex
100
AcDb2dVertex
  8
1
 10
-54.246
 20
10.649
  0
VERTEX
100
AcDbVertex
100
AcDb2dVertex
  8
1
 10
-54.314
 20
10.634
  0
VERTEX
100
AcDbVertex
100
AcDb2dVertex
  8
1
 10
-54.381
 20
10.613
  0
VERTEX
100
AcDbVertex
100
AcDb2dVertex
  8
1
 10
-54.445
 20
10.586
  0
VERTEX
100
AcDbVertex
100
AcDb2dVertex
  8
1
 10
-54.507
 20
10.554
  0
VERTEX
100
AcDbVertex
100
AcDb2dVertex
  8
1
 10
-54.566
 20
10.516
  0
VERTEX
100
AcDbVertex
100
AcDb2dVertex
  8
1
 10
-54.621
 20
10.474
  0
VERTEX
100
AcDbVertex
100
AcDb2dVertex
  8
1
 10
-54.673
 20
10.427
  0
VERTEX
100
AcDbVertex
100
AcDb2dVertex
  8
1
 10
-54.72
 20
10.375
  0
VERTEX
100
AcDbVertex
100
AcDb2dVertex
  8
1
 10
-54.762
 20
10.32
  0
VERTEX
100
AcDbVertex
100
AcDb2dVertex
  8
1
 10
-54.8
 20
10.261
  0
VERTEX
100
AcDbVertex
100
AcDb2dVertex
  8
1
 10
-54.832
 20
10.199
  0
VERTEX
100
AcDbVertex
100
AcDb2dVertex
  8
1
 10
-54.859
 20
10.135
  0
VERTEX
100
AcDbVertex
100
AcDb2dVertex
  8
1
 10
-54.862
 20
10.126
  0
VERTEX
100
AcDbVertex
100
AcDb2dVertex
  8
1
 10
-54.882
 20
10.059
  0
VERTEX
100
AcDbVertex
100
AcDb2dVertex
  8
1
 10
-54.897
 20
9.991
  0
VERTEX
100
AcDbVertex
100
AcDb2dVertex
  8
1
 10
-54.905
 20
9.921
  0
VERTEX
100
AcDbVertex
100
AcDb2dVertex
  8
1
 10
-54.907
 20
9.851
  0
VERTEX
100
AcDbVertex
100
AcDb2dVertex
  8
1
 10
-54.903
 20
9.782
  0
VERTEX
100
AcDbVertex
100
AcDb2dVertex
  8
1
 10
-54.893
 20
9.713
  0
VERTEX
100
AcDbVertex
100
AcDb2dVertex
  8
1
 10
-54.877
 20
9.644
  0
VERTEX
100
AcDbVertex
100
AcDb2dVertex
  8
1
 10
-54.855
 20
9.578
  0
VERTEX
100
AcDbVertex
100
AcDb2dVertex
  8
1
 10
-54.828
 20
9.514
  0
VERTEX
100
AcDbVertex
100
AcDb2dVertex
  8
1
 10
-54.795
 20
9.452
  0
VERTEX
100
AcDbVertex
100
AcDb2dVertex
  8
1
 10
-54.757
 20
9.394
  0
VERTEX
100
AcDbVertex
100
AcDb2dVertex
  8
1
 10
-54.713
 20
9.339
  0
VERTEX
100
AcDbVertex
100
AcDb2dVertex
  8
1
 10
-54.666
 20
9.288
  0
VERTEX
100
AcDbVertex
100
AcDb2dVertex
  8
1
 10
-54.614
 20
9.241
  0
VERTEX
100
AcDbVertex
100
AcDb2dVertex
  8
1
 10
-54.607
 20
9.236
  0
VERTEX
100
AcDbVertex
100
AcDb2dVertex
  8
1
 10
-54.607
 20
2.236
  0
VERTEX
100
AcDbVertex
100
AcDb2dVertex
  8
1
 10
-61.606
 20
2.236
  0
VERTEX
100
AcDbVertex
100
AcDb2dVertex
  8
1
 10
-61.652
 20
2.289
  0
VERTEX
100
AcDbVertex
100
AcDb2dVertex
  8
1
 10
-61.702
 20
2.337
  0
VERTEX
100
AcDbVertex
100
AcDb2dVertex
  8
1
 10
-61.757
 20
2.381
  0
VERTEX
100
AcDbVertex
100
AcDb2dVertex
  8
1
 10
-61.815
 20
2.42
  0
VERTEX
100
AcDbVertex
100
AcDb2dVertex
  8
1
 10
-61.876
 20
2.453
  0
VERTEX
100
AcDbVertex
100
AcDb2dVertex
  8
1
 10
-61.94
 20
2.481
  0
VERTEX
100
AcDbVertex
100
AcDb2dVertex
  8
1
 10
-62.006
 20
2.504
  0
VERTEX
100
AcDbVertex
100
AcDb2dVertex
  8
1
 10
-62.074
 20
2.521
  0
VERTEX
100
AcDbVertex
100
AcDb2dVertex
  8
1
 10
-62.143
 20
2.531
  0
VERTEX
100
AcDbVertex
100
AcDb2dVertex
  8
1
 10
-62.212
 20
2.536
  0
VERTEX
100
AcDbVertex
100
AcDb2dVertex
  8
1
 10
-62.282
 20
2.535
  0
VERTEX
100
AcDbVertex
100
AcDb2dVertex
  8
1
 10
-62.351
 20
2.527
  0
VERTEX
100
AcDbVertex
100
AcDb2dVertex
  8
1
 10
-62.42
 20
2.514
  0
VERTEX
100
AcDbVertex
100
AcDb2dVertex
  8
1
 10
-62.487
 20
2.494
  0
VERTEX
100
AcDbVertex
100
AcDb2dVertex
  8
1
 10
-62.496
 20
2.491
  0
VERTEX
100
AcDbVertex
100
AcDb2dVertex
  8
1
 10
-62.561
 20
2.465
  0
VERTEX
100
AcDbVertex
100
AcDb2dVertex
  8
1
 10
-62.623
 20
2.434
  0
VERTEX
100
AcDbVertex
100
AcDb2dVertex
  8
1
 10
-62.682
 20
2.397
  0
VERTEX
100
AcDbVertex
100
AcDb2dVertex
  8
1
 10
-62.738
 20
2.355
  0
VERTEX
100
AcDbVertex
100
AcDb2dVertex
  8
1
 10
-62.79
 20
2.308
  0
VERTEX
100
AcDbVertex
100
AcDb2dVertex
  8
1
 10
-62.838
 20
2.257
  0
VERTEX
100
AcDbVertex
100
AcDb2dVertex
  8
1
 10
-62.881
 20
2.202
  0
VERTEX
100
AcDbVertex
100
AcDb2dVertex
  8
1
 10
-62.919
 20
2.144
  0
VERTEX
100
AcDbVertex
100
AcDb2dVertex
  8
1
 10
-62.952
 20
2.082
  0
VERTEX
100
AcDbVertex
100
AcDb2dVertex
  8
1
 10
-62.98
 20
2.018
  0
VERTEX
100
AcDbVertex
100
AcDb2dVertex
  8
1
 10
-63.001
 20
1.952
  0
VERTEX
100
AcDbVertex
100
AcDb2dVertex
  8
1
 10
-63.017
 20
1.884
  0
VERTEX
100
AcDbVertex
100
AcDb2dVertex
  8
1
 10
-63.027
 20
1.815
  0
VERTEX
100
AcDbVertex
100
AcDb2dVertex
  8
1
 10
-63.031
 20
1.745
  0
VERTEX
100
AcDbVertex
100
AcDb2dVertex
  8
1
 10
-63.031
 20
1.736
  0
VERTEX
100
AcDbVertex
100
AcDb2dVertex
  8
1
 10
-63.028
 20
1.666
  0
VERTEX
100
AcDbVertex
100
AcDb2dVertex
  8
1
 10
-63.019
 20
1.597
  0
VERTEX
100
AcDbVertex
100
AcDb2dVertex
  8
1
 10
-63.004
 20
1.529
  0
VERTEX
100
AcDbVertex
100
AcDb2dVertex
  8
1
 10
-62.983
 20
1.462
  0
VERTEX
100
AcDbVertex
100
AcDb2dVertex
  8
1
 10
-62.956
 20
1.398
  0
VERTEX
100
AcDbVertex
100
AcDb2dVertex
  8
1
 10
-62.923
 20
1.336
  0
VERTEX
100
AcDbVertex
100
AcDb2dVertex
  8
1
 10
-62.886
 20
1.277
  0
VERTEX
100
AcDbVertex
100
AcDb2dVertex
  8
1
 10
-62.843
 20
1.221
  0
VERTEX
100
AcDbVertex
100
AcDb2dVertex
  8
1
 10
-62.796
 20
1.17
  0
VERTEX
100
AcDbVertex
100
AcDb2dVertex
  8
1
 10
-62.745
 20
1.123
  0
VERTEX
100
AcDbVertex
100
AcDb2dVertex
  8
1
 10
-62.689
 20
1.08
  0
VERTEX
100
AcDbVertex
100
AcDb2dVertex
  8
1
 10
-62.63
 20
1.043
  0
VERTEX
100
AcDbVertex
100
AcDb2dVertex
  8
1
 10
-62.568
 20
1.01
  0
VERTEX
100
AcDbVertex
100
AcDb2dVertex
  8
1
 10
-62.504
 20
0.984
  0
VERTEX
100
AcDbVertex
100
AcDb2dVertex
  8
1
 10
-62.496
 20
0.981
  0
VERTEX
100
AcDbVertex
100
AcDb2dVertex
  8
1
 10
-62.429
 20
0.961
  0
VERTEX
100
AcDbVertex
100
AcDb2dVertex
  8
1
 10
-62.361
 20
0.946
  0
VERTEX
100
AcDbVertex
100
AcDb2dVertex
  8
1
 10
-62.291
 20
0.938
  0
VERTEX
100
AcDbVertex
100
AcDb2dVertex
  8
1
 10
-62.221
 20
0.936
  0
VERTEX
100
AcDbVertex
100
AcDb2dVertex
  8
1
 10
-62.152
 20
0.94
  0
VERTEX
100
AcDbVertex
100
AcDb2dVertex
  8
1
 10
-62.083
 20
0.95
  0
VERTEX
100
AcDbVertex
100
AcDb2dVertex
  8
1
 10
-62.014
 20
0.966
  0
VERTEX
100
AcDbVertex
100
AcDb2dVertex
  8
1
 10
-61.948
 20
0.988
  0
VERTEX
100
AcDbVertex
100
AcDb2dVertex
  8
1
 10
-61.884
 20
1.015
  0
VERTEX
100
AcDbVertex
100
AcDb2dVertex
  8
1
 10
-61.822
 20
1.048
  0
VERTEX
100
AcDbVertex
100
AcDb2dVertex
  8
1
 10
-61.764
 20
1.086
  0
VERTEX
100
AcDbVertex
100
AcDb2dVertex
  8
1
 10
-61.709
 20
1.13
  0
VERTEX
100
AcDbVertex
100
AcDb2dVertex
  8
1
 10
-61.658
 20
1.177
  0
VERTEX
100
AcDbVertex
100
AcDb2dVertex
  8
1
 10
-61.611
 20
1.229
  0
VERTEX
100
AcDbVertex
100
AcDb2dVertex
  8
1
 10
-61.606
 20
1.236
  0
VERTEX
100
AcDbVertex
100
AcDb2dVertex
  8
1
 10
-54.607
 20
1.236
  0
VERTEX
100
AcDbVertex
100
AcDb2dVertex
  8
1
 10
-54.607
 20
0.236
  0
VERTEX
100
AcDbVertex
100
AcDb2dVertex
  8
1
 10
-54.184
 20
-0.577
  0
VERTEX
100
AcDbVertex
100
AcDb2dVertex
  8
1
 10
-53.984
 20
-0.777
  0
VERTEX
100
AcDbVertex
100
AcDb2dVertex
  8
1
 10
-54.184
 20
-0.977
  0
VERTEX
100
AcDbVertex
100
AcDb2dVertex
  8
1
 10
-53.984
 20
-1.177
  0
VERTEX
100
AcDbVertex
100
AcDb2dVertex
  8
1
 10
-54.184
 20
-1.377
  0
VERTEX
100
AcDbVertex
100
AcDb2dVertex
  8
1
 10
-53.984
 20
-1.577
  0
VERTEX
100
AcDbVertex
100
AcDb2dVertex
  8
1
 10
-54.184
 20
-1.777
  0
VERTEX
100
AcDbVertex
100
AcDb2dVertex
  8
1
 10
-53.984
 20
-1.977
  0
VERTEX
100
AcDbVertex
100
AcDb2dVertex
  8
1
 10
-54.184
 20
-2.177
  0
VERTEX
100
AcDbVertex
100
AcDb2dVertex
  8
1
 10
-53.984
 20
-2.377
  0
VERTEX
100
AcDbVertex
100
AcDb2dVertex
  8
1
 10
-54.184
 20
-2.577
  0
VERTEX
100
AcDbVertex
100
AcDb2dVertex
  8
1
 10
-53.984
 20
-2.777
  0
VERTEX
100
AcDbVertex
100
AcDb2dVertex
  8
1
 10
-54.184
 20
-2.977
  0
VERTEX
100
AcDbVertex
100
AcDb2dVertex
  8
1
 10
-53.984
 20
-3.177
  0
VERTEX
100
AcDbVertex
100
AcDb2dVertex
  8
1
 10
-54.184
 20
-3.377
  0
VERTEX
100
AcDbVertex
100
AcDb2dVertex
  8
1
 10
-53.984
 20
-3.577
  0
VERTEX
100
AcDbVertex
100
AcDb2dVertex
  8
1
 10
-54.184
 20
-3.777
  0
VERTEX
100
AcDbVertex
100
AcDb2dVertex
  8
1
 10
-53.984
 20
-3.977
  0
VERTEX
100
AcDbVertex
100
AcDb2dVertex
  8
1
 10
-54.184
 20
-4.177
  0
VERTEX
100
AcDbVertex
100
AcDb2dVertex
  8
1
 10
-53.984
 20
-4.377
  0
VERTEX
100
AcDbVertex
100
AcDb2dVertex
  8
1
 10
-54.184
 20
-4.577
  0
VERTEX
100
AcDbVertex
100
AcDb2dVertex
  8
1
 10
-53.984
 20
-4.777
  0
VERTEX
100
AcDbVertex
100
AcDb2dVertex
  8
1
 10
-54.184
 20
-4.977
  0
VERTEX
100
AcDbVertex
100
AcDb2dVertex
  8
1
 10
-53.984
 20
-5.177
  0
VERTEX
100
AcDbVertex
100
AcDb2dVertex
  8
1
 10
-54.184
 20
-5.377
  0
VERTEX
100
AcDbVertex
100
AcDb2dVertex
  8
1
 10
-53.984
 20
-5.577
  0
VERTEX
100
AcDbVertex
100
AcDb2dVertex
  8
1
 10
-54.184
 20
-5.777
  0
VERTEX
100
AcDbVertex
100
AcDb2dVertex
  8
1
 10
-53.984
 20
-5.977
  0
VERTEX
100
AcDbVertex
100
AcDb2dVertex
  8
1
 10
-54.184
 20
-6.177
  0
VERTEX
100
AcDbVertex
100
AcDb2dVertex
  8
1
 10
-53.984
 20
-6.377
  0
VERTEX
100
AcDbVertex
100
AcDb2dVertex
  8
1
 10
-54.184
 20
-6.577
  0
VERTEX
100
AcDbVertex
100
AcDb2dVertex
  8
1
 10
-53.984
 20
-6.777
  0
VERTEX
100
AcDbVertex
100
AcDb2dVertex
  8
1
 10
-54.184
 20
-6.977
  0
VERTEX
100
AcDbVertex
100
AcDb2dVertex
  8
1
 10
-53.984
 20
-7.177
  0
VERTEX
100
AcDbVertex
100
AcDb2dVertex
  8
1
 10
-54.184
 20
-7.377
  0
VERTEX
100
AcDbVertex
100
AcDb2dVertex
  8
1
 10
-53.984
 20
-7.577
  0
VERTEX
100
AcDbVertex
100
AcDb2dVertex
  8
1
 10
-54.184
 20
-7.777
  0
VERTEX
100
AcDbVertex
100
AcDb2dVertex
  8
1
 10
-53.984
 20
-7.977
  0
VERTEX
100
AcDbVertex
100
AcDb2dVertex
  8
1
 10
-54.184
 20
-8.177
  0
VERTEX
100
AcDbVertex
100
AcDb2dVertex
  8
1
 10
-53.984
 20
-8.377
  0
VERTEX
100
AcDbVertex
100
AcDb2dVertex
  8
1
 10
-54.184
 20
-8.577
  0
VERTEX
100
AcDbVertex
100
AcDb2dVertex
  8
1
 10
-53.984
 20
-8.777
  0
VERTEX
100
AcDbVertex
100
AcDb2dVertex
  8
1
 10
-54.184
 20
-8.977
  0
VERTEX
100
AcDbVertex
100
AcDb2dVertex
  8
1
 10
-53.984
 20
-9.177
  0
VERTEX
100
AcDbVertex
100
AcDb2dVertex
  8
1
 10
-54.184
 20
-9.377
  0
VERTEX
100
AcDbVertex
100
AcDb2dVertex
  8
1
 10
-53.984
 20
-9.577
  0
VERTEX
100
AcDbVertex
100
AcDb2dVertex
  8
1
 10
-54.184
 20
-9.777
  0
VERTEX
100
AcDbVertex
100
AcDb2dVertex
  8
1
 10
-54.184
 20
-10.01
  0
VERTEX
100
AcDbVertex
100
AcDb2dVertex
  8
1
 10
-54.607
 20
-10.735
  0
VERTEX
100
AcDbVertex
100
AcDb2dVertex
  8
1
 10
-54.607
 20
-12.535
  0
VERTEX
100
AcDbVertex
100
AcDb2dVertex
  8
1
 10
-54.66
 20
-12.581
  0
VERTEX
100
AcDbVertex
100
AcDb2dVertex
  8
1
 10
-54.708
 20
-12.631
  0
VERTEX
100
AcDbVertex
100
AcDb2dVertex
  8
1
 10
-54.752
 20
-12.686
  0
VERTEX
100
AcDbVertex
100
AcDb2dVertex
  8
1
 10
-54.791
 20
-12.744
  0
VERTEX
100
AcDbVertex
100
AcDb2dVertex
  8
1
 10
-54.824
 20
-12.805
  0
VERTEX
100
AcDbVertex
100
AcDb2dVertex
  8
1
 10
-54.852
 20
-12.869
  0
VERTEX
100
AcDbVertex
100
AcDb2dVertex
  8
1
 10
-54.875
 20
-12.935
  0
VERTEX
100
AcDbVertex
100
AcDb2dVertex
  8
1
 10
-54.892
 20
-13.003
  0
VERTEX
100
AcDbVertex
100
AcDb2dVertex
  8
1
 10
-54.902
 20
-13.072
  0
VERTEX
100
AcDbVertex
100
AcDb2dVertex
  8
1
 10
-54.907
 20
-13.142
  0
VERTEX
100
AcDbVertex
100
AcDb2dVertex
  8
1
 10
-54.905
 20
-13.212
  0
VERTEX
100
AcDbVertex
100
AcDb2dVertex
  8
1
 10
-54.898
 20
-13.281
  0
VERTEX
100
AcDbVertex
100
AcDb2dVertex
  8
1
 10
-54.884
 20
-13.35
  0
VERTEX
100
AcDbVertex
100
AcDb2dVertex
  8
1
 10
-54.865
 20
-13.417
  0
VERTEX
100
AcDbVertex
100
AcDb2dVertex
  8
1
 10
-54.862
 20
-13.425
  0
VERTEX
100
AcDbVertex
100
AcDb2dVertex
  8
1
 10
-54.836
 20
-13.49
  0
VERTEX
100
AcDbVertex
100
AcDb2dVertex
  8
1
 10
-54.804
 20
-13.552
  0
VERTEX
100
AcDbVertex
100
AcDb2dVertex
  8
1
 10
-54.768
 20
-13.611
  0
VERTEX
100
AcDbVertex
100
AcDb2dVertex
  8
1
 10
-54.726
 20
-13.667
  0
VERTEX
100
AcDbVertex
100
AcDb2dVertex
  8
1
 10
-54.679
 20
-13.719
  0
VERTEX
100
AcDbVertex
100
AcDb2dVertex
  8
1
 10
-54.628
 20
-13.767
  0
VERTEX
100
AcDbVertex
100
AcDb2dVertex
  8
1
 10
-54.573
 20
-13.81
  0
VERTEX
100
AcDbVertex
100
AcDb2dVertex
  8
1
 10
-54.515
 20
-13.848
  0
VERTEX
100
AcDbVertex
100
AcDb2dVertex
  8
1
 10
-54.453
 20
-13.881
  0
VERTEX
100
AcDbVertex
100
AcDb2dVertex
  8
1
 10
-54.389
 20
-13.909
  0
VERTEX
100
AcDbVertex
100
AcDb2dVertex
  8
1
 10
-54.322
 20
-13.93
  0
VERTEX
100
AcDbVertex
100
AcDb2dVertex
  8
1
 10
-54.254
 20
-13.946
  0
VERTEX
100
AcDbVertex
100
AcDb2dVertex
  8
1
 10
-54.185
 20
-13.956
  0
VERTEX
100
AcDbVertex
100
AcDb2dVertex
  8
1
 10
-54.115
 20
-13.96
  0
VERTEX
100
AcDbVertex
100
AcDb2dVertex
  8
1
 10
-54.107
 20
-13.96
  0
VERTEX
100
AcDbVertex
100
AcDb2dVertex
  8
1
 10
-54.037
 20
-13.957
  0
VERTEX
100
AcDbVertex
100
AcDb2dVertex
  8
1
 10
-53.968
 20
-13.948
  0
VERTEX
100
AcDbVertex
100
AcDb2dVertex
  8
1
 10
-53.9
 20
-13.933
  0
VERTEX
100
AcDbVertex
100
AcDb2dVertex
  8
1
 10
-53.833
 20
-13.912
  0
VERTEX
100
AcDbVertex
100
AcDb2dVertex
  8
1
 10
-53.769
 20
-13.885
  0
VERTEX
100
AcDbVertex
100
AcDb2dVertex
  8
1
 10
-53.707
 20
-13.853
  0
VERTEX
100
AcDbVertex
100
AcDb2dVertex
  8
1
 10
-53.648
 20
-13.815
  0
VERTEX
100
AcDbVertex
100
AcDb2dVertex
  8
1
 10
-53.592
 20
-13.773
  0
VERTEX
100
AcDbVertex
100
AcDb2dVertex
  8
1
 10
-53.541
 20
-13.725
  0
VERTEX
100
AcDbVertex
100
AcDb2dVertex
  8
1
 10
-53.494
 20
-13.674
  0
VERTEX
100
AcDbVertex
100
AcDb2dVertex
  8
1
 10
-53.451
 20
-13.619
  0
VERTEX
100
AcDbVertex
100
AcDb2dVertex
  8
1
 10
-53.414
 20
-13.56
  0
VERTEX
100
AcDbVertex
100
AcDb2dVertex
  8
1
 10
-53.382
 20
-13.498
  0
VERTEX
100
AcDbVertex
100
AcDb2dVertex
  8
1
 10
-53.355
 20
-13.433
  0
VERTEX
100
AcDbVertex
100
AcDb2dVertex
  8
1
 10
-53.352
 20
-13.425
  0
VERTEX
100
AcDbVertex
100
AcDb2dVertex
  8
1
 10
-53.332
 20
-13.358
  0
VERTEX
100
AcDbVertex
100
AcDb2dVertex
  8
1
 10
-53.317
 20
-13.29
  0
VERTEX
100
AcDbVertex
100
AcDb2dVertex
  8
1
 10
-53.309
 20
-13.221
  0
VERTEX
100
AcDbVertex
100
AcDb2dVertex
  8
1
 10
-53.307
 20
-13.151
  0
VERTEX
100
AcDbVertex
100
AcDb2dVertex
  8
1
 10
-53.311
 20
-13.081
  0
VERTEX
100
AcDbVertex
100
AcDb2dVertex
  8
1
 10
-53.321
 20
-13.012
  0
VERTEX
100
AcDbVertex
100
AcDb2dVertex
  8
1
 10
-53.336
 20
-12.944
  0
VERTEX
100
AcDbVertex
100
AcDb2dVertex
  8
1
 10
-53.358
 20
-12.878
  0
VERTEX
100
AcDbVertex
100
AcDb2dVertex
  8
1
 10
-53.386
 20
-12.813
  0
VERTEX
100
AcDbVertex
100
AcDb2dVertex
  8
1
 10
-53.419
 20
-12.752
  0
VERTEX
100
AcDbVertex
100
AcDb2dVertex
  8
1
 10
-53.457
 20
-12.693
  0
VERTEX
100
AcDbVertex
100
AcDb2dVertex
  8
1
 10
-53.5
 20
-12.639
  0
VERTEX
100
AcDbVertex
100
AcDb2dVertex
  8
1
 10
-53.548
 20
-12.588
  0
VERTEX
100
AcDbVertex
100
AcDb2dVertex
  8
1
 10
-53.6
 20
-12.541
  0
VERTEX
100
AcDbVertex
100
AcDb2dVertex
  8
1
 10
-53.607
 20
-12.535
  0
VERTEX
100
AcDbVertex
100
AcDb2dVertex
  8
1
 10
-53.607
 20
-10.735
  0
VERTEX
100
AcDbVertex
100
AcDb2dVertex
  8
1
 10
-54.085
 20
-10.01
  0
VERTEX
100
AcDbVertex
100
AcDb2dVertex
  8
1
 10
-54.085
 20
-9.777
  0
VERTEX
100
AcDbVertex
100
AcDb2dVertex
  8
1
 10
-53.885
 20
-9.577
  0
VERTEX
100
AcDbVertex
100
AcDb2dVertex
  8
1
 10
-54.085
 20
-9.377
  0
VERTEX
100
AcDbVertex
100
AcDb2dVertex
  8
1
 10
-53.885
 20
-9.177
  0
VERTEX
100
AcDbVertex
100
AcDb2dVertex
  8
1
 10
-54.085
 20
-8.977
  0
VERTEX
100
AcDbVertex
100
AcDb2dVertex
  8
1
 10
-53.885
 20
-8.777
  0
VERTEX
100
AcDbVertex
100
AcDb2dVertex
  8
1
 10
-54.085
 20
-8.577
  0
VERTEX
100
AcDbVertex
100
AcDb2dVertex
  8
1
 10
-53.885
 20
-8.377
  0
VERTEX
100
AcDbVertex
100
AcDb2dVertex
  8
1
 10
-54.085
 20
-8.177
  0
VERTEX
100
AcDbVertex
100
AcDb2dVertex
  8
1
 10
-53.885
 20
-7.977
  0
VERTEX
100
AcDbVertex
100
AcDb2dVertex
  8
1
 10
-54.085
 20
-7.777
  0
VERTEX
100
AcDbVertex
100
AcDb2dVertex
  8
1
 10
-53.885
 20
-7.577
  0
VERTEX
100
AcDbVertex
100
AcDb2dVertex
  8
1
 10
-54.085
 20
-7.377
  0
VERTEX
100
AcDbVertex
100
AcDb2dVertex
  8
1
 10
-53.885
 20
-7.177
  0
VERTEX
100
AcDbVertex
100
AcDb2dVertex
  8
1
 10
-54.085
 20
-6.977
  0
VERTEX
100
AcDbVertex
100
AcDb2dVertex
  8
1
 10
-53.885
 20
-6.777
  0
VERTEX
100
AcDbVertex
100
AcDb2dVertex
  8
1
 10
-54.085
 20
-6.577
  0
VERTEX
100
AcDbVertex
100
AcDb2dVertex
  8
1
 10
-53.885
 20
-6.377
  0
VERTEX
100
AcDbVertex
100
AcDb2dVertex
  8
1
 10
-54.085
 20
-6.177
  0
VERTEX
100
AcDbVertex
100
AcDb2dVertex
  8
1
 10
-53.885
 20
-5.977
  0
VERTEX
100
AcDbVertex
100
AcDb2dVertex
  8
1
 10
-54.085
 20
-5.777
  0
VERTEX
100
AcDbVertex
100
AcDb2dVertex
  8
1
 10
-53.885
 20
-5.577
  0
VERTEX
100
AcDbVertex
100
AcDb2dVertex
  8
1
 10
-54.085
 20
-5.377
  0
VERTEX
100
AcDbVertex
100
AcDb2dVertex
  8
1
 10
-53.885
 20
-5.177
  0
VERTEX
100
AcDbVertex
100
AcDb2dVertex
  8
1
 10
-54.085
 20
-4.977
  0
VERTEX
100
AcDbVertex
100
AcDb2dVertex
  8
1
 10
-53.885
 20
-4.777
  0
VERTEX
100
AcDbVertex
100
AcDb2dVertex
  8
1
 10
-54.085
 20
-4.577
  0
VERTEX
100
AcDbVertex
100
AcDb2dVertex
  8
1
 10
-53.885
 20
-4.377
  0
VERTEX
100
AcDbVertex
100
AcDb2dVertex
  8
1
 10
-54.085
 20
-4.177
  0
VERTEX
100
AcDbVertex
100
AcDb2dVertex
  8
1
 10
-53.885
 20
-3.977
  0
VERTEX
100
AcDbVertex
100
AcDb2dVertex
  8
1
 10
-54.085
 20
-3.777
  0
VERTEX
100
AcDbVertex
100
AcDb2dVertex
  8
1
 10
-53.885
 20
-3.577
  0
VERTEX
100
AcDbVertex
100
AcDb2dVertex
  8
1
 10
-54.085
 20
-3.377
  0
VERTEX
100
AcDbVertex
100
AcDb2dVertex
  8
1
 10
-53.885
 20
-3.177
  0
VERTEX
100
AcDbVertex
100
AcDb2dVertex
  8
1
 10
-54.085
 20
-2.977
  0
VERTEX
100
AcDbVertex
100
AcDb2dVertex
  8
1
 10
-53.885
 20
-2.777
  0
VERTEX
100
AcDbVertex
100
AcDb2dVertex
  8
1
 10
-54.085
 20
-2.577
  0
VERTEX
100
AcDbVertex
100
AcDb2dVertex
  8
1
 10
-53.885
 20
-2.377
  0
VERTEX
100
AcDbVertex
100
AcDb2dVertex
  8
1
 10
-54.085
 20
-2.177
  0
VERTEX
100
AcDbVertex
100
AcDb2dVertex
  8
1
 10
-53.885
 20
-1.977
  0
VERTEX
100
AcDbVertex
100
AcDb2dVertex
  8
1
 10
-54.085
 20
-1.777
  0
VERTEX
100
AcDbVertex
100
AcDb2dVertex
  8
1
 10
-53.885
 20
-1.577
  0
VERTEX
100
AcDbVertex
100
AcDb2dVertex
  8
1
 10
-54.085
 20
-1.377
  0
VERTEX
100
AcDbVertex
100
AcDb2dVertex
  8
1
 10
-53.885
 20
-1.177
  0
VERTEX
100
AcDbVertex
100
AcDb2dVertex
  8
1
 10
-54.085
 20
-0.977
  0
VERTEX
100
AcDbVertex
100
AcDb2dVertex
  8
1
 10
-53.885
 20
-0.777
  0
VERTEX
100
AcDbVertex
100
AcDb2dVertex
  8
1
 10
-54.085
 20
-0.577
  0
VERTEX
100
AcDbVertex
100
AcDb2dVertex
  8
1
 10
-53.607
 20
0.236
  0
VERTEX
100
AcDbVertex
100
AcDb2dVertex
  8
1
 10
-53.607
 20
1.236
  0
VERTEX
100
AcDbVertex
100
AcDb2dVertex
  8
1
 10
-52.607
 20
1.236
  0
VERTEX
100
AcDbVertex
100
AcDb2dVertex
  8
1
 10
-51.794
 20
1.659
  0
VERTEX
100
AcDbVertex
100
AcDb2dVertex
  8
1
 10
-51.594
 20
1.859
  0
VERTEX
100
AcDbVertex
100
AcDb2dVertex
  8
1
 10
-51.394
 20
1.659
  0
VERTEX
100
AcDbVertex
100
AcDb2dVertex
  8
1
 10
-51.194
 20
1.859
  0
VERTEX
100
AcDbVertex
100
AcDb2dVertex
  8
1
 10
-50.994
 20
1.659
  0
VERTEX
100
AcDbVertex
100
AcDb2dVertex
  8
1
 10
-50.794
 20
1.859
  0
VERTEX
100
AcDbVertex
100
AcDb2dVertex
  8
1
 10
-50.594
 20
1.659
  0
VERTEX
100
AcDbVertex
100
AcDb2dVertex
  8
1
 10
-50.394
 20
1.859
  0
VERTEX
100
AcDbVertex
100
AcDb2dVertex
  8
1
 10
-50.194
 20
1.659
  0
VERTEX
100
AcDbVertex
100
AcDb2dVertex
  8
1
 10
-49.994
 20
1.859
  0
VERTEX
100
AcDbVertex
100
AcDb2dVertex
  8
1
 10
-49.794
 20
1.659
  0
VERTEX
100
AcDbVertex
100
AcDb2dVertex
  8
1
 10
-49.594
 20
1.859
  0
VERTEX
100
AcDbVertex
100
AcDb2dVertex
  8
1
 10
-49.394
 20
1.659
  0
VERTEX
100
AcDbVertex
100
AcDb2dVertex
  8
1
 10
-49.194
 20
1.859
  0
VERTEX
100
AcDbVertex
100
AcDb2dVertex
  8
1
 10
-48.994
 20
1.659
  0
VERTEX
100
AcDbVertex
100
AcDb2dVertex
  8
1
 10
-48.794
 20
1.859
  0
VERTEX
100
AcDbVertex
100
AcDb2dVertex
  8
1
 10
-48.594
 20
1.659
  0
VERTEX
100
AcDbVertex
100
AcDb2dVertex
  8
1
 10
-48.394
 20
1.859
  0
VERTEX
100
AcDbVertex
100
AcDb2dVertex
  8
1
 10
-48.194
 20
1.659
  0
VERTEX
100
AcDbVertex
100
AcDb2dVertex
  8
1
 10
-47.994
 20
1.859
  0
VERTEX
100
AcDbVertex
100
AcDb2dVertex
  8
1
 10
-47.794
 20
1.659
  0
VERTEX
100
AcDbVertex
100
AcDb2dVertex
  8
1
 10
-47.594
 20
1.859
  0
VERTEX
100
AcDbVertex
100
AcDb2dVertex
  8
1
 10
-47.394
 20
1.659
  0
VERTEX
100
AcDbVertex
100
AcDb2dVertex
  8
1
 10
-47.194
 20
1.859
  0
VERTEX
100
AcDbVertex
100
AcDb2dVertex
  8
1
 10
-46.994
 20
1.659
  0
VERTEX
100
AcDbVertex
100
AcDb2dVertex
  8
1
 10
-46.794
 20
1.859
  0
VERTEX
100
AcDbVertex
100
AcDb2dVertex
  8
1
 10
-46.594
 20
1.659
  0
VERTEX
100
AcDbVertex
100
AcDb2dVertex
  8
1
 10
-46.394
 20
1.859
  0
VERTEX
100
AcDbVertex
100
AcDb2dVertex
  8
1
 10
-46.194
 20
1.659
  0
VERTEX
100
AcDbVertex
100
AcDb2dVertex
  8
1
 10
-45.994
 20
1.859
  0
VERTEX
100
AcDbVertex
100
AcDb2dVertex
  8
1
 10
-45.794
 20
1.659
  0
VERTEX
100
AcDbVertex
100
AcDb2dVertex
  8
1
 10
-45.594
 20
1.859
  0
VERTEX
100
AcDbVertex
100
AcDb2dVertex
  8
1
 10
-45.394
 20
1.659
  0
VERTEX
100
AcDbVertex
100
AcDb2dVertex
  8
1
 10
-45.194
 20
1.859
  0
VERTEX
100
AcDbVertex
100
AcDb2dVertex
  8
1
 10
-44.994
 20
1.659
  0
VERTEX
100
AcDbVertex
100
AcDb2dVertex
  8
1
 10
-44.794
 20
1.859
  0
VERTEX
100
AcDbVertex
100
AcDb2dVertex
  8
1
 10
-44.594
 20
1.659
  0
VERTEX
100
AcDbVertex
100
AcDb2dVertex
  8
1
 10
-44.394
 20
1.859
  0
VERTEX
100
AcDbVertex
100
AcDb2dVertex
  8
1
 10
-44.194
 20
1.659
  0
VERTEX
100
AcDbVertex
100
AcDb2dVertex
  8
1
 10
-43.994
 20
1.859
  0
VERTEX
100
AcDbVertex
100
AcDb2dVertex
  8
1
 10
-43.794
 20
1.659
  0
VERTEX
100
AcDbVertex
100
AcDb2dVertex
  8
1
 10
-43.594
 20
1.859
  0
VERTEX
100
AcDbVertex
100
AcDb2dVertex
  8
1
 10
-43.394
 20
1.659
  0
VERTEX
100
AcDbVertex
100
AcDb2dVertex
  8
1
 10
-43.194
 20
1.859
  0
VERTEX
100
AcDbVertex
100
AcDb2dVertex
  8
1
 10
-42.994
 20
1.659
  0
VERTEX
100
AcDbVertex
100
AcDb2dVertex
  8
1
 10
-42.794
 20
1.859
  0
VERTEX
100
AcDbVertex
100
AcDb2dVertex
  8
1
 10
-42.594
 20
1.659
  0
VERTEX
100
AcDbVertex
100
AcDb2dVertex
  8
1
 10
-42.361
 20
1.659
  0
VERTEX
100
AcDbVertex
100
AcDb2dVertex
  8
1
 10
-31.861
 20
-12.389
  0
VERTEX
100
AcDbVertex
100
AcDb2dVertex
  8
1
 10
-21.361
 20
1.659
  0
VERTEX
100
AcDbVertex
100
AcDb2dVertex
  8
1
 10
-21.161
 20
1.603
  0
VERTEX
100
AcDbVertex
100
AcDb2dVertex
  8
1
 10
-18.361
 20
1.603
  0
VERTEX
100
AcDbVertex
100
AcDb2dVertex
  8
1
 10
-17.729
 20
1.232
  0
VERTEX
100
AcDbVertex
100
AcDb2dVertex
  8
1
 10
-15.624
 20
1.232
  0
VERTEX
100
AcDbVertex
100
AcDb2dVertex
  8
1
 10
-15.578
 20
1.179
  0
VERTEX
100
AcDbVertex
100
AcDb2dVertex
  8
1
 10
-15.528
 20
1.131
  0
VERTEX
100
AcDbVertex
100
AcDb2dVertex
  8
1
 10
-15.473
 20
1.087
  0
VERTEX
100
AcDbVertex
100
AcDb2dVertex
  8
1
 10
-15.415
 20
1.049
  0
VERTEX
100
AcDbVertex
100
AcDb2dVertex
  8
1
 10
-15.354
 20
1.015
  0
VERTEX
100
AcDbVertex
100
AcDb2dVertex
  8
1
 10
-15.29
 20
0.987
  0
VERTEX
100
AcDbVertex
100
AcDb2dVertex
  8
1
 10
-15.224
 20
0.964
  0
VERTEX
100
AcDbVertex
100
AcDb2dVertex
  8
1
 10
-15.156
 20
0.948
  0
VERTEX
100
AcDbVertex
100
AcDb2dVertex
  8
1
 10
-15.087
 20
0.937
  0
VERTEX
100
AcDbVertex
100
AcDb2dVertex
  8
1
 10
-15.018
 20
0.932
  0
VERTEX
100
AcDbVertex
100
AcDb2dVertex
  8
1
 10
-14.948
 20
0.934
  0
VERTEX
100
AcDbVertex
100
AcDb2dVertex
  8
1
 10
-14.879
 20
0.941
  0
VERTEX
100
AcDbVertex
100
AcDb2dVertex
  8
1
 10
-14.81
 20
0.955
  0
VERTEX
100
AcDbVertex
100
AcDb2dVertex
  8
1
 10
-14.743
 20
0.974
  0
VERTEX
100
AcDbVertex
100
AcDb2dVertex
  8
1
 10
-14.735
 20
0.977
  0
VERTEX
100
AcDbVertex
100
AcDb2dVertex
  8
1
 10
-14.67
 20
1.003
  0
VERTEX
100
AcDbVertex
100
AcDb2dVertex
  8
1
 10
-14.608
 20
1.035
  0
VERTEX
100
AcDbVertex
100
AcDb2dVertex
  8
1
 10
-14.549
 20
1.071
  0
VERTEX
100
AcDbVertex
100
AcDb2dVertex
  8
1
 10
-14.493
 20
1.113
  0
VERTEX
100
AcDbVertex
100
AcDb2dVertex
  8
1
 10
-14.441
 20
1.16
  0
VERTEX
100
AcDbVertex
100
AcDb2dVertex
  8
1
 10
-14.393
 20
1.211
  0
VERTEX
100
AcDbVertex
100
AcDb2dVertex
  8
1
 10
-14.35
 20
1.266
  0
VERTEX
100
AcDbVertex
100
AcDb2dVertex
  8
1
 10
-14.312
 20
1.324
  0
VERTEX
100
AcDbVertex
100
AcDb2dVertex
  8
1
 10
-14.279
 20
1.386
  0
VERTEX
100
AcDbVertex
100
AcDb2dVertex
  8
1
 10
-14.251
 20
1.45
  0
VERTEX
100
AcDbVertex
100
AcDb2dVertex
  8
1
 10
-14.23
 20
1.516
  0
VERTEX
100
AcDbVertex
100
AcDb2dVertex
  8
1
 10
-14.214
 20
1.584
  0
VERTEX
100
AcDbVertex
100
AcDb2dVertex
  8
1
 10
-14.204
 20
1.653
  0
VERTEX
100
AcDbVertex
100
AcDb2dVertex
  8
1
 10
-14.2
 20
1.723
  0
VERTEX
100
AcDbVertex
100
AcDb2dVertex
  8
1
 10
-14.2
 20
1.732
  0
VERTEX
100
AcDbVertex
100
AcDb2dVertex
  8
1
 10
-14.203
 20
1.802
  0
VERTEX
100
AcDbVertex
100
AcDb2dVertex
  8
1
 10
-14.212
 20
1.871
  0
VERTEX
100
AcDbVertex
100
AcDb2dVertex
  8
1
 10
-14.227
 20
1.939
  0
VERTEX
100
AcDbVertex
100
AcDb2dVertex
  8
1
 10
-14.248
 20
2.006
  0
VERTEX
100
AcDbVertex
100
AcDb2dVertex
  8
1
 10
-14.275
 20
2.07
  0
VERTEX
100
AcDbVertex
100
AcDb2dVertex
  8
1
 10
-14.307
 20
2.132
  0
VERTEX
100
AcDbVertex
100
AcDb2dVertex
  8
1
 10
-14.344
 20
2.191
  0
VERTEX
100
AcDbVertex
100
AcDb2dVertex
  8
1
 10
-14.387
 20
2.246
  0
VERTEX
100
AcDbVertex
100
AcDb2dVertex
  8
1
 10
-14.434
 20
2.298
  0
VERTEX
100
AcDbVertex
100
AcDb2dVertex
  8
1
 10
-14.485
 20
2.345
  0
VERTEX
100
AcDbVertex
100
AcDb2dVertex
  8
1
 10
-14.541
 20
2.387
  0
VERTEX
100
AcDbVertex
100
AcDb2dVertex
  8
1
 10
-14.599
 20
2.425
  0
VERTEX
100
AcDbVertex
100
AcDb2dVertex
  8
1
 10
-14.661
 20
2.457
  0
VERTEX
100
AcDbVertex
100
AcDb2dVertex
  8
1
 10
-14.726
 20
2.484
  0
VERTEX
100
AcDbVertex
100
AcDb2dVertex
  8
1
 10
-14.735
 20
2.487
  0
VERTEX
100
AcDbVertex
100
AcDb2dVertex
  8
1
 10
-14.802
 20
2.507
  0
VERTEX
100
AcDbVertex
100
AcDb2dVertex
  8
1
 10
-14.87
 20
2.522
  0
VERTEX
100
AcDbVertex
100
AcDb2dVertex
  8
1
 10
-14.939
 20
2.53
  0
VERTEX
100
AcDbVertex
100
AcDb2dVertex
  8
1
 10
-15.009
 20
2.532
  0
VERTEX
100
AcDbVertex
100
AcDb2dVertex
  8
1
 10
-15.078
 20
2.528
  0
VERTEX
100
AcDbVertex
100
AcDb2dVertex
  8
1
 10
-15.147
 20
2.518
  0
VERTEX
100
AcDbVertex
100
AcDb2dVertex
  8
1
 10
-15.215
 20
2.502
  0
VERTEX
100
AcDbVertex
100
AcDb2dVertex
  8
1
 10
-15.282
 20
2.481
  0
VERTEX
100
AcDbVertex
100
AcDb2dVertex
  8
1
 10
-15.346
 20
2.453
  0
VERTEX
100
AcDbVertex
100
AcDb2dVertex
  8
1
 10
-15.407
 20
2.42
  0
VERTEX
100
AcDbVertex
100
AcDb2dVertex
  8
1
 10
-15.466
 20
2.382
  0
VERTEX
100
AcDbVertex
100
AcDb2dVertex
  8
1
 10
-15.52
 20
2.339
  0
VERTEX
100
AcDbVertex
100
AcDb2dVertex
  8
1
 10
-15.571
 20
2.291
  0
VERTEX
100
AcDbVertex
100
AcDb2dVertex
  8
1
 10
-15.618
 20
2.24
  0
VERTEX
100
AcDbVertex
100
AcDb2dVertex
  8
1
 10
-15.624
 20
2.232
  0
VERTEX
100
AcDbVertex
100
AcDb2dVertex
  8
1
 10
-17.729
 20
2.232
  0
VERTEX
100
AcDbVertex
100
AcDb2dVertex
  8
1
 10
-18.361
 20
1.815
  0
VERTEX
100
AcDbVertex
100
AcDb2dVertex
  8
1
 10
-21.161
 20
1.815
  0
VERTEX
100
AcDbVertex
100
AcDb2dVertex
  8
1
 10
-21.361
 20
1.758
  0
VERTEX
100
AcDbVertex
100
AcDb2dVertex
  8
1
 10
-31.861
 20
12.205
  0
VERTEX
100
AcDbVertex
100
AcDb2dVertex
  8
1
 10
-31.861
 20
11.982
  0
SEQEND
  0
ENDSEC
  0
EOF
