  0
SECTION
  2
HEADER
  9
$EXTMIN
 10
-16070
 20
-15611.5
  9
$EXTMAX
 10
32646.4
 20
9873.16
  9
$INSUNITS
 70
13
  0
ENDSEC
  0
SECTION
  2
TABLES
  0
TABLE
  2
LAYER
 70
   3
  0
LAYER
  2
3
 70
    0
 62
    21
  6
CONTINUOUS
  0
LAYER
  2
layer_7
 70
    0
 62
    143
  6
CONTINUOUS
  0
LAYER
  2
layer_10
 70
    0
 62
    111
  6
CONTINUOUS
  0
ENDTAB
  0
ENDSEC
  0
SECTION
  2
BLOCKS
  0
ENDSEC
  0
SECTION
  2
ENTITIES
  0
TEXT
100
AcDbText
  8
layer_10
 10
-16070
 20
9873.162
 11
-16070
 21
9873.162
 30
   0
 40
-0.016
  1
Generated with the LayoutEditor (This message will NOT be added by any commercial version of the LayoutEditor.)
 50
0
 72
0
 73
3
  0
TEXT
100
AcDbText
  8
3
 10
-16070
 20
9873.162
 11
-16070
 21
9873.162
 30
   0
 40
-0.016
  1
Generated with the LayoutEditor (This message will NOT be added by any commercial version of the LayoutEditor.)
 50
0
 72
0
 73
3
  0
POLYLINE
100
AcDb2dPolyline
  8
layer_10
 66
   1
 70
   1
 40
0.0
 41
0.0
  0
VERTEX
100
AcDbVertex
100
AcDb2dVertex
  8
layer_10
 10
14962.402
 20
9656.175
  0
VERTEX
100
AcDbVertex
100
AcDb2dVertex
  8
layer_10
 10
25119.193
 20
98.129
  0
VERTEX
100
AcDbVertex
100
AcDb2dVertex
  8
layer_10
 10
4805.612
 20
98.129
  0
VERTEX
100
AcDbVertex
100
AcDb2dVertex
  8
layer_10
 10
14962.402
 20
9656.175
  0
VERTEX
100
AcDbVertex
100
AcDb2dVertex
  8
layer_10
 10
14962.402
 20
9873.162
  0
VERTEX
100
AcDbVertex
100
AcDb2dVertex
  8
layer_10
 10
4790.646
 20
301.032
  0
VERTEX
100
AcDbVertex
100
AcDb2dVertex
  8
layer_10
 10
4790.646
 20
-212.846
  0
VERTEX
100
AcDbVertex
100
AcDb2dVertex
  8
layer_10
 10
25134.159
 20
-212.846
  0
VERTEX
100
AcDbVertex
100
AcDb2dVertex
  8
layer_10
 10
14962.402
 20
-13822.385
  0
VERTEX
100
AcDbVertex
100
AcDb2dVertex
  8
layer_10
 10
4790.646
 20
-212.846
  0
VERTEX
100
AcDbVertex
100
AcDb2dVertex
  8
layer_10
 10
4790.646
 20
301.032
  0
VERTEX
100
AcDbVertex
100
AcDb2dVertex
  8
layer_10
 10
4462.402
 20
-7.861
  0
VERTEX
100
AcDbVertex
100
AcDb2dVertex
  8
layer_10
 10
4252.402
 20
-36.145
  0
VERTEX
100
AcDbVertex
100
AcDb2dVertex
  8
layer_10
 10
4166.688
 20
49.569
  0
VERTEX
100
AcDbVertex
100
AcDb2dVertex
  8
layer_10
 10
4080.974
 20
-36.145
  0
VERTEX
100
AcDbVertex
100
AcDb2dVertex
  8
layer_10
 10
3995.259
 20
49.569
  0
VERTEX
100
AcDbVertex
100
AcDb2dVertex
  8
layer_10
 10
3909.545
 20
-36.145
  0
VERTEX
100
AcDbVertex
100
AcDb2dVertex
  8
layer_10
 10
3823.831
 20
49.569
  0
VERTEX
100
AcDbVertex
100
AcDb2dVertex
  8
layer_10
 10
3738.117
 20
-36.145
  0
VERTEX
100
AcDbVertex
100
AcDb2dVertex
  8
layer_10
 10
3652.402
 20
49.569
  0
VERTEX
100
AcDbVertex
100
AcDb2dVertex
  8
layer_10
 10
3566.688
 20
-36.145
  0
VERTEX
100
AcDbVertex
100
AcDb2dVertex
  8
layer_10
 10
3480.974
 20
49.569
  0
VERTEX
100
AcDbVertex
100
AcDb2dVertex
  8
layer_10
 10
3395.259
 20
-36.145
  0
VERTEX
100
AcDbVertex
100
AcDb2dVertex
  8
layer_10
 10
3309.545
 20
49.569
  0
VERTEX
100
AcDbVertex
100
AcDb2dVertex
  8
layer_10
 10
3223.831
 20
-36.145
  0
VERTEX
100
AcDbVertex
100
AcDb2dVertex
  8
layer_10
 10
3138.117
 20
49.569
  0
VERTEX
100
AcDbVertex
100
AcDb2dVertex
  8
layer_10
 10
3052.402
 20
-36.145
  0
VERTEX
100
AcDbVertex
100
AcDb2dVertex
  8
layer_10
 10
2966.688
 20
49.569
  0
VERTEX
100
AcDbVertex
100
AcDb2dVertex
  8
layer_10
 10
2880.974
 20
-36.145
  0
VERTEX
100
AcDbVertex
100
AcDb2dVertex
  8
layer_10
 10
2795.259
 20
49.569
  0
VERTEX
100
AcDbVertex
100
AcDb2dVertex
  8
layer_10
 10
2709.545
 20
-36.145
  0
VERTEX
100
AcDbVertex
100
AcDb2dVertex
  8
layer_10
 10
2623.831
 20
49.569
  0
VERTEX
100
AcDbVertex
100
AcDb2dVertex
  8
layer_10
 10
2538.117
 20
-36.145
  0
VERTEX
100
AcDbVertex
100
AcDb2dVertex
  8
layer_10
 10
2452.402
 20
49.569
  0
VERTEX
100
AcDbVertex
100
AcDb2dVertex
  8
layer_10
 10
2366.688
 20
-36.145
  0
VERTEX
100
AcDbVertex
100
AcDb2dVertex
  8
layer_10
 10
2280.974
 20
49.569
  0
VERTEX
100
AcDbVertex
100
AcDb2dVertex
  8
layer_10
 10
2195.26
 20
-36.145
  0
VERTEX
100
AcDbVertex
100
AcDb2dVertex
  8
layer_10
 10
2109.545
 20
49.569
  0
VERTEX
100
AcDbVertex
100
AcDb2dVertex
  8
layer_10
 10
2023.831
 20
-36.145
  0
VERTEX
100
AcDbVertex
100
AcDb2dVertex
  8
layer_10
 10
1938.117
 20
49.569
  0
VERTEX
100
AcDbVertex
100
AcDb2dVertex
  8
layer_10
 10
1852.402
 20
-36.145
  0
VERTEX
100
AcDbVertex
100
AcDb2dVertex
  8
layer_10
 10
1766.688
 20
49.569
  0
VERTEX
100
AcDbVertex
100
AcDb2dVertex
  8
layer_10
 10
1680.974
 20
-36.145
  0
VERTEX
100
AcDbVertex
100
AcDb2dVertex
  8
layer_10
 10
1595.26
 20
49.569
  0
VERTEX
100
AcDbVertex
100
AcDb2dVertex
  8
layer_10
 10
1509.545
 20
-36.145
  0
VERTEX
100
AcDbVertex
100
AcDb2dVertex
  8
layer_10
 10
1423.831
 20
49.569
  0
VERTEX
100
AcDbVertex
100
AcDb2dVertex
  8
layer_10
 10
1338.117
 20
-36.145
  0
VERTEX
100
AcDbVertex
100
AcDb2dVertex
  8
layer_10
 10
1252.402
 20
49.569
  0
VERTEX
100
AcDbVertex
100
AcDb2dVertex
  8
layer_10
 10
1166.688
 20
-36.145
  0
VERTEX
100
AcDbVertex
100
AcDb2dVertex
  8
layer_10
 10
1080.974
 20
49.569
  0
VERTEX
100
AcDbVertex
100
AcDb2dVertex
  8
layer_10
 10
995.26
 20
-36.145
  0
VERTEX
100
AcDbVertex
100
AcDb2dVertex
  8
layer_10
 10
909.545
 20
49.569
  0
VERTEX
100
AcDbVertex
100
AcDb2dVertex
  8
layer_10
 10
823.831
 20
-36.145
  0
VERTEX
100
AcDbVertex
100
AcDb2dVertex
  8
layer_10
 10
738.117
 20
49.569
  0
VERTEX
100
AcDbVertex
100
AcDb2dVertex
  8
layer_10
 10
652.403
 20
-36.145
  0
VERTEX
100
AcDbVertex
100
AcDb2dVertex
  8
layer_10
 10
566.688
 20
49.569
  0
VERTEX
100
AcDbVertex
100
AcDb2dVertex
  8
layer_10
 10
480.974
 20
-36.145
  0
VERTEX
100
AcDbVertex
100
AcDb2dVertex
  8
layer_10
 10
395.26
 20
49.569
  0
VERTEX
100
AcDbVertex
100
AcDb2dVertex
  8
layer_10
 10
309.545
 20
-36.145
  0
VERTEX
100
AcDbVertex
100
AcDb2dVertex
  8
layer_10
 10
223.831
 20
49.569
  0
VERTEX
100
AcDbVertex
100
AcDb2dVertex
  8
layer_10
 10
138.117
 20
-36.145
  0
VERTEX
100
AcDbVertex
100
AcDb2dVertex
  8
layer_10
 10
52.403
 20
49.569
  0
VERTEX
100
AcDbVertex
100
AcDb2dVertex
  8
layer_10
 10
-33.312
 20
-36.145
  0
VERTEX
100
AcDbVertex
100
AcDb2dVertex
  8
layer_10
 10
-119.026
 20
49.569
  0
VERTEX
100
AcDbVertex
100
AcDb2dVertex
  8
layer_10
 10
-204.74
 20
-36.145
  0
VERTEX
100
AcDbVertex
100
AcDb2dVertex
  8
layer_10
 10
-290.455
 20
49.569
  0
VERTEX
100
AcDbVertex
100
AcDb2dVertex
  8
layer_10
 10
-376.169
 20
-36.145
  0
VERTEX
100
AcDbVertex
100
AcDb2dVertex
  8
layer_10
 10
-461.883
 20
49.569
  0
VERTEX
100
AcDbVertex
100
AcDb2dVertex
  8
layer_10
 10
-547.597
 20
-36.145
  0
VERTEX
100
AcDbVertex
100
AcDb2dVertex
  8
layer_10
 10
-633.312
 20
49.569
  0
VERTEX
100
AcDbVertex
100
AcDb2dVertex
  8
layer_10
 10
-719.026
 20
-36.145
  0
VERTEX
100
AcDbVertex
100
AcDb2dVertex
  8
layer_10
 10
-804.74
 20
49.569
  0
VERTEX
100
AcDbVertex
100
AcDb2dVertex
  8
layer_10
 10
-890.454
 20
-36.145
  0
VERTEX
100
AcDbVertex
100
AcDb2dVertex
  8
layer_10
 10
-976.169
 20
49.569
  0
VERTEX
100
AcDbVertex
100
AcDb2dVertex
  8
layer_10
 10
-1061.883
 20
-36.145
  0
VERTEX
100
AcDbVertex
100
AcDb2dVertex
  8
layer_10
 10
-1147.597
 20
49.569
  0
VERTEX
100
AcDbVertex
100
AcDb2dVertex
  8
layer_10
 10
-1233.312
 20
-36.145
  0
VERTEX
100
AcDbVertex
100
AcDb2dVertex
  8
layer_10
 10
-1319.026
 20
49.569
  0
VERTEX
100
AcDbVertex
100
AcDb2dVertex
  8
layer_10
 10
-1404.74
 20
-36.145
  0
VERTEX
100
AcDbVertex
100
AcDb2dVertex
  8
layer_10
 10
-1490.454
 20
49.569
  0
VERTEX
100
AcDbVertex
100
AcDb2dVertex
  8
layer_10
 10
-1576.169
 20
-36.145
  0
VERTEX
100
AcDbVertex
100
AcDb2dVertex
  8
layer_10
 10
-1661.883
 20
49.569
  0
VERTEX
100
AcDbVertex
100
AcDb2dVertex
  8
layer_10
 10
-1747.597
 20
-36.145
  0
VERTEX
100
AcDbVertex
100
AcDb2dVertex
  8
layer_10
 10
-1833.312
 20
49.569
  0
VERTEX
100
AcDbVertex
100
AcDb2dVertex
  8
layer_10
 10
-1919.026
 20
-36.145
  0
VERTEX
100
AcDbVertex
100
AcDb2dVertex
  8
layer_10
 10
-2004.74
 20
49.569
  0
VERTEX
100
AcDbVertex
100
AcDb2dVertex
  8
layer_10
 10
-2090.454
 20
-36.145
  0
VERTEX
100
AcDbVertex
100
AcDb2dVertex
  8
layer_10
 10
-2176.169
 20
49.569
  0
VERTEX
100
AcDbVertex
100
AcDb2dVertex
  8
layer_10
 10
-2261.883
 20
-36.145
  0
VERTEX
100
AcDbVertex
100
AcDb2dVertex
  8
layer_10
 10
-2347.597
 20
49.569
  0
VERTEX
100
AcDbVertex
100
AcDb2dVertex
  8
layer_10
 10
-2433.311
 20
-36.145
  0
VERTEX
100
AcDbVertex
100
AcDb2dVertex
  8
layer_10
 10
-2519.026
 20
49.569
  0
VERTEX
100
AcDbVertex
100
AcDb2dVertex
  8
layer_10
 10
-2604.74
 20
-36.145
  0
VERTEX
100
AcDbVertex
100
AcDb2dVertex
  8
layer_10
 10
-2690.454
 20
49.569
  0
VERTEX
100
AcDbVertex
100
AcDb2dVertex
  8
layer_10
 10
-2776.169
 20
-36.145
  0
VERTEX
100
AcDbVertex
100
AcDb2dVertex
  8
layer_10
 10
-2861.883
 20
49.569
  0
VERTEX
100
AcDbVertex
100
AcDb2dVertex
  8
layer_10
 10
-2947.597
 20
-36.145
  0
VERTEX
100
AcDbVertex
100
AcDb2dVertex
  8
layer_10
 10
-3033.311
 20
49.569
  0
VERTEX
100
AcDbVertex
100
AcDb2dVertex
  8
layer_10
 10
-3119.026
 20
-36.145
  0
VERTEX
100
AcDbVertex
100
AcDb2dVertex
  8
layer_10
 10
-3204.74
 20
49.569
  0
VERTEX
100
AcDbVertex
100
AcDb2dVertex
  8
layer_10
 10
-3290.454
 20
-36.145
  0
VERTEX
100
AcDbVertex
100
AcDb2dVertex
  8
layer_10
 10
-3376.168
 20
49.569
  0
VERTEX
100
AcDbVertex
100
AcDb2dVertex
  8
layer_10
 10
-3461.883
 20
-36.145
  0
VERTEX
100
AcDbVertex
100
AcDb2dVertex
  8
layer_10
 10
-3547.597
 20
49.569
  0
VERTEX
100
AcDbVertex
100
AcDb2dVertex
  8
layer_10
 10
-3633.311
 20
-36.145
  0
VERTEX
100
AcDbVertex
100
AcDb2dVertex
  8
layer_10
 10
-3719.026
 20
49.569
  0
VERTEX
100
AcDbVertex
100
AcDb2dVertex
  8
layer_10
 10
-3804.74
 20
-36.145
  0
VERTEX
100
AcDbVertex
100
AcDb2dVertex
  8
layer_10
 10
-3890.454
 20
49.569
  0
VERTEX
100
AcDbVertex
100
AcDb2dVertex
  8
layer_10
 10
-3976.168
 20
-36.145
  0
VERTEX
100
AcDbVertex
100
AcDb2dVertex
  8
layer_10
 10
-4061.883
 20
49.569
  0
VERTEX
100
AcDbVertex
100
AcDb2dVertex
  8
layer_10
 10
-4147.597
 20
-36.145
  0
VERTEX
100
AcDbVertex
100
AcDb2dVertex
  8
layer_10
 10
-4233.311
 20
49.569
  0
VERTEX
100
AcDbVertex
100
AcDb2dVertex
  8
layer_10
 10
-4319.026
 20
-36.145
  0
VERTEX
100
AcDbVertex
100
AcDb2dVertex
  8
layer_10
 10
-4404.74
 20
49.569
  0
VERTEX
100
AcDbVertex
100
AcDb2dVertex
  8
layer_10
 10
-4490.454
 20
-36.145
  0
VERTEX
100
AcDbVertex
100
AcDb2dVertex
  8
layer_10
 10
-4576.168
 20
49.569
  0
VERTEX
100
AcDbVertex
100
AcDb2dVertex
  8
layer_10
 10
-4661.883
 20
-36.145
  0
VERTEX
100
AcDbVertex
100
AcDb2dVertex
  8
layer_10
 10
-4747.597
 20
49.569
  0
VERTEX
100
AcDbVertex
100
AcDb2dVertex
  8
layer_10
 10
-4833.311
 20
-36.145
  0
VERTEX
100
AcDbVertex
100
AcDb2dVertex
  8
layer_10
 10
-5645.999
 20
470
  0
VERTEX
100
AcDbVertex
100
AcDb2dVertex
  8
layer_10
 10
-6645.999
 20
470
  0
VERTEX
100
AcDbVertex
100
AcDb2dVertex
  8
layer_10
 10
-6645.999
 20
7470
  0
VERTEX
100
AcDbVertex
100
AcDb2dVertex
  8
layer_10
 10
-6593.473
 20
7515.954
  0
VERTEX
100
AcDbVertex
100
AcDb2dVertex
  8
layer_10
 10
-6545.152
 20
7566.312
  0
VERTEX
100
AcDbVertex
100
AcDb2dVertex
  8
layer_10
 10
-6501.404
 20
7620.689
  0
VERTEX
100
AcDbVertex
100
AcDb2dVertex
  8
layer_10
 10
-6462.561
 20
7678.672
  0
VERTEX
100
AcDbVertex
100
AcDb2dVertex
  8
layer_10
 10
-6428.92
 20
7739.82
  0
VERTEX
100
AcDbVertex
100
AcDb2dVertex
  8
layer_10
 10
-6400.737
 20
7803.668
  0
VERTEX
100
AcDbVertex
100
AcDb2dVertex
  8
layer_10
 10
-6378.225
 20
7869.728
  0
VERTEX
100
AcDbVertex
100
AcDb2dVertex
  8
layer_10
 10
-6361.557
 20
7937.5
  0
VERTEX
100
AcDbVertex
100
AcDb2dVertex
  8
layer_10
 10
-6350.858
 20
8006.466
  0
VERTEX
100
AcDbVertex
100
AcDb2dVertex
  8
layer_10
 10
-6346.211
 20
8076.102
  0
VERTEX
100
AcDbVertex
100
AcDb2dVertex
  8
layer_10
 10
-6347.651
 20
8145.878
  0
VERTEX
100
AcDbVertex
100
AcDb2dVertex
  8
layer_10
 10
-6355.167
 20
8215.263
  0
VERTEX
100
AcDbVertex
100
AcDb2dVertex
  8
layer_10
 10
-6368.702
 20
8283.73
  0
VERTEX
100
AcDbVertex
100
AcDb2dVertex
  8
layer_10
 10
-6388.152
 20
8350.755
  0
VERTEX
100
AcDbVertex
100
AcDb2dVertex
  8
layer_10
 10
-6391.149
 20
8359.453
  0
VERTEX
100
AcDbVertex
100
AcDb2dVertex
  8
layer_10
 10
-6417.114
 20
8424.234
  0
VERTEX
100
AcDbVertex
100
AcDb2dVertex
  8
layer_10
 10
-6448.625
 20
8486.506
  0
VERTEX
100
AcDbVertex
100
AcDb2dVertex
  8
layer_10
 10
-6485.445
 20
8545.795
  0
VERTEX
100
AcDbVertex
100
AcDb2dVertex
  8
layer_10
 10
-6527.291
 20
8601.649
  0
VERTEX
100
AcDbVertex
100
AcDb2dVertex
  8
layer_10
 10
-6573.846
 20
8653.643
  0
VERTEX
100
AcDbVertex
100
AcDb2dVertex
  8
layer_10
 10
-6624.756
 20
8701.381
  0
VERTEX
100
AcDbVertex
100
AcDb2dVertex
  8
layer_10
 10
-6679.633
 20
8744.501
  0
VERTEX
100
AcDbVertex
100
AcDb2dVertex
  8
layer_10
 10
-6738.059
 20
8782.675
  0
VERTEX
100
AcDbVertex
100
AcDb2dVertex
  8
layer_10
 10
-6799.589
 20
8815.61
  0
VERTEX
100
AcDbVertex
100
AcDb2dVertex
  8
layer_10
 10
-6863.756
 20
8843.058
  0
VERTEX
100
AcDbVertex
100
AcDb2dVertex
  8
layer_10
 10
-6930.071
 20
8864.808
  0
VERTEX
100
AcDbVertex
100
AcDb2dVertex
  8
layer_10
 10
-6998.03
 20
8880.697
  0
VERTEX
100
AcDbVertex
100
AcDb2dVertex
  8
layer_10
 10
-7067.114
 20
8890.601
  0
VERTEX
100
AcDbVertex
100
AcDb2dVertex
  8
layer_10
 10
-7136.799
 20
8894.447
  0
VERTEX
100
AcDbVertex
100
AcDb2dVertex
  8
layer_10
 10
-7145.999
 20
8894.5
  0
VERTEX
100
AcDbVertex
100
AcDb2dVertex
  8
layer_10
 10
-7215.724
 20
8891.456
  0
VERTEX
100
AcDbVertex
100
AcDb2dVertex
  8
layer_10
 10
-7284.918
 20
8882.346
  0
VERTEX
100
AcDbVertex
100
AcDb2dVertex
  8
layer_10
 10
-7353.054
 20
8867.241
  0
VERTEX
100
AcDbVertex
100
AcDb2dVertex
  8
layer_10
 10
-7419.615
 20
8846.254
  0
VERTEX
100
AcDbVertex
100
AcDb2dVertex
  8
layer_10
 10
-7484.094
 20
8819.546
  0
VERTEX
100
AcDbVertex
100
AcDb2dVertex
  8
layer_10
 10
-7545.999
 20
8787.32
  0
VERTEX
100
AcDbVertex
100
AcDb2dVertex
  8
layer_10
 10
-7604.86
 20
8749.821
  0
VERTEX
100
AcDbVertex
100
AcDb2dVertex
  8
layer_10
 10
-7660.229
 20
8707.335
  0
VERTEX
100
AcDbVertex
100
AcDb2dVertex
  8
layer_10
 10
-7711.685
 20
8660.185
  0
VERTEX
100
AcDbVertex
100
AcDb2dVertex
  8
layer_10
 10
-7758.835
 20
8608.73
  0
VERTEX
100
AcDbVertex
100
AcDb2dVertex
  8
layer_10
 10
-7801.321
 20
8553.361
  0
VERTEX
100
AcDbVertex
100
AcDb2dVertex
  8
layer_10
 10
-7838.82
 20
8494.5
  0
VERTEX
100
AcDbVertex
100
AcDb2dVertex
  8
layer_10
 10
-7871.046
 20
8432.594
  0
VERTEX
100
AcDbVertex
100
AcDb2dVertex
  8
layer_10
 10
-7897.753
 20
8368.116
  0
VERTEX
100
AcDbVertex
100
AcDb2dVertex
  8
layer_10
 10
-7900.85
 20
8359.453
  0
VERTEX
100
AcDbVertex
100
AcDb2dVertex
  8
layer_10
 10
-7921.07
 20
8292.655
  0
VERTEX
100
AcDbVertex
100
AcDb2dVertex
  8
layer_10
 10
-7935.391
 20
8224.349
  0
VERTEX
100
AcDbVertex
100
AcDb2dVertex
  8
layer_10
 10
-7943.704
 20
8155.055
  0
VERTEX
100
AcDbVertex
100
AcDb2dVertex
  8
layer_10
 10
-7945.946
 20
8085.3
  0
VERTEX
100
AcDbVertex
100
AcDb2dVertex
  8
layer_10
 10
-7942.101
 20
8015.615
  0
VERTEX
100
AcDbVertex
100
AcDb2dVertex
  8
layer_10
 10
-7932.196
 20
7946.53
  0
VERTEX
100
AcDbVertex
100
AcDb2dVertex
  8
layer_10
 10
-7916.308
 20
7878.572
  0
VERTEX
100
AcDbVertex
100
AcDb2dVertex
  8
layer_10
 10
-7894.557
 20
7812.257
  0
VERTEX
100
AcDbVertex
100
AcDb2dVertex
  8
layer_10
 10
-7867.11
 20
7748.09
  0
VERTEX
100
AcDbVertex
100
AcDb2dVertex
  8
layer_10
 10
-7834.174
 20
7686.559
  0
VERTEX
100
AcDbVertex
100
AcDb2dVertex
  8
layer_10
 10
-7796.001
 20
7628.133
  0
VERTEX
100
AcDbVertex
100
AcDb2dVertex
  8
layer_10
 10
-7752.881
 20
7573.256
  0
VERTEX
100
AcDbVertex
100
AcDb2dVertex
  8
layer_10
 10
-7705.142
 20
7522.346
  0
VERTEX
100
AcDbVertex
100
AcDb2dVertex
  8
layer_10
 10
-7653.148
 20
7475.791
  0
VERTEX
100
AcDbVertex
100
AcDb2dVertex
  8
layer_10
 10
-7646
 20
7470
  0
VERTEX
100
AcDbVertex
100
AcDb2dVertex
  8
layer_10
 10
-7645.999
 20
470
  0
VERTEX
100
AcDbVertex
100
AcDb2dVertex
  8
layer_10
 10
-14645.5
 20
470
  0
VERTEX
100
AcDbVertex
100
AcDb2dVertex
  8
layer_10
 10
-14691.454
 20
522.526
  0
VERTEX
100
AcDbVertex
100
AcDb2dVertex
  8
layer_10
 10
-14741.812
 20
570.847
  0
VERTEX
100
AcDbVertex
100
AcDb2dVertex
  8
layer_10
 10
-14796.189
 20
614.595
  0
VERTEX
100
AcDbVertex
100
AcDb2dVertex
  8
layer_10
 10
-14854.172
 20
653.438
  0
VERTEX
100
AcDbVertex
100
AcDb2dVertex
  8
layer_10
 10
-14915.32
 20
687.079
  0
VERTEX
100
AcDbVertex
100
AcDb2dVertex
  8
layer_10
 10
-14979.167
 20
715.263
  0
VERTEX
100
AcDbVertex
100
AcDb2dVertex
  8
layer_10
 10
-15045.228
 20
737.774
  0
VERTEX
100
AcDbVertex
100
AcDb2dVertex
  8
layer_10
 10
-15112.999
 20
754.443
  0
VERTEX
100
AcDbVertex
100
AcDb2dVertex
  8
layer_10
 10
-15181.965
 20
765.142
  0
VERTEX
100
AcDbVertex
100
AcDb2dVertex
  8
layer_10
 10
-15251.601
 20
769.789
  0
VERTEX
100
AcDbVertex
100
AcDb2dVertex
  8
layer_10
 10
-15321.378
 20
768.349
  0
VERTEX
100
AcDbVertex
100
AcDb2dVertex
  8
layer_10
 10
-15390.763
 20
760.833
  0
VERTEX
100
AcDbVertex
100
AcDb2dVertex
  8
layer_10
 10
-15459.229
 20
747.298
  0
VERTEX
100
AcDbVertex
100
AcDb2dVertex
  8
layer_10
 10
-15526.255
 20
727.848
  0
VERTEX
100
AcDbVertex
100
AcDb2dVertex
  8
layer_10
 10
-15534.953
 20
724.851
  0
VERTEX
100
AcDbVertex
100
AcDb2dVertex
  8
layer_10
 10
-15599.734
 20
698.886
  0
VERTEX
100
AcDbVertex
100
AcDb2dVertex
  8
layer_10
 10
-15662.006
 20
667.374
  0
VERTEX
100
AcDbVertex
100
AcDb2dVertex
  8
layer_10
 10
-15721.295
 20
630.555
  0
VERTEX
100
AcDbVertex
100
AcDb2dVertex
  8
layer_10
 10
-15777.149
 20
588.708
  0
VERTEX
100
AcDbVertex
100
AcDb2dVertex
  8
layer_10
 10
-15829.143
 20
542.153
  0
VERTEX
100
AcDbVertex
100
AcDb2dVertex
  8
layer_10
 10
-15876.882
 20
491.243
  0
VERTEX
100
AcDbVertex
100
AcDb2dVertex
  8
layer_10
 10
-15920.002
 20
436.367
  0
VERTEX
100
AcDbVertex
100
AcDb2dVertex
  8
layer_10
 10
-15958.175
 20
377.94
  0
VERTEX
100
AcDbVertex
100
AcDb2dVertex
  8
layer_10
 10
-15991.11
 20
316.41
  0
VERTEX
100
AcDbVertex
100
AcDb2dVertex
  8
layer_10
 10
-16018.558
 20
252.242
  0
VERTEX
100
AcDbVertex
100
AcDb2dVertex
  8
layer_10
 10
-16040.309
 20
185.927
  0
VERTEX
100
AcDbVertex
100
AcDb2dVertex
  8
layer_10
 10
-16056.197
 20
117.969
  0
VERTEX
100
AcDbVertex
100
AcDb2dVertex
  8
layer_10
 10
-16066.101
 20
48.884
  0
VERTEX
100
AcDbVertex
100
AcDb2dVertex
  8
layer_10
 10
-16069.947
 20
-20.801
  0
VERTEX
100
AcDbVertex
100
AcDb2dVertex
  8
layer_10
 10
-16070
 20
-30
  0
VERTEX
100
AcDbVertex
100
AcDb2dVertex
  8
layer_10
 10
-16066.956
 20
-99.725
  0
VERTEX
100
AcDbVertex
100
AcDb2dVertex
  8
layer_10
 10
-16057.846
 20
-168.919
  0
VERTEX
100
AcDbVertex
100
AcDb2dVertex
  8
layer_10
 10
-16042.74
 20
-237.055
  0
VERTEX
100
AcDbVertex
100
AcDb2dVertex
  8
layer_10
 10
-16021.754
 20
-303.616
  0
VERTEX
100
AcDbVertex
100
AcDb2dVertex
  8
layer_10
 10
-15995.046
 20
-368.095
  0
VERTEX
100
AcDbVertex
100
AcDb2dVertex
  8
layer_10
 10
-15962.82
 20
-430
  0
VERTEX
100
AcDbVertex
100
AcDb2dVertex
  8
layer_10
 10
-15925.321
 20
-488.862
  0
VERTEX
100
AcDbVertex
100
AcDb2dVertex
  8
layer_10
 10
-15882.835
 20
-544.231
  0
VERTEX
100
AcDbVertex
100
AcDb2dVertex
  8
layer_10
 10
-15835.685
 20
-595.686
  0
VERTEX
100
AcDbVertex
100
AcDb2dVertex
  8
layer_10
 10
-15784.229
 20
-642.836
  0
VERTEX
100
AcDbVertex
100
AcDb2dVertex
  8
layer_10
 10
-15728.86
 20
-685.322
  0
VERTEX
100
AcDbVertex
100
AcDb2dVertex
  8
layer_10
 10
-15669.999
 20
-722.821
  0
VERTEX
100
AcDbVertex
100
AcDb2dVertex
  8
layer_10
 10
-15608.093
 20
-755.047
  0
VERTEX
100
AcDbVertex
100
AcDb2dVertex
  8
layer_10
 10
-15543.615
 20
-781.755
  0
VERTEX
100
AcDbVertex
100
AcDb2dVertex
  8
layer_10
 10
-15534.953
 20
-784.851
  0
VERTEX
100
AcDbVertex
100
AcDb2dVertex
  8
layer_10
 10
-15468.155
 20
-805.071
  0
VERTEX
100
AcDbVertex
100
AcDb2dVertex
  8
layer_10
 10
-15399.849
 20
-819.392
  0
VERTEX
100
AcDbVertex
100
AcDb2dVertex
  8
layer_10
 10
-15330.555
 20
-827.705
  0
VERTEX
100
AcDbVertex
100
AcDb2dVertex
  8
layer_10
 10
-15260.8
 20
-829.947
  0
VERTEX
100
AcDbVertex
100
AcDb2dVertex
  8
layer_10
 10
-15191.115
 20
-826.101
  0
VERTEX
100
AcDbVertex
100
AcDb2dVertex
  8
layer_10
 10
-15122.03
 20
-816.196
  0
VERTEX
100
AcDbVertex
100
AcDb2dVertex
  8
layer_10
 10
-15054.072
 20
-800.308
  0
VERTEX
100
AcDbVertex
100
AcDb2dVertex
  8
layer_10
 10
-14987.756
 20
-778.558
  0
VERTEX
100
AcDbVertex
100
AcDb2dVertex
  8
layer_10
 10
-14923.589
 20
-751.11
  0
VERTEX
100
AcDbVertex
100
AcDb2dVertex
  8
layer_10
 10
-14862.058
 20
-718.174
  0
VERTEX
100
AcDbVertex
100
AcDb2dVertex
  8
layer_10
 10
-14803.632
 20
-680.001
  0
VERTEX
100
AcDbVertex
100
AcDb2dVertex
  8
layer_10
 10
-14748.756
 20
-636.881
  0
VERTEX
100
AcDbVertex
100
AcDb2dVertex
  8
layer_10
 10
-14697.846
 20
-589.142
  0
VERTEX
100
AcDbVertex
100
AcDb2dVertex
  8
layer_10
 10
-14651.291
 20
-537.148
  0
VERTEX
100
AcDbVertex
100
AcDb2dVertex
  8
layer_10
 10
-14645.5
 20
-530
  0
VERTEX
100
AcDbVertex
100
AcDb2dVertex
  8
layer_10
 10
-7645.999
 20
-530
  0
VERTEX
100
AcDbVertex
100
AcDb2dVertex
  8
layer_10
 10
-7645.999
 20
-1530
  0
VERTEX
100
AcDbVertex
100
AcDb2dVertex
  8
layer_10
 10
-7194.571
 20
-2342.688
  0
VERTEX
100
AcDbVertex
100
AcDb2dVertex
  8
layer_10
 10
-7108.857
 20
-2428.403
  0
VERTEX
100
AcDbVertex
100
AcDb2dVertex
  8
layer_10
 10
-7194.571
 20
-2514.117
  0
VERTEX
100
AcDbVertex
100
AcDb2dVertex
  8
layer_10
 10
-7108.857
 20
-2599.831
  0
VERTEX
100
AcDbVertex
100
AcDb2dVertex
  8
layer_10
 10
-7194.571
 20
-2685.545
  0
VERTEX
100
AcDbVertex
100
AcDb2dVertex
  8
layer_10
 10
-7108.857
 20
-2771.26
  0
VERTEX
100
AcDbVertex
100
AcDb2dVertex
  8
layer_10
 10
-7194.571
 20
-2856.974
  0
VERTEX
100
AcDbVertex
100
AcDb2dVertex
  8
layer_10
 10
-7108.857
 20
-2942.688
  0
VERTEX
100
AcDbVertex
100
AcDb2dVertex
  8
layer_10
 10
-7194.571
 20
-3028.403
  0
VERTEX
100
AcDbVertex
100
AcDb2dVertex
  8
layer_10
 10
-7108.857
 20
-3114.117
  0
VERTEX
100
AcDbVertex
100
AcDb2dVertex
  8
layer_10
 10
-7194.571
 20
-3199.831
  0
VERTEX
100
AcDbVertex
100
AcDb2dVertex
  8
layer_10
 10
-7108.857
 20
-3285.545
  0
VERTEX
100
AcDbVertex
100
AcDb2dVertex
  8
layer_10
 10
-7194.571
 20
-3371.26
  0
VERTEX
100
AcDbVertex
100
AcDb2dVertex
  8
layer_10
 10
-7108.857
 20
-3456.974
  0
VERTEX
100
AcDbVertex
100
AcDb2dVertex
  8
layer_10
 10
-7194.571
 20
-3542.688
  0
VERTEX
100
AcDbVertex
100
AcDb2dVertex
  8
layer_10
 10
-7108.857
 20
-3628.402
  0
VERTEX
100
AcDbVertex
100
AcDb2dVertex
  8
layer_10
 10
-7194.571
 20
-3714.117
  0
VERTEX
100
AcDbVertex
100
AcDb2dVertex
  8
layer_10
 10
-7108.857
 20
-3799.831
  0
VERTEX
100
AcDbVertex
100
AcDb2dVertex
  8
layer_10
 10
-7194.571
 20
-3885.545
  0
VERTEX
100
AcDbVertex
100
AcDb2dVertex
  8
layer_10
 10
-7108.857
 20
-3971.26
  0
VERTEX
100
AcDbVertex
100
AcDb2dVertex
  8
layer_10
 10
-7194.571
 20
-4056.974
  0
VERTEX
100
AcDbVertex
100
AcDb2dVertex
  8
layer_10
 10
-7108.857
 20
-4142.688
  0
VERTEX
100
AcDbVertex
100
AcDb2dVertex
  8
layer_10
 10
-7194.571
 20
-4228.402
  0
VERTEX
100
AcDbVertex
100
AcDb2dVertex
  8
layer_10
 10
-7108.857
 20
-4314.117
  0
VERTEX
100
AcDbVertex
100
AcDb2dVertex
  8
layer_10
 10
-7194.571
 20
-4399.831
  0
VERTEX
100
AcDbVertex
100
AcDb2dVertex
  8
layer_10
 10
-7108.857
 20
-4485.545
  0
VERTEX
100
AcDbVertex
100
AcDb2dVertex
  8
layer_10
 10
-7194.571
 20
-4571.259
  0
VERTEX
100
AcDbVertex
100
AcDb2dVertex
  8
layer_10
 10
-7108.857
 20
-4656.974
  0
VERTEX
100
AcDbVertex
100
AcDb2dVertex
  8
layer_10
 10
-7194.571
 20
-4742.688
  0
VERTEX
100
AcDbVertex
100
AcDb2dVertex
  8
layer_10
 10
-7108.857
 20
-4828.402
  0
VERTEX
100
AcDbVertex
100
AcDb2dVertex
  8
layer_10
 10
-7194.571
 20
-4914.117
  0
VERTEX
100
AcDbVertex
100
AcDb2dVertex
  8
layer_10
 10
-7108.857
 20
-4999.831
  0
VERTEX
100
AcDbVertex
100
AcDb2dVertex
  8
layer_10
 10
-7194.571
 20
-5085.545
  0
VERTEX
100
AcDbVertex
100
AcDb2dVertex
  8
layer_10
 10
-7108.857
 20
-5171.259
  0
VERTEX
100
AcDbVertex
100
AcDb2dVertex
  8
layer_10
 10
-7194.571
 20
-5256.974
  0
VERTEX
100
AcDbVertex
100
AcDb2dVertex
  8
layer_10
 10
-7108.857
 20
-5342.688
  0
VERTEX
100
AcDbVertex
100
AcDb2dVertex
  8
layer_10
 10
-7194.571
 20
-5428.402
  0
VERTEX
100
AcDbVertex
100
AcDb2dVertex
  8
layer_10
 10
-7108.857
 20
-5514.117
  0
VERTEX
100
AcDbVertex
100
AcDb2dVertex
  8
layer_10
 10
-7194.571
 20
-5599.831
  0
VERTEX
100
AcDbVertex
100
AcDb2dVertex
  8
layer_10
 10
-7108.857
 20
-5685.545
  0
VERTEX
100
AcDbVertex
100
AcDb2dVertex
  8
layer_10
 10
-7194.571
 20
-5771.259
  0
VERTEX
100
AcDbVertex
100
AcDb2dVertex
  8
layer_10
 10
-7108.857
 20
-5856.974
  0
VERTEX
100
AcDbVertex
100
AcDb2dVertex
  8
layer_10
 10
-7194.571
 20
-5942.688
  0
VERTEX
100
AcDbVertex
100
AcDb2dVertex
  8
layer_10
 10
-7108.857
 20
-6028.402
  0
VERTEX
100
AcDbVertex
100
AcDb2dVertex
  8
layer_10
 10
-7194.571
 20
-6114.116
  0
VERTEX
100
AcDbVertex
100
AcDb2dVertex
  8
layer_10
 10
-7108.857
 20
-6199.831
  0
VERTEX
100
AcDbVertex
100
AcDb2dVertex
  8
layer_10
 10
-7194.571
 20
-6285.545
  0
VERTEX
100
AcDbVertex
100
AcDb2dVertex
  8
layer_10
 10
-7108.857
 20
-6371.259
  0
VERTEX
100
AcDbVertex
100
AcDb2dVertex
  8
layer_10
 10
-7194.571
 20
-6456.974
  0
VERTEX
100
AcDbVertex
100
AcDb2dVertex
  8
layer_10
 10
-7108.857
 20
-6542.688
  0
VERTEX
100
AcDbVertex
100
AcDb2dVertex
  8
layer_10
 10
-7194.571
 20
-6628.402
  0
VERTEX
100
AcDbVertex
100
AcDb2dVertex
  8
layer_10
 10
-7108.857
 20
-6714.116
  0
VERTEX
100
AcDbVertex
100
AcDb2dVertex
  8
layer_10
 10
-7194.571
 20
-6799.831
  0
VERTEX
100
AcDbVertex
100
AcDb2dVertex
  8
layer_10
 10
-7108.857
 20
-6885.545
  0
VERTEX
100
AcDbVertex
100
AcDb2dVertex
  8
layer_10
 10
-7194.571
 20
-6971.259
  0
VERTEX
100
AcDbVertex
100
AcDb2dVertex
  8
layer_10
 10
-7108.857
 20
-7056.974
  0
VERTEX
100
AcDbVertex
100
AcDb2dVertex
  8
layer_10
 10
-7194.571
 20
-7142.688
  0
VERTEX
100
AcDbVertex
100
AcDb2dVertex
  8
layer_10
 10
-7108.857
 20
-7228.402
  0
VERTEX
100
AcDbVertex
100
AcDb2dVertex
  8
layer_10
 10
-7194.571
 20
-7314.116
  0
VERTEX
100
AcDbVertex
100
AcDb2dVertex
  8
layer_10
 10
-7108.857
 20
-7399.831
  0
VERTEX
100
AcDbVertex
100
AcDb2dVertex
  8
layer_10
 10
-7194.571
 20
-7485.545
  0
VERTEX
100
AcDbVertex
100
AcDb2dVertex
  8
layer_10
 10
-7108.857
 20
-7571.259
  0
VERTEX
100
AcDbVertex
100
AcDb2dVertex
  8
layer_10
 10
-7194.571
 20
-7656.973
  0
VERTEX
100
AcDbVertex
100
AcDb2dVertex
  8
layer_10
 10
-7108.857
 20
-7742.688
  0
VERTEX
100
AcDbVertex
100
AcDb2dVertex
  8
layer_10
 10
-7194.571
 20
-7828.402
  0
VERTEX
100
AcDbVertex
100
AcDb2dVertex
  8
layer_10
 10
-7108.857
 20
-7914.116
  0
VERTEX
100
AcDbVertex
100
AcDb2dVertex
  8
layer_10
 10
-7194.571
 20
-7999.831
  0
VERTEX
100
AcDbVertex
100
AcDb2dVertex
  8
layer_10
 10
-7108.857
 20
-8085.545
  0
VERTEX
100
AcDbVertex
100
AcDb2dVertex
  8
layer_10
 10
-7194.571
 20
-8171.259
  0
VERTEX
100
AcDbVertex
100
AcDb2dVertex
  8
layer_10
 10
-7108.857
 20
-8256.973
  0
VERTEX
100
AcDbVertex
100
AcDb2dVertex
  8
layer_10
 10
-7194.571
 20
-8342.688
  0
VERTEX
100
AcDbVertex
100
AcDb2dVertex
  8
layer_10
 10
-7108.857
 20
-8428.402
  0
VERTEX
100
AcDbVertex
100
AcDb2dVertex
  8
layer_10
 10
-7194.571
 20
-8514.116
  0
VERTEX
100
AcDbVertex
100
AcDb2dVertex
  8
layer_10
 10
-7108.857
 20
-8599.831
  0
VERTEX
100
AcDbVertex
100
AcDb2dVertex
  8
layer_10
 10
-7194.571
 20
-8685.545
  0
VERTEX
100
AcDbVertex
100
AcDb2dVertex
  8
layer_10
 10
-7108.857
 20
-8771.259
  0
VERTEX
100
AcDbVertex
100
AcDb2dVertex
  8
layer_10
 10
-7194.571
 20
-8856.973
  0
VERTEX
100
AcDbVertex
100
AcDb2dVertex
  8
layer_10
 10
-7108.857
 20
-8942.688
  0
VERTEX
100
AcDbVertex
100
AcDb2dVertex
  8
layer_10
 10
-7194.571
 20
-9028.402
  0
VERTEX
100
AcDbVertex
100
AcDb2dVertex
  8
layer_10
 10
-7108.857
 20
-9114.116
  0
VERTEX
100
AcDbVertex
100
AcDb2dVertex
  8
layer_10
 10
-7194.571
 20
-9199.83
  0
VERTEX
100
AcDbVertex
100
AcDb2dVertex
  8
layer_10
 10
-7108.857
 20
-9285.545
  0
VERTEX
100
AcDbVertex
100
AcDb2dVertex
  8
layer_10
 10
-7194.571
 20
-9371.259
  0
VERTEX
100
AcDbVertex
100
AcDb2dVertex
  8
layer_10
 10
-7108.857
 20
-9456.973
  0
VERTEX
100
AcDbVertex
100
AcDb2dVertex
  8
layer_10
 10
-7194.571
 20
-9542.688
  0
VERTEX
100
AcDbVertex
100
AcDb2dVertex
  8
layer_10
 10
-7108.857
 20
-9628.402
  0
VERTEX
100
AcDbVertex
100
AcDb2dVertex
  8
layer_10
 10
-7194.571
 20
-9714.116
  0
VERTEX
100
AcDbVertex
100
AcDb2dVertex
  8
layer_10
 10
-7108.857
 20
-9799.83
  0
VERTEX
100
AcDbVertex
100
AcDb2dVertex
  8
layer_10
 10
-7194.571
 20
-9885.545
  0
VERTEX
100
AcDbVertex
100
AcDb2dVertex
  8
layer_10
 10
-7108.857
 20
-9971.259
  0
VERTEX
100
AcDbVertex
100
AcDb2dVertex
  8
layer_10
 10
-7194.571
 20
-10056.973
  0
VERTEX
100
AcDbVertex
100
AcDb2dVertex
  8
layer_10
 10
-7108.857
 20
-10142.688
  0
VERTEX
100
AcDbVertex
100
AcDb2dVertex
  8
layer_10
 10
-7194.571
 20
-10228.402
  0
VERTEX
100
AcDbVertex
100
AcDb2dVertex
  8
layer_10
 10
-7108.857
 20
-10314.116
  0
VERTEX
100
AcDbVertex
100
AcDb2dVertex
  8
layer_10
 10
-7194.571
 20
-10399.83
  0
VERTEX
100
AcDbVertex
100
AcDb2dVertex
  8
layer_10
 10
-7108.857
 20
-10485.545
  0
VERTEX
100
AcDbVertex
100
AcDb2dVertex
  8
layer_10
 10
-7194.571
 20
-10571.259
  0
VERTEX
100
AcDbVertex
100
AcDb2dVertex
  8
layer_10
 10
-7108.857
 20
-10656.973
  0
VERTEX
100
AcDbVertex
100
AcDb2dVertex
  8
layer_10
 10
-7194.571
 20
-10742.687
  0
VERTEX
100
AcDbVertex
100
AcDb2dVertex
  8
layer_10
 10
-7108.857
 20
-10828.402
  0
VERTEX
100
AcDbVertex
100
AcDb2dVertex
  8
layer_10
 10
-7194.571
 20
-10914.116
  0
VERTEX
100
AcDbVertex
100
AcDb2dVertex
  8
layer_10
 10
-7108.857
 20
-10999.83
  0
VERTEX
100
AcDbVertex
100
AcDb2dVertex
  8
layer_10
 10
-7194.571
 20
-11085.545
  0
VERTEX
100
AcDbVertex
100
AcDb2dVertex
  8
layer_10
 10
-7108.857
 20
-11171.259
  0
VERTEX
100
AcDbVertex
100
AcDb2dVertex
  8
layer_10
 10
-7194.571
 20
-11256.973
  0
VERTEX
100
AcDbVertex
100
AcDb2dVertex
  8
layer_10
 10
-7108.857
 20
-11342.687
  0
VERTEX
100
AcDbVertex
100
AcDb2dVertex
  8
layer_10
 10
-7194.571
 20
-11428.402
  0
VERTEX
100
AcDbVertex
100
AcDb2dVertex
  8
layer_10
 10
-7194.571
 20
-11662.14
  0
VERTEX
100
AcDbVertex
100
AcDb2dVertex
  8
layer_10
 10
-7645.999
 20
-12386.96
  0
VERTEX
100
AcDbVertex
100
AcDb2dVertex
  8
layer_10
 10
-7646
 20
-14186.96
  0
VERTEX
100
AcDbVertex
100
AcDb2dVertex
  8
layer_10
 10
-7698.526
 20
-14232.914
  0
VERTEX
100
AcDbVertex
100
AcDb2dVertex
  8
layer_10
 10
-7746.847
 20
-14283.272
  0
VERTEX
100
AcDbVertex
100
AcDb2dVertex
  8
layer_10
 10
-7790.595
 20
-14337.649
  0
VERTEX
100
AcDbVertex
100
AcDb2dVertex
  8
layer_10
 10
-7829.438
 20
-14395.632
  0
VERTEX
100
AcDbVertex
100
AcDb2dVertex
  8
layer_10
 10
-7863.079
 20
-14456.78
  0
VERTEX
100
AcDbVertex
100
AcDb2dVertex
  8
layer_10
 10
-7891.262
 20
-14520.627
  0
VERTEX
100
AcDbVertex
100
AcDb2dVertex
  8
layer_10
 10
-7913.774
 20
-14586.688
  0
VERTEX
100
AcDbVertex
100
AcDb2dVertex
  8
layer_10
 10
-7930.442
 20
-14654.459
  0
VERTEX
100
AcDbVertex
100
AcDb2dVertex
  8
layer_10
 10
-7941.141
 20
-14723.426
  0
VERTEX
100
AcDbVertex
100
AcDb2dVertex
  8
layer_10
 10
-7945.788
 20
-14793.062
  0
VERTEX
100
AcDbVertex
100
AcDb2dVertex
  8
layer_10
 10
-7944.348
 20
-14862.838
  0
VERTEX
100
AcDbVertex
100
AcDb2dVertex
  8
layer_10
 10
-7936.832
 20
-14932.223
  0
VERTEX
100
AcDbVertex
100
AcDb2dVertex
  8
layer_10
 10
-7923.297
 20
-15000.689
  0
VERTEX
100
AcDbVertex
100
AcDb2dVertex
  8
layer_10
 10
-7903.847
 20
-15067.715
  0
VERTEX
100
AcDbVertex
100
AcDb2dVertex
  8
layer_10
 10
-7900.85
 20
-15076.413
  0
VERTEX
100
AcDbVertex
100
AcDb2dVertex
  8
layer_10
 10
-7874.885
 20
-15141.194
  0
VERTEX
100
AcDbVertex
100
AcDb2dVertex
  8
layer_10
 10
-7843.373
 20
-15203.466
  0
VERTEX
100
AcDbVertex
100
AcDb2dVertex
  8
layer_10
 10
-7806.554
 20
-15262.755
  0
VERTEX
100
AcDbVertex
100
AcDb2dVertex
  8
layer_10
 10
-7764.707
 20
-15318.609
  0
VERTEX
100
AcDbVertex
100
AcDb2dVertex
  8
layer_10
 10
-7718.152
 20
-15370.603
  0
VERTEX
100
AcDbVertex
100
AcDb2dVertex
  8
layer_10
 10
-7667.242
 20
-15418.342
  0
VERTEX
100
AcDbVertex
100
AcDb2dVertex
  8
layer_10
 10
-7612.365
 20
-15461.462
  0
VERTEX
100
AcDbVertex
100
AcDb2dVertex
  8
layer_10
 10
-7553.939
 20
-15499.635
  0
VERTEX
100
AcDbVertex
100
AcDb2dVertex
  8
layer_10
 10
-7492.408
 20
-15532.571
  0
VERTEX
100
AcDbVertex
100
AcDb2dVertex
  8
layer_10
 10
-7428.241
 20
-15560.018
  0
VERTEX
100
AcDbVertex
100
AcDb2dVertex
  8
layer_10
 10
-7361.926
 20
-15581.769
  0
VERTEX
100
AcDbVertex
100
AcDb2dVertex
  8
layer_10
 10
-7293.967
 20
-15597.657
  0
VERTEX
100
AcDbVertex
100
AcDb2dVertex
  8
layer_10
 10
-7224.882
 20
-15607.561
  0
VERTEX
100
AcDbVertex
100
AcDb2dVertex
  8
layer_10
 10
-7155.197
 20
-15611.407
  0
VERTEX
100
AcDbVertex
100
AcDb2dVertex
  8
layer_10
 10
-7145.999
 20
-15611.46
  0
VERTEX
100
AcDbVertex
100
AcDb2dVertex
  8
layer_10
 10
-7076.274
 20
-15608.416
  0
VERTEX
100
AcDbVertex
100
AcDb2dVertex
  8
layer_10
 10
-7007.08
 20
-15599.306
  0
VERTEX
100
AcDbVertex
100
AcDb2dVertex
  8
layer_10
 10
-6938.944
 20
-15584.2
  0
VERTEX
100
AcDbVertex
100
AcDb2dVertex
  8
layer_10
 10
-6872.383
 20
-15563.214
  0
VERTEX
100
AcDbVertex
100
AcDb2dVertex
  8
layer_10
 10
-6807.904
 20
-15536.506
  0
VERTEX
100
AcDbVertex
100
AcDb2dVertex
  8
layer_10
 10
-6745.999
 20
-15504.28
  0
VERTEX
100
AcDbVertex
100
AcDb2dVertex
  8
layer_10
 10
-6687.138
 20
-15466.781
  0
VERTEX
100
AcDbVertex
100
AcDb2dVertex
  8
layer_10
 10
-6631.769
 20
-15424.295
  0
VERTEX
100
AcDbVertex
100
AcDb2dVertex
  8
layer_10
 10
-6580.314
 20
-15377.145
  0
VERTEX
100
AcDbVertex
100
AcDb2dVertex
  8
layer_10
 10
-6533.164
 20
-15325.689
  0
VERTEX
100
AcDbVertex
100
AcDb2dVertex
  8
layer_10
 10
-6490.678
 20
-15270.32
  0
VERTEX
100
AcDbVertex
100
AcDb2dVertex
  8
layer_10
 10
-6453.179
 20
-15211.459
  0
VERTEX
100
AcDbVertex
100
AcDb2dVertex
  8
layer_10
 10
-6420.953
 20
-15149.554
  0
VERTEX
100
AcDbVertex
100
AcDb2dVertex
  8
layer_10
 10
-6394.245
 20
-15085.075
  0
VERTEX
100
AcDbVertex
100
AcDb2dVertex
  8
layer_10
 10
-6391.149
 20
-15076.413
  0
VERTEX
100
AcDbVertex
100
AcDb2dVertex
  8
layer_10
 10
-6370.929
 20
-15009.615
  0
VERTEX
100
AcDbVertex
100
AcDb2dVertex
  8
layer_10
 10
-6356.608
 20
-14941.309
  0
VERTEX
100
AcDbVertex
100
AcDb2dVertex
  8
layer_10
 10
-6348.295
 20
-14872.015
  0
VERTEX
100
AcDbVertex
100
AcDb2dVertex
  8
layer_10
 10
-6346.053
 20
-14802.26
  0
VERTEX
100
AcDbVertex
100
AcDb2dVertex
  8
layer_10
 10
-6349.898
 20
-14732.575
  0
VERTEX
100
AcDbVertex
100
AcDb2dVertex
  8
layer_10
 10
-6359.803
 20
-14663.49
  0
VERTEX
100
AcDbVertex
100
AcDb2dVertex
  8
layer_10
 10
-6375.691
 20
-14595.532
  0
VERTEX
100
AcDbVertex
100
AcDb2dVertex
  8
layer_10
 10
-6397.442
 20
-14529.217
  0
VERTEX
100
AcDbVertex
100
AcDb2dVertex
  8
layer_10
 10
-6424.889
 20
-14465.05
  0
VERTEX
100
AcDbVertex
100
AcDb2dVertex
  8
layer_10
 10
-6457.825
 20
-14403.519
  0
VERTEX
100
AcDbVertex
100
AcDb2dVertex
  8
layer_10
 10
-6495.998
 20
-14345.093
  0
VERTEX
100
AcDbVertex
100
AcDb2dVertex
  8
layer_10
 10
-6539.118
 20
-14290.216
  0
VERTEX
100
AcDbVertex
100
AcDb2dVertex
  8
layer_10
 10
-6586.857
 20
-14239.306
  0
VERTEX
100
AcDbVertex
100
AcDb2dVertex
  8
layer_10
 10
-6638.851
 20
-14192.751
  0
VERTEX
100
AcDbVertex
100
AcDb2dVertex
  8
layer_10
 10
-6645.999
 20
-14186.96
  0
VERTEX
100
AcDbVertex
100
AcDb2dVertex
  8
layer_10
 10
-6645.999
 20
-12386.96
  0
VERTEX
100
AcDbVertex
100
AcDb2dVertex
  8
layer_10
 10
-7152.145
 20
-11662.14
  0
VERTEX
100
AcDbVertex
100
AcDb2dVertex
  8
layer_10
 10
-7152.145
 20
-11428.402
  0
VERTEX
100
AcDbVertex
100
AcDb2dVertex
  8
layer_10
 10
-7066.43
 20
-11342.687
  0
VERTEX
100
AcDbVertex
100
AcDb2dVertex
  8
layer_10
 10
-7152.145
 20
-11256.973
  0
VERTEX
100
AcDbVertex
100
AcDb2dVertex
  8
layer_10
 10
-7066.43
 20
-11171.259
  0
VERTEX
100
AcDbVertex
100
AcDb2dVertex
  8
layer_10
 10
-7152.145
 20
-11085.545
  0
VERTEX
100
AcDbVertex
100
AcDb2dVertex
  8
layer_10
 10
-7066.43
 20
-10999.83
  0
VERTEX
100
AcDbVertex
100
AcDb2dVertex
  8
layer_10
 10
-7152.145
 20
-10914.116
  0
VERTEX
100
AcDbVertex
100
AcDb2dVertex
  8
layer_10
 10
-7066.43
 20
-10828.402
  0
VERTEX
100
AcDbVertex
100
AcDb2dVertex
  8
layer_10
 10
-7152.145
 20
-10742.687
  0
VERTEX
100
AcDbVertex
100
AcDb2dVertex
  8
layer_10
 10
-7066.43
 20
-10656.973
  0
VERTEX
100
AcDbVertex
100
AcDb2dVertex
  8
layer_10
 10
-7152.145
 20
-10571.259
  0
VERTEX
100
AcDbVertex
100
AcDb2dVertex
  8
layer_10
 10
-7066.43
 20
-10485.545
  0
VERTEX
100
AcDbVertex
100
AcDb2dVertex
  8
layer_10
 10
-7152.145
 20
-10399.83
  0
VERTEX
100
AcDbVertex
100
AcDb2dVertex
  8
layer_10
 10
-7066.43
 20
-10314.116
  0
VERTEX
100
AcDbVertex
100
AcDb2dVertex
  8
layer_10
 10
-7152.145
 20
-10228.402
  0
VERTEX
100
AcDbVertex
100
AcDb2dVertex
  8
layer_10
 10
-7066.43
 20
-10142.688
  0
VERTEX
100
AcDbVertex
100
AcDb2dVertex
  8
layer_10
 10
-7152.145
 20
-10056.973
  0
VERTEX
100
AcDbVertex
100
AcDb2dVertex
  8
layer_10
 10
-7066.43
 20
-9971.259
  0
VERTEX
100
AcDbVertex
100
AcDb2dVertex
  8
layer_10
 10
-7152.145
 20
-9885.545
  0
VERTEX
100
AcDbVertex
100
AcDb2dVertex
  8
layer_10
 10
-7066.43
 20
-9799.83
  0
VERTEX
100
AcDbVertex
100
AcDb2dVertex
  8
layer_10
 10
-7152.145
 20
-9714.116
  0
VERTEX
100
AcDbVertex
100
AcDb2dVertex
  8
layer_10
 10
-7066.43
 20
-9628.402
  0
VERTEX
100
AcDbVertex
100
AcDb2dVertex
  8
layer_10
 10
-7152.145
 20
-9542.688
  0
VERTEX
100
AcDbVertex
100
AcDb2dVertex
  8
layer_10
 10
-7066.43
 20
-9456.973
  0
VERTEX
100
AcDbVertex
100
AcDb2dVertex
  8
layer_10
 10
-7152.145
 20
-9371.259
  0
VERTEX
100
AcDbVertex
100
AcDb2dVertex
  8
layer_10
 10
-7066.43
 20
-9285.545
  0
VERTEX
100
AcDbVertex
100
AcDb2dVertex
  8
layer_10
 10
-7152.145
 20
-9199.83
  0
VERTEX
100
AcDbVertex
100
AcDb2dVertex
  8
layer_10
 10
-7066.43
 20
-9114.116
  0
VERTEX
100
AcDbVertex
100
AcDb2dVertex
  8
layer_10
 10
-7152.145
 20
-9028.402
  0
VERTEX
100
AcDbVertex
100
AcDb2dVertex
  8
layer_10
 10
-7066.43
 20
-8942.688
  0
VERTEX
100
AcDbVertex
100
AcDb2dVertex
  8
layer_10
 10
-7152.145
 20
-8856.973
  0
VERTEX
100
AcDbVertex
100
AcDb2dVertex
  8
layer_10
 10
-7066.43
 20
-8771.259
  0
VERTEX
100
AcDbVertex
100
AcDb2dVertex
  8
layer_10
 10
-7152.145
 20
-8685.545
  0
VERTEX
100
AcDbVertex
100
AcDb2dVertex
  8
layer_10
 10
-7066.43
 20
-8599.831
  0
VERTEX
100
AcDbVertex
100
AcDb2dVertex
  8
layer_10
 10
-7152.145
 20
-8514.116
  0
VERTEX
100
AcDbVertex
100
AcDb2dVertex
  8
layer_10
 10
-7066.43
 20
-8428.402
  0
VERTEX
100
AcDbVertex
100
AcDb2dVertex
  8
layer_10
 10
-7152.145
 20
-8342.688
  0
VERTEX
100
AcDbVertex
100
AcDb2dVertex
  8
layer_10
 10
-7066.43
 20
-8256.973
  0
VERTEX
100
AcDbVertex
100
AcDb2dVertex
  8
layer_10
 10
-7152.145
 20
-8171.259
  0
VERTEX
100
AcDbVertex
100
AcDb2dVertex
  8
layer_10
 10
-7066.43
 20
-8085.545
  0
VERTEX
100
AcDbVertex
100
AcDb2dVertex
  8
layer_10
 10
-7152.145
 20
-7999.831
  0
VERTEX
100
AcDbVertex
100
AcDb2dVertex
  8
layer_10
 10
-7066.43
 20
-7914.116
  0
VERTEX
100
AcDbVertex
100
AcDb2dVertex
  8
layer_10
 10
-7152.145
 20
-7828.402
  0
VERTEX
100
AcDbVertex
100
AcDb2dVertex
  8
layer_10
 10
-7066.43
 20
-7742.688
  0
VERTEX
100
AcDbVertex
100
AcDb2dVertex
  8
layer_10
 10
-7152.145
 20
-7656.973
  0
VERTEX
100
AcDbVertex
100
AcDb2dVertex
  8
layer_10
 10
-7066.43
 20
-7571.259
  0
VERTEX
100
AcDbVertex
100
AcDb2dVertex
  8
layer_10
 10
-7152.145
 20
-7485.545
  0
VERTEX
100
AcDbVertex
100
AcDb2dVertex
  8
layer_10
 10
-7066.43
 20
-7399.831
  0
VERTEX
100
AcDbVertex
100
AcDb2dVertex
  8
layer_10
 10
-7152.145
 20
-7314.116
  0
VERTEX
100
AcDbVertex
100
AcDb2dVertex
  8
layer_10
 10
-7066.43
 20
-7228.402
  0
VERTEX
100
AcDbVertex
100
AcDb2dVertex
  8
layer_10
 10
-7152.145
 20
-7142.688
  0
VERTEX
100
AcDbVertex
100
AcDb2dVertex
  8
layer_10
 10
-7066.43
 20
-7056.974
  0
VERTEX
100
AcDbVertex
100
AcDb2dVertex
  8
layer_10
 10
-7152.145
 20
-6971.259
  0
VERTEX
100
AcDbVertex
100
AcDb2dVertex
  8
layer_10
 10
-7066.43
 20
-6885.545
  0
VERTEX
100
AcDbVertex
100
AcDb2dVertex
  8
layer_10
 10
-7152.145
 20
-6799.831
  0
VERTEX
100
AcDbVertex
100
AcDb2dVertex
  8
layer_10
 10
-7066.43
 20
-6714.116
  0
VERTEX
100
AcDbVertex
100
AcDb2dVertex
  8
layer_10
 10
-7152.145
 20
-6628.402
  0
VERTEX
100
AcDbVertex
100
AcDb2dVertex
  8
layer_10
 10
-7066.43
 20
-6542.688
  0
VERTEX
100
AcDbVertex
100
AcDb2dVertex
  8
layer_10
 10
-7152.145
 20
-6456.974
  0
VERTEX
100
AcDbVertex
100
AcDb2dVertex
  8
layer_10
 10
-7066.43
 20
-6371.259
  0
VERTEX
100
AcDbVertex
100
AcDb2dVertex
  8
layer_10
 10
-7152.145
 20
-6285.545
  0
VERTEX
100
AcDbVertex
100
AcDb2dVertex
  8
layer_10
 10
-7066.43
 20
-6199.831
  0
VERTEX
100
AcDbVertex
100
AcDb2dVertex
  8
layer_10
 10
-7152.145
 20
-6114.116
  0
VERTEX
100
AcDbVertex
100
AcDb2dVertex
  8
layer_10
 10
-7066.43
 20
-6028.402
  0
VERTEX
100
AcDbVertex
100
AcDb2dVertex
  8
layer_10
 10
-7152.145
 20
-5942.688
  0
VERTEX
100
AcDbVertex
100
AcDb2dVertex
  8
layer_10
 10
-7066.43
 20
-5856.974
  0
VERTEX
100
AcDbVertex
100
AcDb2dVertex
  8
layer_10
 10
-7152.145
 20
-5771.259
  0
VERTEX
100
AcDbVertex
100
AcDb2dVertex
  8
layer_10
 10
-7066.43
 20
-5685.545
  0
VERTEX
100
AcDbVertex
100
AcDb2dVertex
  8
layer_10
 10
-7152.145
 20
-5599.831
  0
VERTEX
100
AcDbVertex
100
AcDb2dVertex
  8
layer_10
 10
-7066.43
 20
-5514.117
  0
VERTEX
100
AcDbVertex
100
AcDb2dVertex
  8
layer_10
 10
-7152.145
 20
-5428.402
  0
VERTEX
100
AcDbVertex
100
AcDb2dVertex
  8
layer_10
 10
-7066.43
 20
-5342.688
  0
VERTEX
100
AcDbVertex
100
AcDb2dVertex
  8
layer_10
 10
-7152.145
 20
-5256.974
  0
VERTEX
100
AcDbVertex
100
AcDb2dVertex
  8
layer_10
 10
-7066.43
 20
-5171.259
  0
VERTEX
100
AcDbVertex
100
AcDb2dVertex
  8
layer_10
 10
-7152.145
 20
-5085.545
  0
VERTEX
100
AcDbVertex
100
AcDb2dVertex
  8
layer_10
 10
-7066.43
 20
-4999.831
  0
VERTEX
100
AcDbVertex
100
AcDb2dVertex
  8
layer_10
 10
-7152.145
 20
-4914.117
  0
VERTEX
100
AcDbVertex
100
AcDb2dVertex
  8
layer_10
 10
-7066.43
 20
-4828.402
  0
VERTEX
100
AcDbVertex
100
AcDb2dVertex
  8
layer_10
 10
-7152.145
 20
-4742.688
  0
VERTEX
100
AcDbVertex
100
AcDb2dVertex
  8
layer_10
 10
-7066.43
 20
-4656.974
  0
VERTEX
100
AcDbVertex
100
AcDb2dVertex
  8
layer_10
 10
-7152.145
 20
-4571.259
  0
VERTEX
100
AcDbVertex
100
AcDb2dVertex
  8
layer_10
 10
-7066.43
 20
-4485.545
  0
VERTEX
100
AcDbVertex
100
AcDb2dVertex
  8
layer_10
 10
-7152.145
 20
-4399.831
  0
VERTEX
100
AcDbVertex
100
AcDb2dVertex
  8
layer_10
 10
-7066.43
 20
-4314.117
  0
VERTEX
100
AcDbVertex
100
AcDb2dVertex
  8
layer_10
 10
-7152.145
 20
-4228.402
  0
VERTEX
100
AcDbVertex
100
AcDb2dVertex
  8
layer_10
 10
-7066.43
 20
-4142.688
  0
VERTEX
100
AcDbVertex
100
AcDb2dVertex
  8
layer_10
 10
-7152.145
 20
-4056.974
  0
VERTEX
100
AcDbVertex
100
AcDb2dVertex
  8
layer_10
 10
-7066.43
 20
-3971.26
  0
VERTEX
100
AcDbVertex
100
AcDb2dVertex
  8
layer_10
 10
-7152.145
 20
-3885.545
  0
VERTEX
100
AcDbVertex
100
AcDb2dVertex
  8
layer_10
 10
-7066.43
 20
-3799.831
  0
VERTEX
100
AcDbVertex
100
AcDb2dVertex
  8
layer_10
 10
-7152.145
 20
-3714.117
  0
VERTEX
100
AcDbVertex
100
AcDb2dVertex
  8
layer_10
 10
-7066.43
 20
-3628.402
  0
VERTEX
100
AcDbVertex
100
AcDb2dVertex
  8
layer_10
 10
-7152.145
 20
-3542.688
  0
VERTEX
100
AcDbVertex
100
AcDb2dVertex
  8
layer_10
 10
-7066.43
 20
-3456.974
  0
VERTEX
100
AcDbVertex
100
AcDb2dVertex
  8
layer_10
 10
-7152.145
 20
-3371.26
  0
VERTEX
100
AcDbVertex
100
AcDb2dVertex
  8
layer_10
 10
-7066.43
 20
-3285.545
  0
VERTEX
100
AcDbVertex
100
AcDb2dVertex
  8
layer_10
 10
-7152.145
 20
-3199.831
  0
VERTEX
100
AcDbVertex
100
AcDb2dVertex
  8
layer_10
 10
-7066.43
 20
-3114.117
  0
VERTEX
100
AcDbVertex
100
AcDb2dVertex
  8
layer_10
 10
-7152.145
 20
-3028.403
  0
VERTEX
100
AcDbVertex
100
AcDb2dVertex
  8
layer_10
 10
-7066.43
 20
-2942.688
  0
VERTEX
100
AcDbVertex
100
AcDb2dVertex
  8
layer_10
 10
-7152.145
 20
-2856.974
  0
VERTEX
100
AcDbVertex
100
AcDb2dVertex
  8
layer_10
 10
-7066.43
 20
-2771.26
  0
VERTEX
100
AcDbVertex
100
AcDb2dVertex
  8
layer_10
 10
-7152.145
 20
-2685.545
  0
VERTEX
100
AcDbVertex
100
AcDb2dVertex
  8
layer_10
 10
-7066.43
 20
-2599.831
  0
VERTEX
100
AcDbVertex
100
AcDb2dVertex
  8
layer_10
 10
-7152.145
 20
-2514.117
  0
VERTEX
100
AcDbVertex
100
AcDb2dVertex
  8
layer_10
 10
-7066.43
 20
-2428.403
  0
VERTEX
100
AcDbVertex
100
AcDb2dVertex
  8
layer_10
 10
-7152.145
 20
-2342.688
  0
VERTEX
100
AcDbVertex
100
AcDb2dVertex
  8
layer_10
 10
-6645.999
 20
-1530
  0
VERTEX
100
AcDbVertex
100
AcDb2dVertex
  8
layer_10
 10
-6645.999
 20
-530
  0
VERTEX
100
AcDbVertex
100
AcDb2dVertex
  8
layer_10
 10
-5645.999
 20
-530
  0
VERTEX
100
AcDbVertex
100
AcDb2dVertex
  8
layer_10
 10
-4833.311
 20
-78.572
  0
VERTEX
100
AcDbVertex
100
AcDb2dVertex
  8
layer_10
 10
-4747.597
 20
7.143
  0
VERTEX
100
AcDbVertex
100
AcDb2dVertex
  8
layer_10
 10
-4661.883
 20
-78.572
  0
VERTEX
100
AcDbVertex
100
AcDb2dVertex
  8
layer_10
 10
-4576.168
 20
7.143
  0
VERTEX
100
AcDbVertex
100
AcDb2dVertex
  8
layer_10
 10
-4490.454
 20
-78.572
  0
VERTEX
100
AcDbVertex
100
AcDb2dVertex
  8
layer_10
 10
-4404.74
 20
7.143
  0
VERTEX
100
AcDbVertex
100
AcDb2dVertex
  8
layer_10
 10
-4319.026
 20
-78.572
  0
VERTEX
100
AcDbVertex
100
AcDb2dVertex
  8
layer_10
 10
-4233.311
 20
7.143
  0
VERTEX
100
AcDbVertex
100
AcDb2dVertex
  8
layer_10
 10
-4147.597
 20
-78.572
  0
VERTEX
100
AcDbVertex
100
AcDb2dVertex
  8
layer_10
 10
-4061.883
 20
7.143
  0
VERTEX
100
AcDbVertex
100
AcDb2dVertex
  8
layer_10
 10
-3976.168
 20
-78.572
  0
VERTEX
100
AcDbVertex
100
AcDb2dVertex
  8
layer_10
 10
-3890.454
 20
7.143
  0
VERTEX
100
AcDbVertex
100
AcDb2dVertex
  8
layer_10
 10
-3804.74
 20
-78.572
  0
VERTEX
100
AcDbVertex
100
AcDb2dVertex
  8
layer_10
 10
-3719.026
 20
7.143
  0
VERTEX
100
AcDbVertex
100
AcDb2dVertex
  8
layer_10
 10
-3633.311
 20
-78.572
  0
VERTEX
100
AcDbVertex
100
AcDb2dVertex
  8
layer_10
 10
-3547.597
 20
7.143
  0
VERTEX
100
AcDbVertex
100
AcDb2dVertex
  8
layer_10
 10
-3461.883
 20
-78.572
  0
VERTEX
100
AcDbVertex
100
AcDb2dVertex
  8
layer_10
 10
-3376.168
 20
7.143
  0
VERTEX
100
AcDbVertex
100
AcDb2dVertex
  8
layer_10
 10
-3290.454
 20
-78.572
  0
VERTEX
100
AcDbVertex
100
AcDb2dVertex
  8
layer_10
 10
-3204.74
 20
7.143
  0
VERTEX
100
AcDbVertex
100
AcDb2dVertex
  8
layer_10
 10
-3119.026
 20
-78.572
  0
VERTEX
100
AcDbVertex
100
AcDb2dVertex
  8
layer_10
 10
-3033.311
 20
7.143
  0
VERTEX
100
AcDbVertex
100
AcDb2dVertex
  8
layer_10
 10
-2947.597
 20
-78.572
  0
VERTEX
100
AcDbVertex
100
AcDb2dVertex
  8
layer_10
 10
-2861.883
 20
7.143
  0
VERTEX
100
AcDbVertex
100
AcDb2dVertex
  8
layer_10
 10
-2776.169
 20
-78.572
  0
VERTEX
100
AcDbVertex
100
AcDb2dVertex
  8
layer_10
 10
-2690.454
 20
7.143
  0
VERTEX
100
AcDbVertex
100
AcDb2dVertex
  8
layer_10
 10
-2604.74
 20
-78.572
  0
VERTEX
100
AcDbVertex
100
AcDb2dVertex
  8
layer_10
 10
-2519.026
 20
7.143
  0
VERTEX
100
AcDbVertex
100
AcDb2dVertex
  8
layer_10
 10
-2433.311
 20
-78.572
  0
VERTEX
100
AcDbVertex
100
AcDb2dVertex
  8
layer_10
 10
-2347.597
 20
7.143
  0
VERTEX
100
AcDbVertex
100
AcDb2dVertex
  8
layer_10
 10
-2261.883
 20
-78.572
  0
VERTEX
100
AcDbVertex
100
AcDb2dVertex
  8
layer_10
 10
-2176.169
 20
7.143
  0
VERTEX
100
AcDbVertex
100
AcDb2dVertex
  8
layer_10
 10
-2090.454
 20
-78.572
  0
VERTEX
100
AcDbVertex
100
AcDb2dVertex
  8
layer_10
 10
-2004.74
 20
7.143
  0
VERTEX
100
AcDbVertex
100
AcDb2dVertex
  8
layer_10
 10
-1919.026
 20
-78.572
  0
VERTEX
100
AcDbVertex
100
AcDb2dVertex
  8
layer_10
 10
-1833.312
 20
7.143
  0
VERTEX
100
AcDbVertex
100
AcDb2dVertex
  8
layer_10
 10
-1747.597
 20
-78.572
  0
VERTEX
100
AcDbVertex
100
AcDb2dVertex
  8
layer_10
 10
-1661.883
 20
7.143
  0
VERTEX
100
AcDbVertex
100
AcDb2dVertex
  8
layer_10
 10
-1576.169
 20
-78.572
  0
VERTEX
100
AcDbVertex
100
AcDb2dVertex
  8
layer_10
 10
-1490.454
 20
7.143
  0
VERTEX
100
AcDbVertex
100
AcDb2dVertex
  8
layer_10
 10
-1404.74
 20
-78.572
  0
VERTEX
100
AcDbVertex
100
AcDb2dVertex
  8
layer_10
 10
-1319.026
 20
7.143
  0
VERTEX
100
AcDbVertex
100
AcDb2dVertex
  8
layer_10
 10
-1233.312
 20
-78.572
  0
VERTEX
100
AcDbVertex
100
AcDb2dVertex
  8
layer_10
 10
-1147.597
 20
7.143
  0
VERTEX
100
AcDbVertex
100
AcDb2dVertex
  8
layer_10
 10
-1061.883
 20
-78.572
  0
VERTEX
100
AcDbVertex
100
AcDb2dVertex
  8
layer_10
 10
-976.169
 20
7.143
  0
VERTEX
100
AcDbVertex
100
AcDb2dVertex
  8
layer_10
 10
-890.454
 20
-78.572
  0
VERTEX
100
AcDbVertex
100
AcDb2dVertex
  8
layer_10
 10
-804.74
 20
7.143
  0
VERTEX
100
AcDbVertex
100
AcDb2dVertex
  8
layer_10
 10
-719.026
 20
-78.572
  0
VERTEX
100
AcDbVertex
100
AcDb2dVertex
  8
layer_10
 10
-633.312
 20
7.143
  0
VERTEX
100
AcDbVertex
100
AcDb2dVertex
  8
layer_10
 10
-547.597
 20
-78.572
  0
VERTEX
100
AcDbVertex
100
AcDb2dVertex
  8
layer_10
 10
-461.883
 20
7.143
  0
VERTEX
100
AcDbVertex
100
AcDb2dVertex
  8
layer_10
 10
-376.169
 20
-78.572
  0
VERTEX
100
AcDbVertex
100
AcDb2dVertex
  8
layer_10
 10
-290.455
 20
7.143
  0
VERTEX
100
AcDbVertex
100
AcDb2dVertex
  8
layer_10
 10
-204.74
 20
-78.572
  0
VERTEX
100
AcDbVertex
100
AcDb2dVertex
  8
layer_10
 10
-119.026
 20
7.143
  0
VERTEX
100
AcDbVertex
100
AcDb2dVertex
  8
layer_10
 10
-33.312
 20
-78.572
  0
VERTEX
100
AcDbVertex
100
AcDb2dVertex
  8
layer_10
 10
52.403
 20
7.143
  0
VERTEX
100
AcDbVertex
100
AcDb2dVertex
  8
layer_10
 10
138.117
 20
-78.572
  0
VERTEX
100
AcDbVertex
100
AcDb2dVertex
  8
layer_10
 10
223.831
 20
7.143
  0
VERTEX
100
AcDbVertex
100
AcDb2dVertex
  8
layer_10
 10
309.545
 20
-78.572
  0
VERTEX
100
AcDbVertex
100
AcDb2dVertex
  8
layer_10
 10
395.26
 20
7.143
  0
VERTEX
100
AcDbVertex
100
AcDb2dVertex
  8
layer_10
 10
480.974
 20
-78.572
  0
VERTEX
100
AcDbVertex
100
AcDb2dVertex
  8
layer_10
 10
566.688
 20
7.143
  0
VERTEX
100
AcDbVertex
100
AcDb2dVertex
  8
layer_10
 10
652.403
 20
-78.572
  0
VERTEX
100
AcDbVertex
100
AcDb2dVertex
  8
layer_10
 10
738.117
 20
7.143
  0
VERTEX
100
AcDbVertex
100
AcDb2dVertex
  8
layer_10
 10
823.831
 20
-78.572
  0
VERTEX
100
AcDbVertex
100
AcDb2dVertex
  8
layer_10
 10
909.545
 20
7.143
  0
VERTEX
100
AcDbVertex
100
AcDb2dVertex
  8
layer_10
 10
995.26
 20
-78.572
  0
VERTEX
100
AcDbVertex
100
AcDb2dVertex
  8
layer_10
 10
1080.974
 20
7.143
  0
VERTEX
100
AcDbVertex
100
AcDb2dVertex
  8
layer_10
 10
1166.688
 20
-78.572
  0
VERTEX
100
AcDbVertex
100
AcDb2dVertex
  8
layer_10
 10
1252.402
 20
7.143
  0
VERTEX
100
AcDbVertex
100
AcDb2dVertex
  8
layer_10
 10
1338.117
 20
-78.572
  0
VERTEX
100
AcDbVertex
100
AcDb2dVertex
  8
layer_10
 10
1423.831
 20
7.143
  0
VERTEX
100
AcDbVertex
100
AcDb2dVertex
  8
layer_10
 10
1509.545
 20
-78.572
  0
VERTEX
100
AcDbVertex
100
AcDb2dVertex
  8
layer_10
 10
1595.26
 20
7.143
  0
VERTEX
100
AcDbVertex
100
AcDb2dVertex
  8
layer_10
 10
1680.974
 20
-78.572
  0
VERTEX
100
AcDbVertex
100
AcDb2dVertex
  8
layer_10
 10
1766.688
 20
7.143
  0
VERTEX
100
AcDbVertex
100
AcDb2dVertex
  8
layer_10
 10
1852.402
 20
-78.572
  0
VERTEX
100
AcDbVertex
100
AcDb2dVertex
  8
layer_10
 10
1938.117
 20
7.143
  0
VERTEX
100
AcDbVertex
100
AcDb2dVertex
  8
layer_10
 10
2023.831
 20
-78.572
  0
VERTEX
100
AcDbVertex
100
AcDb2dVertex
  8
layer_10
 10
2109.545
 20
7.143
  0
VERTEX
100
AcDbVertex
100
AcDb2dVertex
  8
layer_10
 10
2195.26
 20
-78.572
  0
VERTEX
100
AcDbVertex
100
AcDb2dVertex
  8
layer_10
 10
2280.974
 20
7.143
  0
VERTEX
100
AcDbVertex
100
AcDb2dVertex
  8
layer_10
 10
2366.688
 20
-78.572
  0
VERTEX
100
AcDbVertex
100
AcDb2dVertex
  8
layer_10
 10
2452.402
 20
7.143
  0
VERTEX
100
AcDbVertex
100
AcDb2dVertex
  8
layer_10
 10
2538.117
 20
-78.572
  0
VERTEX
100
AcDbVertex
100
AcDb2dVertex
  8
layer_10
 10
2623.831
 20
7.143
  0
VERTEX
100
AcDbVertex
100
AcDb2dVertex
  8
layer_10
 10
2709.545
 20
-78.572
  0
VERTEX
100
AcDbVertex
100
AcDb2dVertex
  8
layer_10
 10
2795.259
 20
7.143
  0
VERTEX
100
AcDbVertex
100
AcDb2dVertex
  8
layer_10
 10
2880.974
 20
-78.572
  0
VERTEX
100
AcDbVertex
100
AcDb2dVertex
  8
layer_10
 10
2966.688
 20
7.143
  0
VERTEX
100
AcDbVertex
100
AcDb2dVertex
  8
layer_10
 10
3052.402
 20
-78.572
  0
VERTEX
100
AcDbVertex
100
AcDb2dVertex
  8
layer_10
 10
3138.117
 20
7.143
  0
VERTEX
100
AcDbVertex
100
AcDb2dVertex
  8
layer_10
 10
3223.831
 20
-78.572
  0
VERTEX
100
AcDbVertex
100
AcDb2dVertex
  8
layer_10
 10
3309.545
 20
7.143
  0
VERTEX
100
AcDbVertex
100
AcDb2dVertex
  8
layer_10
 10
3395.259
 20
-78.572
  0
VERTEX
100
AcDbVertex
100
AcDb2dVertex
  8
layer_10
 10
3480.974
 20
7.143
  0
VERTEX
100
AcDbVertex
100
AcDb2dVertex
  8
layer_10
 10
3566.688
 20
-78.572
  0
VERTEX
100
AcDbVertex
100
AcDb2dVertex
  8
layer_10
 10
3652.402
 20
7.143
  0
VERTEX
100
AcDbVertex
100
AcDb2dVertex
  8
layer_10
 10
3738.117
 20
-78.572
  0
VERTEX
100
AcDbVertex
100
AcDb2dVertex
  8
layer_10
 10
3823.831
 20
7.143
  0
VERTEX
100
AcDbVertex
100
AcDb2dVertex
  8
layer_10
 10
3909.545
 20
-78.572
  0
VERTEX
100
AcDbVertex
100
AcDb2dVertex
  8
layer_10
 10
3995.259
 20
7.143
  0
VERTEX
100
AcDbVertex
100
AcDb2dVertex
  8
layer_10
 10
4080.974
 20
-78.572
  0
VERTEX
100
AcDbVertex
100
AcDb2dVertex
  8
layer_10
 10
4166.688
 20
7.143
  0
VERTEX
100
AcDbVertex
100
AcDb2dVertex
  8
layer_10
 10
4252.402
 20
-78.572
  0
VERTEX
100
AcDbVertex
100
AcDb2dVertex
  8
layer_10
 10
4462.402
 20
-106.856
  0
VERTEX
100
AcDbVertex
100
AcDb2dVertex
  8
layer_10
 10
14962.402
 20
-14155.575
  0
VERTEX
100
AcDbVertex
100
AcDb2dVertex
  8
layer_10
 10
25462.402
 20
-106.856
  0
VERTEX
100
AcDbVertex
100
AcDb2dVertex
  8
layer_10
 10
25672.402
 20
-106.856
  0
VERTEX
100
AcDbVertex
100
AcDb2dVertex
  8
layer_10
 10
28485.735
 20
-163.253
  0
VERTEX
100
AcDbVertex
100
AcDb2dVertex
  8
layer_10
 10
29117.573
 20
-534.061
  0
VERTEX
100
AcDbVertex
100
AcDb2dVertex
  8
layer_10
 10
31221.874
 20
-534.061
  0
VERTEX
100
AcDbVertex
100
AcDb2dVertex
  8
layer_10
 10
31267.828
 20
-586.587
  0
VERTEX
100
AcDbVertex
100
AcDb2dVertex
  8
layer_10
 10
31318.186
 20
-634.908
  0
VERTEX
100
AcDbVertex
100
AcDb2dVertex
  8
layer_10
 10
31372.563
 20
-678.656
  0
VERTEX
100
AcDbVertex
100
AcDb2dVertex
  8
layer_10
 10
31430.546
 20
-717.499
  0
VERTEX
100
AcDbVertex
100
AcDb2dVertex
  8
layer_10
 10
31491.694
 20
-751.14
  0
VERTEX
100
AcDbVertex
100
AcDb2dVertex
  8
layer_10
 10
31555.541
 20
-779.324
  0
VERTEX
100
AcDbVertex
100
AcDb2dVertex
  8
layer_10
 10
31621.602
 20
-801.835
  0
VERTEX
100
AcDbVertex
100
AcDb2dVertex
  8
layer_10
 10
31689.373
 20
-818.504
  0
VERTEX
100
AcDbVertex
100
AcDb2dVertex
  8
layer_10
 10
31758.339
 20
-829.202
  0
VERTEX
100
AcDbVertex
100
AcDb2dVertex
  8
layer_10
 10
31827.975
 20
-833.849
  0
VERTEX
100
AcDbVertex
100
AcDb2dVertex
  8
layer_10
 10
31897.752
 20
-832.409
  0
VERTEX
100
AcDbVertex
100
AcDb2dVertex
  8
layer_10
 10
31967.137
 20
-824.894
  0
VERTEX
100
AcDbVertex
100
AcDb2dVertex
  8
layer_10
 10
32035.603
 20
-811.359
  0
VERTEX
100
AcDbVertex
100
AcDb2dVertex
  8
layer_10
 10
32102.629
 20
-791.909
  0
VERTEX
100
AcDbVertex
100
AcDb2dVertex
  8
layer_10
 10
32111.326
 20
-788.912
  0
VERTEX
100
AcDbVertex
100
AcDb2dVertex
  8
layer_10
 10
32176.107
 20
-762.947
  0
VERTEX
100
AcDbVertex
100
AcDb2dVertex
  8
layer_10
 10
32238.379
 20
-731.435
  0
VERTEX
100
AcDbVertex
100
AcDb2dVertex
  8
layer_10
 10
32297.668
 20
-694.616
  0
VERTEX
100
AcDbVertex
100
AcDb2dVertex
  8
layer_10
 10
32353.522
 20
-652.769
  0
VERTEX
100
AcDbVertex
100
AcDb2dVertex
  8
layer_10
 10
32405.516
 20
-606.214
  0
VERTEX
100
AcDbVertex
100
AcDb2dVertex
  8
layer_10
 10
32453.255
 20
-555.304
  0
VERTEX
100
AcDbVertex
100
AcDb2dVertex
  8
layer_10
 10
32496.375
 20
-500.427
  0
VERTEX
100
AcDbVertex
100
AcDb2dVertex
  8
layer_10
 10
32534.548
 20
-442.001
  0
VERTEX
100
AcDbVertex
100
AcDb2dVertex
  8
layer_10
 10
32567.483
 20
-380.471
  0
VERTEX
100
AcDbVertex
100
AcDb2dVertex
  8
layer_10
 10
32594.931
 20
-316.303
  0
VERTEX
100
AcDbVertex
100
AcDb2dVertex
  8
layer_10
 10
32616.682
 20
-249.988
  0
VERTEX
100
AcDbVertex
100
AcDb2dVertex
  8
layer_10
 10
32632.57
 20
-182.03
  0
VERTEX
100
AcDbVertex
100
AcDb2dVertex
  8
layer_10
 10
32642.474
 20
-112.945
  0
VERTEX
100
AcDbVertex
100
AcDb2dVertex
  8
layer_10
 10
32646.32
 20
-43.26
  0
VERTEX
100
AcDbVertex
100
AcDb2dVertex
  8
layer_10
 10
32646.373
 20
-34.061
  0
VERTEX
100
AcDbVertex
100
AcDb2dVertex
  8
layer_10
 10
32643.329
 20
35.664
  0
VERTEX
100
AcDbVertex
100
AcDb2dVertex
  8
layer_10
 10
32634.219
 20
104.858
  0
VERTEX
100
AcDbVertex
100
AcDb2dVertex
  8
layer_10
 10
32619.114
 20
172.994
  0
VERTEX
100
AcDbVertex
100
AcDb2dVertex
  8
layer_10
 10
32598.127
 20
239.555
  0
VERTEX
100
AcDbVertex
100
AcDb2dVertex
  8
layer_10
 10
32571.419
 20
304.034
  0
VERTEX
100
AcDbVertex
100
AcDb2dVertex
  8
layer_10
 10
32539.193
 20
365.939
  0
VERTEX
100
AcDbVertex
100
AcDb2dVertex
  8
layer_10
 10
32501.695
 20
424.8
  0
VERTEX
100
AcDbVertex
100
AcDb2dVertex
  8
layer_10
 10
32459.209
 20
480.169
  0
VERTEX
100
AcDbVertex
100
AcDb2dVertex
  8
layer_10
 10
32412.058
 20
531.624
  0
VERTEX
100
AcDbVertex
100
AcDb2dVertex
  8
layer_10
 10
32360.603
 20
578.775
  0
VERTEX
100
AcDbVertex
100
AcDb2dVertex
  8
layer_10
 10
32305.234
 20
621.261
  0
VERTEX
100
AcDbVertex
100
AcDb2dVertex
  8
layer_10
 10
32246.373
 20
658.759
  0
VERTEX
100
AcDbVertex
100
AcDb2dVertex
  8
layer_10
 10
32184.468
 20
690.985
  0
VERTEX
100
AcDbVertex
100
AcDb2dVertex
  8
layer_10
 10
32119.989
 20
717.693
  0
VERTEX
100
AcDbVertex
100
AcDb2dVertex
  8
layer_10
 10
32111.326
 20
720.79
  0
VERTEX
100
AcDbVertex
100
AcDb2dVertex
  8
layer_10
 10
32044.528
 20
741.01
  0
VERTEX
100
AcDbVertex
100
AcDb2dVertex
  8
layer_10
 10
31976.222
 20
755.331
  0
VERTEX
100
AcDbVertex
100
AcDb2dVertex
  8
layer_10
 10
31906.928
 20
763.644
  0
VERTEX
100
AcDbVertex
100
AcDb2dVertex
  8
layer_10
 10
31837.174
 20
765.886
  0
VERTEX
100
AcDbVertex
100
AcDb2dVertex
  8
layer_10
 10
31767.489
 20
762.04
  0
VERTEX
100
AcDbVertex
100
AcDb2dVertex
  8
layer_10
 10
31698.404
 20
752.136
  0
VERTEX
100
AcDbVertex
100
AcDb2dVertex
  8
layer_10
 10
31630.446
 20
736.247
  0
VERTEX
100
AcDbVertex
100
AcDb2dVertex
  8
layer_10
 10
31564.131
 20
714.497
  0
VERTEX
100
AcDbVertex
100
AcDb2dVertex
  8
layer_10
 10
31499.964
 20
687.049
  0
VERTEX
100
AcDbVertex
100
AcDb2dVertex
  8
layer_10
 10
31438.433
 20
654.114
  0
VERTEX
100
AcDbVertex
100
AcDb2dVertex
  8
layer_10
 10
31380.007
 20
615.941
  0
VERTEX
100
AcDbVertex
100
AcDb2dVertex
  8
layer_10
 10
31325.13
 20
572.821
  0
VERTEX
100
AcDbVertex
100
AcDb2dVertex
  8
layer_10
 10
31274.221
 20
525.082
  0
VERTEX
100
AcDbVertex
100
AcDb2dVertex
  8
layer_10
 10
31227.665
 20
473.088
  0
VERTEX
100
AcDbVertex
100
AcDb2dVertex
  8
layer_10
 10
31221.874
 20
465.939
  0
VERTEX
100
AcDbVertex
100
AcDb2dVertex
  8
layer_10
 10
29117.573
 20
465.939
  0
VERTEX
100
AcDbVertex
100
AcDb2dVertex
  8
layer_10
 10
28485.735
 20
48.468
  0
VERTEX
100
AcDbVertex
100
AcDb2dVertex
  8
layer_10
 10
25672.402
 20
-7.861
  0
VERTEX
100
AcDbVertex
100
AcDb2dVertex
  8
layer_10
 10
25462.402
 20
-7.861
  0
VERTEX
100
AcDbVertex
100
AcDb2dVertex
  8
layer_10
 10
14962.402
 20
9873.162
  0
VERTEX
100
AcDbVertex
100
AcDb2dVertex
  8
layer_10
 10
14962.402
 20
9656.175
  0
SEQEND
  0
POLYLINE
100
AcDb2dPolyline
  8
layer_7
 66
   1
 70
   1
 40
0.0
 41
0.0
  0
VERTEX
100
AcDbVertex
100
AcDb2dVertex
  8
layer_7
 10
-7645.999
 20
-530
  0
VERTEX
100
AcDbVertex
100
AcDb2dVertex
  8
layer_7
 10
-7645.999
 20
-1530
  0
VERTEX
100
AcDbVertex
100
AcDb2dVertex
  8
layer_7
 10
-7194.571
 20
-2342.688
  0
VERTEX
100
AcDbVertex
100
AcDb2dVertex
  8
layer_7
 10
-7108.857
 20
-2428.403
  0
VERTEX
100
AcDbVertex
100
AcDb2dVertex
  8
layer_7
 10
-7194.571
 20
-2514.117
  0
VERTEX
100
AcDbVertex
100
AcDb2dVertex
  8
layer_7
 10
-7108.857
 20
-2599.831
  0
VERTEX
100
AcDbVertex
100
AcDb2dVertex
  8
layer_7
 10
-7194.571
 20
-2685.545
  0
VERTEX
100
AcDbVertex
100
AcDb2dVertex
  8
layer_7
 10
-7108.857
 20
-2771.26
  0
VERTEX
100
AcDbVertex
100
AcDb2dVertex
  8
layer_7
 10
-7194.571
 20
-2856.974
  0
VERTEX
100
AcDbVertex
100
AcDb2dVertex
  8
layer_7
 10
-7108.857
 20
-2942.688
  0
VERTEX
100
AcDbVertex
100
AcDb2dVertex
  8
layer_7
 10
-7194.571
 20
-3028.403
  0
VERTEX
100
AcDbVertex
100
AcDb2dVertex
  8
layer_7
 10
-7108.857
 20
-3114.117
  0
VERTEX
100
AcDbVertex
100
AcDb2dVertex
  8
layer_7
 10
-7194.571
 20
-3199.831
  0
VERTEX
100
AcDbVertex
100
AcDb2dVertex
  8
layer_7
 10
-7108.857
 20
-3285.545
  0
VERTEX
100
AcDbVertex
100
AcDb2dVertex
  8
layer_7
 10
-7194.571
 20
-3371.26
  0
VERTEX
100
AcDbVertex
100
AcDb2dVertex
  8
layer_7
 10
-7108.857
 20
-3456.974
  0
VERTEX
100
AcDbVertex
100
AcDb2dVertex
  8
layer_7
 10
-7194.571
 20
-3542.688
  0
VERTEX
100
AcDbVertex
100
AcDb2dVertex
  8
layer_7
 10
-7108.857
 20
-3628.402
  0
VERTEX
100
AcDbVertex
100
AcDb2dVertex
  8
layer_7
 10
-7194.571
 20
-3714.117
  0
VERTEX
100
AcDbVertex
100
AcDb2dVertex
  8
layer_7
 10
-7108.857
 20
-3799.831
  0
VERTEX
100
AcDbVertex
100
AcDb2dVertex
  8
layer_7
 10
-7194.571
 20
-3885.545
  0
VERTEX
100
AcDbVertex
100
AcDb2dVertex
  8
layer_7
 10
-7108.857
 20
-3971.26
  0
VERTEX
100
AcDbVertex
100
AcDb2dVertex
  8
layer_7
 10
-7194.571
 20
-4056.974
  0
VERTEX
100
AcDbVertex
100
AcDb2dVertex
  8
layer_7
 10
-7108.857
 20
-4142.688
  0
VERTEX
100
AcDbVertex
100
AcDb2dVertex
  8
layer_7
 10
-7194.571
 20
-4228.402
  0
VERTEX
100
AcDbVertex
100
AcDb2dVertex
  8
layer_7
 10
-7108.857
 20
-4314.117
  0
VERTEX
100
AcDbVertex
100
AcDb2dVertex
  8
layer_7
 10
-7194.571
 20
-4399.831
  0
VERTEX
100
AcDbVertex
100
AcDb2dVertex
  8
layer_7
 10
-7108.857
 20
-4485.545
  0
VERTEX
100
AcDbVertex
100
AcDb2dVertex
  8
layer_7
 10
-7194.571
 20
-4571.259
  0
VERTEX
100
AcDbVertex
100
AcDb2dVertex
  8
layer_7
 10
-7108.857
 20
-4656.974
  0
VERTEX
100
AcDbVertex
100
AcDb2dVertex
  8
layer_7
 10
-7194.571
 20
-4742.688
  0
VERTEX
100
AcDbVertex
100
AcDb2dVertex
  8
layer_7
 10
-7108.857
 20
-4828.402
  0
VERTEX
100
AcDbVertex
100
AcDb2dVertex
  8
layer_7
 10
-7194.571
 20
-4914.117
  0
VERTEX
100
AcDbVertex
100
AcDb2dVertex
  8
layer_7
 10
-7108.857
 20
-4999.831
  0
VERTEX
100
AcDbVertex
100
AcDb2dVertex
  8
layer_7
 10
-7194.571
 20
-5085.545
  0
VERTEX
100
AcDbVertex
100
AcDb2dVertex
  8
layer_7
 10
-7108.857
 20
-5171.259
  0
VERTEX
100
AcDbVertex
100
AcDb2dVertex
  8
layer_7
 10
-7194.571
 20
-5256.974
  0
VERTEX
100
AcDbVertex
100
AcDb2dVertex
  8
layer_7
 10
-7108.857
 20
-5342.688
  0
VERTEX
100
AcDbVertex
100
AcDb2dVertex
  8
layer_7
 10
-7194.571
 20
-5428.402
  0
VERTEX
100
AcDbVertex
100
AcDb2dVertex
  8
layer_7
 10
-7108.857
 20
-5514.117
  0
VERTEX
100
AcDbVertex
100
AcDb2dVertex
  8
layer_7
 10
-7194.571
 20
-5599.831
  0
VERTEX
100
AcDbVertex
100
AcDb2dVertex
  8
layer_7
 10
-7108.857
 20
-5685.545
  0
VERTEX
100
AcDbVertex
100
AcDb2dVertex
  8
layer_7
 10
-7194.571
 20
-5771.259
  0
VERTEX
100
AcDbVertex
100
AcDb2dVertex
  8
layer_7
 10
-7108.857
 20
-5856.974
  0
VERTEX
100
AcDbVertex
100
AcDb2dVertex
  8
layer_7
 10
-7194.571
 20
-5942.688
  0
VERTEX
100
AcDbVertex
100
AcDb2dVertex
  8
layer_7
 10
-7108.857
 20
-6028.402
  0
VERTEX
100
AcDbVertex
100
AcDb2dVertex
  8
layer_7
 10
-7194.571
 20
-6114.116
  0
VERTEX
100
AcDbVertex
100
AcDb2dVertex
  8
layer_7
 10
-7108.857
 20
-6199.831
  0
VERTEX
100
AcDbVertex
100
AcDb2dVertex
  8
layer_7
 10
-7194.571
 20
-6285.545
  0
VERTEX
100
AcDbVertex
100
AcDb2dVertex
  8
layer_7
 10
-7108.857
 20
-6371.259
  0
VERTEX
100
AcDbVertex
100
AcDb2dVertex
  8
layer_7
 10
-7194.571
 20
-6456.974
  0
VERTEX
100
AcDbVertex
100
AcDb2dVertex
  8
layer_7
 10
-7108.857
 20
-6542.688
  0
VERTEX
100
AcDbVertex
100
AcDb2dVertex
  8
layer_7
 10
-7194.571
 20
-6628.402
  0
VERTEX
100
AcDbVertex
100
AcDb2dVertex
  8
layer_7
 10
-7108.857
 20
-6714.116
  0
VERTEX
100
AcDbVertex
100
AcDb2dVertex
  8
layer_7
 10
-7194.571
 20
-6799.831
  0
VERTEX
100
AcDbVertex
100
AcDb2dVertex
  8
layer_7
 10
-7108.857
 20
-6885.545
  0
VERTEX
100
AcDbVertex
100
AcDb2dVertex
  8
layer_7
 10
-7194.571
 20
-6971.259
  0
VERTEX
100
AcDbVertex
100
AcDb2dVertex
  8
layer_7
 10
-7108.857
 20
-7056.974
  0
VERTEX
100
AcDbVertex
100
AcDb2dVertex
  8
layer_7
 10
-7194.571
 20
-7142.688
  0
VERTEX
100
AcDbVertex
100
AcDb2dVertex
  8
layer_7
 10
-7108.857
 20
-7228.402
  0
VERTEX
100
AcDbVertex
100
AcDb2dVertex
  8
layer_7
 10
-7194.571
 20
-7314.116
  0
VERTEX
100
AcDbVertex
100
AcDb2dVertex
  8
layer_7
 10
-7108.857
 20
-7399.831
  0
VERTEX
100
AcDbVertex
100
AcDb2dVertex
  8
layer_7
 10
-7194.571
 20
-7485.545
  0
VERTEX
100
AcDbVertex
100
AcDb2dVertex
  8
layer_7
 10
-7108.857
 20
-7571.259
  0
VERTEX
100
AcDbVertex
100
AcDb2dVertex
  8
layer_7
 10
-7194.571
 20
-7656.973
  0
VERTEX
100
AcDbVertex
100
AcDb2dVertex
  8
layer_7
 10
-7108.857
 20
-7742.688
  0
VERTEX
100
AcDbVertex
100
AcDb2dVertex
  8
layer_7
 10
-7194.571
 20
-7828.402
  0
VERTEX
100
AcDbVertex
100
AcDb2dVertex
  8
layer_7
 10
-7108.857
 20
-7914.116
  0
VERTEX
100
AcDbVertex
100
AcDb2dVertex
  8
layer_7
 10
-7194.571
 20
-7999.831
  0
VERTEX
100
AcDbVertex
100
AcDb2dVertex
  8
layer_7
 10
-7108.857
 20
-8085.545
  0
VERTEX
100
AcDbVertex
100
AcDb2dVertex
  8
layer_7
 10
-7194.571
 20
-8171.259
  0
VERTEX
100
AcDbVertex
100
AcDb2dVertex
  8
layer_7
 10
-7108.857
 20
-8256.973
  0
VERTEX
100
AcDbVertex
100
AcDb2dVertex
  8
layer_7
 10
-7194.571
 20
-8342.688
  0
VERTEX
100
AcDbVertex
100
AcDb2dVertex
  8
layer_7
 10
-7108.857
 20
-8428.402
  0
VERTEX
100
AcDbVertex
100
AcDb2dVertex
  8
layer_7
 10
-7194.571
 20
-8514.116
  0
VERTEX
100
AcDbVertex
100
AcDb2dVertex
  8
layer_7
 10
-7108.857
 20
-8599.831
  0
VERTEX
100
AcDbVertex
100
AcDb2dVertex
  8
layer_7
 10
-7194.571
 20
-8685.545
  0
VERTEX
100
AcDbVertex
100
AcDb2dVertex
  8
layer_7
 10
-7108.857
 20
-8771.259
  0
VERTEX
100
AcDbVertex
100
AcDb2dVertex
  8
layer_7
 10
-7194.571
 20
-8856.973
  0
VERTEX
100
AcDbVertex
100
AcDb2dVertex
  8
layer_7
 10
-7108.857
 20
-8942.688
  0
VERTEX
100
AcDbVertex
100
AcDb2dVertex
  8
layer_7
 10
-7194.571
 20
-9028.402
  0
VERTEX
100
AcDbVertex
100
AcDb2dVertex
  8
layer_7
 10
-7108.857
 20
-9114.116
  0
VERTEX
100
AcDbVertex
100
AcDb2dVertex
  8
layer_7
 10
-7194.571
 20
-9199.83
  0
VERTEX
100
AcDbVertex
100
AcDb2dVertex
  8
layer_7
 10
-7108.857
 20
-9285.545
  0
VERTEX
100
AcDbVertex
100
AcDb2dVertex
  8
layer_7
 10
-7194.571
 20
-9371.259
  0
VERTEX
100
AcDbVertex
100
AcDb2dVertex
  8
layer_7
 10
-7108.857
 20
-9456.973
  0
VERTEX
100
AcDbVertex
100
AcDb2dVertex
  8
layer_7
 10
-7194.571
 20
-9542.688
  0
VERTEX
100
AcDbVertex
100
AcDb2dVertex
  8
layer_7
 10
-7108.857
 20
-9628.402
  0
VERTEX
100
AcDbVertex
100
AcDb2dVertex
  8
layer_7
 10
-7194.571
 20
-9714.116
  0
VERTEX
100
AcDbVertex
100
AcDb2dVertex
  8
layer_7
 10
-7108.857
 20
-9799.83
  0
VERTEX
100
AcDbVertex
100
AcDb2dVertex
  8
layer_7
 10
-7194.571
 20
-9885.545
  0
VERTEX
100
AcDbVertex
100
AcDb2dVertex
  8
layer_7
 10
-7108.857
 20
-9971.259
  0
VERTEX
100
AcDbVertex
100
AcDb2dVertex
  8
layer_7
 10
-7194.571
 20
-10056.973
  0
VERTEX
100
AcDbVertex
100
AcDb2dVertex
  8
layer_7
 10
-7108.857
 20
-10142.688
  0
VERTEX
100
AcDbVertex
100
AcDb2dVertex
  8
layer_7
 10
-7194.571
 20
-10228.402
  0
VERTEX
100
AcDbVertex
100
AcDb2dVertex
  8
layer_7
 10
-7108.857
 20
-10314.116
  0
VERTEX
100
AcDbVertex
100
AcDb2dVertex
  8
layer_7
 10
-7194.571
 20
-10399.83
  0
VERTEX
100
AcDbVertex
100
AcDb2dVertex
  8
layer_7
 10
-7108.857
 20
-10485.545
  0
VERTEX
100
AcDbVertex
100
AcDb2dVertex
  8
layer_7
 10
-7194.571
 20
-10571.259
  0
VERTEX
100
AcDbVertex
100
AcDb2dVertex
  8
layer_7
 10
-7108.857
 20
-10656.973
  0
VERTEX
100
AcDbVertex
100
AcDb2dVertex
  8
layer_7
 10
-7194.571
 20
-10742.687
  0
VERTEX
100
AcDbVertex
100
AcDb2dVertex
  8
layer_7
 10
-7108.857
 20
-10828.402
  0
VERTEX
100
AcDbVertex
100
AcDb2dVertex
  8
layer_7
 10
-7194.571
 20
-10914.116
  0
VERTEX
100
AcDbVertex
100
AcDb2dVertex
  8
layer_7
 10
-7108.857
 20
-10999.83
  0
VERTEX
100
AcDbVertex
100
AcDb2dVertex
  8
layer_7
 10
-7194.571
 20
-11085.545
  0
VERTEX
100
AcDbVertex
100
AcDb2dVertex
  8
layer_7
 10
-7108.857
 20
-11171.259
  0
VERTEX
100
AcDbVertex
100
AcDb2dVertex
  8
layer_7
 10
-7194.571
 20
-11256.973
  0
VERTEX
100
AcDbVertex
100
AcDb2dVertex
  8
layer_7
 10
-7108.857
 20
-11342.687
  0
VERTEX
100
AcDbVertex
100
AcDb2dVertex
  8
layer_7
 10
-7194.571
 20
-11428.402
  0
VERTEX
100
AcDbVertex
100
AcDb2dVertex
  8
layer_7
 10
-7194.571
 20
-11662.14
  0
VERTEX
100
AcDbVertex
100
AcDb2dVertex
  8
layer_7
 10
-7645.999
 20
-12386.96
  0
VERTEX
100
AcDbVertex
100
AcDb2dVertex
  8
layer_7
 10
-7646
 20
-14186.96
  0
VERTEX
100
AcDbVertex
100
AcDb2dVertex
  8
layer_7
 10
-7698.526
 20
-14232.914
  0
VERTEX
100
AcDbVertex
100
AcDb2dVertex
  8
layer_7
 10
-7746.847
 20
-14283.272
  0
VERTEX
100
AcDbVertex
100
AcDb2dVertex
  8
layer_7
 10
-7790.595
 20
-14337.649
  0
VERTEX
100
AcDbVertex
100
AcDb2dVertex
  8
layer_7
 10
-7829.438
 20
-14395.632
  0
VERTEX
100
AcDbVertex
100
AcDb2dVertex
  8
layer_7
 10
-7863.079
 20
-14456.78
  0
VERTEX
100
AcDbVertex
100
AcDb2dVertex
  8
layer_7
 10
-7891.262
 20
-14520.627
  0
VERTEX
100
AcDbVertex
100
AcDb2dVertex
  8
layer_7
 10
-7913.774
 20
-14586.688
  0
VERTEX
100
AcDbVertex
100
AcDb2dVertex
  8
layer_7
 10
-7930.442
 20
-14654.459
  0
VERTEX
100
AcDbVertex
100
AcDb2dVertex
  8
layer_7
 10
-7941.141
 20
-14723.426
  0
VERTEX
100
AcDbVertex
100
AcDb2dVertex
  8
layer_7
 10
-7945.788
 20
-14793.062
  0
VERTEX
100
AcDbVertex
100
AcDb2dVertex
  8
layer_7
 10
-7944.348
 20
-14862.838
  0
VERTEX
100
AcDbVertex
100
AcDb2dVertex
  8
layer_7
 10
-7936.832
 20
-14932.223
  0
VERTEX
100
AcDbVertex
100
AcDb2dVertex
  8
layer_7
 10
-7923.297
 20
-15000.689
  0
VERTEX
100
AcDbVertex
100
AcDb2dVertex
  8
layer_7
 10
-7903.847
 20
-15067.715
  0
VERTEX
100
AcDbVertex
100
AcDb2dVertex
  8
layer_7
 10
-7900.85
 20
-15076.413
  0
VERTEX
100
AcDbVertex
100
AcDb2dVertex
  8
layer_7
 10
-7874.885
 20
-15141.194
  0
VERTEX
100
AcDbVertex
100
AcDb2dVertex
  8
layer_7
 10
-7843.373
 20
-15203.466
  0
VERTEX
100
AcDbVertex
100
AcDb2dVertex
  8
layer_7
 10
-7806.554
 20
-15262.755
  0
VERTEX
100
AcDbVertex
100
AcDb2dVertex
  8
layer_7
 10
-7764.707
 20
-15318.609
  0
VERTEX
100
AcDbVertex
100
AcDb2dVertex
  8
layer_7
 10
-7718.152
 20
-15370.603
  0
VERTEX
100
AcDbVertex
100
AcDb2dVertex
  8
layer_7
 10
-7667.242
 20
-15418.342
  0
VERTEX
100
AcDbVertex
100
AcDb2dVertex
  8
layer_7
 10
-7612.365
 20
-15461.462
  0
VERTEX
100
AcDbVertex
100
AcDb2dVertex
  8
layer_7
 10
-7553.939
 20
-15499.635
  0
VERTEX
100
AcDbVertex
100
AcDb2dVertex
  8
layer_7
 10
-7492.408
 20
-15532.571
  0
VERTEX
100
AcDbVertex
100
AcDb2dVertex
  8
layer_7
 10
-7428.241
 20
-15560.018
  0
VERTEX
100
AcDbVertex
100
AcDb2dVertex
  8
layer_7
 10
-7361.926
 20
-15581.769
  0
VERTEX
100
AcDbVertex
100
AcDb2dVertex
  8
layer_7
 10
-7293.967
 20
-15597.657
  0
VERTEX
100
AcDbVertex
100
AcDb2dVertex
  8
layer_7
 10
-7224.882
 20
-15607.561
  0
VERTEX
100
AcDbVertex
100
AcDb2dVertex
  8
layer_7
 10
-7155.197
 20
-15611.407
  0
VERTEX
100
AcDbVertex
100
AcDb2dVertex
  8
layer_7
 10
-7145.999
 20
-15611.46
  0
VERTEX
100
AcDbVertex
100
AcDb2dVertex
  8
layer_7
 10
-7076.274
 20
-15608.416
  0
VERTEX
100
AcDbVertex
100
AcDb2dVertex
  8
layer_7
 10
-7007.08
 20
-15599.306
  0
VERTEX
100
AcDbVertex
100
AcDb2dVertex
  8
layer_7
 10
-6938.944
 20
-15584.2
  0
VERTEX
100
AcDbVertex
100
AcDb2dVertex
  8
layer_7
 10
-6872.383
 20
-15563.214
  0
VERTEX
100
AcDbVertex
100
AcDb2dVertex
  8
layer_7
 10
-6807.904
 20
-15536.506
  0
VERTEX
100
AcDbVertex
100
AcDb2dVertex
  8
layer_7
 10
-6745.999
 20
-15504.28
  0
VERTEX
100
AcDbVertex
100
AcDb2dVertex
  8
layer_7
 10
-6687.138
 20
-15466.781
  0
VERTEX
100
AcDbVertex
100
AcDb2dVertex
  8
layer_7
 10
-6631.769
 20
-15424.295
  0
VERTEX
100
AcDbVertex
100
AcDb2dVertex
  8
layer_7
 10
-6580.314
 20
-15377.145
  0
VERTEX
100
AcDbVertex
100
AcDb2dVertex
  8
layer_7
 10
-6533.164
 20
-15325.689
  0
VERTEX
100
AcDbVertex
100
AcDb2dVertex
  8
layer_7
 10
-6490.678
 20
-15270.32
  0
VERTEX
100
AcDbVertex
100
AcDb2dVertex
  8
layer_7
 10
-6453.179
 20
-15211.459
  0
VERTEX
100
AcDbVertex
100
AcDb2dVertex
  8
layer_7
 10
-6420.953
 20
-15149.554
  0
VERTEX
100
AcDbVertex
100
AcDb2dVertex
  8
layer_7
 10
-6394.245
 20
-15085.075
  0
VERTEX
100
AcDbVertex
100
AcDb2dVertex
  8
layer_7
 10
-6391.149
 20
-15076.413
  0
VERTEX
100
AcDbVertex
100
AcDb2dVertex
  8
layer_7
 10
-6370.929
 20
-15009.615
  0
VERTEX
100
AcDbVertex
100
AcDb2dVertex
  8
layer_7
 10
-6356.608
 20
-14941.309
  0
VERTEX
100
AcDbVertex
100
AcDb2dVertex
  8
layer_7
 10
-6348.295
 20
-14872.015
  0
VERTEX
100
AcDbVertex
100
AcDb2dVertex
  8
layer_7
 10
-6346.053
 20
-14802.26
  0
VERTEX
100
AcDbVertex
100
AcDb2dVertex
  8
layer_7
 10
-6349.898
 20
-14732.575
  0
VERTEX
100
AcDbVertex
100
AcDb2dVertex
  8
layer_7
 10
-6359.803
 20
-14663.49
  0
VERTEX
100
AcDbVertex
100
AcDb2dVertex
  8
layer_7
 10
-6375.691
 20
-14595.532
  0
VERTEX
100
AcDbVertex
100
AcDb2dVertex
  8
layer_7
 10
-6397.442
 20
-14529.217
  0
VERTEX
100
AcDbVertex
100
AcDb2dVertex
  8
layer_7
 10
-6424.889
 20
-14465.05
  0
VERTEX
100
AcDbVertex
100
AcDb2dVertex
  8
layer_7
 10
-6457.825
 20
-14403.519
  0
VERTEX
100
AcDbVertex
100
AcDb2dVertex
  8
layer_7
 10
-6495.998
 20
-14345.093
  0
VERTEX
100
AcDbVertex
100
AcDb2dVertex
  8
layer_7
 10
-6539.118
 20
-14290.216
  0
VERTEX
100
AcDbVertex
100
AcDb2dVertex
  8
layer_7
 10
-6586.857
 20
-14239.306
  0
VERTEX
100
AcDbVertex
100
AcDb2dVertex
  8
layer_7
 10
-6638.851
 20
-14192.751
  0
VERTEX
100
AcDbVertex
100
AcDb2dVertex
  8
layer_7
 10
-6645.999
 20
-14186.96
  0
VERTEX
100
AcDbVertex
100
AcDb2dVertex
  8
layer_7
 10
-6645.999
 20
-12386.96
  0
VERTEX
100
AcDbVertex
100
AcDb2dVertex
  8
layer_7
 10
-7152.145
 20
-11662.14
  0
VERTEX
100
AcDbVertex
100
AcDb2dVertex
  8
layer_7
 10
-7152.145
 20
-11428.402
  0
VERTEX
100
AcDbVertex
100
AcDb2dVertex
  8
layer_7
 10
-7066.43
 20
-11342.687
  0
VERTEX
100
AcDbVertex
100
AcDb2dVertex
  8
layer_7
 10
-7152.145
 20
-11256.973
  0
VERTEX
100
AcDbVertex
100
AcDb2dVertex
  8
layer_7
 10
-7066.43
 20
-11171.259
  0
VERTEX
100
AcDbVertex
100
AcDb2dVertex
  8
layer_7
 10
-7152.145
 20
-11085.545
  0
VERTEX
100
AcDbVertex
100
AcDb2dVertex
  8
layer_7
 10
-7066.43
 20
-10999.83
  0
VERTEX
100
AcDbVertex
100
AcDb2dVertex
  8
layer_7
 10
-7152.145
 20
-10914.116
  0
VERTEX
100
AcDbVertex
100
AcDb2dVertex
  8
layer_7
 10
-7066.43
 20
-10828.402
  0
VERTEX
100
AcDbVertex
100
AcDb2dVertex
  8
layer_7
 10
-7152.145
 20
-10742.687
  0
VERTEX
100
AcDbVertex
100
AcDb2dVertex
  8
layer_7
 10
-7066.43
 20
-10656.973
  0
VERTEX
100
AcDbVertex
100
AcDb2dVertex
  8
layer_7
 10
-7152.145
 20
-10571.259
  0
VERTEX
100
AcDbVertex
100
AcDb2dVertex
  8
layer_7
 10
-7066.43
 20
-10485.545
  0
VERTEX
100
AcDbVertex
100
AcDb2dVertex
  8
layer_7
 10
-7152.145
 20
-10399.83
  0
VERTEX
100
AcDbVertex
100
AcDb2dVertex
  8
layer_7
 10
-7066.43
 20
-10314.116
  0
VERTEX
100
AcDbVertex
100
AcDb2dVertex
  8
layer_7
 10
-7152.145
 20
-10228.402
  0
VERTEX
100
AcDbVertex
100
AcDb2dVertex
  8
layer_7
 10
-7066.43
 20
-10142.688
  0
VERTEX
100
AcDbVertex
100
AcDb2dVertex
  8
layer_7
 10
-7152.145
 20
-10056.973
  0
VERTEX
100
AcDbVertex
100
AcDb2dVertex
  8
layer_7
 10
-7066.43
 20
-9971.259
  0
VERTEX
100
AcDbVertex
100
AcDb2dVertex
  8
layer_7
 10
-7152.145
 20
-9885.545
  0
VERTEX
100
AcDbVertex
100
AcDb2dVertex
  8
layer_7
 10
-7066.43
 20
-9799.83
  0
VERTEX
100
AcDbVertex
100
AcDb2dVertex
  8
layer_7
 10
-7152.145
 20
-9714.116
  0
VERTEX
100
AcDbVertex
100
AcDb2dVertex
  8
layer_7
 10
-7066.43
 20
-9628.402
  0
VERTEX
100
AcDbVertex
100
AcDb2dVertex
  8
layer_7
 10
-7152.145
 20
-9542.688
  0
VERTEX
100
AcDbVertex
100
AcDb2dVertex
  8
layer_7
 10
-7066.43
 20
-9456.973
  0
VERTEX
100
AcDbVertex
100
AcDb2dVertex
  8
layer_7
 10
-7152.145
 20
-9371.259
  0
VERTEX
100
AcDbVertex
100
AcDb2dVertex
  8
layer_7
 10
-7066.43
 20
-9285.545
  0
VERTEX
100
AcDbVertex
100
AcDb2dVertex
  8
layer_7
 10
-7152.145
 20
-9199.83
  0
VERTEX
100
AcDbVertex
100
AcDb2dVertex
  8
layer_7
 10
-7066.43
 20
-9114.116
  0
VERTEX
100
AcDbVertex
100
AcDb2dVertex
  8
layer_7
 10
-7152.145
 20
-9028.402
  0
VERTEX
100
AcDbVertex
100
AcDb2dVertex
  8
layer_7
 10
-7066.43
 20
-8942.688
  0
VERTEX
100
AcDbVertex
100
AcDb2dVertex
  8
layer_7
 10
-7152.145
 20
-8856.973
  0
VERTEX
100
AcDbVertex
100
AcDb2dVertex
  8
layer_7
 10
-7066.43
 20
-8771.259
  0
VERTEX
100
AcDbVertex
100
AcDb2dVertex
  8
layer_7
 10
-7152.145
 20
-8685.545
  0
VERTEX
100
AcDbVertex
100
AcDb2dVertex
  8
layer_7
 10
-7066.43
 20
-8599.831
  0
VERTEX
100
AcDbVertex
100
AcDb2dVertex
  8
layer_7
 10
-7152.145
 20
-8514.116
  0
VERTEX
100
AcDbVertex
100
AcDb2dVertex
  8
layer_7
 10
-7066.43
 20
-8428.402
  0
VERTEX
100
AcDbVertex
100
AcDb2dVertex
  8
layer_7
 10
-7152.145
 20
-8342.688
  0
VERTEX
100
AcDbVertex
100
AcDb2dVertex
  8
layer_7
 10
-7066.43
 20
-8256.973
  0
VERTEX
100
AcDbVertex
100
AcDb2dVertex
  8
layer_7
 10
-7152.145
 20
-8171.259
  0
VERTEX
100
AcDbVertex
100
AcDb2dVertex
  8
layer_7
 10
-7066.43
 20
-8085.545
  0
VERTEX
100
AcDbVertex
100
AcDb2dVertex
  8
layer_7
 10
-7152.145
 20
-7999.831
  0
VERTEX
100
AcDbVertex
100
AcDb2dVertex
  8
layer_7
 10
-7066.43
 20
-7914.116
  0
VERTEX
100
AcDbVertex
100
AcDb2dVertex
  8
layer_7
 10
-7152.145
 20
-7828.402
  0
VERTEX
100
AcDbVertex
100
AcDb2dVertex
  8
layer_7
 10
-7066.43
 20
-7742.688
  0
VERTEX
100
AcDbVertex
100
AcDb2dVertex
  8
layer_7
 10
-7152.145
 20
-7656.973
  0
VERTEX
100
AcDbVertex
100
AcDb2dVertex
  8
layer_7
 10
-7066.43
 20
-7571.259
  0
VERTEX
100
AcDbVertex
100
AcDb2dVertex
  8
layer_7
 10
-7152.145
 20
-7485.545
  0
VERTEX
100
AcDbVertex
100
AcDb2dVertex
  8
layer_7
 10
-7066.43
 20
-7399.831
  0
VERTEX
100
AcDbVertex
100
AcDb2dVertex
  8
layer_7
 10
-7152.145
 20
-7314.116
  0
VERTEX
100
AcDbVertex
100
AcDb2dVertex
  8
layer_7
 10
-7066.43
 20
-7228.402
  0
VERTEX
100
AcDbVertex
100
AcDb2dVertex
  8
layer_7
 10
-7152.145
 20
-7142.688
  0
VERTEX
100
AcDbVertex
100
AcDb2dVertex
  8
layer_7
 10
-7066.43
 20
-7056.974
  0
VERTEX
100
AcDbVertex
100
AcDb2dVertex
  8
layer_7
 10
-7152.145
 20
-6971.259
  0
VERTEX
100
AcDbVertex
100
AcDb2dVertex
  8
layer_7
 10
-7066.43
 20
-6885.545
  0
VERTEX
100
AcDbVertex
100
AcDb2dVertex
  8
layer_7
 10
-7152.145
 20
-6799.831
  0
VERTEX
100
AcDbVertex
100
AcDb2dVertex
  8
layer_7
 10
-7066.43
 20
-6714.116
  0
VERTEX
100
AcDbVertex
100
AcDb2dVertex
  8
layer_7
 10
-7152.145
 20
-6628.402
  0
VERTEX
100
AcDbVertex
100
AcDb2dVertex
  8
layer_7
 10
-7066.43
 20
-6542.688
  0
VERTEX
100
AcDbVertex
100
AcDb2dVertex
  8
layer_7
 10
-7152.145
 20
-6456.974
  0
VERTEX
100
AcDbVertex
100
AcDb2dVertex
  8
layer_7
 10
-7066.43
 20
-6371.259
  0
VERTEX
100
AcDbVertex
100
AcDb2dVertex
  8
layer_7
 10
-7152.145
 20
-6285.545
  0
VERTEX
100
AcDbVertex
100
AcDb2dVertex
  8
layer_7
 10
-7066.43
 20
-6199.831
  0
VERTEX
100
AcDbVertex
100
AcDb2dVertex
  8
layer_7
 10
-7152.145
 20
-6114.116
  0
VERTEX
100
AcDbVertex
100
AcDb2dVertex
  8
layer_7
 10
-7066.43
 20
-6028.402
  0
VERTEX
100
AcDbVertex
100
AcDb2dVertex
  8
layer_7
 10
-7152.145
 20
-5942.688
  0
VERTEX
100
AcDbVertex
100
AcDb2dVertex
  8
layer_7
 10
-7066.43
 20
-5856.974
  0
VERTEX
100
AcDbVertex
100
AcDb2dVertex
  8
layer_7
 10
-7152.145
 20
-5771.259
  0
VERTEX
100
AcDbVertex
100
AcDb2dVertex
  8
layer_7
 10
-7066.43
 20
-5685.545
  0
VERTEX
100
AcDbVertex
100
AcDb2dVertex
  8
layer_7
 10
-7152.145
 20
-5599.831
  0
VERTEX
100
AcDbVertex
100
AcDb2dVertex
  8
layer_7
 10
-7066.43
 20
-5514.117
  0
VERTEX
100
AcDbVertex
100
AcDb2dVertex
  8
layer_7
 10
-7152.145
 20
-5428.402
  0
VERTEX
100
AcDbVertex
100
AcDb2dVertex
  8
layer_7
 10
-7066.43
 20
-5342.688
  0
VERTEX
100
AcDbVertex
100
AcDb2dVertex
  8
layer_7
 10
-7152.145
 20
-5256.974
  0
VERTEX
100
AcDbVertex
100
AcDb2dVertex
  8
layer_7
 10
-7066.43
 20
-5171.259
  0
VERTEX
100
AcDbVertex
100
AcDb2dVertex
  8
layer_7
 10
-7152.145
 20
-5085.545
  0
VERTEX
100
AcDbVertex
100
AcDb2dVertex
  8
layer_7
 10
-7066.43
 20
-4999.831
  0
VERTEX
100
AcDbVertex
100
AcDb2dVertex
  8
layer_7
 10
-7152.145
 20
-4914.117
  0
VERTEX
100
AcDbVertex
100
AcDb2dVertex
  8
layer_7
 10
-7066.43
 20
-4828.402
  0
VERTEX
100
AcDbVertex
100
AcDb2dVertex
  8
layer_7
 10
-7152.145
 20
-4742.688
  0
VERTEX
100
AcDbVertex
100
AcDb2dVertex
  8
layer_7
 10
-7066.43
 20
-4656.974
  0
VERTEX
100
AcDbVertex
100
AcDb2dVertex
  8
layer_7
 10
-7152.145
 20
-4571.259
  0
VERTEX
100
AcDbVertex
100
AcDb2dVertex
  8
layer_7
 10
-7066.43
 20
-4485.545
  0
VERTEX
100
AcDbVertex
100
AcDb2dVertex
  8
layer_7
 10
-7152.145
 20
-4399.831
  0
VERTEX
100
AcDbVertex
100
AcDb2dVertex
  8
layer_7
 10
-7066.43
 20
-4314.117
  0
VERTEX
100
AcDbVertex
100
AcDb2dVertex
  8
layer_7
 10
-7152.145
 20
-4228.402
  0
VERTEX
100
AcDbVertex
100
AcDb2dVertex
  8
layer_7
 10
-7066.43
 20
-4142.688
  0
VERTEX
100
AcDbVertex
100
AcDb2dVertex
  8
layer_7
 10
-7152.145
 20
-4056.974
  0
VERTEX
100
AcDbVertex
100
AcDb2dVertex
  8
layer_7
 10
-7066.43
 20
-3971.26
  0
VERTEX
100
AcDbVertex
100
AcDb2dVertex
  8
layer_7
 10
-7152.145
 20
-3885.545
  0
VERTEX
100
AcDbVertex
100
AcDb2dVertex
  8
layer_7
 10
-7066.43
 20
-3799.831
  0
VERTEX
100
AcDbVertex
100
AcDb2dVertex
  8
layer_7
 10
-7152.145
 20
-3714.117
  0
VERTEX
100
AcDbVertex
100
AcDb2dVertex
  8
layer_7
 10
-7066.43
 20
-3628.402
  0
VERTEX
100
AcDbVertex
100
AcDb2dVertex
  8
layer_7
 10
-7152.145
 20
-3542.688
  0
VERTEX
100
AcDbVertex
100
AcDb2dVertex
  8
layer_7
 10
-7066.43
 20
-3456.974
  0
VERTEX
100
AcDbVertex
100
AcDb2dVertex
  8
layer_7
 10
-7152.145
 20
-3371.26
  0
VERTEX
100
AcDbVertex
100
AcDb2dVertex
  8
layer_7
 10
-7066.43
 20
-3285.545
  0
VERTEX
100
AcDbVertex
100
AcDb2dVertex
  8
layer_7
 10
-7152.145
 20
-3199.831
  0
VERTEX
100
AcDbVertex
100
AcDb2dVertex
  8
layer_7
 10
-7066.43
 20
-3114.117
  0
VERTEX
100
AcDbVertex
100
AcDb2dVertex
  8
layer_7
 10
-7152.145
 20
-3028.403
  0
VERTEX
100
AcDbVertex
100
AcDb2dVertex
  8
layer_7
 10
-7066.43
 20
-2942.688
  0
VERTEX
100
AcDbVertex
100
AcDb2dVertex
  8
layer_7
 10
-7152.145
 20
-2856.974
  0
VERTEX
100
AcDbVertex
100
AcDb2dVertex
  8
layer_7
 10
-7066.43
 20
-2771.26
  0
VERTEX
100
AcDbVertex
100
AcDb2dVertex
  8
layer_7
 10
-7152.145
 20
-2685.545
  0
VERTEX
100
AcDbVertex
100
AcDb2dVertex
  8
layer_7
 10
-7066.43
 20
-2599.831
  0
VERTEX
100
AcDbVertex
100
AcDb2dVertex
  8
layer_7
 10
-7152.145
 20
-2514.117
  0
VERTEX
100
AcDbVertex
100
AcDb2dVertex
  8
layer_7
 10
-7066.43
 20
-2428.403
  0
VERTEX
100
AcDbVertex
100
AcDb2dVertex
  8
layer_7
 10
-7152.145
 20
-2342.688
  0
VERTEX
100
AcDbVertex
100
AcDb2dVertex
  8
layer_7
 10
-6645.999
 20
-1530
  0
VERTEX
100
AcDbVertex
100
AcDb2dVertex
  8
layer_7
 10
-6645.999
 20
-530
  0
VERTEX
100
AcDbVertex
100
AcDb2dVertex
  8
layer_7
 10
-5645.999
 20
-530
  0
VERTEX
100
AcDbVertex
100
AcDb2dVertex
  8
layer_7
 10
-4833.311
 20
-78.572
  0
VERTEX
100
AcDbVertex
100
AcDb2dVertex
  8
layer_7
 10
-4747.597
 20
7.143
  0
VERTEX
100
AcDbVertex
100
AcDb2dVertex
  8
layer_7
 10
-4661.883
 20
-78.572
  0
VERTEX
100
AcDbVertex
100
AcDb2dVertex
  8
layer_7
 10
-4576.168
 20
7.143
  0
VERTEX
100
AcDbVertex
100
AcDb2dVertex
  8
layer_7
 10
-4490.454
 20
-78.572
  0
VERTEX
100
AcDbVertex
100
AcDb2dVertex
  8
layer_7
 10
-4404.74
 20
7.143
  0
VERTEX
100
AcDbVertex
100
AcDb2dVertex
  8
layer_7
 10
-4319.026
 20
-78.572
  0
VERTEX
100
AcDbVertex
100
AcDb2dVertex
  8
layer_7
 10
-4233.311
 20
7.143
  0
VERTEX
100
AcDbVertex
100
AcDb2dVertex
  8
layer_7
 10
-4147.597
 20
-78.572
  0
VERTEX
100
AcDbVertex
100
AcDb2dVertex
  8
layer_7
 10
-4061.883
 20
7.143
  0
VERTEX
100
AcDbVertex
100
AcDb2dVertex
  8
layer_7
 10
-3976.168
 20
-78.572
  0
VERTEX
100
AcDbVertex
100
AcDb2dVertex
  8
layer_7
 10
-3890.454
 20
7.143
  0
VERTEX
100
AcDbVertex
100
AcDb2dVertex
  8
layer_7
 10
-3804.74
 20
-78.572
  0
VERTEX
100
AcDbVertex
100
AcDb2dVertex
  8
layer_7
 10
-3719.026
 20
7.143
  0
VERTEX
100
AcDbVertex
100
AcDb2dVertex
  8
layer_7
 10
-3633.311
 20
-78.572
  0
VERTEX
100
AcDbVertex
100
AcDb2dVertex
  8
layer_7
 10
-3547.597
 20
7.143
  0
VERTEX
100
AcDbVertex
100
AcDb2dVertex
  8
layer_7
 10
-3461.883
 20
-78.572
  0
VERTEX
100
AcDbVertex
100
AcDb2dVertex
  8
layer_7
 10
-3376.168
 20
7.143
  0
VERTEX
100
AcDbVertex
100
AcDb2dVertex
  8
layer_7
 10
-3290.454
 20
-78.572
  0
VERTEX
100
AcDbVertex
100
AcDb2dVertex
  8
layer_7
 10
-3204.74
 20
7.143
  0
VERTEX
100
AcDbVertex
100
AcDb2dVertex
  8
layer_7
 10
-3119.026
 20
-78.572
  0
VERTEX
100
AcDbVertex
100
AcDb2dVertex
  8
layer_7
 10
-3033.311
 20
7.143
  0
VERTEX
100
AcDbVertex
100
AcDb2dVertex
  8
layer_7
 10
-2947.597
 20
-78.572
  0
VERTEX
100
AcDbVertex
100
AcDb2dVertex
  8
layer_7
 10
-2861.883
 20
7.143
  0
VERTEX
100
AcDbVertex
100
AcDb2dVertex
  8
layer_7
 10
-2776.169
 20
-78.572
  0
VERTEX
100
AcDbVertex
100
AcDb2dVertex
  8
layer_7
 10
-2690.454
 20
7.143
  0
VERTEX
100
AcDbVertex
100
AcDb2dVertex
  8
layer_7
 10
-2604.74
 20
-78.572
  0
VERTEX
100
AcDbVertex
100
AcDb2dVertex
  8
layer_7
 10
-2519.026
 20
7.143
  0
VERTEX
100
AcDbVertex
100
AcDb2dVertex
  8
layer_7
 10
-2433.311
 20
-78.572
  0
VERTEX
100
AcDbVertex
100
AcDb2dVertex
  8
layer_7
 10
-2347.597
 20
7.143
  0
VERTEX
100
AcDbVertex
100
AcDb2dVertex
  8
layer_7
 10
-2261.883
 20
-78.572
  0
VERTEX
100
AcDbVertex
100
AcDb2dVertex
  8
layer_7
 10
-2176.169
 20
7.143
  0
VERTEX
100
AcDbVertex
100
AcDb2dVertex
  8
layer_7
 10
-2090.454
 20
-78.572
  0
VERTEX
100
AcDbVertex
100
AcDb2dVertex
  8
layer_7
 10
-2004.74
 20
7.143
  0
VERTEX
100
AcDbVertex
100
AcDb2dVertex
  8
layer_7
 10
-1919.026
 20
-78.572
  0
VERTEX
100
AcDbVertex
100
AcDb2dVertex
  8
layer_7
 10
-1833.312
 20
7.143
  0
VERTEX
100
AcDbVertex
100
AcDb2dVertex
  8
layer_7
 10
-1747.597
 20
-78.572
  0
VERTEX
100
AcDbVertex
100
AcDb2dVertex
  8
layer_7
 10
-1661.883
 20
7.143
  0
VERTEX
100
AcDbVertex
100
AcDb2dVertex
  8
layer_7
 10
-1576.169
 20
-78.572
  0
VERTEX
100
AcDbVertex
100
AcDb2dVertex
  8
layer_7
 10
-1490.454
 20
7.143
  0
VERTEX
100
AcDbVertex
100
AcDb2dVertex
  8
layer_7
 10
-1404.74
 20
-78.572
  0
VERTEX
100
AcDbVertex
100
AcDb2dVertex
  8
layer_7
 10
-1319.026
 20
7.143
  0
VERTEX
100
AcDbVertex
100
AcDb2dVertex
  8
layer_7
 10
-1233.312
 20
-78.572
  0
VERTEX
100
AcDbVertex
100
AcDb2dVertex
  8
layer_7
 10
-1147.597
 20
7.143
  0
VERTEX
100
AcDbVertex
100
AcDb2dVertex
  8
layer_7
 10
-1061.883
 20
-78.572
  0
VERTEX
100
AcDbVertex
100
AcDb2dVertex
  8
layer_7
 10
-976.169
 20
7.143
  0
VERTEX
100
AcDbVertex
100
AcDb2dVertex
  8
layer_7
 10
-890.454
 20
-78.572
  0
VERTEX
100
AcDbVertex
100
AcDb2dVertex
  8
layer_7
 10
-804.74
 20
7.143
  0
VERTEX
100
AcDbVertex
100
AcDb2dVertex
  8
layer_7
 10
-719.026
 20
-78.572
  0
VERTEX
100
AcDbVertex
100
AcDb2dVertex
  8
layer_7
 10
-633.312
 20
7.143
  0
VERTEX
100
AcDbVertex
100
AcDb2dVertex
  8
layer_7
 10
-547.597
 20
-78.572
  0
VERTEX
100
AcDbVertex
100
AcDb2dVertex
  8
layer_7
 10
-461.883
 20
7.143
  0
VERTEX
100
AcDbVertex
100
AcDb2dVertex
  8
layer_7
 10
-376.169
 20
-78.572
  0
VERTEX
100
AcDbVertex
100
AcDb2dVertex
  8
layer_7
 10
-290.455
 20
7.143
  0
VERTEX
100
AcDbVertex
100
AcDb2dVertex
  8
layer_7
 10
-204.74
 20
-78.572
  0
VERTEX
100
AcDbVertex
100
AcDb2dVertex
  8
layer_7
 10
-119.026
 20
7.143
  0
VERTEX
100
AcDbVertex
100
AcDb2dVertex
  8
layer_7
 10
-33.312
 20
-78.572
  0
VERTEX
100
AcDbVertex
100
AcDb2dVertex
  8
layer_7
 10
52.403
 20
7.143
  0
VERTEX
100
AcDbVertex
100
AcDb2dVertex
  8
layer_7
 10
138.117
 20
-78.572
  0
VERTEX
100
AcDbVertex
100
AcDb2dVertex
  8
layer_7
 10
223.831
 20
7.143
  0
VERTEX
100
AcDbVertex
100
AcDb2dVertex
  8
layer_7
 10
309.545
 20
-78.572
  0
VERTEX
100
AcDbVertex
100
AcDb2dVertex
  8
layer_7
 10
395.26
 20
7.143
  0
VERTEX
100
AcDbVertex
100
AcDb2dVertex
  8
layer_7
 10
480.974
 20
-78.572
  0
VERTEX
100
AcDbVertex
100
AcDb2dVertex
  8
layer_7
 10
566.688
 20
7.143
  0
VERTEX
100
AcDbVertex
100
AcDb2dVertex
  8
layer_7
 10
652.403
 20
-78.572
  0
VERTEX
100
AcDbVertex
100
AcDb2dVertex
  8
layer_7
 10
738.117
 20
7.143
  0
VERTEX
100
AcDbVertex
100
AcDb2dVertex
  8
layer_7
 10
823.831
 20
-78.572
  0
VERTEX
100
AcDbVertex
100
AcDb2dVertex
  8
layer_7
 10
909.545
 20
7.143
  0
VERTEX
100
AcDbVertex
100
AcDb2dVertex
  8
layer_7
 10
995.26
 20
-78.572
  0
VERTEX
100
AcDbVertex
100
AcDb2dVertex
  8
layer_7
 10
1080.974
 20
7.143
  0
VERTEX
100
AcDbVertex
100
AcDb2dVertex
  8
layer_7
 10
1166.688
 20
-78.572
  0
VERTEX
100
AcDbVertex
100
AcDb2dVertex
  8
layer_7
 10
1252.402
 20
7.143
  0
VERTEX
100
AcDbVertex
100
AcDb2dVertex
  8
layer_7
 10
1338.117
 20
-78.572
  0
VERTEX
100
AcDbVertex
100
AcDb2dVertex
  8
layer_7
 10
1423.831
 20
7.143
  0
VERTEX
100
AcDbVertex
100
AcDb2dVertex
  8
layer_7
 10
1509.545
 20
-78.572
  0
VERTEX
100
AcDbVertex
100
AcDb2dVertex
  8
layer_7
 10
1595.26
 20
7.143
  0
VERTEX
100
AcDbVertex
100
AcDb2dVertex
  8
layer_7
 10
1680.974
 20
-78.572
  0
VERTEX
100
AcDbVertex
100
AcDb2dVertex
  8
layer_7
 10
1766.688
 20
7.143
  0
VERTEX
100
AcDbVertex
100
AcDb2dVertex
  8
layer_7
 10
1852.402
 20
-78.572
  0
VERTEX
100
AcDbVertex
100
AcDb2dVertex
  8
layer_7
 10
1938.117
 20
7.143
  0
VERTEX
100
AcDbVertex
100
AcDb2dVertex
  8
layer_7
 10
2023.831
 20
-78.572
  0
VERTEX
100
AcDbVertex
100
AcDb2dVertex
  8
layer_7
 10
2109.545
 20
7.143
  0
VERTEX
100
AcDbVertex
100
AcDb2dVertex
  8
layer_7
 10
2195.26
 20
-78.572
  0
VERTEX
100
AcDbVertex
100
AcDb2dVertex
  8
layer_7
 10
2280.974
 20
7.143
  0
VERTEX
100
AcDbVertex
100
AcDb2dVertex
  8
layer_7
 10
2366.688
 20
-78.572
  0
VERTEX
100
AcDbVertex
100
AcDb2dVertex
  8
layer_7
 10
2452.402
 20
7.143
  0
VERTEX
100
AcDbVertex
100
AcDb2dVertex
  8
layer_7
 10
2538.117
 20
-78.572
  0
VERTEX
100
AcDbVertex
100
AcDb2dVertex
  8
layer_7
 10
2623.831
 20
7.143
  0
VERTEX
100
AcDbVertex
100
AcDb2dVertex
  8
layer_7
 10
2709.545
 20
-78.572
  0
VERTEX
100
AcDbVertex
100
AcDb2dVertex
  8
layer_7
 10
2795.259
 20
7.143
  0
VERTEX
100
AcDbVertex
100
AcDb2dVertex
  8
layer_7
 10
2880.974
 20
-78.572
  0
VERTEX
100
AcDbVertex
100
AcDb2dVertex
  8
layer_7
 10
2966.688
 20
7.143
  0
VERTEX
100
AcDbVertex
100
AcDb2dVertex
  8
layer_7
 10
3052.402
 20
-78.572
  0
VERTEX
100
AcDbVertex
100
AcDb2dVertex
  8
layer_7
 10
3138.117
 20
7.143
  0
VERTEX
100
AcDbVertex
100
AcDb2dVertex
  8
layer_7
 10
3223.831
 20
-78.572
  0
VERTEX
100
AcDbVertex
100
AcDb2dVertex
  8
layer_7
 10
3309.545
 20
7.143
  0
VERTEX
100
AcDbVertex
100
AcDb2dVertex
  8
layer_7
 10
3395.259
 20
-78.572
  0
VERTEX
100
AcDbVertex
100
AcDb2dVertex
  8
layer_7
 10
3480.974
 20
7.143
  0
VERTEX
100
AcDbVertex
100
AcDb2dVertex
  8
layer_7
 10
3566.688
 20
-78.572
  0
VERTEX
100
AcDbVertex
100
AcDb2dVertex
  8
layer_7
 10
3652.402
 20
7.143
  0
VERTEX
100
AcDbVertex
100
AcDb2dVertex
  8
layer_7
 10
3738.117
 20
-78.572
  0
VERTEX
100
AcDbVertex
100
AcDb2dVertex
  8
layer_7
 10
3823.831
 20
7.143
  0
VERTEX
100
AcDbVertex
100
AcDb2dVertex
  8
layer_7
 10
3909.545
 20
-78.572
  0
VERTEX
100
AcDbVertex
100
AcDb2dVertex
  8
layer_7
 10
3995.259
 20
7.143
  0
VERTEX
100
AcDbVertex
100
AcDb2dVertex
  8
layer_7
 10
4080.974
 20
-78.572
  0
VERTEX
100
AcDbVertex
100
AcDb2dVertex
  8
layer_7
 10
4166.688
 20
7.143
  0
VERTEX
100
AcDbVertex
100
AcDb2dVertex
  8
layer_7
 10
4252.402
 20
-78.572
  0
VERTEX
100
AcDbVertex
100
AcDb2dVertex
  8
layer_7
 10
4462.402
 20
-106.856
  0
VERTEX
100
AcDbVertex
100
AcDb2dVertex
  8
layer_7
 10
14962.402
 20
-14155.575
  0
VERTEX
100
AcDbVertex
100
AcDb2dVertex
  8
layer_7
 10
25462.402
 20
-106.856
  0
VERTEX
100
AcDbVertex
100
AcDb2dVertex
  8
layer_7
 10
25672.402
 20
-106.856
  0
VERTEX
100
AcDbVertex
100
AcDb2dVertex
  8
layer_7
 10
28485.735
 20
-163.253
  0
VERTEX
100
AcDbVertex
100
AcDb2dVertex
  8
layer_7
 10
29117.573
 20
-534.061
  0
VERTEX
100
AcDbVertex
100
AcDb2dVertex
  8
layer_7
 10
31221.874
 20
-534.061
  0
VERTEX
100
AcDbVertex
100
AcDb2dVertex
  8
layer_7
 10
31267.828
 20
-586.587
  0
VERTEX
100
AcDbVertex
100
AcDb2dVertex
  8
layer_7
 10
31318.186
 20
-634.908
  0
VERTEX
100
AcDbVertex
100
AcDb2dVertex
  8
layer_7
 10
31372.563
 20
-678.656
  0
VERTEX
100
AcDbVertex
100
AcDb2dVertex
  8
layer_7
 10
31430.546
 20
-717.499
  0
VERTEX
100
AcDbVertex
100
AcDb2dVertex
  8
layer_7
 10
31491.694
 20
-751.14
  0
VERTEX
100
AcDbVertex
100
AcDb2dVertex
  8
layer_7
 10
31555.541
 20
-779.324
  0
VERTEX
100
AcDbVertex
100
AcDb2dVertex
  8
layer_7
 10
31621.602
 20
-801.835
  0
VERTEX
100
AcDbVertex
100
AcDb2dVertex
  8
layer_7
 10
31689.373
 20
-818.504
  0
VERTEX
100
AcDbVertex
100
AcDb2dVertex
  8
layer_7
 10
31758.339
 20
-829.202
  0
VERTEX
100
AcDbVertex
100
AcDb2dVertex
  8
layer_7
 10
31827.975
 20
-833.849
  0
VERTEX
100
AcDbVertex
100
AcDb2dVertex
  8
layer_7
 10
31897.752
 20
-832.409
  0
VERTEX
100
AcDbVertex
100
AcDb2dVertex
  8
layer_7
 10
31967.137
 20
-824.894
  0
VERTEX
100
AcDbVertex
100
AcDb2dVertex
  8
layer_7
 10
32035.603
 20
-811.359
  0
VERTEX
100
AcDbVertex
100
AcDb2dVertex
  8
layer_7
 10
32102.629
 20
-791.909
  0
VERTEX
100
AcDbVertex
100
AcDb2dVertex
  8
layer_7
 10
32111.326
 20
-788.912
  0
VERTEX
100
AcDbVertex
100
AcDb2dVertex
  8
layer_7
 10
32176.107
 20
-762.947
  0
VERTEX
100
AcDbVertex
100
AcDb2dVertex
  8
layer_7
 10
32238.379
 20
-731.435
  0
VERTEX
100
AcDbVertex
100
AcDb2dVertex
  8
layer_7
 10
32297.668
 20
-694.616
  0
VERTEX
100
AcDbVertex
100
AcDb2dVertex
  8
layer_7
 10
32353.522
 20
-652.769
  0
VERTEX
100
AcDbVertex
100
AcDb2dVertex
  8
layer_7
 10
32405.516
 20
-606.214
  0
VERTEX
100
AcDbVertex
100
AcDb2dVertex
  8
layer_7
 10
32453.255
 20
-555.304
  0
VERTEX
100
AcDbVertex
100
AcDb2dVertex
  8
layer_7
 10
32496.375
 20
-500.427
  0
VERTEX
100
AcDbVertex
100
AcDb2dVertex
  8
layer_7
 10
32534.548
 20
-442.001
  0
VERTEX
100
AcDbVertex
100
AcDb2dVertex
  8
layer_7
 10
32567.483
 20
-380.471
  0
VERTEX
100
AcDbVertex
100
AcDb2dVertex
  8
layer_7
 10
32594.931
 20
-316.303
  0
VERTEX
100
AcDbVertex
100
AcDb2dVertex
  8
layer_7
 10
32616.682
 20
-249.988
  0
VERTEX
100
AcDbVertex
100
AcDb2dVertex
  8
layer_7
 10
32632.57
 20
-182.03
  0
VERTEX
100
AcDbVertex
100
AcDb2dVertex
  8
layer_7
 10
32642.474
 20
-112.945
  0
VERTEX
100
AcDbVertex
100
AcDb2dVertex
  8
layer_7
 10
32646.32
 20
-43.26
  0
VERTEX
100
AcDbVertex
100
AcDb2dVertex
  8
layer_7
 10
32646.373
 20
-34.061
  0
VERTEX
100
AcDbVertex
100
AcDb2dVertex
  8
layer_7
 10
32643.329
 20
35.664
  0
VERTEX
100
AcDbVertex
100
AcDb2dVertex
  8
layer_7
 10
32634.219
 20
104.858
  0
VERTEX
100
AcDbVertex
100
AcDb2dVertex
  8
layer_7
 10
32619.114
 20
172.994
  0
VERTEX
100
AcDbVertex
100
AcDb2dVertex
  8
layer_7
 10
32598.127
 20
239.555
  0
VERTEX
100
AcDbVertex
100
AcDb2dVertex
  8
layer_7
 10
32571.419
 20
304.034
  0
VERTEX
100
AcDbVertex
100
AcDb2dVertex
  8
layer_7
 10
32539.193
 20
365.939
  0
VERTEX
100
AcDbVertex
100
AcDb2dVertex
  8
layer_7
 10
32501.695
 20
424.8
  0
VERTEX
100
AcDbVertex
100
AcDb2dVertex
  8
layer_7
 10
32459.209
 20
480.169
  0
VERTEX
100
AcDbVertex
100
AcDb2dVertex
  8
layer_7
 10
32412.058
 20
531.624
  0
VERTEX
100
AcDbVertex
100
AcDb2dVertex
  8
layer_7
 10
32360.603
 20
578.775
  0
VERTEX
100
AcDbVertex
100
AcDb2dVertex
  8
layer_7
 10
32305.234
 20
621.261
  0
VERTEX
100
AcDbVertex
100
AcDb2dVertex
  8
layer_7
 10
32246.373
 20
658.759
  0
VERTEX
100
AcDbVertex
100
AcDb2dVertex
  8
layer_7
 10
32184.468
 20
690.985
  0
VERTEX
100
AcDbVertex
100
AcDb2dVertex
  8
layer_7
 10
32119.989
 20
717.693
  0
VERTEX
100
AcDbVertex
100
AcDb2dVertex
  8
layer_7
 10
32111.326
 20
720.79
  0
VERTEX
100
AcDbVertex
100
AcDb2dVertex
  8
layer_7
 10
32044.528
 20
741.01
  0
VERTEX
100
AcDbVertex
100
AcDb2dVertex
  8
layer_7
 10
31976.222
 20
755.331
  0
VERTEX
100
AcDbVertex
100
AcDb2dVertex
  8
layer_7
 10
31906.928
 20
763.644
  0
VERTEX
100
AcDbVertex
100
AcDb2dVertex
  8
layer_7
 10
31837.174
 20
765.886
  0
VERTEX
100
AcDbVertex
100
AcDb2dVertex
  8
layer_7
 10
31767.489
 20
762.04
  0
VERTEX
100
AcDbVertex
100
AcDb2dVertex
  8
layer_7
 10
31698.404
 20
752.136
  0
VERTEX
100
AcDbVertex
100
AcDb2dVertex
  8
layer_7
 10
31630.446
 20
736.247
  0
VERTEX
100
AcDbVertex
100
AcDb2dVertex
  8
layer_7
 10
31564.131
 20
714.497
  0
VERTEX
100
AcDbVertex
100
AcDb2dVertex
  8
layer_7
 10
31499.964
 20
687.049
  0
VERTEX
100
AcDbVertex
100
AcDb2dVertex
  8
layer_7
 10
31438.433
 20
654.114
  0
VERTEX
100
AcDbVertex
100
AcDb2dVertex
  8
layer_7
 10
31380.007
 20
615.941
  0
VERTEX
100
AcDbVertex
100
AcDb2dVertex
  8
layer_7
 10
31325.13
 20
572.821
  0
VERTEX
100
AcDbVertex
100
AcDb2dVertex
  8
layer_7
 10
31274.221
 20
525.082
  0
VERTEX
100
AcDbVertex
100
AcDb2dVertex
  8
layer_7
 10
31227.665
 20
473.088
  0
VERTEX
100
AcDbVertex
100
AcDb2dVertex
  8
layer_7
 10
31221.874
 20
465.939
  0
VERTEX
100
AcDbVertex
100
AcDb2dVertex
  8
layer_7
 10
29117.573
 20
465.939
  0
VERTEX
100
AcDbVertex
100
AcDb2dVertex
  8
layer_7
 10
28485.735
 20
48.468
  0
VERTEX
100
AcDbVertex
100
AcDb2dVertex
  8
layer_7
 10
25672.402
 20
-7.861
  0
VERTEX
100
AcDbVertex
100
AcDb2dVertex
  8
layer_7
 10
25462.402
 20
-7.861
  0
VERTEX
100
AcDbVertex
100
AcDb2dVertex
  8
layer_7
 10
14962.402
 20
9873.162
  0
VERTEX
100
AcDbVertex
100
AcDb2dVertex
  8
layer_7
 10
4462.402
 20
-7.861
  0
VERTEX
100
AcDbVertex
100
AcDb2dVertex
  8
layer_7
 10
4252.402
 20
-36.145
  0
VERTEX
100
AcDbVertex
100
AcDb2dVertex
  8
layer_7
 10
4166.688
 20
49.569
  0
VERTEX
100
AcDbVertex
100
AcDb2dVertex
  8
layer_7
 10
4080.974
 20
-36.145
  0
VERTEX
100
AcDbVertex
100
AcDb2dVertex
  8
layer_7
 10
3995.259
 20
49.569
  0
VERTEX
100
AcDbVertex
100
AcDb2dVertex
  8
layer_7
 10
3909.545
 20
-36.145
  0
VERTEX
100
AcDbVertex
100
AcDb2dVertex
  8
layer_7
 10
3823.831
 20
49.569
  0
VERTEX
100
AcDbVertex
100
AcDb2dVertex
  8
layer_7
 10
3738.117
 20
-36.145
  0
VERTEX
100
AcDbVertex
100
AcDb2dVertex
  8
layer_7
 10
3652.402
 20
49.569
  0
VERTEX
100
AcDbVertex
100
AcDb2dVertex
  8
layer_7
 10
3566.688
 20
-36.145
  0
VERTEX
100
AcDbVertex
100
AcDb2dVertex
  8
layer_7
 10
3480.974
 20
49.569
  0
VERTEX
100
AcDbVertex
100
AcDb2dVertex
  8
layer_7
 10
3395.259
 20
-36.145
  0
VERTEX
100
AcDbVertex
100
AcDb2dVertex
  8
layer_7
 10
3309.545
 20
49.569
  0
VERTEX
100
AcDbVertex
100
AcDb2dVertex
  8
layer_7
 10
3223.831
 20
-36.145
  0
VERTEX
100
AcDbVertex
100
AcDb2dVertex
  8
layer_7
 10
3138.117
 20
49.569
  0
VERTEX
100
AcDbVertex
100
AcDb2dVertex
  8
layer_7
 10
3052.402
 20
-36.145
  0
VERTEX
100
AcDbVertex
100
AcDb2dVertex
  8
layer_7
 10
2966.688
 20
49.569
  0
VERTEX
100
AcDbVertex
100
AcDb2dVertex
  8
layer_7
 10
2880.974
 20
-36.145
  0
VERTEX
100
AcDbVertex
100
AcDb2dVertex
  8
layer_7
 10
2795.259
 20
49.569
  0
VERTEX
100
AcDbVertex
100
AcDb2dVertex
  8
layer_7
 10
2709.545
 20
-36.145
  0
VERTEX
100
AcDbVertex
100
AcDb2dVertex
  8
layer_7
 10
2623.831
 20
49.569
  0
VERTEX
100
AcDbVertex
100
AcDb2dVertex
  8
layer_7
 10
2538.117
 20
-36.145
  0
VERTEX
100
AcDbVertex
100
AcDb2dVertex
  8
layer_7
 10
2452.402
 20
49.569
  0
VERTEX
100
AcDbVertex
100
AcDb2dVertex
  8
layer_7
 10
2366.688
 20
-36.145
  0
VERTEX
100
AcDbVertex
100
AcDb2dVertex
  8
layer_7
 10
2280.974
 20
49.569
  0
VERTEX
100
AcDbVertex
100
AcDb2dVertex
  8
layer_7
 10
2195.26
 20
-36.145
  0
VERTEX
100
AcDbVertex
100
AcDb2dVertex
  8
layer_7
 10
2109.545
 20
49.569
  0
VERTEX
100
AcDbVertex
100
AcDb2dVertex
  8
layer_7
 10
2023.831
 20
-36.145
  0
VERTEX
100
AcDbVertex
100
AcDb2dVertex
  8
layer_7
 10
1938.117
 20
49.569
  0
VERTEX
100
AcDbVertex
100
AcDb2dVertex
  8
layer_7
 10
1852.402
 20
-36.145
  0
VERTEX
100
AcDbVertex
100
AcDb2dVertex
  8
layer_7
 10
1766.688
 20
49.569
  0
VERTEX
100
AcDbVertex
100
AcDb2dVertex
  8
layer_7
 10
1680.974
 20
-36.145
  0
VERTEX
100
AcDbVertex
100
AcDb2dVertex
  8
layer_7
 10
1595.26
 20
49.569
  0
VERTEX
100
AcDbVertex
100
AcDb2dVertex
  8
layer_7
 10
1509.545
 20
-36.145
  0
VERTEX
100
AcDbVertex
100
AcDb2dVertex
  8
layer_7
 10
1423.831
 20
49.569
  0
VERTEX
100
AcDbVertex
100
AcDb2dVertex
  8
layer_7
 10
1338.117
 20
-36.145
  0
VERTEX
100
AcDbVertex
100
AcDb2dVertex
  8
layer_7
 10
1252.402
 20
49.569
  0
VERTEX
100
AcDbVertex
100
AcDb2dVertex
  8
layer_7
 10
1166.688
 20
-36.145
  0
VERTEX
100
AcDbVertex
100
AcDb2dVertex
  8
layer_7
 10
1080.974
 20
49.569
  0
VERTEX
100
AcDbVertex
100
AcDb2dVertex
  8
layer_7
 10
995.26
 20
-36.145
  0
VERTEX
100
AcDbVertex
100
AcDb2dVertex
  8
layer_7
 10
909.545
 20
49.569
  0
VERTEX
100
AcDbVertex
100
AcDb2dVertex
  8
layer_7
 10
823.831
 20
-36.145
  0
VERTEX
100
AcDbVertex
100
AcDb2dVertex
  8
layer_7
 10
738.117
 20
49.569
  0
VERTEX
100
AcDbVertex
100
AcDb2dVertex
  8
layer_7
 10
652.403
 20
-36.145
  0
VERTEX
100
AcDbVertex
100
AcDb2dVertex
  8
layer_7
 10
566.688
 20
49.569
  0
VERTEX
100
AcDbVertex
100
AcDb2dVertex
  8
layer_7
 10
480.974
 20
-36.145
  0
VERTEX
100
AcDbVertex
100
AcDb2dVertex
  8
layer_7
 10
395.26
 20
49.569
  0
VERTEX
100
AcDbVertex
100
AcDb2dVertex
  8
layer_7
 10
309.545
 20
-36.145
  0
VERTEX
100
AcDbVertex
100
AcDb2dVertex
  8
layer_7
 10
223.831
 20
49.569
  0
VERTEX
100
AcDbVertex
100
AcDb2dVertex
  8
layer_7
 10
138.117
 20
-36.145
  0
VERTEX
100
AcDbVertex
100
AcDb2dVertex
  8
layer_7
 10
52.403
 20
49.569
  0
VERTEX
100
AcDbVertex
100
AcDb2dVertex
  8
layer_7
 10
-33.312
 20
-36.145
  0
VERTEX
100
AcDbVertex
100
AcDb2dVertex
  8
layer_7
 10
-119.026
 20
49.569
  0
VERTEX
100
AcDbVertex
100
AcDb2dVertex
  8
layer_7
 10
-204.74
 20
-36.145
  0
VERTEX
100
AcDbVertex
100
AcDb2dVertex
  8
layer_7
 10
-290.455
 20
49.569
  0
VERTEX
100
AcDbVertex
100
AcDb2dVertex
  8
layer_7
 10
-376.169
 20
-36.145
  0
VERTEX
100
AcDbVertex
100
AcDb2dVertex
  8
layer_7
 10
-461.883
 20
49.569
  0
VERTEX
100
AcDbVertex
100
AcDb2dVertex
  8
layer_7
 10
-547.597
 20
-36.145
  0
VERTEX
100
AcDbVertex
100
AcDb2dVertex
  8
layer_7
 10
-633.312
 20
49.569
  0
VERTEX
100
AcDbVertex
100
AcDb2dVertex
  8
layer_7
 10
-719.026
 20
-36.145
  0
VERTEX
100
AcDbVertex
100
AcDb2dVertex
  8
layer_7
 10
-804.74
 20
49.569
  0
VERTEX
100
AcDbVertex
100
AcDb2dVertex
  8
layer_7
 10
-890.454
 20
-36.145
  0
VERTEX
100
AcDbVertex
100
AcDb2dVertex
  8
layer_7
 10
-976.169
 20
49.569
  0
VERTEX
100
AcDbVertex
100
AcDb2dVertex
  8
layer_7
 10
-1061.883
 20
-36.145
  0
VERTEX
100
AcDbVertex
100
AcDb2dVertex
  8
layer_7
 10
-1147.597
 20
49.569
  0
VERTEX
100
AcDbVertex
100
AcDb2dVertex
  8
layer_7
 10
-1233.312
 20
-36.145
  0
VERTEX
100
AcDbVertex
100
AcDb2dVertex
  8
layer_7
 10
-1319.026
 20
49.569
  0
VERTEX
100
AcDbVertex
100
AcDb2dVertex
  8
layer_7
 10
-1404.74
 20
-36.145
  0
VERTEX
100
AcDbVertex
100
AcDb2dVertex
  8
layer_7
 10
-1490.454
 20
49.569
  0
VERTEX
100
AcDbVertex
100
AcDb2dVertex
  8
layer_7
 10
-1576.169
 20
-36.145
  0
VERTEX
100
AcDbVertex
100
AcDb2dVertex
  8
layer_7
 10
-1661.883
 20
49.569
  0
VERTEX
100
AcDbVertex
100
AcDb2dVertex
  8
layer_7
 10
-1747.597
 20
-36.145
  0
VERTEX
100
AcDbVertex
100
AcDb2dVertex
  8
layer_7
 10
-1833.312
 20
49.569
  0
VERTEX
100
AcDbVertex
100
AcDb2dVertex
  8
layer_7
 10
-1919.026
 20
-36.145
  0
VERTEX
100
AcDbVertex
100
AcDb2dVertex
  8
layer_7
 10
-2004.74
 20
49.569
  0
VERTEX
100
AcDbVertex
100
AcDb2dVertex
  8
layer_7
 10
-2090.454
 20
-36.145
  0
VERTEX
100
AcDbVertex
100
AcDb2dVertex
  8
layer_7
 10
-2176.169
 20
49.569
  0
VERTEX
100
AcDbVertex
100
AcDb2dVertex
  8
layer_7
 10
-2261.883
 20
-36.145
  0
VERTEX
100
AcDbVertex
100
AcDb2dVertex
  8
layer_7
 10
-2347.597
 20
49.569
  0
VERTEX
100
AcDbVertex
100
AcDb2dVertex
  8
layer_7
 10
-2433.311
 20
-36.145
  0
VERTEX
100
AcDbVertex
100
AcDb2dVertex
  8
layer_7
 10
-2519.026
 20
49.569
  0
VERTEX
100
AcDbVertex
100
AcDb2dVertex
  8
layer_7
 10
-2604.74
 20
-36.145
  0
VERTEX
100
AcDbVertex
100
AcDb2dVertex
  8
layer_7
 10
-2690.454
 20
49.569
  0
VERTEX
100
AcDbVertex
100
AcDb2dVertex
  8
layer_7
 10
-2776.169
 20
-36.145
  0
VERTEX
100
AcDbVertex
100
AcDb2dVertex
  8
layer_7
 10
-2861.883
 20
49.569
  0
VERTEX
100
AcDbVertex
100
AcDb2dVertex
  8
layer_7
 10
-2947.597
 20
-36.145
  0
VERTEX
100
AcDbVertex
100
AcDb2dVertex
  8
layer_7
 10
-3033.311
 20
49.569
  0
VERTEX
100
AcDbVertex
100
AcDb2dVertex
  8
layer_7
 10
-3119.026
 20
-36.145
  0
VERTEX
100
AcDbVertex
100
AcDb2dVertex
  8
layer_7
 10
-3204.74
 20
49.569
  0
VERTEX
100
AcDbVertex
100
AcDb2dVertex
  8
layer_7
 10
-3290.454
 20
-36.145
  0
VERTEX
100
AcDbVertex
100
AcDb2dVertex
  8
layer_7
 10
-3376.168
 20
49.569
  0
VERTEX
100
AcDbVertex
100
AcDb2dVertex
  8
layer_7
 10
-3461.883
 20
-36.145
  0
VERTEX
100
AcDbVertex
100
AcDb2dVertex
  8
layer_7
 10
-3547.597
 20
49.569
  0
VERTEX
100
AcDbVertex
100
AcDb2dVertex
  8
layer_7
 10
-3633.311
 20
-36.145
  0
VERTEX
100
AcDbVertex
100
AcDb2dVertex
  8
layer_7
 10
-3719.026
 20
49.569
  0
VERTEX
100
AcDbVertex
100
AcDb2dVertex
  8
layer_7
 10
-3804.74
 20
-36.145
  0
VERTEX
100
AcDbVertex
100
AcDb2dVertex
  8
layer_7
 10
-3890.454
 20
49.569
  0
VERTEX
100
AcDbVertex
100
AcDb2dVertex
  8
layer_7
 10
-3976.168
 20
-36.145
  0
VERTEX
100
AcDbVertex
100
AcDb2dVertex
  8
layer_7
 10
-4061.883
 20
49.569
  0
VERTEX
100
AcDbVertex
100
AcDb2dVertex
  8
layer_7
 10
-4147.597
 20
-36.145
  0
VERTEX
100
AcDbVertex
100
AcDb2dVertex
  8
layer_7
 10
-4233.311
 20
49.569
  0
VERTEX
100
AcDbVertex
100
AcDb2dVertex
  8
layer_7
 10
-4319.026
 20
-36.145
  0
VERTEX
100
AcDbVertex
100
AcDb2dVertex
  8
layer_7
 10
-4404.74
 20
49.569
  0
VERTEX
100
AcDbVertex
100
AcDb2dVertex
  8
layer_7
 10
-4490.454
 20
-36.145
  0
VERTEX
100
AcDbVertex
100
AcDb2dVertex
  8
layer_7
 10
-4576.168
 20
49.569
  0
VERTEX
100
AcDbVertex
100
AcDb2dVertex
  8
layer_7
 10
-4661.883
 20
-36.145
  0
VERTEX
100
AcDbVertex
100
AcDb2dVertex
  8
layer_7
 10
-4747.597
 20
49.569
  0
VERTEX
100
AcDbVertex
100
AcDb2dVertex
  8
layer_7
 10
-4833.311
 20
-36.145
  0
VERTEX
100
AcDbVertex
100
AcDb2dVertex
  8
layer_7
 10
-5645.999
 20
470
  0
VERTEX
100
AcDbVertex
100
AcDb2dVertex
  8
layer_7
 10
-6645.999
 20
470
  0
VERTEX
100
AcDbVertex
100
AcDb2dVertex
  8
layer_7
 10
-6645.999
 20
7470
  0
VERTEX
100
AcDbVertex
100
AcDb2dVertex
  8
layer_7
 10
-6593.473
 20
7515.954
  0
VERTEX
100
AcDbVertex
100
AcDb2dVertex
  8
layer_7
 10
-6545.152
 20
7566.312
  0
VERTEX
100
AcDbVertex
100
AcDb2dVertex
  8
layer_7
 10
-6501.404
 20
7620.689
  0
VERTEX
100
AcDbVertex
100
AcDb2dVertex
  8
layer_7
 10
-6462.561
 20
7678.672
  0
VERTEX
100
AcDbVertex
100
AcDb2dVertex
  8
layer_7
 10
-6428.92
 20
7739.82
  0
VERTEX
100
AcDbVertex
100
AcDb2dVertex
  8
layer_7
 10
-6400.737
 20
7803.668
  0
VERTEX
100
AcDbVertex
100
AcDb2dVertex
  8
layer_7
 10
-6378.225
 20
7869.728
  0
VERTEX
100
AcDbVertex
100
AcDb2dVertex
  8
layer_7
 10
-6361.557
 20
7937.5
  0
VERTEX
100
AcDbVertex
100
AcDb2dVertex
  8
layer_7
 10
-6350.858
 20
8006.466
  0
VERTEX
100
AcDbVertex
100
AcDb2dVertex
  8
layer_7
 10
-6346.211
 20
8076.102
  0
VERTEX
100
AcDbVertex
100
AcDb2dVertex
  8
layer_7
 10
-6347.651
 20
8145.878
  0
VERTEX
100
AcDbVertex
100
AcDb2dVertex
  8
layer_7
 10
-6355.167
 20
8215.263
  0
VERTEX
100
AcDbVertex
100
AcDb2dVertex
  8
layer_7
 10
-6368.702
 20
8283.73
  0
VERTEX
100
AcDbVertex
100
AcDb2dVertex
  8
layer_7
 10
-6388.152
 20
8350.755
  0
VERTEX
100
AcDbVertex
100
AcDb2dVertex
  8
layer_7
 10
-6391.149
 20
8359.453
  0
VERTEX
100
AcDbVertex
100
AcDb2dVertex
  8
layer_7
 10
-6417.114
 20
8424.234
  0
VERTEX
100
AcDbVertex
100
AcDb2dVertex
  8
layer_7
 10
-6448.625
 20
8486.506
  0
VERTEX
100
AcDbVertex
100
AcDb2dVertex
  8
layer_7
 10
-6485.445
 20
8545.795
  0
VERTEX
100
AcDbVertex
100
AcDb2dVertex
  8
layer_7
 10
-6527.291
 20
8601.649
  0
VERTEX
100
AcDbVertex
100
AcDb2dVertex
  8
layer_7
 10
-6573.846
 20
8653.643
  0
VERTEX
100
AcDbVertex
100
AcDb2dVertex
  8
layer_7
 10
-6624.756
 20
8701.381
  0
VERTEX
100
AcDbVertex
100
AcDb2dVertex
  8
layer_7
 10
-6679.633
 20
8744.501
  0
VERTEX
100
AcDbVertex
100
AcDb2dVertex
  8
layer_7
 10
-6738.059
 20
8782.675
  0
VERTEX
100
AcDbVertex
100
AcDb2dVertex
  8
layer_7
 10
-6799.589
 20
8815.61
  0
VERTEX
100
AcDbVertex
100
AcDb2dVertex
  8
layer_7
 10
-6863.756
 20
8843.058
  0
VERTEX
100
AcDbVertex
100
AcDb2dVertex
  8
layer_7
 10
-6930.071
 20
8864.808
  0
VERTEX
100
AcDbVertex
100
AcDb2dVertex
  8
layer_7
 10
-6998.03
 20
8880.697
  0
VERTEX
100
AcDbVertex
100
AcDb2dVertex
  8
layer_7
 10
-7067.114
 20
8890.601
  0
VERTEX
100
AcDbVertex
100
AcDb2dVertex
  8
layer_7
 10
-7136.799
 20
8894.447
  0
VERTEX
100
AcDbVertex
100
AcDb2dVertex
  8
layer_7
 10
-7145.999
 20
8894.5
  0
VERTEX
100
AcDbVertex
100
AcDb2dVertex
  8
layer_7
 10
-7215.724
 20
8891.456
  0
VERTEX
100
AcDbVertex
100
AcDb2dVertex
  8
layer_7
 10
-7284.918
 20
8882.346
  0
VERTEX
100
AcDbVertex
100
AcDb2dVertex
  8
layer_7
 10
-7353.054
 20
8867.241
  0
VERTEX
100
AcDbVertex
100
AcDb2dVertex
  8
layer_7
 10
-7419.615
 20
8846.254
  0
VERTEX
100
AcDbVertex
100
AcDb2dVertex
  8
layer_7
 10
-7484.094
 20
8819.546
  0
VERTEX
100
AcDbVertex
100
AcDb2dVertex
  8
layer_7
 10
-7545.999
 20
8787.32
  0
VERTEX
100
AcDbVertex
100
AcDb2dVertex
  8
layer_7
 10
-7604.86
 20
8749.821
  0
VERTEX
100
AcDbVertex
100
AcDb2dVertex
  8
layer_7
 10
-7660.229
 20
8707.335
  0
VERTEX
100
AcDbVertex
100
AcDb2dVertex
  8
layer_7
 10
-7711.685
 20
8660.185
  0
VERTEX
100
AcDbVertex
100
AcDb2dVertex
  8
layer_7
 10
-7758.835
 20
8608.73
  0
VERTEX
100
AcDbVertex
100
AcDb2dVertex
  8
layer_7
 10
-7801.321
 20
8553.361
  0
VERTEX
100
AcDbVertex
100
AcDb2dVertex
  8
layer_7
 10
-7838.82
 20
8494.5
  0
VERTEX
100
AcDbVertex
100
AcDb2dVertex
  8
layer_7
 10
-7871.046
 20
8432.594
  0
VERTEX
100
AcDbVertex
100
AcDb2dVertex
  8
layer_7
 10
-7897.753
 20
8368.116
  0
VERTEX
100
AcDbVertex
100
AcDb2dVertex
  8
layer_7
 10
-7900.85
 20
8359.453
  0
VERTEX
100
AcDbVertex
100
AcDb2dVertex
  8
layer_7
 10
-7921.07
 20
8292.655
  0
VERTEX
100
AcDbVertex
100
AcDb2dVertex
  8
layer_7
 10
-7935.391
 20
8224.349
  0
VERTEX
100
AcDbVertex
100
AcDb2dVertex
  8
layer_7
 10
-7943.704
 20
8155.055
  0
VERTEX
100
AcDbVertex
100
AcDb2dVertex
  8
layer_7
 10
-7945.946
 20
8085.3
  0
VERTEX
100
AcDbVertex
100
AcDb2dVertex
  8
layer_7
 10
-7942.101
 20
8015.615
  0
VERTEX
100
AcDbVertex
100
AcDb2dVertex
  8
layer_7
 10
-7932.196
 20
7946.53
  0
VERTEX
100
AcDbVertex
100
AcDb2dVertex
  8
layer_7
 10
-7916.308
 20
7878.572
  0
VERTEX
100
AcDbVertex
100
AcDb2dVertex
  8
layer_7
 10
-7894.557
 20
7812.257
  0
VERTEX
100
AcDbVertex
100
AcDb2dVertex
  8
layer_7
 10
-7867.11
 20
7748.09
  0
VERTEX
100
AcDbVertex
100
AcDb2dVertex
  8
layer_7
 10
-7834.174
 20
7686.559
  0
VERTEX
100
AcDbVertex
100
AcDb2dVertex
  8
layer_7
 10
-7796.001
 20
7628.133
  0
VERTEX
100
AcDbVertex
100
AcDb2dVertex
  8
layer_7
 10
-7752.881
 20
7573.256
  0
VERTEX
100
AcDbVertex
100
AcDb2dVertex
  8
layer_7
 10
-7705.142
 20
7522.346
  0
VERTEX
100
AcDbVertex
100
AcDb2dVertex
  8
layer_7
 10
-7653.148
 20
7475.791
  0
VERTEX
100
AcDbVertex
100
AcDb2dVertex
  8
layer_7
 10
-7646
 20
7470
  0
VERTEX
100
AcDbVertex
100
AcDb2dVertex
  8
layer_7
 10
-7645.999
 20
470
  0
VERTEX
100
AcDbVertex
100
AcDb2dVertex
  8
layer_7
 10
-14645.5
 20
470
  0
VERTEX
100
AcDbVertex
100
AcDb2dVertex
  8
layer_7
 10
-14691.454
 20
522.526
  0
VERTEX
100
AcDbVertex
100
AcDb2dVertex
  8
layer_7
 10
-14741.812
 20
570.847
  0
VERTEX
100
AcDbVertex
100
AcDb2dVertex
  8
layer_7
 10
-14796.189
 20
614.595
  0
VERTEX
100
AcDbVertex
100
AcDb2dVertex
  8
layer_7
 10
-14854.172
 20
653.438
  0
VERTEX
100
AcDbVertex
100
AcDb2dVertex
  8
layer_7
 10
-14915.32
 20
687.079
  0
VERTEX
100
AcDbVertex
100
AcDb2dVertex
  8
layer_7
 10
-14979.167
 20
715.263
  0
VERTEX
100
AcDbVertex
100
AcDb2dVertex
  8
layer_7
 10
-15045.228
 20
737.774
  0
VERTEX
100
AcDbVertex
100
AcDb2dVertex
  8
layer_7
 10
-15112.999
 20
754.443
  0
VERTEX
100
AcDbVertex
100
AcDb2dVertex
  8
layer_7
 10
-15181.965
 20
765.142
  0
VERTEX
100
AcDbVertex
100
AcDb2dVertex
  8
layer_7
 10
-15251.601
 20
769.789
  0
VERTEX
100
AcDbVertex
100
AcDb2dVertex
  8
layer_7
 10
-15321.378
 20
768.349
  0
VERTEX
100
AcDbVertex
100
AcDb2dVertex
  8
layer_7
 10
-15390.763
 20
760.833
  0
VERTEX
100
AcDbVertex
100
AcDb2dVertex
  8
layer_7
 10
-15459.229
 20
747.298
  0
VERTEX
100
AcDbVertex
100
AcDb2dVertex
  8
layer_7
 10
-15526.255
 20
727.848
  0
VERTEX
100
AcDbVertex
100
AcDb2dVertex
  8
layer_7
 10
-15534.953
 20
724.851
  0
VERTEX
100
AcDbVertex
100
AcDb2dVertex
  8
layer_7
 10
-15599.734
 20
698.886
  0
VERTEX
100
AcDbVertex
100
AcDb2dVertex
  8
layer_7
 10
-15662.006
 20
667.374
  0
VERTEX
100
AcDbVertex
100
AcDb2dVertex
  8
layer_7
 10
-15721.295
 20
630.555
  0
VERTEX
100
AcDbVertex
100
AcDb2dVertex
  8
layer_7
 10
-15777.149
 20
588.708
  0
VERTEX
100
AcDbVertex
100
AcDb2dVertex
  8
layer_7
 10
-15829.143
 20
542.153
  0
VERTEX
100
AcDbVertex
100
AcDb2dVertex
  8
layer_7
 10
-15876.882
 20
491.243
  0
VERTEX
100
AcDbVertex
100
AcDb2dVertex
  8
layer_7
 10
-15920.002
 20
436.367
  0
VERTEX
100
AcDbVertex
100
AcDb2dVertex
  8
layer_7
 10
-15958.175
 20
377.94
  0
VERTEX
100
AcDbVertex
100
AcDb2dVertex
  8
layer_7
 10
-15991.11
 20
316.41
  0
VERTEX
100
AcDbVertex
100
AcDb2dVertex
  8
layer_7
 10
-16018.558
 20
252.242
  0
VERTEX
100
AcDbVertex
100
AcDb2dVertex
  8
layer_7
 10
-16040.309
 20
185.927
  0
VERTEX
100
AcDbVertex
100
AcDb2dVertex
  8
layer_7
 10
-16056.197
 20
117.969
  0
VERTEX
100
AcDbVertex
100
AcDb2dVertex
  8
layer_7
 10
-16066.101
 20
48.884
  0
VERTEX
100
AcDbVertex
100
AcDb2dVertex
  8
layer_7
 10
-16069.947
 20
-20.801
  0
VERTEX
100
AcDbVertex
100
AcDb2dVertex
  8
layer_7
 10
-16070
 20
-30
  0
VERTEX
100
AcDbVertex
100
AcDb2dVertex
  8
layer_7
 10
-16066.956
 20
-99.725
  0
VERTEX
100
AcDbVertex
100
AcDb2dVertex
  8
layer_7
 10
-16057.846
 20
-168.919
  0
VERTEX
100
AcDbVertex
100
AcDb2dVertex
  8
layer_7
 10
-16042.74
 20
-237.055
  0
VERTEX
100
AcDbVertex
100
AcDb2dVertex
  8
layer_7
 10
-16021.754
 20
-303.616
  0
VERTEX
100
AcDbVertex
100
AcDb2dVertex
  8
layer_7
 10
-15995.046
 20
-368.095
  0
VERTEX
100
AcDbVertex
100
AcDb2dVertex
  8
layer_7
 10
-15962.82
 20
-430
  0
VERTEX
100
AcDbVertex
100
AcDb2dVertex
  8
layer_7
 10
-15925.321
 20
-488.862
  0
VERTEX
100
AcDbVertex
100
AcDb2dVertex
  8
layer_7
 10
-15882.835
 20
-544.231
  0
VERTEX
100
AcDbVertex
100
AcDb2dVertex
  8
layer_7
 10
-15835.685
 20
-595.686
  0
VERTEX
100
AcDbVertex
100
AcDb2dVertex
  8
layer_7
 10
-15784.229
 20
-642.836
  0
VERTEX
100
AcDbVertex
100
AcDb2dVertex
  8
layer_7
 10
-15728.86
 20
-685.322
  0
VERTEX
100
AcDbVertex
100
AcDb2dVertex
  8
layer_7
 10
-15669.999
 20
-722.821
  0
VERTEX
100
AcDbVertex
100
AcDb2dVertex
  8
layer_7
 10
-15608.093
 20
-755.047
  0
VERTEX
100
AcDbVertex
100
AcDb2dVertex
  8
layer_7
 10
-15543.615
 20
-781.755
  0
VERTEX
100
AcDbVertex
100
AcDb2dVertex
  8
layer_7
 10
-15534.953
 20
-784.851
  0
VERTEX
100
AcDbVertex
100
AcDb2dVertex
  8
layer_7
 10
-15468.155
 20
-805.071
  0
VERTEX
100
AcDbVertex
100
AcDb2dVertex
  8
layer_7
 10
-15399.849
 20
-819.392
  0
VERTEX
100
AcDbVertex
100
AcDb2dVertex
  8
layer_7
 10
-15330.555
 20
-827.705
  0
VERTEX
100
AcDbVertex
100
AcDb2dVertex
  8
layer_7
 10
-15260.8
 20
-829.947
  0
VERTEX
100
AcDbVertex
100
AcDb2dVertex
  8
layer_7
 10
-15191.115
 20
-826.101
  0
VERTEX
100
AcDbVertex
100
AcDb2dVertex
  8
layer_7
 10
-15122.03
 20
-816.196
  0
VERTEX
100
AcDbVertex
100
AcDb2dVertex
  8
layer_7
 10
-15054.072
 20
-800.308
  0
VERTEX
100
AcDbVertex
100
AcDb2dVertex
  8
layer_7
 10
-14987.756
 20
-778.558
  0
VERTEX
100
AcDbVertex
100
AcDb2dVertex
  8
layer_7
 10
-14923.589
 20
-751.11
  0
VERTEX
100
AcDbVertex
100
AcDb2dVertex
  8
layer_7
 10
-14862.058
 20
-718.174
  0
VERTEX
100
AcDbVertex
100
AcDb2dVertex
  8
layer_7
 10
-14803.632
 20
-680.001
  0
VERTEX
100
AcDbVertex
100
AcDb2dVertex
  8
layer_7
 10
-14748.756
 20
-636.881
  0
VERTEX
100
AcDbVertex
100
AcDb2dVertex
  8
layer_7
 10
-14697.846
 20
-589.142
  0
VERTEX
100
AcDbVertex
100
AcDb2dVertex
  8
layer_7
 10
-14651.291
 20
-537.148
  0
VERTEX
100
AcDbVertex
100
AcDb2dVertex
  8
layer_7
 10
-14645.5
 20
-530
  0
VERTEX
100
AcDbVertex
100
AcDb2dVertex
  8
layer_7
 10
-7645.999
 20
-530
  0
SEQEND
  0
TEXT
100
AcDbText
  8
layer_10
 10
-16070
 20
9873.162
 11
-16070
 21
9873.162
 30
   0
 40
-0.016
  1
Generated with the LayoutEditor (This message will NOT be added by any commercial version of the LayoutEditor.)
 50
0
 72
0
 73
3
  0
ENDSEC
  0
EOF
