<?xml version="1.0" encoding="UTF-8" standalone="no"?>
<svg width="275.167mm" height="190.5mm"
 viewBox="0 0 780 540"
 xmlns="http://www.w3.org/2000/svg" xmlns:xlink="http://www.w3.org/1999/xlink"  version="1.2" baseProfile="tiny">
<title>Qt SVG Document</title>
<desc>MATLAB, The MathWorks, Inc. Version 25.2.0.3042426 R2025b Update 1</desc>
<defs>
</defs>
<g fill="none" stroke="black" stroke-width="1" fill-rule="evenodd" stroke-linecap="square" stroke-linejoin="bevel" >

<g fill="#000000" fill-opacity="1" stroke="none" transform="matrix(0.75,0,0,0.75,0,0)"
font-family="MS Shell Dlg 2" font-size="8.25" font-weight="400" font-style="normal" 
>
<path vector-effect="none" fill-rule="evenodd" d="M0,0 L1041,0 L1041,720 L0,720 L0,0"/>
</g>

<g fill="#121212" fill-opacity="1" stroke="none" transform="matrix(7.5e-05,0,0,7.5e-05,0,0)"
font-family="MS Shell Dlg 2" font-size="8.25" font-weight="400" font-style="normal" 
>
<path vector-effect="none" fill-rule="evenodd" d="M1.81e+06,180000 L1.81e+06,6.27e+06 L1.016e+07,6.27e+06 L1.016e+07,180000 L1.81e+06,180000"/>
</g>

<g fill="#ffffff" fill-opacity="0.25098" stroke="#ffffff" stroke-opacity="0.25098" stroke-width="0.666667" stroke-linecap="butt" stroke-linejoin="round" transform="matrix(0.75,0,0,0.75,0,0)"
font-family="MS Shell Dlg 2" font-size="8.25" font-weight="400" font-style="normal" 
>
<polyline fill="none" vector-effect="none" points="181,18 181,627 " />
<polyline fill="none" vector-effect="none" points="348.158,18 348.158,627 " />
<polyline fill="none" vector-effect="none" points="515.315,18 515.315,627 " />
<polyline fill="none" vector-effect="none" points="682.473,18 682.473,627 " />
<polyline fill="none" vector-effect="none" points="849.631,18 849.631,627 " />
<polyline fill="none" vector-effect="none" points="181,627 1016,627 " />
<polyline fill="none" vector-effect="none" points="181,516.667 1016,516.667 " />
<polyline fill="none" vector-effect="none" points="181,406.334 1016,406.334 " />
<polyline fill="none" vector-effect="none" points="181,296.001 1016,296.001 " />
<polyline fill="none" vector-effect="none" points="181,185.668 1016,185.668 " />
<polyline fill="none" vector-effect="none" points="181,75.3345 1016,75.3345 " />
</g>

<g fill="#d9d9d9" fill-opacity="1" stroke="none" transform="matrix(0.75,0,0,0.75,399.91,529.1)"
font-family="MS Shell Dlg 2" font-size="8.25" font-weight="400" font-style="normal" 
>
<path vector-effect="none" fill-rule="evenodd" d="M6.07813,0 L6.07813,-1.26563 C7.28646,-1.26563 8.45833,-1.33333 9.59375,-1.46875 C10.7292,-1.60417 11.2969,-1.91667 11.2969,-2.40625 L11.2969,-22.1875 C11.2969,-22.6979 11.1536,-23.0156 10.8672,-23.1406 C10.5807,-23.2656 10.1146,-23.3281 9.46875,-23.3281 L7.96875,-23.3281 C5.98958,-23.3281 4.58333,-22.8958 3.75,-22.0313 C3.3125,-21.5938 3,-20.8984 2.8125,-19.9453 C2.625,-18.9922 2.46875,-17.7917 2.34375,-16.3438 L1.29688,-16.3438 L1.98438,-24.5938 L23.9844,-24.5938 L24.6563,-16.3438 L23.6094,-16.3438 C23.4635,-17.8958 23.3073,-19.125 23.1406,-20.0313 C22.974,-20.9375 22.6667,-21.6042 22.2188,-22.0313 C21.375,-22.8958 19.9688,-23.3281 18,-23.3281 L16.4844,-23.3281 C16.0573,-23.3281 15.724,-23.3099 15.4844,-23.2734 C15.2448,-23.237 15.0469,-23.1354 14.8906,-22.9688 C14.7344,-22.8021 14.6563,-22.5417 14.6563,-22.1875 L14.6563,-2.40625 C14.6563,-1.91667 15.2266,-1.60417 16.3672,-1.46875 C17.5078,-1.33333 18.6719,-1.26563 19.8594,-1.26563 L19.8594,0 L6.07813,0"/>
</g>

<g fill="#d9d9d9" fill-opacity="1" stroke="none" transform="matrix(0.75,0,0,0.75,419.771,529.1)"
font-family="MS Shell Dlg 2" font-size="8.25" font-weight="400" font-style="normal" 
>
<path vector-effect="none" fill-rule="evenodd" d="M1.10938,0 L1.10938,-1.26563 C1.93229,-1.26563 2.60677,-1.33073 3.13281,-1.46094 C3.65885,-1.59115 3.92188,-1.90625 3.92188,-2.40625 L3.92188,-12.2344 C3.92188,-13.1615 3.74219,-13.7292 3.38281,-13.9375 C3.02344,-14.1458 2.31771,-14.25 1.26563,-14.25 L1.26563,-15.5156 L6.45313,-15.9063 L6.45313,-2.40625 C6.45313,-1.90625 6.68229,-1.59115 7.14063,-1.46094 C7.59896,-1.33073 8.20833,-1.26563 8.96875,-1.26563 L8.96875,0 L1.10938,0 M2.64063,-22.0938 C2.64063,-22.625 2.83854,-23.0885 3.23438,-23.4844 C3.63021,-23.8802 4.08854,-24.0781 4.60938,-24.0781 C4.94271,-24.0781 5.26823,-23.9922 5.58594,-23.8203 C5.90365,-23.6484 6.15104,-23.4036 6.32813,-23.0859 C6.50521,-22.7682 6.59375,-22.4375 6.59375,-22.0938 C6.59375,-21.5833 6.39323,-21.1276 5.99219,-20.7266 C5.59115,-20.3255 5.13021,-20.125 4.60938,-20.125 C4.08854,-20.125 3.63021,-20.3255 3.23438,-20.7266 C2.83854,-21.1276 2.64063,-21.5833 2.64063,-22.0938 "/>
</g>

<g fill="#d9d9d9" fill-opacity="1" stroke="none" transform="matrix(0.75,0,0,0.75,427.41,529.1)"
font-family="MS Shell Dlg 2" font-size="8.25" font-weight="400" font-style="normal" 
>
<path vector-effect="none" fill-rule="evenodd" d="M1.07813,0 L1.07813,-1.26563 C1.89063,-1.26563 2.5625,-1.33073 3.09375,-1.46094 C3.625,-1.59115 3.89063,-1.90625 3.89063,-2.40625 L3.89063,-12.2344 C3.89063,-12.8802 3.79427,-13.3464 3.60156,-13.6328 C3.40885,-13.9193 3.13021,-14.0938 2.76563,-14.1563 C2.40104,-14.2188 1.83854,-14.25 1.07813,-14.25 L1.07813,-15.5156 L6.29688,-15.9063 L6.29688,-12.3906 C6.77604,-13.4219 7.48698,-14.2656 8.42969,-14.9219 C9.3724,-15.5781 10.401,-15.9063 11.5156,-15.9063 C14.276,-15.9063 15.901,-14.7813 16.3906,-12.5313 C16.8698,-13.5417 17.5703,-14.3568 18.4922,-14.9766 C19.4141,-15.5964 20.4271,-15.9063 21.5313,-15.9063 C22.625,-15.9063 23.5443,-15.7318 24.2891,-15.3828 C25.0339,-15.0339 25.5938,-14.4974 25.9688,-13.7734 C26.3438,-13.0495 26.5313,-12.1458 26.5313,-11.0625 L26.5313,-2.40625 C26.5313,-1.90625 26.7969,-1.59115 27.3281,-1.46094 C27.8594,-1.33073 28.5313,-1.26563 29.3438,-1.26563 L29.3438,0 L21.0938,0 L21.0938,-1.26563 C21.9167,-1.26563 22.5911,-1.33073 23.1172,-1.46094 C23.6432,-1.59115 23.9063,-1.90625 23.9063,-2.40625 L23.9063,-10.9531 C23.9063,-12.1615 23.737,-13.1354 23.3984,-13.875 C23.0599,-14.6146 22.3646,-14.9844 21.3125,-14.9844 C19.9271,-14.9844 18.7839,-14.4271 17.8828,-13.3125 C16.9818,-12.1979 16.5313,-10.9323 16.5313,-9.51563 L16.5313,-2.40625 C16.5313,-1.90625 16.7943,-1.59115 17.3203,-1.46094 C17.8464,-1.33073 18.5208,-1.26563 19.3438,-1.26563 L19.3438,0 L11.0938,0 L11.0938,-1.26563 C11.9167,-1.26563 12.5911,-1.33073 13.1172,-1.46094 C13.6432,-1.59115 13.9063,-1.90625 13.9063,-2.40625 L13.9063,-10.9531 C13.9063,-12.1198 13.737,-13.0833 13.3984,-13.8438 C13.0599,-14.6042 12.3594,-14.9844 11.2969,-14.9844 C9.91146,-14.9844 8.76823,-14.4271 7.86719,-13.3125 C6.96615,-12.1979 6.51563,-10.9323 6.51563,-9.51563 L6.51563,-2.40625 C6.51563,-1.90625 6.78125,-1.59115 7.3125,-1.46094 C7.84375,-1.33073 8.51042,-1.26563 9.3125,-1.26563 L9.3125,0 L1.07813,0"/>
</g>

<g fill="#d9d9d9" fill-opacity="1" stroke="none" transform="matrix(0.75,0,0,0.75,450.326,529.1)"
font-family="MS Shell Dlg 2" font-size="8.25" font-weight="400" font-style="normal" 
>
<path vector-effect="none" fill-rule="evenodd" d="M8.96875,0.40625 C7.5,0.40625 6.15365,0.0208333 4.92969,-0.75 C3.70573,-1.52083 2.74479,-2.54688 2.04688,-3.82813 C1.34896,-5.10938 1,-6.46354 1,-7.89063 C1,-9.29688 1.32031,-10.6328 1.96094,-11.8984 C2.60156,-13.1641 3.49219,-14.1875 4.63281,-14.9688 C5.77344,-15.75 7.04688,-16.1406 8.45313,-16.1406 C9.55729,-16.1406 10.5156,-15.9557 11.3281,-15.5859 C12.1406,-15.2161 12.8125,-14.7031 13.3438,-14.0469 C13.875,-13.3906 14.2734,-12.6172 14.5391,-11.7266 C14.8047,-10.8359 14.9375,-9.85938 14.9375,-8.79688 C14.9375,-8.47396 14.8177,-8.3125 14.5781,-8.3125 L4.15625,-8.3125 L4.15625,-7.92188 C4.15625,-5.94271 4.55729,-4.23958 5.35938,-2.8125 C6.16146,-1.38542 7.46875,-0.671875 9.28125,-0.671875 C10.0208,-0.671875 10.7031,-0.835938 11.3281,-1.16406 C11.9531,-1.49219 12.4974,-1.94792 12.9609,-2.53125 C13.4245,-3.11458 13.7396,-3.73958 13.9063,-4.40625 C13.9271,-4.48958 13.9714,-4.5625 14.0391,-4.625 C14.1068,-4.6875 14.1771,-4.71875 14.25,-4.71875 L14.5781,-4.71875 C14.8177,-4.71875 14.9375,-4.56771 14.9375,-4.26563 C14.6042,-2.90104 13.875,-1.78125 12.75,-0.90625 C11.625,-0.03125 10.3646,0.40625 8.96875,0.40625 M4.1875,-9.21875 L12.3906,-9.21875 C12.3906,-10.1146 12.2656,-11.0234 12.0156,-11.9453 C11.7656,-12.8672 11.3464,-13.6354 10.7578,-14.25 C10.1693,-14.8646 9.40104,-15.1719 8.45313,-15.1719 C7.09896,-15.1719 6.04948,-14.5365 5.30469,-13.2656 C4.5599,-11.9948 4.1875,-10.6458 4.1875,-9.21875 "/>
</g>

<g fill="#d9d9d9" fill-opacity="1" stroke="none" transform="matrix(0.75,0,0,0.75,471.715,529.1)"
font-family="MS Shell Dlg 2" font-size="8.25" font-weight="400" font-style="normal" 
>
<path vector-effect="none" fill-rule="evenodd" d="M4.25,9 L4.25,-27 L9.17188,-27 L9.17188,-25.5625 L5.70313,-25.5625 L5.70313,7.5625 L9.17188,7.5625 L9.17188,9 L4.25,9"/>
</g>

<g fill="#d9d9d9" fill-opacity="1" stroke="none" transform="matrix(0.75,0,0,0.75,479.354,529.1)"
font-family="MS Shell Dlg 2" font-size="8.25" font-weight="400" font-style="normal" 
>
<path vector-effect="none" fill-rule="evenodd" d="M1.20313,0.109375 L1.20313,-5.78125 C1.20313,-5.96875 1.30729,-6.0625 1.51563,-6.0625 L1.95313,-6.0625 C2.08854,-6.0625 2.18229,-5.96875 2.23438,-5.78125 C2.90104,-2.30208 4.51563,-0.5625 7.07813,-0.5625 C8.22396,-0.5625 9.17969,-0.820313 9.94531,-1.33594 C10.7109,-1.85156 11.0938,-2.65104 11.0938,-3.73438 C11.0938,-4.50521 10.7943,-5.16146 10.1953,-5.70313 C9.59635,-6.24479 8.88542,-6.61979 8.0625,-6.82813 L5.65625,-7.29688 C4.85417,-7.47396 4.1224,-7.74219 3.46094,-8.10156 C2.79948,-8.46094 2.25781,-8.94271 1.83594,-9.54688 C1.41406,-10.151 1.20313,-10.849 1.20313,-11.6406 C1.20313,-12.6927 1.47917,-13.5547 2.03125,-14.2266 C2.58333,-14.8984 3.30469,-15.3854 4.19531,-15.6875 C5.08594,-15.9896 6.04688,-16.1406 7.07813,-16.1406 C8.31771,-16.1406 9.39063,-15.8177 10.2969,-15.1719 L11.3438,-16.0469 C11.3438,-16.1094 11.401,-16.1406 11.5156,-16.1406 L11.7813,-16.1406 C11.8542,-16.1406 11.9193,-16.1068 11.9766,-16.0391 C12.0339,-15.9714 12.0625,-15.9063 12.0625,-15.8438 L12.0625,-11.1406 C12.0625,-10.9219 11.9688,-10.8125 11.7813,-10.8125 L11.3438,-10.8125 C11.125,-10.8125 11.0156,-10.9219 11.0156,-11.1406 C11.0156,-12.401 10.6693,-13.4115 9.97656,-14.1719 C9.28385,-14.9323 8.30729,-15.3125 7.04688,-15.3125 C5.97396,-15.3125 5.04167,-15.112 4.25,-14.7109 C3.45833,-14.3099 3.0625,-13.625 3.0625,-12.6563 C3.0625,-11.9896 3.34635,-11.4427 3.91406,-11.0156 C4.48177,-10.5885 5.14583,-10.2813 5.90625,-10.0938 L8.34375,-9.64063 C9.16667,-9.44271 9.93229,-9.1224 10.6406,-8.67969 C11.349,-8.23698 11.9115,-7.67448 12.3281,-6.99219 C12.7448,-6.3099 12.9531,-5.54167 12.9531,-4.6875 C12.9531,-3.8125 12.8047,-3.05729 12.5078,-2.42188 C12.2109,-1.78646 11.7943,-1.25521 11.2578,-0.828125 C10.7214,-0.401042 10.0911,-0.0885417 9.36719,0.109375 C8.64323,0.307292 7.88021,0.40625 7.07813,0.40625 C5.57813,0.40625 4.29688,-0.104167 3.23438,-1.125 L1.92188,0.3125 C1.92188,0.375 1.85417,0.40625 1.71875,0.40625 L1.51563,0.40625 C1.30729,0.40625 1.20313,0.307292 1.20313,0.109375 "/>
</g>

<g fill="#d9d9d9" fill-opacity="1" stroke="none" transform="matrix(0.75,0,0,0.75,490.201,529.1)"
font-family="MS Shell Dlg 2" font-size="8.25" font-weight="400" font-style="normal" 
>
<path vector-effect="none" fill-rule="evenodd" d="M0.796875,9 L0.796875,7.5625 L4.29688,7.5625 L4.29688,-25.5625 L0.796875,-25.5625 L0.796875,-27 L5.73438,-27 L5.73438,9 L0.796875,9"/>
</g>

<g fill="#d9d9d9" fill-opacity="1" stroke="#d9d9d9" stroke-opacity="1" stroke-width="0.666667" stroke-linecap="square" stroke-linejoin="round" transform="matrix(0.75,0,0,0.75,0,0)"
font-family="MS Shell Dlg 2" font-size="8.25" font-weight="400" font-style="normal" 
>
<polyline fill="none" vector-effect="none" points="181,627 1016,627 " />
<polyline fill="none" vector-effect="none" points="181,18 1016,18 " />
<polyline fill="none" vector-effect="none" points="181,627 181,618.65 " />
<polyline fill="none" vector-effect="none" points="181,26.35 181,18 " />
<polyline fill="none" vector-effect="none" points="348.158,627 348.158,618.65 " />
<polyline fill="none" vector-effect="none" points="348.158,26.35 348.158,18 " />
<polyline fill="none" vector-effect="none" points="515.315,627 515.315,618.65 " />
<polyline fill="none" vector-effect="none" points="515.315,26.35 515.315,18 " />
<polyline fill="none" vector-effect="none" points="682.473,627 682.473,618.65 " />
<polyline fill="none" vector-effect="none" points="682.473,26.35 682.473,18 " />
<polyline fill="none" vector-effect="none" points="849.631,627 849.631,618.65 " />
<polyline fill="none" vector-effect="none" points="849.631,26.35 849.631,18 " />
</g>

<g fill="#d9d9d9" fill-opacity="1" stroke="none" transform="matrix(0.75,0,0,0.75,129,499.75)"
font-family="MS Shell Dlg 2" font-size="8.25" font-weight="400" font-style="normal" 
>
<path vector-effect="none" fill-rule="evenodd" d="M1.375,-11.6563 C1.375,-14.4479 1.66146,-16.6953 2.23438,-18.3984 C2.80729,-20.1016 3.66146,-21.4141 4.79688,-22.3359 C5.93229,-23.2578 7.35938,-23.7188 9.07813,-23.7188 C10.3385,-23.7188 11.4479,-23.4635 12.4063,-22.9531 C13.3646,-22.4427 14.1536,-21.7057 14.7734,-20.7422 C15.3932,-19.7786 15.8828,-18.6068 16.2422,-17.2266 C16.6016,-15.8464 16.7813,-13.9896 16.7813,-11.6563 C16.7813,-8.88542 16.4948,-6.64844 15.9219,-4.94531 C15.349,-3.24219 14.4974,-1.92448 13.3672,-0.992188 C12.237,-0.0598958 10.8073,0.40625 9.07813,0.40625 C6.79688,0.40625 5.00521,-0.411458 3.70313,-2.04688 C2.15104,-4.01563 1.375,-7.21875 1.375,-11.6563 M4.34375,-11.6563 C4.34375,-7.77083 4.79948,-5.1875 5.71094,-3.90625 C6.6224,-2.625 7.74479,-1.98438 9.07813,-1.98438 C10.401,-1.98438 11.5182,-2.6276 12.4297,-3.91406 C13.3411,-5.20052 13.7969,-7.78125 13.7969,-11.6563 C13.7969,-15.5417 13.3411,-18.1224 12.4297,-19.3984 C11.5182,-20.6745 10.3906,-21.3125 9.04688,-21.3125 C7.71354,-21.3125 6.64583,-20.75 5.84375,-19.625 C4.84375,-18.1875 4.34375,-15.5313 4.34375,-11.6563 "/>
</g>

<g fill="#d9d9d9" fill-opacity="1" stroke="none" transform="matrix(0.75,0,0,0.75,247.618,499.75)"
font-family="MS Shell Dlg 2" font-size="8.25" font-weight="400" font-style="normal" 
>
<path vector-effect="none" fill-rule="evenodd" d="M12.2969,0 L9.39063,0 L9.39063,-18.4844 C8.69271,-17.8177 7.77865,-17.151 6.64844,-16.4844 C5.51823,-15.8177 4.5,-15.3177 3.59375,-14.9844 L3.59375,-17.7969 C5.21875,-18.5573 6.63802,-19.4792 7.85156,-20.5625 C9.0651,-21.6458 9.92188,-22.6979 10.4219,-23.7188 L12.2969,-23.7188 L12.2969,0 M19.375,-11.6563 C19.375,-14.4479 19.6615,-16.6953 20.2344,-18.3984 C20.8073,-20.1016 21.6615,-21.4141 22.7969,-22.3359 C23.9323,-23.2578 25.3594,-23.7188 27.0781,-23.7188 C28.3385,-23.7188 29.4479,-23.4635 30.4063,-22.9531 C31.3646,-22.4427 32.1536,-21.7057 32.7734,-20.7422 C33.3932,-19.7786 33.8828,-18.6068 34.2422,-17.2266 C34.6016,-15.8464 34.7813,-13.9896 34.7813,-11.6563 C34.7813,-8.88542 34.4948,-6.64844 33.9219,-4.94531 C33.349,-3.24219 32.4974,-1.92448 31.3672,-0.992188 C30.237,-0.0598958 28.8073,0.40625 27.0781,0.40625 C24.7969,0.40625 23.0052,-0.411458 21.7031,-2.04688 C20.151,-4.01563 19.375,-7.21875 19.375,-11.6563 M22.3438,-11.6563 C22.3438,-7.77083 22.7995,-5.1875 23.7109,-3.90625 C24.6224,-2.625 25.7448,-1.98438 27.0781,-1.98438 C28.401,-1.98438 29.5182,-2.6276 30.4297,-3.91406 C31.3411,-5.20052 31.7969,-7.78125 31.7969,-11.6563 C31.7969,-15.5417 31.3411,-18.1224 30.4297,-19.3984 C29.5182,-20.6745 28.3906,-21.3125 27.0469,-21.3125 C25.7135,-21.3125 24.6458,-20.75 23.8438,-19.625 C22.8438,-18.1875 22.3438,-15.5313 22.3438,-11.6563 "/>
</g>

<g fill="#d9d9d9" fill-opacity="1" stroke="none" transform="matrix(0.75,0,0,0.75,372.987,499.75)"
font-family="MS Shell Dlg 2" font-size="8.25" font-weight="400" font-style="normal" 
>
<path vector-effect="none" fill-rule="evenodd" d="M16.6094,-2.78125 L16.6094,0 L1,0 C0.979167,-0.697917 1.09375,-1.36979 1.34375,-2.01563 C1.73958,-3.07813 2.375,-4.125 3.25,-5.15625 C4.125,-6.1875 5.39063,-7.38021 7.04688,-8.73438 C9.60938,-10.8385 11.3411,-12.5052 12.2422,-13.7344 C13.1432,-14.9635 13.5938,-16.125 13.5938,-17.2188 C13.5938,-18.375 13.1849,-19.3464 12.3672,-20.1328 C11.5495,-20.9193 10.4792,-21.3125 9.15625,-21.3125 C7.76042,-21.3125 6.64323,-20.8932 5.80469,-20.0547 C4.96615,-19.2161 4.54167,-18.0573 4.53125,-16.5781 L1.54688,-16.8906 C1.75521,-19.1094 2.52344,-20.8021 3.85156,-21.9688 C5.17969,-23.1354 6.96875,-23.7188 9.21875,-23.7188 C11.4792,-23.7188 13.2708,-23.0911 14.5938,-21.8359 C15.9167,-20.5807 16.5781,-19.0208 16.5781,-17.1563 C16.5781,-16.2188 16.3854,-15.2917 16,-14.375 C15.6146,-13.4583 14.974,-12.4948 14.0781,-11.4844 C13.1823,-10.474 11.6927,-9.08854 9.60938,-7.32813 C7.86979,-5.86979 6.7526,-4.88021 6.25781,-4.35938 C5.76302,-3.83854 5.35417,-3.3125 5.03125,-2.78125 L16.6094,-2.78125 M19.375,-11.6563 C19.375,-14.4479 19.6615,-16.6953 20.2344,-18.3984 C20.8073,-20.1016 21.6615,-21.4141 22.7969,-22.3359 C23.9323,-23.2578 25.3594,-23.7188 27.0781,-23.7188 C28.3385,-23.7188 29.4479,-23.4635 30.4063,-22.9531 C31.3646,-22.4427 32.1536,-21.7057 32.7734,-20.7422 C33.3932,-19.7786 33.8828,-18.6068 34.2422,-17.2266 C34.6016,-15.8464 34.7813,-13.9896 34.7813,-11.6563 C34.7813,-8.88542 34.4948,-6.64844 33.9219,-4.94531 C33.349,-3.24219 32.4974,-1.92448 31.3672,-0.992188 C30.237,-0.0598958 28.8073,0.40625 27.0781,0.40625 C24.7969,0.40625 23.0052,-0.411458 21.7031,-2.04688 C20.151,-4.01563 19.375,-7.21875 19.375,-11.6563 M22.3438,-11.6563 C22.3438,-7.77083 22.7995,-5.1875 23.7109,-3.90625 C24.6224,-2.625 25.7448,-1.98438 27.0781,-1.98438 C28.401,-1.98438 29.5182,-2.6276 30.4297,-3.91406 C31.3411,-5.20052 31.7969,-7.78125 31.7969,-11.6563 C31.7969,-15.5417 31.3411,-18.1224 30.4297,-19.3984 C29.5182,-20.6745 28.3906,-21.3125 27.0469,-21.3125 C25.7135,-21.3125 24.6458,-20.75 23.8438,-19.625 C22.8438,-18.1875 22.3438,-15.5313 22.3438,-11.6563 "/>
</g>

<g fill="#d9d9d9" fill-opacity="1" stroke="none" transform="matrix(0.75,0,0,0.75,498.355,499.75)"
font-family="MS Shell Dlg 2" font-size="8.25" font-weight="400" font-style="normal" 
>
<path vector-effect="none" fill-rule="evenodd" d="M1.39063,-6.23438 L4.28125,-6.625 C4.61458,-4.97917 5.18229,-3.79427 5.98438,-3.07031 C6.78646,-2.34635 7.76042,-1.98438 8.90625,-1.98438 C10.2708,-1.98438 11.4245,-2.45573 12.3672,-3.39844 C13.3099,-4.34115 13.7813,-5.51042 13.7813,-6.90625 C13.7813,-8.23958 13.3464,-9.33854 12.4766,-10.2031 C11.6068,-11.0677 10.5,-11.5 9.15625,-11.5 C8.60417,-11.5 7.92188,-11.3958 7.10938,-11.1875 L7.42188,-13.7344 C7.61979,-13.7135 7.77604,-13.7031 7.89063,-13.7031 C9.13021,-13.7031 10.2448,-14.0234 11.2344,-14.6641 C12.224,-15.3047 12.7188,-16.2969 12.7188,-17.6406 C12.7188,-18.7031 12.3568,-19.5833 11.6328,-20.2813 C10.9089,-20.9792 9.97917,-21.3281 8.84375,-21.3281 C7.71875,-21.3281 6.78125,-20.974 6.03125,-20.2656 C5.28125,-19.5573 4.79688,-18.4948 4.57813,-17.0781 L1.67188,-17.5938 C2.02604,-19.5417 2.83333,-21.0495 4.09375,-22.1172 C5.35417,-23.1849 6.91667,-23.7188 8.78125,-23.7188 C10.0729,-23.7188 11.2604,-23.4427 12.3438,-22.8906 C13.4271,-22.3385 14.2552,-21.5833 14.8281,-20.625 C15.401,-19.6667 15.6875,-18.651 15.6875,-17.5781 C15.6875,-16.5573 15.4141,-15.6276 14.8672,-14.7891 C14.3203,-13.9505 13.5104,-13.2865 12.4375,-12.7969 C13.8333,-12.474 14.9193,-11.8047 15.6953,-10.7891 C16.4714,-9.77344 16.8594,-8.50521 16.8594,-6.98438 C16.8594,-4.92188 16.1068,-3.17188 14.6016,-1.73438 C13.0964,-0.296875 11.1927,0.421875 8.89063,0.421875 C6.81771,0.421875 5.09635,-0.195313 3.72656,-1.42969 C2.35677,-2.66406 1.57813,-4.26563 1.39063,-6.23438 M19.375,-11.6563 C19.375,-14.4479 19.6615,-16.6953 20.2344,-18.3984 C20.8073,-20.1016 21.6615,-21.4141 22.7969,-22.3359 C23.9323,-23.2578 25.3594,-23.7188 27.0781,-23.7188 C28.3385,-23.7188 29.4479,-23.4635 30.4063,-22.9531 C31.3646,-22.4427 32.1536,-21.7057 32.7734,-20.7422 C33.3932,-19.7786 33.8828,-18.6068 34.2422,-17.2266 C34.6016,-15.8464 34.7813,-13.9896 34.7813,-11.6563 C34.7813,-8.88542 34.4948,-6.64844 33.9219,-4.94531 C33.349,-3.24219 32.4974,-1.92448 31.3672,-0.992188 C30.237,-0.0598958 28.8073,0.40625 27.0781,0.40625 C24.7969,0.40625 23.0052,-0.411458 21.7031,-2.04688 C20.151,-4.01563 19.375,-7.21875 19.375,-11.6563 M22.3438,-11.6563 C22.3438,-7.77083 22.7995,-5.1875 23.7109,-3.90625 C24.6224,-2.625 25.7448,-1.98438 27.0781,-1.98438 C28.401,-1.98438 29.5182,-2.6276 30.4297,-3.91406 C31.3411,-5.20052 31.7969,-7.78125 31.7969,-11.6563 C31.7969,-15.5417 31.3411,-18.1224 30.4297,-19.3984 C29.5182,-20.6745 28.3906,-21.3125 27.0469,-21.3125 C25.7135,-21.3125 24.6458,-20.75 23.8438,-19.625 C22.8438,-18.1875 22.3438,-15.5313 22.3438,-11.6563 "/>
</g>

<g fill="#d9d9d9" fill-opacity="1" stroke="none" transform="matrix(0.75,0,0,0.75,623.723,499.75)"
font-family="MS Shell Dlg 2" font-size="8.25" font-weight="400" font-style="normal" 
>
<path vector-effect="none" fill-rule="evenodd" d="M10.6719,0 L10.6719,-5.65625 L0.421875,-5.65625 L0.421875,-8.3125 L11.2031,-23.625 L13.5625,-23.625 L13.5625,-8.3125 L16.7656,-8.3125 L16.7656,-5.65625 L13.5625,-5.65625 L13.5625,0 L10.6719,0 M10.6719,-8.3125 L10.6719,-18.9688 L3.26563,-8.3125 L10.6719,-8.3125 M19.375,-11.6563 C19.375,-14.4479 19.6615,-16.6953 20.2344,-18.3984 C20.8073,-20.1016 21.6615,-21.4141 22.7969,-22.3359 C23.9323,-23.2578 25.3594,-23.7188 27.0781,-23.7188 C28.3385,-23.7188 29.4479,-23.4635 30.4063,-22.9531 C31.3646,-22.4427 32.1536,-21.7057 32.7734,-20.7422 C33.3932,-19.7786 33.8828,-18.6068 34.2422,-17.2266 C34.6016,-15.8464 34.7813,-13.9896 34.7813,-11.6563 C34.7813,-8.88542 34.4948,-6.64844 33.9219,-4.94531 C33.349,-3.24219 32.4974,-1.92448 31.3672,-0.992188 C30.237,-0.0598958 28.8073,0.40625 27.0781,0.40625 C24.7969,0.40625 23.0052,-0.411458 21.7031,-2.04688 C20.151,-4.01563 19.375,-7.21875 19.375,-11.6563 M22.3438,-11.6563 C22.3438,-7.77083 22.7995,-5.1875 23.7109,-3.90625 C24.6224,-2.625 25.7448,-1.98438 27.0781,-1.98438 C28.401,-1.98438 29.5182,-2.6276 30.4297,-3.91406 C31.3411,-5.20052 31.7969,-7.78125 31.7969,-11.6563 C31.7969,-15.5417 31.3411,-18.1224 30.4297,-19.3984 C29.5182,-20.6745 28.3906,-21.3125 27.0469,-21.3125 C25.7135,-21.3125 24.6458,-20.75 23.8438,-19.625 C22.8438,-18.1875 22.3438,-15.5313 22.3438,-11.6563 "/>
</g>

<g fill="#d9d9d9" fill-opacity="1" stroke="none" transform="matrix(0,-0.75,0.75,0,38.4202,386.795)"
font-family="MS Shell Dlg 2" font-size="8.25" font-weight="400" font-style="normal" 
>
<path vector-effect="none" fill-rule="evenodd" d="M8.20313,-3.84375 C9.02604,-2.80208 10.0521,-1.97917 11.2813,-1.375 C12.5104,-0.770833 13.7917,-0.46875 15.125,-0.46875 C16.2292,-0.46875 17.2578,-0.690104 18.2109,-1.13281 C19.1641,-1.57552 19.9948,-2.1901 20.7031,-2.97656 C21.4115,-3.76302 21.9557,-4.65365 22.3359,-5.64844 C22.7161,-6.64323 22.9063,-7.69271 22.9063,-8.79688 C22.9063,-8.98438 23.0104,-9.07813 23.2188,-9.07813 L23.6563,-9.07813 C23.8438,-9.07813 23.9375,-8.95833 23.9375,-8.71875 C23.9375,-7.46875 23.6979,-6.26042 23.2188,-5.09375 C22.7396,-3.92708 22.0599,-2.90104 21.1797,-2.01563 C20.2995,-1.13021 19.2891,-0.440104 18.1484,0.0546875 C17.0078,0.549479 15.8177,0.796875 14.5781,0.796875 C12.849,0.796875 11.2135,0.447917 9.67188,-0.25 C8.13021,-0.947917 6.78906,-1.90365 5.64844,-3.11719 C4.50781,-4.33073 3.61719,-5.73438 2.97656,-7.32813 C2.33594,-8.92188 2.01563,-10.5833 2.01563,-12.3125 C2.01563,-14.0313 2.33594,-15.6875 2.97656,-17.2813 C3.61719,-18.875 4.50781,-20.2813 5.64844,-21.5 C6.78906,-22.7188 8.13021,-23.6719 9.67188,-24.3594 C11.2135,-25.0469 12.849,-25.3906 14.5781,-25.3906 C15.8073,-25.3906 16.9844,-25.1224 18.1094,-24.5859 C19.2344,-24.0495 20.2188,-23.2969 21.0625,-22.3281 L23.1563,-25.2813 C23.2917,-25.3542 23.3698,-25.3906 23.3906,-25.3906 L23.6563,-25.3906 C23.7292,-25.3906 23.7943,-25.3594 23.8516,-25.2969 C23.9089,-25.2344 23.9375,-25.1615 23.9375,-25.0781 L23.9375,-15.3594 C23.9375,-15.151 23.8438,-15.0469 23.6563,-15.0469 L23.0156,-15.0469 C22.7865,-15.0469 22.6719,-15.151 22.6719,-15.3594 C22.6719,-16.0573 22.5339,-16.8333 22.2578,-17.6875 C21.9818,-18.5417 21.6302,-19.3516 21.2031,-20.1172 C20.776,-20.8828 20.2813,-21.5625 19.7188,-22.1563 C18.375,-23.4688 16.8281,-24.125 15.0781,-24.125 C13.7552,-24.125 12.487,-23.8255 11.2734,-23.2266 C10.0599,-22.6276 9.03646,-21.8021 8.20313,-20.75 C7.32813,-19.625 6.72135,-18.3438 6.38281,-16.9063 C6.04427,-15.4688 5.875,-13.9375 5.875,-12.3125 C5.875,-10.6771 6.04427,-9.13802 6.38281,-7.69531 C6.72135,-6.2526 7.32813,-4.96875 8.20313,-3.84375 "/>
</g>

<g fill="#d9d9d9" fill-opacity="1" stroke="none" transform="matrix(0,-0.75,0.75,0,38.4202,366.934)"
font-family="MS Shell Dlg 2" font-size="8.25" font-weight="400" font-style="normal" 
>
<path vector-effect="none" fill-rule="evenodd" d="M9,0.40625 C7.5625,0.40625 6.22656,0.0390625 4.99219,-0.695313 C3.75781,-1.42969 2.78385,-2.41146 2.07031,-3.64063 C1.35677,-4.86979 1,-6.21354 1,-7.67188 C1,-8.76563 1.19792,-9.82292 1.59375,-10.8438 C1.98958,-11.8646 2.55208,-12.776 3.28125,-13.5781 C4.01042,-14.3802 4.86198,-15.0078 5.83594,-15.4609 C6.8099,-15.9141 7.86458,-16.1406 9,-16.1406 C10.4792,-16.1406 11.8255,-15.75 13.0391,-14.9688 C14.2526,-14.1875 15.2109,-13.1432 15.9141,-11.8359 C16.6172,-10.5286 16.9688,-9.14063 16.9688,-7.67188 C16.9688,-6.22396 16.6094,-4.88281 15.8906,-3.64844 C15.1719,-2.41406 14.2005,-1.42969 12.9766,-0.695313 C11.7526,0.0390625 10.4271,0.40625 9,0.40625 M9,-0.671875 C10.9271,-0.671875 12.2109,-1.36719 12.8516,-2.75781 C13.4922,-4.14844 13.8125,-5.91667 13.8125,-8.0625 C13.8125,-9.27083 13.75,-10.2682 13.625,-11.0547 C13.5,-11.8411 13.2188,-12.5573 12.7813,-13.2031 C12.5104,-13.599 12.1667,-13.9479 11.75,-14.25 C11.3333,-14.5521 10.8932,-14.7813 10.4297,-14.9375 C9.96615,-15.0938 9.48958,-15.1719 9,-15.1719 C8.25,-15.1719 7.53906,-15.0026 6.86719,-14.6641 C6.19531,-14.3255 5.63542,-13.8385 5.1875,-13.2031 C4.73958,-12.526 4.45573,-11.7813 4.33594,-10.9688 C4.21615,-10.1563 4.15625,-9.1875 4.15625,-8.0625 C4.15625,-6.71875 4.27344,-5.51302 4.50781,-4.44531 C4.74219,-3.3776 5.21354,-2.48177 5.92188,-1.75781 C6.63021,-1.03385 7.65625,-0.671875 9,-0.671875 "/>
</g>

<g fill="#d9d9d9" fill-opacity="1" stroke="none" transform="matrix(0,-0.75,0.75,0,38.4202,353.184)"
font-family="MS Shell Dlg 2" font-size="8.25" font-weight="400" font-style="normal" 
>
<path vector-effect="none" fill-rule="evenodd" d="M1.07813,0 L1.07813,-1.26563 C1.89063,-1.26563 2.5625,-1.33073 3.09375,-1.46094 C3.625,-1.59115 3.89063,-1.90625 3.89063,-2.40625 L3.89063,-12.2344 C3.89063,-12.8802 3.79427,-13.3464 3.60156,-13.6328 C3.40885,-13.9193 3.13021,-14.0938 2.76563,-14.1563 C2.40104,-14.2188 1.83854,-14.25 1.07813,-14.25 L1.07813,-15.5156 L6.29688,-15.9063 L6.29688,-12.3906 C6.77604,-13.4219 7.48698,-14.2656 8.42969,-14.9219 C9.3724,-15.5781 10.401,-15.9063 11.5156,-15.9063 C13.1823,-15.9063 14.4349,-15.5078 15.2734,-14.7109 C16.112,-13.9141 16.5313,-12.6979 16.5313,-11.0625 L16.5313,-2.40625 C16.5313,-1.90625 16.7943,-1.59115 17.3203,-1.46094 C17.8464,-1.33073 18.5208,-1.26563 19.3438,-1.26563 L19.3438,0 L11.0938,0 L11.0938,-1.26563 C11.9167,-1.26563 12.5911,-1.33073 13.1172,-1.46094 C13.6432,-1.59115 13.9063,-1.90625 13.9063,-2.40625 L13.9063,-10.9531 C13.9063,-12.1198 13.737,-13.0833 13.3984,-13.8438 C13.0599,-14.6042 12.3594,-14.9844 11.2969,-14.9844 C9.91146,-14.9844 8.76823,-14.4271 7.86719,-13.3125 C6.96615,-12.1979 6.51563,-10.9323 6.51563,-9.51563 L6.51563,-2.40625 C6.51563,-1.90625 6.78125,-1.59115 7.3125,-1.46094 C7.84375,-1.33073 8.51042,-1.26563 9.3125,-1.26563 L9.3125,0 L1.07813,0"/>
</g>

<g fill="#d9d9d9" fill-opacity="1" stroke="none" transform="matrix(0,-0.75,0.75,0,38.4202,337.906)"
font-family="MS Shell Dlg 2" font-size="8.25" font-weight="400" font-style="normal" 
>
<path vector-effect="none" fill-rule="evenodd" d="M8.96875,0.40625 C7.51042,0.40625 6.1901,0.0286458 5.00781,-0.726563 C3.82552,-1.48177 2.89583,-2.48958 2.21875,-3.75 C1.54167,-5.01042 1.20313,-6.34896 1.20313,-7.76563 C1.20313,-9.18229 1.53906,-10.5417 2.21094,-11.8438 C2.88281,-13.1458 3.8125,-14.1875 5,-14.9688 C6.1875,-15.75 7.51042,-16.1406 8.96875,-16.1406 C10.375,-16.1406 11.6536,-15.8646 12.8047,-15.3125 C13.9557,-14.7604 14.5313,-13.8542 14.5313,-12.5938 C14.5313,-12.125 14.3646,-11.7188 14.0313,-11.375 C13.6979,-11.0313 13.2917,-10.8594 12.8125,-10.8594 C12.3333,-10.8594 11.9271,-11.0313 11.5938,-11.375 C11.2604,-11.7188 11.0938,-12.125 11.0938,-12.5938 C11.0938,-13.0104 11.2292,-13.375 11.5,-13.6875 C11.7708,-14 12.1042,-14.1979 12.5,-14.2813 C11.6667,-14.8021 10.5,-15.0625 9,-15.0625 C7.85417,-15.0625 6.92969,-14.6823 6.22656,-13.9219 C5.52344,-13.1615 5.03125,-12.2214 4.75,-11.1016 C4.46875,-9.98177 4.32813,-8.86979 4.32813,-7.76563 C4.32813,-6.60938 4.5,-5.49219 4.84375,-4.41406 C5.1875,-3.33594 5.74479,-2.44271 6.51563,-1.73438 C7.28646,-1.02604 8.25,-0.671875 9.40625,-0.671875 C10.5417,-0.671875 11.5078,-1.01823 12.3047,-1.71094 C13.1016,-2.40365 13.6458,-3.3125 13.9375,-4.4375 C13.9375,-4.58333 14.0313,-4.65625 14.2188,-4.65625 L14.6563,-4.65625 C14.7292,-4.65625 14.7943,-4.6224 14.8516,-4.55469 C14.9089,-4.48698 14.9375,-4.41146 14.9375,-4.32813 L14.9375,-4.23438 C14.5729,-2.80729 13.8516,-1.67708 12.7734,-0.84375 C11.6953,-0.0104167 10.4271,0.40625 8.96875,0.40625 "/>
</g>

<g fill="#d9d9d9" fill-opacity="1" stroke="none" transform="matrix(0,-0.75,0.75,0,38.4202,325.684)"
font-family="MS Shell Dlg 2" font-size="8.25" font-weight="400" font-style="normal" 
>
<path vector-effect="none" fill-rule="evenodd" d="M8.96875,0.40625 C7.5,0.40625 6.15365,0.0208333 4.92969,-0.75 C3.70573,-1.52083 2.74479,-2.54688 2.04688,-3.82813 C1.34896,-5.10938 1,-6.46354 1,-7.89063 C1,-9.29688 1.32031,-10.6328 1.96094,-11.8984 C2.60156,-13.1641 3.49219,-14.1875 4.63281,-14.9688 C5.77344,-15.75 7.04688,-16.1406 8.45313,-16.1406 C9.55729,-16.1406 10.5156,-15.9557 11.3281,-15.5859 C12.1406,-15.2161 12.8125,-14.7031 13.3438,-14.0469 C13.875,-13.3906 14.2734,-12.6172 14.5391,-11.7266 C14.8047,-10.8359 14.9375,-9.85938 14.9375,-8.79688 C14.9375,-8.47396 14.8177,-8.3125 14.5781,-8.3125 L4.15625,-8.3125 L4.15625,-7.92188 C4.15625,-5.94271 4.55729,-4.23958 5.35938,-2.8125 C6.16146,-1.38542 7.46875,-0.671875 9.28125,-0.671875 C10.0208,-0.671875 10.7031,-0.835938 11.3281,-1.16406 C11.9531,-1.49219 12.4974,-1.94792 12.9609,-2.53125 C13.4245,-3.11458 13.7396,-3.73958 13.9063,-4.40625 C13.9271,-4.48958 13.9714,-4.5625 14.0391,-4.625 C14.1068,-4.6875 14.1771,-4.71875 14.25,-4.71875 L14.5781,-4.71875 C14.8177,-4.71875 14.9375,-4.56771 14.9375,-4.26563 C14.6042,-2.90104 13.875,-1.78125 12.75,-0.90625 C11.625,-0.03125 10.3646,0.40625 8.96875,0.40625 M4.1875,-9.21875 L12.3906,-9.21875 C12.3906,-10.1146 12.2656,-11.0234 12.0156,-11.9453 C11.7656,-12.8672 11.3464,-13.6354 10.7578,-14.25 C10.1693,-14.8646 9.40104,-15.1719 8.45313,-15.1719 C7.09896,-15.1719 6.04948,-14.5365 5.30469,-13.2656 C4.5599,-11.9948 4.1875,-10.6458 4.1875,-9.21875 "/>
</g>

<g fill="#d9d9d9" fill-opacity="1" stroke="none" transform="matrix(0,-0.75,0.75,0,38.4202,313.462)"
font-family="MS Shell Dlg 2" font-size="8.25" font-weight="400" font-style="normal" 
>
<path vector-effect="none" fill-rule="evenodd" d="M1.07813,0 L1.07813,-1.26563 C1.89063,-1.26563 2.5625,-1.33073 3.09375,-1.46094 C3.625,-1.59115 3.89063,-1.90625 3.89063,-2.40625 L3.89063,-12.2344 C3.89063,-12.8802 3.79427,-13.3464 3.60156,-13.6328 C3.40885,-13.9193 3.13021,-14.0938 2.76563,-14.1563 C2.40104,-14.2188 1.83854,-14.25 1.07813,-14.25 L1.07813,-15.5156 L6.29688,-15.9063 L6.29688,-12.3906 C6.77604,-13.4219 7.48698,-14.2656 8.42969,-14.9219 C9.3724,-15.5781 10.401,-15.9063 11.5156,-15.9063 C13.1823,-15.9063 14.4349,-15.5078 15.2734,-14.7109 C16.112,-13.9141 16.5313,-12.6979 16.5313,-11.0625 L16.5313,-2.40625 C16.5313,-1.90625 16.7943,-1.59115 17.3203,-1.46094 C17.8464,-1.33073 18.5208,-1.26563 19.3438,-1.26563 L19.3438,0 L11.0938,0 L11.0938,-1.26563 C11.9167,-1.26563 12.5911,-1.33073 13.1172,-1.46094 C13.6432,-1.59115 13.9063,-1.90625 13.9063,-2.40625 L13.9063,-10.9531 C13.9063,-12.1198 13.737,-13.0833 13.3984,-13.8438 C13.0599,-14.6042 12.3594,-14.9844 11.2969,-14.9844 C9.91146,-14.9844 8.76823,-14.4271 7.86719,-13.3125 C6.96615,-12.1979 6.51563,-10.9323 6.51563,-9.51563 L6.51563,-2.40625 C6.51563,-1.90625 6.78125,-1.59115 7.3125,-1.46094 C7.84375,-1.33073 8.51042,-1.26563 9.3125,-1.26563 L9.3125,0 L1.07813,0"/>
</g>

<g fill="#d9d9d9" fill-opacity="1" stroke="none" transform="matrix(0,-0.75,0.75,0,38.4202,298.948)"
font-family="MS Shell Dlg 2" font-size="8.25" font-weight="400" font-style="normal" 
>
<path vector-effect="none" fill-rule="evenodd" d="M3.67188,-4.32813 L3.67188,-14.25 L0.6875,-14.25 L0.6875,-15.1875 C2.26042,-15.1875 3.41406,-15.9193 4.14844,-17.3828 C4.88281,-18.8464 5.25,-20.4375 5.25,-22.1563 L6.29688,-22.1563 L6.29688,-15.5156 L11.375,-15.5156 L11.375,-14.25 L6.29688,-14.25 L6.29688,-4.40625 C6.29688,-3.41667 6.46354,-2.54688 6.79688,-1.79688 C7.13021,-1.04688 7.72917,-0.671875 8.59375,-0.671875 C9.41667,-0.671875 10.0104,-1.0651 10.375,-1.85156 C10.7396,-2.63802 10.9219,-3.48958 10.9219,-4.40625 L10.9219,-6.53125 L11.9531,-6.53125 L11.9531,-4.32813 C11.9531,-3.57813 11.8151,-2.83594 11.5391,-2.10156 C11.263,-1.36719 10.8568,-0.765625 10.3203,-0.296875 C9.78385,0.171875 9.125,0.40625 8.34375,0.40625 C6.90625,0.40625 5.76823,-0.0260417 4.92969,-0.890625 C4.09115,-1.75521 3.67188,-2.90104 3.67188,-4.32813 "/>
</g>

<g fill="#d9d9d9" fill-opacity="1" stroke="none" transform="matrix(0,-0.75,0.75,0,38.4202,288.253)"
font-family="MS Shell Dlg 2" font-size="8.25" font-weight="400" font-style="normal" 
>
<path vector-effect="none" fill-rule="evenodd" d="M0.9375,0 L0.9375,-1.26563 C1.75,-1.26563 2.42188,-1.33073 2.95313,-1.46094 C3.48438,-1.59115 3.75,-1.90625 3.75,-2.40625 L3.75,-12.2344 C3.75,-12.8802 3.65365,-13.3464 3.46094,-13.6328 C3.26823,-13.9193 2.98958,-14.0938 2.625,-14.1563 C2.26042,-14.2188 1.69792,-14.25 0.9375,-14.25 L0.9375,-15.5156 L6.07813,-15.9063 L6.07813,-12.3906 C6.46354,-13.4323 7.01563,-14.2786 7.73438,-14.9297 C8.45313,-15.5807 9.32292,-15.9063 10.3438,-15.9063 C11.0521,-15.9063 11.6875,-15.6953 12.25,-15.2734 C12.8125,-14.8516 13.0938,-14.2969 13.0938,-13.6094 C13.0938,-13.1719 12.9401,-12.7917 12.6328,-12.4688 C12.3255,-12.1458 11.9427,-11.9844 11.4844,-11.9844 C11.0365,-11.9844 10.6536,-12.1432 10.3359,-12.4609 C10.0182,-12.7786 9.85938,-13.1615 9.85938,-13.6094 C9.85938,-14.2552 10.0885,-14.7135 10.5469,-14.9844 L10.3438,-14.9844 C9.36458,-14.9844 8.56771,-14.6328 7.95313,-13.9297 C7.33854,-13.2266 6.90365,-12.3516 6.64844,-11.3047 C6.39323,-10.2578 6.26563,-9.26042 6.26563,-8.3125 L6.26563,-2.40625 C6.26563,-1.64583 7.42708,-1.26563 9.75,-1.26563 L9.75,0 L0.9375,0"/>
</g>

<g fill="#d9d9d9" fill-opacity="1" stroke="none" transform="matrix(0,-0.75,0.75,0,38.4202,277.483)"
font-family="MS Shell Dlg 2" font-size="8.25" font-weight="400" font-style="normal" 
>
<path vector-effect="none" fill-rule="evenodd" d="M1.4375,-3.53125 C1.4375,-4.95833 2,-6.1224 3.125,-7.02344 C4.25,-7.92448 5.60156,-8.55729 7.17969,-8.92188 C8.75781,-9.28646 10.2552,-9.46875 11.6719,-9.46875 L11.6719,-10.9531 C11.6719,-11.6406 11.5208,-12.3073 11.2188,-12.9531 C10.9167,-13.599 10.4766,-14.1302 9.89844,-14.5469 C9.32031,-14.9635 8.6875,-15.1719 8,-15.1719 C6.40625,-15.1719 5.19271,-14.8125 4.35938,-14.0938 C4.81771,-14.0938 5.19531,-13.9219 5.49219,-13.5781 C5.78906,-13.2344 5.9375,-12.8385 5.9375,-12.3906 C5.9375,-11.9115 5.76823,-11.5026 5.42969,-11.1641 C5.09115,-10.8255 4.6875,-10.6563 4.21875,-10.6563 C3.73958,-10.6563 3.33073,-10.8255 2.99219,-11.1641 C2.65365,-11.5026 2.48438,-11.9115 2.48438,-12.3906 C2.48438,-13.6615 3.05729,-14.6042 4.20313,-15.2188 C5.34896,-15.8333 6.61458,-16.1406 8,-16.1406 C8.96875,-16.1406 9.94531,-15.9323 10.9297,-15.5156 C11.9141,-15.099 12.7214,-14.5052 13.3516,-13.7344 C13.9818,-12.9635 14.2969,-12.0625 14.2969,-11.0313 L14.2969,-2.9375 C14.2969,-2.46875 14.3958,-2.03906 14.5938,-1.64844 C14.7917,-1.25781 15.099,-1.0625 15.5156,-1.0625 C15.9219,-1.0625 16.2214,-1.25781 16.4141,-1.64844 C16.6068,-2.03906 16.7031,-2.46354 16.7031,-2.92188 L16.7031,-5.20313 L17.75,-5.20313 L17.75,-2.90625 C17.75,-2.375 17.6094,-1.86458 17.3281,-1.375 C17.0469,-0.885417 16.6693,-0.497396 16.1953,-0.210938 C15.7214,0.0755208 15.2083,0.21875 14.6563,0.21875 C13.9583,0.21875 13.3542,-0.0572917 12.8438,-0.609375 C12.3333,-1.16146 12.0469,-1.8125 11.9844,-2.5625 C11.5469,-1.65625 10.8932,-0.934896 10.0234,-0.398438 C9.15365,0.138021 8.22917,0.40625 7.25,0.40625 C6.33333,0.40625 5.43229,0.270833 4.54688,0 C3.66146,-0.270833 2.92188,-0.695313 2.32813,-1.27344 C1.73438,-1.85156 1.4375,-2.60417 1.4375,-3.53125 M4.35938,-3.53125 C4.35938,-2.69792 4.66927,-1.99479 5.28906,-1.42188 C5.90885,-0.848958 6.64063,-0.5625 7.48438,-0.5625 C8.26563,-0.5625 8.97135,-0.755208 9.60156,-1.14063 C10.2318,-1.52604 10.7344,-2.05208 11.1094,-2.71875 C11.4844,-3.38542 11.6719,-4.08333 11.6719,-4.8125 L11.6719,-8.54688 C10.5781,-8.54688 9.46094,-8.36719 8.32031,-8.00781 C7.17969,-7.64844 6.23438,-7.09115 5.48438,-6.33594 C4.73438,-5.58073 4.35938,-4.64583 4.35938,-3.53125 "/>
</g>

<g fill="#d9d9d9" fill-opacity="1" stroke="none" transform="matrix(0,-0.75,0.75,0,38.4202,263.733)"
font-family="MS Shell Dlg 2" font-size="8.25" font-weight="400" font-style="normal" 
>
<path vector-effect="none" fill-rule="evenodd" d="M3.67188,-4.32813 L3.67188,-14.25 L0.6875,-14.25 L0.6875,-15.1875 C2.26042,-15.1875 3.41406,-15.9193 4.14844,-17.3828 C4.88281,-18.8464 5.25,-20.4375 5.25,-22.1563 L6.29688,-22.1563 L6.29688,-15.5156 L11.375,-15.5156 L11.375,-14.25 L6.29688,-14.25 L6.29688,-4.40625 C6.29688,-3.41667 6.46354,-2.54688 6.79688,-1.79688 C7.13021,-1.04688 7.72917,-0.671875 8.59375,-0.671875 C9.41667,-0.671875 10.0104,-1.0651 10.375,-1.85156 C10.7396,-2.63802 10.9219,-3.48958 10.9219,-4.40625 L10.9219,-6.53125 L11.9531,-6.53125 L11.9531,-4.32813 C11.9531,-3.57813 11.8151,-2.83594 11.5391,-2.10156 C11.263,-1.36719 10.8568,-0.765625 10.3203,-0.296875 C9.78385,0.171875 9.125,0.40625 8.34375,0.40625 C6.90625,0.40625 5.76823,-0.0260417 4.92969,-0.890625 C4.09115,-1.75521 3.67188,-2.90104 3.67188,-4.32813 "/>
</g>

<g fill="#d9d9d9" fill-opacity="1" stroke="none" transform="matrix(0,-0.75,0.75,0,38.4202,253.038)"
font-family="MS Shell Dlg 2" font-size="8.25" font-weight="400" font-style="normal" 
>
<path vector-effect="none" fill-rule="evenodd" d="M1.10938,0 L1.10938,-1.26563 C1.93229,-1.26563 2.60677,-1.33073 3.13281,-1.46094 C3.65885,-1.59115 3.92188,-1.90625 3.92188,-2.40625 L3.92188,-12.2344 C3.92188,-13.1615 3.74219,-13.7292 3.38281,-13.9375 C3.02344,-14.1458 2.31771,-14.25 1.26563,-14.25 L1.26563,-15.5156 L6.45313,-15.9063 L6.45313,-2.40625 C6.45313,-1.90625 6.68229,-1.59115 7.14063,-1.46094 C7.59896,-1.33073 8.20833,-1.26563 8.96875,-1.26563 L8.96875,0 L1.10938,0 M2.64063,-22.0938 C2.64063,-22.625 2.83854,-23.0885 3.23438,-23.4844 C3.63021,-23.8802 4.08854,-24.0781 4.60938,-24.0781 C4.94271,-24.0781 5.26823,-23.9922 5.58594,-23.8203 C5.90365,-23.6484 6.15104,-23.4036 6.32813,-23.0859 C6.50521,-22.7682 6.59375,-22.4375 6.59375,-22.0938 C6.59375,-21.5833 6.39323,-21.1276 5.99219,-20.7266 C5.59115,-20.3255 5.13021,-20.125 4.60938,-20.125 C4.08854,-20.125 3.63021,-20.3255 3.23438,-20.7266 C2.83854,-21.1276 2.64063,-21.5833 2.64063,-22.0938 "/>
</g>

<g fill="#d9d9d9" fill-opacity="1" stroke="none" transform="matrix(0,-0.75,0.75,0,38.4202,245.399)"
font-family="MS Shell Dlg 2" font-size="8.25" font-weight="400" font-style="normal" 
>
<path vector-effect="none" fill-rule="evenodd" d="M9,0.40625 C7.5625,0.40625 6.22656,0.0390625 4.99219,-0.695313 C3.75781,-1.42969 2.78385,-2.41146 2.07031,-3.64063 C1.35677,-4.86979 1,-6.21354 1,-7.67188 C1,-8.76563 1.19792,-9.82292 1.59375,-10.8438 C1.98958,-11.8646 2.55208,-12.776 3.28125,-13.5781 C4.01042,-14.3802 4.86198,-15.0078 5.83594,-15.4609 C6.8099,-15.9141 7.86458,-16.1406 9,-16.1406 C10.4792,-16.1406 11.8255,-15.75 13.0391,-14.9688 C14.2526,-14.1875 15.2109,-13.1432 15.9141,-11.8359 C16.6172,-10.5286 16.9688,-9.14063 16.9688,-7.67188 C16.9688,-6.22396 16.6094,-4.88281 15.8906,-3.64844 C15.1719,-2.41406 14.2005,-1.42969 12.9766,-0.695313 C11.7526,0.0390625 10.4271,0.40625 9,0.40625 M9,-0.671875 C10.9271,-0.671875 12.2109,-1.36719 12.8516,-2.75781 C13.4922,-4.14844 13.8125,-5.91667 13.8125,-8.0625 C13.8125,-9.27083 13.75,-10.2682 13.625,-11.0547 C13.5,-11.8411 13.2188,-12.5573 12.7813,-13.2031 C12.5104,-13.599 12.1667,-13.9479 11.75,-14.25 C11.3333,-14.5521 10.8932,-14.7813 10.4297,-14.9375 C9.96615,-15.0938 9.48958,-15.1719 9,-15.1719 C8.25,-15.1719 7.53906,-15.0026 6.86719,-14.6641 C6.19531,-14.3255 5.63542,-13.8385 5.1875,-13.2031 C4.73958,-12.526 4.45573,-11.7813 4.33594,-10.9688 C4.21615,-10.1563 4.15625,-9.1875 4.15625,-8.0625 C4.15625,-6.71875 4.27344,-5.51302 4.50781,-4.44531 C4.74219,-3.3776 5.21354,-2.48177 5.92188,-1.75781 C6.63021,-1.03385 7.65625,-0.671875 9,-0.671875 "/>
</g>

<g fill="#d9d9d9" fill-opacity="1" stroke="none" transform="matrix(0,-0.75,0.75,0,38.4202,231.649)"
font-family="MS Shell Dlg 2" font-size="8.25" font-weight="400" font-style="normal" 
>
<path vector-effect="none" fill-rule="evenodd" d="M1.07813,0 L1.07813,-1.26563 C1.89063,-1.26563 2.5625,-1.33073 3.09375,-1.46094 C3.625,-1.59115 3.89063,-1.90625 3.89063,-2.40625 L3.89063,-12.2344 C3.89063,-12.8802 3.79427,-13.3464 3.60156,-13.6328 C3.40885,-13.9193 3.13021,-14.0938 2.76563,-14.1563 C2.40104,-14.2188 1.83854,-14.25 1.07813,-14.25 L1.07813,-15.5156 L6.29688,-15.9063 L6.29688,-12.3906 C6.77604,-13.4219 7.48698,-14.2656 8.42969,-14.9219 C9.3724,-15.5781 10.401,-15.9063 11.5156,-15.9063 C13.1823,-15.9063 14.4349,-15.5078 15.2734,-14.7109 C16.112,-13.9141 16.5313,-12.6979 16.5313,-11.0625 L16.5313,-2.40625 C16.5313,-1.90625 16.7943,-1.59115 17.3203,-1.46094 C17.8464,-1.33073 18.5208,-1.26563 19.3438,-1.26563 L19.3438,0 L11.0938,0 L11.0938,-1.26563 C11.9167,-1.26563 12.5911,-1.33073 13.1172,-1.46094 C13.6432,-1.59115 13.9063,-1.90625 13.9063,-2.40625 L13.9063,-10.9531 C13.9063,-12.1198 13.737,-13.0833 13.3984,-13.8438 C13.0599,-14.6042 12.3594,-14.9844 11.2969,-14.9844 C9.91146,-14.9844 8.76823,-14.4271 7.86719,-13.3125 C6.96615,-12.1979 6.51563,-10.9323 6.51563,-9.51563 L6.51563,-2.40625 C6.51563,-1.90625 6.78125,-1.59115 7.3125,-1.46094 C7.84375,-1.33073 8.51042,-1.26563 9.3125,-1.26563 L9.3125,0 L1.07813,0"/>
</g>

<g fill="#d9d9d9" fill-opacity="1" stroke="none" transform="matrix(0,-0.75,0.75,0,38.4202,207.205)"
font-family="MS Shell Dlg 2" font-size="8.25" font-weight="400" font-style="normal" 
>
<path vector-effect="none" fill-rule="evenodd" d="M4.25,9 L4.25,-27 L9.17188,-27 L9.17188,-25.5625 L5.70313,-25.5625 L5.70313,7.5625 L9.17188,7.5625 L9.17188,9 L4.25,9"/>
</g>

<g fill="#d9d9d9" fill-opacity="1" stroke="none" transform="matrix(0,-0.75,0.75,0,38.4202,199.566)"
font-family="MS Shell Dlg 2" font-size="8.25" font-weight="400" font-style="normal" 
>
<path vector-effect="none" fill-rule="evenodd" d="M1.07813,0 L1.07813,-1.26563 C1.89063,-1.26563 2.5625,-1.33073 3.09375,-1.46094 C3.625,-1.59115 3.89063,-1.90625 3.89063,-2.40625 L3.89063,-12.2344 C3.89063,-12.8802 3.79427,-13.3464 3.60156,-13.6328 C3.40885,-13.9193 3.13021,-14.0938 2.76563,-14.1563 C2.40104,-14.2188 1.83854,-14.25 1.07813,-14.25 L1.07813,-15.5156 L6.29688,-15.9063 L6.29688,-12.3906 C6.77604,-13.4219 7.48698,-14.2656 8.42969,-14.9219 C9.3724,-15.5781 10.401,-15.9063 11.5156,-15.9063 C14.276,-15.9063 15.901,-14.7813 16.3906,-12.5313 C16.8698,-13.5417 17.5703,-14.3568 18.4922,-14.9766 C19.4141,-15.5964 20.4271,-15.9063 21.5313,-15.9063 C22.625,-15.9063 23.5443,-15.7318 24.2891,-15.3828 C25.0339,-15.0339 25.5938,-14.4974 25.9688,-13.7734 C26.3438,-13.0495 26.5313,-12.1458 26.5313,-11.0625 L26.5313,-2.40625 C26.5313,-1.90625 26.7969,-1.59115 27.3281,-1.46094 C27.8594,-1.33073 28.5313,-1.26563 29.3438,-1.26563 L29.3438,0 L21.0938,0 L21.0938,-1.26563 C21.9167,-1.26563 22.5911,-1.33073 23.1172,-1.46094 C23.6432,-1.59115 23.9063,-1.90625 23.9063,-2.40625 L23.9063,-10.9531 C23.9063,-12.1615 23.737,-13.1354 23.3984,-13.875 C23.0599,-14.6146 22.3646,-14.9844 21.3125,-14.9844 C19.9271,-14.9844 18.7839,-14.4271 17.8828,-13.3125 C16.9818,-12.1979 16.5313,-10.9323 16.5313,-9.51563 L16.5313,-2.40625 C16.5313,-1.90625 16.7943,-1.59115 17.3203,-1.46094 C17.8464,-1.33073 18.5208,-1.26563 19.3438,-1.26563 L19.3438,0 L11.0938,0 L11.0938,-1.26563 C11.9167,-1.26563 12.5911,-1.33073 13.1172,-1.46094 C13.6432,-1.59115 13.9063,-1.90625 13.9063,-2.40625 L13.9063,-10.9531 C13.9063,-12.1198 13.737,-13.0833 13.3984,-13.8438 C13.0599,-14.6042 12.3594,-14.9844 11.2969,-14.9844 C9.91146,-14.9844 8.76823,-14.4271 7.86719,-13.3125 C6.96615,-12.1979 6.51563,-10.9323 6.51563,-9.51563 L6.51563,-2.40625 C6.51563,-1.90625 6.78125,-1.59115 7.3125,-1.46094 C7.84375,-1.33073 8.51042,-1.26563 9.3125,-1.26563 L9.3125,0 L1.07813,0"/>
</g>

<g fill="#d9d9d9" fill-opacity="1" stroke="none" transform="matrix(0,-0.75,0.75,0,38.4202,176.649)"
font-family="MS Shell Dlg 2" font-size="8.25" font-weight="400" font-style="normal" 
>
<path vector-effect="none" fill-rule="evenodd" d="M9,0.40625 C7.5625,0.40625 6.22656,0.0390625 4.99219,-0.695313 C3.75781,-1.42969 2.78385,-2.41146 2.07031,-3.64063 C1.35677,-4.86979 1,-6.21354 1,-7.67188 C1,-8.76563 1.19792,-9.82292 1.59375,-10.8438 C1.98958,-11.8646 2.55208,-12.776 3.28125,-13.5781 C4.01042,-14.3802 4.86198,-15.0078 5.83594,-15.4609 C6.8099,-15.9141 7.86458,-16.1406 9,-16.1406 C10.4792,-16.1406 11.8255,-15.75 13.0391,-14.9688 C14.2526,-14.1875 15.2109,-13.1432 15.9141,-11.8359 C16.6172,-10.5286 16.9688,-9.14063 16.9688,-7.67188 C16.9688,-6.22396 16.6094,-4.88281 15.8906,-3.64844 C15.1719,-2.41406 14.2005,-1.42969 12.9766,-0.695313 C11.7526,0.0390625 10.4271,0.40625 9,0.40625 M9,-0.671875 C10.9271,-0.671875 12.2109,-1.36719 12.8516,-2.75781 C13.4922,-4.14844 13.8125,-5.91667 13.8125,-8.0625 C13.8125,-9.27083 13.75,-10.2682 13.625,-11.0547 C13.5,-11.8411 13.2188,-12.5573 12.7813,-13.2031 C12.5104,-13.599 12.1667,-13.9479 11.75,-14.25 C11.3333,-14.5521 10.8932,-14.7813 10.4297,-14.9375 C9.96615,-15.0938 9.48958,-15.1719 9,-15.1719 C8.25,-15.1719 7.53906,-15.0026 6.86719,-14.6641 C6.19531,-14.3255 5.63542,-13.8385 5.1875,-13.2031 C4.73958,-12.526 4.45573,-11.7813 4.33594,-10.9688 C4.21615,-10.1563 4.15625,-9.1875 4.15625,-8.0625 C4.15625,-6.71875 4.27344,-5.51302 4.50781,-4.44531 C4.74219,-3.3776 5.21354,-2.48177 5.92188,-1.75781 C6.63021,-1.03385 7.65625,-0.671875 9,-0.671875 "/>
</g>

<g fill="#d9d9d9" fill-opacity="1" stroke="none" transform="matrix(0,-0.75,0.75,0,38.4202,162.899)"
font-family="MS Shell Dlg 2" font-size="8.25" font-weight="400" font-style="normal" 
>
<path vector-effect="none" fill-rule="evenodd" d="M1.10938,0 L1.10938,-1.26563 C1.93229,-1.26563 2.60677,-1.33073 3.13281,-1.46094 C3.65885,-1.59115 3.92188,-1.90625 3.92188,-2.40625 L3.92188,-21.3125 C3.92188,-21.9479 3.82552,-22.4115 3.63281,-22.7031 C3.4401,-22.9948 3.16146,-23.1719 2.79688,-23.2344 C2.43229,-23.2969 1.86979,-23.3281 1.10938,-23.3281 L1.10938,-24.5938 L6.45313,-24.9844 L6.45313,-2.40625 C6.45313,-1.90625 6.71615,-1.59115 7.24219,-1.46094 C7.76823,-1.33073 8.4375,-1.26563 9.25,-1.26563 L9.25,0 L1.10938,0"/>
</g>

<g fill="#d9d9d9" fill-opacity="1" stroke="none" transform="matrix(0,-0.75,0.75,0,38.4202,155.26)"
font-family="MS Shell Dlg 2" font-size="8.25" font-weight="400" font-style="normal" 
>
<path vector-effect="none" fill-rule="evenodd" d="M2.01563,8.28125 C2.01563,8.20833 2.03125,8.16146 2.0625,8.14063 L14.5781,-26.5625 C14.6198,-26.6979 14.7005,-26.8047 14.8203,-26.8828 C14.9401,-26.9609 15.0729,-27 15.2188,-27 C15.4375,-27 15.612,-26.9349 15.7422,-26.8047 C15.8724,-26.6745 15.9375,-26.5 15.9375,-26.2813 L15.9375,-26.1406 L3.42188,8.5625 C3.28646,8.85417 3.0625,9 2.75,9 C2.54167,9 2.36719,8.92969 2.22656,8.78906 C2.08594,8.64844 2.01563,8.47917 2.01563,8.28125 "/>
</g>

<g fill="#d9d9d9" fill-opacity="1" stroke="none" transform="matrix(0,-0.75,0.75,0,38.4202,141.51)"
font-family="MS Shell Dlg 2" font-size="8.25" font-weight="400" font-style="normal" 
>
<path vector-effect="none" fill-rule="evenodd" d="M1.07813,0 L1.07813,-1.26563 C1.89063,-1.26563 2.5625,-1.33073 3.09375,-1.46094 C3.625,-1.59115 3.89063,-1.90625 3.89063,-2.40625 L3.89063,-12.2344 C3.89063,-12.8802 3.79427,-13.3464 3.60156,-13.6328 C3.40885,-13.9193 3.13021,-14.0938 2.76563,-14.1563 C2.40104,-14.2188 1.83854,-14.25 1.07813,-14.25 L1.07813,-15.5156 L6.29688,-15.9063 L6.29688,-12.3906 C6.77604,-13.4219 7.48698,-14.2656 8.42969,-14.9219 C9.3724,-15.5781 10.401,-15.9063 11.5156,-15.9063 C14.276,-15.9063 15.901,-14.7813 16.3906,-12.5313 C16.8698,-13.5417 17.5703,-14.3568 18.4922,-14.9766 C19.4141,-15.5964 20.4271,-15.9063 21.5313,-15.9063 C22.625,-15.9063 23.5443,-15.7318 24.2891,-15.3828 C25.0339,-15.0339 25.5938,-14.4974 25.9688,-13.7734 C26.3438,-13.0495 26.5313,-12.1458 26.5313,-11.0625 L26.5313,-2.40625 C26.5313,-1.90625 26.7969,-1.59115 27.3281,-1.46094 C27.8594,-1.33073 28.5313,-1.26563 29.3438,-1.26563 L29.3438,0 L21.0938,0 L21.0938,-1.26563 C21.9167,-1.26563 22.5911,-1.33073 23.1172,-1.46094 C23.6432,-1.59115 23.9063,-1.90625 23.9063,-2.40625 L23.9063,-10.9531 C23.9063,-12.1615 23.737,-13.1354 23.3984,-13.875 C23.0599,-14.6146 22.3646,-14.9844 21.3125,-14.9844 C19.9271,-14.9844 18.7839,-14.4271 17.8828,-13.3125 C16.9818,-12.1979 16.5313,-10.9323 16.5313,-9.51563 L16.5313,-2.40625 C16.5313,-1.90625 16.7943,-1.59115 17.3203,-1.46094 C17.8464,-1.33073 18.5208,-1.26563 19.3438,-1.26563 L19.3438,0 L11.0938,0 L11.0938,-1.26563 C11.9167,-1.26563 12.5911,-1.33073 13.1172,-1.46094 C13.6432,-1.59115 13.9063,-1.90625 13.9063,-2.40625 L13.9063,-10.9531 C13.9063,-12.1198 13.737,-13.0833 13.3984,-13.8438 C13.0599,-14.6042 12.3594,-14.9844 11.2969,-14.9844 C9.91146,-14.9844 8.76823,-14.4271 7.86719,-13.3125 C6.96615,-12.1979 6.51563,-10.9323 6.51563,-9.51563 L6.51563,-2.40625 C6.51563,-1.90625 6.78125,-1.59115 7.3125,-1.46094 C7.84375,-1.33073 8.51042,-1.26563 9.3125,-1.26563 L9.3125,0 L1.07813,0"/>
</g>

<g fill="#d9d9d9" fill-opacity="1" stroke="none" transform="matrix(0,-0.75,0.75,0,28.4406,118.593)"
font-family="MS Shell Dlg 2" font-size="8.25" font-weight="400" font-style="normal" 
>
<path vector-effect="none" fill-rule="evenodd" d="M2.375,-1.9375 C2.77083,-1.375 3.29688,-0.953125 3.95313,-0.671875 C4.60938,-0.390625 5.31771,-0.25 6.07813,-0.25 C7.04688,-0.25 7.73438,-0.664063 8.14063,-1.49219 C8.54688,-2.32031 8.75,-3.26042 8.75,-4.3125 C8.75,-4.78125 8.70833,-5.2526 8.625,-5.72656 C8.54167,-6.20052 8.39844,-6.64063 8.19531,-7.04688 C7.99219,-7.45313 7.71354,-7.77865 7.35938,-8.02344 C7.00521,-8.26823 6.57292,-8.39063 6.0625,-8.39063 L4.39063,-8.39063 C4.24479,-8.39063 4.17188,-8.46354 4.17188,-8.60938 L4.17188,-8.82813 C4.17188,-8.95313 4.24479,-9.01563 4.39063,-9.01563 L5.78125,-9.125 C6.36458,-9.125 6.84896,-9.34635 7.23438,-9.78906 C7.61979,-10.2318 7.90104,-10.7682 8.07813,-11.3984 C8.25521,-12.0286 8.34375,-12.6302 8.34375,-13.2031 C8.34375,-13.9948 8.15885,-14.6484 7.78906,-15.1641 C7.41927,-15.6797 6.84896,-15.9375 6.07813,-15.9375 C5.44271,-15.9375 4.83594,-15.8151 4.25781,-15.5703 C3.67969,-15.3255 3.21875,-14.9635 2.875,-14.4844 C2.91667,-14.4844 2.94792,-14.487 2.96875,-14.4922 C2.98958,-14.4974 3.01563,-14.5 3.04688,-14.5 C3.42188,-14.5 3.73698,-14.3698 3.99219,-14.1094 C4.2474,-13.849 4.375,-13.5365 4.375,-13.1719 C4.375,-12.8177 4.2474,-12.5104 3.99219,-12.25 C3.73698,-11.9896 3.42188,-11.8594 3.04688,-11.8594 C2.68229,-11.8594 2.36979,-11.9896 2.10938,-12.25 C1.84896,-12.5104 1.71875,-12.8177 1.71875,-13.1719 C1.71875,-13.8906 1.9349,-14.513 2.36719,-15.0391 C2.79948,-15.5651 3.35417,-15.9661 4.03125,-16.2422 C4.70833,-16.5182 5.39063,-16.6563 6.07813,-16.6563 C6.58854,-16.6563 7.1224,-16.5807 7.67969,-16.4297 C8.23698,-16.2786 8.74479,-16.0625 9.20313,-15.7813 C9.66146,-15.5 10.0339,-15.1406 10.3203,-14.7031 C10.6068,-14.2656 10.75,-13.7656 10.75,-13.2031 C10.75,-12.5052 10.5938,-11.8594 10.2813,-11.2656 C9.96875,-10.6719 9.53906,-10.1589 8.99219,-9.72656 C8.44531,-9.29427 7.84896,-8.97396 7.20313,-8.76563 C7.92188,-8.61979 8.60677,-8.34375 9.25781,-7.9375 C9.90885,-7.53125 10.4323,-7.01042 10.8281,-6.375 C11.224,-5.73958 11.4219,-5.05729 11.4219,-4.32813 C11.4219,-3.40104 11.1693,-2.5651 10.6641,-1.82031 C10.1589,-1.07552 9.4974,-0.494792 8.67969,-0.078125 C7.86198,0.338542 6.99479,0.546875 6.07813,0.546875 C5.29688,0.546875 4.51302,0.398438 3.72656,0.101563 C2.9401,-0.195313 2.29688,-0.640625 1.79688,-1.23438 C1.29688,-1.82813 1.04688,-2.54167 1.04688,-3.375 C1.04688,-3.79167 1.1849,-4.13802 1.46094,-4.41406 C1.73698,-4.6901 2.08333,-4.82813 2.5,-4.82813 C2.77083,-4.82813 3.01823,-4.76563 3.24219,-4.64063 C3.46615,-4.51563 3.64063,-4.33854 3.76563,-4.10938 C3.89063,-3.88021 3.95313,-3.63542 3.95313,-3.375 C3.95313,-2.96875 3.8099,-2.6276 3.52344,-2.35156 C3.23698,-2.07552 2.89583,-1.9375 2.5,-1.9375 L2.375,-1.9375"/>
</g>

<g fill="#d9d9d9" fill-opacity="1" stroke="none" transform="matrix(0,-0.75,0.75,0,38.4202,107.593)"
font-family="MS Shell Dlg 2" font-size="8.25" font-weight="400" font-style="normal" 
>
<path vector-effect="none" fill-rule="evenodd" d="M0.796875,9 L0.796875,7.5625 L4.29688,7.5625 L4.29688,-25.5625 L0.796875,-25.5625 L0.796875,-27 L5.73438,-27 L5.73438,9 L0.796875,9"/>
</g>

<g fill="#d9d9d9" fill-opacity="1" stroke="#d9d9d9" stroke-opacity="1" stroke-width="0.666667" stroke-linecap="square" stroke-linejoin="round" transform="matrix(0.75,0,0,0.75,0,0)"
font-family="MS Shell Dlg 2" font-size="8.25" font-weight="400" font-style="normal" 
>
<polyline fill="none" vector-effect="none" points="181,627 181,18 " />
<polyline fill="none" vector-effect="none" points="1016,627 1016,18 " />
<polyline fill="none" vector-effect="none" points="181,627 189.35,627 " />
<polyline fill="none" vector-effect="none" points="1007.65,627 1016,627 " />
<polyline fill="none" vector-effect="none" points="181,516.667 189.35,516.667 " />
<polyline fill="none" vector-effect="none" points="1007.65,516.667 1016,516.667 " />
<polyline fill="none" vector-effect="none" points="181,406.334 189.35,406.334 " />
<polyline fill="none" vector-effect="none" points="1007.65,406.334 1016,406.334 " />
<polyline fill="none" vector-effect="none" points="181,296.001 189.35,296.001 " />
<polyline fill="none" vector-effect="none" points="1007.65,296.001 1016,296.001 " />
<polyline fill="none" vector-effect="none" points="181,185.668 189.35,185.668 " />
<polyline fill="none" vector-effect="none" points="1007.65,185.668 1016,185.668 " />
<polyline fill="none" vector-effect="none" points="181,75.3345 189.35,75.3345 " />
<polyline fill="none" vector-effect="none" points="1007.65,75.3345 1016,75.3345 " />
</g>

<g fill="#d9d9d9" fill-opacity="1" stroke="none" transform="matrix(0.75,0,0,0.75,115.25,478.875)"
font-family="MS Shell Dlg 2" font-size="8.25" font-weight="400" font-style="normal" 
>
<path vector-effect="none" fill-rule="evenodd" d="M1.375,-11.6563 C1.375,-14.4479 1.66146,-16.6953 2.23438,-18.3984 C2.80729,-20.1016 3.66146,-21.4141 4.79688,-22.3359 C5.93229,-23.2578 7.35938,-23.7188 9.07813,-23.7188 C10.3385,-23.7188 11.4479,-23.4635 12.4063,-22.9531 C13.3646,-22.4427 14.1536,-21.7057 14.7734,-20.7422 C15.3932,-19.7786 15.8828,-18.6068 16.2422,-17.2266 C16.6016,-15.8464 16.7813,-13.9896 16.7813,-11.6563 C16.7813,-8.88542 16.4948,-6.64844 15.9219,-4.94531 C15.349,-3.24219 14.4974,-1.92448 13.3672,-0.992188 C12.237,-0.0598958 10.8073,0.40625 9.07813,0.40625 C6.79688,0.40625 5.00521,-0.411458 3.70313,-2.04688 C2.15104,-4.01563 1.375,-7.21875 1.375,-11.6563 M4.34375,-11.6563 C4.34375,-7.77083 4.79948,-5.1875 5.71094,-3.90625 C6.6224,-2.625 7.74479,-1.98438 9.07813,-1.98438 C10.401,-1.98438 11.5182,-2.6276 12.4297,-3.91406 C13.3411,-5.20052 13.7969,-7.78125 13.7969,-11.6563 C13.7969,-15.5417 13.3411,-18.1224 12.4297,-19.3984 C11.5182,-20.6745 10.3906,-21.3125 9.04688,-21.3125 C7.71354,-21.3125 6.64583,-20.75 5.84375,-19.625 C4.84375,-18.1875 4.34375,-15.5313 4.34375,-11.6563 "/>
</g>

<g fill="#d9d9d9" fill-opacity="1" stroke="none" transform="matrix(0.75,0,0,0.75,81.5,396.125)"
font-family="MS Shell Dlg 2" font-size="8.25" font-weight="400" font-style="normal" 
>
<path vector-effect="none" fill-rule="evenodd" d="M1.375,-11.6563 C1.375,-14.4479 1.66146,-16.6953 2.23438,-18.3984 C2.80729,-20.1016 3.66146,-21.4141 4.79688,-22.3359 C5.93229,-23.2578 7.35938,-23.7188 9.07813,-23.7188 C10.3385,-23.7188 11.4479,-23.4635 12.4063,-22.9531 C13.3646,-22.4427 14.1536,-21.7057 14.7734,-20.7422 C15.3932,-19.7786 15.8828,-18.6068 16.2422,-17.2266 C16.6016,-15.8464 16.7813,-13.9896 16.7813,-11.6563 C16.7813,-8.88542 16.4948,-6.64844 15.9219,-4.94531 C15.349,-3.24219 14.4974,-1.92448 13.3672,-0.992188 C12.237,-0.0598958 10.8073,0.40625 9.07813,0.40625 C6.79688,0.40625 5.00521,-0.411458 3.70313,-2.04688 C2.15104,-4.01563 1.375,-7.21875 1.375,-11.6563 M4.34375,-11.6563 C4.34375,-7.77083 4.79948,-5.1875 5.71094,-3.90625 C6.6224,-2.625 7.74479,-1.98438 9.07813,-1.98438 C10.401,-1.98438 11.5182,-2.6276 12.4297,-3.91406 C13.3411,-5.20052 13.7969,-7.78125 13.7969,-11.6563 C13.7969,-15.5417 13.3411,-18.1224 12.4297,-19.3984 C11.5182,-20.6745 10.3906,-21.3125 9.04688,-21.3125 C7.71354,-21.3125 6.64583,-20.75 5.84375,-19.625 C4.84375,-18.1875 4.34375,-15.5313 4.34375,-11.6563 M21,0 L21,-3.29688 L24.2969,-3.29688 L24.2969,0 L21,0 M28.375,-11.6563 C28.375,-14.4479 28.6615,-16.6953 29.2344,-18.3984 C29.8073,-20.1016 30.6615,-21.4141 31.7969,-22.3359 C32.9323,-23.2578 34.3594,-23.7188 36.0781,-23.7188 C37.3385,-23.7188 38.4479,-23.4635 39.4063,-22.9531 C40.3646,-22.4427 41.1536,-21.7057 41.7734,-20.7422 C42.3932,-19.7786 42.8828,-18.6068 43.2422,-17.2266 C43.6016,-15.8464 43.7813,-13.9896 43.7813,-11.6563 C43.7813,-8.88542 43.4948,-6.64844 42.9219,-4.94531 C42.349,-3.24219 41.4974,-1.92448 40.3672,-0.992188 C39.237,-0.0598958 37.8073,0.40625 36.0781,0.40625 C33.7969,0.40625 32.0052,-0.411458 30.7031,-2.04688 C29.151,-4.01563 28.375,-7.21875 28.375,-11.6563 M31.3438,-11.6563 C31.3438,-7.77083 31.7995,-5.1875 32.7109,-3.90625 C33.6224,-2.625 34.7448,-1.98438 36.0781,-1.98438 C37.401,-1.98438 38.5182,-2.6276 39.4297,-3.91406 C40.3411,-5.20052 40.7969,-7.78125 40.7969,-11.6563 C40.7969,-15.5417 40.3411,-18.1224 39.4297,-19.3984 C38.5182,-20.6745 37.3906,-21.3125 36.0469,-21.3125 C34.7135,-21.3125 33.6458,-20.75 32.8438,-19.625 C31.8438,-18.1875 31.3438,-15.5313 31.3438,-11.6563 M61.6094,-2.78125 L61.6094,0 L46,0 C45.9792,-0.697917 46.0938,-1.36979 46.3438,-2.01563 C46.7396,-3.07813 47.375,-4.125 48.25,-5.15625 C49.125,-6.1875 50.3906,-7.38021 52.0469,-8.73438 C54.6094,-10.8385 56.3411,-12.5052 57.2422,-13.7344 C58.1432,-14.9635 58.5938,-16.125 58.5938,-17.2188 C58.5938,-18.375 58.1849,-19.3464 57.3672,-20.1328 C56.5495,-20.9193 55.4792,-21.3125 54.1563,-21.3125 C52.7604,-21.3125 51.6432,-20.8932 50.8047,-20.0547 C49.9661,-19.2161 49.5417,-18.0573 49.5313,-16.5781 L46.5469,-16.8906 C46.7552,-19.1094 47.5234,-20.8021 48.8516,-21.9688 C50.1797,-23.1354 51.9688,-23.7188 54.2188,-23.7188 C56.4792,-23.7188 58.2708,-23.0911 59.5938,-21.8359 C60.9167,-20.5807 61.5781,-19.0208 61.5781,-17.1563 C61.5781,-16.2188 61.3854,-15.2917 61,-14.375 C60.6146,-13.4583 59.974,-12.4948 59.0781,-11.4844 C58.1823,-10.474 56.6927,-9.08854 54.6094,-7.32813 C52.8698,-5.86979 51.7526,-4.88021 51.2578,-4.35938 C50.763,-3.83854 50.3542,-3.3125 50.0313,-2.78125 L61.6094,-2.78125"/>
</g>

<g fill="#d9d9d9" fill-opacity="1" stroke="none" transform="matrix(0.75,0,0,0.75,81.5,313.375)"
font-family="MS Shell Dlg 2" font-size="8.25" font-weight="400" font-style="normal" 
>
<path vector-effect="none" fill-rule="evenodd" d="M1.375,-11.6563 C1.375,-14.4479 1.66146,-16.6953 2.23438,-18.3984 C2.80729,-20.1016 3.66146,-21.4141 4.79688,-22.3359 C5.93229,-23.2578 7.35938,-23.7188 9.07813,-23.7188 C10.3385,-23.7188 11.4479,-23.4635 12.4063,-22.9531 C13.3646,-22.4427 14.1536,-21.7057 14.7734,-20.7422 C15.3932,-19.7786 15.8828,-18.6068 16.2422,-17.2266 C16.6016,-15.8464 16.7813,-13.9896 16.7813,-11.6563 C16.7813,-8.88542 16.4948,-6.64844 15.9219,-4.94531 C15.349,-3.24219 14.4974,-1.92448 13.3672,-0.992188 C12.237,-0.0598958 10.8073,0.40625 9.07813,0.40625 C6.79688,0.40625 5.00521,-0.411458 3.70313,-2.04688 C2.15104,-4.01563 1.375,-7.21875 1.375,-11.6563 M4.34375,-11.6563 C4.34375,-7.77083 4.79948,-5.1875 5.71094,-3.90625 C6.6224,-2.625 7.74479,-1.98438 9.07813,-1.98438 C10.401,-1.98438 11.5182,-2.6276 12.4297,-3.91406 C13.3411,-5.20052 13.7969,-7.78125 13.7969,-11.6563 C13.7969,-15.5417 13.3411,-18.1224 12.4297,-19.3984 C11.5182,-20.6745 10.3906,-21.3125 9.04688,-21.3125 C7.71354,-21.3125 6.64583,-20.75 5.84375,-19.625 C4.84375,-18.1875 4.34375,-15.5313 4.34375,-11.6563 M21,0 L21,-3.29688 L24.2969,-3.29688 L24.2969,0 L21,0 M28.375,-11.6563 C28.375,-14.4479 28.6615,-16.6953 29.2344,-18.3984 C29.8073,-20.1016 30.6615,-21.4141 31.7969,-22.3359 C32.9323,-23.2578 34.3594,-23.7188 36.0781,-23.7188 C37.3385,-23.7188 38.4479,-23.4635 39.4063,-22.9531 C40.3646,-22.4427 41.1536,-21.7057 41.7734,-20.7422 C42.3932,-19.7786 42.8828,-18.6068 43.2422,-17.2266 C43.6016,-15.8464 43.7813,-13.9896 43.7813,-11.6563 C43.7813,-8.88542 43.4948,-6.64844 42.9219,-4.94531 C42.349,-3.24219 41.4974,-1.92448 40.3672,-0.992188 C39.237,-0.0598958 37.8073,0.40625 36.0781,0.40625 C33.7969,0.40625 32.0052,-0.411458 30.7031,-2.04688 C29.151,-4.01563 28.375,-7.21875 28.375,-11.6563 M31.3438,-11.6563 C31.3438,-7.77083 31.7995,-5.1875 32.7109,-3.90625 C33.6224,-2.625 34.7448,-1.98438 36.0781,-1.98438 C37.401,-1.98438 38.5182,-2.6276 39.4297,-3.91406 C40.3411,-5.20052 40.7969,-7.78125 40.7969,-11.6563 C40.7969,-15.5417 40.3411,-18.1224 39.4297,-19.3984 C38.5182,-20.6745 37.3906,-21.3125 36.0469,-21.3125 C34.7135,-21.3125 33.6458,-20.75 32.8438,-19.625 C31.8438,-18.1875 31.3438,-15.5313 31.3438,-11.6563 M55.6719,0 L55.6719,-5.65625 L45.4219,-5.65625 L45.4219,-8.3125 L56.2031,-23.625 L58.5625,-23.625 L58.5625,-8.3125 L61.7656,-8.3125 L61.7656,-5.65625 L58.5625,-5.65625 L58.5625,0 L55.6719,0 M55.6719,-8.3125 L55.6719,-18.9688 L48.2656,-8.3125 L55.6719,-8.3125"/>
</g>

<g fill="#d9d9d9" fill-opacity="1" stroke="none" transform="matrix(0.75,0,0,0.75,81.5,230.626)"
font-family="MS Shell Dlg 2" font-size="8.25" font-weight="400" font-style="normal" 
>
<path vector-effect="none" fill-rule="evenodd" d="M1.375,-11.6563 C1.375,-14.4479 1.66146,-16.6953 2.23438,-18.3984 C2.80729,-20.1016 3.66146,-21.4141 4.79688,-22.3359 C5.93229,-23.2578 7.35938,-23.7188 9.07813,-23.7188 C10.3385,-23.7188 11.4479,-23.4635 12.4063,-22.9531 C13.3646,-22.4427 14.1536,-21.7057 14.7734,-20.7422 C15.3932,-19.7786 15.8828,-18.6068 16.2422,-17.2266 C16.6016,-15.8464 16.7813,-13.9896 16.7813,-11.6563 C16.7813,-8.88542 16.4948,-6.64844 15.9219,-4.94531 C15.349,-3.24219 14.4974,-1.92448 13.3672,-0.992188 C12.237,-0.0598958 10.8073,0.40625 9.07813,0.40625 C6.79688,0.40625 5.00521,-0.411458 3.70313,-2.04688 C2.15104,-4.01563 1.375,-7.21875 1.375,-11.6563 M4.34375,-11.6563 C4.34375,-7.77083 4.79948,-5.1875 5.71094,-3.90625 C6.6224,-2.625 7.74479,-1.98438 9.07813,-1.98438 C10.401,-1.98438 11.5182,-2.6276 12.4297,-3.91406 C13.3411,-5.20052 13.7969,-7.78125 13.7969,-11.6563 C13.7969,-15.5417 13.3411,-18.1224 12.4297,-19.3984 C11.5182,-20.6745 10.3906,-21.3125 9.04688,-21.3125 C7.71354,-21.3125 6.64583,-20.75 5.84375,-19.625 C4.84375,-18.1875 4.34375,-15.5313 4.34375,-11.6563 M21,0 L21,-3.29688 L24.2969,-3.29688 L24.2969,0 L21,0 M28.375,-11.6563 C28.375,-14.4479 28.6615,-16.6953 29.2344,-18.3984 C29.8073,-20.1016 30.6615,-21.4141 31.7969,-22.3359 C32.9323,-23.2578 34.3594,-23.7188 36.0781,-23.7188 C37.3385,-23.7188 38.4479,-23.4635 39.4063,-22.9531 C40.3646,-22.4427 41.1536,-21.7057 41.7734,-20.7422 C42.3932,-19.7786 42.8828,-18.6068 43.2422,-17.2266 C43.6016,-15.8464 43.7813,-13.9896 43.7813,-11.6563 C43.7813,-8.88542 43.4948,-6.64844 42.9219,-4.94531 C42.349,-3.24219 41.4974,-1.92448 40.3672,-0.992188 C39.237,-0.0598958 37.8073,0.40625 36.0781,0.40625 C33.7969,0.40625 32.0052,-0.411458 30.7031,-2.04688 C29.151,-4.01563 28.375,-7.21875 28.375,-11.6563 M31.3438,-11.6563 C31.3438,-7.77083 31.7995,-5.1875 32.7109,-3.90625 C33.6224,-2.625 34.7448,-1.98438 36.0781,-1.98438 C37.401,-1.98438 38.5182,-2.6276 39.4297,-3.91406 C40.3411,-5.20052 40.7969,-7.78125 40.7969,-11.6563 C40.7969,-15.5417 40.3411,-18.1224 39.4297,-19.3984 C38.5182,-20.6745 37.3906,-21.3125 36.0469,-21.3125 C34.7135,-21.3125 33.6458,-20.75 32.8438,-19.625 C31.8438,-18.1875 31.3438,-15.5313 31.3438,-11.6563 M61.4219,-17.8438 L58.5313,-17.6094 C58.2813,-18.7448 57.9167,-19.5729 57.4375,-20.0938 C56.6563,-20.9167 55.6927,-21.3281 54.5469,-21.3281 C53.6198,-21.3281 52.8073,-21.0729 52.1094,-20.5625 C51.1927,-19.8958 50.4714,-18.9245 49.9453,-17.6484 C49.4193,-16.3724 49.1458,-14.5521 49.125,-12.1875 C49.8229,-13.25 50.6771,-14.0391 51.6875,-14.5547 C52.6979,-15.0703 53.7552,-15.3281 54.8594,-15.3281 C56.7969,-15.3281 58.4453,-14.6146 59.8047,-13.1875 C61.1641,-11.7604 61.8438,-9.92188 61.8438,-7.67188 C61.8438,-6.19271 61.5234,-4.8151 60.8828,-3.53906 C60.2422,-2.26302 59.362,-1.28646 58.2422,-0.609375 C57.1224,0.0677083 55.8542,0.40625 54.4375,0.40625 C52.0208,0.40625 50.0495,-0.484375 48.5234,-2.26563 C46.9974,-4.04688 46.2344,-6.97396 46.2344,-11.0469 C46.2344,-15.6198 47.0781,-18.9427 48.7656,-21.0156 C50.2448,-22.8177 52.2292,-23.7188 54.7188,-23.7188 C56.5729,-23.7188 58.0938,-23.1979 59.2813,-22.1563 C60.4688,-21.1146 61.1823,-19.6771 61.4219,-17.8438 M49.5781,-7.65625 C49.5781,-6.65625 49.7891,-5.70052 50.2109,-4.78906 C50.6328,-3.8776 51.2266,-3.18229 51.9922,-2.70313 C52.7578,-2.22396 53.5573,-1.98438 54.3906,-1.98438 C55.6198,-1.98438 56.6745,-2.47917 57.5547,-3.46875 C58.4349,-4.45833 58.875,-5.80208 58.875,-7.5 C58.875,-9.125 58.4401,-10.4089 57.5703,-11.3516 C56.7005,-12.2943 55.6042,-12.7656 54.2813,-12.7656 C52.9688,-12.7656 51.8568,-12.2943 50.9453,-11.3516 C50.0339,-10.4089 49.5781,-9.17708 49.5781,-7.65625 "/>
</g>

<g fill="#d9d9d9" fill-opacity="1" stroke="none" transform="matrix(0.75,0,0,0.75,81.5,147.876)"
font-family="MS Shell Dlg 2" font-size="8.25" font-weight="400" font-style="normal" 
>
<path vector-effect="none" fill-rule="evenodd" d="M1.375,-11.6563 C1.375,-14.4479 1.66146,-16.6953 2.23438,-18.3984 C2.80729,-20.1016 3.66146,-21.4141 4.79688,-22.3359 C5.93229,-23.2578 7.35938,-23.7188 9.07813,-23.7188 C10.3385,-23.7188 11.4479,-23.4635 12.4063,-22.9531 C13.3646,-22.4427 14.1536,-21.7057 14.7734,-20.7422 C15.3932,-19.7786 15.8828,-18.6068 16.2422,-17.2266 C16.6016,-15.8464 16.7813,-13.9896 16.7813,-11.6563 C16.7813,-8.88542 16.4948,-6.64844 15.9219,-4.94531 C15.349,-3.24219 14.4974,-1.92448 13.3672,-0.992188 C12.237,-0.0598958 10.8073,0.40625 9.07813,0.40625 C6.79688,0.40625 5.00521,-0.411458 3.70313,-2.04688 C2.15104,-4.01563 1.375,-7.21875 1.375,-11.6563 M4.34375,-11.6563 C4.34375,-7.77083 4.79948,-5.1875 5.71094,-3.90625 C6.6224,-2.625 7.74479,-1.98438 9.07813,-1.98438 C10.401,-1.98438 11.5182,-2.6276 12.4297,-3.91406 C13.3411,-5.20052 13.7969,-7.78125 13.7969,-11.6563 C13.7969,-15.5417 13.3411,-18.1224 12.4297,-19.3984 C11.5182,-20.6745 10.3906,-21.3125 9.04688,-21.3125 C7.71354,-21.3125 6.64583,-20.75 5.84375,-19.625 C4.84375,-18.1875 4.34375,-15.5313 4.34375,-11.6563 M21,0 L21,-3.29688 L24.2969,-3.29688 L24.2969,0 L21,0 M28.375,-11.6563 C28.375,-14.4479 28.6615,-16.6953 29.2344,-18.3984 C29.8073,-20.1016 30.6615,-21.4141 31.7969,-22.3359 C32.9323,-23.2578 34.3594,-23.7188 36.0781,-23.7188 C37.3385,-23.7188 38.4479,-23.4635 39.4063,-22.9531 C40.3646,-22.4427 41.1536,-21.7057 41.7734,-20.7422 C42.3932,-19.7786 42.8828,-18.6068 43.2422,-17.2266 C43.6016,-15.8464 43.7813,-13.9896 43.7813,-11.6563 C43.7813,-8.88542 43.4948,-6.64844 42.9219,-4.94531 C42.349,-3.24219 41.4974,-1.92448 40.3672,-0.992188 C39.237,-0.0598958 37.8073,0.40625 36.0781,0.40625 C33.7969,0.40625 32.0052,-0.411458 30.7031,-2.04688 C29.151,-4.01563 28.375,-7.21875 28.375,-11.6563 M31.3438,-11.6563 C31.3438,-7.77083 31.7995,-5.1875 32.7109,-3.90625 C33.6224,-2.625 34.7448,-1.98438 36.0781,-1.98438 C37.401,-1.98438 38.5182,-2.6276 39.4297,-3.91406 C40.3411,-5.20052 40.7969,-7.78125 40.7969,-11.6563 C40.7969,-15.5417 40.3411,-18.1224 39.4297,-19.3984 C38.5182,-20.6745 37.3906,-21.3125 36.0469,-21.3125 C34.7135,-21.3125 33.6458,-20.75 32.8438,-19.625 C31.8438,-18.1875 31.3438,-15.5313 31.3438,-11.6563 M50.8281,-12.8125 C49.6302,-13.25 48.7396,-13.8776 48.1563,-14.6953 C47.5729,-15.513 47.2813,-16.4896 47.2813,-17.625 C47.2813,-19.3438 47.901,-20.7891 49.1406,-21.9609 C50.3802,-23.1328 52.026,-23.7188 54.0781,-23.7188 C56.1406,-23.7188 57.7995,-23.1198 59.0547,-21.9219 C60.3099,-20.724 60.9375,-19.2656 60.9375,-17.5469 C60.9375,-16.4531 60.651,-15.5 60.0781,-14.6875 C59.5052,-13.875 58.6302,-13.25 57.4531,-12.8125 C58.901,-12.3333 60.0052,-11.5677 60.7656,-10.5156 C61.526,-9.46354 61.9063,-8.20833 61.9063,-6.75 C61.9063,-4.72917 61.1901,-3.03125 59.7578,-1.65625 C58.3255,-0.28125 56.4479,0.40625 54.125,0.40625 C51.7917,0.40625 49.9115,-0.283854 48.4844,-1.66406 C47.0573,-3.04427 46.3438,-4.76563 46.3438,-6.82813 C46.3438,-8.36979 46.7318,-9.65885 47.5078,-10.6953 C48.2839,-11.7318 49.3906,-12.4375 50.8281,-12.8125 M50.25,-17.7188 C50.25,-16.6042 50.6094,-15.6927 51.3281,-14.9844 C52.0469,-14.276 52.9844,-13.9219 54.1406,-13.9219 C55.2552,-13.9219 56.1693,-14.2734 56.8828,-14.9766 C57.5964,-15.6797 57.9531,-16.5417 57.9531,-17.5625 C57.9531,-18.625 57.5859,-19.5182 56.8516,-20.2422 C56.1172,-20.9661 55.2031,-21.3281 54.1094,-21.3281 C52.9948,-21.3281 52.0729,-20.974 51.3438,-20.2656 C50.6146,-19.5573 50.25,-18.7083 50.25,-17.7188 M49.3125,-6.8125 C49.3125,-5.98958 49.5104,-5.1901 49.9063,-4.41406 C50.3021,-3.63802 50.8854,-3.03906 51.6563,-2.61719 C52.4271,-2.19531 53.2604,-1.98438 54.1563,-1.98438 C55.5417,-1.98438 56.6849,-2.42969 57.5859,-3.32031 C58.487,-4.21094 58.9375,-5.34375 58.9375,-6.71875 C58.9375,-8.11458 58.474,-9.26823 57.5469,-10.1797 C56.6198,-11.0911 55.4583,-11.5469 54.0625,-11.5469 C52.6979,-11.5469 51.5651,-11.0964 50.6641,-10.1953 C49.763,-9.29427 49.3125,-8.16667 49.3125,-6.8125 "/>
</g>

<g fill="#d9d9d9" fill-opacity="1" stroke="none" transform="matrix(0.75,0,0,0.75,95,65.1259)"
font-family="MS Shell Dlg 2" font-size="8.25" font-weight="400" font-style="normal" 
>
<path vector-effect="none" fill-rule="evenodd" d="M1.375,-11.6563 C1.375,-14.4479 1.66146,-16.6953 2.23438,-18.3984 C2.80729,-20.1016 3.66146,-21.4141 4.79688,-22.3359 C5.93229,-23.2578 7.35938,-23.7188 9.07813,-23.7188 C10.3385,-23.7188 11.4479,-23.4635 12.4063,-22.9531 C13.3646,-22.4427 14.1536,-21.7057 14.7734,-20.7422 C15.3932,-19.7786 15.8828,-18.6068 16.2422,-17.2266 C16.6016,-15.8464 16.7813,-13.9896 16.7813,-11.6563 C16.7813,-8.88542 16.4948,-6.64844 15.9219,-4.94531 C15.349,-3.24219 14.4974,-1.92448 13.3672,-0.992188 C12.237,-0.0598958 10.8073,0.40625 9.07813,0.40625 C6.79688,0.40625 5.00521,-0.411458 3.70313,-2.04688 C2.15104,-4.01563 1.375,-7.21875 1.375,-11.6563 M4.34375,-11.6563 C4.34375,-7.77083 4.79948,-5.1875 5.71094,-3.90625 C6.6224,-2.625 7.74479,-1.98438 9.07813,-1.98438 C10.401,-1.98438 11.5182,-2.6276 12.4297,-3.91406 C13.3411,-5.20052 13.7969,-7.78125 13.7969,-11.6563 C13.7969,-15.5417 13.3411,-18.1224 12.4297,-19.3984 C11.5182,-20.6745 10.3906,-21.3125 9.04688,-21.3125 C7.71354,-21.3125 6.64583,-20.75 5.84375,-19.625 C4.84375,-18.1875 4.34375,-15.5313 4.34375,-11.6563 M21,0 L21,-3.29688 L24.2969,-3.29688 L24.2969,0 L21,0 M39.2969,0 L36.3906,0 L36.3906,-18.4844 C35.6927,-17.8177 34.7786,-17.151 33.6484,-16.4844 C32.5182,-15.8177 31.5,-15.3177 30.5938,-14.9844 L30.5938,-17.7969 C32.2188,-18.5573 33.638,-19.4792 34.8516,-20.5625 C36.0651,-21.6458 36.9219,-22.6979 37.4219,-23.7188 L39.2969,-23.7188 L39.2969,0"/>
</g>

<g fill="none" stroke="#268cdd" stroke-opacity="1" stroke-width="2.66667" stroke-linecap="butt" stroke-linejoin="round" transform="matrix(0.75,0,0,0.75,0,0)"
font-family="MS Shell Dlg 2" font-size="8.25" font-weight="400" font-style="normal" 
>
<polyline fill="none" vector-effect="none" points="181,627 189.358,627 197.716,627 206.074,627 214.432,627 222.789,627 231.147,627 239.505,627 247.863,627 256.221,627 264.579,627 272.937,627 281.295,627 289.652,627 298.01,627 306.368,627 314.726,626.998 323.084,626.962 331.442,626.578 339.8,623.793 348.158,610.113 356.516,564.432 364.873,460.682 373.231,303.588 381.589,153.631 389.947,76.8764 398.305,73.3636 406.663,102.118 415.021,149.805 423.379,223.227 431.737,311.081 440.094,389.221 448.452,444.772 456.81,482.349 465.168,511.469 473.526,536.153 481.884,556.51 490.242,571.995 498.6,580.599 506.958,577.979 515.315,558.625 523.673,519.201 532.031,463.123 540.389,402.08 548.747,351.299 557.105,321.266 565.463,313.888 573.821,325.235 582.178,350.16 590.536,383.615 598.894,420.27 607.252,454.623 615.61,483.542 623.968,507.415 632.326,526.948 640.684,542.813 649.042,554.719 657.399,560.808 665.757,559.321 674.115,548.323 682.473,527.277 690.831,498.507 699.189,466.235 707.547,436.592 715.905,415.373 724.263,405.475 732.62,407.213 740.978,420.85 749.336,444.633 757.694,468.853 766.052,488.888 774.41,507.239 782.768,525.948 791.126,543.833 799.483,554.619 807.841,564.631 816.199,573.046 824.557,580.454 832.915,586.895 841.273,592.307 849.631,597.379 857.989,601.082 866.347,604.983 874.704,606.369 883.062,608.675 891.42,610.758 899.778,612.686 908.136,614.413 916.494,615.9 924.852,617.451 933.21,619.106 941.568,620.338 949.925,620.554 958.283,620.711 966.641,621.405 974.999,622.099 983.357,622.792 991.715,623.486 1000.07,624.18 1008.43,624.873 1016,625.707 " />
</g>

<g fill="none" stroke="#ffffff" stroke-opacity="1" stroke-width="2.66667" stroke-linecap="butt" stroke-linejoin="miter" stroke-miterlimit="2" transform="matrix(0.75,0,0,0.75,0,0)"
font-family="MS Shell Dlg 2" font-size="8.25" font-weight="400" font-style="normal" 
>
<path vector-effect="none" fill-rule="evenodd" d="M404.972,73.3636 C404.972,69.6817 401.987,66.697 398.305,66.697 C394.623,66.697 391.638,69.6817 391.638,73.3636 C391.638,77.0455 394.623,80.0303 398.305,80.0303 C401.987,80.0303 404.972,77.0455 404.972,73.3636 "/>
<path vector-effect="none" fill-rule="evenodd" d="M572.129,313.888 C572.129,310.206 569.145,307.221 565.463,307.221 C561.781,307.221 558.796,310.206 558.796,313.888 C558.796,317.57 561.781,320.555 565.463,320.555 C569.145,320.555 572.129,317.57 572.129,313.888 "/>
<path vector-effect="none" fill-rule="evenodd" d="M739.287,407.213 C739.287,403.532 736.302,400.547 732.62,400.547 C728.939,400.547 725.954,403.532 725.954,407.213 C725.954,410.895 728.939,413.88 732.62,413.88 C736.302,413.88 739.287,410.895 739.287,407.213 "/>
</g>
</g>
</svg>
